G04 start of page 6 for group -4063 idx -4063 *
G04 Title: (unknown), componentmask *
G04 Creator: pcb 1.99z *
G04 CreationDate: Mon Nov 16 05:23:09 2015 UTC *
G04 For: commonadmin *
G04 Format: Gerber/RS-274X *
G04 PCB-Dimensions (mil): 3220.00 2260.00 *
G04 PCB-Coordinate-Origin: lower left *
%MOIN*%
%FSLAX25Y25*%
%LNTOPMASK*%
%ADD84R,0.1510X0.1510*%
%ADD83R,0.0572X0.0572*%
%ADD82C,0.0247*%
%ADD81R,0.0818X0.0818*%
%ADD80R,0.0257X0.0257*%
%ADD79C,0.2422*%
%ADD78C,0.0759*%
%ADD77C,0.1560*%
%ADD76C,0.0960*%
%ADD75C,0.0610*%
%ADD74C,0.0887*%
%ADD73C,0.1536*%
%ADD72C,0.0660*%
%ADD71C,0.0001*%
%ADD70C,0.0611*%
G54D70*X25500Y74500D03*
X20500Y64500D03*
X30500D03*
G54D71*G36*
X14700Y102800D02*Y96200D01*
X21300D01*
Y102800D01*
X14700D01*
G37*
G54D72*X8000Y99500D03*
G54D70*X35500Y74500D03*
X45500D03*
X55500D03*
X40500Y64500D03*
X50500D03*
G54D73*X15500Y39500D03*
G54D74*X6957Y27492D03*
G54D71*G36*
X84700Y137800D02*Y131200D01*
X91300D01*
Y137800D01*
X84700D01*
G37*
G54D72*X108000Y134500D03*
G54D71*G36*
X144700Y142800D02*Y136200D01*
X151300D01*
Y142800D01*
X144700D01*
G37*
G54D72*X148000Y109500D03*
G54D71*G36*
X244450Y91550D02*Y85450D01*
X250550D01*
Y91550D01*
X244450D01*
G37*
G54D75*X267500Y88500D03*
G54D70*X246043Y74508D03*
X256043D03*
X266043D03*
G54D71*G36*
X285200Y150800D02*Y141200D01*
X294800D01*
Y150800D01*
X285200D01*
G37*
G54D76*X300000Y146000D03*
X310000D03*
G54D77*X300000Y213000D03*
G54D70*X276043Y74508D03*
G54D73*X281043Y39508D03*
G54D74*X289508Y27500D03*
G54D78*X311500Y21500D03*
X301500Y41500D03*
G54D70*X241043Y64508D03*
G54D73*X236043Y39508D03*
G54D74*X227500Y27500D03*
G54D79*X205500Y25000D03*
Y53346D03*
G54D70*X251043Y64508D03*
X261043D03*
X271043D03*
G54D71*G36*
X307703Y75297D02*Y67703D01*
X315297D01*
Y75297D01*
X307703D01*
G37*
G54D73*X60500Y39500D03*
X87500D03*
G54D74*X68965Y27492D03*
X78957D03*
G54D70*X97500Y74500D03*
X107500D03*
X117500D03*
X127500D03*
G54D73*X132500Y39500D03*
G54D74*X140965Y27492D03*
G54D79*X162500Y25000D03*
Y53346D03*
G54D70*X92500Y64500D03*
X102500D03*
X112500D03*
X122500D03*
G54D80*X289000Y88393D02*Y87607D01*
X292148Y88393D02*Y87607D01*
G54D81*X190500Y121272D02*Y117728D01*
G54D82*X186661Y125110D02*Y113890D01*
G54D83*X188000Y148181D02*Y145819D01*
X199810Y148181D02*Y145819D01*
G54D82*X186661Y125110D02*X194339D01*
X186661Y113890D02*X194339D01*
Y125110D02*Y113890D01*
G54D84*X217500Y119500D02*X221500D01*
G54D81*X190500Y100799D02*Y97256D01*
G54D82*X186661Y104638D02*X194339D01*
X186661Y93417D02*X194339D01*
Y104638D02*Y93417D01*
X186661Y104638D02*Y93417D01*
G54D84*X217500Y97700D02*X221500D01*
X34800Y121500D02*Y117500D01*
X13000Y121500D02*Y117500D01*
X58500Y144500D02*X62500D01*
X58500Y122700D02*X62500D01*
X34800Y146500D02*Y142500D01*
X13000Y146500D02*Y142500D01*
M02*
