G04 start of page 7 for group -4062 idx -4062 *
G04 Title: (unknown), soldermask *
G04 Creator: pcb 1.99z *
G04 CreationDate: Mon Nov 16 05:23:09 2015 UTC *
G04 For: commonadmin *
G04 Format: Gerber/RS-274X *
G04 PCB-Dimensions (mil): 3220.00 2260.00 *
G04 PCB-Coordinate-Origin: lower left *
%MOIN*%
%FSLAX25Y25*%
%LNBOTTOMMASK*%
%ADD94C,0.2422*%
%ADD93C,0.0759*%
%ADD92C,0.1560*%
%ADD91C,0.0960*%
%ADD90C,0.0610*%
%ADD89C,0.0887*%
%ADD88C,0.1536*%
%ADD87C,0.0660*%
%ADD86C,0.0001*%
%ADD85C,0.0611*%
G54D85*X25500Y74500D03*
X20500Y64500D03*
X30500D03*
G54D86*G36*
X14700Y102800D02*Y96200D01*
X21300D01*
Y102800D01*
X14700D01*
G37*
G54D87*X8000Y99500D03*
G54D85*X35500Y74500D03*
X45500D03*
X55500D03*
X40500Y64500D03*
X50500D03*
G54D88*X15500Y39500D03*
G54D89*X6957Y27492D03*
G54D86*G36*
X84700Y137800D02*Y131200D01*
X91300D01*
Y137800D01*
X84700D01*
G37*
G54D87*X108000Y134500D03*
G54D86*G36*
X144700Y142800D02*Y136200D01*
X151300D01*
Y142800D01*
X144700D01*
G37*
G54D87*X148000Y109500D03*
G54D86*G36*
X244450Y91550D02*Y85450D01*
X250550D01*
Y91550D01*
X244450D01*
G37*
G54D90*X267500Y88500D03*
G54D85*X246043Y74508D03*
X256043D03*
X266043D03*
G54D86*G36*
X285200Y150800D02*Y141200D01*
X294800D01*
Y150800D01*
X285200D01*
G37*
G54D91*X300000Y146000D03*
X310000D03*
G54D92*X300000Y213000D03*
G54D85*X276043Y74508D03*
G54D88*X281043Y39508D03*
G54D89*X289508Y27500D03*
G54D93*X311500Y21500D03*
X301500Y41500D03*
G54D85*X241043Y64508D03*
G54D88*X236043Y39508D03*
G54D89*X227500Y27500D03*
G54D94*X205500Y25000D03*
Y53346D03*
G54D85*X251043Y64508D03*
X261043D03*
X271043D03*
G54D86*G36*
X307703Y75297D02*Y67703D01*
X315297D01*
Y75297D01*
X307703D01*
G37*
G54D88*X60500Y39500D03*
X87500D03*
G54D89*X68965Y27492D03*
X78957D03*
G54D85*X97500Y74500D03*
X107500D03*
X117500D03*
X127500D03*
G54D88*X132500Y39500D03*
G54D89*X140965Y27492D03*
G54D94*X162500Y25000D03*
Y53346D03*
G54D85*X92500Y64500D03*
X102500D03*
X112500D03*
X122500D03*
M02*
