M48
INCH
T69C0.035
T68C0.020
T67C0.187
T66C0.130
T65C0.060
T64C0.050
T63C0.030
T62C0.063
T61C0.128
T60C0.038
T59C0.035
%
T68
X000500Y009200
X002600Y010500
X004650Y013250
X006550Y007550
X007950Y006350
X012750Y012000
X018350Y004350
X019050Y009903
X025550Y002900
X025650Y005250
X026050Y012350
X028000Y009100
X028400Y007500
X029150Y010500
X031250Y009500
T63
X008800Y013450
X010800Y013450
X024750Y008850
X026750Y008850
X030150Y004150
X031150Y007150
X031150Y002150
T69
X011850Y005900
X018400Y006750
X019000Y008100
X019950Y008200
X022500Y007900
T59
X002050Y006450
X002550Y007450
X003050Y006450
X003550Y007450
X004050Y006450
X004550Y007450
X005050Y006450
X005550Y007450
X009250Y006450
X009750Y007450
X010250Y006450
X010750Y007450
X011250Y006450
X011750Y007450
X012250Y006450
X012750Y007450
X024104Y006451
X024604Y007451
X025104Y006451
X025604Y007451
X026104Y006451
X026604Y007451
X027104Y006451
X027604Y007451
T60
X000800Y009950
X001800Y009950
T64
X014800Y013950
X014800Y010950
T65
X029000Y014600
X030000Y014600
X031000Y014600
T62
X000696Y002749
X006896Y002749
X007896Y002749
X014096Y002749
X022750Y002750
X028951Y002750
T61
X001550Y003950
X006050Y003950
X008750Y003950
X013250Y003950
X023604Y003951
X028104Y003951
T66
X030000Y021300
T67
X016250Y005335
X016250Y002500
X020550Y005335
X020550Y002500
M30
