M48
INCH
T60C0.035
T59C0.020
T58C0.063
T57C0.128
T56C0.035
T55C0.030
T54C0.187
T53C0.038
%
T59
X002050Y012950
X002950Y012050
X004200Y015500
X004270Y012200
X004650Y010300
X005650Y004600
X006300Y010300
X006450Y012200
X008000Y005000
X008000Y003400
X008200Y013700
X008200Y007100
X008850Y005750
X010700Y009650
X010850Y005500
X011450Y008050
X011700Y004300
X011800Y001000
X013000Y013000
X013000Y002700
X013100Y003900
X013500Y000700
T55
X008250Y004200
X009250Y007200
X009250Y002200
X010600Y004200
X011600Y007200
X011600Y002200
T60
X000700Y010600
X001200Y012700
T56
X005800Y009100
X005800Y008100
X005800Y007100
X005800Y006100
X006800Y008600
X006800Y007600
X006800Y006600
X006800Y005600
T53
X000650Y015850
X000650Y014850
X000650Y013850
X001800Y015850
X001800Y014850
X001800Y013850
X002950Y015850
X002950Y014850
X002950Y013850
X006900Y015850
X006900Y014850
X012800Y007950
X012800Y006950
X012800Y005700
X012800Y004700
T58
X002099Y010454
X002099Y004254
T57
X003300Y009600
X003300Y005100
T54
X001850Y002100
X004685Y002100
X009250Y010950
X012085Y010950
M30
