G04 start of page 10 for group -4015 idx -4015 *
G04 Title: (unknown), toppaste *
G04 Creator: pcb 1.99z *
G04 CreationDate: Mon Nov 16 05:24:31 2015 UTC *
G04 For: commonadmin *
G04 Format: Gerber/RS-274X *
G04 PCB-Dimensions (mil): 3220.00 2260.00 *
G04 PCB-Coordinate-Origin: lower left *
%MOIN*%
%FSLAX25Y25*%
%LNTOPPASTE*%
%ADD108R,0.0512X0.0512*%
%ADD107C,0.0197*%
%ADD106R,0.0768X0.0768*%
%ADD105R,0.1450X0.1450*%
%ADD104R,0.0197X0.0197*%
G54D104*X289000Y88393D02*Y87607D01*
X292148Y88393D02*Y87607D01*
G54D105*X34800Y121500D02*Y117500D01*
X13000Y121500D02*Y117500D01*
X58500Y144500D02*X62500D01*
X58500Y122700D02*X62500D01*
X34800Y146500D02*Y142500D01*
X13000Y146500D02*Y142500D01*
G54D106*X190500Y121272D02*Y117728D01*
G54D107*X186661Y125110D02*X194339D01*
X186661Y113890D02*X194339D01*
Y125110D02*Y113890D01*
X186661Y125110D02*Y113890D01*
G54D106*X190500Y100799D02*Y97256D01*
G54D107*X186661Y104638D02*X194339D01*
X186661Y93417D02*X194339D01*
Y104638D02*Y93417D01*
X186661Y104638D02*Y93417D01*
G54D108*X188000Y148181D02*Y145819D01*
X199810Y148181D02*Y145819D01*
G54D105*X217500Y119500D02*X221500D01*
X217500Y97700D02*X221500D01*
M02*
