G04 start of page 2 for group 0 idx 0 *
G04 Title: (unknown), top *
G04 Creator: pcb 1.99z *
G04 CreationDate: Tue Dec  8 20:22:01 2015 UTC *
G04 For: commonadmin *
G04 Format: Gerber/RS-274X *
G04 PCB-Dimensions (mil): 1410.00 1650.00 *
G04 PCB-Coordinate-Origin: lower left *
%MOIN*%
%FSLAX25Y25*%
%LNTOP*%
%ADD31C,0.0630*%
%ADD30C,0.1280*%
%ADD29C,0.0354*%
%ADD28C,0.1870*%
%ADD27C,0.0300*%
%ADD26C,0.0380*%
%ADD25C,0.0350*%
%ADD24C,0.0200*%
%ADD23C,0.0360*%
%ADD22R,0.1450X0.1450*%
%ADD21R,0.0295X0.0295*%
%ADD20R,0.0512X0.0512*%
%ADD19C,0.0720*%
%ADD18C,0.0827*%
%ADD17C,0.1476*%
%ADD16C,0.0551*%
%ADD15C,0.2362*%
%ADD14C,0.0600*%
%ADD13C,0.0140*%
%ADD12C,0.0250*%
%ADD11C,0.0001*%
G54D11*G36*
X57694Y25645D02*X57933Y25073D01*
X58248Y24083D01*
X58475Y23069D01*
X58612Y22038D01*
X58657Y21000D01*
X58612Y19962D01*
X58475Y18931D01*
X58248Y17917D01*
X57933Y16927D01*
X57694Y16355D01*
Y25645D01*
G37*
G36*
Y36500D02*X63500D01*
Y5000D01*
X57694D01*
Y14183D01*
X57923Y14538D01*
X58448Y15537D01*
X58883Y16578D01*
X59225Y17653D01*
X59472Y18754D01*
X59620Y19873D01*
X59670Y21000D01*
X59620Y22127D01*
X59472Y23246D01*
X59225Y24347D01*
X58883Y25422D01*
X58448Y26463D01*
X57923Y27462D01*
X57694Y27817D01*
Y36500D01*
G37*
G36*
X49096D02*X57694D01*
Y27817D01*
X57312Y28411D01*
X56620Y29302D01*
X56564Y29359D01*
X56499Y29407D01*
X56427Y29444D01*
X56350Y29469D01*
X56271Y29482D01*
X56190Y29482D01*
X56111Y29469D01*
X56034Y29445D01*
X55962Y29408D01*
X55897Y29361D01*
X55840Y29304D01*
X55793Y29239D01*
X55756Y29168D01*
X55731Y29091D01*
X55718Y29012D01*
X55718Y28931D01*
X55730Y28852D01*
X55755Y28775D01*
X55791Y28703D01*
X55839Y28639D01*
X56486Y27826D01*
X57048Y26952D01*
X57532Y26032D01*
X57694Y25645D01*
Y16355D01*
X57532Y15968D01*
X57048Y15048D01*
X56486Y14174D01*
X55848Y13354D01*
X55801Y13291D01*
X55765Y13221D01*
X55741Y13146D01*
X55729Y13068D01*
X55729Y12989D01*
X55742Y12911D01*
X55766Y12837D01*
X55802Y12767D01*
X55849Y12703D01*
X55905Y12648D01*
X55968Y12602D01*
X56039Y12566D01*
X56114Y12542D01*
X56191Y12530D01*
X56270Y12530D01*
X56348Y12542D01*
X56422Y12567D01*
X56492Y12603D01*
X56556Y12649D01*
X56610Y12706D01*
X57312Y13589D01*
X57694Y14183D01*
Y5000D01*
X34028D01*
X39513Y10485D01*
X40385Y9924D01*
X41383Y9399D01*
X42424Y8963D01*
X43499Y8621D01*
X44601Y8375D01*
X45719Y8226D01*
X46846Y8177D01*
X47974Y8226D01*
X49092Y8375D01*
X50193Y8621D01*
X51269Y8963D01*
X52310Y9399D01*
X53308Y9924D01*
X54257Y10535D01*
X55148Y11227D01*
X55206Y11283D01*
X55253Y11348D01*
X55290Y11420D01*
X55315Y11496D01*
X55328Y11576D01*
X55328Y11656D01*
X55316Y11736D01*
X55291Y11812D01*
X55255Y11884D01*
X55208Y11949D01*
X55151Y12006D01*
X55086Y12054D01*
X55014Y12091D01*
X54938Y12116D01*
X54858Y12128D01*
X54778Y12129D01*
X54698Y12116D01*
X54622Y12092D01*
X54550Y12055D01*
X54486Y12007D01*
X53672Y11361D01*
X52798Y10798D01*
X51878Y10314D01*
X50920Y9914D01*
X49929Y9598D01*
X48915Y9372D01*
X47885Y9235D01*
X46846Y9189D01*
X45808Y9235D01*
X44778Y9372D01*
X43764Y9598D01*
X42773Y9914D01*
X41815Y10314D01*
X40895Y10798D01*
X40245Y11217D01*
X48375Y19347D01*
X48442Y19404D01*
X48672Y19673D01*
X48672Y19673D01*
X48857Y19975D01*
X48993Y20303D01*
X49076Y20647D01*
X49103Y21000D01*
X49096Y21088D01*
Y32588D01*
X49929Y32402D01*
X50920Y32086D01*
X51878Y31686D01*
X52798Y31202D01*
X53672Y30639D01*
X54493Y30002D01*
X54556Y29955D01*
X54626Y29919D01*
X54701Y29895D01*
X54779Y29883D01*
X54857Y29883D01*
X54935Y29895D01*
X55010Y29920D01*
X55080Y29956D01*
X55143Y30002D01*
X55199Y30058D01*
X55245Y30122D01*
X55280Y30192D01*
X55305Y30267D01*
X55317Y30345D01*
X55317Y30424D01*
X55304Y30501D01*
X55279Y30576D01*
X55244Y30646D01*
X55197Y30710D01*
X55140Y30764D01*
X54257Y31465D01*
X53308Y32076D01*
X52310Y32601D01*
X51269Y33037D01*
X50193Y33379D01*
X49096Y33624D01*
Y36500D01*
G37*
G36*
X1500D02*X4750D01*
Y34432D01*
X2471Y32153D01*
X2404Y32096D01*
X2174Y31827D01*
X1989Y31525D01*
X1854Y31197D01*
X1771Y30853D01*
X1771Y30853D01*
X1743Y30500D01*
X1750Y30412D01*
Y12088D01*
X1743Y12000D01*
X1771Y11647D01*
Y11647D01*
X1854Y11303D01*
X1989Y10975D01*
X2059Y10861D01*
X2174Y10673D01*
X2174Y10673D01*
X2404Y10404D01*
X2471Y10347D01*
X7818Y5000D01*
X1500D01*
Y36500D01*
G37*
G36*
X9250D02*X34818D01*
X27964Y29646D01*
X27587Y30087D01*
X26053Y31396D01*
X24334Y32450D01*
X22471Y33222D01*
X20510Y33692D01*
X18500Y33851D01*
X16490Y33692D01*
X14529Y33222D01*
X12666Y32450D01*
X10947Y31396D01*
X9413Y30087D01*
X8104Y28553D01*
X7050Y26834D01*
X6278Y24971D01*
X6250Y24853D01*
Y29568D01*
X8529Y31847D01*
X8596Y31904D01*
X8826Y32173D01*
X8826Y32173D01*
X9011Y32475D01*
X9146Y32803D01*
X9229Y33147D01*
X9257Y33500D01*
X9250Y33588D01*
Y36500D01*
G37*
G36*
X30409Y25727D02*X41182Y36500D01*
X44596D01*
Y33624D01*
X43499Y33379D01*
X42424Y33037D01*
X41383Y32601D01*
X40385Y32076D01*
X39436Y31465D01*
X38545Y30773D01*
X38487Y30717D01*
X38440Y30652D01*
X38403Y30580D01*
X38378Y30504D01*
X38365Y30424D01*
X38365Y30344D01*
X38377Y30264D01*
X38402Y30188D01*
X38438Y30116D01*
X38485Y30051D01*
X38542Y29994D01*
X38607Y29946D01*
X38679Y29909D01*
X38755Y29884D01*
X38835Y29872D01*
X38915Y29871D01*
X38995Y29884D01*
X39071Y29908D01*
X39143Y29945D01*
X39207Y29993D01*
X40021Y30639D01*
X40895Y31202D01*
X41815Y31686D01*
X42773Y32086D01*
X43764Y32402D01*
X44596Y32588D01*
Y21932D01*
X37063Y14399D01*
X36645Y15048D01*
X36161Y15968D01*
X35760Y16927D01*
X35445Y17917D01*
X35218Y18931D01*
X35081Y19962D01*
X35035Y21000D01*
X35081Y22038D01*
X35218Y23069D01*
X35445Y24083D01*
X35760Y25073D01*
X36161Y26032D01*
X36645Y26952D01*
X37207Y27826D01*
X37845Y28646D01*
X37892Y28709D01*
X37927Y28779D01*
X37952Y28854D01*
X37964Y28932D01*
X37963Y29011D01*
X37951Y29089D01*
X37926Y29163D01*
X37891Y29233D01*
X37844Y29297D01*
X37788Y29352D01*
X37725Y29399D01*
X37654Y29434D01*
X37579Y29458D01*
X37502Y29470D01*
X37423Y29470D01*
X37345Y29458D01*
X37270Y29433D01*
X37200Y29397D01*
X37137Y29351D01*
X37083Y29294D01*
X36381Y28411D01*
X35770Y27462D01*
X35245Y26463D01*
X34810Y25422D01*
X34468Y24347D01*
X34221Y23246D01*
X34073Y22127D01*
X34023Y21000D01*
X34073Y19873D01*
X34221Y18754D01*
X34468Y17653D01*
X34810Y16578D01*
X35245Y15537D01*
X35770Y14538D01*
X36331Y13667D01*
X31414Y8750D01*
X22353D01*
X22471Y8778D01*
X24334Y9550D01*
X26053Y10604D01*
X27587Y11913D01*
X28896Y13447D01*
X29950Y15166D01*
X30722Y17029D01*
X31192Y18990D01*
X31311Y21000D01*
X31192Y23010D01*
X30722Y24971D01*
X30409Y25727D01*
G37*
G36*
X14647Y8750D02*X10432D01*
X6250Y12932D01*
Y17147D01*
X6278Y17029D01*
X7050Y15166D01*
X8104Y13447D01*
X9413Y11913D01*
X10947Y10604D01*
X12666Y9550D01*
X14529Y8778D01*
X14647Y8750D01*
G37*
G36*
X127330Y75005D02*X131235Y75014D01*
X131300Y75029D01*
Y72565D01*
X131192Y72692D01*
X130653Y73152D01*
X130049Y73522D01*
X129395Y73793D01*
X128706Y73958D01*
X128000Y74014D01*
X127330Y73961D01*
Y75005D01*
G37*
G36*
Y86500D02*X136500D01*
Y5000D01*
X127330D01*
Y30412D01*
X128625Y30415D01*
X128778Y30452D01*
X128923Y30512D01*
X129058Y30594D01*
X129177Y30697D01*
X129250Y30782D01*
X129323Y30697D01*
X129442Y30594D01*
X129577Y30512D01*
X129722Y30452D01*
X129875Y30415D01*
X130032Y30406D01*
X134125Y30415D01*
X134278Y30452D01*
X134423Y30512D01*
X134558Y30594D01*
X134677Y30697D01*
X134780Y30816D01*
X134862Y30951D01*
X134922Y31096D01*
X134959Y31249D01*
X134968Y31406D01*
X134959Y34515D01*
X134922Y34668D01*
X134862Y34813D01*
X134780Y34948D01*
X134677Y35067D01*
X134558Y35169D01*
X134423Y35252D01*
X134278Y35312D01*
X134125Y35349D01*
X133968Y35358D01*
X129875Y35349D01*
X129722Y35312D01*
X129577Y35252D01*
X129442Y35169D01*
X129323Y35067D01*
X129250Y34982D01*
X129177Y35067D01*
X129058Y35169D01*
X128923Y35252D01*
X128778Y35312D01*
X128625Y35349D01*
X128468Y35358D01*
X127330Y35355D01*
Y35530D01*
X128625Y35533D01*
X128778Y35570D01*
X128923Y35630D01*
X129058Y35712D01*
X129177Y35815D01*
X129250Y35900D01*
X129323Y35815D01*
X129442Y35712D01*
X129577Y35630D01*
X129722Y35570D01*
X129875Y35533D01*
X130032Y35524D01*
X134125Y35533D01*
X134278Y35570D01*
X134423Y35630D01*
X134558Y35712D01*
X134677Y35815D01*
X134780Y35934D01*
X134862Y36069D01*
X134922Y36214D01*
X134959Y36367D01*
X134968Y36524D01*
X134959Y39633D01*
X134922Y39786D01*
X134862Y39931D01*
X134780Y40066D01*
X134677Y40185D01*
X134558Y40287D01*
X134423Y40370D01*
X134278Y40430D01*
X134125Y40467D01*
X133968Y40476D01*
X129875Y40467D01*
X129722Y40430D01*
X129577Y40370D01*
X129442Y40287D01*
X129323Y40185D01*
X129250Y40100D01*
X129177Y40185D01*
X129058Y40287D01*
X128923Y40370D01*
X128778Y40430D01*
X128625Y40467D01*
X128468Y40476D01*
X128200Y40475D01*
Y42502D01*
X128706Y42542D01*
X129395Y42707D01*
X130049Y42978D01*
X130653Y43348D01*
X131192Y43808D01*
X131652Y44347D01*
X132022Y44951D01*
X132293Y45605D01*
X132458Y46294D01*
X132500Y47000D01*
X132458Y47706D01*
X132293Y48395D01*
X132022Y49049D01*
X131652Y49653D01*
X131192Y50192D01*
X130653Y50652D01*
X130049Y51022D01*
X129395Y51293D01*
X128706Y51458D01*
X128000Y51514D01*
X127330Y51461D01*
Y52505D01*
X131235Y52514D01*
X131465Y52569D01*
X131683Y52659D01*
X131884Y52783D01*
X132064Y52936D01*
X132217Y53116D01*
X132341Y53317D01*
X132431Y53535D01*
X132486Y53765D01*
X132500Y54000D01*
X132489Y59085D01*
X134155Y60751D01*
X134206Y60794D01*
X134379Y60997D01*
X134380Y60998D01*
X134519Y61226D01*
X134622Y61473D01*
X134684Y61733D01*
X134705Y62000D01*
X134700Y62067D01*
Y76433D01*
X134705Y76500D01*
X134684Y76767D01*
X134622Y77027D01*
X134519Y77274D01*
X134380Y77502D01*
X134206Y77706D01*
X134155Y77749D01*
X132494Y79411D01*
X132486Y82735D01*
X132431Y82965D01*
X132341Y83183D01*
X132217Y83384D01*
X132064Y83564D01*
X131884Y83717D01*
X131683Y83841D01*
X131465Y83931D01*
X131235Y83986D01*
X131000Y84000D01*
X127330Y83992D01*
Y86500D01*
G37*
G36*
X58730Y54866D02*X67800Y45796D01*
Y37552D01*
X65603Y37550D01*
X65500Y37525D01*
Y39000D01*
X58730D01*
Y44714D01*
X58798Y44728D01*
X58871Y44755D01*
X58940Y44794D01*
X59002Y44843D01*
X59055Y44901D01*
X59098Y44966D01*
X59130Y45038D01*
X59206Y45271D01*
X59260Y45511D01*
X59292Y45755D01*
X59303Y46000D01*
X59292Y46245D01*
X59260Y46489D01*
X59206Y46729D01*
X59132Y46963D01*
X59100Y47035D01*
X59056Y47100D01*
X59003Y47159D01*
X58941Y47208D01*
X58872Y47246D01*
X58798Y47274D01*
X58730Y47288D01*
Y54866D01*
G37*
G36*
X56501Y57193D02*X56620Y56998D01*
X56794Y56794D01*
X56845Y56751D01*
X58730Y54866D01*
Y47288D01*
X58721Y47290D01*
X58642Y47293D01*
X58563Y47284D01*
X58487Y47263D01*
X58415Y47230D01*
X58350Y47186D01*
X58291Y47133D01*
X58242Y47071D01*
X58204Y47002D01*
X58176Y46928D01*
X58160Y46851D01*
X58157Y46772D01*
X58166Y46693D01*
X58189Y46618D01*
X58238Y46468D01*
X58272Y46314D01*
X58293Y46158D01*
X58300Y46000D01*
X58293Y45842D01*
X58272Y45686D01*
X58238Y45532D01*
X58190Y45382D01*
X58168Y45306D01*
X58159Y45228D01*
X58162Y45150D01*
X58178Y45073D01*
X58205Y44999D01*
X58244Y44930D01*
X58293Y44869D01*
X58351Y44815D01*
X58416Y44772D01*
X58488Y44739D01*
X58564Y44718D01*
X58642Y44709D01*
X58720Y44712D01*
X58730Y44714D01*
Y39000D01*
X56501D01*
Y43197D01*
X56745Y43208D01*
X56989Y43240D01*
X57229Y43294D01*
X57463Y43368D01*
X57535Y43400D01*
X57600Y43444D01*
X57659Y43497D01*
X57708Y43559D01*
X57746Y43628D01*
X57774Y43702D01*
X57790Y43779D01*
X57793Y43858D01*
X57784Y43937D01*
X57763Y44013D01*
X57730Y44085D01*
X57686Y44150D01*
X57633Y44209D01*
X57571Y44258D01*
X57502Y44296D01*
X57428Y44324D01*
X57351Y44340D01*
X57272Y44343D01*
X57193Y44334D01*
X57118Y44311D01*
X56968Y44262D01*
X56814Y44228D01*
X56658Y44207D01*
X56501Y44200D01*
Y47800D01*
X56658Y47793D01*
X56814Y47772D01*
X56968Y47738D01*
X57118Y47690D01*
X57194Y47668D01*
X57272Y47659D01*
X57350Y47662D01*
X57427Y47678D01*
X57501Y47705D01*
X57570Y47744D01*
X57631Y47793D01*
X57685Y47851D01*
X57728Y47916D01*
X57761Y47988D01*
X57782Y48064D01*
X57791Y48142D01*
X57788Y48220D01*
X57772Y48298D01*
X57745Y48371D01*
X57706Y48440D01*
X57657Y48502D01*
X57599Y48555D01*
X57534Y48598D01*
X57462Y48630D01*
X57229Y48706D01*
X56989Y48760D01*
X56745Y48792D01*
X56501Y48803D01*
Y57193D01*
G37*
G36*
X120440Y31100D02*X120514Y31014D01*
X120849Y30728D01*
X121225Y30497D01*
X121632Y30329D01*
X122061Y30226D01*
X122500Y30191D01*
X122939Y30226D01*
X123368Y30329D01*
X123775Y30497D01*
X123939Y30598D01*
X123942Y30594D01*
X124077Y30512D01*
X124222Y30452D01*
X124375Y30415D01*
X124532Y30406D01*
X127330Y30412D01*
Y5000D01*
X120440D01*
Y19427D01*
X120562Y19451D01*
X120708Y19505D01*
X120843Y19580D01*
X120965Y19676D01*
X121071Y19789D01*
X121157Y19918D01*
X121219Y20059D01*
X121377Y20529D01*
X121486Y21013D01*
X121552Y21505D01*
X121574Y22000D01*
X121552Y22495D01*
X121486Y22987D01*
X121377Y23471D01*
X121225Y23943D01*
X121160Y24084D01*
X121073Y24213D01*
X120968Y24327D01*
X120845Y24423D01*
X120709Y24499D01*
X120563Y24552D01*
X120440Y24576D01*
Y31100D01*
G37*
G36*
Y54036D02*X121704Y55300D01*
X123510D01*
X123514Y53765D01*
X123569Y53535D01*
X123659Y53317D01*
X123783Y53116D01*
X123936Y52936D01*
X124116Y52783D01*
X124317Y52659D01*
X124535Y52569D01*
X124765Y52514D01*
X125000Y52500D01*
X127330Y52505D01*
Y51461D01*
X127294Y51458D01*
X126605Y51293D01*
X125951Y51022D01*
X125347Y50652D01*
X124808Y50192D01*
X124348Y49653D01*
X123978Y49049D01*
X123707Y48395D01*
X123542Y47706D01*
X123486Y47000D01*
X123542Y46294D01*
X123707Y45605D01*
X123978Y44951D01*
X124348Y44347D01*
X124800Y43818D01*
Y40468D01*
X124375Y40467D01*
X124222Y40430D01*
X124077Y40370D01*
X123942Y40287D01*
X123823Y40185D01*
X123720Y40066D01*
X123638Y39931D01*
X123578Y39786D01*
X123541Y39633D01*
X123532Y39476D01*
X123541Y36367D01*
X123578Y36214D01*
X123638Y36069D01*
X123720Y35934D01*
X123823Y35815D01*
X123942Y35712D01*
X124077Y35630D01*
X124222Y35570D01*
X124375Y35533D01*
X124532Y35524D01*
X127330Y35530D01*
Y35355D01*
X124375Y35349D01*
X124222Y35312D01*
X124141Y35278D01*
X123775Y35503D01*
X123368Y35671D01*
X122939Y35774D01*
X122500Y35809D01*
X122061Y35774D01*
X121632Y35671D01*
X121225Y35503D01*
X120849Y35272D01*
X120514Y34986D01*
X120440Y34900D01*
Y54036D01*
G37*
G36*
X116002Y49598D02*X120440Y54036D01*
Y34900D01*
X120228Y34651D01*
X119997Y34275D01*
X119829Y33868D01*
X119726Y33439D01*
X119691Y33000D01*
X119726Y32561D01*
X119829Y32132D01*
X119997Y31725D01*
X120228Y31349D01*
X120440Y31100D01*
Y24576D01*
X120411Y24582D01*
X120255Y24588D01*
X120101Y24569D01*
X119951Y24526D01*
X119810Y24461D01*
X119681Y24374D01*
X119567Y24268D01*
X119472Y24146D01*
X119396Y24010D01*
X119342Y23864D01*
X119313Y23712D01*
X119307Y23556D01*
X119325Y23402D01*
X119371Y23253D01*
X119472Y22950D01*
X119543Y22637D01*
X119586Y22320D01*
X119600Y22000D01*
X119586Y21680D01*
X119543Y21363D01*
X119472Y21050D01*
X119374Y20745D01*
X119329Y20597D01*
X119310Y20444D01*
X119316Y20289D01*
X119346Y20137D01*
X119399Y19991D01*
X119475Y19856D01*
X119570Y19734D01*
X119684Y19629D01*
X119812Y19542D01*
X119953Y19477D01*
X120102Y19434D01*
X120256Y19416D01*
X120410Y19422D01*
X120440Y19427D01*
Y5000D01*
X116002D01*
Y16426D01*
X116495Y16448D01*
X116987Y16514D01*
X117471Y16623D01*
X117943Y16775D01*
X118084Y16840D01*
X118213Y16927D01*
X118327Y17032D01*
X118423Y17155D01*
X118499Y17291D01*
X118552Y17437D01*
X118582Y17589D01*
X118588Y17745D01*
X118569Y17899D01*
X118526Y18049D01*
X118461Y18190D01*
X118374Y18319D01*
X118268Y18433D01*
X118146Y18528D01*
X118010Y18604D01*
X117864Y18658D01*
X117712Y18687D01*
X117556Y18693D01*
X117402Y18675D01*
X117253Y18629D01*
X116950Y18528D01*
X116637Y18457D01*
X116320Y18414D01*
X116002Y18400D01*
Y25600D01*
X116320Y25586D01*
X116637Y25543D01*
X116950Y25472D01*
X117255Y25374D01*
X117403Y25329D01*
X117556Y25310D01*
X117711Y25316D01*
X117863Y25346D01*
X118009Y25399D01*
X118144Y25475D01*
X118266Y25570D01*
X118371Y25684D01*
X118458Y25812D01*
X118523Y25953D01*
X118566Y26102D01*
X118584Y26256D01*
X118578Y26410D01*
X118549Y26562D01*
X118495Y26708D01*
X118420Y26843D01*
X118324Y26965D01*
X118211Y27071D01*
X118082Y27157D01*
X117941Y27219D01*
X117471Y27377D01*
X116987Y27486D01*
X116495Y27552D01*
X116002Y27574D01*
Y49598D01*
G37*
G36*
X111560Y41849D02*X111568Y42000D01*
X111560Y42151D01*
Y45155D01*
X116002Y49598D01*
Y27574D01*
X116000Y27574D01*
X115505Y27552D01*
X115013Y27486D01*
X114529Y27377D01*
X114057Y27225D01*
X113916Y27160D01*
X113787Y27073D01*
X113673Y26968D01*
X113577Y26845D01*
X113501Y26709D01*
X113448Y26563D01*
X113418Y26411D01*
X113412Y26255D01*
X113431Y26101D01*
X113474Y25951D01*
X113539Y25810D01*
X113626Y25681D01*
X113732Y25567D01*
X113854Y25472D01*
X113990Y25396D01*
X114136Y25342D01*
X114288Y25313D01*
X114444Y25307D01*
X114598Y25325D01*
X114747Y25371D01*
X115050Y25472D01*
X115363Y25543D01*
X115680Y25586D01*
X116000Y25600D01*
X116002Y25600D01*
Y18400D01*
X116000Y18400D01*
X115680Y18414D01*
X115363Y18457D01*
X115050Y18528D01*
X114745Y18626D01*
X114597Y18671D01*
X114444Y18690D01*
X114289Y18684D01*
X114137Y18654D01*
X113991Y18601D01*
X113856Y18525D01*
X113734Y18430D01*
X113629Y18316D01*
X113542Y18188D01*
X113477Y18047D01*
X113434Y17898D01*
X113416Y17744D01*
X113422Y17590D01*
X113451Y17438D01*
X113505Y17292D01*
X113580Y17157D01*
X113676Y17035D01*
X113789Y16929D01*
X113918Y16843D01*
X114059Y16781D01*
X114529Y16623D01*
X115013Y16514D01*
X115505Y16448D01*
X116000Y16426D01*
X116002Y16426D01*
Y5000D01*
X111560D01*
Y19424D01*
X111589Y19418D01*
X111745Y19412D01*
X111899Y19431D01*
X112049Y19474D01*
X112190Y19539D01*
X112319Y19626D01*
X112433Y19732D01*
X112528Y19854D01*
X112604Y19990D01*
X112658Y20136D01*
X112687Y20288D01*
X112693Y20444D01*
X112675Y20598D01*
X112629Y20747D01*
X112528Y21050D01*
X112457Y21363D01*
X112414Y21680D01*
X112400Y22000D01*
X112414Y22320D01*
X112457Y22637D01*
X112528Y22950D01*
X112626Y23255D01*
X112671Y23403D01*
X112690Y23556D01*
X112684Y23711D01*
X112654Y23863D01*
X112601Y24009D01*
X112525Y24144D01*
X112430Y24266D01*
X112316Y24371D01*
X112188Y24458D01*
X112047Y24523D01*
X111898Y24566D01*
X111744Y24584D01*
X111590Y24578D01*
X111560Y24573D01*
Y41849D01*
G37*
G36*
Y42151D02*X111517Y42874D01*
X111312Y43726D01*
X110977Y44536D01*
X110963Y44559D01*
X111560Y45155D01*
Y42151D01*
G37*
G36*
X96940Y40300D02*X100681D01*
X100688Y40274D01*
X101023Y39464D01*
X101481Y38717D01*
X102050Y38050D01*
X102717Y37481D01*
X103464Y37023D01*
X104274Y36688D01*
X105126Y36483D01*
X106000Y36414D01*
X106874Y36483D01*
X107726Y36688D01*
X108536Y37023D01*
X109283Y37481D01*
X109950Y38050D01*
X110519Y38717D01*
X110977Y39464D01*
X111312Y40274D01*
X111517Y41126D01*
X111560Y41849D01*
Y24573D01*
X111438Y24549D01*
X111292Y24495D01*
X111157Y24420D01*
X111035Y24324D01*
X110929Y24211D01*
X110843Y24082D01*
X110781Y23941D01*
X110623Y23471D01*
X110514Y22987D01*
X110448Y22495D01*
X110426Y22000D01*
X110448Y21505D01*
X110514Y21013D01*
X110623Y20529D01*
X110775Y20057D01*
X110840Y19916D01*
X110927Y19787D01*
X111032Y19673D01*
X111155Y19577D01*
X111291Y19501D01*
X111437Y19448D01*
X111560Y19424D01*
Y5000D01*
X96940D01*
Y19427D01*
X97062Y19451D01*
X97208Y19505D01*
X97343Y19580D01*
X97465Y19676D01*
X97571Y19789D01*
X97657Y19918D01*
X97719Y20059D01*
X97877Y20529D01*
X97986Y21013D01*
X98052Y21505D01*
X98074Y22000D01*
X98052Y22495D01*
X97986Y22987D01*
X97877Y23471D01*
X97725Y23943D01*
X97660Y24084D01*
X97573Y24213D01*
X97468Y24327D01*
X97345Y24423D01*
X97209Y24499D01*
X97063Y24552D01*
X96940Y24576D01*
Y40300D01*
G37*
G36*
X92502Y38098D02*X94704Y40300D01*
X96940D01*
Y24576D01*
X96911Y24582D01*
X96755Y24588D01*
X96601Y24569D01*
X96451Y24526D01*
X96310Y24461D01*
X96181Y24374D01*
X96067Y24268D01*
X95972Y24146D01*
X95896Y24010D01*
X95842Y23864D01*
X95813Y23712D01*
X95807Y23556D01*
X95825Y23402D01*
X95871Y23253D01*
X95972Y22950D01*
X96043Y22637D01*
X96086Y22320D01*
X96100Y22000D01*
X96086Y21680D01*
X96043Y21363D01*
X95972Y21050D01*
X95874Y20745D01*
X95829Y20597D01*
X95810Y20444D01*
X95816Y20289D01*
X95846Y20137D01*
X95899Y19991D01*
X95975Y19856D01*
X96070Y19734D01*
X96184Y19629D01*
X96312Y19542D01*
X96453Y19477D01*
X96602Y19434D01*
X96756Y19416D01*
X96910Y19422D01*
X96940Y19427D01*
Y5000D01*
X92502D01*
Y16426D01*
X92995Y16448D01*
X93487Y16514D01*
X93971Y16623D01*
X94443Y16775D01*
X94584Y16840D01*
X94713Y16927D01*
X94827Y17032D01*
X94923Y17155D01*
X94999Y17291D01*
X95052Y17437D01*
X95082Y17589D01*
X95088Y17745D01*
X95069Y17899D01*
X95026Y18049D01*
X94961Y18190D01*
X94874Y18319D01*
X94768Y18433D01*
X94646Y18528D01*
X94510Y18604D01*
X94364Y18658D01*
X94212Y18687D01*
X94056Y18693D01*
X93902Y18675D01*
X93753Y18629D01*
X93450Y18528D01*
X93137Y18457D01*
X92820Y18414D01*
X92502Y18400D01*
Y25600D01*
X92820Y25586D01*
X93137Y25543D01*
X93450Y25472D01*
X93755Y25374D01*
X93903Y25329D01*
X94056Y25310D01*
X94211Y25316D01*
X94363Y25346D01*
X94509Y25399D01*
X94644Y25475D01*
X94766Y25570D01*
X94871Y25684D01*
X94958Y25812D01*
X95023Y25953D01*
X95066Y26102D01*
X95084Y26256D01*
X95078Y26410D01*
X95049Y26562D01*
X94995Y26708D01*
X94920Y26843D01*
X94824Y26965D01*
X94711Y27071D01*
X94582Y27157D01*
X94441Y27219D01*
X93971Y27377D01*
X93487Y27486D01*
X92995Y27552D01*
X92502Y27574D01*
Y38098D01*
G37*
G36*
X88501Y34097D02*X92502Y38098D01*
Y27574D01*
X92500Y27574D01*
X92005Y27552D01*
X91513Y27486D01*
X91029Y27377D01*
X90557Y27225D01*
X90416Y27160D01*
X90287Y27073D01*
X90173Y26968D01*
X90077Y26845D01*
X90001Y26709D01*
X89948Y26563D01*
X89918Y26411D01*
X89912Y26255D01*
X89931Y26101D01*
X89974Y25951D01*
X90039Y25810D01*
X90126Y25681D01*
X90232Y25567D01*
X90354Y25472D01*
X90490Y25396D01*
X90636Y25342D01*
X90788Y25313D01*
X90944Y25307D01*
X91098Y25325D01*
X91247Y25371D01*
X91550Y25472D01*
X91863Y25543D01*
X92180Y25586D01*
X92500Y25600D01*
X92502Y25600D01*
Y18400D01*
X92500Y18400D01*
X92180Y18414D01*
X91863Y18457D01*
X91550Y18528D01*
X91245Y18626D01*
X91097Y18671D01*
X90944Y18690D01*
X90789Y18684D01*
X90637Y18654D01*
X90491Y18601D01*
X90356Y18525D01*
X90234Y18430D01*
X90129Y18316D01*
X90042Y18188D01*
X89977Y18047D01*
X89934Y17898D01*
X89916Y17744D01*
X89922Y17590D01*
X89951Y17438D01*
X90005Y17292D01*
X90080Y17157D01*
X90176Y17035D01*
X90289Y16929D01*
X90418Y16843D01*
X90559Y16781D01*
X91029Y16623D01*
X91513Y16514D01*
X92005Y16448D01*
X92500Y16426D01*
X92502Y16426D01*
Y5000D01*
X88501D01*
Y19460D01*
X88549Y19474D01*
X88690Y19539D01*
X88819Y19626D01*
X88933Y19732D01*
X89028Y19854D01*
X89104Y19990D01*
X89158Y20136D01*
X89187Y20288D01*
X89193Y20444D01*
X89175Y20598D01*
X89129Y20747D01*
X89028Y21050D01*
X88957Y21363D01*
X88914Y21680D01*
X88900Y22000D01*
X88914Y22320D01*
X88957Y22637D01*
X89028Y22950D01*
X89126Y23255D01*
X89171Y23403D01*
X89190Y23556D01*
X89184Y23711D01*
X89154Y23863D01*
X89101Y24009D01*
X89025Y24144D01*
X88930Y24266D01*
X88816Y24371D01*
X88688Y24458D01*
X88547Y24523D01*
X88501Y24536D01*
Y34097D01*
G37*
G36*
X116730Y86500D02*X127330D01*
Y83992D01*
X124765Y83986D01*
X124535Y83931D01*
X124317Y83841D01*
X124116Y83717D01*
X123936Y83564D01*
X123783Y83384D01*
X123659Y83183D01*
X123569Y82965D01*
X123514Y82735D01*
X123500Y82500D01*
X123514Y76265D01*
X123569Y76035D01*
X123659Y75817D01*
X123783Y75616D01*
X123936Y75436D01*
X124116Y75283D01*
X124317Y75159D01*
X124535Y75069D01*
X124765Y75014D01*
X125000Y75000D01*
X127330Y75005D01*
Y73961D01*
X127294Y73958D01*
X126605Y73793D01*
X125951Y73522D01*
X125347Y73152D01*
X124808Y72692D01*
X124348Y72153D01*
X123978Y71549D01*
X123707Y70895D01*
X123542Y70206D01*
X123486Y69500D01*
X123542Y68794D01*
X123707Y68105D01*
X123852Y67756D01*
X120296Y64200D01*
X116730D01*
Y66442D01*
X119909Y66450D01*
X120210Y66522D01*
X120496Y66641D01*
X120761Y66803D01*
X120996Y67004D01*
X121197Y67239D01*
X121359Y67504D01*
X121478Y67790D01*
X121550Y68091D01*
X121568Y68400D01*
X121550Y75909D01*
X121478Y76210D01*
X121359Y76496D01*
X121197Y76761D01*
X120996Y76996D01*
X120761Y77197D01*
X120496Y77359D01*
X120210Y77478D01*
X119909Y77550D01*
X119600Y77568D01*
X116730Y77562D01*
Y79214D01*
X116798Y79228D01*
X116871Y79255D01*
X116940Y79294D01*
X117002Y79343D01*
X117055Y79401D01*
X117098Y79466D01*
X117130Y79538D01*
X117206Y79771D01*
X117260Y80011D01*
X117292Y80255D01*
X117303Y80500D01*
X117292Y80745D01*
X117260Y80989D01*
X117206Y81229D01*
X117132Y81463D01*
X117100Y81535D01*
X117056Y81600D01*
X117003Y81659D01*
X116941Y81708D01*
X116872Y81746D01*
X116798Y81774D01*
X116730Y81788D01*
Y86500D01*
G37*
G36*
Y64200D02*X114501D01*
Y66437D01*
X116730Y66442D01*
Y64200D01*
G37*
G36*
X114501Y86500D02*X116730D01*
Y81788D01*
X116721Y81790D01*
X116642Y81793D01*
X116563Y81784D01*
X116487Y81763D01*
X116415Y81730D01*
X116350Y81686D01*
X116291Y81633D01*
X116242Y81571D01*
X116204Y81502D01*
X116176Y81428D01*
X116160Y81351D01*
X116157Y81272D01*
X116166Y81193D01*
X116189Y81118D01*
X116238Y80968D01*
X116272Y80814D01*
X116293Y80658D01*
X116300Y80500D01*
X116293Y80342D01*
X116272Y80186D01*
X116238Y80032D01*
X116190Y79882D01*
X116168Y79806D01*
X116159Y79728D01*
X116162Y79650D01*
X116178Y79573D01*
X116205Y79499D01*
X116244Y79430D01*
X116293Y79369D01*
X116351Y79315D01*
X116416Y79272D01*
X116488Y79239D01*
X116564Y79218D01*
X116642Y79209D01*
X116720Y79212D01*
X116730Y79214D01*
Y77562D01*
X114501Y77556D01*
Y77697D01*
X114745Y77708D01*
X114989Y77740D01*
X115229Y77794D01*
X115463Y77868D01*
X115535Y77900D01*
X115600Y77944D01*
X115659Y77997D01*
X115708Y78059D01*
X115746Y78128D01*
X115774Y78202D01*
X115790Y78279D01*
X115793Y78358D01*
X115784Y78437D01*
X115763Y78513D01*
X115730Y78585D01*
X115686Y78650D01*
X115633Y78709D01*
X115571Y78758D01*
X115502Y78796D01*
X115428Y78824D01*
X115351Y78840D01*
X115272Y78843D01*
X115193Y78834D01*
X115118Y78811D01*
X114968Y78762D01*
X114814Y78728D01*
X114658Y78707D01*
X114501Y78700D01*
Y82300D01*
X114658Y82293D01*
X114814Y82272D01*
X114968Y82238D01*
X115118Y82190D01*
X115194Y82168D01*
X115272Y82159D01*
X115350Y82162D01*
X115427Y82178D01*
X115501Y82205D01*
X115570Y82244D01*
X115631Y82293D01*
X115685Y82351D01*
X115728Y82416D01*
X115761Y82488D01*
X115782Y82564D01*
X115791Y82642D01*
X115788Y82720D01*
X115772Y82798D01*
X115745Y82871D01*
X115706Y82940D01*
X115657Y83002D01*
X115599Y83055D01*
X115534Y83098D01*
X115462Y83130D01*
X115229Y83206D01*
X114989Y83260D01*
X114745Y83292D01*
X114501Y83303D01*
Y86500D01*
G37*
G36*
Y64200D02*X103067D01*
X103000Y64205D01*
X102733Y64184D01*
X102473Y64122D01*
X102226Y64019D01*
X101998Y63880D01*
X101997Y63879D01*
X101794Y63706D01*
X101751Y63655D01*
X90730Y52634D01*
Y56214D01*
X90798Y56228D01*
X90871Y56255D01*
X90940Y56294D01*
X91002Y56343D01*
X91055Y56401D01*
X91098Y56466D01*
X91130Y56538D01*
X91206Y56771D01*
X91260Y57011D01*
X91292Y57255D01*
X91303Y57500D01*
X91292Y57745D01*
X91260Y57989D01*
X91206Y58229D01*
X91132Y58463D01*
X91100Y58535D01*
X91056Y58600D01*
X91003Y58659D01*
X90941Y58708D01*
X90872Y58746D01*
X90798Y58774D01*
X90730Y58788D01*
Y66436D01*
X96409Y66450D01*
X96710Y66522D01*
X96996Y66641D01*
X97261Y66803D01*
X97496Y67004D01*
X97697Y67239D01*
X97859Y67504D01*
X97978Y67790D01*
X98050Y68091D01*
X98068Y68400D01*
X98064Y70300D01*
X110444D01*
X110450Y68091D01*
X110522Y67790D01*
X110641Y67504D01*
X110803Y67239D01*
X111004Y67004D01*
X111239Y66803D01*
X111504Y66641D01*
X111790Y66522D01*
X112091Y66450D01*
X112400Y66432D01*
X114501Y66437D01*
Y64200D01*
G37*
G36*
X112270Y86500D02*X114501D01*
Y83303D01*
X114500Y83303D01*
X114255Y83292D01*
X114011Y83260D01*
X113771Y83206D01*
X113537Y83132D01*
X113465Y83100D01*
X113400Y83056D01*
X113341Y83003D01*
X113292Y82941D01*
X113254Y82872D01*
X113226Y82798D01*
X113210Y82721D01*
X113207Y82642D01*
X113216Y82563D01*
X113237Y82487D01*
X113270Y82415D01*
X113314Y82350D01*
X113367Y82291D01*
X113429Y82242D01*
X113498Y82204D01*
X113572Y82176D01*
X113649Y82160D01*
X113728Y82157D01*
X113807Y82166D01*
X113882Y82189D01*
X114032Y82238D01*
X114186Y82272D01*
X114342Y82293D01*
X114500Y82300D01*
X114501Y82300D01*
Y78700D01*
X114500Y78700D01*
X114342Y78707D01*
X114186Y78728D01*
X114032Y78762D01*
X113882Y78810D01*
X113806Y78832D01*
X113728Y78841D01*
X113650Y78838D01*
X113573Y78822D01*
X113499Y78795D01*
X113430Y78756D01*
X113369Y78707D01*
X113315Y78649D01*
X113272Y78584D01*
X113239Y78512D01*
X113218Y78436D01*
X113209Y78358D01*
X113212Y78280D01*
X113228Y78202D01*
X113255Y78129D01*
X113294Y78060D01*
X113343Y77998D01*
X113401Y77945D01*
X113466Y77902D01*
X113538Y77870D01*
X113771Y77794D01*
X114011Y77740D01*
X114255Y77708D01*
X114500Y77697D01*
X114501Y77697D01*
Y77556D01*
X112270Y77551D01*
Y79212D01*
X112279Y79210D01*
X112358Y79207D01*
X112437Y79216D01*
X112513Y79237D01*
X112585Y79270D01*
X112650Y79314D01*
X112709Y79367D01*
X112758Y79429D01*
X112796Y79498D01*
X112824Y79572D01*
X112840Y79649D01*
X112843Y79728D01*
X112834Y79807D01*
X112811Y79882D01*
X112762Y80032D01*
X112728Y80186D01*
X112707Y80342D01*
X112700Y80500D01*
X112707Y80658D01*
X112728Y80814D01*
X112762Y80968D01*
X112810Y81118D01*
X112832Y81194D01*
X112841Y81272D01*
X112838Y81350D01*
X112822Y81427D01*
X112795Y81501D01*
X112756Y81570D01*
X112707Y81631D01*
X112649Y81685D01*
X112584Y81728D01*
X112512Y81761D01*
X112436Y81782D01*
X112358Y81791D01*
X112280Y81788D01*
X112270Y81786D01*
Y86500D01*
G37*
G36*
X90730D02*X112270D01*
Y81786D01*
X112202Y81772D01*
X112129Y81745D01*
X112060Y81706D01*
X111998Y81657D01*
X111945Y81599D01*
X111902Y81534D01*
X111870Y81462D01*
X111794Y81229D01*
X111740Y80989D01*
X111708Y80745D01*
X111697Y80500D01*
X111708Y80255D01*
X111740Y80011D01*
X111794Y79771D01*
X111868Y79537D01*
X111900Y79465D01*
X111944Y79400D01*
X111997Y79341D01*
X112059Y79292D01*
X112128Y79254D01*
X112202Y79226D01*
X112270Y79212D01*
Y77551D01*
X112091Y77550D01*
X111790Y77478D01*
X111504Y77359D01*
X111239Y77197D01*
X111004Y76996D01*
X110803Y76761D01*
X110641Y76496D01*
X110522Y76210D01*
X110450Y75909D01*
X110432Y75600D01*
X110436Y73700D01*
X98056D01*
X98050Y75909D01*
X97978Y76210D01*
X97859Y76496D01*
X97697Y76761D01*
X97496Y76996D01*
X97261Y77197D01*
X96996Y77359D01*
X96710Y77478D01*
X96409Y77550D01*
X96100Y77568D01*
X90730Y77555D01*
Y86500D01*
G37*
G36*
Y52634D02*X88501Y50405D01*
Y54697D01*
X88745Y54708D01*
X88989Y54740D01*
X89229Y54794D01*
X89463Y54868D01*
X89535Y54900D01*
X89600Y54944D01*
X89659Y54997D01*
X89708Y55059D01*
X89746Y55128D01*
X89774Y55202D01*
X89790Y55279D01*
X89793Y55358D01*
X89784Y55437D01*
X89763Y55513D01*
X89730Y55585D01*
X89686Y55650D01*
X89633Y55709D01*
X89571Y55758D01*
X89502Y55796D01*
X89428Y55824D01*
X89351Y55840D01*
X89272Y55843D01*
X89193Y55834D01*
X89118Y55811D01*
X88968Y55762D01*
X88814Y55728D01*
X88658Y55707D01*
X88501Y55700D01*
Y59300D01*
X88658Y59293D01*
X88814Y59272D01*
X88968Y59238D01*
X89118Y59190D01*
X89194Y59168D01*
X89272Y59159D01*
X89350Y59162D01*
X89427Y59178D01*
X89501Y59205D01*
X89570Y59244D01*
X89631Y59293D01*
X89685Y59351D01*
X89728Y59416D01*
X89761Y59488D01*
X89782Y59564D01*
X89791Y59642D01*
X89788Y59720D01*
X89772Y59798D01*
X89745Y59871D01*
X89706Y59940D01*
X89657Y60002D01*
X89599Y60055D01*
X89534Y60098D01*
X89462Y60130D01*
X89229Y60206D01*
X88989Y60260D01*
X88745Y60292D01*
X88501Y60303D01*
Y65597D01*
X89337Y66433D01*
X90730Y66436D01*
Y58788D01*
X90721Y58790D01*
X90642Y58793D01*
X90563Y58784D01*
X90487Y58763D01*
X90415Y58730D01*
X90350Y58686D01*
X90291Y58633D01*
X90242Y58571D01*
X90204Y58502D01*
X90176Y58428D01*
X90160Y58351D01*
X90157Y58272D01*
X90166Y58193D01*
X90189Y58118D01*
X90238Y57968D01*
X90272Y57814D01*
X90293Y57658D01*
X90300Y57500D01*
X90293Y57342D01*
X90272Y57186D01*
X90238Y57032D01*
X90190Y56882D01*
X90168Y56806D01*
X90159Y56728D01*
X90162Y56650D01*
X90178Y56573D01*
X90205Y56499D01*
X90244Y56430D01*
X90293Y56369D01*
X90351Y56315D01*
X90416Y56272D01*
X90488Y56239D01*
X90564Y56218D01*
X90642Y56209D01*
X90720Y56212D01*
X90730Y56214D01*
Y52634D01*
G37*
G36*
X88501Y86500D02*X90730D01*
Y77555D01*
X88591Y77550D01*
X88501Y77529D01*
Y86500D01*
G37*
G36*
X86270Y32317D02*X86527Y32378D01*
X86774Y32481D01*
X87002Y32620D01*
X87206Y32794D01*
X87249Y32845D01*
X88501Y34097D01*
Y24536D01*
X88398Y24566D01*
X88244Y24584D01*
X88090Y24578D01*
X87938Y24549D01*
X87792Y24495D01*
X87657Y24420D01*
X87535Y24324D01*
X87429Y24211D01*
X87343Y24082D01*
X87281Y23941D01*
X87123Y23471D01*
X87014Y22987D01*
X86948Y22495D01*
X86926Y22000D01*
X86948Y21505D01*
X87014Y21013D01*
X87123Y20529D01*
X87275Y20057D01*
X87340Y19916D01*
X87427Y19787D01*
X87532Y19673D01*
X87655Y19577D01*
X87791Y19501D01*
X87937Y19448D01*
X88089Y19418D01*
X88245Y19412D01*
X88399Y19431D01*
X88501Y19460D01*
Y5000D01*
X86270D01*
Y32317D01*
G37*
G36*
X88501Y50405D02*X86270Y48174D01*
Y56212D01*
X86279Y56210D01*
X86358Y56207D01*
X86437Y56216D01*
X86513Y56237D01*
X86585Y56270D01*
X86650Y56314D01*
X86709Y56367D01*
X86758Y56429D01*
X86796Y56498D01*
X86824Y56572D01*
X86840Y56649D01*
X86843Y56728D01*
X86834Y56807D01*
X86811Y56882D01*
X86762Y57032D01*
X86728Y57186D01*
X86707Y57342D01*
X86700Y57500D01*
X86707Y57658D01*
X86728Y57814D01*
X86762Y57968D01*
X86810Y58118D01*
X86832Y58194D01*
X86841Y58272D01*
X86838Y58350D01*
X86822Y58427D01*
X86795Y58501D01*
X86756Y58570D01*
X86707Y58631D01*
X86649Y58685D01*
X86584Y58728D01*
X86512Y58761D01*
X86436Y58782D01*
X86358Y58791D01*
X86280Y58788D01*
X86270Y58786D01*
Y63366D01*
X88501Y65597D01*
Y60303D01*
X88500Y60303D01*
X88255Y60292D01*
X88011Y60260D01*
X87771Y60206D01*
X87537Y60132D01*
X87465Y60100D01*
X87400Y60056D01*
X87341Y60003D01*
X87292Y59941D01*
X87254Y59872D01*
X87226Y59798D01*
X87210Y59721D01*
X87207Y59642D01*
X87216Y59563D01*
X87237Y59487D01*
X87270Y59415D01*
X87314Y59350D01*
X87367Y59291D01*
X87429Y59242D01*
X87498Y59204D01*
X87572Y59176D01*
X87649Y59160D01*
X87728Y59157D01*
X87807Y59166D01*
X87882Y59189D01*
X88032Y59238D01*
X88186Y59272D01*
X88342Y59293D01*
X88500Y59300D01*
X88501Y59300D01*
Y55700D01*
X88500Y55700D01*
X88342Y55707D01*
X88186Y55728D01*
X88032Y55762D01*
X87882Y55810D01*
X87806Y55832D01*
X87728Y55841D01*
X87650Y55838D01*
X87573Y55822D01*
X87499Y55795D01*
X87430Y55756D01*
X87369Y55707D01*
X87315Y55649D01*
X87272Y55584D01*
X87239Y55512D01*
X87218Y55436D01*
X87209Y55358D01*
X87212Y55280D01*
X87228Y55202D01*
X87255Y55129D01*
X87294Y55060D01*
X87343Y54998D01*
X87401Y54945D01*
X87466Y54902D01*
X87538Y54870D01*
X87771Y54794D01*
X88011Y54740D01*
X88255Y54708D01*
X88500Y54697D01*
X88501Y54697D01*
Y50405D01*
G37*
G36*
X86270Y48174D02*X85059Y46963D01*
X85036Y46977D01*
X84226Y47312D01*
X83374Y47517D01*
X82500Y47586D01*
X81626Y47517D01*
X80774Y47312D01*
X79964Y46977D01*
X79217Y46519D01*
X78550Y45950D01*
X77981Y45283D01*
X77523Y44536D01*
X77188Y43726D01*
X76983Y42874D01*
X76914Y42000D01*
X76983Y41126D01*
X77188Y40274D01*
X77523Y39464D01*
X77981Y38717D01*
X78550Y38050D01*
X79217Y37481D01*
X79964Y37023D01*
X80739Y36702D01*
X80439Y36774D01*
X80000Y36809D01*
X79561Y36774D01*
X79132Y36671D01*
X78725Y36503D01*
X78349Y36272D01*
X78014Y35986D01*
X77728Y35651D01*
X77497Y35275D01*
X77329Y34868D01*
X77226Y34439D01*
X77191Y34000D01*
X77226Y33561D01*
X77329Y33132D01*
X77497Y32725D01*
X77728Y32349D01*
X78014Y32014D01*
X78349Y31728D01*
X78725Y31497D01*
X79132Y31329D01*
X79561Y31226D01*
X80000Y31191D01*
X80439Y31226D01*
X80868Y31329D01*
X81275Y31497D01*
X81651Y31728D01*
X81986Y32014D01*
X82230Y32300D01*
X85933D01*
X86000Y32295D01*
X86266Y32316D01*
X86267Y32316D01*
X86270Y32317D01*
Y5000D01*
X65500D01*
Y18665D01*
X65603Y18640D01*
X65760Y18631D01*
X73397Y18640D01*
X73550Y18677D01*
X73695Y18737D01*
X73830Y18819D01*
X73949Y18922D01*
X74052Y19041D01*
X74134Y19175D01*
X74194Y19321D01*
X74231Y19474D01*
X74240Y19631D01*
X74237Y21333D01*
X76155Y23251D01*
X76206Y23294D01*
X76379Y23497D01*
X76380Y23498D01*
X76519Y23726D01*
X76622Y23973D01*
X76684Y24233D01*
X76705Y24500D01*
X76700Y24567D01*
Y53796D01*
X86270Y63366D01*
Y58786D01*
X86202Y58772D01*
X86129Y58745D01*
X86060Y58706D01*
X85998Y58657D01*
X85945Y58599D01*
X85902Y58534D01*
X85870Y58462D01*
X85794Y58229D01*
X85740Y57989D01*
X85708Y57745D01*
X85697Y57500D01*
X85708Y57255D01*
X85740Y57011D01*
X85794Y56771D01*
X85868Y56537D01*
X85900Y56465D01*
X85944Y56400D01*
X85997Y56341D01*
X86059Y56292D01*
X86128Y56254D01*
X86202Y56226D01*
X86270Y56212D01*
Y48174D01*
G37*
G36*
X84230Y86500D02*X88501D01*
Y77529D01*
X88290Y77478D01*
X88004Y77359D01*
X87739Y77197D01*
X87504Y76996D01*
X87303Y76761D01*
X87141Y76496D01*
X87022Y76210D01*
X86950Y75909D01*
X86932Y75600D01*
X86948Y68852D01*
X84230Y66134D01*
Y69714D01*
X84298Y69728D01*
X84371Y69755D01*
X84440Y69794D01*
X84502Y69843D01*
X84555Y69901D01*
X84598Y69966D01*
X84630Y70038D01*
X84706Y70271D01*
X84760Y70511D01*
X84792Y70755D01*
X84803Y71000D01*
X84792Y71245D01*
X84760Y71489D01*
X84706Y71729D01*
X84632Y71963D01*
X84600Y72035D01*
X84556Y72100D01*
X84503Y72159D01*
X84441Y72208D01*
X84372Y72246D01*
X84298Y72274D01*
X84230Y72288D01*
Y86500D01*
G37*
G36*
X82001D02*X84230D01*
Y72288D01*
X84221Y72290D01*
X84142Y72293D01*
X84063Y72284D01*
X83987Y72263D01*
X83915Y72230D01*
X83850Y72186D01*
X83791Y72133D01*
X83742Y72071D01*
X83704Y72002D01*
X83676Y71928D01*
X83660Y71851D01*
X83657Y71772D01*
X83666Y71693D01*
X83689Y71618D01*
X83738Y71468D01*
X83772Y71314D01*
X83793Y71158D01*
X83800Y71000D01*
X83793Y70842D01*
X83772Y70686D01*
X83738Y70532D01*
X83690Y70382D01*
X83668Y70306D01*
X83659Y70228D01*
X83662Y70150D01*
X83678Y70073D01*
X83705Y69999D01*
X83744Y69930D01*
X83793Y69869D01*
X83851Y69815D01*
X83916Y69772D01*
X83988Y69739D01*
X84064Y69718D01*
X84142Y69709D01*
X84220Y69712D01*
X84230Y69714D01*
Y66134D01*
X82001Y63905D01*
Y68197D01*
X82245Y68208D01*
X82489Y68240D01*
X82729Y68294D01*
X82963Y68368D01*
X83035Y68400D01*
X83100Y68444D01*
X83159Y68497D01*
X83208Y68559D01*
X83246Y68628D01*
X83274Y68702D01*
X83290Y68779D01*
X83293Y68858D01*
X83284Y68937D01*
X83263Y69013D01*
X83230Y69085D01*
X83186Y69150D01*
X83133Y69209D01*
X83071Y69258D01*
X83002Y69296D01*
X82928Y69324D01*
X82851Y69340D01*
X82772Y69343D01*
X82693Y69334D01*
X82618Y69311D01*
X82468Y69262D01*
X82314Y69228D01*
X82158Y69207D01*
X82001Y69200D01*
Y72800D01*
X82158Y72793D01*
X82314Y72772D01*
X82468Y72738D01*
X82618Y72690D01*
X82694Y72668D01*
X82772Y72659D01*
X82850Y72662D01*
X82927Y72678D01*
X83001Y72705D01*
X83070Y72744D01*
X83131Y72793D01*
X83185Y72851D01*
X83228Y72916D01*
X83261Y72988D01*
X83282Y73064D01*
X83291Y73142D01*
X83288Y73220D01*
X83272Y73298D01*
X83245Y73371D01*
X83206Y73440D01*
X83157Y73502D01*
X83099Y73555D01*
X83034Y73598D01*
X82962Y73630D01*
X82729Y73706D01*
X82489Y73760D01*
X82245Y73792D01*
X82001Y73803D01*
Y86500D01*
G37*
G36*
X79770D02*X82001D01*
Y73803D01*
X82000Y73803D01*
X81755Y73792D01*
X81511Y73760D01*
X81271Y73706D01*
X81037Y73632D01*
X80965Y73600D01*
X80900Y73556D01*
X80841Y73503D01*
X80792Y73441D01*
X80754Y73372D01*
X80726Y73298D01*
X80710Y73221D01*
X80707Y73142D01*
X80716Y73063D01*
X80737Y72987D01*
X80770Y72915D01*
X80814Y72850D01*
X80867Y72791D01*
X80929Y72742D01*
X80998Y72704D01*
X81072Y72676D01*
X81149Y72660D01*
X81228Y72657D01*
X81307Y72666D01*
X81382Y72689D01*
X81532Y72738D01*
X81686Y72772D01*
X81842Y72793D01*
X82000Y72800D01*
X82001Y72800D01*
Y69200D01*
X82000Y69200D01*
X81842Y69207D01*
X81686Y69228D01*
X81532Y69262D01*
X81382Y69310D01*
X81306Y69332D01*
X81228Y69341D01*
X81150Y69338D01*
X81073Y69322D01*
X80999Y69295D01*
X80930Y69256D01*
X80869Y69207D01*
X80815Y69149D01*
X80772Y69084D01*
X80739Y69012D01*
X80718Y68936D01*
X80709Y68858D01*
X80712Y68780D01*
X80728Y68702D01*
X80755Y68629D01*
X80794Y68560D01*
X80843Y68498D01*
X80901Y68445D01*
X80966Y68402D01*
X81038Y68370D01*
X81271Y68294D01*
X81511Y68240D01*
X81755Y68208D01*
X82000Y68197D01*
X82001Y68197D01*
Y63905D01*
X79770Y61674D01*
Y69712D01*
X79779Y69710D01*
X79858Y69707D01*
X79937Y69716D01*
X80013Y69737D01*
X80085Y69770D01*
X80150Y69814D01*
X80209Y69867D01*
X80258Y69929D01*
X80296Y69998D01*
X80324Y70072D01*
X80340Y70149D01*
X80343Y70228D01*
X80334Y70307D01*
X80311Y70382D01*
X80262Y70532D01*
X80228Y70686D01*
X80207Y70842D01*
X80200Y71000D01*
X80207Y71158D01*
X80228Y71314D01*
X80262Y71468D01*
X80310Y71618D01*
X80332Y71694D01*
X80341Y71772D01*
X80338Y71850D01*
X80322Y71927D01*
X80295Y72001D01*
X80256Y72070D01*
X80207Y72131D01*
X80149Y72185D01*
X80084Y72228D01*
X80012Y72261D01*
X79936Y72282D01*
X79858Y72291D01*
X79780Y72288D01*
X79770Y72286D01*
Y86500D01*
G37*
G36*
X68002Y52233D02*X68589Y52279D01*
X69164Y52417D01*
X69710Y52643D01*
X70214Y52952D01*
X70664Y53336D01*
X71048Y53786D01*
X71357Y54290D01*
X71583Y54836D01*
X71721Y55411D01*
X71756Y56000D01*
X71721Y56589D01*
X71583Y57164D01*
X71579Y57175D01*
X74655Y60251D01*
X74706Y60294D01*
X74879Y60497D01*
X74880Y60498D01*
X75019Y60726D01*
X75122Y60973D01*
X75184Y61233D01*
X75205Y61500D01*
X75200Y61567D01*
Y86500D01*
X79770D01*
Y72286D01*
X79702Y72272D01*
X79629Y72245D01*
X79560Y72206D01*
X79498Y72157D01*
X79445Y72099D01*
X79402Y72034D01*
X79370Y71962D01*
X79294Y71729D01*
X79240Y71489D01*
X79208Y71245D01*
X79197Y71000D01*
X79208Y70755D01*
X79240Y70511D01*
X79294Y70271D01*
X79368Y70037D01*
X79400Y69965D01*
X79444Y69900D01*
X79497Y69841D01*
X79559Y69792D01*
X79628Y69754D01*
X79702Y69726D01*
X79770Y69712D01*
Y61674D01*
X73845Y55749D01*
X73794Y55706D01*
X73620Y55502D01*
X73481Y55274D01*
X73378Y55027D01*
X73316Y54767D01*
X73316Y54767D01*
X73295Y54500D01*
X73300Y54433D01*
Y37555D01*
X73240Y37559D01*
X71200Y37556D01*
Y46433D01*
X71205Y46500D01*
X71184Y46767D01*
X71184Y46767D01*
X71122Y47027D01*
X71019Y47274D01*
X70880Y47502D01*
X70706Y47706D01*
X70655Y47749D01*
X68002Y50403D01*
Y52233D01*
G37*
G36*
X71073Y73826D02*X71357Y74290D01*
X71583Y74836D01*
X71721Y75411D01*
X71756Y76000D01*
X71721Y76589D01*
X71583Y77164D01*
X71357Y77710D01*
X71073Y78174D01*
Y84036D01*
X71115Y84053D01*
X71183Y84094D01*
X71243Y84144D01*
X71294Y84204D01*
X71334Y84271D01*
X71488Y84596D01*
X71606Y84936D01*
X71692Y85285D01*
X71743Y85641D01*
X71760Y86000D01*
X71743Y86359D01*
X71692Y86715D01*
X71606Y87064D01*
X71488Y87404D01*
X71338Y87731D01*
X71297Y87798D01*
X71245Y87858D01*
X71184Y87909D01*
X71117Y87950D01*
X71073Y87967D01*
Y93023D01*
X71800Y92296D01*
Y62204D01*
X71073Y61477D01*
Y63826D01*
X71357Y64290D01*
X71583Y64836D01*
X71721Y65411D01*
X71756Y66000D01*
X71721Y66589D01*
X71583Y67164D01*
X71357Y67710D01*
X71073Y68174D01*
Y73826D01*
G37*
G36*
Y61477D02*X69175Y59579D01*
X69164Y59583D01*
X68589Y59721D01*
X68002Y59767D01*
Y62233D01*
X68589Y62279D01*
X69164Y62417D01*
X69710Y62643D01*
X70214Y62952D01*
X70664Y63336D01*
X71048Y63786D01*
X71073Y63826D01*
Y61477D01*
G37*
G36*
Y78174D02*X71048Y78214D01*
X70664Y78664D01*
X70214Y79048D01*
X69710Y79357D01*
X69164Y79583D01*
X68589Y79721D01*
X68002Y79767D01*
Y82240D01*
X68359Y82257D01*
X68715Y82308D01*
X69064Y82394D01*
X69404Y82512D01*
X69731Y82662D01*
X69798Y82703D01*
X69858Y82755D01*
X69909Y82816D01*
X69950Y82883D01*
X69980Y82957D01*
X69998Y83034D01*
X70003Y83113D01*
X69996Y83192D01*
X69977Y83269D01*
X69947Y83342D01*
X69905Y83409D01*
X69853Y83469D01*
X69792Y83520D01*
X69724Y83561D01*
X69651Y83591D01*
X69574Y83608D01*
X69495Y83614D01*
X69416Y83607D01*
X69339Y83588D01*
X69267Y83556D01*
X69029Y83443D01*
X68780Y83357D01*
X68524Y83294D01*
X68263Y83257D01*
X68002Y83244D01*
Y88756D01*
X68263Y88743D01*
X68524Y88706D01*
X68780Y88643D01*
X69029Y88557D01*
X69268Y88447D01*
X69340Y88415D01*
X69417Y88396D01*
X69495Y88389D01*
X69573Y88395D01*
X69650Y88413D01*
X69723Y88442D01*
X69790Y88483D01*
X69851Y88533D01*
X69902Y88593D01*
X69944Y88660D01*
X69974Y88732D01*
X69993Y88809D01*
X70000Y88887D01*
X69994Y88966D01*
X69977Y89042D01*
X69947Y89115D01*
X69906Y89183D01*
X69856Y89243D01*
X69796Y89294D01*
X69729Y89334D01*
X69404Y89488D01*
X69064Y89606D01*
X68715Y89692D01*
X68359Y89743D01*
X68002Y89760D01*
Y96094D01*
X71073Y93023D01*
Y87967D01*
X71043Y87980D01*
X70966Y87998D01*
X70887Y88003D01*
X70808Y87996D01*
X70731Y87977D01*
X70658Y87947D01*
X70591Y87905D01*
X70531Y87853D01*
X70480Y87792D01*
X70439Y87724D01*
X70409Y87651D01*
X70392Y87574D01*
X70386Y87495D01*
X70393Y87416D01*
X70412Y87339D01*
X70444Y87267D01*
X70557Y87029D01*
X70643Y86780D01*
X70706Y86524D01*
X70743Y86263D01*
X70756Y86000D01*
X70743Y85737D01*
X70706Y85476D01*
X70643Y85220D01*
X70557Y84971D01*
X70447Y84732D01*
X70415Y84660D01*
X70396Y84583D01*
X70389Y84505D01*
X70395Y84427D01*
X70413Y84350D01*
X70442Y84277D01*
X70483Y84210D01*
X70533Y84149D01*
X70593Y84098D01*
X70660Y84056D01*
X70732Y84026D01*
X70809Y84007D01*
X70887Y84000D01*
X70966Y84006D01*
X71042Y84023D01*
X71073Y84036D01*
Y78174D01*
G37*
G36*
X68002Y72233D02*X68589Y72279D01*
X69164Y72417D01*
X69710Y72643D01*
X70214Y72952D01*
X70664Y73336D01*
X71048Y73786D01*
X71073Y73826D01*
Y68174D01*
X71048Y68214D01*
X70664Y68664D01*
X70214Y69048D01*
X69710Y69357D01*
X69164Y69583D01*
X68589Y69721D01*
X68002Y69767D01*
Y72233D01*
G37*
G36*
Y59767D02*X68000Y59767D01*
X67411Y59721D01*
X66836Y59583D01*
X66290Y59357D01*
X65786Y59048D01*
X65336Y58664D01*
X64952Y58214D01*
X64643Y57710D01*
X64417Y57164D01*
X64279Y56589D01*
X64233Y56000D01*
X64279Y55411D01*
X64417Y54836D01*
X64643Y54290D01*
X64952Y53786D01*
X65336Y53336D01*
X65786Y52952D01*
X66290Y52643D01*
X66836Y52417D01*
X67411Y52279D01*
X68000Y52233D01*
X68002Y52233D01*
Y50403D01*
X60343Y58062D01*
X60664Y58336D01*
X61048Y58786D01*
X61357Y59290D01*
X61583Y59836D01*
X61721Y60411D01*
X61756Y61000D01*
X61721Y61589D01*
X61583Y62164D01*
X61357Y62710D01*
X61048Y63214D01*
X60664Y63664D01*
X60214Y64048D01*
X59710Y64357D01*
X59164Y64583D01*
X58589Y64721D01*
X58000Y64767D01*
X57411Y64721D01*
X56836Y64583D01*
X56501Y64444D01*
Y66319D01*
X57457Y67275D01*
X58000Y67233D01*
X58543Y67275D01*
X61347Y64471D01*
X61404Y64404D01*
X61673Y64174D01*
X61673Y64174D01*
X61861Y64059D01*
X61975Y63989D01*
X62303Y63854D01*
X62647Y63771D01*
X62647D01*
X63000Y63743D01*
X63088Y63750D01*
X64982D01*
X65336Y63336D01*
X65786Y62952D01*
X66290Y62643D01*
X66836Y62417D01*
X67411Y62279D01*
X68000Y62233D01*
X68002Y62233D01*
Y59767D01*
G37*
G36*
Y79767D02*X68000Y79767D01*
X67411Y79721D01*
X66836Y79583D01*
X66825Y79579D01*
X65200Y81204D01*
Y84006D01*
X65269Y84023D01*
X65342Y84053D01*
X65409Y84095D01*
X65469Y84147D01*
X65520Y84208D01*
X65561Y84276D01*
X65591Y84349D01*
X65608Y84426D01*
X65614Y84505D01*
X65607Y84584D01*
X65588Y84661D01*
X65556Y84733D01*
X65443Y84971D01*
X65357Y85220D01*
X65294Y85476D01*
X65257Y85737D01*
X65244Y86000D01*
X65257Y86263D01*
X65294Y86524D01*
X65357Y86780D01*
X65443Y87029D01*
X65553Y87268D01*
X65585Y87340D01*
X65604Y87417D01*
X65611Y87495D01*
X65605Y87573D01*
X65587Y87650D01*
X65558Y87723D01*
X65517Y87790D01*
X65467Y87851D01*
X65407Y87902D01*
X65340Y87944D01*
X65268Y87974D01*
X65200Y87991D01*
Y95933D01*
X65205Y96000D01*
X65184Y96267D01*
X65184Y96267D01*
X65122Y96527D01*
X65019Y96774D01*
X64880Y97002D01*
X64706Y97206D01*
X64655Y97249D01*
X57749Y104155D01*
X57706Y104206D01*
X57502Y104380D01*
X57274Y104519D01*
X57027Y104622D01*
X56767Y104684D01*
X56767Y104684D01*
X56501Y104705D01*
Y105250D01*
X61323D01*
X61014Y104986D01*
X60728Y104651D01*
X60497Y104275D01*
X60329Y103868D01*
X60226Y103439D01*
X60191Y103000D01*
X60226Y102561D01*
X60329Y102132D01*
X60497Y101725D01*
X60728Y101349D01*
X61014Y101014D01*
X61349Y100728D01*
X61725Y100497D01*
X62132Y100329D01*
X62561Y100226D01*
X63000Y100191D01*
X63439Y100226D01*
X63787Y100309D01*
X68002Y96094D01*
Y89760D01*
X68000Y89760D01*
X67641Y89743D01*
X67285Y89692D01*
X66936Y89606D01*
X66596Y89488D01*
X66269Y89338D01*
X66202Y89297D01*
X66142Y89245D01*
X66091Y89184D01*
X66050Y89117D01*
X66020Y89043D01*
X66002Y88966D01*
X65997Y88887D01*
X66004Y88808D01*
X66023Y88731D01*
X66053Y88658D01*
X66095Y88591D01*
X66147Y88531D01*
X66208Y88480D01*
X66276Y88439D01*
X66349Y88409D01*
X66426Y88392D01*
X66505Y88386D01*
X66584Y88393D01*
X66661Y88412D01*
X66733Y88444D01*
X66971Y88557D01*
X67220Y88643D01*
X67476Y88706D01*
X67737Y88743D01*
X68000Y88756D01*
X68002Y88756D01*
Y83244D01*
X68000Y83244D01*
X67737Y83257D01*
X67476Y83294D01*
X67220Y83357D01*
X66971Y83443D01*
X66732Y83553D01*
X66660Y83585D01*
X66583Y83604D01*
X66505Y83611D01*
X66427Y83605D01*
X66350Y83587D01*
X66277Y83558D01*
X66210Y83517D01*
X66149Y83467D01*
X66098Y83407D01*
X66056Y83340D01*
X66026Y83268D01*
X66007Y83191D01*
X66000Y83113D01*
X66006Y83034D01*
X66023Y82958D01*
X66053Y82885D01*
X66094Y82817D01*
X66144Y82757D01*
X66204Y82706D01*
X66271Y82666D01*
X66596Y82512D01*
X66936Y82394D01*
X67285Y82308D01*
X67641Y82257D01*
X68000Y82240D01*
X68002Y82240D01*
Y79767D01*
G37*
G36*
X56501Y100595D02*X61800Y95296D01*
Y80567D01*
X61795Y80500D01*
X61816Y80233D01*
Y80233D01*
X61878Y79973D01*
X61981Y79726D01*
X62120Y79498D01*
X62294Y79294D01*
X62345Y79251D01*
X64421Y77175D01*
X64417Y77164D01*
X64279Y76589D01*
X64233Y76000D01*
X64279Y75411D01*
X64417Y74836D01*
X64643Y74290D01*
X64952Y73786D01*
X65336Y73336D01*
X65786Y72952D01*
X66290Y72643D01*
X66836Y72417D01*
X67411Y72279D01*
X68000Y72233D01*
X68002Y72233D01*
Y69767D01*
X68000Y69767D01*
X67411Y69721D01*
X66836Y69583D01*
X66290Y69357D01*
X65786Y69048D01*
X65336Y68664D01*
X64982Y68250D01*
X63932D01*
X61724Y70458D01*
X61756Y71000D01*
X61721Y71589D01*
X61583Y72164D01*
X61357Y72710D01*
X61048Y73214D01*
X60664Y73664D01*
X60214Y74048D01*
X59710Y74357D01*
X59164Y74583D01*
X58589Y74721D01*
X58000Y74767D01*
X57411Y74721D01*
X56836Y74583D01*
X56501Y74444D01*
Y76319D01*
X57457Y77275D01*
X58000Y77233D01*
X58589Y77279D01*
X59164Y77417D01*
X59710Y77643D01*
X60214Y77952D01*
X60664Y78336D01*
X61048Y78786D01*
X61357Y79290D01*
X61583Y79836D01*
X61721Y80411D01*
X61756Y81000D01*
X61721Y81589D01*
X61583Y82164D01*
X61357Y82710D01*
X61048Y83214D01*
X60664Y83664D01*
X60214Y84048D01*
X59710Y84357D01*
X59164Y84583D01*
X58589Y84721D01*
X58000Y84767D01*
X57457Y84725D01*
X56501Y85681D01*
Y87556D01*
X56836Y87417D01*
X57411Y87279D01*
X58000Y87233D01*
X58589Y87279D01*
X59164Y87417D01*
X59710Y87643D01*
X60214Y87952D01*
X60664Y88336D01*
X61048Y88786D01*
X61357Y89290D01*
X61583Y89836D01*
X61721Y90411D01*
X61756Y91000D01*
X61721Y91589D01*
X61583Y92164D01*
X61357Y92710D01*
X61048Y93214D01*
X60664Y93664D01*
X60214Y94048D01*
X59710Y94357D01*
X59164Y94583D01*
X58589Y94721D01*
X58000Y94767D01*
X57411Y94721D01*
X56836Y94583D01*
X56501Y94444D01*
Y100595D01*
G37*
G36*
Y74444D02*X56290Y74357D01*
X55786Y74048D01*
X55336Y73664D01*
X54952Y73214D01*
X54643Y72710D01*
X54417Y72164D01*
X54279Y71589D01*
X54233Y71000D01*
X54275Y70457D01*
X45318Y61500D01*
X45251Y61442D01*
X45250Y61442D01*
Y65068D01*
X56501Y76319D01*
Y74444D01*
G37*
G36*
X54270Y60523D02*X54279Y60411D01*
X54417Y59836D01*
X54643Y59290D01*
X54952Y58786D01*
X55336Y58336D01*
X55786Y57952D01*
X56290Y57643D01*
X56343Y57621D01*
X56378Y57473D01*
X56481Y57226D01*
X56501Y57193D01*
Y48803D01*
X56500Y48803D01*
X56255Y48792D01*
X56011Y48760D01*
X55771Y48706D01*
X55537Y48632D01*
X55465Y48600D01*
X55400Y48556D01*
X55341Y48503D01*
X55292Y48441D01*
X55254Y48372D01*
X55226Y48298D01*
X55210Y48221D01*
X55207Y48142D01*
X55216Y48063D01*
X55237Y47987D01*
X55270Y47915D01*
X55314Y47850D01*
X55367Y47791D01*
X55429Y47742D01*
X55498Y47704D01*
X55572Y47676D01*
X55649Y47660D01*
X55728Y47657D01*
X55807Y47666D01*
X55882Y47689D01*
X56032Y47738D01*
X56186Y47772D01*
X56342Y47793D01*
X56500Y47800D01*
X56501Y47800D01*
Y44200D01*
X56500Y44200D01*
X56342Y44207D01*
X56186Y44228D01*
X56032Y44262D01*
X55882Y44310D01*
X55806Y44332D01*
X55728Y44341D01*
X55650Y44338D01*
X55573Y44322D01*
X55499Y44295D01*
X55430Y44256D01*
X55369Y44207D01*
X55315Y44149D01*
X55272Y44084D01*
X55239Y44012D01*
X55218Y43936D01*
X55209Y43858D01*
X55212Y43780D01*
X55228Y43702D01*
X55255Y43629D01*
X55294Y43560D01*
X55343Y43498D01*
X55401Y43445D01*
X55466Y43402D01*
X55538Y43370D01*
X55771Y43294D01*
X56011Y43240D01*
X56255Y43208D01*
X56500Y43197D01*
X56501Y43197D01*
Y39000D01*
X54270D01*
Y44712D01*
X54279Y44710D01*
X54358Y44707D01*
X54437Y44716D01*
X54513Y44737D01*
X54585Y44770D01*
X54650Y44814D01*
X54709Y44867D01*
X54758Y44929D01*
X54796Y44998D01*
X54824Y45072D01*
X54840Y45149D01*
X54843Y45228D01*
X54834Y45307D01*
X54811Y45382D01*
X54762Y45532D01*
X54728Y45686D01*
X54707Y45842D01*
X54700Y46000D01*
X54707Y46158D01*
X54728Y46314D01*
X54762Y46468D01*
X54810Y46618D01*
X54832Y46694D01*
X54841Y46772D01*
X54838Y46850D01*
X54822Y46927D01*
X54795Y47001D01*
X54756Y47070D01*
X54707Y47131D01*
X54649Y47185D01*
X54584Y47228D01*
X54512Y47261D01*
X54436Y47282D01*
X54358Y47291D01*
X54280Y47288D01*
X54270Y47286D01*
Y60523D01*
G37*
G36*
X56501Y64444D02*X56290Y64357D01*
X55786Y64048D01*
X55336Y63664D01*
X54952Y63214D01*
X54643Y62710D01*
X54417Y62164D01*
X54279Y61589D01*
X54270Y61477D01*
Y64088D01*
X56501Y66319D01*
Y64444D01*
G37*
G36*
X54270Y61477D02*X54233Y61000D01*
X54270Y60523D01*
Y47286D01*
X54202Y47272D01*
X54129Y47245D01*
X54060Y47206D01*
X53998Y47157D01*
X53945Y47099D01*
X53902Y47034D01*
X53870Y46962D01*
X53794Y46729D01*
X53740Y46489D01*
X53708Y46245D01*
X53697Y46000D01*
X53708Y45755D01*
X53740Y45511D01*
X53794Y45271D01*
X53868Y45037D01*
X53900Y44965D01*
X53944Y44900D01*
X53997Y44841D01*
X54059Y44792D01*
X54128Y44754D01*
X54202Y44726D01*
X54270Y44712D01*
Y39000D01*
X49096D01*
Y58653D01*
X49096Y58654D01*
Y58914D01*
X54270Y64088D01*
Y61477D01*
G37*
G36*
X56501Y104705D02*X56500Y104705D01*
X56433Y104700D01*
X48730D01*
X48486Y104986D01*
X48177Y105250D01*
X56501D01*
Y104705D01*
G37*
G36*
X40054Y98168D02*X40205Y97607D01*
X40318Y96969D01*
X40375Y96324D01*
Y95676D01*
X40318Y95031D01*
X40205Y94393D01*
X40054Y93832D01*
Y98168D01*
G37*
G36*
X48730Y101300D02*X55796D01*
X56501Y100595D01*
Y94444D01*
X56290Y94357D01*
X55786Y94048D01*
X55336Y93664D01*
X54952Y93214D01*
X54643Y92710D01*
X54417Y92164D01*
X54279Y91589D01*
X54233Y91000D01*
X54279Y90411D01*
X54417Y89836D01*
X54643Y89290D01*
X54952Y88786D01*
X55336Y88336D01*
X55786Y87952D01*
X56290Y87643D01*
X56501Y87556D01*
Y85681D01*
X55653Y86529D01*
X55596Y86596D01*
X55327Y86826D01*
X55025Y87011D01*
X54697Y87146D01*
X54353Y87229D01*
X54353Y87229D01*
X54000Y87257D01*
X53912Y87250D01*
X40054D01*
Y91458D01*
X40060Y91467D01*
X40431Y92104D01*
X40744Y92771D01*
X40997Y93462D01*
X41189Y94173D01*
X41317Y94898D01*
X41382Y95632D01*
Y96368D01*
X41317Y97102D01*
X41189Y97827D01*
X40997Y98538D01*
X40744Y99229D01*
X40431Y99896D01*
X40060Y100533D01*
X40054Y100542D01*
Y105250D01*
X44823D01*
X44514Y104986D01*
X44228Y104651D01*
X43997Y104275D01*
X43829Y103868D01*
X43726Y103439D01*
X43691Y103000D01*
X43726Y102561D01*
X43829Y102132D01*
X43997Y101725D01*
X44228Y101349D01*
X44514Y101014D01*
X44849Y100728D01*
X45225Y100497D01*
X45632Y100329D01*
X46061Y100226D01*
X46500Y100191D01*
X46939Y100226D01*
X47368Y100329D01*
X47775Y100497D01*
X48151Y100728D01*
X48486Y101014D01*
X48730Y101300D01*
G37*
G36*
X40054Y87250D02*X33004D01*
Y87618D01*
X33368D01*
X34102Y87683D01*
X34827Y87811D01*
X35538Y88003D01*
X36229Y88256D01*
X36896Y88569D01*
X37533Y88940D01*
X38134Y89364D01*
X38194Y89418D01*
X38244Y89480D01*
X38283Y89549D01*
X38312Y89624D01*
X38328Y89702D01*
X38332Y89782D01*
X38323Y89861D01*
X38302Y89938D01*
X38269Y90011D01*
X38226Y90078D01*
X38172Y90137D01*
X38110Y90187D01*
X38040Y90226D01*
X37966Y90255D01*
X37888Y90271D01*
X37808Y90275D01*
X37729Y90266D01*
X37652Y90245D01*
X37579Y90212D01*
X37513Y90167D01*
X36988Y89788D01*
X36428Y89462D01*
X35841Y89187D01*
X35233Y88964D01*
X34607Y88795D01*
X33969Y88682D01*
X33324Y88625D01*
X33004D01*
Y103375D01*
X33324D01*
X33969Y103318D01*
X34607Y103205D01*
X35233Y103036D01*
X35841Y102813D01*
X36428Y102538D01*
X36988Y102212D01*
X37517Y101838D01*
X37582Y101794D01*
X37654Y101762D01*
X37730Y101741D01*
X37808Y101732D01*
X37887Y101736D01*
X37964Y101752D01*
X38037Y101780D01*
X38106Y101819D01*
X38167Y101869D01*
X38220Y101927D01*
X38263Y101993D01*
X38295Y102064D01*
X38316Y102140D01*
X38325Y102219D01*
X38321Y102297D01*
X38305Y102374D01*
X38277Y102448D01*
X38238Y102516D01*
X38189Y102578D01*
X38129Y102629D01*
X37533Y103060D01*
X36896Y103431D01*
X36229Y103744D01*
X35538Y103997D01*
X34827Y104189D01*
X34102Y104317D01*
X33368Y104382D01*
X33004D01*
Y105305D01*
X33147Y105271D01*
X33500Y105243D01*
X33588Y105250D01*
X40054D01*
Y100542D01*
X39636Y101134D01*
X39582Y101194D01*
X39520Y101244D01*
X39451Y101283D01*
X39376Y101312D01*
X39298Y101328D01*
X39218Y101332D01*
X39139Y101323D01*
X39062Y101302D01*
X38989Y101269D01*
X38922Y101226D01*
X38863Y101172D01*
X38813Y101110D01*
X38774Y101040D01*
X38745Y100966D01*
X38729Y100888D01*
X38725Y100808D01*
X38734Y100729D01*
X38755Y100652D01*
X38788Y100579D01*
X38833Y100513D01*
X39212Y99988D01*
X39538Y99428D01*
X39813Y98841D01*
X40036Y98233D01*
X40054Y98168D01*
Y93832D01*
X40036Y93767D01*
X39813Y93159D01*
X39538Y92572D01*
X39212Y92012D01*
X38838Y91483D01*
X38794Y91418D01*
X38762Y91346D01*
X38741Y91270D01*
X38732Y91192D01*
X38736Y91113D01*
X38752Y91036D01*
X38780Y90963D01*
X38819Y90894D01*
X38869Y90833D01*
X38927Y90780D01*
X38993Y90737D01*
X39064Y90705D01*
X39140Y90684D01*
X39219Y90675D01*
X39297Y90679D01*
X39374Y90695D01*
X39448Y90723D01*
X39516Y90762D01*
X39578Y90811D01*
X39629Y90871D01*
X40054Y91458D01*
Y87250D01*
G37*
G36*
X33004D02*X26932D01*
X25946Y88236D01*
Y91458D01*
X26364Y90866D01*
X26418Y90806D01*
X26480Y90756D01*
X26549Y90717D01*
X26624Y90688D01*
X26702Y90672D01*
X26782Y90668D01*
X26861Y90677D01*
X26938Y90698D01*
X27011Y90731D01*
X27078Y90774D01*
X27137Y90828D01*
X27187Y90890D01*
X27226Y90960D01*
X27255Y91034D01*
X27271Y91112D01*
X27275Y91192D01*
X27266Y91271D01*
X27245Y91348D01*
X27212Y91421D01*
X27167Y91487D01*
X26788Y92012D01*
X26462Y92572D01*
X26187Y93159D01*
X25964Y93767D01*
X25946Y93832D01*
Y98168D01*
X25964Y98233D01*
X26187Y98841D01*
X26462Y99428D01*
X26788Y99988D01*
X27162Y100517D01*
X27206Y100582D01*
X27238Y100654D01*
X27259Y100730D01*
X27268Y100808D01*
X27264Y100887D01*
X27248Y100964D01*
X27220Y101037D01*
X27181Y101106D01*
X27131Y101167D01*
X27073Y101220D01*
X27007Y101263D01*
X26936Y101295D01*
X26860Y101316D01*
X26781Y101325D01*
X26703Y101321D01*
X26626Y101305D01*
X26552Y101277D01*
X26484Y101238D01*
X26422Y101189D01*
X26371Y101129D01*
X25946Y100542D01*
Y103197D01*
X26008Y103427D01*
X26087Y103870D01*
X26126Y104318D01*
Y104768D01*
X26087Y105217D01*
X26008Y105660D01*
X25946Y105889D01*
Y108000D01*
X29818D01*
X31847Y105971D01*
X31904Y105904D01*
X32173Y105674D01*
X32173Y105674D01*
X32475Y105489D01*
X32803Y105354D01*
X33004Y105305D01*
Y104382D01*
X32632D01*
X31898Y104317D01*
X31173Y104189D01*
X30462Y103997D01*
X29771Y103744D01*
X29104Y103431D01*
X28467Y103060D01*
X27866Y102636D01*
X27806Y102582D01*
X27756Y102520D01*
X27717Y102451D01*
X27688Y102376D01*
X27672Y102298D01*
X27668Y102218D01*
X27677Y102139D01*
X27698Y102062D01*
X27731Y101989D01*
X27774Y101922D01*
X27828Y101863D01*
X27890Y101813D01*
X27960Y101774D01*
X28034Y101745D01*
X28112Y101729D01*
X28192Y101725D01*
X28271Y101734D01*
X28348Y101755D01*
X28421Y101788D01*
X28487Y101833D01*
X29012Y102212D01*
X29572Y102538D01*
X30159Y102813D01*
X30767Y103036D01*
X31393Y103205D01*
X32031Y103318D01*
X32676Y103375D01*
X33004D01*
Y88625D01*
X32676D01*
X32031Y88682D01*
X31393Y88795D01*
X30767Y88964D01*
X30159Y89187D01*
X29572Y89462D01*
X29012Y89788D01*
X28483Y90162D01*
X28418Y90206D01*
X28346Y90238D01*
X28270Y90259D01*
X28192Y90268D01*
X28113Y90264D01*
X28036Y90248D01*
X27963Y90220D01*
X27894Y90181D01*
X27833Y90131D01*
X27780Y90073D01*
X27737Y90007D01*
X27705Y89936D01*
X27684Y89860D01*
X27675Y89781D01*
X27679Y89703D01*
X27695Y89626D01*
X27723Y89552D01*
X27762Y89484D01*
X27811Y89422D01*
X27871Y89371D01*
X28467Y88940D01*
X29104Y88569D01*
X29771Y88256D01*
X30462Y88003D01*
X31173Y87811D01*
X31898Y87683D01*
X32632Y87618D01*
X33004D01*
Y87250D01*
G37*
G36*
X25946Y93832D02*X25795Y94393D01*
X25682Y95031D01*
X25625Y95676D01*
Y96324D01*
X25682Y96969D01*
X25795Y97607D01*
X25946Y98168D01*
Y93832D01*
G37*
G36*
Y88236D02*X20994Y93188D01*
Y99409D01*
X21217D01*
X21666Y99449D01*
X22109Y99527D01*
X22544Y99644D01*
X22966Y99799D01*
X23374Y99990D01*
X23763Y100216D01*
X23827Y100263D01*
X23882Y100320D01*
X23927Y100386D01*
X23962Y100457D01*
X23985Y100533D01*
X23996Y100611D01*
X23994Y100691D01*
X23980Y100769D01*
X23954Y100844D01*
X23917Y100914D01*
X23869Y100977D01*
X23812Y101032D01*
X23747Y101077D01*
X23675Y101112D01*
X23599Y101135D01*
X23521Y101146D01*
X23441Y101144D01*
X23363Y101130D01*
X23288Y101104D01*
X23219Y101065D01*
X22908Y100880D01*
X22580Y100727D01*
X22240Y100602D01*
X21891Y100508D01*
X21534Y100445D01*
X21173Y100413D01*
X20994D01*
Y108000D01*
X23265D01*
X23290Y107986D01*
X23364Y107960D01*
X23442Y107946D01*
X23521Y107945D01*
X23599Y107956D01*
X23674Y107978D01*
X23718Y108000D01*
X25946D01*
Y105889D01*
X25891Y106095D01*
X25737Y106518D01*
X25546Y106925D01*
X25320Y107315D01*
X25272Y107378D01*
X25215Y107433D01*
X25150Y107478D01*
X25079Y107513D01*
X25003Y107536D01*
X24924Y107547D01*
X24845Y107545D01*
X24767Y107531D01*
X24692Y107505D01*
X24622Y107468D01*
X24559Y107420D01*
X24504Y107363D01*
X24458Y107298D01*
X24424Y107226D01*
X24401Y107151D01*
X24390Y107072D01*
X24391Y106993D01*
X24405Y106915D01*
X24431Y106840D01*
X24470Y106771D01*
X24655Y106459D01*
X24809Y106132D01*
X24933Y105791D01*
X25027Y105442D01*
X25090Y105085D01*
X25122Y104724D01*
Y104362D01*
X25090Y104001D01*
X25027Y103645D01*
X24933Y103295D01*
X24809Y102955D01*
X24655Y102627D01*
X24473Y102314D01*
X24435Y102245D01*
X24409Y102171D01*
X24395Y102094D01*
X24394Y102015D01*
X24404Y101937D01*
X24427Y101862D01*
X24462Y101791D01*
X24507Y101726D01*
X24561Y101669D01*
X24624Y101622D01*
X24693Y101585D01*
X24768Y101559D01*
X24845Y101545D01*
X24924Y101544D01*
X25002Y101554D01*
X25077Y101577D01*
X25148Y101612D01*
X25212Y101657D01*
X25269Y101711D01*
X25315Y101775D01*
X25546Y102161D01*
X25737Y102569D01*
X25891Y102992D01*
X25946Y103197D01*
Y100542D01*
X25940Y100533D01*
X25569Y99896D01*
X25256Y99229D01*
X25003Y98538D01*
X24811Y97827D01*
X24683Y97102D01*
X24618Y96368D01*
Y95632D01*
X24683Y94898D01*
X24811Y94173D01*
X25003Y93462D01*
X25256Y92771D01*
X25569Y92104D01*
X25940Y91467D01*
X25946Y91458D01*
Y88236D01*
G37*
G36*
X20994Y93188D02*X16726Y97456D01*
Y101695D01*
X16769Y101653D01*
X16834Y101608D01*
X16906Y101574D01*
X16982Y101551D01*
X17060Y101540D01*
X17140Y101541D01*
X17218Y101555D01*
X17293Y101581D01*
X17362Y101619D01*
X17426Y101666D01*
X17481Y101724D01*
X17526Y101789D01*
X17561Y101860D01*
X17584Y101936D01*
X17595Y102015D01*
X17593Y102094D01*
X17579Y102172D01*
X17553Y102247D01*
X17514Y102316D01*
X17329Y102627D01*
X17176Y102955D01*
X17051Y103295D01*
X16957Y103645D01*
X16894Y104001D01*
X16862Y104362D01*
Y104724D01*
X16894Y105085D01*
X16957Y105442D01*
X17051Y105791D01*
X17176Y106132D01*
X17329Y106459D01*
X17511Y106773D01*
X17549Y106841D01*
X17575Y106916D01*
X17589Y106993D01*
X17591Y107072D01*
X17580Y107150D01*
X17557Y107225D01*
X17523Y107296D01*
X17478Y107360D01*
X17423Y107417D01*
X17360Y107465D01*
X17291Y107502D01*
X17217Y107528D01*
X17139Y107541D01*
X17060Y107543D01*
X16982Y107532D01*
X16907Y107509D01*
X16836Y107475D01*
X16772Y107430D01*
X16726Y107386D01*
Y108000D01*
X18257D01*
X18309Y107975D01*
X18385Y107952D01*
X18463Y107941D01*
X18543Y107942D01*
X18621Y107956D01*
X18696Y107982D01*
X18727Y108000D01*
X20994D01*
Y100413D01*
X20811D01*
X20450Y100445D01*
X20094Y100508D01*
X19744Y100602D01*
X19404Y100727D01*
X19076Y100880D01*
X18763Y101062D01*
X18694Y101101D01*
X18620Y101126D01*
X18542Y101140D01*
X18464Y101142D01*
X18386Y101131D01*
X18310Y101108D01*
X18240Y101074D01*
X18175Y101029D01*
X18118Y100974D01*
X18071Y100912D01*
X18034Y100842D01*
X18008Y100768D01*
X17994Y100690D01*
X17992Y100612D01*
X18003Y100534D01*
X18026Y100458D01*
X18060Y100388D01*
X18105Y100323D01*
X18160Y100266D01*
X18223Y100220D01*
X18610Y99990D01*
X19018Y99799D01*
X19441Y99644D01*
X19875Y99527D01*
X20319Y99449D01*
X20767Y99409D01*
X20994D01*
Y93188D01*
G37*
G36*
X16726Y97456D02*X15250Y98932D01*
Y107568D01*
X15682Y108000D01*
X16726D01*
Y107386D01*
X16715Y107376D01*
X16669Y107312D01*
X16439Y106925D01*
X16248Y106518D01*
X16093Y106095D01*
X15976Y105660D01*
X15898Y105217D01*
X15858Y104768D01*
Y104318D01*
X15898Y103870D01*
X15976Y103427D01*
X16093Y102992D01*
X16248Y102569D01*
X16439Y102161D01*
X16665Y101772D01*
X16712Y101708D01*
X16726Y101695D01*
Y97456D01*
G37*
G36*
X44596Y39000D02*X43682D01*
X44529Y39847D01*
X44596Y39904D01*
X44596Y39905D01*
Y39000D01*
G37*
G36*
X10466Y108000D02*X10750D01*
Y107399D01*
X10575Y107822D01*
X10466Y108000D01*
G37*
G36*
X10750Y104601D02*Y98088D01*
X10743Y98000D01*
X10771Y97647D01*
Y97647D01*
X10854Y97303D01*
X10989Y96975D01*
X11059Y96861D01*
X11174Y96673D01*
X11174Y96673D01*
X11404Y96404D01*
X11471Y96347D01*
X16726Y91092D01*
Y45379D01*
X16715Y45368D01*
X16669Y45304D01*
X16439Y44917D01*
X16248Y44510D01*
X16093Y44087D01*
X15976Y43652D01*
X15898Y43209D01*
X15858Y42761D01*
Y42310D01*
X15898Y41862D01*
X15976Y41419D01*
X16093Y40984D01*
X16248Y40561D01*
X16439Y40153D01*
X16665Y39764D01*
X16712Y39701D01*
X16726Y39687D01*
Y39000D01*
X9250D01*
Y102688D01*
X9358Y102754D01*
X9837Y103163D01*
X10246Y103642D01*
X10575Y104178D01*
X10750Y104601D01*
G37*
G36*
X16726Y91092D02*X20990Y86828D01*
Y47669D01*
X20767D01*
X20319Y47630D01*
X19875Y47551D01*
X19441Y47434D01*
X19018Y47280D01*
X18610Y47089D01*
X18221Y46863D01*
X18157Y46816D01*
X18102Y46758D01*
X18057Y46693D01*
X18022Y46622D01*
X17999Y46546D01*
X17988Y46467D01*
X17990Y46388D01*
X18004Y46310D01*
X18030Y46235D01*
X18067Y46165D01*
X18115Y46102D01*
X18172Y46047D01*
X18238Y46002D01*
X18309Y45967D01*
X18385Y45944D01*
X18463Y45933D01*
X18543Y45935D01*
X18621Y45949D01*
X18696Y45975D01*
X18765Y46013D01*
X19076Y46198D01*
X19404Y46352D01*
X19744Y46476D01*
X20094Y46570D01*
X20450Y46634D01*
X20811Y46665D01*
X20990D01*
Y39000D01*
X18856D01*
X18763Y39054D01*
X18694Y39093D01*
X18620Y39118D01*
X18542Y39132D01*
X18464Y39134D01*
X18386Y39123D01*
X18310Y39100D01*
X18240Y39066D01*
X18175Y39021D01*
X18153Y39000D01*
X16726D01*
Y39687D01*
X16769Y39646D01*
X16834Y39600D01*
X16906Y39566D01*
X16982Y39543D01*
X17060Y39532D01*
X17140Y39533D01*
X17218Y39547D01*
X17293Y39573D01*
X17362Y39611D01*
X17426Y39659D01*
X17481Y39716D01*
X17526Y39781D01*
X17561Y39852D01*
X17584Y39928D01*
X17595Y40007D01*
X17593Y40086D01*
X17579Y40164D01*
X17553Y40239D01*
X17514Y40308D01*
X17329Y40619D01*
X17176Y40947D01*
X17051Y41287D01*
X16957Y41637D01*
X16894Y41994D01*
X16862Y42354D01*
Y42717D01*
X16894Y43077D01*
X16957Y43434D01*
X17051Y43784D01*
X17176Y44124D01*
X17329Y44452D01*
X17511Y44765D01*
X17549Y44833D01*
X17575Y44908D01*
X17589Y44985D01*
X17591Y45064D01*
X17580Y45142D01*
X17557Y45217D01*
X17523Y45288D01*
X17478Y45353D01*
X17423Y45409D01*
X17360Y45457D01*
X17291Y45494D01*
X17217Y45520D01*
X17139Y45534D01*
X17060Y45535D01*
X16982Y45524D01*
X16907Y45502D01*
X16836Y45467D01*
X16772Y45422D01*
X16726Y45379D01*
Y91092D01*
G37*
G36*
X20990Y86828D02*X24347Y83471D01*
X24404Y83404D01*
X24673Y83174D01*
X24673Y83174D01*
X24861Y83059D01*
X24975Y82989D01*
X25303Y82854D01*
X25647Y82771D01*
X25647D01*
X25946Y82747D01*
Y55542D01*
X25940Y55533D01*
X25569Y54896D01*
X25256Y54229D01*
X25003Y53538D01*
X24811Y52827D01*
X24683Y52102D01*
X24618Y51368D01*
Y50632D01*
X24683Y49898D01*
X24811Y49173D01*
X25003Y48462D01*
X25256Y47771D01*
X25569Y47104D01*
X25940Y46467D01*
X25946Y46458D01*
Y43881D01*
X25891Y44087D01*
X25737Y44510D01*
X25546Y44917D01*
X25320Y45307D01*
X25272Y45370D01*
X25215Y45425D01*
X25150Y45471D01*
X25079Y45505D01*
X25003Y45528D01*
X24924Y45539D01*
X24845Y45538D01*
X24767Y45524D01*
X24692Y45498D01*
X24622Y45460D01*
X24559Y45412D01*
X24504Y45355D01*
X24458Y45290D01*
X24424Y45219D01*
X24401Y45143D01*
X24390Y45064D01*
X24391Y44985D01*
X24405Y44907D01*
X24431Y44832D01*
X24470Y44763D01*
X24655Y44452D01*
X24809Y44124D01*
X24933Y43784D01*
X25027Y43434D01*
X25090Y43077D01*
X25122Y42717D01*
Y42354D01*
X25090Y41994D01*
X25027Y41637D01*
X24933Y41287D01*
X24809Y40947D01*
X24655Y40619D01*
X24473Y40306D01*
X24435Y40238D01*
X24409Y40163D01*
X24395Y40086D01*
X24394Y40007D01*
X24404Y39929D01*
X24427Y39854D01*
X24462Y39783D01*
X24507Y39718D01*
X24561Y39662D01*
X24624Y39614D01*
X24693Y39577D01*
X24768Y39551D01*
X24845Y39537D01*
X24924Y39536D01*
X25002Y39547D01*
X25077Y39569D01*
X25148Y39604D01*
X25212Y39649D01*
X25269Y39703D01*
X25315Y39767D01*
X25546Y40153D01*
X25737Y40561D01*
X25891Y40984D01*
X25946Y41189D01*
Y39000D01*
X23837D01*
X23812Y39024D01*
X23747Y39069D01*
X23675Y39104D01*
X23599Y39127D01*
X23521Y39138D01*
X23441Y39136D01*
X23363Y39122D01*
X23288Y39096D01*
X23219Y39058D01*
X23123Y39000D01*
X20990D01*
Y46665D01*
X21173D01*
X21534Y46634D01*
X21891Y46570D01*
X22240Y46476D01*
X22580Y46352D01*
X22908Y46198D01*
X23221Y46017D01*
X23290Y45978D01*
X23364Y45952D01*
X23442Y45939D01*
X23521Y45937D01*
X23599Y45948D01*
X23674Y45971D01*
X23745Y46005D01*
X23809Y46050D01*
X23866Y46104D01*
X23913Y46167D01*
X23951Y46237D01*
X23976Y46311D01*
X23990Y46388D01*
X23992Y46467D01*
X23981Y46545D01*
X23958Y46620D01*
X23924Y46691D01*
X23879Y46756D01*
X23824Y46813D01*
X23761Y46859D01*
X23374Y47089D01*
X22966Y47280D01*
X22544Y47434D01*
X22109Y47551D01*
X21666Y47630D01*
X21217Y47669D01*
X20990D01*
Y86828D01*
G37*
G36*
X25946Y48832D02*X25795Y49393D01*
X25682Y50031D01*
X25625Y50676D01*
Y51324D01*
X25682Y51969D01*
X25795Y52607D01*
X25946Y53168D01*
Y48832D01*
G37*
G36*
Y82747D02*X26000Y82743D01*
X26088Y82750D01*
X33004D01*
Y59382D01*
X32632D01*
X31898Y59317D01*
X31173Y59189D01*
X30462Y58997D01*
X29771Y58744D01*
X29104Y58431D01*
X28467Y58060D01*
X27866Y57636D01*
X27806Y57582D01*
X27756Y57520D01*
X27717Y57451D01*
X27688Y57376D01*
X27672Y57298D01*
X27668Y57218D01*
X27677Y57139D01*
X27698Y57062D01*
X27731Y56989D01*
X27774Y56922D01*
X27828Y56863D01*
X27890Y56813D01*
X27960Y56774D01*
X28034Y56745D01*
X28112Y56729D01*
X28192Y56725D01*
X28271Y56734D01*
X28348Y56755D01*
X28421Y56788D01*
X28487Y56833D01*
X29012Y57212D01*
X29572Y57538D01*
X30159Y57813D01*
X30767Y58036D01*
X31393Y58205D01*
X32031Y58318D01*
X32676Y58375D01*
X33004D01*
Y43625D01*
X32676D01*
X32031Y43682D01*
X31393Y43795D01*
X30767Y43964D01*
X30159Y44187D01*
X29572Y44462D01*
X29012Y44788D01*
X28483Y45162D01*
X28418Y45206D01*
X28346Y45238D01*
X28270Y45259D01*
X28192Y45268D01*
X28113Y45264D01*
X28036Y45248D01*
X27963Y45220D01*
X27894Y45181D01*
X27833Y45131D01*
X27780Y45073D01*
X27737Y45007D01*
X27705Y44936D01*
X27684Y44860D01*
X27675Y44781D01*
X27679Y44703D01*
X27695Y44626D01*
X27723Y44552D01*
X27762Y44484D01*
X27811Y44422D01*
X27871Y44371D01*
X28467Y43940D01*
X29104Y43569D01*
X29771Y43256D01*
X30462Y43003D01*
X31173Y42811D01*
X31898Y42683D01*
X32632Y42618D01*
X33004D01*
Y39000D01*
X25946D01*
Y41189D01*
X26008Y41419D01*
X26087Y41862D01*
X26126Y42310D01*
Y42761D01*
X26087Y43209D01*
X26008Y43652D01*
X25946Y43881D01*
Y46458D01*
X26364Y45866D01*
X26418Y45806D01*
X26480Y45756D01*
X26549Y45717D01*
X26624Y45688D01*
X26702Y45672D01*
X26782Y45668D01*
X26861Y45677D01*
X26938Y45698D01*
X27011Y45731D01*
X27078Y45774D01*
X27137Y45828D01*
X27187Y45890D01*
X27226Y45960D01*
X27255Y46034D01*
X27271Y46112D01*
X27275Y46192D01*
X27266Y46271D01*
X27245Y46348D01*
X27212Y46421D01*
X27167Y46487D01*
X26788Y47012D01*
X26462Y47572D01*
X26187Y48159D01*
X25964Y48767D01*
X25946Y48832D01*
Y53168D01*
X25964Y53233D01*
X26187Y53841D01*
X26462Y54428D01*
X26788Y54988D01*
X27162Y55517D01*
X27206Y55582D01*
X27238Y55654D01*
X27259Y55730D01*
X27268Y55808D01*
X27264Y55887D01*
X27248Y55964D01*
X27220Y56037D01*
X27181Y56106D01*
X27131Y56167D01*
X27073Y56220D01*
X27007Y56263D01*
X26936Y56295D01*
X26860Y56316D01*
X26781Y56325D01*
X26703Y56321D01*
X26626Y56305D01*
X26552Y56277D01*
X26484Y56238D01*
X26422Y56189D01*
X26371Y56129D01*
X25946Y55542D01*
Y82747D01*
G37*
G36*
X33004Y82750D02*X53068D01*
X54275Y81543D01*
X54233Y81000D01*
X54275Y80457D01*
X41471Y67653D01*
X41404Y67596D01*
X41174Y67327D01*
X40989Y67025D01*
X40854Y66697D01*
X40771Y66353D01*
X40771Y66353D01*
X40743Y66000D01*
X40750Y65912D01*
Y54212D01*
X40744Y54229D01*
X40431Y54896D01*
X40060Y55533D01*
X39636Y56134D01*
X39582Y56194D01*
X39520Y56244D01*
X39451Y56283D01*
X39376Y56312D01*
X39298Y56328D01*
X39218Y56332D01*
X39139Y56323D01*
X39062Y56302D01*
X38989Y56269D01*
X38922Y56226D01*
X38863Y56172D01*
X38813Y56110D01*
X38774Y56040D01*
X38745Y55966D01*
X38729Y55888D01*
X38725Y55808D01*
X38734Y55729D01*
X38755Y55652D01*
X38788Y55579D01*
X38833Y55513D01*
X39212Y54988D01*
X39538Y54428D01*
X39813Y53841D01*
X40036Y53233D01*
X40205Y52607D01*
X40318Y51969D01*
X40375Y51324D01*
Y50676D01*
X40318Y50031D01*
X40205Y49393D01*
X40036Y48767D01*
X39813Y48159D01*
X39538Y47572D01*
X39212Y47012D01*
X38838Y46483D01*
X38794Y46418D01*
X38762Y46346D01*
X38741Y46270D01*
X38732Y46192D01*
X38736Y46113D01*
X38752Y46036D01*
X38780Y45963D01*
X38819Y45894D01*
X38869Y45833D01*
X38927Y45780D01*
X38993Y45737D01*
X39064Y45705D01*
X39140Y45684D01*
X39219Y45675D01*
X39297Y45679D01*
X39374Y45695D01*
X39448Y45723D01*
X39516Y45762D01*
X39578Y45811D01*
X39629Y45871D01*
X40060Y46467D01*
X40431Y47104D01*
X40744Y47771D01*
X40750Y47788D01*
Y42432D01*
X37318Y39000D01*
X33004D01*
Y42618D01*
X33368D01*
X34102Y42683D01*
X34827Y42811D01*
X35538Y43003D01*
X36229Y43256D01*
X36896Y43569D01*
X37533Y43940D01*
X38134Y44364D01*
X38194Y44418D01*
X38244Y44480D01*
X38283Y44549D01*
X38312Y44624D01*
X38328Y44702D01*
X38332Y44782D01*
X38323Y44861D01*
X38302Y44938D01*
X38269Y45011D01*
X38226Y45078D01*
X38172Y45137D01*
X38110Y45187D01*
X38040Y45226D01*
X37966Y45255D01*
X37888Y45271D01*
X37808Y45275D01*
X37729Y45266D01*
X37652Y45245D01*
X37579Y45212D01*
X37513Y45167D01*
X36988Y44788D01*
X36428Y44462D01*
X35841Y44187D01*
X35233Y43964D01*
X34607Y43795D01*
X33969Y43682D01*
X33324Y43625D01*
X33004D01*
Y58375D01*
X33324D01*
X33969Y58318D01*
X34607Y58205D01*
X35233Y58036D01*
X35841Y57813D01*
X36428Y57538D01*
X36988Y57212D01*
X37517Y56838D01*
X37582Y56794D01*
X37654Y56762D01*
X37730Y56741D01*
X37808Y56732D01*
X37887Y56736D01*
X37964Y56752D01*
X38037Y56780D01*
X38106Y56819D01*
X38167Y56869D01*
X38220Y56927D01*
X38263Y56993D01*
X38295Y57064D01*
X38316Y57140D01*
X38325Y57219D01*
X38321Y57297D01*
X38305Y57374D01*
X38277Y57448D01*
X38238Y57516D01*
X38189Y57578D01*
X38129Y57629D01*
X37533Y58060D01*
X36896Y58431D01*
X36229Y58744D01*
X35538Y58997D01*
X34827Y59189D01*
X34102Y59317D01*
X33368Y59382D01*
X33004D01*
Y82750D01*
G37*
G36*
X2500Y39000D02*Y108000D01*
X3534D01*
X3425Y107822D01*
X3184Y107240D01*
X3037Y106628D01*
X2988Y106000D01*
X3037Y105372D01*
X3184Y104760D01*
X3425Y104178D01*
X3754Y103642D01*
X4163Y103163D01*
X4642Y102754D01*
X4750Y102688D01*
Y39000D01*
X2500D01*
G37*
G36*
X73300Y25745D02*X73240Y25749D01*
X65603Y25740D01*
X65500Y25715D01*
Y30475D01*
X65603Y30450D01*
X65760Y30441D01*
X73300Y30450D01*
Y25745D01*
G37*
G36*
X106270Y47564D02*X106000Y47586D01*
X105126Y47517D01*
X104274Y47312D01*
X103464Y46977D01*
X102717Y46519D01*
X102050Y45950D01*
X101481Y45283D01*
X101023Y44536D01*
X100688Y43726D01*
X100681Y43700D01*
X94067D01*
X94000Y43705D01*
X93733Y43684D01*
X93473Y43622D01*
X93226Y43519D01*
X92998Y43380D01*
X92998Y43379D01*
X92794Y43206D01*
X92751Y43155D01*
X85296Y35700D01*
X82230D01*
X81986Y35986D01*
X81651Y36272D01*
X81275Y36503D01*
X80903Y36657D01*
X81626Y36483D01*
X82500Y36414D01*
X83374Y36483D01*
X84226Y36688D01*
X85036Y37023D01*
X85783Y37481D01*
X86450Y38050D01*
X87019Y38717D01*
X87477Y39464D01*
X87812Y40274D01*
X88017Y41126D01*
X88068Y42000D01*
X88017Y42874D01*
X87812Y43726D01*
X87477Y44536D01*
X87463Y44559D01*
X103704Y60800D01*
X106270D01*
Y56286D01*
X106202Y56272D01*
X106129Y56245D01*
X106060Y56206D01*
X105998Y56157D01*
X105945Y56099D01*
X105902Y56034D01*
X105870Y55962D01*
X105794Y55729D01*
X105740Y55489D01*
X105708Y55245D01*
X105697Y55000D01*
X105708Y54755D01*
X105740Y54511D01*
X105794Y54271D01*
X105868Y54037D01*
X105900Y53965D01*
X105944Y53900D01*
X105997Y53841D01*
X106059Y53792D01*
X106128Y53754D01*
X106202Y53726D01*
X106270Y53712D01*
Y47564D01*
G37*
G36*
X108501Y46991D02*X107726Y47312D01*
X106874Y47517D01*
X106270Y47564D01*
Y53712D01*
X106279Y53710D01*
X106358Y53707D01*
X106437Y53716D01*
X106513Y53737D01*
X106585Y53770D01*
X106650Y53814D01*
X106709Y53867D01*
X106758Y53929D01*
X106796Y53998D01*
X106824Y54072D01*
X106840Y54149D01*
X106843Y54228D01*
X106834Y54307D01*
X106811Y54382D01*
X106762Y54532D01*
X106728Y54686D01*
X106707Y54842D01*
X106700Y55000D01*
X106707Y55158D01*
X106728Y55314D01*
X106762Y55468D01*
X106810Y55618D01*
X106832Y55694D01*
X106841Y55772D01*
X106838Y55850D01*
X106822Y55927D01*
X106795Y56001D01*
X106756Y56070D01*
X106707Y56131D01*
X106649Y56185D01*
X106584Y56228D01*
X106512Y56261D01*
X106436Y56282D01*
X106358Y56291D01*
X106280Y56288D01*
X106270Y56286D01*
Y60800D01*
X108501D01*
Y57803D01*
X108500Y57803D01*
X108255Y57792D01*
X108011Y57760D01*
X107771Y57706D01*
X107537Y57632D01*
X107465Y57600D01*
X107400Y57556D01*
X107341Y57503D01*
X107292Y57441D01*
X107254Y57372D01*
X107226Y57298D01*
X107210Y57221D01*
X107207Y57142D01*
X107216Y57063D01*
X107237Y56987D01*
X107270Y56915D01*
X107314Y56850D01*
X107367Y56791D01*
X107429Y56742D01*
X107498Y56704D01*
X107572Y56676D01*
X107649Y56660D01*
X107728Y56657D01*
X107807Y56666D01*
X107882Y56689D01*
X108032Y56738D01*
X108186Y56772D01*
X108342Y56793D01*
X108500Y56800D01*
X108501Y56800D01*
Y53200D01*
X108500Y53200D01*
X108342Y53207D01*
X108186Y53228D01*
X108032Y53262D01*
X107882Y53310D01*
X107806Y53332D01*
X107728Y53341D01*
X107650Y53338D01*
X107573Y53322D01*
X107499Y53295D01*
X107430Y53256D01*
X107369Y53207D01*
X107315Y53149D01*
X107272Y53084D01*
X107239Y53012D01*
X107218Y52936D01*
X107209Y52858D01*
X107212Y52780D01*
X107228Y52702D01*
X107255Y52629D01*
X107294Y52560D01*
X107343Y52498D01*
X107401Y52445D01*
X107466Y52402D01*
X107538Y52370D01*
X107771Y52294D01*
X108011Y52240D01*
X108255Y52208D01*
X108500Y52197D01*
X108501Y52197D01*
Y46991D01*
G37*
G36*
X110730Y49134D02*X108559Y46963D01*
X108536Y46977D01*
X108501Y46991D01*
Y52197D01*
X108745Y52208D01*
X108989Y52240D01*
X109229Y52294D01*
X109463Y52368D01*
X109535Y52400D01*
X109600Y52444D01*
X109659Y52497D01*
X109708Y52559D01*
X109746Y52628D01*
X109774Y52702D01*
X109790Y52779D01*
X109793Y52858D01*
X109784Y52937D01*
X109763Y53013D01*
X109730Y53085D01*
X109686Y53150D01*
X109633Y53209D01*
X109571Y53258D01*
X109502Y53296D01*
X109428Y53324D01*
X109351Y53340D01*
X109272Y53343D01*
X109193Y53334D01*
X109118Y53311D01*
X108968Y53262D01*
X108814Y53228D01*
X108658Y53207D01*
X108501Y53200D01*
Y56800D01*
X108658Y56793D01*
X108814Y56772D01*
X108968Y56738D01*
X109118Y56690D01*
X109194Y56668D01*
X109272Y56659D01*
X109350Y56662D01*
X109427Y56678D01*
X109501Y56705D01*
X109570Y56744D01*
X109631Y56793D01*
X109685Y56851D01*
X109728Y56916D01*
X109761Y56988D01*
X109782Y57064D01*
X109791Y57142D01*
X109788Y57220D01*
X109772Y57298D01*
X109745Y57371D01*
X109706Y57440D01*
X109657Y57502D01*
X109599Y57555D01*
X109534Y57598D01*
X109462Y57630D01*
X109229Y57706D01*
X108989Y57760D01*
X108745Y57792D01*
X108501Y57803D01*
Y60800D01*
X110730D01*
Y56288D01*
X110721Y56290D01*
X110642Y56293D01*
X110563Y56284D01*
X110487Y56263D01*
X110415Y56230D01*
X110350Y56186D01*
X110291Y56133D01*
X110242Y56071D01*
X110204Y56002D01*
X110176Y55928D01*
X110160Y55851D01*
X110157Y55772D01*
X110166Y55693D01*
X110189Y55618D01*
X110238Y55468D01*
X110272Y55314D01*
X110293Y55158D01*
X110300Y55000D01*
X110293Y54842D01*
X110272Y54686D01*
X110238Y54532D01*
X110190Y54382D01*
X110168Y54306D01*
X110159Y54228D01*
X110162Y54150D01*
X110178Y54073D01*
X110205Y53999D01*
X110244Y53930D01*
X110293Y53869D01*
X110351Y53815D01*
X110416Y53772D01*
X110488Y53739D01*
X110564Y53718D01*
X110642Y53709D01*
X110720Y53712D01*
X110730Y53714D01*
Y49134D01*
G37*
G36*
X131300Y66435D02*Y62704D01*
X130094Y61498D01*
X124765Y61486D01*
X124535Y61431D01*
X124317Y61341D01*
X124116Y61217D01*
X123936Y61064D01*
X123783Y60884D01*
X123659Y60683D01*
X123569Y60465D01*
X123514Y60235D01*
X123500Y60000D01*
X123503Y58700D01*
X121067D01*
X121000Y58705D01*
X120733Y58684D01*
X120473Y58622D01*
X120226Y58519D01*
X119998Y58380D01*
X119998Y58379D01*
X119794Y58206D01*
X119751Y58155D01*
X110730Y49134D01*
Y53714D01*
X110798Y53728D01*
X110871Y53755D01*
X110940Y53794D01*
X111002Y53843D01*
X111055Y53901D01*
X111098Y53966D01*
X111130Y54038D01*
X111206Y54271D01*
X111260Y54511D01*
X111292Y54755D01*
X111303Y55000D01*
X111292Y55245D01*
X111260Y55489D01*
X111206Y55729D01*
X111132Y55963D01*
X111100Y56035D01*
X111056Y56100D01*
X111003Y56159D01*
X110941Y56208D01*
X110872Y56246D01*
X110798Y56274D01*
X110730Y56288D01*
Y60800D01*
X120933D01*
X121000Y60795D01*
X121267Y60816D01*
X121267Y60816D01*
X121527Y60878D01*
X121774Y60981D01*
X122002Y61120D01*
X122206Y61294D01*
X122249Y61345D01*
X126256Y65352D01*
X126605Y65207D01*
X127294Y65042D01*
X128000Y64986D01*
X128706Y65042D01*
X129395Y65207D01*
X130049Y65478D01*
X130653Y65848D01*
X131192Y66308D01*
X131300Y66435D01*
G37*
G36*
X64677Y105250D02*X73000D01*
Y95904D01*
X65793Y103111D01*
X65774Y103439D01*
X65671Y103868D01*
X65503Y104275D01*
X65272Y104651D01*
X64986Y104986D01*
X64677Y105250D01*
G37*
G36*
X64500Y148324D02*X64542Y147794D01*
X64652Y147334D01*
X64500Y147182D01*
Y148324D01*
G37*
G36*
X132230Y162500D02*X136500D01*
Y94000D01*
X132230D01*
Y103558D01*
X132296Y103666D01*
X133068Y105529D01*
X133539Y107490D01*
X133657Y109500D01*
X133539Y111510D01*
X133068Y113471D01*
X132296Y115334D01*
X132230Y115442D01*
Y128714D01*
X132298Y128728D01*
X132371Y128755D01*
X132440Y128794D01*
X132502Y128843D01*
X132555Y128901D01*
X132598Y128966D01*
X132630Y129038D01*
X132706Y129271D01*
X132760Y129511D01*
X132792Y129755D01*
X132803Y130000D01*
X132792Y130245D01*
X132760Y130489D01*
X132706Y130729D01*
X132632Y130963D01*
X132600Y131035D01*
X132556Y131100D01*
X132503Y131159D01*
X132441Y131208D01*
X132372Y131246D01*
X132298Y131274D01*
X132230Y131288D01*
Y162500D01*
G37*
G36*
Y94000D02*X130001D01*
Y100493D01*
X131243Y101947D01*
X132230Y103558D01*
Y94000D01*
G37*
G36*
X130001Y162500D02*X132230D01*
Y131288D01*
X132221Y131290D01*
X132142Y131293D01*
X132063Y131284D01*
X131987Y131263D01*
X131915Y131230D01*
X131850Y131186D01*
X131791Y131133D01*
X131742Y131071D01*
X131704Y131002D01*
X131676Y130928D01*
X131660Y130851D01*
X131657Y130772D01*
X131666Y130693D01*
X131689Y130618D01*
X131738Y130468D01*
X131772Y130314D01*
X131793Y130158D01*
X131800Y130000D01*
X131793Y129842D01*
X131772Y129686D01*
X131738Y129532D01*
X131690Y129382D01*
X131668Y129306D01*
X131659Y129228D01*
X131662Y129150D01*
X131678Y129073D01*
X131705Y128999D01*
X131744Y128930D01*
X131793Y128869D01*
X131851Y128815D01*
X131916Y128772D01*
X131988Y128739D01*
X132064Y128718D01*
X132142Y128709D01*
X132220Y128712D01*
X132230Y128714D01*
Y115442D01*
X131243Y117053D01*
X130001Y118507D01*
Y127197D01*
X130245Y127208D01*
X130489Y127240D01*
X130729Y127294D01*
X130963Y127368D01*
X131035Y127400D01*
X131100Y127444D01*
X131159Y127497D01*
X131208Y127559D01*
X131246Y127628D01*
X131274Y127702D01*
X131290Y127779D01*
X131293Y127858D01*
X131284Y127937D01*
X131263Y128013D01*
X131230Y128085D01*
X131186Y128150D01*
X131133Y128209D01*
X131071Y128258D01*
X131002Y128296D01*
X130928Y128324D01*
X130851Y128340D01*
X130772Y128343D01*
X130693Y128334D01*
X130618Y128311D01*
X130468Y128262D01*
X130314Y128228D01*
X130158Y128207D01*
X130001Y128200D01*
Y131800D01*
X130158Y131793D01*
X130314Y131772D01*
X130468Y131738D01*
X130618Y131690D01*
X130694Y131668D01*
X130772Y131659D01*
X130850Y131662D01*
X130927Y131678D01*
X131001Y131705D01*
X131070Y131744D01*
X131131Y131793D01*
X131185Y131851D01*
X131228Y131916D01*
X131261Y131988D01*
X131282Y132064D01*
X131291Y132142D01*
X131288Y132220D01*
X131272Y132298D01*
X131245Y132371D01*
X131206Y132440D01*
X131157Y132502D01*
X131099Y132555D01*
X131034Y132598D01*
X130962Y132630D01*
X130729Y132706D01*
X130489Y132760D01*
X130245Y132792D01*
X130001Y132803D01*
Y162500D01*
G37*
G36*
Y94000D02*X109230D01*
Y95214D01*
X109298Y95228D01*
X109371Y95255D01*
X109440Y95294D01*
X109502Y95343D01*
X109555Y95401D01*
X109598Y95466D01*
X109630Y95538D01*
X109706Y95771D01*
X109760Y96011D01*
X109792Y96255D01*
X109803Y96500D01*
X109792Y96745D01*
X109760Y96989D01*
X109706Y97229D01*
X109632Y97463D01*
X109600Y97535D01*
X109556Y97600D01*
X109503Y97659D01*
X109441Y97708D01*
X109372Y97746D01*
X109298Y97774D01*
X109230Y97788D01*
Y104068D01*
X109397Y103666D01*
X110450Y101947D01*
X111760Y100413D01*
X113293Y99104D01*
X115012Y98050D01*
X116875Y97278D01*
X118836Y96808D01*
X120846Y96649D01*
X122857Y96808D01*
X124817Y97278D01*
X126680Y98050D01*
X128400Y99104D01*
X129933Y100413D01*
X130001Y100493D01*
Y94000D01*
G37*
G36*
X109230D02*X108161D01*
X108208Y94059D01*
X108246Y94128D01*
X108274Y94202D01*
X108290Y94279D01*
X108293Y94358D01*
X108284Y94437D01*
X108263Y94513D01*
X108230Y94585D01*
X108186Y94650D01*
X108133Y94709D01*
X108071Y94758D01*
X108002Y94796D01*
X107928Y94824D01*
X107851Y94840D01*
X107772Y94843D01*
X107693Y94834D01*
X107618Y94811D01*
X107468Y94762D01*
X107314Y94728D01*
X107158Y94707D01*
X107000Y94700D01*
X106999Y94700D01*
Y98300D01*
X107000Y98300D01*
X107158Y98293D01*
X107314Y98272D01*
X107468Y98238D01*
X107618Y98190D01*
X107694Y98168D01*
X107772Y98159D01*
X107850Y98162D01*
X107927Y98178D01*
X108001Y98205D01*
X108070Y98244D01*
X108131Y98293D01*
X108185Y98351D01*
X108228Y98416D01*
X108261Y98488D01*
X108282Y98564D01*
X108291Y98642D01*
X108288Y98720D01*
X108272Y98798D01*
X108245Y98871D01*
X108206Y98940D01*
X108157Y99002D01*
X108099Y99055D01*
X108034Y99098D01*
X107962Y99130D01*
X107729Y99206D01*
X107489Y99260D01*
X107245Y99292D01*
X107000Y99303D01*
X106999Y99303D01*
Y114819D01*
X108571Y113247D01*
X108154Y111510D01*
X107996Y109500D01*
X108154Y107490D01*
X108625Y105529D01*
X109230Y104068D01*
Y97788D01*
X109221Y97790D01*
X109142Y97793D01*
X109063Y97784D01*
X108987Y97763D01*
X108915Y97730D01*
X108850Y97686D01*
X108791Y97633D01*
X108742Y97571D01*
X108704Y97502D01*
X108676Y97428D01*
X108660Y97351D01*
X108657Y97272D01*
X108666Y97193D01*
X108689Y97118D01*
X108738Y96968D01*
X108772Y96814D01*
X108793Y96658D01*
X108800Y96500D01*
X108793Y96342D01*
X108772Y96186D01*
X108738Y96032D01*
X108690Y95882D01*
X108668Y95806D01*
X108659Y95728D01*
X108662Y95650D01*
X108678Y95573D01*
X108705Y95499D01*
X108744Y95430D01*
X108793Y95369D01*
X108851Y95315D01*
X108916Y95272D01*
X108988Y95239D01*
X109064Y95218D01*
X109142Y95209D01*
X109220Y95212D01*
X109230Y95214D01*
Y94000D01*
G37*
G36*
X106999Y94700D02*X106842Y94707D01*
X106686Y94728D01*
X106532Y94762D01*
X106382Y94810D01*
X106306Y94832D01*
X106228Y94841D01*
X106150Y94838D01*
X106073Y94822D01*
X105999Y94795D01*
X105930Y94756D01*
X105869Y94707D01*
X105815Y94649D01*
X105772Y94584D01*
X105739Y94512D01*
X105718Y94436D01*
X105709Y94358D01*
X105712Y94280D01*
X105728Y94202D01*
X105755Y94129D01*
X105794Y94060D01*
X105841Y94000D01*
X104770D01*
Y95212D01*
X104779Y95210D01*
X104858Y95207D01*
X104937Y95216D01*
X105013Y95237D01*
X105085Y95270D01*
X105150Y95314D01*
X105209Y95367D01*
X105258Y95429D01*
X105296Y95498D01*
X105324Y95572D01*
X105340Y95649D01*
X105343Y95728D01*
X105334Y95807D01*
X105311Y95882D01*
X105262Y96032D01*
X105228Y96186D01*
X105207Y96342D01*
X105200Y96500D01*
X105207Y96658D01*
X105228Y96814D01*
X105262Y96968D01*
X105310Y97118D01*
X105332Y97194D01*
X105341Y97272D01*
X105338Y97350D01*
X105322Y97427D01*
X105295Y97501D01*
X105256Y97570D01*
X105207Y97631D01*
X105149Y97685D01*
X105084Y97728D01*
X105012Y97761D01*
X104936Y97782D01*
X104858Y97791D01*
X104780Y97788D01*
X104770Y97786D01*
Y105731D01*
X105192Y107490D01*
X105311Y109500D01*
X105192Y111510D01*
X104770Y113269D01*
Y117048D01*
X106999Y114819D01*
Y99303D01*
X106755Y99292D01*
X106511Y99260D01*
X106271Y99206D01*
X106037Y99132D01*
X105965Y99100D01*
X105900Y99056D01*
X105841Y99003D01*
X105792Y98941D01*
X105754Y98872D01*
X105726Y98798D01*
X105710Y98721D01*
X105707Y98642D01*
X105716Y98563D01*
X105737Y98487D01*
X105770Y98415D01*
X105814Y98350D01*
X105867Y98291D01*
X105929Y98242D01*
X105998Y98204D01*
X106072Y98176D01*
X106149Y98160D01*
X106228Y98157D01*
X106307Y98166D01*
X106382Y98189D01*
X106532Y98238D01*
X106686Y98272D01*
X106842Y98293D01*
X106999Y98300D01*
Y94700D01*
G37*
G36*
X104770Y113269D02*X104722Y113471D01*
X103950Y115334D01*
X102896Y117053D01*
X101587Y118587D01*
X100053Y119896D01*
X98334Y120950D01*
X96471Y121722D01*
X94510Y122192D01*
X92500Y122351D01*
X90490Y122192D01*
X88529Y121722D01*
X86666Y120950D01*
X84947Y119896D01*
X83413Y118587D01*
X82104Y117053D01*
X81050Y115334D01*
X80278Y113471D01*
X79808Y111510D01*
X79669Y109750D01*
X76500D01*
Y110000D01*
X71230D01*
Y111759D01*
X71907Y111759D01*
X72060Y111796D01*
X72205Y111856D01*
X72340Y111938D01*
X72459Y112041D01*
X72562Y112160D01*
X72644Y112295D01*
X72704Y112440D01*
X72741Y112593D01*
X72750Y112750D01*
X72741Y131407D01*
X72704Y131560D01*
X72644Y131705D01*
X72562Y131840D01*
X72459Y131959D01*
X72340Y132062D01*
X72205Y132144D01*
X72060Y132204D01*
X71907Y132241D01*
X71750Y132250D01*
X71230Y132250D01*
Y136714D01*
X71298Y136728D01*
X71371Y136755D01*
X71440Y136794D01*
X71502Y136843D01*
X71555Y136901D01*
X71598Y136966D01*
X71630Y137038D01*
X71706Y137271D01*
X71760Y137511D01*
X71792Y137755D01*
X71803Y138000D01*
X71792Y138245D01*
X71760Y138489D01*
X71706Y138729D01*
X71632Y138963D01*
X71600Y139035D01*
X71556Y139100D01*
X71503Y139159D01*
X71441Y139208D01*
X71372Y139246D01*
X71298Y139274D01*
X71230Y139288D01*
Y144589D01*
X71653Y144848D01*
X72192Y145308D01*
X72652Y145847D01*
X72899Y146250D01*
X75568D01*
X104770Y117048D01*
Y113269D01*
G37*
G36*
Y94000D02*X76500D01*
Y105250D01*
X80394D01*
X81050Y103666D01*
X82104Y101947D01*
X83413Y100413D01*
X84947Y99104D01*
X86666Y98050D01*
X88529Y97278D01*
X90490Y96808D01*
X92500Y96649D01*
X94510Y96808D01*
X96471Y97278D01*
X98334Y98050D01*
X100053Y99104D01*
X101587Y100413D01*
X102896Y101947D01*
X103950Y103666D01*
X104722Y105529D01*
X104770Y105731D01*
Y97786D01*
X104702Y97772D01*
X104629Y97745D01*
X104560Y97706D01*
X104498Y97657D01*
X104445Y97599D01*
X104402Y97534D01*
X104370Y97462D01*
X104294Y97229D01*
X104240Y96989D01*
X104208Y96745D01*
X104197Y96500D01*
X104208Y96255D01*
X104240Y96011D01*
X104294Y95771D01*
X104368Y95537D01*
X104400Y95465D01*
X104444Y95400D01*
X104497Y95341D01*
X104559Y95292D01*
X104628Y95254D01*
X104702Y95226D01*
X104770Y95212D01*
Y94000D01*
G37*
G36*
X127770Y162500D02*X130001D01*
Y132803D01*
X130000Y132803D01*
X129755Y132792D01*
X129511Y132760D01*
X129271Y132706D01*
X129037Y132632D01*
X128965Y132600D01*
X128900Y132556D01*
X128841Y132503D01*
X128792Y132441D01*
X128754Y132372D01*
X128726Y132298D01*
X128710Y132221D01*
X128707Y132142D01*
X128716Y132063D01*
X128737Y131987D01*
X128770Y131915D01*
X128814Y131850D01*
X128867Y131791D01*
X128929Y131742D01*
X128998Y131704D01*
X129072Y131676D01*
X129149Y131660D01*
X129228Y131657D01*
X129307Y131666D01*
X129382Y131689D01*
X129532Y131738D01*
X129686Y131772D01*
X129842Y131793D01*
X130000Y131800D01*
X130001Y131800D01*
Y128200D01*
X130000Y128200D01*
X129842Y128207D01*
X129686Y128228D01*
X129532Y128262D01*
X129382Y128310D01*
X129306Y128332D01*
X129228Y128341D01*
X129150Y128338D01*
X129073Y128322D01*
X128999Y128295D01*
X128930Y128256D01*
X128869Y128207D01*
X128815Y128149D01*
X128772Y128084D01*
X128739Y128012D01*
X128718Y127936D01*
X128709Y127858D01*
X128712Y127780D01*
X128728Y127702D01*
X128755Y127629D01*
X128794Y127560D01*
X128843Y127498D01*
X128901Y127445D01*
X128966Y127402D01*
X129038Y127370D01*
X129271Y127294D01*
X129511Y127240D01*
X129755Y127208D01*
X130000Y127197D01*
X130001Y127197D01*
Y118507D01*
X129933Y118587D01*
X128400Y119896D01*
X127770Y120282D01*
Y128712D01*
X127779Y128710D01*
X127858Y128707D01*
X127937Y128716D01*
X128013Y128737D01*
X128085Y128770D01*
X128150Y128814D01*
X128209Y128867D01*
X128258Y128929D01*
X128296Y128998D01*
X128324Y129072D01*
X128340Y129149D01*
X128343Y129228D01*
X128334Y129307D01*
X128311Y129382D01*
X128262Y129532D01*
X128228Y129686D01*
X128207Y129842D01*
X128200Y130000D01*
X128207Y130158D01*
X128228Y130314D01*
X128262Y130468D01*
X128310Y130618D01*
X128332Y130694D01*
X128341Y130772D01*
X128338Y130850D01*
X128322Y130927D01*
X128295Y131001D01*
X128256Y131070D01*
X128207Y131131D01*
X128149Y131185D01*
X128084Y131228D01*
X128012Y131261D01*
X127936Y131282D01*
X127858Y131291D01*
X127780Y131288D01*
X127770Y131286D01*
Y162500D01*
G37*
G36*
X72750D02*X127770D01*
Y131286D01*
X127702Y131272D01*
X127629Y131245D01*
X127560Y131206D01*
X127498Y131157D01*
X127445Y131099D01*
X127402Y131034D01*
X127370Y130962D01*
X127294Y130729D01*
X127240Y130489D01*
X127208Y130245D01*
X127197Y130000D01*
X127208Y129755D01*
X127240Y129511D01*
X127294Y129271D01*
X127368Y129037D01*
X127400Y128965D01*
X127444Y128900D01*
X127497Y128841D01*
X127559Y128792D01*
X127628Y128754D01*
X127702Y128726D01*
X127770Y128712D01*
Y120282D01*
X126680Y120950D01*
X124817Y121722D01*
X122857Y122192D01*
X120846Y122351D01*
X118836Y122192D01*
X116875Y121722D01*
X115012Y120950D01*
X113293Y119896D01*
X111760Y118587D01*
X110763Y117419D01*
X78153Y150029D01*
X78096Y150096D01*
X77827Y150326D01*
X77827Y150326D01*
X77712Y150396D01*
X77525Y150511D01*
X77293Y150607D01*
X77197Y150646D01*
X76853Y150729D01*
X76500Y150757D01*
X76412Y150750D01*
X72899D01*
X72750Y150993D01*
Y156248D01*
X72868Y156257D01*
X72982Y156285D01*
X73092Y156330D01*
X73192Y156391D01*
X73282Y156468D01*
X73359Y156558D01*
X73420Y156658D01*
X73465Y156768D01*
X73493Y156882D01*
X73500Y157000D01*
Y160000D01*
X73493Y160118D01*
X73465Y160232D01*
X73420Y160342D01*
X73359Y160442D01*
X73282Y160532D01*
X73192Y160609D01*
X73092Y160670D01*
X72982Y160715D01*
X72868Y160743D01*
X72750Y160752D01*
Y162500D01*
G37*
G36*
X71230Y162078D02*X71243Y162132D01*
X71252Y162250D01*
X71243Y162368D01*
X71230Y162422D01*
Y162500D01*
X72750D01*
Y160752D01*
X72632Y160743D01*
X72518Y160715D01*
X72408Y160670D01*
X72308Y160609D01*
X72218Y160532D01*
X72141Y160442D01*
X72080Y160342D01*
X72035Y160232D01*
X72007Y160118D01*
X72000Y160000D01*
Y157000D01*
X72007Y156882D01*
X72035Y156768D01*
X72080Y156658D01*
X72141Y156558D01*
X72218Y156468D01*
X72308Y156391D01*
X72408Y156330D01*
X72518Y156285D01*
X72632Y156257D01*
X72750Y156248D01*
Y150993D01*
X72652Y151153D01*
X72192Y151692D01*
X71653Y152152D01*
X71230Y152411D01*
Y154578D01*
X71243Y154632D01*
X71252Y154750D01*
X71243Y154868D01*
X71230Y154922D01*
Y158156D01*
X71257Y158500D01*
X71230Y158844D01*
Y162078D01*
G37*
G36*
Y154922D02*X71215Y154982D01*
X71170Y155092D01*
X71109Y155192D01*
X71032Y155282D01*
X70942Y155359D01*
X70842Y155420D01*
X70732Y155465D01*
X70618Y155493D01*
X70500Y155500D01*
X69001D01*
Y156250D01*
X69353Y156271D01*
X69697Y156354D01*
X70025Y156489D01*
X70327Y156674D01*
X70596Y156904D01*
X70826Y157173D01*
X71011Y157475D01*
X71146Y157803D01*
X71229Y158147D01*
X71230Y158156D01*
Y154922D01*
G37*
G36*
Y152411D02*X71049Y152522D01*
X70395Y152793D01*
X69706Y152958D01*
X69001Y153014D01*
Y154000D01*
X70500D01*
X70618Y154007D01*
X70732Y154035D01*
X70842Y154080D01*
X70942Y154141D01*
X71032Y154218D01*
X71109Y154308D01*
X71170Y154408D01*
X71215Y154518D01*
X71230Y154578D01*
Y152411D01*
G37*
G36*
Y132250D02*X69001Y132248D01*
Y135197D01*
X69245Y135208D01*
X69489Y135240D01*
X69729Y135294D01*
X69963Y135368D01*
X70035Y135400D01*
X70100Y135444D01*
X70159Y135497D01*
X70208Y135559D01*
X70246Y135628D01*
X70274Y135702D01*
X70290Y135779D01*
X70293Y135858D01*
X70284Y135937D01*
X70263Y136013D01*
X70230Y136085D01*
X70186Y136150D01*
X70133Y136209D01*
X70071Y136258D01*
X70002Y136296D01*
X69928Y136324D01*
X69851Y136340D01*
X69772Y136343D01*
X69693Y136334D01*
X69618Y136311D01*
X69468Y136262D01*
X69314Y136228D01*
X69158Y136207D01*
X69001Y136200D01*
Y139800D01*
X69158Y139793D01*
X69314Y139772D01*
X69468Y139738D01*
X69618Y139690D01*
X69694Y139668D01*
X69772Y139659D01*
X69850Y139662D01*
X69927Y139678D01*
X70001Y139705D01*
X70070Y139744D01*
X70131Y139793D01*
X70185Y139851D01*
X70228Y139916D01*
X70261Y139988D01*
X70282Y140064D01*
X70291Y140142D01*
X70288Y140220D01*
X70272Y140298D01*
X70245Y140371D01*
X70206Y140440D01*
X70157Y140502D01*
X70099Y140555D01*
X70034Y140598D01*
X69962Y140630D01*
X69729Y140706D01*
X69489Y140760D01*
X69245Y140792D01*
X69001Y140803D01*
Y143986D01*
X69706Y144042D01*
X70395Y144207D01*
X71049Y144478D01*
X71230Y144589D01*
Y139288D01*
X71221Y139290D01*
X71142Y139293D01*
X71063Y139284D01*
X70987Y139263D01*
X70915Y139230D01*
X70850Y139186D01*
X70791Y139133D01*
X70742Y139071D01*
X70704Y139002D01*
X70676Y138928D01*
X70660Y138851D01*
X70657Y138772D01*
X70666Y138693D01*
X70689Y138618D01*
X70738Y138468D01*
X70772Y138314D01*
X70793Y138158D01*
X70800Y138000D01*
X70793Y137842D01*
X70772Y137686D01*
X70738Y137532D01*
X70690Y137382D01*
X70668Y137306D01*
X70659Y137228D01*
X70662Y137150D01*
X70678Y137073D01*
X70705Y136999D01*
X70744Y136930D01*
X70793Y136869D01*
X70851Y136815D01*
X70916Y136772D01*
X70988Y136739D01*
X71064Y136718D01*
X71142Y136709D01*
X71220Y136712D01*
X71230Y136714D01*
Y132250D01*
G37*
G36*
Y110000D02*X69001D01*
Y111757D01*
X71230Y111759D01*
Y110000D01*
G37*
G36*
Y162422D02*X71215Y162482D01*
X71208Y162500D01*
X71230D01*
Y162422D01*
G37*
G36*
X69001Y161500D02*X70500D01*
X70618Y161507D01*
X70732Y161535D01*
X70842Y161580D01*
X70942Y161641D01*
X71032Y161718D01*
X71109Y161808D01*
X71170Y161908D01*
X71215Y162018D01*
X71230Y162078D01*
Y158844D01*
X71229Y158853D01*
X71146Y159197D01*
X71011Y159525D01*
X70826Y159827D01*
X70596Y160096D01*
X70327Y160326D01*
X70025Y160511D01*
X69697Y160646D01*
X69353Y160729D01*
X69001Y160750D01*
Y161500D01*
G37*
G36*
Y153014D02*X69000Y153014D01*
X68294Y152958D01*
X67605Y152793D01*
X66951Y152522D01*
X66347Y152152D01*
X65808Y151692D01*
X65348Y151153D01*
X64978Y150549D01*
X64707Y149895D01*
X64542Y149206D01*
X64500Y148676D01*
Y156250D01*
X65221D01*
X65250Y156248D01*
X65279Y156250D01*
X69000D01*
X69001Y156250D01*
Y155500D01*
X67500D01*
X67382Y155493D01*
X67268Y155465D01*
X67158Y155420D01*
X67058Y155359D01*
X66968Y155282D01*
X66891Y155192D01*
X66830Y155092D01*
X66785Y154982D01*
X66757Y154868D01*
X66748Y154750D01*
X66757Y154632D01*
X66785Y154518D01*
X66830Y154408D01*
X66891Y154308D01*
X66968Y154218D01*
X67058Y154141D01*
X67158Y154080D01*
X67268Y154035D01*
X67382Y154007D01*
X67500Y154000D01*
X69001D01*
Y153014D01*
G37*
G36*
Y132248D02*X66770Y132247D01*
Y136712D01*
X66779Y136710D01*
X66858Y136707D01*
X66937Y136716D01*
X67013Y136737D01*
X67085Y136770D01*
X67150Y136814D01*
X67209Y136867D01*
X67258Y136929D01*
X67296Y136998D01*
X67324Y137072D01*
X67340Y137149D01*
X67343Y137228D01*
X67334Y137307D01*
X67311Y137382D01*
X67262Y137532D01*
X67228Y137686D01*
X67207Y137842D01*
X67200Y138000D01*
X67207Y138158D01*
X67228Y138314D01*
X67262Y138468D01*
X67310Y138618D01*
X67332Y138694D01*
X67341Y138772D01*
X67338Y138850D01*
X67322Y138927D01*
X67295Y139001D01*
X67256Y139070D01*
X67207Y139131D01*
X67149Y139185D01*
X67084Y139228D01*
X67012Y139261D01*
X66936Y139282D01*
X66858Y139291D01*
X66780Y139288D01*
X66770Y139286D01*
Y143088D01*
X67834Y144152D01*
X68294Y144042D01*
X69000Y143986D01*
X69001Y143986D01*
Y140803D01*
X69000Y140803D01*
X68755Y140792D01*
X68511Y140760D01*
X68271Y140706D01*
X68037Y140632D01*
X67965Y140600D01*
X67900Y140556D01*
X67841Y140503D01*
X67792Y140441D01*
X67754Y140372D01*
X67726Y140298D01*
X67710Y140221D01*
X67707Y140142D01*
X67716Y140063D01*
X67737Y139987D01*
X67770Y139915D01*
X67814Y139850D01*
X67867Y139791D01*
X67929Y139742D01*
X67998Y139704D01*
X68072Y139676D01*
X68149Y139660D01*
X68228Y139657D01*
X68307Y139666D01*
X68382Y139689D01*
X68532Y139738D01*
X68686Y139772D01*
X68842Y139793D01*
X69000Y139800D01*
X69001Y139800D01*
Y136200D01*
X69000Y136200D01*
X68842Y136207D01*
X68686Y136228D01*
X68532Y136262D01*
X68382Y136310D01*
X68306Y136332D01*
X68228Y136341D01*
X68150Y136338D01*
X68073Y136322D01*
X67999Y136295D01*
X67930Y136256D01*
X67869Y136207D01*
X67815Y136149D01*
X67772Y136084D01*
X67739Y136012D01*
X67718Y135936D01*
X67709Y135858D01*
X67712Y135780D01*
X67728Y135702D01*
X67755Y135629D01*
X67794Y135560D01*
X67843Y135498D01*
X67901Y135445D01*
X67966Y135402D01*
X68038Y135370D01*
X68271Y135294D01*
X68511Y135240D01*
X68755Y135208D01*
X69000Y135197D01*
X69001Y135197D01*
Y132248D01*
G37*
G36*
X66770Y132247D02*X64500Y132245D01*
Y140818D01*
X66770Y143088D01*
Y139286D01*
X66702Y139272D01*
X66629Y139245D01*
X66560Y139206D01*
X66498Y139157D01*
X66445Y139099D01*
X66402Y139034D01*
X66370Y138962D01*
X66294Y138729D01*
X66240Y138489D01*
X66208Y138245D01*
X66197Y138000D01*
X66208Y137755D01*
X66240Y137511D01*
X66294Y137271D01*
X66368Y137037D01*
X66400Y136965D01*
X66444Y136900D01*
X66497Y136841D01*
X66559Y136792D01*
X66628Y136754D01*
X66702Y136726D01*
X66770Y136712D01*
Y132247D01*
G37*
G36*
X69001Y110000D02*X64500D01*
Y111755D01*
X69001Y111757D01*
Y110000D01*
G37*
G36*
X64500Y162500D02*X66792D01*
X66785Y162482D01*
X66757Y162368D01*
X66748Y162250D01*
X66757Y162132D01*
X66785Y162018D01*
X66830Y161908D01*
X66891Y161808D01*
X66968Y161718D01*
X67058Y161641D01*
X67158Y161580D01*
X67268Y161535D01*
X67382Y161507D01*
X67500Y161500D01*
X69001D01*
Y160750D01*
X69000Y160750D01*
X65279D01*
X65250Y160752D01*
X65221Y160750D01*
X64500D01*
Y162500D01*
G37*
G36*
X42700Y135632D02*X58294D01*
X58382Y135625D01*
X58735Y135653D01*
X58735Y135653D01*
X59079Y135735D01*
X59407Y135871D01*
X59708Y136056D01*
X59978Y136286D01*
X60035Y136353D01*
X64500Y140818D01*
Y132245D01*
X57093Y132241D01*
X56940Y132204D01*
X56795Y132144D01*
X56660Y132062D01*
X56541Y131959D01*
X56438Y131840D01*
X56356Y131705D01*
X56296Y131560D01*
X56259Y131407D01*
X56250Y131250D01*
X56259Y112593D01*
X56296Y112440D01*
X56356Y112295D01*
X56438Y112160D01*
X56541Y112041D01*
X56660Y111938D01*
X56795Y111856D01*
X56940Y111796D01*
X57093Y111759D01*
X57250Y111750D01*
X64500Y111755D01*
Y110000D01*
X42700D01*
Y111755D01*
X50107Y111759D01*
X50260Y111796D01*
X50405Y111856D01*
X50540Y111938D01*
X50659Y112041D01*
X50762Y112160D01*
X50844Y112295D01*
X50904Y112440D01*
X50941Y112593D01*
X50950Y112750D01*
X50941Y131407D01*
X50904Y131560D01*
X50844Y131705D01*
X50762Y131840D01*
X50659Y131959D01*
X50540Y132062D01*
X50405Y132144D01*
X50260Y132204D01*
X50107Y132241D01*
X49950Y132250D01*
X42700Y132245D01*
Y135632D01*
G37*
G36*
Y140750D02*X43912D01*
X44000Y140743D01*
X44353Y140771D01*
X44353Y140771D01*
X44697Y140854D01*
X45025Y140989D01*
X45327Y141174D01*
X45596Y141404D01*
X45653Y141471D01*
X59029Y154847D01*
X59096Y154904D01*
X59326Y155173D01*
X59326Y155173D01*
X59511Y155475D01*
X59646Y155803D01*
X59729Y156147D01*
X59737Y156250D01*
X64500D01*
Y148676D01*
X64486Y148500D01*
X64500Y148324D01*
Y147182D01*
X57450Y140132D01*
X42700D01*
Y140750D01*
G37*
G36*
X44230Y162500D02*X64500D01*
Y160750D01*
X57588D01*
X57500Y160757D01*
X57147Y160729D01*
X56803Y160646D01*
X56475Y160511D01*
X56173Y160326D01*
X55904Y160096D01*
X55674Y159827D01*
X55489Y159525D01*
X55354Y159197D01*
X55271Y158853D01*
X55243Y158500D01*
X55250Y158412D01*
Y157432D01*
X44230Y146412D01*
Y153714D01*
X44298Y153728D01*
X44371Y153755D01*
X44440Y153794D01*
X44502Y153843D01*
X44555Y153901D01*
X44598Y153966D01*
X44630Y154038D01*
X44706Y154271D01*
X44760Y154511D01*
X44792Y154755D01*
X44803Y155000D01*
X44792Y155245D01*
X44760Y155489D01*
X44706Y155729D01*
X44632Y155963D01*
X44600Y156035D01*
X44556Y156100D01*
X44503Y156159D01*
X44441Y156208D01*
X44372Y156246D01*
X44298Y156274D01*
X44230Y156288D01*
Y162500D01*
G37*
G36*
X42700D02*X44230D01*
Y156288D01*
X44221Y156290D01*
X44142Y156293D01*
X44063Y156284D01*
X43987Y156263D01*
X43915Y156230D01*
X43850Y156186D01*
X43791Y156133D01*
X43742Y156071D01*
X43704Y156002D01*
X43676Y155928D01*
X43660Y155851D01*
X43657Y155772D01*
X43666Y155693D01*
X43689Y155618D01*
X43738Y155468D01*
X43772Y155314D01*
X43793Y155158D01*
X43800Y155000D01*
X43793Y154842D01*
X43772Y154686D01*
X43738Y154532D01*
X43690Y154382D01*
X43668Y154306D01*
X43659Y154228D01*
X43662Y154150D01*
X43678Y154073D01*
X43705Y153999D01*
X43744Y153930D01*
X43793Y153869D01*
X43851Y153815D01*
X43916Y153772D01*
X43988Y153739D01*
X44064Y153718D01*
X44142Y153709D01*
X44220Y153712D01*
X44230Y153714D01*
Y146412D01*
X43068Y145250D01*
X42700D01*
Y152287D01*
X42729Y152294D01*
X42963Y152368D01*
X43035Y152400D01*
X43100Y152444D01*
X43159Y152497D01*
X43208Y152559D01*
X43246Y152628D01*
X43274Y152702D01*
X43290Y152779D01*
X43293Y152858D01*
X43284Y152937D01*
X43263Y153013D01*
X43230Y153085D01*
X43186Y153150D01*
X43133Y153209D01*
X43071Y153258D01*
X43002Y153296D01*
X42928Y153324D01*
X42851Y153340D01*
X42772Y153343D01*
X42700Y153335D01*
Y156667D01*
X42772Y156659D01*
X42850Y156662D01*
X42927Y156678D01*
X43001Y156705D01*
X43070Y156744D01*
X43131Y156793D01*
X43185Y156851D01*
X43228Y156916D01*
X43261Y156988D01*
X43282Y157064D01*
X43291Y157142D01*
X43288Y157220D01*
X43272Y157298D01*
X43245Y157371D01*
X43206Y157440D01*
X43157Y157502D01*
X43099Y157555D01*
X43034Y157598D01*
X42962Y157630D01*
X42729Y157706D01*
X42700Y157713D01*
Y162500D01*
G37*
G36*
X39770Y111753D02*X42700Y111755D01*
Y110000D01*
X39770D01*
Y111753D01*
G37*
G36*
Y135414D02*X40125Y135415D01*
X40278Y135452D01*
X40423Y135512D01*
X40558Y135594D01*
X40601Y135632D01*
X42700D01*
Y132245D01*
X39770Y132244D01*
Y135414D01*
G37*
G36*
Y140532D02*X40125Y140533D01*
X40278Y140570D01*
X40423Y140630D01*
X40558Y140712D01*
X40602Y140750D01*
X42700D01*
Y140132D01*
X40602D01*
X40558Y140169D01*
X40423Y140252D01*
X40278Y140312D01*
X40125Y140349D01*
X39968Y140358D01*
X39770Y140357D01*
Y140532D01*
G37*
G36*
Y162500D02*X42700D01*
Y157713D01*
X42489Y157760D01*
X42245Y157792D01*
X42000Y157803D01*
X41755Y157792D01*
X41511Y157760D01*
X41271Y157706D01*
X41037Y157632D01*
X40965Y157600D01*
X40900Y157556D01*
X40841Y157503D01*
X40792Y157441D01*
X40754Y157372D01*
X40726Y157298D01*
X40710Y157221D01*
X40707Y157142D01*
X40716Y157063D01*
X40737Y156987D01*
X40770Y156915D01*
X40814Y156850D01*
X40867Y156791D01*
X40929Y156742D01*
X40998Y156704D01*
X41072Y156676D01*
X41149Y156660D01*
X41228Y156657D01*
X41307Y156666D01*
X41382Y156689D01*
X41532Y156738D01*
X41686Y156772D01*
X41842Y156793D01*
X42000Y156800D01*
X42158Y156793D01*
X42314Y156772D01*
X42468Y156738D01*
X42618Y156690D01*
X42694Y156668D01*
X42700Y156667D01*
Y153335D01*
X42693Y153334D01*
X42618Y153311D01*
X42468Y153262D01*
X42314Y153228D01*
X42158Y153207D01*
X42000Y153200D01*
X41842Y153207D01*
X41686Y153228D01*
X41532Y153262D01*
X41382Y153310D01*
X41306Y153332D01*
X41228Y153341D01*
X41150Y153338D01*
X41073Y153322D01*
X40999Y153295D01*
X40930Y153256D01*
X40869Y153207D01*
X40815Y153149D01*
X40772Y153084D01*
X40739Y153012D01*
X40718Y152936D01*
X40709Y152858D01*
X40712Y152780D01*
X40728Y152702D01*
X40755Y152629D01*
X40794Y152560D01*
X40843Y152498D01*
X40901Y152445D01*
X40966Y152402D01*
X41038Y152370D01*
X41271Y152294D01*
X41511Y152240D01*
X41755Y152208D01*
X42000Y152197D01*
X42245Y152208D01*
X42489Y152240D01*
X42700Y152287D01*
Y145250D01*
X40601D01*
X40558Y145287D01*
X40423Y145370D01*
X40278Y145430D01*
X40125Y145467D01*
X39968Y145476D01*
X39770Y145475D01*
Y153712D01*
X39779Y153710D01*
X39858Y153707D01*
X39937Y153716D01*
X40013Y153737D01*
X40085Y153770D01*
X40150Y153814D01*
X40209Y153867D01*
X40258Y153929D01*
X40296Y153998D01*
X40324Y154072D01*
X40340Y154149D01*
X40343Y154228D01*
X40334Y154307D01*
X40311Y154382D01*
X40262Y154532D01*
X40228Y154686D01*
X40207Y154842D01*
X40200Y155000D01*
X40207Y155158D01*
X40228Y155314D01*
X40262Y155468D01*
X40310Y155618D01*
X40332Y155694D01*
X40341Y155772D01*
X40338Y155850D01*
X40322Y155927D01*
X40295Y156001D01*
X40256Y156070D01*
X40207Y156131D01*
X40149Y156185D01*
X40084Y156228D01*
X40012Y156261D01*
X39936Y156282D01*
X39858Y156291D01*
X39780Y156288D01*
X39770Y156286D01*
Y162500D01*
G37*
G36*
X29502Y146250D02*X31568D01*
X35037Y142781D01*
X35041Y141367D01*
X35078Y141214D01*
X35138Y141069D01*
X35220Y140934D01*
X35323Y140815D01*
X35442Y140712D01*
X35577Y140630D01*
X35722Y140570D01*
X35875Y140533D01*
X36032Y140524D01*
X39770Y140532D01*
Y140357D01*
X35875Y140349D01*
X35722Y140312D01*
X35577Y140252D01*
X35442Y140169D01*
X35323Y140067D01*
X35220Y139948D01*
X35138Y139813D01*
X35078Y139668D01*
X35041Y139515D01*
X35032Y139358D01*
X35041Y136249D01*
X35078Y136096D01*
X35138Y135951D01*
X35220Y135816D01*
X35323Y135697D01*
X35442Y135594D01*
X35577Y135512D01*
X35722Y135452D01*
X35875Y135415D01*
X36032Y135406D01*
X39770Y135414D01*
Y132244D01*
X35293Y132241D01*
X35140Y132204D01*
X34995Y132144D01*
X34860Y132062D01*
X34741Y131959D01*
X34638Y131840D01*
X34556Y131705D01*
X34496Y131560D01*
X34459Y131407D01*
X34450Y131250D01*
X34459Y112593D01*
X34496Y112440D01*
X34556Y112295D01*
X34638Y112160D01*
X34741Y112041D01*
X34860Y111938D01*
X34995Y111856D01*
X35140Y111796D01*
X35293Y111759D01*
X35450Y111750D01*
X39770Y111753D01*
Y110000D01*
X34182D01*
X29502Y114680D01*
Y117692D01*
X29939Y117726D01*
X30368Y117829D01*
X30775Y117997D01*
X31151Y118228D01*
X31486Y118514D01*
X31772Y118849D01*
X32003Y119225D01*
X32171Y119632D01*
X32274Y120061D01*
X32300Y120500D01*
X32274Y120939D01*
X32171Y121368D01*
X32003Y121775D01*
X31772Y122151D01*
X31486Y122486D01*
X31200Y122730D01*
Y134010D01*
X32735Y134014D01*
X32965Y134069D01*
X33183Y134159D01*
X33384Y134283D01*
X33564Y134436D01*
X33717Y134616D01*
X33841Y134817D01*
X33931Y135035D01*
X33986Y135265D01*
X34000Y135500D01*
X33986Y141735D01*
X33931Y141965D01*
X33841Y142183D01*
X33717Y142384D01*
X33564Y142564D01*
X33384Y142717D01*
X33183Y142841D01*
X32965Y142931D01*
X32735Y142986D01*
X32500Y143000D01*
X29502Y142993D01*
Y143995D01*
X29933Y144016D01*
X30363Y144078D01*
X30784Y144182D01*
X31194Y144325D01*
X31300Y144378D01*
X31396Y144447D01*
X31481Y144530D01*
X31551Y144625D01*
X31606Y144731D01*
X31643Y144843D01*
X31663Y144960D01*
X31664Y145079D01*
X31646Y145196D01*
X31610Y145309D01*
X31557Y145415D01*
X31488Y145512D01*
X31405Y145596D01*
X31309Y145667D01*
X31204Y145721D01*
X31092Y145759D01*
X30975Y145778D01*
X30856Y145779D01*
X30739Y145761D01*
X30626Y145723D01*
X30355Y145624D01*
X30075Y145556D01*
X29789Y145514D01*
X29502Y145500D01*
Y146250D01*
G37*
G36*
Y114680D02*X26653Y117529D01*
X26596Y117596D01*
X26327Y117826D01*
X26327Y117826D01*
X26212Y117896D01*
X26025Y118011D01*
X25793Y118107D01*
X25697Y118146D01*
X25362Y118227D01*
X25360Y119897D01*
X25323Y120050D01*
X25263Y120195D01*
X25181Y120330D01*
X25078Y120449D01*
X24959Y120552D01*
X24824Y120634D01*
X24679Y120694D01*
X24526Y120731D01*
X24369Y120740D01*
X22730Y120737D01*
Y128214D01*
X22798Y128228D01*
X22871Y128255D01*
X22940Y128294D01*
X23002Y128343D01*
X23055Y128401D01*
X23098Y128466D01*
X23130Y128538D01*
X23206Y128771D01*
X23260Y129011D01*
X23292Y129255D01*
X23303Y129500D01*
X23292Y129745D01*
X23260Y129989D01*
X23206Y130229D01*
X23132Y130463D01*
X23100Y130535D01*
X23056Y130600D01*
X23003Y130659D01*
X22941Y130708D01*
X22872Y130746D01*
X22798Y130774D01*
X22730Y130788D01*
Y136250D01*
X25012D01*
X25014Y135265D01*
X25069Y135035D01*
X25159Y134817D01*
X25283Y134616D01*
X25436Y134436D01*
X25616Y134283D01*
X25817Y134159D01*
X26035Y134069D01*
X26265Y134014D01*
X26500Y134000D01*
X27800Y134003D01*
Y122730D01*
X27514Y122486D01*
X27228Y122151D01*
X26997Y121775D01*
X26829Y121368D01*
X26726Y120939D01*
X26691Y120500D01*
X26726Y120061D01*
X26829Y119632D01*
X26997Y119225D01*
X27228Y118849D01*
X27514Y118514D01*
X27849Y118228D01*
X28225Y117997D01*
X28632Y117829D01*
X29061Y117726D01*
X29500Y117691D01*
X29502Y117692D01*
Y114680D01*
G37*
G36*
X22730Y146250D02*X29502D01*
Y145500D01*
X29500Y145500D01*
X29211Y145514D01*
X28925Y145556D01*
X28645Y145624D01*
X28372Y145720D01*
X28261Y145758D01*
X28144Y145775D01*
X28026Y145775D01*
X27909Y145755D01*
X27797Y145718D01*
X27693Y145664D01*
X27598Y145594D01*
X27515Y145509D01*
X27446Y145413D01*
X27393Y145308D01*
X27357Y145195D01*
X27340Y145079D01*
X27341Y144961D01*
X27360Y144844D01*
X27397Y144732D01*
X27452Y144627D01*
X27522Y144532D01*
X27606Y144449D01*
X27702Y144381D01*
X27808Y144330D01*
X28216Y144182D01*
X28637Y144078D01*
X29067Y144016D01*
X29500Y143995D01*
X29502Y143995D01*
Y142993D01*
X26265Y142986D01*
X26035Y142931D01*
X25817Y142841D01*
X25616Y142717D01*
X25436Y142564D01*
X25283Y142384D01*
X25159Y142183D01*
X25069Y141965D01*
X25014Y141735D01*
X25000Y141500D01*
X25002Y140750D01*
X22730D01*
Y146250D01*
G37*
G36*
Y120737D02*X20501Y120733D01*
Y126697D01*
X20745Y126708D01*
X20989Y126740D01*
X21229Y126794D01*
X21463Y126868D01*
X21535Y126900D01*
X21600Y126944D01*
X21659Y126997D01*
X21708Y127059D01*
X21746Y127128D01*
X21774Y127202D01*
X21790Y127279D01*
X21793Y127358D01*
X21784Y127437D01*
X21763Y127513D01*
X21730Y127585D01*
X21686Y127650D01*
X21633Y127709D01*
X21571Y127758D01*
X21502Y127796D01*
X21428Y127824D01*
X21351Y127840D01*
X21272Y127843D01*
X21193Y127834D01*
X21118Y127811D01*
X20968Y127762D01*
X20814Y127728D01*
X20658Y127707D01*
X20501Y127700D01*
Y131300D01*
X20658Y131293D01*
X20814Y131272D01*
X20968Y131238D01*
X21118Y131190D01*
X21194Y131168D01*
X21272Y131159D01*
X21350Y131162D01*
X21427Y131178D01*
X21501Y131205D01*
X21570Y131244D01*
X21631Y131293D01*
X21685Y131351D01*
X21728Y131416D01*
X21761Y131488D01*
X21782Y131564D01*
X21791Y131642D01*
X21788Y131720D01*
X21772Y131798D01*
X21745Y131871D01*
X21706Y131940D01*
X21657Y132002D01*
X21599Y132055D01*
X21534Y132098D01*
X21462Y132130D01*
X21229Y132206D01*
X20989Y132260D01*
X20745Y132292D01*
X20501Y132303D01*
Y134012D01*
X21235Y134014D01*
X21465Y134069D01*
X21683Y134159D01*
X21884Y134283D01*
X22064Y134436D01*
X22217Y134616D01*
X22341Y134817D01*
X22431Y135035D01*
X22486Y135265D01*
X22500Y135500D01*
X22498Y136250D01*
X22730D01*
Y130788D01*
X22721Y130790D01*
X22642Y130793D01*
X22563Y130784D01*
X22487Y130763D01*
X22415Y130730D01*
X22350Y130686D01*
X22291Y130633D01*
X22242Y130571D01*
X22204Y130502D01*
X22176Y130428D01*
X22160Y130351D01*
X22157Y130272D01*
X22166Y130193D01*
X22189Y130118D01*
X22238Y129968D01*
X22272Y129814D01*
X22293Y129658D01*
X22300Y129500D01*
X22293Y129342D01*
X22272Y129186D01*
X22238Y129032D01*
X22190Y128882D01*
X22168Y128806D01*
X22159Y128728D01*
X22162Y128650D01*
X22178Y128573D01*
X22205Y128499D01*
X22244Y128430D01*
X22293Y128369D01*
X22351Y128315D01*
X22416Y128272D01*
X22488Y128239D01*
X22564Y128218D01*
X22642Y128209D01*
X22720Y128212D01*
X22730Y128214D01*
Y120737D01*
G37*
G36*
X20501Y146250D02*X22730D01*
Y140750D01*
X22488D01*
X22486Y141735D01*
X22431Y141965D01*
X22341Y142183D01*
X22217Y142384D01*
X22064Y142564D01*
X21884Y142717D01*
X21683Y142841D01*
X21465Y142931D01*
X21235Y142986D01*
X21000Y143000D01*
X20501Y142999D01*
Y146250D01*
G37*
G36*
X29498Y153986D02*X29500Y153986D01*
X30206Y154042D01*
X30895Y154207D01*
X31549Y154478D01*
X32153Y154848D01*
X32692Y155308D01*
X33152Y155847D01*
X33522Y156451D01*
X33793Y157105D01*
X33958Y157794D01*
X34000Y158500D01*
X33958Y159206D01*
X33793Y159895D01*
X33522Y160549D01*
X33152Y161153D01*
X32692Y161692D01*
X32153Y162152D01*
X31585Y162500D01*
X39770D01*
Y156286D01*
X39702Y156272D01*
X39629Y156245D01*
X39560Y156206D01*
X39498Y156157D01*
X39445Y156099D01*
X39402Y156034D01*
X39370Y155962D01*
X39294Y155729D01*
X39240Y155489D01*
X39208Y155245D01*
X39197Y155000D01*
X39208Y154755D01*
X39240Y154511D01*
X39294Y154271D01*
X39368Y154037D01*
X39400Y153965D01*
X39444Y153900D01*
X39497Y153841D01*
X39559Y153792D01*
X39628Y153754D01*
X39702Y153726D01*
X39770Y153712D01*
Y145475D01*
X38709Y145473D01*
X34153Y150029D01*
X34096Y150096D01*
X33827Y150326D01*
X33827Y150326D01*
X33712Y150396D01*
X33525Y150511D01*
X33293Y150607D01*
X33197Y150646D01*
X32853Y150729D01*
X32500Y150757D01*
X32412Y150750D01*
X29498D01*
Y151500D01*
X29500Y151500D01*
X29789Y151486D01*
X30075Y151444D01*
X30355Y151376D01*
X30628Y151280D01*
X30739Y151242D01*
X30856Y151225D01*
X30974Y151225D01*
X31091Y151245D01*
X31203Y151282D01*
X31307Y151336D01*
X31402Y151406D01*
X31485Y151491D01*
X31554Y151587D01*
X31607Y151692D01*
X31643Y151805D01*
X31660Y151921D01*
X31659Y152039D01*
X31640Y152156D01*
X31603Y152268D01*
X31548Y152373D01*
X31478Y152468D01*
X31394Y152551D01*
X31298Y152619D01*
X31192Y152670D01*
X30784Y152818D01*
X30363Y152922D01*
X29933Y152984D01*
X29500Y153005D01*
X29498Y153005D01*
Y153986D01*
G37*
G36*
X20501Y154755D02*X20653Y154848D01*
X21192Y155308D01*
X21652Y155847D01*
X21899Y156250D01*
X25601D01*
X25848Y155847D01*
X26308Y155308D01*
X26847Y154848D01*
X27451Y154478D01*
X28105Y154207D01*
X28794Y154042D01*
X29498Y153986D01*
Y153005D01*
X29067Y152984D01*
X28637Y152922D01*
X28216Y152818D01*
X27806Y152675D01*
X27700Y152622D01*
X27604Y152553D01*
X27519Y152470D01*
X27449Y152375D01*
X27394Y152269D01*
X27357Y152157D01*
X27337Y152040D01*
X27336Y151921D01*
X27354Y151804D01*
X27390Y151691D01*
X27443Y151585D01*
X27512Y151488D01*
X27595Y151404D01*
X27691Y151333D01*
X27796Y151279D01*
X27908Y151241D01*
X28025Y151222D01*
X28144Y151221D01*
X28261Y151239D01*
X28374Y151277D01*
X28645Y151376D01*
X28925Y151444D01*
X29211Y151486D01*
X29498Y151500D01*
Y150750D01*
X20501D01*
Y154755D01*
G37*
G36*
Y120733D02*X19094Y120731D01*
X18941Y120694D01*
X18796Y120634D01*
X18661Y120552D01*
X18542Y120449D01*
X18439Y120330D01*
X18357Y120195D01*
X18297Y120050D01*
X18270Y119938D01*
Y128212D01*
X18279Y128210D01*
X18358Y128207D01*
X18437Y128216D01*
X18513Y128237D01*
X18585Y128270D01*
X18650Y128314D01*
X18709Y128367D01*
X18758Y128429D01*
X18796Y128498D01*
X18824Y128572D01*
X18840Y128649D01*
X18843Y128728D01*
X18834Y128807D01*
X18811Y128882D01*
X18762Y129032D01*
X18728Y129186D01*
X18707Y129342D01*
X18700Y129500D01*
X18707Y129658D01*
X18728Y129814D01*
X18762Y129968D01*
X18810Y130118D01*
X18832Y130194D01*
X18841Y130272D01*
X18838Y130350D01*
X18822Y130427D01*
X18795Y130501D01*
X18756Y130570D01*
X18707Y130631D01*
X18649Y130685D01*
X18584Y130728D01*
X18512Y130761D01*
X18436Y130782D01*
X18358Y130791D01*
X18280Y130788D01*
X18270Y130786D01*
Y134007D01*
X20501Y134012D01*
Y132303D01*
X20500Y132303D01*
X20255Y132292D01*
X20011Y132260D01*
X19771Y132206D01*
X19537Y132132D01*
X19465Y132100D01*
X19400Y132056D01*
X19341Y132003D01*
X19292Y131941D01*
X19254Y131872D01*
X19226Y131798D01*
X19210Y131721D01*
X19207Y131642D01*
X19216Y131563D01*
X19237Y131487D01*
X19270Y131415D01*
X19314Y131350D01*
X19367Y131291D01*
X19429Y131242D01*
X19498Y131204D01*
X19572Y131176D01*
X19649Y131160D01*
X19728Y131157D01*
X19807Y131166D01*
X19882Y131189D01*
X20032Y131238D01*
X20186Y131272D01*
X20342Y131293D01*
X20500Y131300D01*
X20501Y131300D01*
Y127700D01*
X20500Y127700D01*
X20342Y127707D01*
X20186Y127728D01*
X20032Y127762D01*
X19882Y127810D01*
X19806Y127832D01*
X19728Y127841D01*
X19650Y127838D01*
X19573Y127822D01*
X19499Y127795D01*
X19430Y127756D01*
X19369Y127707D01*
X19315Y127649D01*
X19272Y127584D01*
X19239Y127512D01*
X19218Y127436D01*
X19209Y127358D01*
X19212Y127280D01*
X19228Y127202D01*
X19255Y127129D01*
X19294Y127060D01*
X19343Y126998D01*
X19401Y126945D01*
X19466Y126902D01*
X19538Y126870D01*
X19771Y126794D01*
X20011Y126740D01*
X20255Y126708D01*
X20500Y126697D01*
X20501Y126697D01*
Y120733D01*
G37*
G36*
X18270Y119938D02*X18260Y119897D01*
X18251Y119740D01*
X18254Y116936D01*
X13558Y112240D01*
X13559Y112260D01*
X13550Y119897D01*
X13513Y120050D01*
X13453Y120195D01*
X13371Y120330D01*
X13268Y120449D01*
X13149Y120552D01*
X13014Y120634D01*
X12869Y120694D01*
X12716Y120731D01*
X12559Y120740D01*
X11250Y120738D01*
Y123066D01*
X11372Y123037D01*
X12000Y122988D01*
X12628Y123037D01*
X13240Y123184D01*
X13822Y123425D01*
X14358Y123754D01*
X14837Y124163D01*
X15246Y124642D01*
X15575Y125178D01*
X15816Y125760D01*
X15963Y126372D01*
X16000Y127000D01*
X15963Y127628D01*
X15816Y128240D01*
X15575Y128822D01*
X15246Y129358D01*
X14837Y129837D01*
X14358Y130246D01*
X13822Y130575D01*
X13240Y130816D01*
X12628Y130963D01*
X12000Y131012D01*
X11372Y130963D01*
X10760Y130816D01*
X10178Y130575D01*
X9642Y130246D01*
X9163Y129837D01*
X8754Y129358D01*
X8425Y128822D01*
X8184Y128240D01*
X8037Y127628D01*
X7988Y127000D01*
X8037Y126372D01*
X8067Y126249D01*
X7471Y125653D01*
X7404Y125596D01*
X7174Y125327D01*
X6989Y125025D01*
X6854Y124697D01*
X6771Y124353D01*
X6771Y124353D01*
X6743Y124000D01*
X6750Y123912D01*
Y120465D01*
X6732Y120449D01*
X6629Y120330D01*
X6547Y120195D01*
X6487Y120050D01*
X6450Y119897D01*
X6441Y119740D01*
X6450Y112103D01*
X6487Y111950D01*
X6547Y111805D01*
X6629Y111670D01*
X6732Y111551D01*
X6851Y111448D01*
X6986Y111366D01*
X7131Y111306D01*
X7284Y111269D01*
X7441Y111260D01*
X12587Y111269D01*
X11471Y110153D01*
X11404Y110096D01*
X11322Y110000D01*
X7157D01*
X7000Y110012D01*
X6843Y110000D01*
X2500D01*
Y134381D01*
X2616Y134283D01*
X2817Y134159D01*
X3035Y134069D01*
X3265Y134014D01*
X3500Y134000D01*
X9735Y134014D01*
X9965Y134069D01*
X10183Y134159D01*
X10384Y134283D01*
X10564Y134436D01*
X10717Y134616D01*
X10841Y134817D01*
X10931Y135035D01*
X10986Y135265D01*
X11000Y135500D01*
X10998Y136250D01*
X13512D01*
X13514Y135265D01*
X13569Y135035D01*
X13659Y134817D01*
X13783Y134616D01*
X13936Y134436D01*
X14116Y134283D01*
X14317Y134159D01*
X14535Y134069D01*
X14765Y134014D01*
X15000Y134000D01*
X18270Y134007D01*
Y130786D01*
X18202Y130772D01*
X18129Y130745D01*
X18060Y130706D01*
X17998Y130657D01*
X17945Y130599D01*
X17902Y130534D01*
X17870Y130462D01*
X17794Y130229D01*
X17740Y129989D01*
X17708Y129745D01*
X17697Y129500D01*
X17708Y129255D01*
X17740Y129011D01*
X17794Y128771D01*
X17868Y128537D01*
X17900Y128465D01*
X17944Y128400D01*
X17997Y128341D01*
X18059Y128292D01*
X18128Y128254D01*
X18202Y128226D01*
X18270Y128212D01*
Y119938D01*
G37*
G36*
X18002Y146250D02*X20501D01*
Y142999D01*
X18002Y142993D01*
Y143995D01*
X18433Y144016D01*
X18863Y144078D01*
X19284Y144182D01*
X19694Y144325D01*
X19800Y144378D01*
X19896Y144447D01*
X19981Y144530D01*
X20051Y144625D01*
X20106Y144731D01*
X20143Y144843D01*
X20163Y144960D01*
X20164Y145079D01*
X20146Y145196D01*
X20110Y145309D01*
X20057Y145415D01*
X19988Y145512D01*
X19905Y145596D01*
X19809Y145667D01*
X19704Y145721D01*
X19592Y145759D01*
X19475Y145778D01*
X19356Y145779D01*
X19239Y145761D01*
X19126Y145723D01*
X18855Y145624D01*
X18575Y145556D01*
X18289Y145514D01*
X18002Y145500D01*
Y146250D01*
G37*
G36*
Y153986D02*X18706Y154042D01*
X19395Y154207D01*
X20049Y154478D01*
X20501Y154755D01*
Y150750D01*
X18002D01*
Y151500D01*
X18289Y151486D01*
X18575Y151444D01*
X18855Y151376D01*
X19128Y151280D01*
X19239Y151242D01*
X19356Y151225D01*
X19474Y151225D01*
X19591Y151245D01*
X19703Y151282D01*
X19807Y151336D01*
X19902Y151406D01*
X19985Y151491D01*
X20054Y151587D01*
X20107Y151692D01*
X20143Y151805D01*
X20160Y151921D01*
X20159Y152039D01*
X20140Y152156D01*
X20103Y152268D01*
X20048Y152373D01*
X19978Y152468D01*
X19894Y152551D01*
X19798Y152619D01*
X19692Y152670D01*
X19284Y152818D01*
X18863Y152922D01*
X18433Y152984D01*
X18002Y153005D01*
Y153986D01*
G37*
G36*
X6502Y146250D02*X18002D01*
Y145500D01*
X18000Y145500D01*
X17711Y145514D01*
X17425Y145556D01*
X17145Y145624D01*
X16872Y145720D01*
X16761Y145758D01*
X16644Y145775D01*
X16526Y145775D01*
X16409Y145755D01*
X16297Y145718D01*
X16193Y145664D01*
X16098Y145594D01*
X16015Y145509D01*
X15946Y145413D01*
X15893Y145308D01*
X15857Y145195D01*
X15840Y145079D01*
X15841Y144961D01*
X15860Y144844D01*
X15897Y144732D01*
X15952Y144627D01*
X16022Y144532D01*
X16106Y144449D01*
X16202Y144381D01*
X16308Y144330D01*
X16716Y144182D01*
X17137Y144078D01*
X17567Y144016D01*
X18000Y143995D01*
X18002Y143995D01*
Y142993D01*
X14765Y142986D01*
X14535Y142931D01*
X14317Y142841D01*
X14116Y142717D01*
X13936Y142564D01*
X13783Y142384D01*
X13659Y142183D01*
X13569Y141965D01*
X13514Y141735D01*
X13500Y141500D01*
X13502Y140750D01*
X10988D01*
X10986Y141735D01*
X10931Y141965D01*
X10841Y142183D01*
X10717Y142384D01*
X10564Y142564D01*
X10384Y142717D01*
X10183Y142841D01*
X9965Y142931D01*
X9735Y142986D01*
X9500Y143000D01*
X6502Y142993D01*
Y143995D01*
X6933Y144016D01*
X7363Y144078D01*
X7784Y144182D01*
X8194Y144325D01*
X8300Y144378D01*
X8396Y144447D01*
X8481Y144530D01*
X8551Y144625D01*
X8606Y144731D01*
X8643Y144843D01*
X8663Y144960D01*
X8664Y145079D01*
X8646Y145196D01*
X8610Y145309D01*
X8557Y145415D01*
X8488Y145512D01*
X8405Y145596D01*
X8309Y145667D01*
X8204Y145721D01*
X8092Y145759D01*
X7975Y145778D01*
X7856Y145779D01*
X7739Y145761D01*
X7626Y145723D01*
X7355Y145624D01*
X7075Y145556D01*
X6789Y145514D01*
X6502Y145500D01*
Y146250D01*
G37*
G36*
X10399Y156250D02*X14101D01*
X14348Y155847D01*
X14808Y155308D01*
X15347Y154848D01*
X15951Y154478D01*
X16605Y154207D01*
X17294Y154042D01*
X18000Y153986D01*
X18002Y153986D01*
Y153005D01*
X18000Y153005D01*
X17567Y152984D01*
X17137Y152922D01*
X16716Y152818D01*
X16306Y152675D01*
X16200Y152622D01*
X16104Y152553D01*
X16019Y152470D01*
X15949Y152375D01*
X15894Y152269D01*
X15857Y152157D01*
X15837Y152040D01*
X15836Y151921D01*
X15854Y151804D01*
X15890Y151691D01*
X15943Y151585D01*
X16012Y151488D01*
X16095Y151404D01*
X16191Y151333D01*
X16296Y151279D01*
X16408Y151241D01*
X16525Y151222D01*
X16644Y151221D01*
X16761Y151239D01*
X16874Y151277D01*
X17145Y151376D01*
X17425Y151444D01*
X17711Y151486D01*
X18000Y151500D01*
X18002Y151500D01*
Y150750D01*
X6502D01*
Y151500D01*
X6789Y151486D01*
X7075Y151444D01*
X7355Y151376D01*
X7628Y151280D01*
X7739Y151242D01*
X7856Y151225D01*
X7974Y151225D01*
X8091Y151245D01*
X8203Y151282D01*
X8307Y151336D01*
X8402Y151406D01*
X8485Y151491D01*
X8554Y151587D01*
X8607Y151692D01*
X8643Y151805D01*
X8660Y151921D01*
X8659Y152039D01*
X8640Y152156D01*
X8603Y152268D01*
X8548Y152373D01*
X8478Y152468D01*
X8394Y152551D01*
X8298Y152619D01*
X8192Y152670D01*
X7784Y152818D01*
X7363Y152922D01*
X6933Y152984D01*
X6502Y153005D01*
Y153986D01*
X7206Y154042D01*
X7895Y154207D01*
X8549Y154478D01*
X9153Y154848D01*
X9692Y155308D01*
X10152Y155847D01*
X10399Y156250D01*
G37*
G36*
X6502Y150750D02*X6500D01*
X6147Y150729D01*
X5803Y150646D01*
X5475Y150511D01*
X5173Y150326D01*
X4904Y150096D01*
X4674Y149827D01*
X4489Y149525D01*
X4354Y149197D01*
X4271Y148853D01*
X4243Y148500D01*
X4271Y148147D01*
X4354Y147803D01*
X4489Y147475D01*
X4674Y147173D01*
X4904Y146904D01*
X5173Y146674D01*
X5475Y146489D01*
X5803Y146354D01*
X6147Y146271D01*
X6500Y146250D01*
X6502D01*
Y145500D01*
X6500Y145500D01*
X6211Y145514D01*
X5925Y145556D01*
X5645Y145624D01*
X5372Y145720D01*
X5261Y145758D01*
X5144Y145775D01*
X5026Y145775D01*
X4909Y145755D01*
X4797Y145718D01*
X4693Y145664D01*
X4598Y145594D01*
X4515Y145509D01*
X4446Y145413D01*
X4393Y145308D01*
X4357Y145195D01*
X4340Y145079D01*
X4341Y144961D01*
X4360Y144844D01*
X4397Y144732D01*
X4452Y144627D01*
X4522Y144532D01*
X4606Y144449D01*
X4702Y144381D01*
X4808Y144330D01*
X5216Y144182D01*
X5637Y144078D01*
X6067Y144016D01*
X6500Y143995D01*
X6502Y143995D01*
Y142993D01*
X3265Y142986D01*
X3035Y142931D01*
X2817Y142841D01*
X2616Y142717D01*
X2500Y142619D01*
Y146550D01*
X2530Y146519D01*
X2625Y146449D01*
X2731Y146394D01*
X2843Y146357D01*
X2960Y146337D01*
X3079Y146336D01*
X3196Y146354D01*
X3309Y146390D01*
X3415Y146443D01*
X3512Y146512D01*
X3596Y146595D01*
X3667Y146691D01*
X3721Y146796D01*
X3759Y146908D01*
X3778Y147025D01*
X3779Y147144D01*
X3761Y147261D01*
X3723Y147374D01*
X3624Y147645D01*
X3556Y147925D01*
X3514Y148211D01*
X3500Y148500D01*
X3514Y148789D01*
X3556Y149075D01*
X3624Y149355D01*
X3720Y149628D01*
X3758Y149739D01*
X3775Y149856D01*
X3775Y149974D01*
X3755Y150091D01*
X3718Y150203D01*
X3664Y150307D01*
X3594Y150402D01*
X3509Y150485D01*
X3413Y150554D01*
X3308Y150607D01*
X3195Y150643D01*
X3079Y150660D01*
X2961Y150659D01*
X2844Y150640D01*
X2732Y150603D01*
X2627Y150548D01*
X2532Y150478D01*
X2500Y150445D01*
Y156415D01*
X2848Y155847D01*
X3308Y155308D01*
X3847Y154848D01*
X4451Y154478D01*
X5105Y154207D01*
X5794Y154042D01*
X6500Y153986D01*
X6502Y153986D01*
Y153005D01*
X6500Y153005D01*
X6067Y152984D01*
X5637Y152922D01*
X5216Y152818D01*
X4806Y152675D01*
X4700Y152622D01*
X4604Y152553D01*
X4519Y152470D01*
X4449Y152375D01*
X4394Y152269D01*
X4357Y152157D01*
X4337Y152040D01*
X4336Y151921D01*
X4354Y151804D01*
X4390Y151691D01*
X4443Y151585D01*
X4512Y151488D01*
X4595Y151404D01*
X4691Y151333D01*
X4796Y151279D01*
X4908Y151241D01*
X5025Y151222D01*
X5144Y151221D01*
X5261Y151239D01*
X5374Y151277D01*
X5645Y151376D01*
X5925Y151444D01*
X6211Y151486D01*
X6500Y151500D01*
X6502Y151500D01*
Y150750D01*
G37*
G36*
X18979Y111297D02*X19094Y111269D01*
X19251Y111260D01*
X24526Y111269D01*
X24679Y111306D01*
X24824Y111366D01*
X24959Y111448D01*
X25078Y111551D01*
X25181Y111670D01*
X25263Y111805D01*
X25323Y111950D01*
X25360Y112103D01*
X25369Y112260D01*
X25369Y112449D01*
X27818Y110000D01*
X17682D01*
X18979Y111297D01*
G37*
G36*
X25601Y160750D02*X21899D01*
X21652Y161153D01*
X21192Y161692D01*
X20653Y162152D01*
X20085Y162500D01*
X27415D01*
X26847Y162152D01*
X26308Y161692D01*
X25848Y161153D01*
X25601Y160750D01*
G37*
G36*
X14101D02*X10399D01*
X10152Y161153D01*
X9692Y161692D01*
X9153Y162152D01*
X8585Y162500D01*
X15915D01*
X15347Y162152D01*
X14808Y161692D01*
X14348Y161153D01*
X14101Y160750D01*
G37*
G36*
X2500Y160585D02*Y162500D01*
X4415D01*
X3847Y162152D01*
X3308Y161692D01*
X2848Y161153D01*
X2500Y160585D01*
G37*
G54D12*X25000Y116000D02*X33500Y107500D01*
X12000Y127000D02*X9000Y124000D01*
X6500Y138500D02*X29500D01*
X6500Y148500D02*X32500D01*
G54D13*X29500Y138500D02*Y120500D01*
G54D12*X33500Y107500D02*X90500D01*
X92500Y109500D01*
X120846D02*X115500D01*
X76500Y148500D01*
X38000Y137882D02*X58382D01*
X32500Y148500D02*X38000Y143000D01*
X44000D01*
X57500Y156500D02*X44000Y143000D01*
X58382Y137882D02*X69000Y148500D01*
X57500Y158500D02*Y156500D01*
X69000Y158500D02*X57500D01*
X69000Y148500D02*X76500D01*
X6500Y158500D02*X29500D01*
X20500Y116000D02*X13000Y108500D01*
Y98000D01*
X26000Y85000D01*
X20500Y116000D02*X25000D01*
X9000Y124000D02*Y117000D01*
X10000Y116000D01*
X7000Y106000D02*Y33500D01*
X4000Y30500D01*
Y12000D01*
X8000Y8000D01*
X7500Y8500D02*X9500Y6500D01*
X32346D01*
X18500Y21000D02*X22500D01*
X43000Y41500D01*
G54D13*X69500Y34000D02*Y46500D01*
X58000Y58000D02*X69500Y46500D01*
Y22190D02*X72690D01*
X75000Y24500D01*
Y54500D01*
G54D12*X46846Y21000D02*Y58846D01*
X68000Y66000D02*X63000D01*
X58000Y71000D01*
G54D13*X68000Y56000D02*X73500Y61500D01*
X75000Y54500D02*X92500Y72000D01*
X116000D01*
X128000Y69500D02*X121000Y62500D01*
X128000Y57000D02*X121000D01*
X128000Y79500D02*X130000D01*
X133000Y76500D02*Y62000D01*
X128000Y57000D01*
X121000Y62500D02*X103000D01*
X82500Y42000D01*
X121000Y57000D02*X106000Y42000D01*
X94000D01*
X86000Y34000D01*
X80000D01*
X126500Y38000D02*Y45500D01*
X128000Y47000D01*
X132000Y32882D02*X122618D01*
X122500Y33000D01*
X132000Y38000D02*X126500D01*
X130000Y79500D02*X133000Y76500D01*
G54D12*X43000Y41500D02*Y66000D01*
G54D13*X58000Y61000D02*Y58000D01*
G54D12*X46846Y58654D02*Y59846D01*
X32346Y6500D02*X46846Y21000D01*
X43000Y66000D02*X58000Y81000D01*
X26000Y85000D02*X54000D01*
X46846Y59846D02*X58000Y71000D01*
X54000Y85000D02*X58000Y81000D01*
G54D13*X46500Y103000D02*X56500D01*
X63500Y96000D01*
Y80500D01*
X63000Y103000D02*X63500D01*
Y80500D02*X68000Y76000D01*
X73500Y61500D02*Y93000D01*
X63500Y103000D02*X73500Y93000D01*
G54D11*G36*
X125000Y82500D02*Y76500D01*
X131000D01*
Y82500D01*
X125000D01*
G37*
G54D14*X128000Y69500D03*
G54D11*G36*
X125000Y60000D02*Y54000D01*
X131000D01*
Y60000D01*
X125000D01*
G37*
G54D14*X128000Y47000D03*
G54D11*G36*
X112400Y75600D02*Y68400D01*
X119600D01*
Y75600D01*
X112400D01*
G37*
G54D15*X120846Y109500D03*
X92500D03*
G54D11*G36*
X88900Y75600D02*Y68400D01*
X96100D01*
Y75600D01*
X88900D01*
G37*
G54D16*X68000Y86000D03*
X58000Y91000D03*
Y81000D03*
G54D17*X33000Y96000D03*
G54D18*X20992Y104543D03*
G54D16*X68000Y76000D03*
X58000Y71000D03*
Y61000D03*
X68000Y66000D03*
Y56000D03*
G54D17*X33000Y51000D03*
G54D15*X18500Y21000D03*
X46846D03*
G54D19*X92500Y22000D03*
X116000D03*
X82500Y42000D03*
X106000D03*
G54D18*X20992Y42535D03*
G54D11*G36*
X26500Y141500D02*Y135500D01*
X32500D01*
Y141500D01*
X26500D01*
G37*
G54D14*X29500Y148500D03*
Y158500D03*
G54D11*G36*
X15000Y141500D02*Y135500D01*
X21000D01*
Y141500D01*
X15000D01*
G37*
G54D14*X18000Y148500D03*
Y158500D03*
G54D11*G36*
X3500Y141500D02*Y135500D01*
X9500D01*
Y141500D01*
X3500D01*
G37*
G54D14*X6500Y148500D03*
Y158500D03*
G54D11*G36*
X66000Y161500D02*Y155500D01*
X72000D01*
Y161500D01*
X66000D01*
G37*
G54D14*X69000Y148500D03*
G54D20*X68319Y34000D02*X70681D01*
X68319Y22190D02*X70681D01*
G54D21*X131508Y38000D02*X132492D01*
X131508Y32882D02*X132492D01*
X126008Y38000D02*X126992D01*
X126008Y32882D02*X126992D01*
G54D20*X21810Y117181D02*Y114819D01*
X10000Y117181D02*Y114819D01*
G54D22*X42700Y124000D02*Y120000D01*
X64500Y124000D02*Y120000D01*
G54D21*X37508Y137882D02*X38492D01*
X37508Y143000D02*X38492D01*
G54D23*X46500Y103000D03*
X42000Y155000D03*
X63000Y103000D03*
X69000Y138000D03*
X42700Y122000D03*
G54D14*X12000Y127000D03*
X7000Y106000D03*
G54D23*X29500Y120500D03*
X20500Y129500D03*
X64500Y122000D03*
X130000Y130000D03*
X122500Y33000D03*
X80000Y34000D03*
X56500Y46000D03*
X88500Y57500D03*
X108500Y55000D03*
X82000Y71000D03*
X114500Y80500D03*
X107000Y96500D03*
G54D24*G54D25*G54D24*G54D26*G54D27*G54D28*G54D27*G54D29*G54D30*G54D31*G54D29*G54D30*G54D28*G54D27*G54D31*G54D26*M02*
