M48
INCH
T78C0.020
T77C0.035
T76C0.050
T75C0.187
T74C0.130
T73C0.060
T72C0.030
T71C0.059
T70C0.038
T69C0.063
T68C0.128
T67C0.035
%
T78
X000500Y009200
X002300Y009100
X002600Y010500
X004700Y012050
X005850Y010850
X006550Y007550
X007850Y010100
X007950Y006350
X009800Y014700
X010900Y008450
X012750Y012000
X014950Y009750
X016950Y011050
X017700Y009000
X018350Y004350
X018950Y013500
X019050Y009903
X021450Y014450
X024700Y010350
X025550Y002900
X025650Y005250
X026050Y012350
X028000Y009100
X028400Y007500
X029150Y010500
X031250Y009500
T72
X008700Y013450
X010700Y013450
X024750Y008850
X026750Y008850
X030150Y004150
X031150Y007150
X031150Y002150
T77
X008850Y008100
X011850Y005900
X013450Y008100
X016200Y009150
X018400Y006750
X019000Y008100
X019950Y008200
X022500Y007900
X026650Y014550
T67
X002050Y006450
X002550Y007450
X003050Y006450
X003550Y007450
X004050Y006450
X004550Y007450
X005050Y006450
X005550Y007450
X009250Y006450
X009750Y007450
X010250Y006450
X010750Y007450
X011250Y006450
X011750Y007450
X012250Y006450
X012750Y007450
X024104Y006451
X024604Y007451
X025104Y006451
X025604Y007451
X026104Y006451
X026604Y007451
X027104Y006451
X027604Y007451
T70
X000800Y009950
X001800Y009950
T76
X014800Y013950
X014800Y010950
T71
X005350Y009950
X011350Y009950
T73
X029000Y014600
X030000Y014600
X031000Y014600
T69
X000696Y002749
X006896Y002749
X007896Y002749
X014096Y002749
X022750Y002750
X028951Y002750
T68
X001550Y003950
X006050Y003950
X008750Y003950
X013250Y003950
X023604Y003951
X028104Y003951
T74
X030000Y021300
T75
X016250Y005335
X016250Y002500
X020550Y005335
X020550Y002500
M30
