G04 start of page 8 for group -4079 idx -4079 *
G04 Title: (unknown), topsilk *
G04 Creator: pcb 1.99z *
G04 CreationDate: Thu Dec 10 00:32:42 2015 UTC *
G04 For: commonadmin *
G04 Format: Gerber/RS-274X *
G04 PCB-Dimensions (mil): 3220.00 2260.00 *
G04 PCB-Coordinate-Origin: lower left *
%MOIN*%
%FSLAX25Y25*%
%LNTOPSILK*%
%ADD111C,0.0040*%
%ADD110C,0.0080*%
%ADD109C,0.0079*%
%ADD108C,0.0250*%
%ADD107C,0.0300*%
%ADD106C,0.0200*%
%ADD105C,0.0030*%
%ADD104C,0.0100*%
%ADD103C,0.0060*%
G54D103*X19798Y63674D02*X21373Y65249D01*
X19798D02*X21373Y63674D01*
G54D104*X15586Y80406D02*X60586D01*
X2830D02*X16609D01*
X73302Y51430D02*Y80406D01*
X58381D01*
X73302Y51469D02*Y7965D01*
X2830Y51430D02*Y80406D01*
Y51469D02*Y7965D01*
X73302D01*
X293846Y51438D02*Y80414D01*
X278924D01*
X293846Y51477D02*Y7973D01*
G54D103*X240342Y63682D02*X241917Y65257D01*
X240342D02*X241917Y63682D01*
G54D104*X236129Y80414D02*X281129D01*
X223373D02*X237153D01*
X223373Y51438D02*Y80414D01*
Y51477D02*Y7973D01*
X293846D01*
G54D103*X91798Y63674D02*X93373Y65249D01*
X91798D02*X93373Y63674D01*
G54D104*X87586Y80406D02*X132586D01*
X74830D02*X88609D01*
X145302Y51430D02*Y80406D01*
X130381D01*
X145302Y51469D02*Y7965D01*
X74830Y51430D02*Y80406D01*
Y51469D02*Y7965D01*
X145302D01*
G54D105*X21441Y59934D02*X22041Y59334D01*
X19041D02*X22041D01*
X19041Y59934D02*Y58809D01*
X19416Y57909D02*X21666Y55659D01*
X20541Y54759D02*X22041D01*
X20541D02*X19041Y54384D01*
X20541Y53634D01*
X19041Y52884D01*
X20541Y52509D01*
X22041D01*
Y50109D02*X21666Y49734D01*
X22041Y51234D02*Y50109D01*
X21666Y51609D02*X22041Y51234D01*
X19416Y51609D02*X21666D01*
X19416D02*X19041Y51234D01*
Y50109D01*
X19416Y49734D01*
X20166D01*
X20541Y50109D02*X20166Y49734D01*
X20541Y50859D02*Y50109D01*
X31902Y60328D02*X32277Y59953D01*
Y59203D01*
X31902Y58828D01*
X29277Y59203D02*X29652Y58828D01*
X29277Y59953D02*Y59203D01*
X29652Y60328D02*X29277Y59953D01*
X30927D02*Y59203D01*
X31302Y58828D02*X31902D01*
X29652D02*X30552D01*
X30927Y59203D01*
X31302Y58828D02*X30927Y59203D01*
X29652Y57928D02*X31902Y55678D01*
X30777Y54778D02*X32277D01*
X30777D02*X29277Y54403D01*
X30777Y53653D01*
X29277Y52903D01*
X30777Y52528D01*
X32277D01*
X29652Y51628D02*X31902D01*
X32277Y51253D01*
Y50503D01*
X31902Y50128D01*
X29652D02*X31902D01*
X29277Y50503D02*X29652Y50128D01*
X29277Y51253D02*Y50503D01*
X29652Y51628D02*X29277Y51253D01*
X42513Y60328D02*Y58828D01*
X41013Y60328D02*X42513D01*
X41013D02*X41388Y59953D01*
Y59203D01*
X41013Y58828D01*
X39888D02*X41013D01*
X39513Y59203D02*X39888Y58828D01*
X39513Y59953D02*Y59203D01*
X39888Y60328D02*X39513Y59953D01*
X39888Y57928D02*X42138Y55678D01*
X41013Y54778D02*X42513D01*
X41013D02*X39513Y54403D01*
X41013Y53653D01*
X39513Y52903D01*
X41013Y52528D01*
X42513D01*
X39513Y51628D02*Y50128D01*
X39888Y49753D01*
X40788D01*
X41163Y50128D02*X40788Y49753D01*
X41163Y51253D02*Y50128D01*
X39513Y51253D02*X42513D01*
Y51628D02*Y50128D01*
X42138Y49753D01*
X41538D02*X42138D01*
X41163Y50128D02*X41538Y49753D01*
X39888Y48853D02*X42513D01*
X39888D02*X39513Y48478D01*
X48962Y59953D02*X51962Y58453D01*
Y60328D02*Y58453D01*
X49337Y57553D02*X51587Y55303D01*
X50462Y54403D02*X51962D01*
X50462D02*X48962Y54028D01*
X50462Y53278D01*
X48962Y52528D01*
X50462Y52153D01*
X51962D01*
X48962Y51253D02*Y49753D01*
X49337Y49378D01*
X50237D01*
X50612Y49753D02*X50237Y49378D01*
X50612Y50878D02*Y49753D01*
X48962Y50878D02*X51962D01*
Y51253D02*Y49753D01*
X51587Y49378D01*
X50987D02*X51587D01*
X50612Y49753D02*X50987Y49378D01*
X48962Y48103D02*X50087D01*
X50462Y47728D01*
Y46978D01*
Y48478D02*X50087Y48103D01*
X93441Y59934D02*X94041Y59334D01*
X91041D02*X94041D01*
X91041Y59934D02*Y58809D01*
X91416Y57909D02*X93666Y55659D01*
X92541Y54759D02*X94041D01*
X92541D02*X91041Y54384D01*
X92541Y53634D01*
X91041Y52884D01*
X92541Y52509D01*
X94041D01*
Y50109D02*X93666Y49734D01*
X94041Y51234D02*Y50109D01*
X93666Y51609D02*X94041Y51234D01*
X91416Y51609D02*X93666D01*
X91416D02*X91041Y51234D01*
Y50109D01*
X91416Y49734D01*
X92166D01*
X92541Y50109D02*X92166Y49734D01*
X92541Y50859D02*Y50109D01*
X103902Y60328D02*X104277Y59953D01*
Y59203D01*
X103902Y58828D01*
X101277Y59203D02*X101652Y58828D01*
X101277Y59953D02*Y59203D01*
X101652Y60328D02*X101277Y59953D01*
X102927D02*Y59203D01*
X103302Y58828D02*X103902D01*
X101652D02*X102552D01*
X102927Y59203D01*
X103302Y58828D02*X102927Y59203D01*
X101652Y57928D02*X103902Y55678D01*
X102777Y54778D02*X104277D01*
X102777D02*X101277Y54403D01*
X102777Y53653D01*
X101277Y52903D01*
X102777Y52528D01*
X104277D01*
X101652Y51628D02*X103902D01*
X104277Y51253D01*
Y50503D01*
X103902Y50128D01*
X101652D02*X103902D01*
X101277Y50503D02*X101652Y50128D01*
X101277Y51253D02*Y50503D01*
X101652Y51628D02*X101277Y51253D01*
X26784Y70564D02*X27159Y70189D01*
Y69064D01*
X26784Y68689D01*
X26034D02*X26784D01*
X24159Y70564D02*X26034Y68689D01*
X24159Y70564D02*Y68689D01*
X24534Y67789D02*X26784Y65539D01*
X27159Y63139D02*X26784Y62764D01*
X27159Y64264D02*Y63139D01*
X26784Y64639D02*X27159Y64264D01*
X24534Y64639D02*X26784D01*
X24534D02*X24159Y64264D01*
Y63139D01*
X24534Y62764D01*
X25284D01*
X25659Y63139D02*X25284Y62764D01*
X25659Y63889D02*Y63139D01*
X35126Y70564D02*X37001Y69064D01*
X35126Y70564D02*Y68689D01*
X34001Y69064D02*X37001D01*
X34376Y67789D02*X36626Y65539D01*
X34001Y64639D02*Y63139D01*
X34376Y62764D01*
X35276D01*
X35651Y63139D02*X35276Y62764D01*
X35651Y64264D02*Y63139D01*
X34001Y64264D02*X37001D01*
Y64639D02*Y63139D01*
X36626Y62764D01*
X36026D02*X36626D01*
X35651Y63139D02*X36026Y62764D01*
X34376Y61864D02*X37001D01*
X34376D02*X34001Y61489D01*
X46844Y69045D02*X46469Y68670D01*
X46844Y69795D02*Y69045D01*
X46469Y70170D02*X46844Y69795D01*
X44219Y70170D02*X46469D01*
X44219D02*X43844Y69795D01*
X45494Y69045D02*X45119Y68670D01*
X45494Y70170D02*Y69045D01*
X43844Y69795D02*Y69045D01*
X44219Y68670D01*
X45119D01*
X44219Y67770D02*X46469Y65520D01*
X44219Y64620D02*X46469D01*
X46844Y64245D01*
Y63495D01*
X46469Y63120D01*
X44219D02*X46469D01*
X43844Y63495D02*X44219Y63120D01*
X43844Y64245D02*Y63495D01*
X44219Y64620D02*X43844Y64245D01*
X54455Y70170D02*X54080Y69795D01*
X54455Y70170D02*X55055D01*
X55580Y69645D01*
Y69195D01*
X55055Y68670D01*
X54455D02*X55055D01*
X54080Y69045D02*X54455Y68670D01*
X54080Y69795D02*Y69045D01*
X56105Y70170D02*X55580Y69645D01*
X56105Y70170D02*X56705D01*
X57080Y69795D01*
Y69045D01*
X56705Y68670D01*
X56105D02*X56705D01*
X55580Y69195D02*X56105Y68670D01*
X54455Y67770D02*X56705Y65520D01*
X54080Y64620D02*Y63120D01*
X54455Y62745D01*
X55355D01*
X55730Y63120D02*X55355Y62745D01*
X55730Y64245D02*Y63120D01*
X54080Y64245D02*X57080D01*
Y64620D02*Y63120D01*
X56705Y62745D01*
X56105D02*X56705D01*
X55730Y63120D02*X56105Y62745D01*
X54080Y61470D02*X55205D01*
X55580Y61095D01*
Y60345D01*
Y61845D02*X55205Y61470D01*
X6649Y72570D02*X8149D01*
X7399D02*Y69570D01*
X9049Y72570D02*X10549D01*
X9049D02*Y71070D01*
X9424Y71445D01*
X10174D01*
X10549Y71070D01*
Y69945D01*
X10174Y69570D02*X10549Y69945D01*
X9424Y69570D02*X10174D01*
X9049Y69945D02*X9424Y69570D01*
X12574Y72570D02*X12949Y72195D01*
X11824Y72570D02*X12574D01*
X11449Y72195D02*X11824Y72570D01*
X11449Y72195D02*Y69945D01*
X11824Y69570D01*
X12574Y71220D02*X12949Y70845D01*
X11449Y71220D02*X12574D01*
X11824Y69570D02*X12574D01*
X12949Y69945D01*
Y70845D02*Y69945D01*
X13849D02*X14224Y69570D01*
X13849Y70545D02*Y69945D01*
Y70545D02*X14374Y71070D01*
X14824D01*
X15349Y70545D01*
Y69945D01*
X14974Y69570D02*X15349Y69945D01*
X14224Y69570D02*X14974D01*
X13849Y71595D02*X14374Y71070D01*
X13849Y72195D02*Y71595D01*
Y72195D02*X14224Y72570D01*
X14974D01*
X15349Y72195D01*
Y71595D01*
X14824Y71070D02*X15349Y71595D01*
X16249Y71820D02*Y69570D01*
Y71820D02*X16774Y72570D01*
X17599D01*
X18124Y71820D01*
Y69570D01*
X16249Y71070D02*X18124D01*
X98784Y70564D02*X99159Y70189D01*
Y69064D01*
X98784Y68689D01*
X98034D02*X98784D01*
X96159Y70564D02*X98034Y68689D01*
X96159Y70564D02*Y68689D01*
X96534Y67789D02*X98784Y65539D01*
X99159Y63139D02*X98784Y62764D01*
X99159Y64264D02*Y63139D01*
X98784Y64639D02*X99159Y64264D01*
X96534Y64639D02*X98784D01*
X96534D02*X96159Y64264D01*
Y63139D01*
X96534Y62764D01*
X97284D01*
X97659Y63139D02*X97284Y62764D01*
X97659Y63889D02*Y63139D01*
X107126Y70564D02*X109001Y69064D01*
X107126Y70564D02*Y68689D01*
X106001Y69064D02*X109001D01*
X106376Y67789D02*X108626Y65539D01*
X106001Y64639D02*Y63139D01*
X106376Y62764D01*
X107276D01*
X107651Y63139D02*X107276Y62764D01*
X107651Y64264D02*Y63139D01*
X106001Y64264D02*X109001D01*
Y64639D02*Y63139D01*
X108626Y62764D01*
X108026D02*X108626D01*
X107651Y63139D02*X108026Y62764D01*
X106376Y61864D02*X109001D01*
X106376D02*X106001Y61489D01*
X78649Y72570D02*X80149D01*
X79399D02*Y69570D01*
X81049Y72570D02*X82549D01*
X81049D02*Y71070D01*
X81424Y71445D01*
X82174D01*
X82549Y71070D01*
Y69945D01*
X82174Y69570D02*X82549Y69945D01*
X81424Y69570D02*X82174D01*
X81049Y69945D02*X81424Y69570D01*
X84574Y72570D02*X84949Y72195D01*
X83824Y72570D02*X84574D01*
X83449Y72195D02*X83824Y72570D01*
X83449Y72195D02*Y69945D01*
X83824Y69570D01*
X84574Y71220D02*X84949Y70845D01*
X83449Y71220D02*X84574D01*
X83824Y69570D02*X84574D01*
X84949Y69945D01*
Y70845D02*Y69945D01*
X85849D02*X86224Y69570D01*
X85849Y70545D02*Y69945D01*
Y70545D02*X86374Y71070D01*
X86824D01*
X87349Y70545D01*
Y69945D01*
X86974Y69570D02*X87349Y69945D01*
X86224Y69570D02*X86974D01*
X85849Y71595D02*X86374Y71070D01*
X85849Y72195D02*Y71595D01*
Y72195D02*X86224Y72570D01*
X86974D01*
X87349Y72195D01*
Y71595D01*
X86824Y71070D02*X87349Y71595D01*
X88249Y71820D02*Y69570D01*
Y71820D02*X88774Y72570D01*
X89599D01*
X90124Y71820D01*
Y69570D01*
X88249Y71070D02*X90124D01*
X114513Y60328D02*Y58828D01*
X113013Y60328D02*X114513D01*
X113013D02*X113388Y59953D01*
Y59203D01*
X113013Y58828D01*
X111888D02*X113013D01*
X111513Y59203D02*X111888Y58828D01*
X111513Y59953D02*Y59203D01*
X111888Y60328D02*X111513Y59953D01*
X111888Y57928D02*X114138Y55678D01*
X113013Y54778D02*X114513D01*
X113013D02*X111513Y54403D01*
X113013Y53653D01*
X111513Y52903D01*
X113013Y52528D01*
X114513D01*
X111513Y51628D02*Y50128D01*
X111888Y49753D01*
X112788D01*
X113163Y50128D02*X112788Y49753D01*
X113163Y51253D02*Y50128D01*
X111513Y51253D02*X114513D01*
Y51628D02*Y50128D01*
X114138Y49753D01*
X113538D02*X114138D01*
X113163Y50128D02*X113538Y49753D01*
X111888Y48853D02*X114513D01*
X111888D02*X111513Y48478D01*
X120962Y59953D02*X123962Y58453D01*
Y60328D02*Y58453D01*
X121337Y57553D02*X123587Y55303D01*
X122462Y54403D02*X123962D01*
X122462D02*X120962Y54028D01*
X122462Y53278D01*
X120962Y52528D01*
X122462Y52153D01*
X123962D01*
X120962Y51253D02*Y49753D01*
X121337Y49378D01*
X122237D01*
X122612Y49753D02*X122237Y49378D01*
X122612Y50878D02*Y49753D01*
X120962Y50878D02*X123962D01*
Y51253D02*Y49753D01*
X123587Y49378D01*
X122987D02*X123587D01*
X122612Y49753D02*X122987Y49378D01*
X120962Y48103D02*X122087D01*
X122462Y47728D01*
Y46978D01*
Y48478D02*X122087Y48103D01*
X118844Y69045D02*X118469Y68670D01*
X118844Y69795D02*Y69045D01*
X118469Y70170D02*X118844Y69795D01*
X116219Y70170D02*X118469D01*
X116219D02*X115844Y69795D01*
X117494Y69045D02*X117119Y68670D01*
X117494Y70170D02*Y69045D01*
X115844Y69795D02*Y69045D01*
X116219Y68670D01*
X117119D01*
X116219Y67770D02*X118469Y65520D01*
X116219Y64620D02*X118469D01*
X118844Y64245D01*
Y63495D01*
X118469Y63120D01*
X116219D02*X118469D01*
X115844Y63495D02*X116219Y63120D01*
X115844Y64245D02*Y63495D01*
X116219Y64620D02*X115844Y64245D01*
X126455Y70170D02*X126080Y69795D01*
X126455Y70170D02*X127055D01*
X127580Y69645D01*
Y69195D01*
X127055Y68670D01*
X126455D02*X127055D01*
X126080Y69045D02*X126455Y68670D01*
X126080Y69795D02*Y69045D01*
X128105Y70170D02*X127580Y69645D01*
X128105Y70170D02*X128705D01*
X129080Y69795D01*
Y69045D01*
X128705Y68670D01*
X128105D02*X128705D01*
X127580Y69195D02*X128105Y68670D01*
X126455Y67770D02*X128705Y65520D01*
X126080Y64620D02*Y63120D01*
X126455Y62745D01*
X127355D01*
X127730Y63120D02*X127355Y62745D01*
X127730Y64245D02*Y63120D01*
X126080Y64245D02*X129080D01*
Y64620D02*Y63120D01*
X128705Y62745D01*
X128105D02*X128705D01*
X127730Y63120D02*X128105Y62745D01*
X126080Y61470D02*X127205D01*
X127580Y61095D01*
Y60345D01*
Y61845D02*X127205Y61470D01*
X255669Y70572D02*X257544Y69072D01*
X255669Y70572D02*Y68697D01*
X254544Y69072D02*X257544D01*
X254919Y67797D02*X257169Y65547D01*
X254544Y64647D02*Y63147D01*
X254919Y62772D01*
X255819D01*
X256194Y63147D02*X255819Y62772D01*
X256194Y64272D02*Y63147D01*
X254544Y64272D02*X257544D01*
Y64647D02*Y63147D01*
X257169Y62772D01*
X256569D02*X257169D01*
X256194Y63147D02*X256569Y62772D01*
X254919Y61872D02*X257544D01*
X254919D02*X254544Y61497D01*
X263056Y60335D02*Y58835D01*
X261556Y60335D02*X263056D01*
X261556D02*X261931Y59960D01*
Y59210D01*
X261556Y58835D01*
X260431D02*X261556D01*
X260056Y59210D02*X260431Y58835D01*
X260056Y59960D02*Y59210D01*
X260431Y60335D02*X260056Y59960D01*
X260431Y57935D02*X262681Y55685D01*
X261556Y54785D02*X263056D01*
X261556D02*X260056Y54410D01*
X261556Y53660D01*
X260056Y52910D01*
X261556Y52535D01*
X263056D01*
X260056Y51635D02*Y50135D01*
X260431Y49760D01*
X261331D01*
X261706Y50135D02*X261331Y49760D01*
X261706Y51260D02*Y50135D01*
X260056Y51260D02*X263056D01*
Y51635D02*Y50135D01*
X262681Y49760D01*
X262081D02*X262681D01*
X261706Y50135D02*X262081Y49760D01*
X260431Y48860D02*X263056D01*
X260431D02*X260056Y48485D01*
X267387Y69053D02*X267012Y68678D01*
X267387Y69803D02*Y69053D01*
X267012Y70178D02*X267387Y69803D01*
X264762Y70178D02*X267012D01*
X264762D02*X264387Y69803D01*
X266037Y69053D02*X265662Y68678D01*
X266037Y70178D02*Y69053D01*
X264387Y69803D02*Y69053D01*
X264762Y68678D01*
X265662D01*
X264762Y67778D02*X267012Y65528D01*
X264762Y64628D02*X267012D01*
X267387Y64253D01*
Y63503D01*
X267012Y63128D01*
X264762D02*X267012D01*
X264387Y63503D02*X264762Y63128D01*
X264387Y64253D02*Y63503D01*
X264762Y64628D02*X264387Y64253D01*
X274998Y70178D02*X274623Y69803D01*
X274998Y70178D02*X275598D01*
X276123Y69653D01*
Y69203D01*
X275598Y68678D01*
X274998D02*X275598D01*
X274623Y69053D02*X274998Y68678D01*
X274623Y69803D02*Y69053D01*
X276648Y70178D02*X276123Y69653D01*
X276648Y70178D02*X277248D01*
X277623Y69803D01*
Y69053D01*
X277248Y68678D01*
X276648D02*X277248D01*
X276123Y69203D02*X276648Y68678D01*
X274998Y67778D02*X277248Y65528D01*
X274623Y64628D02*Y63128D01*
X274998Y62753D01*
X275898D01*
X276273Y63128D02*X275898Y62753D01*
X276273Y64253D02*Y63128D01*
X274623Y64253D02*X277623D01*
Y64628D02*Y63128D01*
X277248Y62753D01*
X276648D02*X277248D01*
X276273Y63128D02*X276648Y62753D01*
X274623Y61478D02*X275748D01*
X276123Y61103D01*
Y60353D01*
Y61853D02*X275748Y61478D01*
X241984Y59942D02*X242584Y59342D01*
X239584D02*X242584D01*
X239584Y59942D02*Y58817D01*
X239959Y57917D02*X242209Y55667D01*
X241084Y54767D02*X242584D01*
X241084D02*X239584Y54392D01*
X241084Y53642D01*
X239584Y52892D01*
X241084Y52517D01*
X242584D01*
Y50117D02*X242209Y49742D01*
X242584Y51242D02*Y50117D01*
X242209Y51617D02*X242584Y51242D01*
X239959Y51617D02*X242209D01*
X239959D02*X239584Y51242D01*
Y50117D01*
X239959Y49742D01*
X240709D01*
X241084Y50117D02*X240709Y49742D01*
X241084Y50867D02*Y50117D01*
X247327Y70572D02*X247702Y70197D01*
Y69072D01*
X247327Y68697D01*
X246577D02*X247327D01*
X244702Y70572D02*X246577Y68697D01*
X244702Y70572D02*Y68697D01*
X245077Y67797D02*X247327Y65547D01*
X247702Y63147D02*X247327Y62772D01*
X247702Y64272D02*Y63147D01*
X247327Y64647D02*X247702Y64272D01*
X245077Y64647D02*X247327D01*
X245077D02*X244702Y64272D01*
Y63147D01*
X245077Y62772D01*
X245827D01*
X246202Y63147D02*X245827Y62772D01*
X246202Y63897D02*Y63147D01*
X252445Y60335D02*X252820Y59960D01*
Y59210D01*
X252445Y58835D01*
X249820Y59210D02*X250195Y58835D01*
X249820Y59960D02*Y59210D01*
X250195Y60335D02*X249820Y59960D01*
X251470D02*Y59210D01*
X251845Y58835D02*X252445D01*
X250195D02*X251095D01*
X251470Y59210D01*
X251845Y58835D02*X251470Y59210D01*
X250195Y57935D02*X252445Y55685D01*
X251320Y54785D02*X252820D01*
X251320D02*X249820Y54410D01*
X251320Y53660D01*
X249820Y52910D01*
X251320Y52535D01*
X252820D01*
X250195Y51635D02*X252445D01*
X252820Y51260D01*
Y50510D01*
X252445Y50135D01*
X250195D02*X252445D01*
X249820Y50510D02*X250195Y50135D01*
X249820Y51260D02*Y50510D01*
X250195Y51635D02*X249820Y51260D01*
X269505Y59960D02*X272505Y58460D01*
Y60335D02*Y58460D01*
X269880Y57560D02*X272130Y55310D01*
X271005Y54410D02*X272505D01*
X271005D02*X269505Y54035D01*
X271005Y53285D01*
X269505Y52535D01*
X271005Y52160D01*
X272505D01*
X269505Y51260D02*Y49760D01*
X269880Y49385D01*
X270780D01*
X271155Y49760D02*X270780Y49385D01*
X271155Y50885D02*Y49760D01*
X269505Y50885D02*X272505D01*
Y51260D02*Y49760D01*
X272130Y49385D01*
X271530D02*X272130D01*
X271155Y49760D02*X271530Y49385D01*
X269505Y48110D02*X270630D01*
X271005Y47735D01*
Y46985D01*
Y48485D02*X270630Y48110D01*
X227192Y72578D02*X228692D01*
X227942D02*Y69578D01*
X229592Y72578D02*X231092D01*
X229592D02*Y71078D01*
X229967Y71453D01*
X230717D01*
X231092Y71078D01*
Y69953D01*
X230717Y69578D02*X231092Y69953D01*
X229967Y69578D02*X230717D01*
X229592Y69953D02*X229967Y69578D01*
X233117Y72578D02*X233492Y72203D01*
X232367Y72578D02*X233117D01*
X231992Y72203D02*X232367Y72578D01*
X231992Y72203D02*Y69953D01*
X232367Y69578D01*
X233117Y71228D02*X233492Y70853D01*
X231992Y71228D02*X233117D01*
X232367Y69578D02*X233117D01*
X233492Y69953D01*
Y70853D02*Y69953D01*
X234392D02*X234767Y69578D01*
X234392Y70553D02*Y69953D01*
Y70553D02*X234917Y71078D01*
X235367D01*
X235892Y70553D01*
Y69953D01*
X235517Y69578D02*X235892Y69953D01*
X234767Y69578D02*X235517D01*
X234392Y71603D02*X234917Y71078D01*
X234392Y72203D02*Y71603D01*
Y72203D02*X234767Y72578D01*
X235517D01*
X235892Y72203D01*
Y71603D01*
X235367Y71078D02*X235892Y71603D01*
X236792Y71828D02*Y69578D01*
Y71828D02*X237317Y72578D01*
X238142D01*
X238667Y71828D01*
Y69578D01*
X236792Y71078D02*X238667D01*
G54D106*X45600Y128700D02*Y110300D01*
G54D104*Y128700D02*X38400Y131300D01*
X3200D02*X38400D01*
X3200D02*Y107700D01*
X38400D01*
X45600Y110300D01*
X3000Y104500D02*X23000D01*
X3000D02*Y94500D01*
X23000D01*
Y104500D02*Y94500D01*
X13000Y104500D02*Y94500D01*
X23000D01*
X65500Y99500D02*X59500D01*
X101500D02*X107500D01*
X97500Y110500D02*Y88500D01*
X98500Y110500D02*Y88500D01*
X99500Y110500D02*Y88500D01*
X101500D02*Y110500D01*
X65500D01*
Y88500D01*
X101500D01*
G54D106*X51300Y155300D02*X69700D01*
G54D104*X51300D02*X48700Y148100D01*
Y112900D01*
X72300D01*
Y148100D02*Y112900D01*
Y148100D02*X69700Y155300D01*
X77000Y134500D02*G75*G03X77000Y134500I20000J0D01*G01*
G54D106*X45600Y153700D02*Y135300D01*
G54D104*Y153700D02*X38400Y156300D01*
X3200D02*X38400D01*
X3200D02*Y132700D01*
X38400D01*
X45600Y135300D01*
X15500Y80445D02*X60500D01*
X2744D02*X16524D01*
X73217D02*Y51469D01*
X58295Y80445D02*X73217D01*
Y51508D02*Y8004D01*
X2744Y80445D02*Y51469D01*
Y51508D02*Y8004D01*
X73217D01*
X87500Y80445D02*X132500D01*
X74744D02*X88524D01*
X145217D02*Y51469D01*
X130295Y80445D02*X145217D01*
Y51508D02*Y8004D01*
X74744Y80445D02*Y51469D01*
Y51508D02*Y8004D01*
X145217D01*
X146752Y8071D02*X178642D01*
Y69882D02*Y8071D01*
X146752Y69882D02*X178642D01*
X146752D02*Y8071D01*
Y63189D02*X153445Y69882D01*
X178642Y63189D02*X171949Y69882D01*
X146752Y25000D02*X178642D01*
X146752Y53346D02*X178642D01*
X162500Y69882D02*Y8071D01*
X247500Y88500D02*X252500D01*
X262500D02*X267500D01*
X252500Y90100D02*X262500D01*
Y86900D01*
X252500D01*
Y90100D01*
X236043Y80453D02*X281043D01*
X223287D02*X237067D01*
X293760D02*Y51476D01*
X278839Y80453D02*X293760D01*
Y51516D02*Y8012D01*
X223287Y80453D02*Y51476D01*
Y51516D02*Y8012D01*
X293760D01*
X189752Y8071D02*X221642D01*
Y69882D02*Y8071D01*
X189752Y69882D02*X221642D01*
X189752D02*Y8071D01*
Y63189D02*X196445Y69882D01*
X221642Y63189D02*X214949Y69882D01*
X189752Y25000D02*X221642D01*
X189752Y53346D02*X221642D01*
X205500Y69882D02*Y8071D01*
G54D107*X290000Y164000D02*Y146000D01*
X300000Y164000D02*Y146000D01*
X310000Y164000D02*Y146000D01*
G54D106*X280000Y164000D02*X320000D01*
Y201500D02*Y164000D01*
X280000Y201500D02*X320000D01*
X280000D02*Y164000D01*
Y201500D02*X320000D01*
Y214000D02*Y201500D01*
X318500Y214000D02*X320000D01*
X318500Y221000D02*Y214000D01*
Y221000D02*X320000D01*
Y225000D02*Y221000D01*
X280000Y225000D02*X320000D01*
X280000D02*Y221000D01*
X281500D01*
Y214000D01*
X280000D02*X281500D01*
X280000D02*Y201500D01*
G54D108*X311000Y9000D02*Y3000D01*
X301500D02*X311000D01*
X301500Y9000D02*Y3000D01*
X296500Y84000D02*Y9000D01*
X316500D01*
Y84000D02*Y9000D01*
X296500Y84000D02*X316500D01*
G54D104*X148000Y160500D02*Y156500D01*
X146000Y158500D02*X150000D01*
X148000Y92500D02*Y88500D01*
Y154500D02*G75*G03X148000Y154500I0J-30000D01*G01*
G54D109*X180657Y97748D02*Y91154D01*
X200343D01*
Y97748D02*Y91154D01*
X180657Y127374D02*Y120780D01*
Y127374D02*X200343D01*
Y120780D01*
X182035Y119500D02*Y99028D01*
X198965Y119500D02*Y99028D01*
X193781Y127374D02*G75*G03X187219Y127374I-3281J0D01*G01*
G54D110*X191543Y150740D02*X196267D01*
X191543Y143260D02*X196267D01*
G54D106*X210300Y130300D02*X228700D01*
G54D104*X210300D02*X207700Y123100D01*
Y87900D01*
X231300D01*
Y123100D02*Y87900D01*
Y123100D02*X228700Y130300D01*
G54D111*X246043Y18508D02*Y14508D01*
X248043D01*
X249243Y17508D02*Y14508D01*
Y17508D02*X249943Y18508D01*
X251043D01*
X251743Y17508D01*
Y14508D01*
X249243Y16508D02*X251743D01*
X254943Y18508D02*X255443Y18008D01*
X253443Y18508D02*X254943D01*
X252943Y18008D02*X253443Y18508D01*
X252943Y18008D02*Y17008D01*
X253443Y16508D01*
X254943D01*
X255443Y16008D01*
Y15008D01*
X254943Y14508D02*X255443Y15008D01*
X253443Y14508D02*X254943D01*
X252943Y15008D02*X253443Y14508D01*
X256643Y16708D02*X258143D01*
X256643Y14508D02*X258643D01*
X256643Y18508D02*Y14508D01*
Y18508D02*X258643D01*
X259843D02*X261843D01*
X262343Y18008D01*
Y17008D01*
X261843Y16508D02*X262343Y17008D01*
X260343Y16508D02*X261843D01*
X260343Y18508D02*Y14508D01*
X261143Y16508D02*X262343Y14508D01*
X263543Y17708D02*X264343Y18508D01*
Y14508D01*
X263543D02*X265043D01*
X216500Y30000D02*X220500D01*
Y32000D02*Y30000D01*
X217500Y33200D02*X220500D01*
X217500D02*X216500Y33900D01*
Y35000D02*Y33900D01*
Y35000D02*X217500Y35700D01*
X220500D01*
X218500D02*Y33200D01*
X216500Y38900D02*X217000Y39400D01*
X216500Y38900D02*Y37400D01*
X217000Y36900D02*X216500Y37400D01*
X217000Y36900D02*X218000D01*
X218500Y37400D01*
Y38900D02*Y37400D01*
Y38900D02*X219000Y39400D01*
X220000D01*
X220500Y38900D02*X220000Y39400D01*
X220500Y38900D02*Y37400D01*
X220000Y36900D02*X220500Y37400D01*
X218300Y42100D02*Y40600D01*
X220500Y42600D02*Y40600D01*
X216500D02*X220500D01*
X216500Y42600D02*Y40600D01*
Y45800D02*Y43800D01*
Y45800D02*X217000Y46300D01*
X218000D01*
X218500Y45800D02*X218000Y46300D01*
X218500Y45800D02*Y44300D01*
X216500D02*X220500D01*
X218500Y45100D02*X220500Y46300D01*
X217000Y47500D02*X216500Y48000D01*
Y49500D02*Y48000D01*
Y49500D02*X217000Y50000D01*
X218000D01*
X220500Y47500D02*X218000Y50000D01*
X220500D02*Y47500D01*
X36200Y14500D02*X37500D01*
X35500Y15200D02*X36200Y14500D01*
X35500Y17800D02*Y15200D01*
Y17800D02*X36200Y18500D01*
X37500D01*
X38700D02*X40700D01*
X39700D02*Y14500D01*
X41900Y18500D02*X43900D01*
X44400Y18000D01*
Y17000D01*
X43900Y16500D02*X44400Y17000D01*
X42400Y16500D02*X43900D01*
X42400Y18500D02*Y14500D01*
X43200Y16500D02*X44400Y14500D01*
X45600Y18500D02*Y14500D01*
X47600D01*
X48800Y17700D02*X49600Y18500D01*
Y14500D01*
X48800D02*X50300D01*
X107500Y18500D02*X108500D01*
X108000D02*Y14500D01*
X107500D02*X108500D01*
X109700Y18500D02*Y14500D01*
Y18500D02*X111700D01*
X109700Y16700D02*X111200D01*
X112900Y17700D02*X113700Y18500D01*
Y14500D01*
X112900D02*X114400D01*
X173500Y36000D02*Y35000D01*
Y35500D02*X177500D01*
Y36000D02*Y35000D01*
X173500Y37200D02*X177500D01*
X173500Y39200D02*Y37200D01*
X175300Y38700D02*Y37200D01*
X174000Y40400D02*X173500Y40900D01*
Y42400D02*Y40900D01*
Y42400D02*X174000Y42900D01*
X175000D01*
X177500Y40400D02*X175000Y42900D01*
X177500D02*Y40400D01*
X291500Y185000D02*X294500D01*
X291500D02*X291000Y185500D01*
Y186500D02*Y185500D01*
Y186500D02*X291500Y187000D01*
X294000D01*
X295000Y186000D02*X294000Y187000D01*
X295000Y186000D02*Y185500D01*
X294500Y185000D02*X295000Y185500D01*
X293500Y186000D02*X295000Y187000D01*
X291800Y188200D02*X291000Y189000D01*
X295000D01*
Y189700D02*Y188200D01*
X287424Y90150D02*X289424D01*
X289924Y89650D01*
Y88650D01*
X289424Y88150D02*X289924Y88650D01*
X287924Y88150D02*X289424D01*
X287924Y90150D02*Y86150D01*
X288724Y88150D02*X289924Y86150D01*
X291124Y89650D02*X291624Y90150D01*
X293124D01*
X293624Y89650D01*
Y88650D01*
X291124Y86150D02*X293624Y88650D01*
X291124Y86150D02*X293624D01*
X247500Y89100D02*Y85100D01*
Y89100D02*X249500D01*
X247500Y87300D02*X249000D01*
X250700Y88300D02*X251500Y89100D01*
Y85100D01*
X250700D02*X252200D01*
X303000Y58500D02*X305000D01*
X305500Y58000D01*
Y57000D01*
X305000Y56500D02*X305500Y57000D01*
X303500Y56500D02*X305000D01*
X303500Y58500D02*Y54500D01*
X304300Y56500D02*X305500Y54500D01*
X306700Y58000D02*X307200Y58500D01*
X308200D01*
X308700Y58000D01*
X308200Y54500D02*X308700Y55000D01*
X307200Y54500D02*X308200D01*
X306700Y55000D02*X307200Y54500D01*
Y56700D02*X308200D01*
X308700Y58000D02*Y57200D01*
Y56200D02*Y55000D01*
Y56200D02*X308200Y56700D01*
X308700Y57200D02*X308200Y56700D01*
X275276Y147650D02*X277276D01*
X277776Y147150D01*
Y146150D01*
X277276Y145650D02*X277776Y146150D01*
X275776Y145650D02*X277276D01*
X275776Y147650D02*Y143650D01*
X276576Y145650D02*X277776Y143650D01*
X278976Y145150D02*X280976Y147650D01*
X278976Y145150D02*X281476D01*
X280976Y147650D02*Y143650D01*
X22200Y117000D02*X26200D01*
X22200Y118300D02*X22900Y119000D01*
X25500D01*
X26200Y118300D02*X25500Y119000D01*
X26200Y118300D02*Y116500D01*
X22200Y118300D02*Y116500D01*
X22700Y120200D02*X22200Y120700D01*
Y122200D02*Y120700D01*
Y122200D02*X22700Y122700D01*
X23700D01*
X26200Y120200D02*X23700Y122700D01*
X26200D02*Y120200D01*
X18500Y105500D02*X20500D01*
X18500D02*X18000Y106000D01*
Y107000D02*Y106000D01*
X18500Y107500D02*X18000Y107000D01*
X18500Y107500D02*X20000D01*
Y109500D02*Y105500D01*
X19200Y107500D02*X18000Y109500D01*
X16800Y106300D02*X16000Y105500D01*
Y109500D02*Y105500D01*
X15300Y109500D02*X16800D01*
X63000Y135900D02*Y131900D01*
X61700D02*X61000Y132600D01*
Y135200D02*Y132600D01*
X61700Y135900D02*X61000Y135200D01*
X61700Y135900D02*X63500D01*
X61700Y131900D02*X63500D01*
X59800Y132400D02*X59300Y131900D01*
X58300D02*X59300D01*
X58300D02*X57800Y132400D01*
X58300Y135900D02*X57800Y135400D01*
X58300Y135900D02*X59300D01*
X59800Y135400D02*X59300Y135900D01*
X58300Y133700D02*X59300D01*
X57800Y133200D02*Y132400D01*
Y135400D02*Y134200D01*
X58300Y133700D01*
X57800Y133200D02*X58300Y133700D01*
X83000Y78500D02*Y74500D01*
X84300Y78500D02*X85000Y77800D01*
Y75200D01*
X84300Y74500D02*X85000Y75200D01*
X82500Y74500D02*X84300D01*
X82500Y78500D02*X84300D01*
X86200D02*X88200D01*
X86200D02*Y76500D01*
X86700Y77000D01*
X87700D01*
X88200Y76500D01*
Y75000D01*
X87700Y74500D02*X88200Y75000D01*
X86700Y74500D02*X87700D01*
X86200Y75000D02*X86700Y74500D01*
X21700Y142000D02*X25700D01*
X21700Y143300D02*X22400Y144000D01*
X25000D01*
X25700Y143300D02*X25000Y144000D01*
X25700Y143300D02*Y141500D01*
X21700Y143300D02*Y141500D01*
X22500Y145200D02*X21700Y146000D01*
X25700D01*
Y146700D02*Y145200D01*
X117000Y153500D02*Y149500D01*
X119000D01*
X120200Y152700D02*X121000Y153500D01*
Y149500D01*
X120200D02*X121700D01*
X173000Y153800D02*Y152500D01*
X173700Y154500D02*X173000Y153800D01*
X173700Y154500D02*X176300D01*
X177000Y153800D01*
Y152500D01*
X176200Y151300D02*X177000Y150500D01*
X173000D02*X177000D01*
X173000Y151300D02*Y149800D01*
X188000Y111564D02*Y110264D01*
X188700Y112264D02*X188000Y111564D01*
X188700Y112264D02*X191300D01*
X192000Y111564D01*
Y110264D01*
X191500Y109064D02*X192000Y108564D01*
Y107064D01*
X191500Y106564D01*
X190500D02*X191500D01*
X188000Y109064D02*X190500Y106564D01*
X188000Y109064D02*Y106564D01*
X190755Y149150D02*Y145150D01*
X192755D01*
X193955Y148650D02*X194455Y149150D01*
X195955D01*
X196455Y148650D01*
Y147650D01*
X193955Y145150D02*X196455Y147650D01*
X193955Y145150D02*X196455D01*
X221500Y110400D02*Y106400D01*
X220200D02*X219500Y107100D01*
Y109700D02*Y107100D01*
X220200Y110400D02*X219500Y109700D01*
X220200Y110400D02*X222000D01*
X220200Y106400D02*X222000D01*
X218300Y108900D02*X216300Y106400D01*
X215800Y108900D02*X218300D01*
X216300Y110400D02*Y106400D01*
X154924Y90150D02*X156924D01*
X157424Y89650D01*
Y88650D01*
X156924Y88150D02*X157424Y88650D01*
X155424Y88150D02*X156924D01*
X155424Y90150D02*Y86150D01*
X156224Y88150D02*X157424Y86150D01*
X158624Y90150D02*X160624D01*
X158624D02*Y88150D01*
X159124Y88650D01*
X160124D01*
X160624Y88150D01*
Y86650D01*
X160124Y86150D02*X160624Y86650D01*
X159124Y86150D02*X160124D01*
X158624Y86650D02*X159124Y86150D01*
M02*
