  0
SECTION
  2
HEADER
  9
$ACADVER
  1
AC1009
  9
$EXTMIN
 10
0.0
 20
0.0
 30
0.0
  9
$EXTMAX
 10
1000.0
 20
1000.0
 30
0.0
  9
$FILLMODE
 70
 0
  9
$SPLFRAME
 70
 1
  0
ENDSEC
  0
SECTION
  2
TABLES
  0
TABLE
  2
LAYER
 70
1
  0
LAYER
  2
0
 70
     0
 62
     7
  6
CONTINUOUS
  0
ENDTAB
  0
ENDSEC
  0
SECTION
  2
ENTITIES
  0
POLYLINE
  8
0
 62
     13
 66
     1
 10
0
 20
0
 30
0.0
 40
1.008
 41
1.008
  0
VERTEX
  8
0
 10
0.00710721
 20
1.6371
 30
0.0
 40
0.014
 41
0.014
  0
VERTEX
  8
0
 10
0.00710721
 20
0.00710721
 30
0.0
 40
0.014
 41
0.014
  0
SEQEND
 8
0
  0
POLYLINE
  8
0
 62
     13
 66
     1
 10
0
 20
0
 30
0.0
 40
1.008
 41
1.008
  0
VERTEX
  8
0
 10
0.00710721
 20
0.00710721
 30
0.0
 40
0.014
 41
0.014
  0
VERTEX
  8
0
 10
1.39714
 20
0.00710721
 30
0.0
 40
0.014
 41
0.014
  0
SEQEND
 8
0
  0
POLYLINE
  8
0
 62
     13
 66
     1
 10
0
 20
0
 30
0.0
 40
1.008
 41
1.008
  0
VERTEX
  8
0
 10
1.39714
 20
0.00710721
 30
0.0
 40
0.014
 41
0.014
  0
VERTEX
  8
0
 10
1.39714
 20
1.6371
 30
0.0
 40
0.014
 41
0.014
  0
SEQEND
 8
0
  0
POLYLINE
  8
0
 62
     13
 66
     1
 10
0
 20
0
 30
0.0
 40
1.008
 41
1.008
  0
VERTEX
  8
0
 10
1.39714
 20
1.6371
 30
0.0
 40
0.014
 41
0.014
  0
VERTEX
  8
0
 10
0.00710721
 20
1.6371
 30
0.0
 40
0.014
 41
0.014
  0
SEQEND
 8
0
  0
POLYLINE
  8
0
 62
     173
 66
     1
 10
0
 20
0
 30
0.0
 70
     1
 40
0
 41
0
  0
VERTEX
  8
0
 10
0.222114
 20
1.28212
 30
0.0
 40
0
 41
0
  0
VERTEX
  8
0
 10
0.212131
 20
1.29216
 30
0.0
 40
0
 41
0
  0
VERTEX
  8
0
 10
0.202149
 20
1.28212
 30
0.0
 40
0
 41
0
  0
VERTEX
  8
0
 10
0.212131
 20
1.27214
 30
0.0
 40
0
 41
0
  0
VERTEX
  8
0
 10
0.222114
 20
1.28212
 30
0.0
 40
0
 41
0
  0
SEQEND
 8
0
  0
POLYLINE
  8
0
 62
     173
 66
     1
 10
0
 20
0
 30
0.0
 70
     1
 40
0
 41
0
  0
VERTEX
  8
0
 10
0.312121
 20
1.19211
 30
0.0
 40
0
 41
0
  0
VERTEX
  8
0
 10
0.302138
 20
1.20215
 30
0.0
 40
0
 41
0
  0
VERTEX
  8
0
 10
0.292156
 20
1.19211
 30
0.0
 40
0
 41
0
  0
VERTEX
  8
0
 10
0.302138
 20
1.18213
 30
0.0
 40
0
 41
0
  0
VERTEX
  8
0
 10
0.312121
 20
1.19211
 30
0.0
 40
0
 41
0
  0
SEQEND
 8
0
  0
POLYLINE
  8
0
 62
     173
 66
     1
 10
0
 20
0
 30
0.0
 70
     1
 40
0
 41
0
  0
VERTEX
  8
0
 10
0.437121
 20
1.53711
 30
0.0
 40
0
 41
0
  0
VERTEX
  8
0
 10
0.427138
 20
1.54715
 30
0.0
 40
0
 41
0
  0
VERTEX
  8
0
 10
0.417156
 20
1.53711
 30
0.0
 40
0
 41
0
  0
VERTEX
  8
0
 10
0.427138
 20
1.52713
 30
0.0
 40
0
 41
0
  0
VERTEX
  8
0
 10
0.437121
 20
1.53711
 30
0.0
 40
0
 41
0
  0
SEQEND
 8
0
  0
POLYLINE
  8
0
 62
     173
 66
     1
 10
0
 20
0
 30
0.0
 70
     1
 40
0
 41
0
  0
VERTEX
  8
0
 10
0.444119
 20
1.20709
 30
0.0
 40
0
 41
0
  0
VERTEX
  8
0
 10
0.434136
 20
1.21712
 30
0.0
 40
0
 41
0
  0
VERTEX
  8
0
 10
0.424154
 20
1.20709
 30
0.0
 40
0
 41
0
  0
VERTEX
  8
0
 10
0.434136
 20
1.19716
 30
0.0
 40
0
 41
0
  0
VERTEX
  8
0
 10
0.444119
 20
1.20709
 30
0.0
 40
0
 41
0
  0
SEQEND
 8
0
  0
POLYLINE
  8
0
 62
     173
 66
     1
 10
0
 20
0
 30
0.0
 70
     1
 40
0
 41
0
  0
VERTEX
  8
0
 10
0.48215
 20
1.01709
 30
0.0
 40
0
 41
0
  0
VERTEX
  8
0
 10
0.472114
 20
1.02713
 30
0.0
 40
0
 41
0
  0
VERTEX
  8
0
 10
0.462131
 20
1.01709
 30
0.0
 40
0
 41
0
  0
VERTEX
  8
0
 10
0.472114
 20
1.00716
 30
0.0
 40
0
 41
0
  0
VERTEX
  8
0
 10
0.48215
 20
1.01709
 30
0.0
 40
0
 41
0
  0
SEQEND
 8
0
  0
POLYLINE
  8
0
 62
     173
 66
     1
 10
0
 20
0
 30
0.0
 70
     1
 40
0
 41
0
  0
VERTEX
  8
0
 10
0.58214
 20
0.447103
 30
0.0
 40
0
 41
0
  0
VERTEX
  8
0
 10
0.572103
 20
0.45714
 30
0.0
 40
0
 41
0
  0
VERTEX
  8
0
 10
0.562121
 20
0.447103
 30
0.0
 40
0
 41
0
  0
VERTEX
  8
0
 10
0.572103
 20
0.437121
 30
0.0
 40
0
 41
0
  0
VERTEX
  8
0
 10
0.58214
 20
0.447103
 30
0.0
 40
0
 41
0
  0
SEQEND
 8
0
  0
POLYLINE
  8
0
 62
     173
 66
     1
 10
0
 20
0
 30
0.0
 70
     1
 40
0
 41
0
  0
VERTEX
  8
0
 10
0.647136
 20
1.01709
 30
0.0
 40
0
 41
0
  0
VERTEX
  8
0
 10
0.637099
 20
1.02713
 30
0.0
 40
0
 41
0
  0
VERTEX
  8
0
 10
0.627115
 20
1.01709
 30
0.0
 40
0
 41
0
  0
VERTEX
  8
0
 10
0.637099
 20
1.00716
 30
0.0
 40
0
 41
0
  0
VERTEX
  8
0
 10
0.647136
 20
1.01709
 30
0.0
 40
0
 41
0
  0
SEQEND
 8
0
  0
POLYLINE
  8
0
 62
     173
 66
     1
 10
0
 20
0
 30
0.0
 70
     1
 40
0
 41
0
  0
VERTEX
  8
0
 10
0.66211
 20
1.20709
 30
0.0
 40
0
 41
0
  0
VERTEX
  8
0
 10
0.652126
 20
1.21712
 30
0.0
 40
0
 41
0
  0
VERTEX
  8
0
 10
0.642144
 20
1.20709
 30
0.0
 40
0
 41
0
  0
VERTEX
  8
0
 10
0.652126
 20
1.19716
 30
0.0
 40
0
 41
0
  0
VERTEX
  8
0
 10
0.66211
 20
1.20709
 30
0.0
 40
0
 41
0
  0
SEQEND
 8
0
  0
POLYLINE
  8
0
 62
     173
 66
     1
 10
0
 20
0
 30
0.0
 70
     1
 40
0
 41
0
  0
VERTEX
  8
0
 10
0.817111
 20
0.327094
 30
0.0
 40
0
 41
0
  0
VERTEX
  8
0
 10
0.807129
 20
0.337131
 30
0.0
 40
0
 41
0
  0
VERTEX
  8
0
 10
0.797146
 20
0.327094
 30
0.0
 40
0
 41
0
  0
VERTEX
  8
0
 10
0.807129
 20
0.317165
 30
0.0
 40
0
 41
0
  0
VERTEX
  8
0
 10
0.817111
 20
0.327094
 30
0.0
 40
0
 41
0
  0
SEQEND
 8
0
  0
POLYLINE
  8
0
 62
     173
 66
     1
 10
0
 20
0
 30
0.0
 70
     1
 40
0
 41
0
  0
VERTEX
  8
0
 10
0.837131
 20
1.3571
 30
0.0
 40
0
 41
0
  0
VERTEX
  8
0
 10
0.827094
 20
1.36713
 30
0.0
 40
0
 41
0
  0
VERTEX
  8
0
 10
0.817111
 20
1.3571
 30
0.0
 40
0
 41
0
  0
VERTEX
  8
0
 10
0.827094
 20
1.34711
 30
0.0
 40
0
 41
0
  0
VERTEX
  8
0
 10
0.837131
 20
1.3571
 30
0.0
 40
0
 41
0
  0
SEQEND
 8
0
  0
POLYLINE
  8
0
 62
     173
 66
     1
 10
0
 20
0
 30
0.0
 70
     1
 40
0
 41
0
  0
VERTEX
  8
0
 10
0.837131
 20
0.697103
 30
0.0
 40
0
 41
0
  0
VERTEX
  8
0
 10
0.827094
 20
0.70714
 30
0.0
 40
0
 41
0
  0
VERTEX
  8
0
 10
0.817111
 20
0.697103
 30
0.0
 40
0
 41
0
  0
VERTEX
  8
0
 10
0.827094
 20
0.687121
 30
0.0
 40
0
 41
0
  0
VERTEX
  8
0
 10
0.837131
 20
0.697103
 30
0.0
 40
0
 41
0
  0
SEQEND
 8
0
  0
POLYLINE
  8
0
 62
     173
 66
     1
 10
0
 20
0
 30
0.0
 70
     1
 40
0
 41
0
  0
VERTEX
  8
0
 10
0.902126
 20
0.562121
 30
0.0
 40
0
 41
0
  0
VERTEX
  8
0
 10
0.89209
 20
0.572157
 30
0.0
 40
0
 41
0
  0
VERTEX
  8
0
 10
0.882107
 20
0.562121
 30
0.0
 40
0
 41
0
  0
VERTEX
  8
0
 10
0.89209
 20
0.552137
 30
0.0
 40
0
 41
0
  0
VERTEX
  8
0
 10
0.902126
 20
0.562121
 30
0.0
 40
0
 41
0
  0
SEQEND
 8
0
  0
POLYLINE
  8
0
 62
     173
 66
     1
 10
0
 20
0
 30
0.0
 70
     1
 40
0
 41
0
  0
VERTEX
  8
0
 10
1.08713
 20
0.952094
 30
0.0
 40
0
 41
0
  0
VERTEX
  8
0
 10
1.07709
 20
0.962131
 30
0.0
 40
0
 41
0
  0
VERTEX
  8
0
 10
1.06711
 20
0.952094
 30
0.0
 40
0
 41
0
  0
VERTEX
  8
0
 10
1.07709
 20
0.942165
 30
0.0
 40
0
 41
0
  0
VERTEX
  8
0
 10
1.08713
 20
0.952094
 30
0.0
 40
0
 41
0
  0
SEQEND
 8
0
  0
POLYLINE
  8
0
 62
     173
 66
     1
 10
0
 20
0
 30
0.0
 70
     1
 40
0
 41
0
  0
VERTEX
  8
0
 10
1.10211
 20
0.53711
 30
0.0
 40
0
 41
0
  0
VERTEX
  8
0
 10
1.09212
 20
0.547146
 30
0.0
 40
0
 41
0
  0
VERTEX
  8
0
 10
1.08214
 20
0.53711
 30
0.0
 40
0
 41
0
  0
VERTEX
  8
0
 10
1.09212
 20
0.527126
 30
0.0
 40
0
 41
0
  0
VERTEX
  8
0
 10
1.10211
 20
0.53711
 30
0.0
 40
0
 41
0
  0
SEQEND
 8
0
  0
POLYLINE
  8
0
 62
     173
 66
     1
 10
0
 20
0
 30
0.0
 70
     1
 40
0
 41
0
  0
VERTEX
  8
0
 10
1.16211
 20
0.792101
 30
0.0
 40
0
 41
0
  0
VERTEX
  8
0
 10
1.15213
 20
0.802137
 30
0.0
 40
0
 41
0
  0
VERTEX
  8
0
 10
1.14214
 20
0.792101
 30
0.0
 40
0
 41
0
  0
VERTEX
  8
0
 10
1.15213
 20
0.782118
 30
0.0
 40
0
 41
0
  0
VERTEX
  8
0
 10
1.16211
 20
0.792101
 30
0.0
 40
0
 41
0
  0
SEQEND
 8
0
  0
POLYLINE
  8
0
 62
     173
 66
     1
 10
0
 20
0
 30
0.0
 70
     1
 40
0
 41
0
  0
VERTEX
  8
0
 10
1.24213
 20
0.317111
 30
0.0
 40
0
 41
0
  0
VERTEX
  8
0
 10
1.2321
 20
0.327149
 30
0.0
 40
0
 41
0
  0
VERTEX
  8
0
 10
1.22211
 20
0.317111
 30
0.0
 40
0
 41
0
  0
VERTEX
  8
0
 10
1.2321
 20
0.307129
 30
0.0
 40
0
 41
0
  0
VERTEX
  8
0
 10
1.24213
 20
0.317111
 30
0.0
 40
0
 41
0
  0
SEQEND
 8
0
  0
POLYLINE
  8
0
 62
     173
 66
     1
 10
0
 20
0
 30
0.0
 70
     1
 40
0
 41
0
  0
VERTEX
  8
0
 10
1.31711
 20
1.28711
 30
0.0
 40
0
 41
0
  0
VERTEX
  8
0
 10
1.30713
 20
1.29715
 30
0.0
 40
0
 41
0
  0
VERTEX
  8
0
 10
1.29715
 20
1.28711
 30
0.0
 40
0
 41
0
  0
VERTEX
  8
0
 10
1.30713
 20
1.27713
 30
0.0
 40
0
 41
0
  0
VERTEX
  8
0
 10
1.31711
 20
1.28711
 30
0.0
 40
0
 41
0
  0
SEQEND
 8
0
  0
POLYLINE
  8
0
 62
     173
 66
     1
 10
0
 20
0
 30
0.0
 70
     1
 40
0
 41
0
  0
VERTEX
  8
0
 10
0.847114
 20
0.407118
 30
0.0
 40
0
 41
0
  0
VERTEX
  8
0
 10
0.842393
 20
0.418349
 30
0.0
 40
0
 41
0
  0
VERTEX
  8
0
 10
0.832086
 20
0.422092
 30
0.0
 40
0
 41
0
  0
VERTEX
  8
0
 10
0.821778
 20
0.418349
 30
0.0
 40
0
 41
0
  0
VERTEX
  8
0
 10
0.817111
 20
0.407118
 30
0.0
 40
0
 41
0
  0
VERTEX
  8
0
 10
0.821778
 20
0.395888
 30
0.0
 40
0
 41
0
  0
VERTEX
  8
0
 10
0.832086
 20
0.392144
 30
0.0
 40
0
 41
0
  0
VERTEX
  8
0
 10
0.842393
 20
0.395888
 30
0.0
 40
0
 41
0
  0
VERTEX
  8
0
 10
0.847114
 20
0.407118
 30
0.0
 40
0
 41
0
  0
SEQEND
 8
0
  0
POLYLINE
  8
0
 62
     173
 66
     1
 10
0
 20
0
 30
0.0
 70
     1
 40
0
 41
0
  0
VERTEX
  8
0
 10
0.947157
 20
0.707086
 30
0.0
 40
0
 41
0
  0
VERTEX
  8
0
 10
0.942437
 20
0.718371
 30
0.0
 40
0
 41
0
  0
VERTEX
  8
0
 10
0.932129
 20
0.722114
 30
0.0
 40
0
 41
0
  0
VERTEX
  8
0
 10
0.921821
 20
0.718371
 30
0.0
 40
0
 41
0
  0
VERTEX
  8
0
 10
0.917156
 20
0.707086
 30
0.0
 40
0
 41
0
  0
VERTEX
  8
0
 10
0.921821
 20
0.695856
 30
0.0
 40
0
 41
0
  0
VERTEX
  8
0
 10
0.932129
 20
0.692111
 30
0.0
 40
0
 41
0
  0
VERTEX
  8
0
 10
0.942437
 20
0.695856
 30
0.0
 40
0
 41
0
  0
VERTEX
  8
0
 10
0.947157
 20
0.707086
 30
0.0
 40
0
 41
0
  0
SEQEND
 8
0
  0
POLYLINE
  8
0
 62
     173
 66
     1
 10
0
 20
0
 30
0.0
 70
     1
 40
0
 41
0
  0
VERTEX
  8
0
 10
0.947157
 20
0.207086
 30
0.0
 40
0
 41
0
  0
VERTEX
  8
0
 10
0.942437
 20
0.218371
 30
0.0
 40
0
 41
0
  0
VERTEX
  8
0
 10
0.932129
 20
0.222114
 30
0.0
 40
0
 41
0
  0
VERTEX
  8
0
 10
0.921821
 20
0.218371
 30
0.0
 40
0
 41
0
  0
VERTEX
  8
0
 10
0.917156
 20
0.207086
 30
0.0
 40
0
 41
0
  0
VERTEX
  8
0
 10
0.921821
 20
0.195856
 30
0.0
 40
0
 41
0
  0
VERTEX
  8
0
 10
0.932129
 20
0.192111
 30
0.0
 40
0
 41
0
  0
VERTEX
  8
0
 10
0.942437
 20
0.195856
 30
0.0
 40
0
 41
0
  0
VERTEX
  8
0
 10
0.947157
 20
0.207086
 30
0.0
 40
0
 41
0
  0
SEQEND
 8
0
  0
POLYLINE
  8
0
 62
     173
 66
     1
 10
0
 20
0
 30
0.0
 70
     1
 40
0
 41
0
  0
VERTEX
  8
0
 10
1.08214
 20
0.407118
 30
0.0
 40
0
 41
0
  0
VERTEX
  8
0
 10
1.07742
 20
0.418349
 30
0.0
 40
0
 41
0
  0
VERTEX
  8
0
 10
1.06711
 20
0.422092
 30
0.0
 40
0
 41
0
  0
VERTEX
  8
0
 10
1.0568
 20
0.418349
 30
0.0
 40
0
 41
0
  0
VERTEX
  8
0
 10
1.05214
 20
0.407118
 30
0.0
 40
0
 41
0
  0
VERTEX
  8
0
 10
1.0568
 20
0.395888
 30
0.0
 40
0
 41
0
  0
VERTEX
  8
0
 10
1.06711
 20
0.392144
 30
0.0
 40
0
 41
0
  0
VERTEX
  8
0
 10
1.07742
 20
0.395888
 30
0.0
 40
0
 41
0
  0
VERTEX
  8
0
 10
1.08214
 20
0.407118
 30
0.0
 40
0
 41
0
  0
SEQEND
 8
0
  0
POLYLINE
  8
0
 62
     173
 66
     1
 10
0
 20
0
 30
0.0
 70
     1
 40
0
 41
0
  0
VERTEX
  8
0
 10
1.18213
 20
0.707086
 30
0.0
 40
0
 41
0
  0
VERTEX
  8
0
 10
1.17741
 20
0.718371
 30
0.0
 40
0
 41
0
  0
VERTEX
  8
0
 10
1.1671
 20
0.722114
 30
0.0
 40
0
 41
0
  0
VERTEX
  8
0
 10
1.15679
 20
0.718371
 30
0.0
 40
0
 41
0
  0
VERTEX
  8
0
 10
1.15213
 20
0.707086
 30
0.0
 40
0
 41
0
  0
VERTEX
  8
0
 10
1.15679
 20
0.695856
 30
0.0
 40
0
 41
0
  0
VERTEX
  8
0
 10
1.1671
 20
0.692111
 30
0.0
 40
0
 41
0
  0
VERTEX
  8
0
 10
1.17741
 20
0.695856
 30
0.0
 40
0
 41
0
  0
VERTEX
  8
0
 10
1.18213
 20
0.707086
 30
0.0
 40
0
 41
0
  0
SEQEND
 8
0
  0
POLYLINE
  8
0
 62
     173
 66
     1
 10
0
 20
0
 30
0.0
 70
     1
 40
0
 41
0
  0
VERTEX
  8
0
 10
1.18213
 20
0.207086
 30
0.0
 40
0
 41
0
  0
VERTEX
  8
0
 10
1.17741
 20
0.218371
 30
0.0
 40
0
 41
0
  0
VERTEX
  8
0
 10
1.1671
 20
0.222114
 30
0.0
 40
0
 41
0
  0
VERTEX
  8
0
 10
1.15679
 20
0.218371
 30
0.0
 40
0
 41
0
  0
VERTEX
  8
0
 10
1.15213
 20
0.207086
 30
0.0
 40
0
 41
0
  0
VERTEX
  8
0
 10
1.15679
 20
0.195856
 30
0.0
 40
0
 41
0
  0
VERTEX
  8
0
 10
1.1671
 20
0.192111
 30
0.0
 40
0
 41
0
  0
VERTEX
  8
0
 10
1.17741
 20
0.195856
 30
0.0
 40
0
 41
0
  0
VERTEX
  8
0
 10
1.18213
 20
0.207086
 30
0.0
 40
0
 41
0
  0
SEQEND
 8
0
  0
POLYLINE
  8
0
 62
     173
 66
     1
 10
0
 20
0
 30
0.0
 70
     1
 40
0
 41
0
  0
VERTEX
  8
0
 10
0.0946181
 20
1.04709
 30
0.0
 40
0
 41
0
  0
VERTEX
  8
0
 10
0.0891385
 20
1.06022
 30
0.0
 40
0
 41
0
  0
VERTEX
  8
0
 10
0.0770942
 20
1.06462
 30
0.0
 40
0
 41
0
  0
VERTEX
  8
0
 10
0.0650499
 20
1.06022
 30
0.0
 40
0
 41
0
  0
VERTEX
  8
0
 10
0.0596246
 20
1.04709
 30
0.0
 40
0
 41
0
  0
VERTEX
  8
0
 10
0.0650499
 20
1.03402
 30
0.0
 40
0
 41
0
  0
VERTEX
  8
0
 10
0.0770942
 20
1.02962
 30
0.0
 40
0
 41
0
  0
VERTEX
  8
0
 10
0.0891385
 20
1.03402
 30
0.0
 40
0
 41
0
  0
VERTEX
  8
0
 10
0.0946181
 20
1.04709
 30
0.0
 40
0
 41
0
  0
SEQEND
 8
0
  0
POLYLINE
  8
0
 62
     173
 66
     1
 10
0
 20
0
 30
0.0
 70
     1
 40
0
 41
0
  0
VERTEX
  8
0
 10
0.14464
 20
1.25711
 30
0.0
 40
0
 41
0
  0
VERTEX
  8
0
 10
0.13916
 20
1.27024
 30
0.0
 40
0
 41
0
  0
VERTEX
  8
0
 10
0.127116
 20
1.27463
 30
0.0
 40
0
 41
0
  0
VERTEX
  8
0
 10
0.115072
 20
1.27024
 30
0.0
 40
0
 41
0
  0
VERTEX
  8
0
 10
0.109646
 20
1.25711
 30
0.0
 40
0
 41
0
  0
VERTEX
  8
0
 10
0.115072
 20
1.24403
 30
0.0
 40
0
 41
0
  0
VERTEX
  8
0
 10
0.127116
 20
1.23964
 30
0.0
 40
0
 41
0
  0
VERTEX
  8
0
 10
0.13916
 20
1.24403
 30
0.0
 40
0
 41
0
  0
VERTEX
  8
0
 10
0.14464
 20
1.25711
 30
0.0
 40
0
 41
0
  0
SEQEND
 8
0
  0
POLYLINE
  8
0
 62
     173
 66
     1
 10
0
 20
0
 30
0.0
 70
     1
 40
0
 41
0
  0
VERTEX
  8
0
 10
0.604656
 20
0.897136
 30
0.0
 40
0
 41
0
  0
VERTEX
  8
0
 10
0.599175
 20
0.910265
 30
0.0
 40
0
 41
0
  0
VERTEX
  8
0
 10
0.587131
 20
0.91466
 30
0.0
 40
0
 41
0
  0
VERTEX
  8
0
 10
0.575032
 20
0.910265
 30
0.0
 40
0
 41
0
  0
VERTEX
  8
0
 10
0.569607
 20
0.897136
 30
0.0
 40
0
 41
0
  0
VERTEX
  8
0
 10
0.575032
 20
0.884006
 30
0.0
 40
0
 41
0
  0
VERTEX
  8
0
 10
0.587131
 20
0.879611
 30
0.0
 40
0
 41
0
  0
VERTEX
  8
0
 10
0.599175
 20
0.884006
 30
0.0
 40
0
 41
0
  0
VERTEX
  8
0
 10
0.604656
 20
0.897136
 30
0.0
 40
0
 41
0
  0
SEQEND
 8
0
  0
POLYLINE
  8
0
 62
     173
 66
     1
 10
0
 20
0
 30
0.0
 70
     1
 40
0
 41
0
  0
VERTEX
  8
0
 10
0.604656
 20
0.797092
 30
0.0
 40
0
 41
0
  0
VERTEX
  8
0
 10
0.599175
 20
0.810221
 30
0.0
 40
0
 41
0
  0
VERTEX
  8
0
 10
0.587131
 20
0.814615
 30
0.0
 40
0
 41
0
  0
VERTEX
  8
0
 10
0.575032
 20
0.810221
 30
0.0
 40
0
 41
0
  0
VERTEX
  8
0
 10
0.569607
 20
0.797092
 30
0.0
 40
0
 41
0
  0
VERTEX
  8
0
 10
0.575032
 20
0.784017
 30
0.0
 40
0
 41
0
  0
VERTEX
  8
0
 10
0.587131
 20
0.779622
 30
0.0
 40
0
 41
0
  0
VERTEX
  8
0
 10
0.599175
 20
0.784017
 30
0.0
 40
0
 41
0
  0
VERTEX
  8
0
 10
0.604656
 20
0.797092
 30
0.0
 40
0
 41
0
  0
SEQEND
 8
0
  0
POLYLINE
  8
0
 62
     173
 66
     1
 10
0
 20
0
 30
0.0
 70
     1
 40
0
 41
0
  0
VERTEX
  8
0
 10
0.604656
 20
0.697103
 30
0.0
 40
0
 41
0
  0
VERTEX
  8
0
 10
0.599175
 20
0.710232
 30
0.0
 40
0
 41
0
  0
VERTEX
  8
0
 10
0.587131
 20
0.714626
 30
0.0
 40
0
 41
0
  0
VERTEX
  8
0
 10
0.575032
 20
0.710232
 30
0.0
 40
0
 41
0
  0
VERTEX
  8
0
 10
0.569607
 20
0.697103
 30
0.0
 40
0
 41
0
  0
VERTEX
  8
0
 10
0.575032
 20
0.684028
 30
0.0
 40
0
 41
0
  0
VERTEX
  8
0
 10
0.587131
 20
0.679633
 30
0.0
 40
0
 41
0
  0
VERTEX
  8
0
 10
0.599175
 20
0.684028
 30
0.0
 40
0
 41
0
  0
VERTEX
  8
0
 10
0.604656
 20
0.697103
 30
0.0
 40
0
 41
0
  0
SEQEND
 8
0
  0
POLYLINE
  8
0
 62
     173
 66
     1
 10
0
 20
0
 30
0.0
 70
     1
 40
0
 41
0
  0
VERTEX
  8
0
 10
0.604656
 20
0.597114
 30
0.0
 40
0
 41
0
  0
VERTEX
  8
0
 10
0.599175
 20
0.610243
 30
0.0
 40
0
 41
0
  0
VERTEX
  8
0
 10
0.587131
 20
0.614637
 30
0.0
 40
0
 41
0
  0
VERTEX
  8
0
 10
0.575032
 20
0.610243
 30
0.0
 40
0
 41
0
  0
VERTEX
  8
0
 10
0.569607
 20
0.597114
 30
0.0
 40
0
 41
0
  0
VERTEX
  8
0
 10
0.575032
 20
0.584039
 30
0.0
 40
0
 41
0
  0
VERTEX
  8
0
 10
0.587131
 20
0.579644
 30
0.0
 40
0
 41
0
  0
VERTEX
  8
0
 10
0.599175
 20
0.584039
 30
0.0
 40
0
 41
0
  0
VERTEX
  8
0
 10
0.604656
 20
0.597114
 30
0.0
 40
0
 41
0
  0
SEQEND
 8
0
  0
POLYLINE
  8
0
 62
     173
 66
     1
 10
0
 20
0
 30
0.0
 70
     1
 40
0
 41
0
  0
VERTEX
  8
0
 10
0.704644
 20
0.847114
 30
0.0
 40
0
 41
0
  0
VERTEX
  8
0
 10
0.699164
 20
0.860243
 30
0.0
 40
0
 41
0
  0
VERTEX
  8
0
 10
0.687121
 20
0.864637
 30
0.0
 40
0
 41
0
  0
VERTEX
  8
0
 10
0.675076
 20
0.860243
 30
0.0
 40
0
 41
0
  0
VERTEX
  8
0
 10
0.66965
 20
0.847114
 30
0.0
 40
0
 41
0
  0
VERTEX
  8
0
 10
0.675076
 20
0.834039
 30
0.0
 40
0
 41
0
  0
VERTEX
  8
0
 10
0.687121
 20
0.829644
 30
0.0
 40
0
 41
0
  0
VERTEX
  8
0
 10
0.699164
 20
0.834039
 30
0.0
 40
0
 41
0
  0
VERTEX
  8
0
 10
0.704644
 20
0.847114
 30
0.0
 40
0
 41
0
  0
SEQEND
 8
0
  0
POLYLINE
  8
0
 62
     173
 66
     1
 10
0
 20
0
 30
0.0
 70
     1
 40
0
 41
0
  0
VERTEX
  8
0
 10
0.704644
 20
0.747125
 30
0.0
 40
0
 41
0
  0
VERTEX
  8
0
 10
0.699164
 20
0.760254
 30
0.0
 40
0
 41
0
  0
VERTEX
  8
0
 10
0.687121
 20
0.764649
 30
0.0
 40
0
 41
0
  0
VERTEX
  8
0
 10
0.675076
 20
0.760254
 30
0.0
 40
0
 41
0
  0
VERTEX
  8
0
 10
0.66965
 20
0.747125
 30
0.0
 40
0
 41
0
  0
VERTEX
  8
0
 10
0.675076
 20
0.73405
 30
0.0
 40
0
 41
0
  0
VERTEX
  8
0
 10
0.687121
 20
0.729656
 30
0.0
 40
0
 41
0
  0
VERTEX
  8
0
 10
0.699164
 20
0.73405
 30
0.0
 40
0
 41
0
  0
VERTEX
  8
0
 10
0.704644
 20
0.747125
 30
0.0
 40
0
 41
0
  0
SEQEND
 8
0
  0
POLYLINE
  8
0
 62
     173
 66
     1
 10
0
 20
0
 30
0.0
 70
     1
 40
0
 41
0
  0
VERTEX
  8
0
 10
0.704644
 20
0.647136
 30
0.0
 40
0
 41
0
  0
VERTEX
  8
0
 10
0.699164
 20
0.660265
 30
0.0
 40
0
 41
0
  0
VERTEX
  8
0
 10
0.687121
 20
0.66466
 30
0.0
 40
0
 41
0
  0
VERTEX
  8
0
 10
0.675076
 20
0.660265
 30
0.0
 40
0
 41
0
  0
VERTEX
  8
0
 10
0.66965
 20
0.647136
 30
0.0
 40
0
 41
0
  0
VERTEX
  8
0
 10
0.675076
 20
0.634006
 30
0.0
 40
0
 41
0
  0
VERTEX
  8
0
 10
0.687121
 20
0.629611
 30
0.0
 40
0
 41
0
  0
VERTEX
  8
0
 10
0.699164
 20
0.634006
 30
0.0
 40
0
 41
0
  0
VERTEX
  8
0
 10
0.704644
 20
0.647136
 30
0.0
 40
0
 41
0
  0
SEQEND
 8
0
  0
POLYLINE
  8
0
 62
     173
 66
     1
 10
0
 20
0
 30
0.0
 70
     1
 40
0
 41
0
  0
VERTEX
  8
0
 10
0.704644
 20
0.547092
 30
0.0
 40
0
 41
0
  0
VERTEX
  8
0
 10
0.699164
 20
0.560221
 30
0.0
 40
0
 41
0
  0
VERTEX
  8
0
 10
0.687121
 20
0.564615
 30
0.0
 40
0
 41
0
  0
VERTEX
  8
0
 10
0.675076
 20
0.560221
 30
0.0
 40
0
 41
0
  0
VERTEX
  8
0
 10
0.66965
 20
0.547092
 30
0.0
 40
0
 41
0
  0
VERTEX
  8
0
 10
0.675076
 20
0.534017
 30
0.0
 40
0
 41
0
  0
VERTEX
  8
0
 10
0.687121
 20
0.529622
 30
0.0
 40
0
 41
0
  0
VERTEX
  8
0
 10
0.699164
 20
0.534017
 30
0.0
 40
0
 41
0
  0
VERTEX
  8
0
 10
0.704644
 20
0.547092
 30
0.0
 40
0
 41
0
  0
SEQEND
 8
0
  0
POLYLINE
  8
0
 62
     173
 66
     1
 10
0
 20
0
 30
0.0
 70
     1
 40
0
 41
0
  0
VERTEX
  8
0
 10
0.0911458
 20
1.5721
 30
0.0
 40
0
 41
0
  0
VERTEX
  8
0
 10
0.0851779
 20
1.58638
 30
0.0
 40
0
 41
0
  0
VERTEX
  8
0
 10
0.0721029
 20
1.59115
 30
0.0
 40
0
 41
0
  0
VERTEX
  8
0
 10
0.0590278
 20
1.58638
 30
0.0
 40
0
 41
0
  0
VERTEX
  8
0
 10
0.0531142
 20
1.5721
 30
0.0
 40
0
 41
0
  0
VERTEX
  8
0
 10
0.0590278
 20
1.55789
 30
0.0
 40
0
 41
0
  0
VERTEX
  8
0
 10
0.0721029
 20
1.55311
 30
0.0
 40
0
 41
0
  0
VERTEX
  8
0
 10
0.0851779
 20
1.55789
 30
0.0
 40
0
 41
0
  0
VERTEX
  8
0
 10
0.0911458
 20
1.5721
 30
0.0
 40
0
 41
0
  0
SEQEND
 8
0
  0
POLYLINE
  8
0
 62
     173
 66
     1
 10
0
 20
0
 30
0.0
 70
     1
 40
0
 41
0
  0
VERTEX
  8
0
 10
0.0911458
 20
1.47211
 30
0.0
 40
0
 41
0
  0
VERTEX
  8
0
 10
0.0851779
 20
1.48639
 30
0.0
 40
0
 41
0
  0
VERTEX
  8
0
 10
0.0721029
 20
1.49115
 30
0.0
 40
0
 41
0
  0
VERTEX
  8
0
 10
0.0590278
 20
1.48639
 30
0.0
 40
0
 41
0
  0
VERTEX
  8
0
 10
0.0531142
 20
1.47211
 30
0.0
 40
0
 41
0
  0
VERTEX
  8
0
 10
0.0590278
 20
1.4579
 30
0.0
 40
0
 41
0
  0
VERTEX
  8
0
 10
0.0721029
 20
1.45313
 30
0.0
 40
0
 41
0
  0
VERTEX
  8
0
 10
0.0851779
 20
1.4579
 30
0.0
 40
0
 41
0
  0
VERTEX
  8
0
 10
0.0911458
 20
1.47211
 30
0.0
 40
0
 41
0
  0
SEQEND
 8
0
  0
POLYLINE
  8
0
 62
     173
 66
     1
 10
0
 20
0
 30
0.0
 70
     1
 40
0
 41
0
  0
VERTEX
  8
0
 10
0.0911458
 20
1.37213
 30
0.0
 40
0
 41
0
  0
VERTEX
  8
0
 10
0.0851779
 20
1.38639
 30
0.0
 40
0
 41
0
  0
VERTEX
  8
0
 10
0.0721029
 20
1.39117
 30
0.0
 40
0
 41
0
  0
VERTEX
  8
0
 10
0.0590278
 20
1.38639
 30
0.0
 40
0
 41
0
  0
VERTEX
  8
0
 10
0.0531142
 20
1.37213
 30
0.0
 40
0
 41
0
  0
VERTEX
  8
0
 10
0.0590278
 20
1.35791
 30
0.0
 40
0
 41
0
  0
VERTEX
  8
0
 10
0.0721029
 20
1.35314
 30
0.0
 40
0
 41
0
  0
VERTEX
  8
0
 10
0.0851779
 20
1.35791
 30
0.0
 40
0
 41
0
  0
VERTEX
  8
0
 10
0.0911458
 20
1.37213
 30
0.0
 40
0
 41
0
  0
SEQEND
 8
0
  0
POLYLINE
  8
0
 62
     173
 66
     1
 10
0
 20
0
 30
0.0
 70
     1
 40
0
 41
0
  0
VERTEX
  8
0
 10
0.206108
 20
1.5721
 30
0.0
 40
0
 41
0
  0
VERTEX
  8
0
 10
0.200142
 20
1.58638
 30
0.0
 40
0
 41
0
  0
VERTEX
  8
0
 10
0.187121
 20
1.59115
 30
0.0
 40
0
 41
0
  0
VERTEX
  8
0
 10
0.174046
 20
1.58638
 30
0.0
 40
0
 41
0
  0
VERTEX
  8
0
 10
0.168132
 20
1.5721
 30
0.0
 40
0
 41
0
  0
VERTEX
  8
0
 10
0.174046
 20
1.55789
 30
0.0
 40
0
 41
0
  0
VERTEX
  8
0
 10
0.187121
 20
1.55311
 30
0.0
 40
0
 41
0
  0
VERTEX
  8
0
 10
0.200142
 20
1.55789
 30
0.0
 40
0
 41
0
  0
VERTEX
  8
0
 10
0.206108
 20
1.5721
 30
0.0
 40
0
 41
0
  0
SEQEND
 8
0
  0
POLYLINE
  8
0
 62
     173
 66
     1
 10
0
 20
0
 30
0.0
 70
     1
 40
0
 41
0
  0
VERTEX
  8
0
 10
0.206108
 20
1.47211
 30
0.0
 40
0
 41
0
  0
VERTEX
  8
0
 10
0.200142
 20
1.48639
 30
0.0
 40
0
 41
0
  0
VERTEX
  8
0
 10
0.187121
 20
1.49115
 30
0.0
 40
0
 41
0
  0
VERTEX
  8
0
 10
0.174046
 20
1.48639
 30
0.0
 40
0
 41
0
  0
VERTEX
  8
0
 10
0.168132
 20
1.47211
 30
0.0
 40
0
 41
0
  0
VERTEX
  8
0
 10
0.174046
 20
1.4579
 30
0.0
 40
0
 41
0
  0
VERTEX
  8
0
 10
0.187121
 20
1.45313
 30
0.0
 40
0
 41
0
  0
VERTEX
  8
0
 10
0.200142
 20
1.4579
 30
0.0
 40
0
 41
0
  0
VERTEX
  8
0
 10
0.206108
 20
1.47211
 30
0.0
 40
0
 41
0
  0
SEQEND
 8
0
  0
POLYLINE
  8
0
 62
     173
 66
     1
 10
0
 20
0
 30
0.0
 70
     1
 40
0
 41
0
  0
VERTEX
  8
0
 10
0.206108
 20
1.37213
 30
0.0
 40
0
 41
0
  0
VERTEX
  8
0
 10
0.200142
 20
1.38639
 30
0.0
 40
0
 41
0
  0
VERTEX
  8
0
 10
0.187121
 20
1.39117
 30
0.0
 40
0
 41
0
  0
VERTEX
  8
0
 10
0.174046
 20
1.38639
 30
0.0
 40
0
 41
0
  0
VERTEX
  8
0
 10
0.168132
 20
1.37213
 30
0.0
 40
0
 41
0
  0
VERTEX
  8
0
 10
0.174046
 20
1.35791
 30
0.0
 40
0
 41
0
  0
VERTEX
  8
0
 10
0.187121
 20
1.35314
 30
0.0
 40
0
 41
0
  0
VERTEX
  8
0
 10
0.200142
 20
1.35791
 30
0.0
 40
0
 41
0
  0
VERTEX
  8
0
 10
0.206108
 20
1.37213
 30
0.0
 40
0
 41
0
  0
SEQEND
 8
0
  0
POLYLINE
  8
0
 62
     173
 66
     1
 10
0
 20
0
 30
0.0
 70
     1
 40
0
 41
0
  0
VERTEX
  8
0
 10
0.321126
 20
1.5721
 30
0.0
 40
0
 41
0
  0
VERTEX
  8
0
 10
0.315158
 20
1.58638
 30
0.0
 40
0
 41
0
  0
VERTEX
  8
0
 10
0.302138
 20
1.59115
 30
0.0
 40
0
 41
0
  0
VERTEX
  8
0
 10
0.289063
 20
1.58638
 30
0.0
 40
0
 41
0
  0
VERTEX
  8
0
 10
0.283149
 20
1.5721
 30
0.0
 40
0
 41
0
  0
VERTEX
  8
0
 10
0.289063
 20
1.55789
 30
0.0
 40
0
 41
0
  0
VERTEX
  8
0
 10
0.302138
 20
1.55311
 30
0.0
 40
0
 41
0
  0
VERTEX
  8
0
 10
0.315158
 20
1.55789
 30
0.0
 40
0
 41
0
  0
VERTEX
  8
0
 10
0.321126
 20
1.5721
 30
0.0
 40
0
 41
0
  0
SEQEND
 8
0
  0
POLYLINE
  8
0
 62
     173
 66
     1
 10
0
 20
0
 30
0.0
 70
     1
 40
0
 41
0
  0
VERTEX
  8
0
 10
0.321126
 20
1.47211
 30
0.0
 40
0
 41
0
  0
VERTEX
  8
0
 10
0.315158
 20
1.48639
 30
0.0
 40
0
 41
0
  0
VERTEX
  8
0
 10
0.302138
 20
1.49115
 30
0.0
 40
0
 41
0
  0
VERTEX
  8
0
 10
0.289063
 20
1.48639
 30
0.0
 40
0
 41
0
  0
VERTEX
  8
0
 10
0.283149
 20
1.47211
 30
0.0
 40
0
 41
0
  0
VERTEX
  8
0
 10
0.289063
 20
1.4579
 30
0.0
 40
0
 41
0
  0
VERTEX
  8
0
 10
0.302138
 20
1.45313
 30
0.0
 40
0
 41
0
  0
VERTEX
  8
0
 10
0.315158
 20
1.4579
 30
0.0
 40
0
 41
0
  0
VERTEX
  8
0
 10
0.321126
 20
1.47211
 30
0.0
 40
0
 41
0
  0
SEQEND
 8
0
  0
POLYLINE
  8
0
 62
     173
 66
     1
 10
0
 20
0
 30
0.0
 70
     1
 40
0
 41
0
  0
VERTEX
  8
0
 10
0.321126
 20
1.37213
 30
0.0
 40
0
 41
0
  0
VERTEX
  8
0
 10
0.315158
 20
1.38639
 30
0.0
 40
0
 41
0
  0
VERTEX
  8
0
 10
0.302138
 20
1.39117
 30
0.0
 40
0
 41
0
  0
VERTEX
  8
0
 10
0.289063
 20
1.38639
 30
0.0
 40
0
 41
0
  0
VERTEX
  8
0
 10
0.283149
 20
1.37213
 30
0.0
 40
0
 41
0
  0
VERTEX
  8
0
 10
0.289063
 20
1.35791
 30
0.0
 40
0
 41
0
  0
VERTEX
  8
0
 10
0.302138
 20
1.35314
 30
0.0
 40
0
 41
0
  0
VERTEX
  8
0
 10
0.315158
 20
1.35791
 30
0.0
 40
0
 41
0
  0
VERTEX
  8
0
 10
0.321126
 20
1.37213
 30
0.0
 40
0
 41
0
  0
SEQEND
 8
0
  0
POLYLINE
  8
0
 62
     173
 66
     1
 10
0
 20
0
 30
0.0
 70
     1
 40
0
 41
0
  0
VERTEX
  8
0
 10
0.716146
 20
1.5721
 30
0.0
 40
0
 41
0
  0
VERTEX
  8
0
 10
0.710178
 20
1.58638
 30
0.0
 40
0
 41
0
  0
VERTEX
  8
0
 10
0.697103
 20
1.59115
 30
0.0
 40
0
 41
0
  0
VERTEX
  8
0
 10
0.684028
 20
1.58638
 30
0.0
 40
0
 41
0
  0
VERTEX
  8
0
 10
0.678114
 20
1.5721
 30
0.0
 40
0
 41
0
  0
VERTEX
  8
0
 10
0.684028
 20
1.55789
 30
0.0
 40
0
 41
0
  0
VERTEX
  8
0
 10
0.697103
 20
1.55311
 30
0.0
 40
0
 41
0
  0
VERTEX
  8
0
 10
0.710178
 20
1.55789
 30
0.0
 40
0
 41
0
  0
VERTEX
  8
0
 10
0.716146
 20
1.5721
 30
0.0
 40
0
 41
0
  0
SEQEND
 8
0
  0
POLYLINE
  8
0
 62
     173
 66
     1
 10
0
 20
0
 30
0.0
 70
     1
 40
0
 41
0
  0
VERTEX
  8
0
 10
0.716146
 20
1.47211
 30
0.0
 40
0
 41
0
  0
VERTEX
  8
0
 10
0.710178
 20
1.48639
 30
0.0
 40
0
 41
0
  0
VERTEX
  8
0
 10
0.697103
 20
1.49115
 30
0.0
 40
0
 41
0
  0
VERTEX
  8
0
 10
0.684028
 20
1.48639
 30
0.0
 40
0
 41
0
  0
VERTEX
  8
0
 10
0.678114
 20
1.47211
 30
0.0
 40
0
 41
0
  0
VERTEX
  8
0
 10
0.684028
 20
1.4579
 30
0.0
 40
0
 41
0
  0
VERTEX
  8
0
 10
0.697103
 20
1.45313
 30
0.0
 40
0
 41
0
  0
VERTEX
  8
0
 10
0.710178
 20
1.4579
 30
0.0
 40
0
 41
0
  0
VERTEX
  8
0
 10
0.716146
 20
1.47211
 30
0.0
 40
0
 41
0
  0
SEQEND
 8
0
  0
POLYLINE
  8
0
 62
     173
 66
     1
 10
0
 20
0
 30
0.0
 70
     1
 40
0
 41
0
  0
VERTEX
  8
0
 10
1.30615
 20
0.782118
 30
0.0
 40
0
 41
0
  0
VERTEX
  8
0
 10
1.30018
 20
0.796386
 30
0.0
 40
0
 41
0
  0
VERTEX
  8
0
 10
1.28711
 20
0.801161
 30
0.0
 40
0
 41
0
  0
VERTEX
  8
0
 10
1.27403
 20
0.796386
 30
0.0
 40
0
 41
0
  0
VERTEX
  8
0
 10
1.26812
 20
0.782118
 30
0.0
 40
0
 41
0
  0
VERTEX
  8
0
 10
1.27403
 20
0.767904
 30
0.0
 40
0
 41
0
  0
VERTEX
  8
0
 10
1.28711
 20
0.763129
 30
0.0
 40
0
 41
0
  0
VERTEX
  8
0
 10
1.30018
 20
0.767904
 30
0.0
 40
0
 41
0
  0
VERTEX
  8
0
 10
1.30615
 20
0.782118
 30
0.0
 40
0
 41
0
  0
SEQEND
 8
0
  0
POLYLINE
  8
0
 62
     173
 66
     1
 10
0
 20
0
 30
0.0
 70
     1
 40
0
 41
0
  0
VERTEX
  8
0
 10
1.30615
 20
0.682129
 30
0.0
 40
0
 41
0
  0
VERTEX
  8
0
 10
1.30018
 20
0.696397
 30
0.0
 40
0
 41
0
  0
VERTEX
  8
0
 10
1.28711
 20
0.701172
 30
0.0
 40
0
 41
0
  0
VERTEX
  8
0
 10
1.27403
 20
0.696397
 30
0.0
 40
0
 41
0
  0
VERTEX
  8
0
 10
1.26812
 20
0.682129
 30
0.0
 40
0
 41
0
  0
VERTEX
  8
0
 10
1.27403
 20
0.667914
 30
0.0
 40
0
 41
0
  0
VERTEX
  8
0
 10
1.28711
 20
0.66314
 30
0.0
 40
0
 41
0
  0
VERTEX
  8
0
 10
1.30018
 20
0.667914
 30
0.0
 40
0
 41
0
  0
VERTEX
  8
0
 10
1.30615
 20
0.682129
 30
0.0
 40
0
 41
0
  0
SEQEND
 8
0
  0
POLYLINE
  8
0
 62
     173
 66
     1
 10
0
 20
0
 30
0.0
 70
     1
 40
0
 41
0
  0
VERTEX
  8
0
 10
1.30615
 20
0.557129
 30
0.0
 40
0
 41
0
  0
VERTEX
  8
0
 10
1.30018
 20
0.571397
 30
0.0
 40
0
 41
0
  0
VERTEX
  8
0
 10
1.28711
 20
0.576172
 30
0.0
 40
0
 41
0
  0
VERTEX
  8
0
 10
1.27403
 20
0.571397
 30
0.0
 40
0
 41
0
  0
VERTEX
  8
0
 10
1.26812
 20
0.557129
 30
0.0
 40
0
 41
0
  0
VERTEX
  8
0
 10
1.27403
 20
0.542914
 30
0.0
 40
0
 41
0
  0
VERTEX
  8
0
 10
1.28711
 20
0.53814
 30
0.0
 40
0
 41
0
  0
VERTEX
  8
0
 10
1.30018
 20
0.542914
 30
0.0
 40
0
 41
0
  0
VERTEX
  8
0
 10
1.30615
 20
0.557129
 30
0.0
 40
0
 41
0
  0
SEQEND
 8
0
  0
POLYLINE
  8
0
 62
     173
 66
     1
 10
0
 20
0
 30
0.0
 70
     1
 40
0
 41
0
  0
VERTEX
  8
0
 10
1.30615
 20
0.457086
 30
0.0
 40
0
 41
0
  0
VERTEX
  8
0
 10
1.30018
 20
0.471354
 30
0.0
 40
0
 41
0
  0
VERTEX
  8
0
 10
1.28711
 20
0.476129
 30
0.0
 40
0
 41
0
  0
VERTEX
  8
0
 10
1.27403
 20
0.471354
 30
0.0
 40
0
 41
0
  0
VERTEX
  8
0
 10
1.26812
 20
0.457086
 30
0.0
 40
0
 41
0
  0
VERTEX
  8
0
 10
1.27403
 20
0.442871
 30
0.0
 40
0
 41
0
  0
VERTEX
  8
0
 10
1.28711
 20
0.438097
 30
0.0
 40
0
 41
0
  0
VERTEX
  8
0
 10
1.30018
 20
0.442871
 30
0.0
 40
0
 41
0
  0
VERTEX
  8
0
 10
1.30615
 20
0.457086
 30
0.0
 40
0
 41
0
  0
SEQEND
 8
0
  0
POLYLINE
  8
0
 62
     173
 66
     1
 10
0
 20
0
 30
0.0
 70
     1
 40
0
 41
0
  0
VERTEX
  8
0
 10
0.248535
 20
1.0325
 30
0.0
 40
0
 41
0
  0
VERTEX
  8
0
 10
0.238661
 20
1.05615
 30
0.0
 40
0
 41
0
  0
VERTEX
  8
0
 10
0.217014
 20
1.06402
 30
0.0
 40
0
 41
0
  0
VERTEX
  8
0
 10
0.195367
 20
1.05615
 30
0.0
 40
0
 41
0
  0
VERTEX
  8
0
 10
0.185547
 20
1.0325
 30
0.0
 40
0
 41
0
  0
VERTEX
  8
0
 10
0.195367
 20
1.0089
 30
0.0
 40
0
 41
0
  0
VERTEX
  8
0
 10
0.217014
 20
1.00103
 30
0.0
 40
0
 41
0
  0
VERTEX
  8
0
 10
0.238661
 20
1.0089
 30
0.0
 40
0
 41
0
  0
VERTEX
  8
0
 10
0.248535
 20
1.0325
 30
0.0
 40
0
 41
0
  0
SEQEND
 8
0
  0
POLYLINE
  8
0
 62
     173
 66
     1
 10
0
 20
0
 30
0.0
 70
     1
 40
0
 41
0
  0
VERTEX
  8
0
 10
0.248535
 20
0.412489
 30
0.0
 40
0
 41
0
  0
VERTEX
  8
0
 10
0.238661
 20
0.436143
 30
0.0
 40
0
 41
0
  0
VERTEX
  8
0
 10
0.217014
 20
0.444065
 30
0.0
 40
0
 41
0
  0
VERTEX
  8
0
 10
0.195367
 20
0.436143
 30
0.0
 40
0
 41
0
  0
VERTEX
  8
0
 10
0.185547
 20
0.412489
 30
0.0
 40
0
 41
0
  0
VERTEX
  8
0
 10
0.195367
 20
0.388889
 30
0.0
 40
0
 41
0
  0
VERTEX
  8
0
 10
0.217014
 20
0.381022
 30
0.0
 40
0
 41
0
  0
VERTEX
  8
0
 10
0.238661
 20
0.388889
 30
0.0
 40
0
 41
0
  0
VERTEX
  8
0
 10
0.248535
 20
0.412489
 30
0.0
 40
0
 41
0
  0
SEQEND
 8
0
  0
POLYLINE
  8
0
 62
     173
 66
     1
 10
0
 20
0
 30
0.0
 70
     1
 40
0
 41
0
  0
VERTEX
  8
0
 10
0.40115
 20
0.947103
 30
0.0
 40
0
 41
0
  0
VERTEX
  8
0
 10
0.395617
 20
0.975151
 30
0.0
 40
0
 41
0
  0
VERTEX
  8
0
 10
0.381131
 20
0.995117
 30
0.0
 40
0
 41
0
  0
VERTEX
  8
0
 10
0.360622
 20
1.00716
 30
0.0
 40
0
 41
0
  0
VERTEX
  8
0
 10
0.337131
 20
1.01112
 30
0.0
 40
0
 41
0
  0
VERTEX
  8
0
 10
0.313585
 20
1.00716
 30
0.0
 40
0
 41
0
  0
VERTEX
  8
0
 10
0.293078
 20
0.995117
 30
0.0
 40
0
 41
0
  0
VERTEX
  8
0
 10
0.278592
 20
0.975151
 30
0.0
 40
0
 41
0
  0
VERTEX
  8
0
 10
0.273113
 20
0.947103
 30
0.0
 40
0
 41
0
  0
VERTEX
  8
0
 10
0.278592
 20
0.919108
 30
0.0
 40
0
 41
0
  0
VERTEX
  8
0
 10
0.293078
 20
0.899143
 30
0.0
 40
0
 41
0
  0
VERTEX
  8
0
 10
0.313585
 20
0.887099
 30
0.0
 40
0
 41
0
  0
VERTEX
  8
0
 10
0.337131
 20
0.883137
 30
0.0
 40
0
 41
0
  0
VERTEX
  8
0
 10
0.360622
 20
0.887099
 30
0.0
 40
0
 41
0
  0
VERTEX
  8
0
 10
0.381131
 20
0.899143
 30
0.0
 40
0
 41
0
  0
VERTEX
  8
0
 10
0.395617
 20
0.919108
 30
0.0
 40
0
 41
0
  0
VERTEX
  8
0
 10
0.40115
 20
0.947103
 30
0.0
 40
0
 41
0
  0
SEQEND
 8
0
  0
POLYLINE
  8
0
 62
     173
 66
     1
 10
0
 20
0
 30
0.0
 70
     1
 40
0
 41
0
  0
VERTEX
  8
0
 10
0.40115
 20
0.497125
 30
0.0
 40
0
 41
0
  0
VERTEX
  8
0
 10
0.395617
 20
0.525174
 30
0.0
 40
0
 41
0
  0
VERTEX
  8
0
 10
0.381131
 20
0.545139
 30
0.0
 40
0
 41
0
  0
VERTEX
  8
0
 10
0.360622
 20
0.557183
 30
0.0
 40
0
 41
0
  0
VERTEX
  8
0
 10
0.337131
 20
0.561143
 30
0.0
 40
0
 41
0
  0
VERTEX
  8
0
 10
0.313585
 20
0.557183
 30
0.0
 40
0
 41
0
  0
VERTEX
  8
0
 10
0.293078
 20
0.545139
 30
0.0
 40
0
 41
0
  0
VERTEX
  8
0
 10
0.278592
 20
0.525174
 30
0.0
 40
0
 41
0
  0
VERTEX
  8
0
 10
0.273113
 20
0.497125
 30
0.0
 40
0
 41
0
  0
VERTEX
  8
0
 10
0.278592
 20
0.469129
 30
0.0
 40
0
 41
0
  0
VERTEX
  8
0
 10
0.293078
 20
0.449164
 30
0.0
 40
0
 41
0
  0
VERTEX
  8
0
 10
0.313585
 20
0.437121
 30
0.0
 40
0
 41
0
  0
VERTEX
  8
0
 10
0.337131
 20
0.43316
 30
0.0
 40
0
 41
0
  0
VERTEX
  8
0
 10
0.360622
 20
0.437121
 30
0.0
 40
0
 41
0
  0
VERTEX
  8
0
 10
0.381131
 20
0.449164
 30
0.0
 40
0
 41
0
  0
VERTEX
  8
0
 10
0.395617
 20
0.469129
 30
0.0
 40
0
 41
0
  0
VERTEX
  8
0
 10
0.40115
 20
0.497125
 30
0.0
 40
0
 41
0
  0
SEQEND
 8
0
  0
POLYLINE
  8
0
 62
     173
 66
     1
 10
0
 20
0
 30
0.0
 70
     1
 40
0
 41
0
  0
VERTEX
  8
0
 10
0.285644
 20
0.197103
 30
0.0
 40
0
 41
0
  0
VERTEX
  8
0
 10
0.277561
 20
0.238064
 30
0.0
 40
0
 41
0
  0
VERTEX
  8
0
 10
0.256401
 20
0.267253
 30
0.0
 40
0
 41
0
  0
VERTEX
  8
0
 10
0.226454
 20
0.284776
 30
0.0
 40
0
 41
0
  0
VERTEX
  8
0
 10
0.192111
 20
0.290636
 30
0.0
 40
0
 41
0
  0
VERTEX
  8
0
 10
0.157769
 20
0.284776
 30
0.0
 40
0
 41
0
  0
VERTEX
  8
0
 10
0.127821
 20
0.267253
 30
0.0
 40
0
 41
0
  0
VERTEX
  8
0
 10
0.106662
 20
0.238064
 30
0.0
 40
0
 41
0
  0
VERTEX
  8
0
 10
0.0986328
 20
0.197103
 30
0.0
 40
0
 41
0
  0
VERTEX
  8
0
 10
0.106662
 20
0.156196
 30
0.0
 40
0
 41
0
  0
VERTEX
  8
0
 10
0.127821
 20
0.127007
 30
0.0
 40
0
 41
0
  0
VERTEX
  8
0
 10
0.157769
 20
0.109483
 30
0.0
 40
0
 41
0
  0
VERTEX
  8
0
 10
0.192111
 20
0.103624
 30
0.0
 40
0
 41
0
  0
VERTEX
  8
0
 10
0.226454
 20
0.109483
 30
0.0
 40
0
 41
0
  0
VERTEX
  8
0
 10
0.256401
 20
0.127007
 30
0.0
 40
0
 41
0
  0
VERTEX
  8
0
 10
0.277561
 20
0.156196
 30
0.0
 40
0
 41
0
  0
VERTEX
  8
0
 10
0.285644
 20
0.197103
 30
0.0
 40
0
 41
0
  0
SEQEND
 8
0
  0
POLYLINE
  8
0
 62
     173
 66
     1
 10
0
 20
0
 30
0.0
 70
     1
 40
0
 41
0
  0
VERTEX
  8
0
 10
0.569119
 20
0.197103
 30
0.0
 40
0
 41
0
  0
VERTEX
  8
0
 10
0.561035
 20
0.238064
 30
0.0
 40
0
 41
0
  0
VERTEX
  8
0
 10
0.539876
 20
0.267253
 30
0.0
 40
0
 41
0
  0
VERTEX
  8
0
 10
0.509928
 20
0.284776
 30
0.0
 40
0
 41
0
  0
VERTEX
  8
0
 10
0.475586
 20
0.290636
 30
0.0
 40
0
 41
0
  0
VERTEX
  8
0
 10
0.441243
 20
0.284776
 30
0.0
 40
0
 41
0
  0
VERTEX
  8
0
 10
0.411296
 20
0.267253
 30
0.0
 40
0
 41
0
  0
VERTEX
  8
0
 10
0.390136
 20
0.238064
 30
0.0
 40
0
 41
0
  0
VERTEX
  8
0
 10
0.382107
 20
0.197103
 30
0.0
 40
0
 41
0
  0
VERTEX
  8
0
 10
0.390136
 20
0.156196
 30
0.0
 40
0
 41
0
  0
VERTEX
  8
0
 10
0.411296
 20
0.127007
 30
0.0
 40
0
 41
0
  0
VERTEX
  8
0
 10
0.441243
 20
0.109483
 30
0.0
 40
0
 41
0
  0
VERTEX
  8
0
 10
0.475586
 20
0.103624
 30
0.0
 40
0
 41
0
  0
VERTEX
  8
0
 10
0.509928
 20
0.109483
 30
0.0
 40
0
 41
0
  0
VERTEX
  8
0
 10
0.539876
 20
0.127007
 30
0.0
 40
0
 41
0
  0
VERTEX
  8
0
 10
0.561035
 20
0.156196
 30
0.0
 40
0
 41
0
  0
VERTEX
  8
0
 10
0.569119
 20
0.197103
 30
0.0
 40
0
 41
0
  0
SEQEND
 8
0
  0
POLYLINE
  8
0
 62
     173
 66
     1
 10
0
 20
0
 30
0.0
 70
     1
 40
0
 41
0
  0
VERTEX
  8
0
 10
1.02561
 20
1.08209
 30
0.0
 40
0
 41
0
  0
VERTEX
  8
0
 10
1.01752
 20
1.12305
 30
0.0
 40
0
 41
0
  0
VERTEX
  8
0
 10
0.996365
 20
1.15223
 30
0.0
 40
0
 41
0
  0
VERTEX
  8
0
 10
0.966417
 20
1.16976
 30
0.0
 40
0
 41
0
  0
VERTEX
  8
0
 10
0.932129
 20
1.17562
 30
0.0
 40
0
 41
0
  0
VERTEX
  8
0
 10
0.897786
 20
1.16976
 30
0.0
 40
0
 41
0
  0
VERTEX
  8
0
 10
0.867839
 20
1.15223
 30
0.0
 40
0
 41
0
  0
VERTEX
  8
0
 10
0.846679
 20
1.12305
 30
0.0
 40
0
 41
0
  0
VERTEX
  8
0
 10
0.83865
 20
1.08209
 30
0.0
 40
0
 41
0
  0
VERTEX
  8
0
 10
0.846679
 20
1.04123
 30
0.0
 40
0
 41
0
  0
VERTEX
  8
0
 10
0.867839
 20
1.01199
 30
0.0
 40
0
 41
0
  0
VERTEX
  8
0
 10
0.897786
 20
0.994467
 30
0.0
 40
0
 41
0
  0
VERTEX
  8
0
 10
0.932129
 20
0.988661
 30
0.0
 40
0
 41
0
  0
VERTEX
  8
0
 10
0.966417
 20
0.994467
 30
0.0
 40
0
 41
0
  0
VERTEX
  8
0
 10
0.996365
 20
1.01199
 30
0.0
 40
0
 41
0
  0
VERTEX
  8
0
 10
1.01752
 20
1.04123
 30
0.0
 40
0
 41
0
  0
VERTEX
  8
0
 10
1.02561
 20
1.08209
 30
0.0
 40
0
 41
0
  0
SEQEND
 8
0
  0
POLYLINE
  8
0
 62
     173
 66
     1
 10
0
 20
0
 30
0.0
 70
     1
 40
0
 41
0
  0
VERTEX
  8
0
 10
1.30914
 20
1.08209
 30
0.0
 40
0
 41
0
  0
VERTEX
  8
0
 10
1.30105
 20
1.12305
 30
0.0
 40
0
 41
0
  0
VERTEX
  8
0
 10
1.27989
 20
1.15223
 30
0.0
 40
0
 41
0
  0
VERTEX
  8
0
 10
1.24995
 20
1.16976
 30
0.0
 40
0
 41
0
  0
VERTEX
  8
0
 10
1.2156
 20
1.17562
 30
0.0
 40
0
 41
0
  0
VERTEX
  8
0
 10
1.18126
 20
1.16976
 30
0.0
 40
0
 41
0
  0
VERTEX
  8
0
 10
1.15131
 20
1.15223
 30
0.0
 40
0
 41
0
  0
VERTEX
  8
0
 10
1.13015
 20
1.12305
 30
0.0
 40
0
 41
0
  0
VERTEX
  8
0
 10
1.12212
 20
1.08209
 30
0.0
 40
0
 41
0
  0
VERTEX
  8
0
 10
1.13015
 20
1.04123
 30
0.0
 40
0
 41
0
  0
VERTEX
  8
0
 10
1.15131
 20
1.01199
 30
0.0
 40
0
 41
0
  0
VERTEX
  8
0
 10
1.18126
 20
0.994467
 30
0.0
 40
0
 41
0
  0
VERTEX
  8
0
 10
1.2156
 20
0.988661
 30
0.0
 40
0
 41
0
  0
VERTEX
  8
0
 10
1.24995
 20
0.994467
 30
0.0
 40
0
 41
0
  0
VERTEX
  8
0
 10
1.27989
 20
1.01199
 30
0.0
 40
0
 41
0
  0
VERTEX
  8
0
 10
1.30105
 20
1.04123
 30
0.0
 40
0
 41
0
  0
VERTEX
  8
0
 10
1.30914
 20
1.08209
 30
0.0
 40
0
 41
0
  0
SEQEND
 8
0
  0
ENDSEC
  0
EOF
