<?xml version="1.0" encoding="UTF-8"?>
<svg xmlns="http://www.w3.org/2000/svg" xmlns:xlink="http://www.w3.org/1999/xlink" width="106pt" height="124pt" viewBox="0 0 106 124" version="1.1">
<g id="surface1">
<path style="fill:none;stroke-width:0.014;stroke-linecap:round;stroke-linejoin:miter;stroke:rgb(100%,49.803922%,45.098039%);stroke-opacity:1;stroke-miterlimit:10;" d="M -0.0000243034 1.649989 L -0.0000243034 0.0199978 " transform="matrix(72,0,0,-72,3.033,121.975)"/>
<path style="fill:none;stroke-width:0.014;stroke-linecap:round;stroke-linejoin:miter;stroke:rgb(100%,49.803922%,45.098039%);stroke-opacity:1;stroke-miterlimit:10;" d="M -0.0000243034 0.0199978 L 1.390004 0.0199978 " transform="matrix(72,0,0,-72,3.033,121.975)"/>
<path style="fill:none;stroke-width:0.014;stroke-linecap:round;stroke-linejoin:miter;stroke:rgb(100%,49.803922%,45.098039%);stroke-opacity:1;stroke-miterlimit:10;" d="M 1.390004 0.0199978 L 1.390004 1.649989 " transform="matrix(72,0,0,-72,3.033,121.975)"/>
<path style="fill:none;stroke-width:0.014;stroke-linecap:round;stroke-linejoin:miter;stroke:rgb(100%,49.803922%,45.098039%);stroke-opacity:1;stroke-miterlimit:10;" d="M 1.390004 1.649989 L -0.0000243034 1.649989 " transform="matrix(72,0,0,-72,3.033,121.975)"/>
<path style=" stroke:none;fill-rule:evenodd;fill:rgb(45.098039%,45.098039%,87.058824%);fill-opacity:1;" d="M 18.511719 28.734375 C 18.511719 27.773438 17.074219 27.773438 17.074219 28.734375 C 17.074219 29.695312 18.511719 29.695312 18.511719 28.734375 "/>
<path style=" stroke:none;fill-rule:evenodd;fill:rgb(45.098039%,45.098039%,87.058824%);fill-opacity:1;" d="M 24.992188 35.214844 C 24.992188 34.253906 23.554688 34.253906 23.554688 35.214844 C 23.554688 36.175781 24.992188 36.175781 24.992188 35.214844 "/>
<path style=" stroke:none;fill-rule:evenodd;fill:rgb(45.098039%,45.098039%,87.058824%);fill-opacity:1;" d="M 33.992188 10.375 C 33.992188 9.414062 32.554688 9.414062 32.554688 10.375 C 32.554688 11.335938 33.992188 11.335938 33.992188 10.375 "/>
<path style=" stroke:none;fill-rule:evenodd;fill:rgb(45.098039%,45.098039%,87.058824%);fill-opacity:1;" d="M 34.496094 34.136719 C 34.496094 33.175781 33.058594 33.175781 33.058594 34.136719 C 33.058594 35.09375 34.496094 35.09375 34.496094 34.136719 "/>
<path style=" stroke:none;fill-rule:evenodd;fill:rgb(45.098039%,45.098039%,87.058824%);fill-opacity:1;" d="M 37.234375 47.816406 C 37.234375 46.855469 35.792969 46.855469 35.792969 47.816406 C 35.792969 48.773438 37.234375 48.773438 37.234375 47.816406 "/>
<path style=" stroke:none;fill-rule:evenodd;fill:rgb(45.098039%,45.098039%,87.058824%);fill-opacity:1;" d="M 44.433594 88.855469 C 44.433594 87.894531 42.992188 87.894531 42.992188 88.855469 C 42.992188 89.816406 44.433594 89.816406 44.433594 88.855469 "/>
<path style=" stroke:none;fill-rule:evenodd;fill:rgb(45.098039%,45.098039%,87.058824%);fill-opacity:1;" d="M 49.113281 47.816406 C 49.113281 46.855469 47.671875 46.855469 47.671875 47.816406 C 47.671875 48.773438 49.113281 48.773438 49.113281 47.816406 "/>
<path style=" stroke:none;fill-rule:evenodd;fill:rgb(45.098039%,45.098039%,87.058824%);fill-opacity:1;" d="M 50.191406 34.136719 C 50.191406 33.175781 48.753906 33.175781 48.753906 34.136719 C 48.753906 35.09375 50.191406 35.09375 50.191406 34.136719 "/>
<path style=" stroke:none;fill-rule:evenodd;fill:rgb(45.098039%,45.098039%,87.058824%);fill-opacity:1;" d="M 61.351562 97.496094 C 61.351562 96.535156 59.914062 96.535156 59.914062 97.496094 C 59.914062 98.453125 61.351562 98.453125 61.351562 97.496094 "/>
<path style=" stroke:none;fill-rule:evenodd;fill:rgb(45.098039%,45.098039%,87.058824%);fill-opacity:1;" d="M 62.792969 23.335938 C 62.792969 22.375 61.351562 22.375 61.351562 23.335938 C 61.351562 24.296875 62.792969 24.296875 62.792969 23.335938 "/>
<path style=" stroke:none;fill-rule:evenodd;fill:rgb(45.098039%,45.098039%,87.058824%);fill-opacity:1;" d="M 62.792969 70.855469 C 62.792969 69.894531 61.351562 69.894531 61.351562 70.855469 C 61.351562 71.816406 62.792969 71.816406 62.792969 70.855469 "/>
<path style=" stroke:none;fill-rule:evenodd;fill:rgb(45.098039%,45.098039%,87.058824%);fill-opacity:1;" d="M 67.472656 80.574219 C 67.472656 79.613281 66.03125 79.613281 66.03125 80.574219 C 66.03125 81.535156 67.472656 81.535156 67.472656 80.574219 "/>
<path style=" stroke:none;fill-rule:evenodd;fill:rgb(45.098039%,45.098039%,87.058824%);fill-opacity:1;" d="M 80.792969 52.496094 C 80.792969 51.535156 79.351562 51.535156 79.351562 52.496094 C 79.351562 53.453125 80.792969 53.453125 80.792969 52.496094 "/>
<path style=" stroke:none;fill-rule:evenodd;fill:rgb(45.098039%,45.098039%,87.058824%);fill-opacity:1;" d="M 81.871094 82.375 C 81.871094 81.414062 80.433594 81.414062 80.433594 82.375 C 80.433594 83.335938 81.871094 83.335938 81.871094 82.375 "/>
<path style=" stroke:none;fill-rule:evenodd;fill:rgb(45.098039%,45.098039%,87.058824%);fill-opacity:1;" d="M 86.191406 64.015625 C 86.191406 63.054688 84.753906 63.054688 84.753906 64.015625 C 84.753906 64.976562 86.191406 64.976562 86.191406 64.015625 "/>
<path style=" stroke:none;fill-rule:evenodd;fill:rgb(45.098039%,45.098039%,87.058824%);fill-opacity:1;" d="M 91.953125 98.214844 C 91.953125 97.253906 90.511719 97.253906 90.511719 98.214844 C 90.511719 99.175781 91.953125 99.175781 91.953125 98.214844 "/>
<path style=" stroke:none;fill-rule:evenodd;fill:rgb(45.098039%,45.098039%,87.058824%);fill-opacity:1;" d="M 97.351562 28.375 C 97.351562 27.414062 95.914062 27.414062 95.914062 28.375 C 95.914062 29.335938 97.351562 29.335938 97.351562 28.375 "/>
<path style=" stroke:none;fill-rule:evenodd;fill:rgb(45.098039%,45.098039%,87.058824%);fill-opacity:1;" d="M 63.511719 91.734375 C 63.511719 90.296875 61.351562 90.296875 61.351562 91.734375 C 61.351562 93.175781 63.511719 93.175781 63.511719 91.734375 "/>
<path style=" stroke:none;fill-rule:evenodd;fill:rgb(45.098039%,45.098039%,87.058824%);fill-opacity:1;" d="M 70.714844 70.136719 C 70.714844 68.695312 68.554688 68.695312 68.554688 70.136719 C 68.554688 71.574219 70.714844 71.574219 70.714844 70.136719 "/>
<path style=" stroke:none;fill-rule:evenodd;fill:rgb(45.098039%,45.098039%,87.058824%);fill-opacity:1;" d="M 70.714844 106.136719 C 70.714844 104.695312 68.554688 104.695312 68.554688 106.136719 C 68.554688 107.574219 70.714844 107.574219 70.714844 106.136719 "/>
<path style=" stroke:none;fill-rule:evenodd;fill:rgb(45.098039%,45.098039%,87.058824%);fill-opacity:1;" d="M 80.433594 91.734375 C 80.433594 90.296875 78.273438 90.296875 78.273438 91.734375 C 78.273438 93.175781 80.433594 93.175781 80.433594 91.734375 "/>
<path style=" stroke:none;fill-rule:evenodd;fill:rgb(45.098039%,45.098039%,87.058824%);fill-opacity:1;" d="M 87.632812 70.136719 C 87.632812 68.695312 85.472656 68.695312 85.472656 70.136719 C 85.472656 71.574219 87.632812 71.574219 87.632812 70.136719 "/>
<path style=" stroke:none;fill-rule:evenodd;fill:rgb(45.098039%,45.098039%,87.058824%);fill-opacity:1;" d="M 87.632812 106.136719 C 87.632812 104.695312 85.472656 104.695312 85.472656 106.136719 C 85.472656 107.574219 87.632812 107.574219 87.632812 106.136719 "/>
<path style=" stroke:none;fill-rule:evenodd;fill:rgb(45.098039%,45.098039%,87.058824%);fill-opacity:1;" d="M 9.332031 45.65625 C 9.332031 43.976562 6.8125 43.976562 6.8125 45.65625 C 6.8125 47.335938 9.332031 47.335938 9.332031 45.65625 "/>
<path style=" stroke:none;fill-rule:evenodd;fill:rgb(45.098039%,45.098039%,87.058824%);fill-opacity:1;" d="M 12.933594 30.535156 C 12.933594 28.855469 10.414062 28.855469 10.414062 30.535156 C 10.414062 32.214844 12.933594 32.214844 12.933594 30.535156 "/>
<path style=" stroke:none;fill-rule:evenodd;fill:rgb(45.098039%,45.098039%,87.058824%);fill-opacity:1;" d="M 46.054688 56.453125 C 46.054688 54.773438 43.53125 54.773438 43.53125 56.453125 C 43.53125 58.136719 46.054688 58.136719 46.054688 56.453125 "/>
<path style=" stroke:none;fill-rule:evenodd;fill:rgb(45.098039%,45.098039%,87.058824%);fill-opacity:1;" d="M 46.054688 63.65625 C 46.054688 61.976562 43.53125 61.976562 43.53125 63.65625 C 43.53125 65.335938 46.054688 65.335938 46.054688 63.65625 "/>
<path style=" stroke:none;fill-rule:evenodd;fill:rgb(45.098039%,45.098039%,87.058824%);fill-opacity:1;" d="M 46.054688 70.855469 C 46.054688 69.175781 43.53125 69.175781 43.53125 70.855469 C 43.53125 72.535156 46.054688 72.535156 46.054688 70.855469 "/>
<path style=" stroke:none;fill-rule:evenodd;fill:rgb(45.098039%,45.098039%,87.058824%);fill-opacity:1;" d="M 46.054688 78.054688 C 46.054688 76.375 43.53125 76.375 43.53125 78.054688 C 43.53125 79.734375 46.054688 79.734375 46.054688 78.054688 "/>
<path style=" stroke:none;fill-rule:evenodd;fill:rgb(45.098039%,45.098039%,87.058824%);fill-opacity:1;" d="M 53.253906 60.054688 C 53.253906 58.375 50.734375 58.375 50.734375 60.054688 C 50.734375 61.734375 53.253906 61.734375 53.253906 60.054688 "/>
<path style=" stroke:none;fill-rule:evenodd;fill:rgb(45.098039%,45.098039%,87.058824%);fill-opacity:1;" d="M 53.253906 67.253906 C 53.253906 65.574219 50.734375 65.574219 50.734375 67.253906 C 50.734375 68.933594 53.253906 68.933594 53.253906 67.253906 "/>
<path style=" stroke:none;fill-rule:evenodd;fill:rgb(45.098039%,45.098039%,87.058824%);fill-opacity:1;" d="M 53.253906 74.453125 C 53.253906 72.773438 50.734375 72.773438 50.734375 74.453125 C 50.734375 76.136719 53.253906 76.136719 53.253906 74.453125 "/>
<path style=" stroke:none;fill-rule:evenodd;fill:rgb(45.098039%,45.098039%,87.058824%);fill-opacity:1;" d="M 53.253906 81.65625 C 53.253906 79.976562 50.734375 79.976562 50.734375 81.65625 C 50.734375 83.335938 53.253906 83.335938 53.253906 81.65625 "/>
<path style=" stroke:none;fill-rule:evenodd;fill:rgb(45.098039%,45.098039%,87.058824%);fill-opacity:1;" d="M 9.082031 7.855469 C 9.082031 6.03125 6.34375 6.03125 6.34375 7.855469 C 6.34375 9.679688 9.082031 9.679688 9.082031 7.855469 "/>
<path style=" stroke:none;fill-rule:evenodd;fill:rgb(45.098039%,45.098039%,87.058824%);fill-opacity:1;" d="M 9.082031 15.054688 C 9.082031 13.230469 6.34375 13.230469 6.34375 15.054688 C 6.34375 16.878906 9.082031 16.878906 9.082031 15.054688 "/>
<path style=" stroke:none;fill-rule:evenodd;fill:rgb(45.098039%,45.098039%,87.058824%);fill-opacity:1;" d="M 9.082031 22.253906 C 9.082031 20.429688 6.34375 20.429688 6.34375 22.253906 C 6.34375 24.078125 9.082031 24.078125 9.082031 22.253906 "/>
<path style=" stroke:none;fill-rule:evenodd;fill:rgb(45.098039%,45.098039%,87.058824%);fill-opacity:1;" d="M 17.359375 7.855469 C 17.359375 6.03125 14.625 6.03125 14.625 7.855469 C 14.625 9.679688 17.359375 9.679688 17.359375 7.855469 "/>
<path style=" stroke:none;fill-rule:evenodd;fill:rgb(45.098039%,45.098039%,87.058824%);fill-opacity:1;" d="M 17.359375 15.054688 C 17.359375 13.230469 14.625 13.230469 14.625 15.054688 C 14.625 16.878906 17.359375 16.878906 17.359375 15.054688 "/>
<path style=" stroke:none;fill-rule:evenodd;fill:rgb(45.098039%,45.098039%,87.058824%);fill-opacity:1;" d="M 17.359375 22.253906 C 17.359375 20.429688 14.625 20.429688 14.625 22.253906 C 14.625 24.078125 17.359375 24.078125 17.359375 22.253906 "/>
<path style=" stroke:none;fill-rule:evenodd;fill:rgb(45.098039%,45.098039%,87.058824%);fill-opacity:1;" d="M 25.640625 7.855469 C 25.640625 6.03125 22.90625 6.03125 22.90625 7.855469 C 22.90625 9.679688 25.640625 9.679688 25.640625 7.855469 "/>
<path style=" stroke:none;fill-rule:evenodd;fill:rgb(45.098039%,45.098039%,87.058824%);fill-opacity:1;" d="M 25.640625 15.054688 C 25.640625 13.230469 22.90625 13.230469 22.90625 15.054688 C 22.90625 16.878906 25.640625 16.878906 25.640625 15.054688 "/>
<path style=" stroke:none;fill-rule:evenodd;fill:rgb(45.098039%,45.098039%,87.058824%);fill-opacity:1;" d="M 25.640625 22.253906 C 25.640625 20.429688 22.90625 20.429688 22.90625 22.253906 C 22.90625 24.078125 25.640625 24.078125 25.640625 22.253906 "/>
<path style=" stroke:none;fill-rule:evenodd;fill:rgb(45.098039%,45.098039%,87.058824%);fill-opacity:1;" d="M 54.082031 7.855469 C 54.082031 6.03125 51.34375 6.03125 51.34375 7.855469 C 51.34375 9.679688 54.082031 9.679688 54.082031 7.855469 "/>
<path style=" stroke:none;fill-rule:evenodd;fill:rgb(45.098039%,45.098039%,87.058824%);fill-opacity:1;" d="M 54.082031 15.054688 C 54.082031 13.230469 51.34375 13.230469 51.34375 15.054688 C 51.34375 16.878906 54.082031 16.878906 54.082031 15.054688 "/>
<path style=" stroke:none;fill-rule:evenodd;fill:rgb(45.098039%,45.098039%,87.058824%);fill-opacity:1;" d="M 96.5625 64.734375 C 96.5625 62.910156 93.824219 62.910156 93.824219 64.734375 C 93.824219 66.558594 96.5625 66.558594 96.5625 64.734375 "/>
<path style=" stroke:none;fill-rule:evenodd;fill:rgb(45.098039%,45.098039%,87.058824%);fill-opacity:1;" d="M 96.5625 71.933594 C 96.5625 70.109375 93.824219 70.109375 93.824219 71.933594 C 93.824219 73.757812 96.5625 73.757812 96.5625 71.933594 "/>
<path style=" stroke:none;fill-rule:evenodd;fill:rgb(45.098039%,45.098039%,87.058824%);fill-opacity:1;" d="M 96.5625 80.933594 C 96.5625 79.109375 93.824219 79.109375 93.824219 80.933594 C 93.824219 82.757812 96.5625 82.757812 96.5625 80.933594 "/>
<path style=" stroke:none;fill-rule:evenodd;fill:rgb(45.098039%,45.098039%,87.058824%);fill-opacity:1;" d="M 96.5625 88.136719 C 96.5625 86.3125 93.824219 86.3125 93.824219 88.136719 C 93.824219 89.960938 96.5625 89.960938 96.5625 88.136719 "/>
<path style=" stroke:none;fill-rule:evenodd;fill:rgb(45.098039%,45.098039%,87.058824%);fill-opacity:1;" d="M 20.414062 46.707031 C 20.414062 43.683594 15.878906 43.683594 15.878906 46.707031 C 15.878906 49.730469 20.414062 49.730469 20.414062 46.707031 "/>
<path style=" stroke:none;fill-rule:evenodd;fill:rgb(45.098039%,45.098039%,87.058824%);fill-opacity:1;" d="M 20.414062 91.347656 C 20.414062 88.320312 15.878906 88.320312 15.878906 91.347656 C 15.878906 94.371094 20.414062 94.371094 20.414062 91.347656 "/>
<path style=" stroke:none;fill-rule:evenodd;fill:rgb(45.098039%,45.098039%,87.058824%);fill-opacity:1;" d="M 31.402344 52.855469 C 31.402344 46.710938 22.183594 46.710938 22.183594 52.855469 C 22.183594 59 31.402344 59 31.402344 52.855469 "/>
<path style=" stroke:none;fill-rule:evenodd;fill:rgb(45.098039%,45.098039%,87.058824%);fill-opacity:1;" d="M 31.402344 85.253906 C 31.402344 79.109375 22.183594 79.109375 22.183594 85.253906 C 22.183594 91.398438 31.402344 91.398438 31.402344 85.253906 "/>
<path style=" stroke:none;fill-rule:evenodd;fill:rgb(45.098039%,45.098039%,87.058824%);fill-opacity:1;" d="M 23.085938 106.855469 C 23.085938 97.878906 9.621094 97.878906 9.621094 106.855469 C 9.621094 115.832031 23.085938 115.832031 23.085938 106.855469 "/>
<path style=" stroke:none;fill-rule:evenodd;fill:rgb(45.098039%,45.098039%,87.058824%);fill-opacity:1;" d="M 43.496094 106.855469 C 43.496094 97.878906 30.03125 97.878906 30.03125 106.855469 C 30.03125 115.832031 43.496094 115.832031 43.496094 106.855469 "/>
<path style=" stroke:none;fill-rule:evenodd;fill:rgb(45.098039%,45.098039%,87.058824%);fill-opacity:1;" d="M 76.363281 43.136719 C 76.363281 34.160156 62.902344 34.160156 62.902344 43.136719 C 62.902344 52.109375 76.363281 52.109375 76.363281 43.136719 "/>
<path style=" stroke:none;fill-rule:evenodd;fill:rgb(45.098039%,45.098039%,87.058824%);fill-opacity:1;" d="M 96.777344 43.136719 C 96.777344 34.160156 83.3125 34.160156 83.3125 43.136719 C 83.3125 52.109375 96.777344 52.109375 96.777344 43.136719 "/>
</g>
</svg>
