<?xml version="1.0" encoding="UTF-8"?>
<svg xmlns="http://www.w3.org/2000/svg" xmlns:xlink="http://www.w3.org/1999/xlink" width="162pt" height="71pt" viewBox="0 0 162 71" version="1.1">
<g id="surface1">
<path style="fill:none;stroke-width:0.01;stroke-linecap:round;stroke-linejoin:miter;stroke:rgb(100%,49.803922%,45.098039%);stroke-opacity:1;stroke-miterlimit:10;" d="M 1.659911 0.754634 L 1.639946 0.774654 " transform="matrix(72,0,0,-72,-4.77144,70.361)"/>
<path style="fill:none;stroke-width:0.01;stroke-linecap:round;stroke-linejoin:miter;stroke:rgb(100%,49.803922%,45.098039%);stroke-opacity:1;stroke-miterlimit:10;" d="M 1.639946 0.774654 L 1.639946 0.949675 " transform="matrix(72,0,0,-72,-4.77144,70.361)"/>
<path style="fill:none;stroke-width:0.01;stroke-linecap:round;stroke-linejoin:miter;stroke:rgb(100%,49.803922%,45.098039%);stroke-opacity:1;stroke-miterlimit:10;" d="M 1.639946 0.949675 L 0.729898 0.949675 " transform="matrix(72,0,0,-72,-4.77144,70.361)"/>
<path style="fill:none;stroke-width:0.01;stroke-linecap:round;stroke-linejoin:miter;stroke:rgb(100%,49.803922%,45.098039%);stroke-opacity:1;stroke-miterlimit:10;" d="M 0.729898 0.949675 L 0.729898 0.779645 " transform="matrix(72,0,0,-72,-4.77144,70.361)"/>
<path style="fill:none;stroke-width:0.01;stroke-linecap:round;stroke-linejoin:miter;stroke:rgb(100%,49.803922%,45.098039%);stroke-opacity:1;stroke-miterlimit:10;" d="M 0.729898 0.779645 L 0.704942 0.754634 " transform="matrix(72,0,0,-72,-4.77144,70.361)"/>
<path style="fill:none;stroke-width:0.01;stroke-linecap:round;stroke-linejoin:miter;stroke:rgb(100%,49.803922%,45.098039%);stroke-opacity:1;stroke-miterlimit:10;" d="M 0.124918 0.0196623 L 2.259901 0.0196623 " transform="matrix(72,0,0,-72,-4.77144,70.361)"/>
<path style="fill:none;stroke-width:0.01;stroke-linecap:round;stroke-linejoin:miter;stroke:rgb(100%,49.803922%,45.098039%);stroke-opacity:1;stroke-miterlimit:10;" d="M 2.259901 0.0196623 L 2.259901 0.754634 " transform="matrix(72,0,0,-72,-4.77144,70.361)"/>
<path style="fill:none;stroke-width:0.01;stroke-linecap:round;stroke-linejoin:miter;stroke:rgb(100%,49.803922%,45.098039%);stroke-opacity:1;stroke-miterlimit:10;" d="M 0.704942 0.754634 L 0.124918 0.754634 " transform="matrix(72,0,0,-72,-4.77144,70.361)"/>
<path style="fill:none;stroke-width:0.01;stroke-linecap:round;stroke-linejoin:miter;stroke:rgb(100%,49.803922%,45.098039%);stroke-opacity:1;stroke-miterlimit:10;" d="M 0.124918 0.754634 L 0.124918 0.0196623 " transform="matrix(72,0,0,-72,-4.77144,70.361)"/>
<path style="fill:none;stroke-width:0.01;stroke-linecap:round;stroke-linejoin:miter;stroke:rgb(100%,49.803922%,45.098039%);stroke-opacity:1;stroke-miterlimit:10;" d="M 2.259901 0.754634 L 1.659911 0.754634 " transform="matrix(72,0,0,-72,-4.77144,70.361)"/>
<path style=" stroke:none;fill-rule:evenodd;fill:rgb(45.098039%,45.098039%,87.058824%);fill-opacity:1;" d="M 53.46875 42.667969 C 53.46875 41.324219 51.453125 41.324219 51.453125 42.667969 C 51.453125 44.015625 53.46875 44.015625 53.46875 42.667969 "/>
<path style=" stroke:none;fill-rule:evenodd;fill:rgb(45.098039%,45.098039%,87.058824%);fill-opacity:1;" d="M 53.46875 49.871094 C 53.46875 48.527344 51.453125 48.527344 51.453125 49.871094 C 51.453125 51.214844 53.46875 51.214844 53.46875 49.871094 "/>
<path style=" stroke:none;fill-rule:evenodd;fill:rgb(45.098039%,45.098039%,87.058824%);fill-opacity:1;" d="M 53.46875 57.070312 C 53.46875 55.726562 51.453125 55.726562 51.453125 57.070312 C 51.453125 58.414062 53.46875 58.414062 53.46875 57.070312 "/>
<path style=" stroke:none;fill-rule:evenodd;fill:rgb(45.098039%,45.098039%,87.058824%);fill-opacity:1;" d="M 53.46875 64.269531 C 53.46875 62.925781 51.453125 62.925781 51.453125 64.269531 C 51.453125 65.613281 53.46875 65.613281 53.46875 64.269531 "/>
<path style=" stroke:none;fill-rule:evenodd;fill:rgb(45.098039%,45.098039%,87.058824%);fill-opacity:1;" d="M 75.070312 42.667969 C 75.070312 41.324219 73.054688 41.324219 73.054688 42.667969 C 73.054688 44.015625 75.070312 44.015625 75.070312 42.667969 "/>
<path style=" stroke:none;fill-rule:evenodd;fill:rgb(45.098039%,45.098039%,87.058824%);fill-opacity:1;" d="M 75.070312 49.871094 C 75.070312 48.527344 73.054688 48.527344 73.054688 49.871094 C 73.054688 51.214844 75.070312 51.214844 75.070312 49.871094 "/>
<path style=" stroke:none;fill-rule:evenodd;fill:rgb(45.098039%,45.098039%,87.058824%);fill-opacity:1;" d="M 75.070312 57.070312 C 75.070312 55.726562 73.054688 55.726562 73.054688 57.070312 C 73.054688 58.414062 75.070312 58.414062 75.070312 57.070312 "/>
<path style=" stroke:none;fill-rule:evenodd;fill:rgb(45.098039%,45.098039%,87.058824%);fill-opacity:1;" d="M 75.070312 64.269531 C 75.070312 62.925781 73.054688 62.925781 73.054688 64.269531 C 73.054688 65.613281 75.070312 65.613281 75.070312 64.269531 "/>
<path style=" stroke:none;fill-rule:evenodd;fill:rgb(45.098039%,45.098039%,87.058824%);fill-opacity:1;" d="M 88.03125 12.789062 C 88.03125 11.445312 86.011719 11.445312 86.011719 12.789062 C 86.011719 14.132812 88.03125 14.132812 88.03125 12.789062 "/>
<path style=" stroke:none;fill-rule:evenodd;fill:rgb(45.098039%,45.098039%,87.058824%);fill-opacity:1;" d="M 88.03125 19.988281 C 88.03125 18.644531 86.011719 18.644531 86.011719 19.988281 C 86.011719 21.332031 88.03125 21.332031 88.03125 19.988281 "/>
<path style=" stroke:none;fill-rule:evenodd;fill:rgb(45.098039%,45.098039%,87.058824%);fill-opacity:1;" d="M 88.03125 27.191406 C 88.03125 25.847656 86.011719 25.847656 86.011719 27.191406 C 86.011719 28.535156 88.03125 28.535156 88.03125 27.191406 "/>
<path style=" stroke:none;fill-rule:evenodd;fill:rgb(45.098039%,45.098039%,87.058824%);fill-opacity:1;" d="M 88.03125 34.390625 C 88.03125 33.046875 86.011719 33.046875 86.011719 34.390625 C 86.011719 35.734375 88.03125 35.734375 88.03125 34.390625 "/>
<path style=" stroke:none;fill-rule:evenodd;fill:rgb(45.098039%,45.098039%,87.058824%);fill-opacity:1;" d="M 88.03125 42.667969 C 88.03125 41.324219 86.011719 41.324219 86.011719 42.667969 C 86.011719 44.015625 88.03125 44.015625 88.03125 42.667969 "/>
<path style=" stroke:none;fill-rule:evenodd;fill:rgb(45.098039%,45.098039%,87.058824%);fill-opacity:1;" d="M 88.03125 49.871094 C 88.03125 48.527344 86.011719 48.527344 86.011719 49.871094 C 86.011719 51.214844 88.03125 51.214844 88.03125 49.871094 "/>
<path style=" stroke:none;fill-rule:evenodd;fill:rgb(45.098039%,45.098039%,87.058824%);fill-opacity:1;" d="M 88.03125 57.070312 C 88.03125 55.726562 86.011719 55.726562 86.011719 57.070312 C 86.011719 58.414062 88.03125 58.414062 88.03125 57.070312 "/>
<path style=" stroke:none;fill-rule:evenodd;fill:rgb(45.098039%,45.098039%,87.058824%);fill-opacity:1;" d="M 88.03125 64.269531 C 88.03125 62.925781 86.011719 62.925781 86.011719 64.269531 C 86.011719 65.613281 88.03125 65.613281 88.03125 64.269531 "/>
<path style=" stroke:none;fill-rule:evenodd;fill:rgb(45.098039%,45.098039%,87.058824%);fill-opacity:1;" d="M 109.628906 12.789062 C 109.628906 11.445312 107.613281 11.445312 107.613281 12.789062 C 107.613281 14.132812 109.628906 14.132812 109.628906 12.789062 "/>
<path style=" stroke:none;fill-rule:evenodd;fill:rgb(45.098039%,45.098039%,87.058824%);fill-opacity:1;" d="M 109.628906 19.988281 C 109.628906 18.644531 107.613281 18.644531 107.613281 19.988281 C 107.613281 21.332031 109.628906 21.332031 109.628906 19.988281 "/>
<path style=" stroke:none;fill-rule:evenodd;fill:rgb(45.098039%,45.098039%,87.058824%);fill-opacity:1;" d="M 109.628906 27.191406 C 109.628906 25.847656 107.613281 25.847656 107.613281 27.191406 C 107.613281 28.535156 109.628906 28.535156 109.628906 27.191406 "/>
<path style=" stroke:none;fill-rule:evenodd;fill:rgb(45.098039%,45.098039%,87.058824%);fill-opacity:1;" d="M 109.628906 34.390625 C 109.628906 33.046875 107.613281 33.046875 107.613281 34.390625 C 107.613281 35.734375 109.628906 35.734375 109.628906 34.390625 "/>
<path style=" stroke:none;fill-rule:evenodd;fill:rgb(45.098039%,45.098039%,87.058824%);fill-opacity:1;" d="M 109.628906 42.667969 C 109.628906 41.324219 107.613281 41.324219 107.613281 42.667969 C 107.613281 44.015625 109.628906 44.015625 109.628906 42.667969 "/>
<path style=" stroke:none;fill-rule:evenodd;fill:rgb(45.098039%,45.098039%,87.058824%);fill-opacity:1;" d="M 109.628906 49.871094 C 109.628906 48.527344 107.613281 48.527344 107.613281 49.871094 C 107.613281 51.214844 109.628906 51.214844 109.628906 49.871094 "/>
<path style=" stroke:none;fill-rule:evenodd;fill:rgb(45.098039%,45.098039%,87.058824%);fill-opacity:1;" d="M 109.628906 57.070312 C 109.628906 55.726562 107.613281 55.726562 107.613281 57.070312 C 107.613281 58.414062 109.628906 58.414062 109.628906 57.070312 "/>
<path style=" stroke:none;fill-rule:evenodd;fill:rgb(45.098039%,45.098039%,87.058824%);fill-opacity:1;" d="M 109.628906 64.269531 C 109.628906 62.925781 107.613281 62.925781 107.613281 64.269531 C 107.613281 65.613281 109.628906 65.613281 109.628906 64.269531 "/>
<path style=" stroke:none;fill-rule:evenodd;fill:rgb(45.098039%,45.098039%,87.058824%);fill-opacity:1;" d="M 52.101562 5.589844 C 52.101562 4.148438 49.941406 4.148438 49.941406 5.589844 C 49.941406 7.03125 52.101562 7.03125 52.101562 5.589844 "/>
<path style=" stroke:none;fill-rule:evenodd;fill:rgb(45.098039%,45.098039%,87.058824%);fill-opacity:1;" d="M 52.101562 12.789062 C 52.101562 11.351562 49.941406 11.351562 49.941406 12.789062 C 49.941406 14.230469 52.101562 14.230469 52.101562 12.789062 "/>
<path style=" stroke:none;fill-rule:evenodd;fill:rgb(45.098039%,45.098039%,87.058824%);fill-opacity:1;" d="M 52.460938 28.269531 C 52.460938 26.828125 50.300781 26.828125 50.300781 28.269531 C 50.300781 29.710938 52.460938 29.710938 52.460938 28.269531 "/>
<path style=" stroke:none;fill-rule:evenodd;fill:rgb(45.098039%,45.098039%,87.058824%);fill-opacity:1;" d="M 52.460938 34.75 C 52.460938 33.308594 50.300781 33.308594 50.300781 34.75 C 50.300781 36.191406 52.460938 36.191406 52.460938 34.75 "/>
<path style=" stroke:none;fill-rule:evenodd;fill:rgb(45.098039%,45.098039%,87.058824%);fill-opacity:1;" d="M 80.902344 5.589844 C 80.902344 4.148438 78.742188 4.148438 78.742188 5.589844 C 78.742188 7.03125 80.902344 7.03125 80.902344 5.589844 "/>
<path style=" stroke:none;fill-rule:evenodd;fill:rgb(45.098039%,45.098039%,87.058824%);fill-opacity:1;" d="M 80.902344 12.789062 C 80.902344 11.351562 78.742188 11.351562 78.742188 12.789062 C 78.742188 14.230469 80.902344 14.230469 80.902344 12.789062 "/>
<path style=" stroke:none;fill-rule:evenodd;fill:rgb(45.098039%,45.098039%,87.058824%);fill-opacity:1;" d="M 81.261719 28.269531 C 81.261719 26.828125 79.101562 26.828125 79.101562 28.269531 C 79.101562 29.710938 81.261719 29.710938 81.261719 28.269531 "/>
<path style=" stroke:none;fill-rule:evenodd;fill:rgb(45.098039%,45.098039%,87.058824%);fill-opacity:1;" d="M 81.261719 34.75 C 81.261719 33.308594 79.101562 33.308594 79.101562 34.75 C 79.101562 36.191406 81.261719 36.191406 81.261719 34.75 "/>
<path style=" stroke:none;fill-rule:evenodd;fill:rgb(45.098039%,45.098039%,87.058824%);fill-opacity:1;" d="M 37.519531 30.070312 C 37.519531 28.390625 35 28.390625 35 30.070312 C 35 31.75 37.519531 31.75 37.519531 30.070312 "/>
<path style=" stroke:none;fill-rule:evenodd;fill:rgb(45.098039%,45.098039%,87.058824%);fill-opacity:1;" d="M 37.519531 37.269531 C 37.519531 35.589844 35 35.589844 35 37.269531 C 35 38.949219 37.519531 38.949219 37.519531 37.269531 "/>
<path style=" stroke:none;fill-rule:evenodd;fill:rgb(45.098039%,45.098039%,87.058824%);fill-opacity:1;" d="M 37.519531 44.46875 C 37.519531 42.789062 35 42.789062 35 44.46875 C 35 46.148438 37.519531 46.148438 37.519531 44.46875 "/>
<path style=" stroke:none;fill-rule:evenodd;fill:rgb(45.098039%,45.098039%,87.058824%);fill-opacity:1;" d="M 37.519531 51.667969 C 37.519531 49.988281 35 49.988281 35 51.667969 C 35 53.351562 37.519531 53.351562 37.519531 51.667969 "/>
<path style=" stroke:none;fill-rule:evenodd;fill:rgb(45.098039%,45.098039%,87.058824%);fill-opacity:1;" d="M 44.722656 33.667969 C 44.722656 31.988281 42.203125 31.988281 42.203125 33.667969 C 42.203125 35.351562 44.722656 35.351562 44.722656 33.667969 "/>
<path style=" stroke:none;fill-rule:evenodd;fill:rgb(45.098039%,45.098039%,87.058824%);fill-opacity:1;" d="M 44.722656 40.871094 C 44.722656 39.191406 42.203125 39.191406 42.203125 40.871094 C 42.203125 42.550781 44.722656 42.550781 44.722656 40.871094 "/>
<path style=" stroke:none;fill-rule:evenodd;fill:rgb(45.098039%,45.098039%,87.058824%);fill-opacity:1;" d="M 44.722656 48.070312 C 44.722656 46.390625 42.203125 46.390625 42.203125 48.070312 C 42.203125 49.75 44.722656 49.75 44.722656 48.070312 "/>
<path style=" stroke:none;fill-rule:evenodd;fill:rgb(45.098039%,45.098039%,87.058824%);fill-opacity:1;" d="M 44.722656 55.269531 C 44.722656 53.589844 42.203125 53.589844 42.203125 55.269531 C 42.203125 56.949219 44.722656 56.949219 44.722656 55.269531 "/>
<path style=" stroke:none;fill-rule:evenodd;fill:rgb(45.098039%,45.098039%,87.058824%);fill-opacity:1;" d="M 118.882812 33.667969 C 118.882812 31.988281 116.363281 31.988281 116.363281 33.667969 C 116.363281 35.351562 118.882812 35.351562 118.882812 33.667969 "/>
<path style=" stroke:none;fill-rule:evenodd;fill:rgb(45.098039%,45.098039%,87.058824%);fill-opacity:1;" d="M 118.882812 40.871094 C 118.882812 39.191406 116.363281 39.191406 116.363281 40.871094 C 116.363281 42.550781 118.882812 42.550781 118.882812 40.871094 "/>
<path style=" stroke:none;fill-rule:evenodd;fill:rgb(45.098039%,45.098039%,87.058824%);fill-opacity:1;" d="M 118.882812 48.070312 C 118.882812 46.390625 116.363281 46.390625 116.363281 48.070312 C 116.363281 49.75 118.882812 49.75 118.882812 48.070312 "/>
<path style=" stroke:none;fill-rule:evenodd;fill:rgb(45.098039%,45.098039%,87.058824%);fill-opacity:1;" d="M 118.882812 55.269531 C 118.882812 53.589844 116.363281 53.589844 116.363281 55.269531 C 116.363281 56.949219 118.882812 56.949219 118.882812 55.269531 "/>
<path style=" stroke:none;fill-rule:evenodd;fill:rgb(45.098039%,45.098039%,87.058824%);fill-opacity:1;" d="M 126.082031 30.070312 C 126.082031 28.390625 123.5625 28.390625 123.5625 30.070312 C 123.5625 31.75 126.082031 31.75 126.082031 30.070312 "/>
<path style=" stroke:none;fill-rule:evenodd;fill:rgb(45.098039%,45.098039%,87.058824%);fill-opacity:1;" d="M 126.082031 37.269531 C 126.082031 35.589844 123.5625 35.589844 123.5625 37.269531 C 123.5625 38.949219 126.082031 38.949219 126.082031 37.269531 "/>
<path style=" stroke:none;fill-rule:evenodd;fill:rgb(45.098039%,45.098039%,87.058824%);fill-opacity:1;" d="M 126.082031 44.46875 C 126.082031 42.789062 123.5625 42.789062 123.5625 44.46875 C 123.5625 46.148438 126.082031 46.148438 126.082031 44.46875 "/>
<path style=" stroke:none;fill-rule:evenodd;fill:rgb(45.098039%,45.098039%,87.058824%);fill-opacity:1;" d="M 126.082031 51.667969 C 126.082031 49.988281 123.5625 49.988281 123.5625 51.667969 C 123.5625 53.351562 126.082031 53.351562 126.082031 51.667969 "/>
<path style=" stroke:none;fill-rule:evenodd;fill:rgb(45.098039%,45.098039%,87.058824%);fill-opacity:1;" d="M 95.589844 5.589844 C 95.589844 3.765625 92.851562 3.765625 92.851562 5.589844 C 92.851562 7.414062 95.589844 7.414062 95.589844 5.589844 "/>
<path style=" stroke:none;fill-rule:evenodd;fill:rgb(45.098039%,45.098039%,87.058824%);fill-opacity:1;" d="M 102.789062 5.589844 C 102.789062 3.765625 100.054688 3.765625 100.054688 5.589844 C 100.054688 7.414062 102.789062 7.414062 102.789062 5.589844 "/>
<path style=" stroke:none;fill-rule:evenodd;fill:rgb(45.098039%,45.098039%,87.058824%);fill-opacity:1;" d="M 11.882812 20.3125 C 11.882812 17.289062 7.347656 17.289062 7.347656 20.3125 C 7.347656 23.335938 11.882812 23.335938 11.882812 20.3125 "/>
<path style=" stroke:none;fill-rule:evenodd;fill:rgb(45.098039%,45.098039%,87.058824%);fill-opacity:1;" d="M 11.882812 64.960938 C 11.882812 61.9375 7.347656 61.9375 7.347656 64.960938 C 7.347656 67.984375 11.882812 67.984375 11.882812 64.960938 "/>
<path style=" stroke:none;fill-rule:evenodd;fill:rgb(45.098039%,45.098039%,87.058824%);fill-opacity:1;" d="M 153.738281 20.3125 C 153.738281 17.289062 149.199219 17.289062 149.199219 20.3125 C 149.199219 23.335938 153.738281 23.335938 153.738281 20.3125 "/>
<path style=" stroke:none;fill-rule:evenodd;fill:rgb(45.098039%,45.098039%,87.058824%);fill-opacity:1;" d="M 153.738281 64.960938 C 153.738281 61.9375 149.199219 61.9375 149.199219 64.960938 C 149.199219 67.984375 153.738281 67.984375 153.738281 64.960938 "/>
<path style=" stroke:none;fill-rule:evenodd;fill:rgb(45.098039%,45.098039%,87.058824%);fill-opacity:1;" d="M 22.871094 26.46875 C 22.871094 20.324219 13.652344 20.324219 13.652344 26.46875 C 13.652344 32.613281 22.871094 32.613281 22.871094 26.46875 "/>
<path style=" stroke:none;fill-rule:evenodd;fill:rgb(45.098039%,45.098039%,87.058824%);fill-opacity:1;" d="M 22.871094 58.871094 C 22.871094 52.726562 13.652344 52.726562 13.652344 58.871094 C 13.652344 65.015625 22.871094 65.015625 22.871094 58.871094 "/>
<path style=" stroke:none;fill-rule:evenodd;fill:rgb(45.098039%,45.098039%,87.058824%);fill-opacity:1;" d="M 147.429688 26.46875 C 147.429688 20.324219 138.214844 20.324219 138.214844 26.46875 C 138.214844 32.613281 147.429688 32.613281 147.429688 26.46875 "/>
<path style=" stroke:none;fill-rule:evenodd;fill:rgb(45.098039%,45.098039%,87.058824%);fill-opacity:1;" d="M 147.429688 58.871094 C 147.429688 52.726562 138.214844 52.726562 138.214844 58.871094 C 138.214844 65.015625 147.429688 65.015625 147.429688 58.871094 "/>
</g>
</svg>
