  0
SECTION
  2
HEADER
  9
$ACADVER
  1
AC1009
  9
$EXTMIN
 10
0.0
 20
0.0
 30
0.0
  9
$EXTMAX
 10
1000.0
 20
1000.0
 30
0.0
  9
$FILLMODE
 70
 0
  9
$SPLFRAME
 70
 1
  0
ENDSEC
  0
SECTION
  2
TABLES
  0
TABLE
  2
LAYER
 70
1
  0
LAYER
  2
0
 70
     0
 62
     7
  6
CONTINUOUS
  0
ENDTAB
  0
ENDSEC
  0
SECTION
  2
ENTITIES
  0
POLYLINE
  8
0
 62
     13
 66
     1
 10
0
 20
0
 30
0.0
 40
0.72
 41
0.72
  0
VERTEX
  8
0
 10
1.54004
 20
0.740072
 30
0.0
 40
0.01
 41
0.01
  0
VERTEX
  8
0
 10
1.52007
 20
0.760092
 30
0.0
 40
0.01
 41
0.01
  0
SEQEND
 8
0
  0
POLYLINE
  8
0
 62
     13
 66
     1
 10
0
 20
0
 30
0.0
 40
0.72
 41
0.72
  0
VERTEX
  8
0
 10
1.52007
 20
0.760092
 30
0.0
 40
0.01
 41
0.01
  0
VERTEX
  8
0
 10
1.52007
 20
0.935113
 30
0.0
 40
0.01
 41
0.01
  0
SEQEND
 8
0
  0
POLYLINE
  8
0
 62
     13
 66
     1
 10
0
 20
0
 30
0.0
 40
0.72
 41
0.72
  0
VERTEX
  8
0
 10
1.52007
 20
0.935113
 30
0.0
 40
0.01
 41
0.01
  0
VERTEX
  8
0
 10
0.610026
 20
0.935113
 30
0.0
 40
0.01
 41
0.01
  0
SEQEND
 8
0
  0
POLYLINE
  8
0
 62
     13
 66
     1
 10
0
 20
0
 30
0.0
 40
0.72
 41
0.72
  0
VERTEX
  8
0
 10
0.610026
 20
0.935113
 30
0.0
 40
0.01
 41
0.01
  0
VERTEX
  8
0
 10
0.610026
 20
0.765082
 30
0.0
 40
0.01
 41
0.01
  0
SEQEND
 8
0
  0
POLYLINE
  8
0
 62
     13
 66
     1
 10
0
 20
0
 30
0.0
 40
0.72
 41
0.72
  0
VERTEX
  8
0
 10
0.610026
 20
0.765082
 30
0.0
 40
0.01
 41
0.01
  0
VERTEX
  8
0
 10
0.585069
 20
0.740072
 30
0.0
 40
0.01
 41
0.01
  0
SEQEND
 8
0
  0
POLYLINE
  8
0
 62
     13
 66
     1
 10
0
 20
0
 30
0.0
 40
0.72
 41
0.72
  0
VERTEX
  8
0
 10
0.00504557
 20
0.00509983
 30
0.0
 40
0.01
 41
0.01
  0
VERTEX
  8
0
 10
2.14003
 20
0.00509983
 30
0.0
 40
0.01
 41
0.01
  0
SEQEND
 8
0
  0
POLYLINE
  8
0
 62
     13
 66
     1
 10
0
 20
0
 30
0.0
 40
0.72
 41
0.72
  0
VERTEX
  8
0
 10
2.14003
 20
0.00509983
 30
0.0
 40
0.01
 41
0.01
  0
VERTEX
  8
0
 10
2.14003
 20
0.740072
 30
0.0
 40
0.01
 41
0.01
  0
SEQEND
 8
0
  0
POLYLINE
  8
0
 62
     13
 66
     1
 10
0
 20
0
 30
0.0
 40
0.72
 41
0.72
  0
VERTEX
  8
0
 10
0.585069
 20
0.740072
 30
0.0
 40
0.01
 41
0.01
  0
VERTEX
  8
0
 10
0.00504557
 20
0.740072
 30
0.0
 40
0.01
 41
0.01
  0
SEQEND
 8
0
  0
POLYLINE
  8
0
 62
     13
 66
     1
 10
0
 20
0
 30
0.0
 40
0.72
 41
0.72
  0
VERTEX
  8
0
 10
0.00504557
 20
0.740072
 30
0.0
 40
0.01
 41
0.01
  0
VERTEX
  8
0
 10
0.00504557
 20
0.00509983
 30
0.0
 40
0.01
 41
0.01
  0
SEQEND
 8
0
  0
POLYLINE
  8
0
 62
     13
 66
     1
 10
0
 20
0
 30
0.0
 40
0.72
 41
0.72
  0
VERTEX
  8
0
 10
2.14003
 20
0.740072
 30
0.0
 40
0.01
 41
0.01
  0
VERTEX
  8
0
 10
1.54004
 20
0.740072
 30
0.0
 40
0.01
 41
0.01
  0
SEQEND
 8
0
  0
POLYLINE
  8
0
 62
     173
 66
     1
 10
0
 20
0
 30
0.0
 70
     1
 40
0
 41
0
  0
VERTEX
  8
0
 10
0.689019
 20
0.370063
 30
0.0
 40
0
 41
0
  0
VERTEX
  8
0
 10
0.684625
 20
0.380588
 30
0.0
 40
0
 41
0
  0
VERTEX
  8
0
 10
0.675022
 20
0.38406
 30
0.0
 40
0
 41
0
  0
VERTEX
  8
0
 10
0.665365
 20
0.380588
 30
0.0
 40
0
 41
0
  0
VERTEX
  8
0
 10
0.661025
 20
0.370063
 30
0.0
 40
0
 41
0
  0
VERTEX
  8
0
 10
0.665365
 20
0.359537
 30
0.0
 40
0
 41
0
  0
VERTEX
  8
0
 10
0.675022
 20
0.356065
 30
0.0
 40
0
 41
0
  0
VERTEX
  8
0
 10
0.684625
 20
0.359537
 30
0.0
 40
0
 41
0
  0
VERTEX
  8
0
 10
0.689019
 20
0.370063
 30
0.0
 40
0
 41
0
  0
SEQEND
 8
0
  0
POLYLINE
  8
0
 62
     173
 66
     1
 10
0
 20
0
 30
0.0
 70
     1
 40
0
 41
0
  0
VERTEX
  8
0
 10
0.689019
 20
0.270019
 30
0.0
 40
0
 41
0
  0
VERTEX
  8
0
 10
0.684625
 20
0.280544
 30
0.0
 40
0
 41
0
  0
VERTEX
  8
0
 10
0.675022
 20
0.284017
 30
0.0
 40
0
 41
0
  0
VERTEX
  8
0
 10
0.665365
 20
0.280544
 30
0.0
 40
0
 41
0
  0
VERTEX
  8
0
 10
0.661025
 20
0.270019
 30
0.0
 40
0
 41
0
  0
VERTEX
  8
0
 10
0.665365
 20
0.259549
 30
0.0
 40
0
 41
0
  0
VERTEX
  8
0
 10
0.675022
 20
0.256022
 30
0.0
 40
0
 41
0
  0
VERTEX
  8
0
 10
0.684625
 20
0.259549
 30
0.0
 40
0
 41
0
  0
VERTEX
  8
0
 10
0.689019
 20
0.270019
 30
0.0
 40
0
 41
0
  0
SEQEND
 8
0
  0
POLYLINE
  8
0
 62
     173
 66
     1
 10
0
 20
0
 30
0.0
 70
     1
 40
0
 41
0
  0
VERTEX
  8
0
 10
0.689019
 20
0.170031
 30
0.0
 40
0
 41
0
  0
VERTEX
  8
0
 10
0.684625
 20
0.180556
 30
0.0
 40
0
 41
0
  0
VERTEX
  8
0
 10
0.675022
 20
0.184028
 30
0.0
 40
0
 41
0
  0
VERTEX
  8
0
 10
0.665365
 20
0.180556
 30
0.0
 40
0
 41
0
  0
VERTEX
  8
0
 10
0.661025
 20
0.170031
 30
0.0
 40
0
 41
0
  0
VERTEX
  8
0
 10
0.665365
 20
0.15956
 30
0.0
 40
0
 41
0
  0
VERTEX
  8
0
 10
0.675022
 20
0.156033
 30
0.0
 40
0
 41
0
  0
VERTEX
  8
0
 10
0.684625
 20
0.15956
 30
0.0
 40
0
 41
0
  0
VERTEX
  8
0
 10
0.689019
 20
0.170031
 30
0.0
 40
0
 41
0
  0
SEQEND
 8
0
  0
POLYLINE
  8
0
 62
     173
 66
     1
 10
0
 20
0
 30
0.0
 70
     1
 40
0
 41
0
  0
VERTEX
  8
0
 10
0.689019
 20
0.0700413
 30
0.0
 40
0
 41
0
  0
VERTEX
  8
0
 10
0.684625
 20
0.0805664
 30
0.0
 40
0
 41
0
  0
VERTEX
  8
0
 10
0.675022
 20
0.0840386
 30
0.0
 40
0
 41
0
  0
VERTEX
  8
0
 10
0.665365
 20
0.0805664
 30
0.0
 40
0
 41
0
  0
VERTEX
  8
0
 10
0.661025
 20
0.0700413
 30
0.0
 40
0
 41
0
  0
VERTEX
  8
0
 10
0.665365
 20
0.0595703
 30
0.0
 40
0
 41
0
  0
VERTEX
  8
0
 10
0.675022
 20
0.0560439
 30
0.0
 40
0
 41
0
  0
VERTEX
  8
0
 10
0.684625
 20
0.0595703
 30
0.0
 40
0
 41
0
  0
VERTEX
  8
0
 10
0.689019
 20
0.0700413
 30
0.0
 40
0
 41
0
  0
SEQEND
 8
0
  0
POLYLINE
  8
0
 62
     173
 66
     1
 10
0
 20
0
 30
0.0
 70
     1
 40
0
 41
0
  0
VERTEX
  8
0
 10
0.98904
 20
0.370063
 30
0.0
 40
0
 41
0
  0
VERTEX
  8
0
 10
0.984646
 20
0.380588
 30
0.0
 40
0
 41
0
  0
VERTEX
  8
0
 10
0.975043
 20
0.38406
 30
0.0
 40
0
 41
0
  0
VERTEX
  8
0
 10
0.965386
 20
0.380588
 30
0.0
 40
0
 41
0
  0
VERTEX
  8
0
 10
0.961046
 20
0.370063
 30
0.0
 40
0
 41
0
  0
VERTEX
  8
0
 10
0.965386
 20
0.359537
 30
0.0
 40
0
 41
0
  0
VERTEX
  8
0
 10
0.975043
 20
0.356065
 30
0.0
 40
0
 41
0
  0
VERTEX
  8
0
 10
0.984646
 20
0.359537
 30
0.0
 40
0
 41
0
  0
VERTEX
  8
0
 10
0.98904
 20
0.370063
 30
0.0
 40
0
 41
0
  0
SEQEND
 8
0
  0
POLYLINE
  8
0
 62
     173
 66
     1
 10
0
 20
0
 30
0.0
 70
     1
 40
0
 41
0
  0
VERTEX
  8
0
 10
0.98904
 20
0.270019
 30
0.0
 40
0
 41
0
  0
VERTEX
  8
0
 10
0.984646
 20
0.280544
 30
0.0
 40
0
 41
0
  0
VERTEX
  8
0
 10
0.975043
 20
0.284017
 30
0.0
 40
0
 41
0
  0
VERTEX
  8
0
 10
0.965386
 20
0.280544
 30
0.0
 40
0
 41
0
  0
VERTEX
  8
0
 10
0.961046
 20
0.270019
 30
0.0
 40
0
 41
0
  0
VERTEX
  8
0
 10
0.965386
 20
0.259549
 30
0.0
 40
0
 41
0
  0
VERTEX
  8
0
 10
0.975043
 20
0.256022
 30
0.0
 40
0
 41
0
  0
VERTEX
  8
0
 10
0.984646
 20
0.259549
 30
0.0
 40
0
 41
0
  0
VERTEX
  8
0
 10
0.98904
 20
0.270019
 30
0.0
 40
0
 41
0
  0
SEQEND
 8
0
  0
POLYLINE
  8
0
 62
     173
 66
     1
 10
0
 20
0
 30
0.0
 70
     1
 40
0
 41
0
  0
VERTEX
  8
0
 10
0.98904
 20
0.170031
 30
0.0
 40
0
 41
0
  0
VERTEX
  8
0
 10
0.984646
 20
0.180556
 30
0.0
 40
0
 41
0
  0
VERTEX
  8
0
 10
0.975043
 20
0.184028
 30
0.0
 40
0
 41
0
  0
VERTEX
  8
0
 10
0.965386
 20
0.180556
 30
0.0
 40
0
 41
0
  0
VERTEX
  8
0
 10
0.961046
 20
0.170031
 30
0.0
 40
0
 41
0
  0
VERTEX
  8
0
 10
0.965386
 20
0.15956
 30
0.0
 40
0
 41
0
  0
VERTEX
  8
0
 10
0.975043
 20
0.156033
 30
0.0
 40
0
 41
0
  0
VERTEX
  8
0
 10
0.984646
 20
0.15956
 30
0.0
 40
0
 41
0
  0
VERTEX
  8
0
 10
0.98904
 20
0.170031
 30
0.0
 40
0
 41
0
  0
SEQEND
 8
0
  0
POLYLINE
  8
0
 62
     173
 66
     1
 10
0
 20
0
 30
0.0
 70
     1
 40
0
 41
0
  0
VERTEX
  8
0
 10
0.98904
 20
0.0700413
 30
0.0
 40
0
 41
0
  0
VERTEX
  8
0
 10
0.984646
 20
0.0805664
 30
0.0
 40
0
 41
0
  0
VERTEX
  8
0
 10
0.975043
 20
0.0840386
 30
0.0
 40
0
 41
0
  0
VERTEX
  8
0
 10
0.965386
 20
0.0805664
 30
0.0
 40
0
 41
0
  0
VERTEX
  8
0
 10
0.961046
 20
0.0700413
 30
0.0
 40
0
 41
0
  0
VERTEX
  8
0
 10
0.965386
 20
0.0595703
 30
0.0
 40
0
 41
0
  0
VERTEX
  8
0
 10
0.975043
 20
0.0560439
 30
0.0
 40
0
 41
0
  0
VERTEX
  8
0
 10
0.984646
 20
0.0595703
 30
0.0
 40
0
 41
0
  0
VERTEX
  8
0
 10
0.98904
 20
0.0700413
 30
0.0
 40
0
 41
0
  0
SEQEND
 8
0
  0
POLYLINE
  8
0
 62
     173
 66
     1
 10
0
 20
0
 30
0.0
 70
     1
 40
0
 41
0
  0
VERTEX
  8
0
 10
1.16905
 20
0.785047
 30
0.0
 40
0
 41
0
  0
VERTEX
  8
0
 10
1.16466
 20
0.795574
 30
0.0
 40
0
 41
0
  0
VERTEX
  8
0
 10
1.155
 20
0.799046
 30
0.0
 40
0
 41
0
  0
VERTEX
  8
0
 10
1.14534
 20
0.795574
 30
0.0
 40
0
 41
0
  0
VERTEX
  8
0
 10
1.141
 20
0.785047
 30
0.0
 40
0
 41
0
  0
VERTEX
  8
0
 10
1.14534
 20
0.774576
 30
0.0
 40
0
 41
0
  0
VERTEX
  8
0
 10
1.155
 20
0.77105
 30
0.0
 40
0
 41
0
  0
VERTEX
  8
0
 10
1.16466
 20
0.774576
 30
0.0
 40
0
 41
0
  0
VERTEX
  8
0
 10
1.16905
 20
0.785047
 30
0.0
 40
0
 41
0
  0
SEQEND
 8
0
  0
POLYLINE
  8
0
 62
     173
 66
     1
 10
0
 20
0
 30
0.0
 70
     1
 40
0
 41
0
  0
VERTEX
  8
0
 10
1.16905
 20
0.685058
 30
0.0
 40
0
 41
0
  0
VERTEX
  8
0
 10
1.16466
 20
0.695583
 30
0.0
 40
0
 41
0
  0
VERTEX
  8
0
 10
1.155
 20
0.699056
 30
0.0
 40
0
 41
0
  0
VERTEX
  8
0
 10
1.14534
 20
0.695583
 30
0.0
 40
0
 41
0
  0
VERTEX
  8
0
 10
1.141
 20
0.685058
 30
0.0
 40
0
 41
0
  0
VERTEX
  8
0
 10
1.14534
 20
0.674588
 30
0.0
 40
0
 41
0
  0
VERTEX
  8
0
 10
1.155
 20
0.671061
 30
0.0
 40
0
 41
0
  0
VERTEX
  8
0
 10
1.16466
 20
0.674588
 30
0.0
 40
0
 41
0
  0
VERTEX
  8
0
 10
1.16905
 20
0.685058
 30
0.0
 40
0
 41
0
  0
SEQEND
 8
0
  0
POLYLINE
  8
0
 62
     173
 66
     1
 10
0
 20
0
 30
0.0
 70
     1
 40
0
 41
0
  0
VERTEX
  8
0
 10
1.16905
 20
0.585015
 30
0.0
 40
0
 41
0
  0
VERTEX
  8
0
 10
1.16466
 20
0.59554
 30
0.0
 40
0
 41
0
  0
VERTEX
  8
0
 10
1.155
 20
0.599012
 30
0.0
 40
0
 41
0
  0
VERTEX
  8
0
 10
1.14534
 20
0.59554
 30
0.0
 40
0
 41
0
  0
VERTEX
  8
0
 10
1.141
 20
0.585015
 30
0.0
 40
0
 41
0
  0
VERTEX
  8
0
 10
1.14534
 20
0.574544
 30
0.0
 40
0
 41
0
  0
VERTEX
  8
0
 10
1.155
 20
0.571018
 30
0.0
 40
0
 41
0
  0
VERTEX
  8
0
 10
1.16466
 20
0.574544
 30
0.0
 40
0
 41
0
  0
VERTEX
  8
0
 10
1.16905
 20
0.585015
 30
0.0
 40
0
 41
0
  0
SEQEND
 8
0
  0
POLYLINE
  8
0
 62
     173
 66
     1
 10
0
 20
0
 30
0.0
 70
     1
 40
0
 41
0
  0
VERTEX
  8
0
 10
1.16905
 20
0.485026
 30
0.0
 40
0
 41
0
  0
VERTEX
  8
0
 10
1.16466
 20
0.495551
 30
0.0
 40
0
 41
0
  0
VERTEX
  8
0
 10
1.155
 20
0.499024
 30
0.0
 40
0
 41
0
  0
VERTEX
  8
0
 10
1.14534
 20
0.495551
 30
0.0
 40
0
 41
0
  0
VERTEX
  8
0
 10
1.141
 20
0.485026
 30
0.0
 40
0
 41
0
  0
VERTEX
  8
0
 10
1.14534
 20
0.474556
 30
0.0
 40
0
 41
0
  0
VERTEX
  8
0
 10
1.155
 20
0.471029
 30
0.0
 40
0
 41
0
  0
VERTEX
  8
0
 10
1.16466
 20
0.474556
 30
0.0
 40
0
 41
0
  0
VERTEX
  8
0
 10
1.16905
 20
0.485026
 30
0.0
 40
0
 41
0
  0
SEQEND
 8
0
  0
POLYLINE
  8
0
 62
     173
 66
     1
 10
0
 20
0
 30
0.0
 70
     1
 40
0
 41
0
  0
VERTEX
  8
0
 10
1.16905
 20
0.370063
 30
0.0
 40
0
 41
0
  0
VERTEX
  8
0
 10
1.16466
 20
0.380588
 30
0.0
 40
0
 41
0
  0
VERTEX
  8
0
 10
1.155
 20
0.38406
 30
0.0
 40
0
 41
0
  0
VERTEX
  8
0
 10
1.14534
 20
0.380588
 30
0.0
 40
0
 41
0
  0
VERTEX
  8
0
 10
1.141
 20
0.370063
 30
0.0
 40
0
 41
0
  0
VERTEX
  8
0
 10
1.14534
 20
0.359537
 30
0.0
 40
0
 41
0
  0
VERTEX
  8
0
 10
1.155
 20
0.356065
 30
0.0
 40
0
 41
0
  0
VERTEX
  8
0
 10
1.16466
 20
0.359537
 30
0.0
 40
0
 41
0
  0
VERTEX
  8
0
 10
1.16905
 20
0.370063
 30
0.0
 40
0
 41
0
  0
SEQEND
 8
0
  0
POLYLINE
  8
0
 62
     173
 66
     1
 10
0
 20
0
 30
0.0
 70
     1
 40
0
 41
0
  0
VERTEX
  8
0
 10
1.16905
 20
0.270019
 30
0.0
 40
0
 41
0
  0
VERTEX
  8
0
 10
1.16466
 20
0.280544
 30
0.0
 40
0
 41
0
  0
VERTEX
  8
0
 10
1.155
 20
0.284017
 30
0.0
 40
0
 41
0
  0
VERTEX
  8
0
 10
1.14534
 20
0.280544
 30
0.0
 40
0
 41
0
  0
VERTEX
  8
0
 10
1.141
 20
0.270019
 30
0.0
 40
0
 41
0
  0
VERTEX
  8
0
 10
1.14534
 20
0.259549
 30
0.0
 40
0
 41
0
  0
VERTEX
  8
0
 10
1.155
 20
0.256022
 30
0.0
 40
0
 41
0
  0
VERTEX
  8
0
 10
1.16466
 20
0.259549
 30
0.0
 40
0
 41
0
  0
VERTEX
  8
0
 10
1.16905
 20
0.270019
 30
0.0
 40
0
 41
0
  0
SEQEND
 8
0
  0
POLYLINE
  8
0
 62
     173
 66
     1
 10
0
 20
0
 30
0.0
 70
     1
 40
0
 41
0
  0
VERTEX
  8
0
 10
1.16905
 20
0.170031
 30
0.0
 40
0
 41
0
  0
VERTEX
  8
0
 10
1.16466
 20
0.180556
 30
0.0
 40
0
 41
0
  0
VERTEX
  8
0
 10
1.155
 20
0.184028
 30
0.0
 40
0
 41
0
  0
VERTEX
  8
0
 10
1.14534
 20
0.180556
 30
0.0
 40
0
 41
0
  0
VERTEX
  8
0
 10
1.141
 20
0.170031
 30
0.0
 40
0
 41
0
  0
VERTEX
  8
0
 10
1.14534
 20
0.15956
 30
0.0
 40
0
 41
0
  0
VERTEX
  8
0
 10
1.155
 20
0.156033
 30
0.0
 40
0
 41
0
  0
VERTEX
  8
0
 10
1.16466
 20
0.15956
 30
0.0
 40
0
 41
0
  0
VERTEX
  8
0
 10
1.16905
 20
0.170031
 30
0.0
 40
0
 41
0
  0
SEQEND
 8
0
  0
POLYLINE
  8
0
 62
     173
 66
     1
 10
0
 20
0
 30
0.0
 70
     1
 40
0
 41
0
  0
VERTEX
  8
0
 10
1.16905
 20
0.0700413
 30
0.0
 40
0
 41
0
  0
VERTEX
  8
0
 10
1.16466
 20
0.0805664
 30
0.0
 40
0
 41
0
  0
VERTEX
  8
0
 10
1.155
 20
0.0840386
 30
0.0
 40
0
 41
0
  0
VERTEX
  8
0
 10
1.14534
 20
0.0805664
 30
0.0
 40
0
 41
0
  0
VERTEX
  8
0
 10
1.141
 20
0.0700413
 30
0.0
 40
0
 41
0
  0
VERTEX
  8
0
 10
1.14534
 20
0.0595703
 30
0.0
 40
0
 41
0
  0
VERTEX
  8
0
 10
1.155
 20
0.0560439
 30
0.0
 40
0
 41
0
  0
VERTEX
  8
0
 10
1.16466
 20
0.0595703
 30
0.0
 40
0
 41
0
  0
VERTEX
  8
0
 10
1.16905
 20
0.0700413
 30
0.0
 40
0
 41
0
  0
SEQEND
 8
0
  0
POLYLINE
  8
0
 62
     173
 66
     1
 10
0
 20
0
 30
0.0
 70
     1
 40
0
 41
0
  0
VERTEX
  8
0
 10
1.46903
 20
0.785047
 30
0.0
 40
0
 41
0
  0
VERTEX
  8
0
 10
1.46463
 20
0.795574
 30
0.0
 40
0
 41
0
  0
VERTEX
  8
0
 10
1.45503
 20
0.799046
 30
0.0
 40
0
 41
0
  0
VERTEX
  8
0
 10
1.44536
 20
0.795574
 30
0.0
 40
0
 41
0
  0
VERTEX
  8
0
 10
1.44103
 20
0.785047
 30
0.0
 40
0
 41
0
  0
VERTEX
  8
0
 10
1.44536
 20
0.774576
 30
0.0
 40
0
 41
0
  0
VERTEX
  8
0
 10
1.45503
 20
0.77105
 30
0.0
 40
0
 41
0
  0
VERTEX
  8
0
 10
1.46463
 20
0.774576
 30
0.0
 40
0
 41
0
  0
VERTEX
  8
0
 10
1.46903
 20
0.785047
 30
0.0
 40
0
 41
0
  0
SEQEND
 8
0
  0
POLYLINE
  8
0
 62
     173
 66
     1
 10
0
 20
0
 30
0.0
 70
     1
 40
0
 41
0
  0
VERTEX
  8
0
 10
1.46903
 20
0.685058
 30
0.0
 40
0
 41
0
  0
VERTEX
  8
0
 10
1.46463
 20
0.695583
 30
0.0
 40
0
 41
0
  0
VERTEX
  8
0
 10
1.45503
 20
0.699056
 30
0.0
 40
0
 41
0
  0
VERTEX
  8
0
 10
1.44536
 20
0.695583
 30
0.0
 40
0
 41
0
  0
VERTEX
  8
0
 10
1.44103
 20
0.685058
 30
0.0
 40
0
 41
0
  0
VERTEX
  8
0
 10
1.44536
 20
0.674588
 30
0.0
 40
0
 41
0
  0
VERTEX
  8
0
 10
1.45503
 20
0.671061
 30
0.0
 40
0
 41
0
  0
VERTEX
  8
0
 10
1.46463
 20
0.674588
 30
0.0
 40
0
 41
0
  0
VERTEX
  8
0
 10
1.46903
 20
0.685058
 30
0.0
 40
0
 41
0
  0
SEQEND
 8
0
  0
POLYLINE
  8
0
 62
     173
 66
     1
 10
0
 20
0
 30
0.0
 70
     1
 40
0
 41
0
  0
VERTEX
  8
0
 10
1.46903
 20
0.585015
 30
0.0
 40
0
 41
0
  0
VERTEX
  8
0
 10
1.46463
 20
0.59554
 30
0.0
 40
0
 41
0
  0
VERTEX
  8
0
 10
1.45503
 20
0.599012
 30
0.0
 40
0
 41
0
  0
VERTEX
  8
0
 10
1.44536
 20
0.59554
 30
0.0
 40
0
 41
0
  0
VERTEX
  8
0
 10
1.44103
 20
0.585015
 30
0.0
 40
0
 41
0
  0
VERTEX
  8
0
 10
1.44536
 20
0.574544
 30
0.0
 40
0
 41
0
  0
VERTEX
  8
0
 10
1.45503
 20
0.571018
 30
0.0
 40
0
 41
0
  0
VERTEX
  8
0
 10
1.46463
 20
0.574544
 30
0.0
 40
0
 41
0
  0
VERTEX
  8
0
 10
1.46903
 20
0.585015
 30
0.0
 40
0
 41
0
  0
SEQEND
 8
0
  0
POLYLINE
  8
0
 62
     173
 66
     1
 10
0
 20
0
 30
0.0
 70
     1
 40
0
 41
0
  0
VERTEX
  8
0
 10
1.46903
 20
0.485026
 30
0.0
 40
0
 41
0
  0
VERTEX
  8
0
 10
1.46463
 20
0.495551
 30
0.0
 40
0
 41
0
  0
VERTEX
  8
0
 10
1.45503
 20
0.499024
 30
0.0
 40
0
 41
0
  0
VERTEX
  8
0
 10
1.44536
 20
0.495551
 30
0.0
 40
0
 41
0
  0
VERTEX
  8
0
 10
1.44103
 20
0.485026
 30
0.0
 40
0
 41
0
  0
VERTEX
  8
0
 10
1.44536
 20
0.474556
 30
0.0
 40
0
 41
0
  0
VERTEX
  8
0
 10
1.45503
 20
0.471029
 30
0.0
 40
0
 41
0
  0
VERTEX
  8
0
 10
1.46463
 20
0.474556
 30
0.0
 40
0
 41
0
  0
VERTEX
  8
0
 10
1.46903
 20
0.485026
 30
0.0
 40
0
 41
0
  0
SEQEND
 8
0
  0
POLYLINE
  8
0
 62
     173
 66
     1
 10
0
 20
0
 30
0.0
 70
     1
 40
0
 41
0
  0
VERTEX
  8
0
 10
1.46903
 20
0.370063
 30
0.0
 40
0
 41
0
  0
VERTEX
  8
0
 10
1.46463
 20
0.380588
 30
0.0
 40
0
 41
0
  0
VERTEX
  8
0
 10
1.45503
 20
0.38406
 30
0.0
 40
0
 41
0
  0
VERTEX
  8
0
 10
1.44536
 20
0.380588
 30
0.0
 40
0
 41
0
  0
VERTEX
  8
0
 10
1.44103
 20
0.370063
 30
0.0
 40
0
 41
0
  0
VERTEX
  8
0
 10
1.44536
 20
0.359537
 30
0.0
 40
0
 41
0
  0
VERTEX
  8
0
 10
1.45503
 20
0.356065
 30
0.0
 40
0
 41
0
  0
VERTEX
  8
0
 10
1.46463
 20
0.359537
 30
0.0
 40
0
 41
0
  0
VERTEX
  8
0
 10
1.46903
 20
0.370063
 30
0.0
 40
0
 41
0
  0
SEQEND
 8
0
  0
POLYLINE
  8
0
 62
     173
 66
     1
 10
0
 20
0
 30
0.0
 70
     1
 40
0
 41
0
  0
VERTEX
  8
0
 10
1.46903
 20
0.270019
 30
0.0
 40
0
 41
0
  0
VERTEX
  8
0
 10
1.46463
 20
0.280544
 30
0.0
 40
0
 41
0
  0
VERTEX
  8
0
 10
1.45503
 20
0.284017
 30
0.0
 40
0
 41
0
  0
VERTEX
  8
0
 10
1.44536
 20
0.280544
 30
0.0
 40
0
 41
0
  0
VERTEX
  8
0
 10
1.44103
 20
0.270019
 30
0.0
 40
0
 41
0
  0
VERTEX
  8
0
 10
1.44536
 20
0.259549
 30
0.0
 40
0
 41
0
  0
VERTEX
  8
0
 10
1.45503
 20
0.256022
 30
0.0
 40
0
 41
0
  0
VERTEX
  8
0
 10
1.46463
 20
0.259549
 30
0.0
 40
0
 41
0
  0
VERTEX
  8
0
 10
1.46903
 20
0.270019
 30
0.0
 40
0
 41
0
  0
SEQEND
 8
0
  0
POLYLINE
  8
0
 62
     173
 66
     1
 10
0
 20
0
 30
0.0
 70
     1
 40
0
 41
0
  0
VERTEX
  8
0
 10
1.46903
 20
0.170031
 30
0.0
 40
0
 41
0
  0
VERTEX
  8
0
 10
1.46463
 20
0.180556
 30
0.0
 40
0
 41
0
  0
VERTEX
  8
0
 10
1.45503
 20
0.184028
 30
0.0
 40
0
 41
0
  0
VERTEX
  8
0
 10
1.44536
 20
0.180556
 30
0.0
 40
0
 41
0
  0
VERTEX
  8
0
 10
1.44103
 20
0.170031
 30
0.0
 40
0
 41
0
  0
VERTEX
  8
0
 10
1.44536
 20
0.15956
 30
0.0
 40
0
 41
0
  0
VERTEX
  8
0
 10
1.45503
 20
0.156033
 30
0.0
 40
0
 41
0
  0
VERTEX
  8
0
 10
1.46463
 20
0.15956
 30
0.0
 40
0
 41
0
  0
VERTEX
  8
0
 10
1.46903
 20
0.170031
 30
0.0
 40
0
 41
0
  0
SEQEND
 8
0
  0
POLYLINE
  8
0
 62
     173
 66
     1
 10
0
 20
0
 30
0.0
 70
     1
 40
0
 41
0
  0
VERTEX
  8
0
 10
1.46903
 20
0.0700413
 30
0.0
 40
0
 41
0
  0
VERTEX
  8
0
 10
1.46463
 20
0.0805664
 30
0.0
 40
0
 41
0
  0
VERTEX
  8
0
 10
1.45503
 20
0.0840386
 30
0.0
 40
0
 41
0
  0
VERTEX
  8
0
 10
1.44536
 20
0.0805664
 30
0.0
 40
0
 41
0
  0
VERTEX
  8
0
 10
1.44103
 20
0.0700413
 30
0.0
 40
0
 41
0
  0
VERTEX
  8
0
 10
1.44536
 20
0.0595703
 30
0.0
 40
0
 41
0
  0
VERTEX
  8
0
 10
1.45503
 20
0.0560439
 30
0.0
 40
0
 41
0
  0
VERTEX
  8
0
 10
1.46463
 20
0.0595703
 30
0.0
 40
0
 41
0
  0
VERTEX
  8
0
 10
1.46903
 20
0.0700413
 30
0.0
 40
0
 41
0
  0
SEQEND
 8
0
  0
POLYLINE
  8
0
 62
     173
 66
     1
 10
0
 20
0
 30
0.0
 70
     1
 40
0
 41
0
  0
VERTEX
  8
0
 10
0.670031
 20
0.885037
 30
0.0
 40
0
 41
0
  0
VERTEX
  8
0
 10
0.66531
 20
0.896322
 30
0.0
 40
0
 41
0
  0
VERTEX
  8
0
 10
0.655003
 20
0.900065
 30
0.0
 40
0
 41
0
  0
VERTEX
  8
0
 10
0.644694
 20
0.896322
 30
0.0
 40
0
 41
0
  0
VERTEX
  8
0
 10
0.640028
 20
0.885037
 30
0.0
 40
0
 41
0
  0
VERTEX
  8
0
 10
0.644694
 20
0.873807
 30
0.0
 40
0
 41
0
  0
VERTEX
  8
0
 10
0.655003
 20
0.870063
 30
0.0
 40
0
 41
0
  0
VERTEX
  8
0
 10
0.66531
 20
0.873807
 30
0.0
 40
0
 41
0
  0
VERTEX
  8
0
 10
0.670031
 20
0.885037
 30
0.0
 40
0
 41
0
  0
SEQEND
 8
0
  0
POLYLINE
  8
0
 62
     173
 66
     1
 10
0
 20
0
 30
0.0
 70
     1
 40
0
 41
0
  0
VERTEX
  8
0
 10
0.670031
 20
0.785047
 30
0.0
 40
0
 41
0
  0
VERTEX
  8
0
 10
0.66531
 20
0.796278
 30
0.0
 40
0
 41
0
  0
VERTEX
  8
0
 10
0.655003
 20
0.800022
 30
0.0
 40
0
 41
0
  0
VERTEX
  8
0
 10
0.644694
 20
0.796278
 30
0.0
 40
0
 41
0
  0
VERTEX
  8
0
 10
0.640028
 20
0.785047
 30
0.0
 40
0
 41
0
  0
VERTEX
  8
0
 10
0.644694
 20
0.773817
 30
0.0
 40
0
 41
0
  0
VERTEX
  8
0
 10
0.655003
 20
0.770074
 30
0.0
 40
0
 41
0
  0
VERTEX
  8
0
 10
0.66531
 20
0.773817
 30
0.0
 40
0
 41
0
  0
VERTEX
  8
0
 10
0.670031
 20
0.785047
 30
0.0
 40
0
 41
0
  0
SEQEND
 8
0
  0
POLYLINE
  8
0
 62
     173
 66
     1
 10
0
 20
0
 30
0.0
 70
     1
 40
0
 41
0
  0
VERTEX
  8
0
 10
0.675022
 20
0.570042
 30
0.0
 40
0
 41
0
  0
VERTEX
  8
0
 10
0.670301
 20
0.581326
 30
0.0
 40
0
 41
0
  0
VERTEX
  8
0
 10
0.659993
 20
0.585069
 30
0.0
 40
0
 41
0
  0
VERTEX
  8
0
 10
0.649685
 20
0.581326
 30
0.0
 40
0
 41
0
  0
VERTEX
  8
0
 10
0.645019
 20
0.570042
 30
0.0
 40
0
 41
0
  0
VERTEX
  8
0
 10
0.649685
 20
0.558811
 30
0.0
 40
0
 41
0
  0
VERTEX
  8
0
 10
0.659993
 20
0.555067
 30
0.0
 40
0
 41
0
  0
VERTEX
  8
0
 10
0.670301
 20
0.558811
 30
0.0
 40
0
 41
0
  0
VERTEX
  8
0
 10
0.675022
 20
0.570042
 30
0.0
 40
0
 41
0
  0
SEQEND
 8
0
  0
POLYLINE
  8
0
 62
     173
 66
     1
 10
0
 20
0
 30
0.0
 70
     1
 40
0
 41
0
  0
VERTEX
  8
0
 10
0.675022
 20
0.480035
 30
0.0
 40
0
 41
0
  0
VERTEX
  8
0
 10
0.670301
 20
0.491319
 30
0.0
 40
0
 41
0
  0
VERTEX
  8
0
 10
0.659993
 20
0.495063
 30
0.0
 40
0
 41
0
  0
VERTEX
  8
0
 10
0.649685
 20
0.491319
 30
0.0
 40
0
 41
0
  0
VERTEX
  8
0
 10
0.645019
 20
0.480035
 30
0.0
 40
0
 41
0
  0
VERTEX
  8
0
 10
0.649685
 20
0.468804
 30
0.0
 40
0
 41
0
  0
VERTEX
  8
0
 10
0.659993
 20
0.465061
 30
0.0
 40
0
 41
0
  0
VERTEX
  8
0
 10
0.670301
 20
0.468804
 30
0.0
 40
0
 41
0
  0
VERTEX
  8
0
 10
0.675022
 20
0.480035
 30
0.0
 40
0
 41
0
  0
SEQEND
 8
0
  0
POLYLINE
  8
0
 62
     173
 66
     1
 10
0
 20
0
 30
0.0
 70
     1
 40
0
 41
0
  0
VERTEX
  8
0
 10
1.07004
 20
0.885037
 30
0.0
 40
0
 41
0
  0
VERTEX
  8
0
 10
1.06532
 20
0.896322
 30
0.0
 40
0
 41
0
  0
VERTEX
  8
0
 10
1.05501
 20
0.900065
 30
0.0
 40
0
 41
0
  0
VERTEX
  8
0
 10
1.04471
 20
0.896322
 30
0.0
 40
0
 41
0
  0
VERTEX
  8
0
 10
1.04004
 20
0.885037
 30
0.0
 40
0
 41
0
  0
VERTEX
  8
0
 10
1.04471
 20
0.873807
 30
0.0
 40
0
 41
0
  0
VERTEX
  8
0
 10
1.05501
 20
0.870063
 30
0.0
 40
0
 41
0
  0
VERTEX
  8
0
 10
1.06532
 20
0.873807
 30
0.0
 40
0
 41
0
  0
VERTEX
  8
0
 10
1.07004
 20
0.885037
 30
0.0
 40
0
 41
0
  0
SEQEND
 8
0
  0
POLYLINE
  8
0
 62
     173
 66
     1
 10
0
 20
0
 30
0.0
 70
     1
 40
0
 41
0
  0
VERTEX
  8
0
 10
1.07004
 20
0.785047
 30
0.0
 40
0
 41
0
  0
VERTEX
  8
0
 10
1.06532
 20
0.796278
 30
0.0
 40
0
 41
0
  0
VERTEX
  8
0
 10
1.05501
 20
0.800022
 30
0.0
 40
0
 41
0
  0
VERTEX
  8
0
 10
1.04471
 20
0.796278
 30
0.0
 40
0
 41
0
  0
VERTEX
  8
0
 10
1.04004
 20
0.785047
 30
0.0
 40
0
 41
0
  0
VERTEX
  8
0
 10
1.04471
 20
0.773817
 30
0.0
 40
0
 41
0
  0
VERTEX
  8
0
 10
1.05501
 20
0.770074
 30
0.0
 40
0
 41
0
  0
VERTEX
  8
0
 10
1.06532
 20
0.773817
 30
0.0
 40
0
 41
0
  0
VERTEX
  8
0
 10
1.07004
 20
0.785047
 30
0.0
 40
0
 41
0
  0
SEQEND
 8
0
  0
POLYLINE
  8
0
 62
     173
 66
     1
 10
0
 20
0
 30
0.0
 70
     1
 40
0
 41
0
  0
VERTEX
  8
0
 10
1.07503
 20
0.570042
 30
0.0
 40
0
 41
0
  0
VERTEX
  8
0
 10
1.07031
 20
0.581326
 30
0.0
 40
0
 41
0
  0
VERTEX
  8
0
 10
1.06
 20
0.585069
 30
0.0
 40
0
 41
0
  0
VERTEX
  8
0
 10
1.0497
 20
0.581326
 30
0.0
 40
0
 41
0
  0
VERTEX
  8
0
 10
1.04503
 20
0.570042
 30
0.0
 40
0
 41
0
  0
VERTEX
  8
0
 10
1.0497
 20
0.558811
 30
0.0
 40
0
 41
0
  0
VERTEX
  8
0
 10
1.06
 20
0.555067
 30
0.0
 40
0
 41
0
  0
VERTEX
  8
0
 10
1.07031
 20
0.558811
 30
0.0
 40
0
 41
0
  0
VERTEX
  8
0
 10
1.07503
 20
0.570042
 30
0.0
 40
0
 41
0
  0
SEQEND
 8
0
  0
POLYLINE
  8
0
 62
     173
 66
     1
 10
0
 20
0
 30
0.0
 70
     1
 40
0
 41
0
  0
VERTEX
  8
0
 10
1.07503
 20
0.480035
 30
0.0
 40
0
 41
0
  0
VERTEX
  8
0
 10
1.07031
 20
0.491319
 30
0.0
 40
0
 41
0
  0
VERTEX
  8
0
 10
1.06
 20
0.495063
 30
0.0
 40
0
 41
0
  0
VERTEX
  8
0
 10
1.0497
 20
0.491319
 30
0.0
 40
0
 41
0
  0
VERTEX
  8
0
 10
1.04503
 20
0.480035
 30
0.0
 40
0
 41
0
  0
VERTEX
  8
0
 10
1.0497
 20
0.468804
 30
0.0
 40
0
 41
0
  0
VERTEX
  8
0
 10
1.06
 20
0.465061
 30
0.0
 40
0
 41
0
  0
VERTEX
  8
0
 10
1.07031
 20
0.468804
 30
0.0
 40
0
 41
0
  0
VERTEX
  8
0
 10
1.07503
 20
0.480035
 30
0.0
 40
0
 41
0
  0
SEQEND
 8
0
  0
POLYLINE
  8
0
 62
     173
 66
     1
 10
0
 20
0
 30
0.0
 70
     1
 40
0
 41
0
  0
VERTEX
  8
0
 10
0.467503
 20
0.545031
 30
0.0
 40
0
 41
0
  0
VERTEX
  8
0
 10
0.462022
 20
0.55816
 30
0.0
 40
0
 41
0
  0
VERTEX
  8
0
 10
0.449978
 20
0.562554
 30
0.0
 40
0
 41
0
  0
VERTEX
  8
0
 10
0.437935
 20
0.55816
 30
0.0
 40
0
 41
0
  0
VERTEX
  8
0
 10
0.432508
 20
0.545031
 30
0.0
 40
0
 41
0
  0
VERTEX
  8
0
 10
0.437935
 20
0.531956
 30
0.0
 40
0
 41
0
  0
VERTEX
  8
0
 10
0.449978
 20
0.527561
 30
0.0
 40
0
 41
0
  0
VERTEX
  8
0
 10
0.462022
 20
0.531956
 30
0.0
 40
0
 41
0
  0
VERTEX
  8
0
 10
0.467503
 20
0.545031
 30
0.0
 40
0
 41
0
  0
SEQEND
 8
0
  0
POLYLINE
  8
0
 62
     173
 66
     1
 10
0
 20
0
 30
0.0
 70
     1
 40
0
 41
0
  0
VERTEX
  8
0
 10
0.467503
 20
0.445042
 30
0.0
 40
0
 41
0
  0
VERTEX
  8
0
 10
0.462022
 20
0.458171
 30
0.0
 40
0
 41
0
  0
VERTEX
  8
0
 10
0.449978
 20
0.462565
 30
0.0
 40
0
 41
0
  0
VERTEX
  8
0
 10
0.437935
 20
0.458171
 30
0.0
 40
0
 41
0
  0
VERTEX
  8
0
 10
0.432508
 20
0.445042
 30
0.0
 40
0
 41
0
  0
VERTEX
  8
0
 10
0.437935
 20
0.431967
 30
0.0
 40
0
 41
0
  0
VERTEX
  8
0
 10
0.449978
 20
0.427572
 30
0.0
 40
0
 41
0
  0
VERTEX
  8
0
 10
0.462022
 20
0.431967
 30
0.0
 40
0
 41
0
  0
VERTEX
  8
0
 10
0.467503
 20
0.445042
 30
0.0
 40
0
 41
0
  0
SEQEND
 8
0
  0
POLYLINE
  8
0
 62
     173
 66
     1
 10
0
 20
0
 30
0.0
 70
     1
 40
0
 41
0
  0
VERTEX
  8
0
 10
0.467503
 20
0.345053
 30
0.0
 40
0
 41
0
  0
VERTEX
  8
0
 10
0.462022
 20
0.358182
 30
0.0
 40
0
 41
0
  0
VERTEX
  8
0
 10
0.449978
 20
0.362576
 30
0.0
 40
0
 41
0
  0
VERTEX
  8
0
 10
0.437935
 20
0.358182
 30
0.0
 40
0
 41
0
  0
VERTEX
  8
0
 10
0.432508
 20
0.345053
 30
0.0
 40
0
 41
0
  0
VERTEX
  8
0
 10
0.437935
 20
0.331976
 30
0.0
 40
0
 41
0
  0
VERTEX
  8
0
 10
0.449978
 20
0.327582
 30
0.0
 40
0
 41
0
  0
VERTEX
  8
0
 10
0.462022
 20
0.331976
 30
0.0
 40
0
 41
0
  0
VERTEX
  8
0
 10
0.467503
 20
0.345053
 30
0.0
 40
0
 41
0
  0
SEQEND
 8
0
  0
POLYLINE
  8
0
 62
     173
 66
     1
 10
0
 20
0
 30
0.0
 70
     1
 40
0
 41
0
  0
VERTEX
  8
0
 10
0.467503
 20
0.245063
 30
0.0
 40
0
 41
0
  0
VERTEX
  8
0
 10
0.462022
 20
0.258192
 30
0.0
 40
0
 41
0
  0
VERTEX
  8
0
 10
0.449978
 20
0.262587
 30
0.0
 40
0
 41
0
  0
VERTEX
  8
0
 10
0.437935
 20
0.258192
 30
0.0
 40
0
 41
0
  0
VERTEX
  8
0
 10
0.432508
 20
0.245063
 30
0.0
 40
0
 41
0
  0
VERTEX
  8
0
 10
0.437935
 20
0.231933
 30
0.0
 40
0
 41
0
  0
VERTEX
  8
0
 10
0.449978
 20
0.227539
 30
0.0
 40
0
 41
0
  0
VERTEX
  8
0
 10
0.462022
 20
0.231933
 30
0.0
 40
0
 41
0
  0
VERTEX
  8
0
 10
0.467503
 20
0.245063
 30
0.0
 40
0
 41
0
  0
SEQEND
 8
0
  0
POLYLINE
  8
0
 62
     173
 66
     1
 10
0
 20
0
 30
0.0
 70
     1
 40
0
 41
0
  0
VERTEX
  8
0
 10
0.567546
 20
0.495063
 30
0.0
 40
0
 41
0
  0
VERTEX
  8
0
 10
0.562067
 20
0.508192
 30
0.0
 40
0
 41
0
  0
VERTEX
  8
0
 10
0.550022
 20
0.512587
 30
0.0
 40
0
 41
0
  0
VERTEX
  8
0
 10
0.537978
 20
0.508192
 30
0.0
 40
0
 41
0
  0
VERTEX
  8
0
 10
0.532553
 20
0.495063
 30
0.0
 40
0
 41
0
  0
VERTEX
  8
0
 10
0.537978
 20
0.481933
 30
0.0
 40
0
 41
0
  0
VERTEX
  8
0
 10
0.550022
 20
0.477539
 30
0.0
 40
0
 41
0
  0
VERTEX
  8
0
 10
0.562067
 20
0.481933
 30
0.0
 40
0
 41
0
  0
VERTEX
  8
0
 10
0.567546
 20
0.495063
 30
0.0
 40
0
 41
0
  0
SEQEND
 8
0
  0
POLYLINE
  8
0
 62
     173
 66
     1
 10
0
 20
0
 30
0.0
 70
     1
 40
0
 41
0
  0
VERTEX
  8
0
 10
0.567546
 20
0.395019
 30
0.0
 40
0
 41
0
  0
VERTEX
  8
0
 10
0.562067
 20
0.408149
 30
0.0
 40
0
 41
0
  0
VERTEX
  8
0
 10
0.550022
 20
0.412543
 30
0.0
 40
0
 41
0
  0
VERTEX
  8
0
 10
0.537978
 20
0.408149
 30
0.0
 40
0
 41
0
  0
VERTEX
  8
0
 10
0.532553
 20
0.395019
 30
0.0
 40
0
 41
0
  0
VERTEX
  8
0
 10
0.537978
 20
0.381944
 30
0.0
 40
0
 41
0
  0
VERTEX
  8
0
 10
0.550022
 20
0.37755
 30
0.0
 40
0
 41
0
  0
VERTEX
  8
0
 10
0.562067
 20
0.381944
 30
0.0
 40
0
 41
0
  0
VERTEX
  8
0
 10
0.567546
 20
0.395019
 30
0.0
 40
0
 41
0
  0
SEQEND
 8
0
  0
POLYLINE
  8
0
 62
     173
 66
     1
 10
0
 20
0
 30
0.0
 70
     1
 40
0
 41
0
  0
VERTEX
  8
0
 10
0.567546
 20
0.295031
 30
0.0
 40
0
 41
0
  0
VERTEX
  8
0
 10
0.562067
 20
0.30816
 30
0.0
 40
0
 41
0
  0
VERTEX
  8
0
 10
0.550022
 20
0.312554
 30
0.0
 40
0
 41
0
  0
VERTEX
  8
0
 10
0.537978
 20
0.30816
 30
0.0
 40
0
 41
0
  0
VERTEX
  8
0
 10
0.532553
 20
0.295031
 30
0.0
 40
0
 41
0
  0
VERTEX
  8
0
 10
0.537978
 20
0.281956
 30
0.0
 40
0
 41
0
  0
VERTEX
  8
0
 10
0.550022
 20
0.277561
 30
0.0
 40
0
 41
0
  0
VERTEX
  8
0
 10
0.562067
 20
0.281956
 30
0.0
 40
0
 41
0
  0
VERTEX
  8
0
 10
0.567546
 20
0.295031
 30
0.0
 40
0
 41
0
  0
SEQEND
 8
0
  0
POLYLINE
  8
0
 62
     173
 66
     1
 10
0
 20
0
 30
0.0
 70
     1
 40
0
 41
0
  0
VERTEX
  8
0
 10
0.567546
 20
0.195042
 30
0.0
 40
0
 41
0
  0
VERTEX
  8
0
 10
0.562067
 20
0.208171
 30
0.0
 40
0
 41
0
  0
VERTEX
  8
0
 10
0.550022
 20
0.212565
 30
0.0
 40
0
 41
0
  0
VERTEX
  8
0
 10
0.537978
 20
0.208171
 30
0.0
 40
0
 41
0
  0
VERTEX
  8
0
 10
0.532553
 20
0.195042
 30
0.0
 40
0
 41
0
  0
VERTEX
  8
0
 10
0.537978
 20
0.181967
 30
0.0
 40
0
 41
0
  0
VERTEX
  8
0
 10
0.550022
 20
0.177572
 30
0.0
 40
0
 41
0
  0
VERTEX
  8
0
 10
0.562067
 20
0.181967
 30
0.0
 40
0
 41
0
  0
VERTEX
  8
0
 10
0.567546
 20
0.195042
 30
0.0
 40
0
 41
0
  0
SEQEND
 8
0
  0
POLYLINE
  8
0
 62
     173
 66
     1
 10
0
 20
0
 30
0.0
 70
     1
 40
0
 41
0
  0
VERTEX
  8
0
 10
1.59754
 20
0.495063
 30
0.0
 40
0
 41
0
  0
VERTEX
  8
0
 10
1.59207
 20
0.508192
 30
0.0
 40
0
 41
0
  0
VERTEX
  8
0
 10
1.58003
 20
0.512587
 30
0.0
 40
0
 41
0
  0
VERTEX
  8
0
 10
1.56799
 20
0.508192
 30
0.0
 40
0
 41
0
  0
VERTEX
  8
0
 10
1.56256
 20
0.495063
 30
0.0
 40
0
 41
0
  0
VERTEX
  8
0
 10
1.56799
 20
0.481933
 30
0.0
 40
0
 41
0
  0
VERTEX
  8
0
 10
1.58003
 20
0.477539
 30
0.0
 40
0
 41
0
  0
VERTEX
  8
0
 10
1.59207
 20
0.481933
 30
0.0
 40
0
 41
0
  0
VERTEX
  8
0
 10
1.59754
 20
0.495063
 30
0.0
 40
0
 41
0
  0
SEQEND
 8
0
  0
POLYLINE
  8
0
 62
     173
 66
     1
 10
0
 20
0
 30
0.0
 70
     1
 40
0
 41
0
  0
VERTEX
  8
0
 10
1.59754
 20
0.395019
 30
0.0
 40
0
 41
0
  0
VERTEX
  8
0
 10
1.59207
 20
0.408149
 30
0.0
 40
0
 41
0
  0
VERTEX
  8
0
 10
1.58003
 20
0.412543
 30
0.0
 40
0
 41
0
  0
VERTEX
  8
0
 10
1.56799
 20
0.408149
 30
0.0
 40
0
 41
0
  0
VERTEX
  8
0
 10
1.56256
 20
0.395019
 30
0.0
 40
0
 41
0
  0
VERTEX
  8
0
 10
1.56799
 20
0.381944
 30
0.0
 40
0
 41
0
  0
VERTEX
  8
0
 10
1.58003
 20
0.37755
 30
0.0
 40
0
 41
0
  0
VERTEX
  8
0
 10
1.59207
 20
0.381944
 30
0.0
 40
0
 41
0
  0
VERTEX
  8
0
 10
1.59754
 20
0.395019
 30
0.0
 40
0
 41
0
  0
SEQEND
 8
0
  0
POLYLINE
  8
0
 62
     173
 66
     1
 10
0
 20
0
 30
0.0
 70
     1
 40
0
 41
0
  0
VERTEX
  8
0
 10
1.59754
 20
0.295031
 30
0.0
 40
0
 41
0
  0
VERTEX
  8
0
 10
1.59207
 20
0.30816
 30
0.0
 40
0
 41
0
  0
VERTEX
  8
0
 10
1.58003
 20
0.312554
 30
0.0
 40
0
 41
0
  0
VERTEX
  8
0
 10
1.56799
 20
0.30816
 30
0.0
 40
0
 41
0
  0
VERTEX
  8
0
 10
1.56256
 20
0.295031
 30
0.0
 40
0
 41
0
  0
VERTEX
  8
0
 10
1.56799
 20
0.281956
 30
0.0
 40
0
 41
0
  0
VERTEX
  8
0
 10
1.58003
 20
0.277561
 30
0.0
 40
0
 41
0
  0
VERTEX
  8
0
 10
1.59207
 20
0.281956
 30
0.0
 40
0
 41
0
  0
VERTEX
  8
0
 10
1.59754
 20
0.295031
 30
0.0
 40
0
 41
0
  0
SEQEND
 8
0
  0
POLYLINE
  8
0
 62
     173
 66
     1
 10
0
 20
0
 30
0.0
 70
     1
 40
0
 41
0
  0
VERTEX
  8
0
 10
1.59754
 20
0.195042
 30
0.0
 40
0
 41
0
  0
VERTEX
  8
0
 10
1.59207
 20
0.208171
 30
0.0
 40
0
 41
0
  0
VERTEX
  8
0
 10
1.58003
 20
0.212565
 30
0.0
 40
0
 41
0
  0
VERTEX
  8
0
 10
1.56799
 20
0.208171
 30
0.0
 40
0
 41
0
  0
VERTEX
  8
0
 10
1.56256
 20
0.195042
 30
0.0
 40
0
 41
0
  0
VERTEX
  8
0
 10
1.56799
 20
0.181967
 30
0.0
 40
0
 41
0
  0
VERTEX
  8
0
 10
1.58003
 20
0.177572
 30
0.0
 40
0
 41
0
  0
VERTEX
  8
0
 10
1.59207
 20
0.181967
 30
0.0
 40
0
 41
0
  0
VERTEX
  8
0
 10
1.59754
 20
0.195042
 30
0.0
 40
0
 41
0
  0
SEQEND
 8
0
  0
POLYLINE
  8
0
 62
     173
 66
     1
 10
0
 20
0
 30
0.0
 70
     1
 40
0
 41
0
  0
VERTEX
  8
0
 10
1.69754
 20
0.545031
 30
0.0
 40
0
 41
0
  0
VERTEX
  8
0
 10
1.69206
 20
0.55816
 30
0.0
 40
0
 41
0
  0
VERTEX
  8
0
 10
1.68001
 20
0.562554
 30
0.0
 40
0
 41
0
  0
VERTEX
  8
0
 10
1.66797
 20
0.55816
 30
0.0
 40
0
 41
0
  0
VERTEX
  8
0
 10
1.66254
 20
0.545031
 30
0.0
 40
0
 41
0
  0
VERTEX
  8
0
 10
1.66797
 20
0.531956
 30
0.0
 40
0
 41
0
  0
VERTEX
  8
0
 10
1.68001
 20
0.527561
 30
0.0
 40
0
 41
0
  0
VERTEX
  8
0
 10
1.69206
 20
0.531956
 30
0.0
 40
0
 41
0
  0
VERTEX
  8
0
 10
1.69754
 20
0.545031
 30
0.0
 40
0
 41
0
  0
SEQEND
 8
0
  0
POLYLINE
  8
0
 62
     173
 66
     1
 10
0
 20
0
 30
0.0
 70
     1
 40
0
 41
0
  0
VERTEX
  8
0
 10
1.69754
 20
0.445042
 30
0.0
 40
0
 41
0
  0
VERTEX
  8
0
 10
1.69206
 20
0.458171
 30
0.0
 40
0
 41
0
  0
VERTEX
  8
0
 10
1.68001
 20
0.462565
 30
0.0
 40
0
 41
0
  0
VERTEX
  8
0
 10
1.66797
 20
0.458171
 30
0.0
 40
0
 41
0
  0
VERTEX
  8
0
 10
1.66254
 20
0.445042
 30
0.0
 40
0
 41
0
  0
VERTEX
  8
0
 10
1.66797
 20
0.431967
 30
0.0
 40
0
 41
0
  0
VERTEX
  8
0
 10
1.68001
 20
0.427572
 30
0.0
 40
0
 41
0
  0
VERTEX
  8
0
 10
1.69206
 20
0.431967
 30
0.0
 40
0
 41
0
  0
VERTEX
  8
0
 10
1.69754
 20
0.445042
 30
0.0
 40
0
 41
0
  0
SEQEND
 8
0
  0
POLYLINE
  8
0
 62
     173
 66
     1
 10
0
 20
0
 30
0.0
 70
     1
 40
0
 41
0
  0
VERTEX
  8
0
 10
1.69754
 20
0.345053
 30
0.0
 40
0
 41
0
  0
VERTEX
  8
0
 10
1.69206
 20
0.358182
 30
0.0
 40
0
 41
0
  0
VERTEX
  8
0
 10
1.68001
 20
0.362576
 30
0.0
 40
0
 41
0
  0
VERTEX
  8
0
 10
1.66797
 20
0.358182
 30
0.0
 40
0
 41
0
  0
VERTEX
  8
0
 10
1.66254
 20
0.345053
 30
0.0
 40
0
 41
0
  0
VERTEX
  8
0
 10
1.66797
 20
0.331976
 30
0.0
 40
0
 41
0
  0
VERTEX
  8
0
 10
1.68001
 20
0.327582
 30
0.0
 40
0
 41
0
  0
VERTEX
  8
0
 10
1.69206
 20
0.331976
 30
0.0
 40
0
 41
0
  0
VERTEX
  8
0
 10
1.69754
 20
0.345053
 30
0.0
 40
0
 41
0
  0
SEQEND
 8
0
  0
POLYLINE
  8
0
 62
     173
 66
     1
 10
0
 20
0
 30
0.0
 70
     1
 40
0
 41
0
  0
VERTEX
  8
0
 10
1.69754
 20
0.245063
 30
0.0
 40
0
 41
0
  0
VERTEX
  8
0
 10
1.69206
 20
0.258192
 30
0.0
 40
0
 41
0
  0
VERTEX
  8
0
 10
1.68001
 20
0.262587
 30
0.0
 40
0
 41
0
  0
VERTEX
  8
0
 10
1.66797
 20
0.258192
 30
0.0
 40
0
 41
0
  0
VERTEX
  8
0
 10
1.66254
 20
0.245063
 30
0.0
 40
0
 41
0
  0
VERTEX
  8
0
 10
1.66797
 20
0.231933
 30
0.0
 40
0
 41
0
  0
VERTEX
  8
0
 10
1.68001
 20
0.227539
 30
0.0
 40
0
 41
0
  0
VERTEX
  8
0
 10
1.69206
 20
0.231933
 30
0.0
 40
0
 41
0
  0
VERTEX
  8
0
 10
1.69754
 20
0.245063
 30
0.0
 40
0
 41
0
  0
SEQEND
 8
0
  0
POLYLINE
  8
0
 62
     173
 66
     1
 10
0
 20
0
 30
0.0
 70
     1
 40
0
 41
0
  0
VERTEX
  8
0
 10
1.27403
 20
0.885037
 30
0.0
 40
0
 41
0
  0
VERTEX
  8
0
 10
1.26807
 20
0.899306
 30
0.0
 40
0
 41
0
  0
VERTEX
  8
0
 10
1.25499
 20
0.904081
 30
0.0
 40
0
 41
0
  0
VERTEX
  8
0
 10
1.24192
 20
0.899306
 30
0.0
 40
0
 41
0
  0
VERTEX
  8
0
 10
1.236
 20
0.885037
 30
0.0
 40
0
 41
0
  0
VERTEX
  8
0
 10
1.24192
 20
0.870822
 30
0.0
 40
0
 41
0
  0
VERTEX
  8
0
 10
1.25499
 20
0.866049
 30
0.0
 40
0
 41
0
  0
VERTEX
  8
0
 10
1.26807
 20
0.870822
 30
0.0
 40
0
 41
0
  0
VERTEX
  8
0
 10
1.27403
 20
0.885037
 30
0.0
 40
0
 41
0
  0
SEQEND
 8
0
  0
POLYLINE
  8
0
 62
     173
 66
     1
 10
0
 20
0
 30
0.0
 70
     1
 40
0
 41
0
  0
VERTEX
  8
0
 10
1.37402
 20
0.885037
 30
0.0
 40
0
 41
0
  0
VERTEX
  8
0
 10
1.36806
 20
0.899306
 30
0.0
 40
0
 41
0
  0
VERTEX
  8
0
 10
1.35503
 20
0.904081
 30
0.0
 40
0
 41
0
  0
VERTEX
  8
0
 10
1.34196
 20
0.899306
 30
0.0
 40
0
 41
0
  0
VERTEX
  8
0
 10
1.33605
 20
0.885037
 30
0.0
 40
0
 41
0
  0
VERTEX
  8
0
 10
1.34196
 20
0.870822
 30
0.0
 40
0
 41
0
  0
VERTEX
  8
0
 10
1.35503
 20
0.866049
 30
0.0
 40
0
 41
0
  0
VERTEX
  8
0
 10
1.36806
 20
0.870822
 30
0.0
 40
0
 41
0
  0
VERTEX
  8
0
 10
1.37402
 20
0.885037
 30
0.0
 40
0
 41
0
  0
SEQEND
 8
0
  0
POLYLINE
  8
0
 62
     173
 66
     1
 10
0
 20
0
 30
0.0
 70
     1
 40
0
 41
0
  0
VERTEX
  8
0
 10
0.111437
 20
0.680556
 30
0.0
 40
0
 41
0
  0
VERTEX
  8
0
 10
0.101563
 20
0.70421
 30
0.0
 40
0
 41
0
  0
VERTEX
  8
0
 10
0.0799154
 20
0.712076
 30
0.0
 40
0
 41
0
  0
VERTEX
  8
0
 10
0.0582682
 20
0.70421
 30
0.0
 40
0
 41
0
  0
VERTEX
  8
0
 10
0.0484483
 20
0.680556
 30
0.0
 40
0
 41
0
  0
VERTEX
  8
0
 10
0.0582682
 20
0.656956
 30
0.0
 40
0
 41
0
  0
VERTEX
  8
0
 10
0.0799154
 20
0.649089
 30
0.0
 40
0
 41
0
  0
VERTEX
  8
0
 10
0.101563
 20
0.656956
 30
0.0
 40
0
 41
0
  0
VERTEX
  8
0
 10
0.111437
 20
0.680556
 30
0.0
 40
0
 41
0
  0
SEQEND
 8
0
  0
POLYLINE
  8
0
 62
     173
 66
     1
 10
0
 20
0
 30
0.0
 70
     1
 40
0
 41
0
  0
VERTEX
  8
0
 10
0.111437
 20
0.0604383
 30
0.0
 40
0
 41
0
  0
VERTEX
  8
0
 10
0.101563
 20
0.0840929
 30
0.0
 40
0
 41
0
  0
VERTEX
  8
0
 10
0.0799154
 20
0.0919596
 30
0.0
 40
0
 41
0
  0
VERTEX
  8
0
 10
0.0582682
 20
0.0840929
 30
0.0
 40
0
 41
0
  0
VERTEX
  8
0
 10
0.0484483
 20
0.0604383
 30
0.0
 40
0
 41
0
  0
VERTEX
  8
0
 10
0.0582682
 20
0.0368381
 30
0.0
 40
0
 41
0
  0
VERTEX
  8
0
 10
0.0799154
 20
0.0289714
 30
0.0
 40
0
 41
0
  0
VERTEX
  8
0
 10
0.101563
 20
0.0368381
 30
0.0
 40
0
 41
0
  0
VERTEX
  8
0
 10
0.111437
 20
0.0604383
 30
0.0
 40
0
 41
0
  0
SEQEND
 8
0
  0
POLYLINE
  8
0
 62
     173
 66
     1
 10
0
 20
0
 30
0.0
 70
     1
 40
0
 41
0
  0
VERTEX
  8
0
 10
2.08165
 20
0.680556
 30
0.0
 40
0
 41
0
  0
VERTEX
  8
0
 10
2.07178
 20
0.70421
 30
0.0
 40
0
 41
0
  0
VERTEX
  8
0
 10
2.05012
 20
0.712076
 30
0.0
 40
0
 41
0
  0
VERTEX
  8
0
 10
2.02843
 20
0.70421
 30
0.0
 40
0
 41
0
  0
VERTEX
  8
0
 10
2.01861
 20
0.680556
 30
0.0
 40
0
 41
0
  0
VERTEX
  8
0
 10
2.02843
 20
0.656956
 30
0.0
 40
0
 41
0
  0
VERTEX
  8
0
 10
2.05012
 20
0.649089
 30
0.0
 40
0
 41
0
  0
VERTEX
  8
0
 10
2.07178
 20
0.656956
 30
0.0
 40
0
 41
0
  0
VERTEX
  8
0
 10
2.08165
 20
0.680556
 30
0.0
 40
0
 41
0
  0
SEQEND
 8
0
  0
POLYLINE
  8
0
 62
     173
 66
     1
 10
0
 20
0
 30
0.0
 70
     1
 40
0
 41
0
  0
VERTEX
  8
0
 10
2.08165
 20
0.0604383
 30
0.0
 40
0
 41
0
  0
VERTEX
  8
0
 10
2.07178
 20
0.0840929
 30
0.0
 40
0
 41
0
  0
VERTEX
  8
0
 10
2.05012
 20
0.0919596
 30
0.0
 40
0
 41
0
  0
VERTEX
  8
0
 10
2.02843
 20
0.0840929
 30
0.0
 40
0
 41
0
  0
VERTEX
  8
0
 10
2.01861
 20
0.0604383
 30
0.0
 40
0
 41
0
  0
VERTEX
  8
0
 10
2.02843
 20
0.0368381
 30
0.0
 40
0
 41
0
  0
VERTEX
  8
0
 10
2.05012
 20
0.0289714
 30
0.0
 40
0
 41
0
  0
VERTEX
  8
0
 10
2.07178
 20
0.0368381
 30
0.0
 40
0
 41
0
  0
VERTEX
  8
0
 10
2.08165
 20
0.0604383
 30
0.0
 40
0
 41
0
  0
SEQEND
 8
0
  0
POLYLINE
  8
0
 62
     173
 66
     1
 10
0
 20
0
 30
0.0
 70
     1
 40
0
 41
0
  0
VERTEX
  8
0
 10
0.264051
 20
0.595053
 30
0.0
 40
0
 41
0
  0
VERTEX
  8
0
 10
0.258518
 20
0.623101
 30
0.0
 40
0
 41
0
  0
VERTEX
  8
0
 10
0.244032
 20
0.643067
 30
0.0
 40
0
 41
0
  0
VERTEX
  8
0
 10
0.223525
 20
0.655111
 30
0.0
 40
0
 41
0
  0
VERTEX
  8
0
 10
0.200032
 20
0.659071
 30
0.0
 40
0
 41
0
  0
VERTEX
  8
0
 10
0.176486
 20
0.655111
 30
0.0
 40
0
 41
0
  0
VERTEX
  8
0
 10
0.155979
 20
0.643067
 30
0.0
 40
0
 41
0
  0
VERTEX
  8
0
 10
0.141493
 20
0.623101
 30
0.0
 40
0
 41
0
  0
VERTEX
  8
0
 10
0.136013
 20
0.595053
 30
0.0
 40
0
 41
0
  0
VERTEX
  8
0
 10
0.141493
 20
0.567057
 30
0.0
 40
0
 41
0
  0
VERTEX
  8
0
 10
0.155979
 20
0.547092
 30
0.0
 40
0
 41
0
  0
VERTEX
  8
0
 10
0.176486
 20
0.535047
 30
0.0
 40
0
 41
0
  0
VERTEX
  8
0
 10
0.200032
 20
0.531088
 30
0.0
 40
0
 41
0
  0
VERTEX
  8
0
 10
0.223525
 20
0.535047
 30
0.0
 40
0
 41
0
  0
VERTEX
  8
0
 10
0.244032
 20
0.547092
 30
0.0
 40
0
 41
0
  0
VERTEX
  8
0
 10
0.258518
 20
0.567057
 30
0.0
 40
0
 41
0
  0
VERTEX
  8
0
 10
0.264051
 20
0.595053
 30
0.0
 40
0
 41
0
  0
SEQEND
 8
0
  0
POLYLINE
  8
0
 62
     173
 66
     1
 10
0
 20
0
 30
0.0
 70
     1
 40
0
 41
0
  0
VERTEX
  8
0
 10
0.264051
 20
0.145019
 30
0.0
 40
0
 41
0
  0
VERTEX
  8
0
 10
0.258518
 20
0.173068
 30
0.0
 40
0
 41
0
  0
VERTEX
  8
0
 10
0.244032
 20
0.193033
 30
0.0
 40
0
 41
0
  0
VERTEX
  8
0
 10
0.223525
 20
0.205078
 30
0.0
 40
0
 41
0
  0
VERTEX
  8
0
 10
0.200032
 20
0.209039
 30
0.0
 40
0
 41
0
  0
VERTEX
  8
0
 10
0.176486
 20
0.205078
 30
0.0
 40
0
 41
0
  0
VERTEX
  8
0
 10
0.155979
 20
0.193033
 30
0.0
 40
0
 41
0
  0
VERTEX
  8
0
 10
0.141493
 20
0.173068
 30
0.0
 40
0
 41
0
  0
VERTEX
  8
0
 10
0.136013
 20
0.145019
 30
0.0
 40
0
 41
0
  0
VERTEX
  8
0
 10
0.141493
 20
0.117025
 30
0.0
 40
0
 41
0
  0
VERTEX
  8
0
 10
0.155979
 20
0.0970594
 30
0.0
 40
0
 41
0
  0
VERTEX
  8
0
 10
0.176486
 20
0.0850151
 30
0.0
 40
0
 41
0
  0
VERTEX
  8
0
 10
0.200032
 20
0.0810547
 30
0.0
 40
0
 41
0
  0
VERTEX
  8
0
 10
0.223525
 20
0.0850151
 30
0.0
 40
0
 41
0
  0
VERTEX
  8
0
 10
0.244032
 20
0.0970594
 30
0.0
 40
0
 41
0
  0
VERTEX
  8
0
 10
0.258518
 20
0.117025
 30
0.0
 40
0
 41
0
  0
VERTEX
  8
0
 10
0.264051
 20
0.145019
 30
0.0
 40
0
 41
0
  0
SEQEND
 8
0
  0
POLYLINE
  8
0
 62
     173
 66
     1
 10
0
 20
0
 30
0.0
 70
     1
 40
0
 41
0
  0
VERTEX
  8
0
 10
1.99403
 20
0.595053
 30
0.0
 40
0
 41
0
  0
VERTEX
  8
0
 10
1.9885
 20
0.623101
 30
0.0
 40
0
 41
0
  0
VERTEX
  8
0
 10
1.97401
 20
0.643067
 30
0.0
 40
0
 41
0
  0
VERTEX
  8
0
 10
1.9535
 20
0.655111
 30
0.0
 40
0
 41
0
  0
VERTEX
  8
0
 10
1.93001
 20
0.659071
 30
0.0
 40
0
 41
0
  0
VERTEX
  8
0
 10
1.90653
 20
0.655111
 30
0.0
 40
0
 41
0
  0
VERTEX
  8
0
 10
1.88601
 20
0.643067
 30
0.0
 40
0
 41
0
  0
VERTEX
  8
0
 10
1.87153
 20
0.623101
 30
0.0
 40
0
 41
0
  0
VERTEX
  8
0
 10
1.86604
 20
0.595053
 30
0.0
 40
0
 41
0
  0
VERTEX
  8
0
 10
1.87153
 20
0.567057
 30
0.0
 40
0
 41
0
  0
VERTEX
  8
0
 10
1.88601
 20
0.547092
 30
0.0
 40
0
 41
0
  0
VERTEX
  8
0
 10
1.90653
 20
0.535047
 30
0.0
 40
0
 41
0
  0
VERTEX
  8
0
 10
1.93001
 20
0.531088
 30
0.0
 40
0
 41
0
  0
VERTEX
  8
0
 10
1.9535
 20
0.535047
 30
0.0
 40
0
 41
0
  0
VERTEX
  8
0
 10
1.97401
 20
0.547092
 30
0.0
 40
0
 41
0
  0
VERTEX
  8
0
 10
1.9885
 20
0.567057
 30
0.0
 40
0
 41
0
  0
VERTEX
  8
0
 10
1.99403
 20
0.595053
 30
0.0
 40
0
 41
0
  0
SEQEND
 8
0
  0
POLYLINE
  8
0
 62
     173
 66
     1
 10
0
 20
0
 30
0.0
 70
     1
 40
0
 41
0
  0
VERTEX
  8
0
 10
1.99403
 20
0.145019
 30
0.0
 40
0
 41
0
  0
VERTEX
  8
0
 10
1.9885
 20
0.173068
 30
0.0
 40
0
 41
0
  0
VERTEX
  8
0
 10
1.97401
 20
0.193033
 30
0.0
 40
0
 41
0
  0
VERTEX
  8
0
 10
1.9535
 20
0.205078
 30
0.0
 40
0
 41
0
  0
VERTEX
  8
0
 10
1.93001
 20
0.209039
 30
0.0
 40
0
 41
0
  0
VERTEX
  8
0
 10
1.90653
 20
0.205078
 30
0.0
 40
0
 41
0
  0
VERTEX
  8
0
 10
1.88601
 20
0.193033
 30
0.0
 40
0
 41
0
  0
VERTEX
  8
0
 10
1.87153
 20
0.173068
 30
0.0
 40
0
 41
0
  0
VERTEX
  8
0
 10
1.86604
 20
0.145019
 30
0.0
 40
0
 41
0
  0
VERTEX
  8
0
 10
1.87153
 20
0.117025
 30
0.0
 40
0
 41
0
  0
VERTEX
  8
0
 10
1.88601
 20
0.0970594
 30
0.0
 40
0
 41
0
  0
VERTEX
  8
0
 10
1.90653
 20
0.0850151
 30
0.0
 40
0
 41
0
  0
VERTEX
  8
0
 10
1.93001
 20
0.0810547
 30
0.0
 40
0
 41
0
  0
VERTEX
  8
0
 10
1.9535
 20
0.0850151
 30
0.0
 40
0
 41
0
  0
VERTEX
  8
0
 10
1.97401
 20
0.0970594
 30
0.0
 40
0
 41
0
  0
VERTEX
  8
0
 10
1.9885
 20
0.117025
 30
0.0
 40
0
 41
0
  0
VERTEX
  8
0
 10
1.99403
 20
0.145019
 30
0.0
 40
0
 41
0
  0
SEQEND
 8
0
  0
ENDSEC
  0
EOF
