G04 start of page 12 for group -3984 idx -3984 *
G04 Title: (unknown), fab *
G04 Creator: pcb 1.99z *
G04 CreationDate: Mon Nov 16 05:23:09 2015 UTC *
G04 For: commonadmin *
G04 Format: Gerber/RS-274X *
G04 PCB-Dimensions (mil): 900.00 1100.00 *
G04 PCB-Coordinate-Origin: lower left *
%MOIN*%
%FSLAX25Y25*%
%LNFAB*%
%ADD74C,0.0100*%
%ADD73C,0.0075*%
%ADD72C,0.0060*%
%ADD71C,0.0001*%
%ADD70R,0.0080X0.0080*%
G54D70*X18500Y20500D02*Y17300D01*
G54D71*G36*
X17954Y20647D02*X21420Y22646D01*
X21820Y21953D01*
X18353Y19954D01*
X17954Y20647D01*
G37*
G36*
X18647Y19954D02*X15180Y21953D01*
X15580Y22646D01*
X19046Y20647D01*
X18647Y19954D01*
G37*
G54D70*X16900Y20500D02*G75*G03X20100Y20500I1600J0D01*G01*
G75*G03X16900Y20500I-1600J0D01*G01*
X46846D02*Y17300D01*
G54D71*G36*
X46300Y20647D02*X49766Y22646D01*
X50166Y21953D01*
X46700Y19954D01*
X46300Y20647D01*
G37*
G36*
X46993Y19954D02*X43527Y21953D01*
X43927Y22646D01*
X47393Y20647D01*
X46993Y19954D01*
G37*
G54D70*X45246Y20500D02*G75*G03X48446Y20500I1600J0D01*G01*
G75*G03X45246Y20500I-1600J0D01*G01*
X15000Y121250D02*Y118050D01*
G54D71*G36*
X14454Y121397D02*X17920Y123396D01*
X18320Y122703D01*
X14853Y120704D01*
X14454Y121397D01*
G37*
G36*
X15147Y120704D02*X11680Y122703D01*
X12080Y123396D01*
X15546Y121397D01*
X15147Y120704D01*
G37*
G54D70*X13400Y121250D02*G75*G03X16600Y121250I1600J0D01*G01*
G75*G03X13400Y121250I-1600J0D01*G01*
G54D72*X135000Y123500D02*X136500Y120500D01*
X138000Y123500D01*
X136500Y120500D02*Y117500D01*
X139800Y120800D02*X142050D01*
X139800Y117500D02*X142800D01*
X139800Y123500D02*Y117500D01*
Y123500D02*X142800D01*
X147600D02*X148350Y122750D01*
X145350Y123500D02*X147600D01*
X144600Y122750D02*X145350Y123500D01*
X144600Y122750D02*Y121250D01*
X145350Y120500D01*
X147600D01*
X148350Y119750D01*
Y118250D01*
X147600Y117500D02*X148350Y118250D01*
X145350Y117500D02*X147600D01*
X144600Y118250D02*X145350Y117500D01*
X98000Y122750D02*X98750Y123500D01*
X101000D01*
X101750Y122750D01*
Y121250D01*
X98000Y117500D02*X101750Y121250D01*
X98000Y117500D02*X101750D01*
X45000Y118250D02*X45750Y117500D01*
X45000Y122750D02*Y118250D01*
Y122750D02*X45750Y123500D01*
X47250D01*
X48000Y122750D01*
Y118250D01*
X47250Y117500D02*X48000Y118250D01*
X45750Y117500D02*X47250D01*
X45000Y119000D02*X48000Y122000D01*
X49800Y117500D02*X50550D01*
X52350Y122300D02*X53550Y123500D01*
Y117500D01*
X52350D02*X54600D01*
X56400Y118250D02*X57150Y117500D01*
X56400Y119450D02*Y118250D01*
Y119450D02*X57450Y120500D01*
X58350D01*
X59400Y119450D01*
Y118250D01*
X58650Y117500D02*X59400Y118250D01*
X57150Y117500D02*X58650D01*
X56400Y121550D02*X57450Y120500D01*
X56400Y122750D02*Y121550D01*
Y122750D02*X57150Y123500D01*
X58650D01*
X59400Y122750D01*
Y121550D01*
X58350Y120500D02*X59400Y121550D01*
X61950Y117500D02*X64950Y123500D01*
X61200D02*X64950D01*
X31400Y97100D02*X34600D01*
X31400D02*Y93900D01*
X34600D01*
Y97100D02*Y93900D01*
X31400Y52100D02*X34600D01*
X31400D02*Y48900D01*
X34600D01*
Y52100D02*Y48900D01*
X13400Y137850D02*X16600D01*
X13400D02*Y134650D01*
X16600D01*
Y137850D02*Y134650D01*
X135000Y138500D02*X136500Y135500D01*
X138000Y138500D01*
X136500Y135500D02*Y132500D01*
X139800Y135800D02*X142050D01*
X139800Y132500D02*X142800D01*
X139800Y138500D02*Y132500D01*
Y138500D02*X142800D01*
X147600D02*X148350Y137750D01*
X145350Y138500D02*X147600D01*
X144600Y137750D02*X145350Y138500D01*
X144600Y137750D02*Y136250D01*
X145350Y135500D01*
X147600D01*
X148350Y134750D01*
Y133250D01*
X147600Y132500D02*X148350Y133250D01*
X145350Y132500D02*X147600D01*
X144600Y133250D02*X145350Y132500D01*
X98000Y137750D02*X98750Y138500D01*
X101000D01*
X101750Y137750D01*
Y136250D01*
X98000Y132500D02*X101750Y136250D01*
X98000Y132500D02*X101750D01*
X45000Y133250D02*X45750Y132500D01*
X45000Y137750D02*Y133250D01*
Y137750D02*X45750Y138500D01*
X47250D01*
X48000Y137750D01*
Y133250D01*
X47250Y132500D02*X48000Y133250D01*
X45750Y132500D02*X47250D01*
X45000Y134000D02*X48000Y137000D01*
X49800Y132500D02*X50550D01*
X52350Y137300D02*X53550Y138500D01*
Y132500D01*
X52350D02*X54600D01*
X56400Y137750D02*X57150Y138500D01*
X59400D01*
X60150Y137750D01*
Y136250D01*
X56400Y132500D02*X60150Y136250D01*
X56400Y132500D02*X60150D01*
X61950Y133250D02*X62700Y132500D01*
X61950Y134450D02*Y133250D01*
Y134450D02*X63000Y135500D01*
X63900D01*
X64950Y134450D01*
Y133250D01*
X64200Y132500D02*X64950Y133250D01*
X62700Y132500D02*X64200D01*
X61950Y136550D02*X63000Y135500D01*
X61950Y137750D02*Y136550D01*
Y137750D02*X62700Y138500D01*
X64200D01*
X64950Y137750D01*
Y136550D01*
X63900Y135500D02*X64950Y136550D01*
X20192Y104043D02*G75*G03X21792Y104043I800J0D01*G01*
G75*G03X20192Y104043I-800J0D01*G01*
Y42035D02*G75*G03X21792Y42035I800J0D01*G01*
G75*G03X20192Y42035I-800J0D01*G01*
X14200Y151250D02*G75*G03X15800Y151250I800J0D01*G01*
G75*G03X14200Y151250I-800J0D01*G01*
X135000Y153500D02*X136500Y150500D01*
X138000Y153500D01*
X136500Y150500D02*Y147500D01*
X139800Y150800D02*X142050D01*
X139800Y147500D02*X142800D01*
X139800Y153500D02*Y147500D01*
Y153500D02*X142800D01*
X147600D02*X148350Y152750D01*
X145350Y153500D02*X147600D01*
X144600Y152750D02*X145350Y153500D01*
X144600Y152750D02*Y151250D01*
X145350Y150500D01*
X147600D01*
X148350Y149750D01*
Y148250D01*
X147600Y147500D02*X148350Y148250D01*
X145350Y147500D02*X147600D01*
X144600Y148250D02*X145350Y147500D01*
X98000Y152750D02*X98750Y153500D01*
X101000D01*
X101750Y152750D01*
Y151250D01*
X98000Y147500D02*X101750Y151250D01*
X98000Y147500D02*X101750D01*
X45000Y148250D02*X45750Y147500D01*
X45000Y152750D02*Y148250D01*
Y152750D02*X45750Y153500D01*
X47250D01*
X48000Y152750D01*
Y148250D01*
X47250Y147500D02*X48000Y148250D01*
X45750Y147500D02*X47250D01*
X45000Y149000D02*X48000Y152000D01*
X49800Y147500D02*X50550D01*
X52350Y148250D02*X53100Y147500D01*
X52350Y152750D02*Y148250D01*
Y152750D02*X53100Y153500D01*
X54600D01*
X55350Y152750D01*
Y148250D01*
X54600Y147500D02*X55350Y148250D01*
X53100Y147500D02*X54600D01*
X52350Y149000D02*X55350Y152000D01*
X59400Y153500D02*X60150Y152750D01*
X57900Y153500D02*X59400D01*
X57150Y152750D02*X57900Y153500D01*
X57150Y152750D02*Y148250D01*
X57900Y147500D01*
X59400Y150800D02*X60150Y150050D01*
X57150Y150800D02*X59400D01*
X57900Y147500D02*X59400D01*
X60150Y148250D01*
Y150050D02*Y148250D01*
X61950Y152750D02*X62700Y153500D01*
X64200D01*
X64950Y152750D01*
X64200Y147500D02*X64950Y148250D01*
X62700Y147500D02*X64200D01*
X61950Y148250D02*X62700Y147500D01*
Y150800D02*X64200D01*
X64950Y152750D02*Y151550D01*
Y150050D02*Y148250D01*
Y150050D02*X64200Y150800D01*
X64950Y151550D02*X64200Y150800D01*
X68300Y22700D02*X70700Y20300D01*
X68300D02*X70700Y22700D01*
X68300Y32700D02*X70700Y30300D01*
X68300D02*X70700Y32700D01*
X79300Y94700D02*X81700Y92300D01*
X79300D02*X81700Y94700D01*
X79300Y104700D02*X81700Y102300D01*
X79300D02*X81700Y104700D01*
X13800Y167450D02*X16200Y165050D01*
X13800D02*X16200Y167450D01*
X135000Y168500D02*X136500Y165500D01*
X138000Y168500D01*
X136500Y165500D02*Y162500D01*
X139800Y165800D02*X142050D01*
X139800Y162500D02*X142800D01*
X139800Y168500D02*Y162500D01*
Y168500D02*X142800D01*
X147600D02*X148350Y167750D01*
X145350Y168500D02*X147600D01*
X144600Y167750D02*X145350Y168500D01*
X144600Y167750D02*Y166250D01*
X145350Y165500D01*
X147600D01*
X148350Y164750D01*
Y163250D01*
X147600Y162500D02*X148350Y163250D01*
X145350Y162500D02*X147600D01*
X144600Y163250D02*X145350Y162500D01*
X98000Y164750D02*X101000Y168500D01*
X98000Y164750D02*X101750D01*
X101000Y168500D02*Y162500D01*
X45000Y163250D02*X45750Y162500D01*
X45000Y167750D02*Y163250D01*
Y167750D02*X45750Y168500D01*
X47250D01*
X48000Y167750D01*
Y163250D01*
X47250Y162500D02*X48000Y163250D01*
X45750Y162500D02*X47250D01*
X45000Y164000D02*X48000Y167000D01*
X49800Y162500D02*X50550D01*
X52350Y163250D02*X53100Y162500D01*
X52350Y167750D02*Y163250D01*
Y167750D02*X53100Y168500D01*
X54600D01*
X55350Y167750D01*
Y163250D01*
X54600Y162500D02*X55350Y163250D01*
X53100Y162500D02*X54600D01*
X52350Y164000D02*X55350Y167000D01*
X57150Y167750D02*X57900Y168500D01*
X59400D01*
X60150Y167750D01*
X59400Y162500D02*X60150Y163250D01*
X57900Y162500D02*X59400D01*
X57150Y163250D02*X57900Y162500D01*
Y165800D02*X59400D01*
X60150Y167750D02*Y166550D01*
Y165050D02*Y163250D01*
Y165050D02*X59400Y165800D01*
X60150Y166550D02*X59400Y165800D01*
X61950Y163250D02*X62700Y162500D01*
X61950Y164450D02*Y163250D01*
Y164450D02*X63000Y165500D01*
X63900D01*
X64950Y164450D01*
Y163250D01*
X64200Y162500D02*X64950Y163250D01*
X62700Y162500D02*X64200D01*
X61950Y166550D02*X63000Y165500D01*
X61950Y167750D02*Y166550D01*
Y167750D02*X62700Y168500D01*
X64200D01*
X64950Y167750D01*
Y166550D01*
X63900Y165500D02*X64950Y166550D01*
X56500Y44600D02*Y41400D01*
X54900Y43000D02*X58100D01*
X68000Y87100D02*Y83900D01*
X66400Y85500D02*X69600D01*
X68000Y77100D02*Y73900D01*
X66400Y75500D02*X69600D01*
X68000Y67100D02*Y63900D01*
X66400Y65500D02*X69600D01*
X68000Y57100D02*Y53900D01*
X66400Y55500D02*X69600D01*
X58000Y92100D02*Y88900D01*
X56400Y90500D02*X59600D01*
X58000Y82100D02*Y78900D01*
X56400Y80500D02*X59600D01*
X58000Y72100D02*Y68900D01*
X56400Y70500D02*X59600D01*
X58000Y62100D02*Y58900D01*
X56400Y60500D02*X59600D01*
X15000Y182850D02*Y179650D01*
X13400Y181250D02*X16600D01*
X135000Y183500D02*X136500Y180500D01*
X138000Y183500D01*
X136500Y180500D02*Y177500D01*
X139800Y180800D02*X142050D01*
X139800Y177500D02*X142800D01*
X139800Y183500D02*Y177500D01*
Y183500D02*X142800D01*
X147600D02*X148350Y182750D01*
X145350Y183500D02*X147600D01*
X144600Y182750D02*X145350Y183500D01*
X144600Y182750D02*Y181250D01*
X145350Y180500D01*
X147600D01*
X148350Y179750D01*
Y178250D01*
X147600Y177500D02*X148350Y178250D01*
X145350Y177500D02*X147600D01*
X144600Y178250D02*X145350Y177500D01*
X98750D02*X101000Y180500D01*
Y182750D02*Y180500D01*
X100250Y183500D02*X101000Y182750D01*
X98750Y183500D02*X100250D01*
X98000Y182750D02*X98750Y183500D01*
X98000Y182750D02*Y181250D01*
X98750Y180500D01*
X101000D01*
X45000Y178250D02*X45750Y177500D01*
X45000Y182750D02*Y178250D01*
Y182750D02*X45750Y183500D01*
X47250D01*
X48000Y182750D01*
Y178250D01*
X47250Y177500D02*X48000Y178250D01*
X45750Y177500D02*X47250D01*
X45000Y179000D02*X48000Y182000D01*
X49800Y177500D02*X50550D01*
X52350Y178250D02*X53100Y177500D01*
X52350Y182750D02*Y178250D01*
Y182750D02*X53100Y183500D01*
X54600D01*
X55350Y182750D01*
Y178250D01*
X54600Y177500D02*X55350Y178250D01*
X53100Y177500D02*X54600D01*
X52350Y179000D02*X55350Y182000D01*
X57150Y182750D02*X57900Y183500D01*
X59400D01*
X60150Y182750D01*
X59400Y177500D02*X60150Y178250D01*
X57900Y177500D02*X59400D01*
X57150Y178250D02*X57900Y177500D01*
Y180800D02*X59400D01*
X60150Y182750D02*Y181550D01*
Y180050D02*Y178250D01*
Y180050D02*X59400Y180800D01*
X60150Y181550D02*X59400Y180800D01*
X61950Y183500D02*X64950D01*
X61950D02*Y180500D01*
X62700Y181250D01*
X64200D01*
X64950Y180500D01*
Y178250D01*
X64200Y177500D02*X64950Y178250D01*
X62700Y177500D02*X64200D01*
X61950Y178250D02*X62700Y177500D01*
X15000Y82000D02*Y80400D01*
Y82000D02*X16387Y82800D01*
X15000Y82000D02*X13613Y82800D01*
X15000Y60200D02*Y58600D01*
Y60200D02*X16387Y61000D01*
X15000Y60200D02*X13613Y61000D01*
X66500Y49500D02*Y47900D01*
Y49500D02*X67887Y50300D01*
X66500Y49500D02*X65113Y50300D01*
X15000Y196250D02*Y194650D01*
Y196250D02*X16387Y197050D01*
X15000Y196250D02*X13613Y197050D01*
X135000Y198500D02*X136500Y195500D01*
X138000Y198500D01*
X136500Y195500D02*Y192500D01*
X139800Y195800D02*X142050D01*
X139800Y192500D02*X142800D01*
X139800Y198500D02*Y192500D01*
Y198500D02*X142800D01*
X147600D02*X148350Y197750D01*
X145350Y198500D02*X147600D01*
X144600Y197750D02*X145350Y198500D01*
X144600Y197750D02*Y196250D01*
X145350Y195500D01*
X147600D01*
X148350Y194750D01*
Y193250D01*
X147600Y192500D02*X148350Y193250D01*
X145350Y192500D02*X147600D01*
X144600Y193250D02*X145350Y192500D01*
X98000Y197750D02*X98750Y198500D01*
X100250D01*
X101000Y197750D01*
X100250Y192500D02*X101000Y193250D01*
X98750Y192500D02*X100250D01*
X98000Y193250D02*X98750Y192500D01*
Y195800D02*X100250D01*
X101000Y197750D02*Y196550D01*
Y195050D02*Y193250D01*
Y195050D02*X100250Y195800D01*
X101000Y196550D02*X100250Y195800D01*
X45000Y193250D02*X45750Y192500D01*
X45000Y197750D02*Y193250D01*
Y197750D02*X45750Y198500D01*
X47250D01*
X48000Y197750D01*
Y193250D01*
X47250Y192500D02*X48000Y193250D01*
X45750Y192500D02*X47250D01*
X45000Y194000D02*X48000Y197000D01*
X49800Y192500D02*X50550D01*
X52350Y193250D02*X53100Y192500D01*
X52350Y197750D02*Y193250D01*
Y197750D02*X53100Y198500D01*
X54600D01*
X55350Y197750D01*
Y193250D01*
X54600Y192500D02*X55350Y193250D01*
X53100Y192500D02*X54600D01*
X52350Y194000D02*X55350Y197000D01*
X57150Y197750D02*X57900Y198500D01*
X60150D01*
X60900Y197750D01*
Y196250D01*
X57150Y192500D02*X60900Y196250D01*
X57150Y192500D02*X60900D01*
X62700Y193250D02*X63450Y192500D01*
X62700Y197750D02*Y193250D01*
Y197750D02*X63450Y198500D01*
X64950D01*
X65700Y197750D01*
Y193250D01*
X64950Y192500D02*X65700Y193250D01*
X63450Y192500D02*X64950D01*
X62700Y194000D02*X65700Y197000D01*
X3000Y213500D02*X3750Y212750D01*
X750Y213500D02*X3000D01*
X0Y212750D02*X750Y213500D01*
X0Y212750D02*Y211250D01*
X750Y210500D01*
X3000D01*
X3750Y209750D01*
Y208250D01*
X3000Y207500D02*X3750Y208250D01*
X750Y207500D02*X3000D01*
X0Y208250D02*X750Y207500D01*
X5550Y210500D02*Y208250D01*
X6300Y207500D01*
X8550Y210500D02*Y206000D01*
X7800Y205250D02*X8550Y206000D01*
X6300Y205250D02*X7800D01*
X5550Y206000D02*X6300Y205250D01*
Y207500D02*X7800D01*
X8550Y208250D01*
X11100Y209750D02*Y207500D01*
Y209750D02*X11850Y210500D01*
X12600D01*
X13350Y209750D01*
Y207500D01*
Y209750D02*X14100Y210500D01*
X14850D01*
X15600Y209750D01*
Y207500D01*
X10350Y210500D02*X11100Y209750D01*
X17400Y213500D02*Y207500D01*
Y208250D02*X18150Y207500D01*
X19650D01*
X20400Y208250D01*
Y209750D02*Y208250D01*
X19650Y210500D02*X20400Y209750D01*
X18150Y210500D02*X19650D01*
X17400Y209750D02*X18150Y210500D01*
X22200Y209750D02*Y208250D01*
Y209750D02*X22950Y210500D01*
X24450D01*
X25200Y209750D01*
Y208250D01*
X24450Y207500D02*X25200Y208250D01*
X22950Y207500D02*X24450D01*
X22200Y208250D02*X22950Y207500D01*
X27000Y213500D02*Y208250D01*
X27750Y207500D01*
X0Y204250D02*X29250D01*
X41750Y213500D02*Y207500D01*
X43700Y213500D02*X44750Y212450D01*
Y208550D01*
X43700Y207500D02*X44750Y208550D01*
X41000Y207500D02*X43700D01*
X41000Y213500D02*X43700D01*
G54D73*X46550Y212000D02*Y211850D01*
G54D72*Y209750D02*Y207500D01*
X50300Y210500D02*X51050Y209750D01*
X48800Y210500D02*X50300D01*
X48050Y209750D02*X48800Y210500D01*
X48050Y209750D02*Y208250D01*
X48800Y207500D01*
X51050Y210500D02*Y208250D01*
X51800Y207500D01*
X48800D02*X50300D01*
X51050Y208250D01*
X54350Y209750D02*Y207500D01*
Y209750D02*X55100Y210500D01*
X55850D01*
X56600Y209750D01*
Y207500D01*
Y209750D02*X57350Y210500D01*
X58100D01*
X58850Y209750D01*
Y207500D01*
X53600Y210500D02*X54350Y209750D01*
X60650Y207500D02*X61400D01*
X65900Y208250D02*X66650Y207500D01*
X65900Y212750D02*X66650Y213500D01*
X65900Y212750D02*Y208250D01*
X68450Y213500D02*X69950D01*
X69200D02*Y207500D01*
X68450D02*X69950D01*
X72500Y209750D02*Y207500D01*
Y209750D02*X73250Y210500D01*
X74000D01*
X74750Y209750D01*
Y207500D01*
X71750Y210500D02*X72500Y209750D01*
X77300Y210500D02*X79550D01*
X76550Y209750D02*X77300Y210500D01*
X76550Y209750D02*Y208250D01*
X77300Y207500D01*
X79550D01*
X81350Y213500D02*Y207500D01*
Y209750D02*X82100Y210500D01*
X83600D01*
X84350Y209750D01*
Y207500D01*
X86150Y213500D02*X86900Y212750D01*
Y208250D01*
X86150Y207500D02*X86900Y208250D01*
X41000Y204250D02*X88700D01*
X96050Y207500D02*X98000D01*
X95000Y208550D02*X96050Y207500D01*
X95000Y212450D02*Y208550D01*
Y212450D02*X96050Y213500D01*
X98000D01*
X99800Y209750D02*Y208250D01*
Y209750D02*X100550Y210500D01*
X102050D01*
X102800Y209750D01*
Y208250D01*
X102050Y207500D02*X102800Y208250D01*
X100550Y207500D02*X102050D01*
X99800Y208250D02*X100550Y207500D01*
X104600Y210500D02*Y208250D01*
X105350Y207500D01*
X106850D01*
X107600Y208250D01*
Y210500D02*Y208250D01*
X110150Y209750D02*Y207500D01*
Y209750D02*X110900Y210500D01*
X111650D01*
X112400Y209750D01*
Y207500D01*
X109400Y210500D02*X110150Y209750D01*
X114950Y213500D02*Y208250D01*
X115700Y207500D01*
X114200Y211250D02*X115700D01*
X95000Y204250D02*X117200D01*
X130750Y213500D02*Y207500D01*
X130000Y213500D02*X133000D01*
X133750Y212750D01*
Y211250D01*
X133000Y210500D02*X133750Y211250D01*
X130750Y210500D02*X133000D01*
X135550Y213500D02*Y208250D01*
X136300Y207500D01*
X140050Y210500D02*X140800Y209750D01*
X138550Y210500D02*X140050D01*
X137800Y209750D02*X138550Y210500D01*
X137800Y209750D02*Y208250D01*
X138550Y207500D01*
X140800Y210500D02*Y208250D01*
X141550Y207500D01*
X138550D02*X140050D01*
X140800Y208250D01*
X144100Y213500D02*Y208250D01*
X144850Y207500D01*
X143350Y211250D02*X144850D01*
X147100Y207500D02*X149350D01*
X146350Y208250D02*X147100Y207500D01*
X146350Y209750D02*Y208250D01*
Y209750D02*X147100Y210500D01*
X148600D01*
X149350Y209750D01*
X146350Y209000D02*X149350D01*
Y209750D02*Y209000D01*
X154150Y213500D02*Y207500D01*
X153400D02*X154150Y208250D01*
X151900Y207500D02*X153400D01*
X151150Y208250D02*X151900Y207500D01*
X151150Y209750D02*Y208250D01*
Y209750D02*X151900Y210500D01*
X153400D01*
X154150Y209750D01*
X157450Y210500D02*Y209750D01*
Y208250D02*Y207500D01*
X155950Y212750D02*Y212000D01*
Y212750D02*X156700Y213500D01*
X158200D01*
X158950Y212750D01*
Y212000D01*
X157450Y210500D02*X158950Y212000D01*
X130000Y204250D02*X160750D01*
X0Y228500D02*X3000D01*
X1500D02*Y222500D01*
X4800Y228500D02*Y222500D01*
Y224750D02*X5550Y225500D01*
X7050D01*
X7800Y224750D01*
Y222500D01*
X10350D02*X12600D01*
X9600Y223250D02*X10350Y222500D01*
X9600Y224750D02*Y223250D01*
Y224750D02*X10350Y225500D01*
X11850D01*
X12600Y224750D01*
X9600Y224000D02*X12600D01*
Y224750D02*Y224000D01*
X15150Y224750D02*Y222500D01*
Y224750D02*X15900Y225500D01*
X17400D01*
X14400D02*X15150Y224750D01*
X19950Y222500D02*X22200D01*
X19200Y223250D02*X19950Y222500D01*
X19200Y224750D02*Y223250D01*
Y224750D02*X19950Y225500D01*
X21450D01*
X22200Y224750D01*
X19200Y224000D02*X22200D01*
Y224750D02*Y224000D01*
X28950Y225500D02*X29700Y224750D01*
X27450Y225500D02*X28950D01*
X26700Y224750D02*X27450Y225500D01*
X26700Y224750D02*Y223250D01*
X27450Y222500D01*
X29700Y225500D02*Y223250D01*
X30450Y222500D01*
X27450D02*X28950D01*
X29700Y223250D01*
X33000Y224750D02*Y222500D01*
Y224750D02*X33750Y225500D01*
X35250D01*
X32250D02*X33000Y224750D01*
X37800Y222500D02*X40050D01*
X37050Y223250D02*X37800Y222500D01*
X37050Y224750D02*Y223250D01*
Y224750D02*X37800Y225500D01*
X39300D01*
X40050Y224750D01*
X37050Y224000D02*X40050D01*
Y224750D02*Y224000D01*
X46800Y228500D02*X47550Y227750D01*
X45300Y228500D02*X46800D01*
X44550Y227750D02*X45300Y228500D01*
X44550Y227750D02*Y223250D01*
X45300Y222500D01*
X46800Y225800D02*X47550Y225050D01*
X44550Y225800D02*X46800D01*
X45300Y222500D02*X46800D01*
X47550Y223250D01*
Y225050D02*Y223250D01*
X55050Y228500D02*Y222500D01*
X54300D02*X55050Y223250D01*
X52800Y222500D02*X54300D01*
X52050Y223250D02*X52800Y222500D01*
X52050Y224750D02*Y223250D01*
Y224750D02*X52800Y225500D01*
X54300D01*
X55050Y224750D01*
G54D73*X56850Y227000D02*Y226850D01*
G54D72*Y224750D02*Y222500D01*
X59100Y227750D02*Y222500D01*
Y227750D02*X59850Y228500D01*
X60600D01*
X58350Y225500D02*X59850D01*
X62850Y227750D02*Y222500D01*
Y227750D02*X63600Y228500D01*
X64350D01*
X62100Y225500D02*X63600D01*
X66600Y222500D02*X68850D01*
X65850Y223250D02*X66600Y222500D01*
X65850Y224750D02*Y223250D01*
Y224750D02*X66600Y225500D01*
X68100D01*
X68850Y224750D01*
X65850Y224000D02*X68850D01*
Y224750D02*Y224000D01*
X71400Y224750D02*Y222500D01*
Y224750D02*X72150Y225500D01*
X73650D01*
X70650D02*X71400Y224750D01*
X76200Y222500D02*X78450D01*
X75450Y223250D02*X76200Y222500D01*
X75450Y224750D02*Y223250D01*
Y224750D02*X76200Y225500D01*
X77700D01*
X78450Y224750D01*
X75450Y224000D02*X78450D01*
Y224750D02*Y224000D01*
X81000Y224750D02*Y222500D01*
Y224750D02*X81750Y225500D01*
X82500D01*
X83250Y224750D01*
Y222500D01*
X80250Y225500D02*X81000Y224750D01*
X85800Y228500D02*Y223250D01*
X86550Y222500D01*
X85050Y226250D02*X86550D01*
X93750Y228500D02*Y222500D01*
X93000D02*X93750Y223250D01*
X91500Y222500D02*X93000D01*
X90750Y223250D02*X91500Y222500D01*
X90750Y224750D02*Y223250D01*
Y224750D02*X91500Y225500D01*
X93000D01*
X93750Y224750D01*
X96300D02*Y222500D01*
Y224750D02*X97050Y225500D01*
X98550D01*
X95550D02*X96300Y224750D01*
G54D73*X100350Y227000D02*Y226850D01*
G54D72*Y224750D02*Y222500D01*
X101850Y228500D02*Y223250D01*
X102600Y222500D01*
X104100Y228500D02*Y223250D01*
X104850Y222500D01*
X109800D02*X112050D01*
X112800Y223250D01*
X112050Y224000D02*X112800Y223250D01*
X109800Y224000D02*X112050D01*
X109050Y224750D02*X109800Y224000D01*
X109050Y224750D02*X109800Y225500D01*
X112050D01*
X112800Y224750D01*
X109050Y223250D02*X109800Y222500D01*
G54D73*X114600Y227000D02*Y226850D01*
G54D72*Y224750D02*Y222500D01*
X116100Y225500D02*X119100D01*
X116100Y222500D02*X119100Y225500D01*
X116100Y222500D02*X119100D01*
X121650D02*X123900D01*
X120900Y223250D02*X121650Y222500D01*
X120900Y224750D02*Y223250D01*
Y224750D02*X121650Y225500D01*
X123150D01*
X123900Y224750D01*
X120900Y224000D02*X123900D01*
Y224750D02*Y224000D01*
X126450Y222500D02*X128700D01*
X129450Y223250D01*
X128700Y224000D02*X129450Y223250D01*
X126450Y224000D02*X128700D01*
X125700Y224750D02*X126450Y224000D01*
X125700Y224750D02*X126450Y225500D01*
X128700D01*
X129450Y224750D01*
X125700Y223250D02*X126450Y222500D01*
X133950Y225500D02*Y223250D01*
X134700Y222500D01*
X136200D01*
X136950Y223250D01*
Y225500D02*Y223250D01*
X139500Y222500D02*X141750D01*
X142500Y223250D01*
X141750Y224000D02*X142500Y223250D01*
X139500Y224000D02*X141750D01*
X138750Y224750D02*X139500Y224000D01*
X138750Y224750D02*X139500Y225500D01*
X141750D01*
X142500Y224750D01*
X138750Y223250D02*X139500Y222500D01*
X145050D02*X147300D01*
X144300Y223250D02*X145050Y222500D01*
X144300Y224750D02*Y223250D01*
Y224750D02*X145050Y225500D01*
X146550D01*
X147300Y224750D01*
X144300Y224000D02*X147300D01*
Y224750D02*Y224000D01*
X152100Y228500D02*Y222500D01*
X151350D02*X152100Y223250D01*
X149850Y222500D02*X151350D01*
X149100Y223250D02*X149850Y222500D01*
X149100Y224750D02*Y223250D01*
Y224750D02*X149850Y225500D01*
X151350D01*
X152100Y224750D01*
G54D73*X156600Y227000D02*Y226850D01*
G54D72*Y224750D02*Y222500D01*
X158850Y224750D02*Y222500D01*
Y224750D02*X159600Y225500D01*
X160350D01*
X161100Y224750D01*
Y222500D01*
X158100Y225500D02*X158850Y224750D01*
X166350Y228500D02*Y223250D01*
X167100Y222500D01*
X165600Y226250D02*X167100D01*
X168600Y228500D02*Y222500D01*
Y224750D02*X169350Y225500D01*
X170850D01*
X171600Y224750D01*
Y222500D01*
G54D73*X173400Y227000D02*Y226850D01*
G54D72*Y224750D02*Y222500D01*
X175650D02*X177900D01*
X178650Y223250D01*
X177900Y224000D02*X178650Y223250D01*
X175650Y224000D02*X177900D01*
X174900Y224750D02*X175650Y224000D01*
X174900Y224750D02*X175650Y225500D01*
X177900D01*
X178650Y224750D01*
X174900Y223250D02*X175650Y222500D01*
X183150Y228500D02*Y223250D01*
X183900Y222500D01*
X187650Y225500D02*X188400Y224750D01*
X186150Y225500D02*X187650D01*
X185400Y224750D02*X186150Y225500D01*
X185400Y224750D02*Y223250D01*
X186150Y222500D01*
X188400Y225500D02*Y223250D01*
X189150Y222500D01*
X186150D02*X187650D01*
X188400Y223250D01*
X190950Y225500D02*Y223250D01*
X191700Y222500D01*
X193950Y225500D02*Y221000D01*
X193200Y220250D02*X193950Y221000D01*
X191700Y220250D02*X193200D01*
X190950Y221000D02*X191700Y220250D01*
Y222500D02*X193200D01*
X193950Y223250D01*
X195750Y224750D02*Y223250D01*
Y224750D02*X196500Y225500D01*
X198000D01*
X198750Y224750D01*
Y223250D01*
X198000Y222500D02*X198750Y223250D01*
X196500Y222500D02*X198000D01*
X195750Y223250D02*X196500Y222500D01*
X200550Y225500D02*Y223250D01*
X201300Y222500D01*
X202800D01*
X203550Y223250D01*
Y225500D02*Y223250D01*
X206100Y228500D02*Y223250D01*
X206850Y222500D01*
X205350Y226250D02*X206850D01*
X208350Y221000D02*X209850Y222500D01*
X214350Y227750D02*X215100Y228500D01*
X217350D01*
X218100Y227750D01*
Y226250D01*
X214350Y222500D02*X218100Y226250D01*
X214350Y222500D02*X218100D01*
X219900Y227750D02*X220650Y228500D01*
X222900D01*
X223650Y227750D01*
Y226250D01*
X219900Y222500D02*X223650Y226250D01*
X219900Y222500D02*X223650D01*
X228150Y228500D02*Y222500D01*
Y224750D02*X228900Y225500D01*
X230400D01*
X231150Y224750D01*
Y222500D01*
X232950Y224750D02*Y223250D01*
Y224750D02*X233700Y225500D01*
X235200D01*
X235950Y224750D01*
Y223250D01*
X235200Y222500D02*X235950Y223250D01*
X233700Y222500D02*X235200D01*
X232950Y223250D02*X233700Y222500D01*
X237750Y228500D02*Y223250D01*
X238500Y222500D01*
X240750D02*X243000D01*
X240000Y223250D02*X240750Y222500D01*
X240000Y224750D02*Y223250D01*
Y224750D02*X240750Y225500D01*
X242250D01*
X243000Y224750D01*
X240000Y224000D02*X243000D01*
Y224750D02*Y224000D01*
X245550Y222500D02*X247800D01*
X248550Y223250D01*
X247800Y224000D02*X248550Y223250D01*
X245550Y224000D02*X247800D01*
X244800Y224750D02*X245550Y224000D01*
X244800Y224750D02*X245550Y225500D01*
X247800D01*
X248550Y224750D01*
X244800Y223250D02*X245550Y222500D01*
X253800Y228500D02*Y223250D01*
X254550Y222500D01*
X253050Y226250D02*X254550D01*
X256050Y224750D02*Y223250D01*
Y224750D02*X256800Y225500D01*
X258300D01*
X259050Y224750D01*
Y223250D01*
X258300Y222500D02*X259050Y223250D01*
X256800Y222500D02*X258300D01*
X256050Y223250D02*X256800Y222500D01*
X261600Y228500D02*Y223250D01*
X262350Y222500D01*
X260850Y226250D02*X262350D01*
X266100Y225500D02*X266850Y224750D01*
X264600Y225500D02*X266100D01*
X263850Y224750D02*X264600Y225500D01*
X263850Y224750D02*Y223250D01*
X264600Y222500D01*
X266850Y225500D02*Y223250D01*
X267600Y222500D01*
X264600D02*X266100D01*
X266850Y223250D01*
X269400Y228500D02*Y223250D01*
X270150Y222500D01*
G54D74*X0Y110000D02*Y1500D01*
X63500D01*
X65500Y3500D01*
Y13000D01*
X66500Y14000D01*
X74000D01*
X76000Y16000D01*
Y85000D01*
X77000Y86000D01*
X85500D01*
X87500Y88000D01*
Y109500D01*
X0Y110000D02*X87500D01*
Y109000D01*
G54D72*X0Y-9500D02*X3000D01*
X3750Y-8750D01*
Y-6950D02*Y-8750D01*
X3000Y-6200D02*X3750Y-6950D01*
X750Y-6200D02*X3000D01*
X750Y-3500D02*Y-9500D01*
X0Y-3500D02*X3000D01*
X3750Y-4250D01*
Y-5450D01*
X3000Y-6200D02*X3750Y-5450D01*
X5550Y-7250D02*Y-8750D01*
Y-7250D02*X6300Y-6500D01*
X7800D01*
X8550Y-7250D01*
Y-8750D01*
X7800Y-9500D02*X8550Y-8750D01*
X6300Y-9500D02*X7800D01*
X5550Y-8750D02*X6300Y-9500D01*
X12600Y-6500D02*X13350Y-7250D01*
X11100Y-6500D02*X12600D01*
X10350Y-7250D02*X11100Y-6500D01*
X10350Y-7250D02*Y-8750D01*
X11100Y-9500D01*
X13350Y-6500D02*Y-8750D01*
X14100Y-9500D01*
X11100D02*X12600D01*
X13350Y-8750D01*
X16650Y-7250D02*Y-9500D01*
Y-7250D02*X17400Y-6500D01*
X18900D01*
X15900D02*X16650Y-7250D01*
X23700Y-3500D02*Y-9500D01*
X22950D02*X23700Y-8750D01*
X21450Y-9500D02*X22950D01*
X20700Y-8750D02*X21450Y-9500D01*
X20700Y-7250D02*Y-8750D01*
Y-7250D02*X21450Y-6500D01*
X22950D01*
X23700Y-7250D01*
X28200D02*Y-8750D01*
Y-7250D02*X28950Y-6500D01*
X30450D01*
X31200Y-7250D01*
Y-8750D01*
X30450Y-9500D02*X31200Y-8750D01*
X28950Y-9500D02*X30450D01*
X28200Y-8750D02*X28950Y-9500D01*
X33000Y-6500D02*Y-8750D01*
X33750Y-9500D01*
X35250D01*
X36000Y-8750D01*
Y-6500D02*Y-8750D01*
X38550Y-3500D02*Y-8750D01*
X39300Y-9500D01*
X37800Y-5750D02*X39300D01*
X40800Y-3500D02*Y-8750D01*
X41550Y-9500D01*
G54D73*X43050Y-5000D02*Y-5150D01*
G54D72*Y-7250D02*Y-9500D01*
X45300Y-7250D02*Y-9500D01*
Y-7250D02*X46050Y-6500D01*
X46800D01*
X47550Y-7250D01*
Y-9500D01*
X44550Y-6500D02*X45300Y-7250D01*
X50100Y-9500D02*X52350D01*
X49350Y-8750D02*X50100Y-9500D01*
X49350Y-7250D02*Y-8750D01*
Y-7250D02*X50100Y-6500D01*
X51600D01*
X52350Y-7250D01*
X49350Y-8000D02*X52350D01*
Y-7250D02*Y-8000D01*
G54D73*X56850Y-5000D02*Y-5150D01*
G54D72*Y-7250D02*Y-9500D01*
X59100D02*X61350D01*
X62100Y-8750D01*
X61350Y-8000D02*X62100Y-8750D01*
X59100Y-8000D02*X61350D01*
X58350Y-7250D02*X59100Y-8000D01*
X58350Y-7250D02*X59100Y-6500D01*
X61350D01*
X62100Y-7250D01*
X58350Y-8750D02*X59100Y-9500D01*
X67350Y-3500D02*Y-8750D01*
X68100Y-9500D01*
X66600Y-5750D02*X68100D01*
X69600Y-3500D02*Y-9500D01*
Y-7250D02*X70350Y-6500D01*
X71850D01*
X72600Y-7250D01*
Y-9500D01*
X75150D02*X77400D01*
X74400Y-8750D02*X75150Y-9500D01*
X74400Y-7250D02*Y-8750D01*
Y-7250D02*X75150Y-6500D01*
X76650D01*
X77400Y-7250D01*
X74400Y-8000D02*X77400D01*
Y-7250D02*Y-8000D01*
X82650Y-6500D02*X84900D01*
X81900Y-7250D02*X82650Y-6500D01*
X81900Y-7250D02*Y-8750D01*
X82650Y-9500D01*
X84900D01*
X87450D02*X89700D01*
X86700Y-8750D02*X87450Y-9500D01*
X86700Y-7250D02*Y-8750D01*
Y-7250D02*X87450Y-6500D01*
X88950D01*
X89700Y-7250D01*
X86700Y-8000D02*X89700D01*
Y-7250D02*Y-8000D01*
X92250Y-7250D02*Y-9500D01*
Y-7250D02*X93000Y-6500D01*
X93750D01*
X94500Y-7250D01*
Y-9500D01*
X91500Y-6500D02*X92250Y-7250D01*
X97050Y-3500D02*Y-8750D01*
X97800Y-9500D01*
X96300Y-5750D02*X97800D01*
X100050Y-9500D02*X102300D01*
X99300Y-8750D02*X100050Y-9500D01*
X99300Y-7250D02*Y-8750D01*
Y-7250D02*X100050Y-6500D01*
X101550D01*
X102300Y-7250D01*
X99300Y-8000D02*X102300D01*
Y-7250D02*Y-8000D01*
X104850Y-7250D02*Y-9500D01*
Y-7250D02*X105600Y-6500D01*
X107100D01*
X104100D02*X104850Y-7250D01*
X108900Y-3500D02*Y-8750D01*
X109650Y-9500D01*
G54D73*X111150Y-5000D02*Y-5150D01*
G54D72*Y-7250D02*Y-9500D01*
X113400Y-7250D02*Y-9500D01*
Y-7250D02*X114150Y-6500D01*
X114900D01*
X115650Y-7250D01*
Y-9500D01*
X112650Y-6500D02*X113400Y-7250D01*
X118200Y-9500D02*X120450D01*
X117450Y-8750D02*X118200Y-9500D01*
X117450Y-7250D02*Y-8750D01*
Y-7250D02*X118200Y-6500D01*
X119700D01*
X120450Y-7250D01*
X117450Y-8000D02*X120450D01*
Y-7250D02*Y-8000D01*
X124950Y-7250D02*Y-8750D01*
Y-7250D02*X125700Y-6500D01*
X127200D01*
X127950Y-7250D01*
Y-8750D01*
X127200Y-9500D02*X127950Y-8750D01*
X125700Y-9500D02*X127200D01*
X124950Y-8750D02*X125700Y-9500D01*
X130500Y-4250D02*Y-9500D01*
Y-4250D02*X131250Y-3500D01*
X132000D01*
X129750Y-6500D02*X131250D01*
X136950Y-3500D02*Y-8750D01*
X137700Y-9500D01*
X136200Y-5750D02*X137700D01*
X139200Y-3500D02*Y-9500D01*
Y-7250D02*X139950Y-6500D01*
X141450D01*
X142200Y-7250D01*
Y-9500D01*
G54D73*X144000Y-5000D02*Y-5150D01*
G54D72*Y-7250D02*Y-9500D01*
X146250D02*X148500D01*
X149250Y-8750D01*
X148500Y-8000D02*X149250Y-8750D01*
X146250Y-8000D02*X148500D01*
X145500Y-7250D02*X146250Y-8000D01*
X145500Y-7250D02*X146250Y-6500D01*
X148500D01*
X149250Y-7250D01*
X145500Y-8750D02*X146250Y-9500D01*
X154500Y-7250D02*Y-11750D01*
X153750Y-6500D02*X154500Y-7250D01*
X155250Y-6500D01*
X156750D01*
X157500Y-7250D01*
Y-8750D01*
X156750Y-9500D02*X157500Y-8750D01*
X155250Y-9500D02*X156750D01*
X154500Y-8750D02*X155250Y-9500D01*
X161550Y-6500D02*X162300Y-7250D01*
X160050Y-6500D02*X161550D01*
X159300Y-7250D02*X160050Y-6500D01*
X159300Y-7250D02*Y-8750D01*
X160050Y-9500D01*
X162300Y-6500D02*Y-8750D01*
X163050Y-9500D01*
X160050D02*X161550D01*
X162300Y-8750D01*
X165600Y-3500D02*Y-8750D01*
X166350Y-9500D01*
X164850Y-5750D02*X166350D01*
X167850Y-3500D02*Y-9500D01*
Y-7250D02*X168600Y-6500D01*
X170100D01*
X170850Y-7250D01*
Y-9500D01*
X200750Y138500D02*Y132500D01*
X202700Y138500D02*X203750Y137450D01*
Y133550D01*
X202700Y132500D02*X203750Y133550D01*
X200000Y132500D02*X202700D01*
X200000Y138500D02*X202700D01*
X207800Y135500D02*X208550Y134750D01*
X206300Y135500D02*X207800D01*
X205550Y134750D02*X206300Y135500D01*
X205550Y134750D02*Y133250D01*
X206300Y132500D01*
X208550Y135500D02*Y133250D01*
X209300Y132500D01*
X206300D02*X207800D01*
X208550Y133250D01*
X211850Y138500D02*Y133250D01*
X212600Y132500D01*
X211100Y136250D02*X212600D01*
X214850Y132500D02*X217100D01*
X214100Y133250D02*X214850Y132500D01*
X214100Y134750D02*Y133250D01*
Y134750D02*X214850Y135500D01*
X216350D01*
X217100Y134750D01*
X214100Y134000D02*X217100D01*
Y134750D02*Y134000D01*
X218900Y136250D02*X219650D01*
X218900Y134750D02*X219650D01*
X224150Y138500D02*Y132500D01*
Y138500D02*X226400Y135500D01*
X228650Y138500D01*
Y132500D01*
X230450Y134750D02*Y133250D01*
Y134750D02*X231200Y135500D01*
X232700D01*
X233450Y134750D01*
Y133250D01*
X232700Y132500D02*X233450Y133250D01*
X231200Y132500D02*X232700D01*
X230450Y133250D02*X231200Y132500D01*
X236000Y134750D02*Y132500D01*
Y134750D02*X236750Y135500D01*
X237500D01*
X238250Y134750D01*
Y132500D01*
X235250Y135500D02*X236000Y134750D01*
X242750Y138500D02*Y132500D01*
Y138500D02*X246500Y132500D01*
Y138500D02*Y132500D01*
X248300Y134750D02*Y133250D01*
Y134750D02*X249050Y135500D01*
X250550D01*
X251300Y134750D01*
Y133250D01*
X250550Y132500D02*X251300Y133250D01*
X249050Y132500D02*X250550D01*
X248300Y133250D02*X249050Y132500D01*
X253100Y135500D02*X254600Y132500D01*
X256100Y135500D02*X254600Y132500D01*
X260600Y137300D02*X261800Y138500D01*
Y132500D01*
X260600D02*X262850D01*
X266900Y138500D02*X267650Y137750D01*
X265400Y138500D02*X266900D01*
X264650Y137750D02*X265400Y138500D01*
X264650Y137750D02*Y133250D01*
X265400Y132500D01*
X266900Y135800D02*X267650Y135050D01*
X264650Y135800D02*X266900D01*
X265400Y132500D02*X266900D01*
X267650Y133250D01*
Y135050D02*Y133250D01*
X272150D02*X272900Y132500D01*
X272150Y137750D02*Y133250D01*
Y137750D02*X272900Y138500D01*
X274400D01*
X275150Y137750D01*
Y133250D01*
X274400Y132500D02*X275150Y133250D01*
X272900Y132500D02*X274400D01*
X272150Y134000D02*X275150Y137000D01*
X276950Y138500D02*X279950D01*
X276950D02*Y135500D01*
X277700Y136250D01*
X279200D01*
X279950Y135500D01*
Y133250D01*
X279200Y132500D02*X279950Y133250D01*
X277700Y132500D02*X279200D01*
X276950Y133250D02*X277700Y132500D01*
X281750Y136250D02*X282500D01*
X281750Y134750D02*X282500D01*
X284300Y137750D02*X285050Y138500D01*
X287300D01*
X288050Y137750D01*
Y136250D01*
X284300Y132500D02*X288050Y136250D01*
X284300Y132500D02*X288050D01*
X289850Y137750D02*X290600Y138500D01*
X292100D01*
X292850Y137750D01*
X292100Y132500D02*X292850Y133250D01*
X290600Y132500D02*X292100D01*
X289850Y133250D02*X290600Y132500D01*
Y135800D02*X292100D01*
X292850Y137750D02*Y136550D01*
Y135050D02*Y133250D01*
Y135050D02*X292100Y135800D01*
X292850Y136550D02*X292100Y135800D01*
X294650Y136250D02*X295400D01*
X294650Y134750D02*X295400D01*
X297200Y133250D02*X297950Y132500D01*
X297200Y137750D02*Y133250D01*
Y137750D02*X297950Y138500D01*
X299450D01*
X300200Y137750D01*
Y133250D01*
X299450Y132500D02*X300200Y133250D01*
X297950Y132500D02*X299450D01*
X297200Y134000D02*X300200Y137000D01*
X302750Y132500D02*X305000Y135500D01*
Y137750D02*Y135500D01*
X304250Y138500D02*X305000Y137750D01*
X302750Y138500D02*X304250D01*
X302000Y137750D02*X302750Y138500D01*
X302000Y137750D02*Y136250D01*
X302750Y135500D01*
X305000D01*
X309500Y137750D02*X310250Y138500D01*
X312500D01*
X313250Y137750D01*
Y136250D01*
X309500Y132500D02*X313250Y136250D01*
X309500Y132500D02*X313250D01*
X315050Y133250D02*X315800Y132500D01*
X315050Y137750D02*Y133250D01*
Y137750D02*X315800Y138500D01*
X317300D01*
X318050Y137750D01*
Y133250D01*
X317300Y132500D02*X318050Y133250D01*
X315800Y132500D02*X317300D01*
X315050Y134000D02*X318050Y137000D01*
X319850Y137300D02*X321050Y138500D01*
Y132500D01*
X319850D02*X322100D01*
X323900Y138500D02*X326900D01*
X323900D02*Y135500D01*
X324650Y136250D01*
X326150D01*
X326900Y135500D01*
Y133250D01*
X326150Y132500D02*X326900Y133250D01*
X324650Y132500D02*X326150D01*
X323900Y133250D02*X324650Y132500D01*
X331400Y138500D02*Y133250D01*
X332150Y132500D01*
X333650D01*
X334400Y133250D01*
Y138500D02*Y133250D01*
X336200Y138500D02*X339200D01*
X337700D02*Y132500D01*
X342050D02*X344000D01*
X341000Y133550D02*X342050Y132500D01*
X341000Y137450D02*Y133550D01*
Y137450D02*X342050Y138500D01*
X344000D01*
X200000Y152000D02*Y147500D01*
Y152000D02*X201050Y153500D01*
X202700D01*
X203750Y152000D01*
Y147500D01*
X200000Y150500D02*X203750D01*
X205550D02*Y148250D01*
X206300Y147500D01*
X207800D01*
X208550Y148250D01*
Y150500D02*Y148250D01*
X211100Y153500D02*Y148250D01*
X211850Y147500D01*
X210350Y151250D02*X211850D01*
X213350Y153500D02*Y147500D01*
Y149750D02*X214100Y150500D01*
X215600D01*
X216350Y149750D01*
Y147500D01*
X218150Y149750D02*Y148250D01*
Y149750D02*X218900Y150500D01*
X220400D01*
X221150Y149750D01*
Y148250D01*
X220400Y147500D02*X221150Y148250D01*
X218900Y147500D02*X220400D01*
X218150Y148250D02*X218900Y147500D01*
X223700Y149750D02*Y147500D01*
Y149750D02*X224450Y150500D01*
X225950D01*
X222950D02*X223700Y149750D01*
X227750Y151250D02*X228500D01*
X227750Y149750D02*X228500D01*
X200000Y168500D02*X203000D01*
X201500D02*Y162500D01*
G54D73*X204800Y167000D02*Y166850D01*
G54D72*Y164750D02*Y162500D01*
X207050Y168500D02*Y163250D01*
X207800Y162500D01*
X206300Y166250D02*X207800D01*
X209300Y168500D02*Y163250D01*
X210050Y162500D01*
X212300D02*X214550D01*
X211550Y163250D02*X212300Y162500D01*
X211550Y164750D02*Y163250D01*
Y164750D02*X212300Y165500D01*
X213800D01*
X214550Y164750D01*
X211550Y164000D02*X214550D01*
Y164750D02*Y164000D01*
X216350Y166250D02*X217100D01*
X216350Y164750D02*X217100D01*
X221600Y163250D02*X222350Y162500D01*
X221600Y167750D02*X222350Y168500D01*
X221600Y167750D02*Y163250D01*
X224150Y165500D02*Y163250D01*
X224900Y162500D01*
X226400D01*
X227150Y163250D01*
Y165500D02*Y163250D01*
X229700Y164750D02*Y162500D01*
Y164750D02*X230450Y165500D01*
X231200D01*
X231950Y164750D01*
Y162500D01*
X228950Y165500D02*X229700Y164750D01*
X233750Y168500D02*Y162500D01*
Y164750D02*X236000Y162500D01*
X233750Y164750D02*X235250Y166250D01*
X238550Y164750D02*Y162500D01*
Y164750D02*X239300Y165500D01*
X240050D01*
X240800Y164750D01*
Y162500D01*
X237800Y165500D02*X238550Y164750D01*
X242600D02*Y163250D01*
Y164750D02*X243350Y165500D01*
X244850D01*
X245600Y164750D01*
Y163250D01*
X244850Y162500D02*X245600Y163250D01*
X243350Y162500D02*X244850D01*
X242600Y163250D02*X243350Y162500D01*
X247400Y165500D02*Y163250D01*
X248150Y162500D01*
X248900D01*
X249650Y163250D01*
Y165500D02*Y163250D01*
X250400Y162500D01*
X251150D01*
X251900Y163250D01*
Y165500D02*Y163250D01*
X254450Y164750D02*Y162500D01*
Y164750D02*X255200Y165500D01*
X255950D01*
X256700Y164750D01*
Y162500D01*
X253700Y165500D02*X254450Y164750D01*
X258500Y168500D02*X259250Y167750D01*
Y163250D01*
X258500Y162500D02*X259250Y163250D01*
X263750Y165500D02*X266750D01*
X271250Y168500D02*Y162500D01*
Y168500D02*X274250D01*
X271250Y165800D02*X273500D01*
X278300Y165500D02*X279050Y164750D01*
X276800Y165500D02*X278300D01*
X276050Y164750D02*X276800Y165500D01*
X276050Y164750D02*Y163250D01*
X276800Y162500D01*
X279050Y165500D02*Y163250D01*
X279800Y162500D01*
X276800D02*X278300D01*
X279050Y163250D01*
X281600Y168500D02*Y162500D01*
Y163250D02*X282350Y162500D01*
X283850D01*
X284600Y163250D01*
Y164750D02*Y163250D01*
X283850Y165500D02*X284600Y164750D01*
X282350Y165500D02*X283850D01*
X281600Y164750D02*X282350Y165500D01*
X287150Y164750D02*Y162500D01*
Y164750D02*X287900Y165500D01*
X289400D01*
X286400D02*X287150Y164750D01*
G54D73*X291200Y167000D02*Y166850D01*
G54D72*Y164750D02*Y162500D01*
X293450Y165500D02*X295700D01*
X292700Y164750D02*X293450Y165500D01*
X292700Y164750D02*Y163250D01*
X293450Y162500D01*
X295700D01*
X299750Y165500D02*X300500Y164750D01*
X298250Y165500D02*X299750D01*
X297500Y164750D02*X298250Y165500D01*
X297500Y164750D02*Y163250D01*
X298250Y162500D01*
X300500Y165500D02*Y163250D01*
X301250Y162500D01*
X298250D02*X299750D01*
X300500Y163250D01*
X303800Y168500D02*Y163250D01*
X304550Y162500D01*
X303050Y166250D02*X304550D01*
G54D73*X306050Y167000D02*Y166850D01*
G54D72*Y164750D02*Y162500D01*
X307550Y164750D02*Y163250D01*
Y164750D02*X308300Y165500D01*
X309800D01*
X310550Y164750D01*
Y163250D01*
X309800Y162500D02*X310550Y163250D01*
X308300Y162500D02*X309800D01*
X307550Y163250D02*X308300Y162500D01*
X313100Y164750D02*Y162500D01*
Y164750D02*X313850Y165500D01*
X314600D01*
X315350Y164750D01*
Y162500D01*
X312350Y165500D02*X313100Y164750D01*
X320600Y168500D02*Y162500D01*
X322550Y168500D02*X323600Y167450D01*
Y163550D01*
X322550Y162500D02*X323600Y163550D01*
X319850Y162500D02*X322550D01*
X319850Y168500D02*X322550D01*
X326150Y164750D02*Y162500D01*
Y164750D02*X326900Y165500D01*
X328400D01*
X325400D02*X326150Y164750D01*
X332450Y165500D02*X333200Y164750D01*
X330950Y165500D02*X332450D01*
X330200Y164750D02*X330950Y165500D01*
X330200Y164750D02*Y163250D01*
X330950Y162500D01*
X333200Y165500D02*Y163250D01*
X333950Y162500D01*
X330950D02*X332450D01*
X333200Y163250D01*
X335750Y165500D02*Y163250D01*
X336500Y162500D01*
X337250D01*
X338000Y163250D01*
Y165500D02*Y163250D01*
X338750Y162500D01*
X339500D01*
X340250Y163250D01*
Y165500D02*Y163250D01*
G54D73*X342050Y167000D02*Y166850D01*
G54D72*Y164750D02*Y162500D01*
X344300Y164750D02*Y162500D01*
Y164750D02*X345050Y165500D01*
X345800D01*
X346550Y164750D01*
Y162500D01*
X343550Y165500D02*X344300Y164750D01*
X350600Y165500D02*X351350Y164750D01*
X349100Y165500D02*X350600D01*
X348350Y164750D02*X349100Y165500D01*
X348350Y164750D02*Y163250D01*
X349100Y162500D01*
X350600D01*
X351350Y163250D01*
X348350Y161000D02*X349100Y160250D01*
X350600D01*
X351350Y161000D01*
Y165500D02*Y161000D01*
M02*
