G04 start of page 2 for group 0 idx 0 *
G04 Title: (unknown), top *
G04 Creator: pcb 20140316 *
G04 CreationDate: Tue 15 Mar 2016 09:58:54 PM GMT UTC *
G04 For: commonadmin *
G04 Format: Gerber/RS-274X *
G04 PCB-Dimensions (mil): 900.00 1100.00 *
G04 PCB-Coordinate-Origin: lower left *
%MOIN*%
%FSLAX25Y25*%
%LNTOP*%
%ADD24C,0.0630*%
%ADD23C,0.1280*%
%ADD22C,0.1870*%
%ADD21C,0.0354*%
%ADD20C,0.0380*%
%ADD19C,0.0350*%
%ADD18C,0.0340*%
%ADD17C,0.0827*%
%ADD16C,0.1476*%
%ADD15C,0.2362*%
%ADD14C,0.0551*%
%ADD13C,0.0600*%
%ADD12C,0.0200*%
%ADD11C,0.0001*%
G54D11*G36*
X71073Y109000D02*X86500D01*
Y88500D01*
X85000Y87000D01*
X76500D01*
X75000Y85500D01*
Y68578D01*
X74981Y68814D01*
X74908Y69120D01*
X74788Y69411D01*
X74623Y69679D01*
X74623Y69679D01*
X74419Y69919D01*
X74359Y69970D01*
X72470Y71859D01*
X72419Y71919D01*
X72179Y72123D01*
X72179Y72123D01*
X71911Y72288D01*
X71620Y72408D01*
X71314Y72481D01*
X71073Y72500D01*
Y73326D01*
X71357Y73790D01*
X71583Y74336D01*
X71721Y74911D01*
X71756Y75500D01*
X71721Y76089D01*
X71583Y76664D01*
X71357Y77210D01*
X71073Y77674D01*
Y83536D01*
X71115Y83553D01*
X71183Y83594D01*
X71243Y83644D01*
X71294Y83704D01*
X71334Y83771D01*
X71488Y84096D01*
X71606Y84436D01*
X71692Y84785D01*
X71743Y85141D01*
X71760Y85500D01*
X71743Y85859D01*
X71692Y86215D01*
X71606Y86564D01*
X71488Y86904D01*
X71338Y87231D01*
X71297Y87298D01*
X71245Y87358D01*
X71184Y87409D01*
X71117Y87450D01*
X71073Y87467D01*
Y97500D01*
X73672D01*
X76003Y95169D01*
X76014Y90265D01*
X76069Y90035D01*
X76159Y89817D01*
X76283Y89616D01*
X76436Y89436D01*
X76616Y89283D01*
X76817Y89159D01*
X77035Y89069D01*
X77265Y89014D01*
X77500Y89000D01*
X83735Y89014D01*
X83965Y89069D01*
X84183Y89159D01*
X84384Y89283D01*
X84564Y89436D01*
X84717Y89616D01*
X84841Y89817D01*
X84931Y90035D01*
X84986Y90265D01*
X85000Y90500D01*
X84986Y96735D01*
X84931Y96965D01*
X84841Y97183D01*
X84717Y97384D01*
X84564Y97564D01*
X84384Y97717D01*
X84183Y97841D01*
X83965Y97931D01*
X83735Y97986D01*
X83500Y98000D01*
X78839Y97990D01*
X75970Y100859D01*
X75919Y100919D01*
X75823Y101000D01*
X76754D01*
X76848Y100847D01*
X77308Y100308D01*
X77847Y99848D01*
X78451Y99478D01*
X79105Y99207D01*
X79794Y99042D01*
X80500Y98986D01*
X81206Y99042D01*
X81895Y99207D01*
X82549Y99478D01*
X83153Y99848D01*
X83692Y100308D01*
X84152Y100847D01*
X84522Y101451D01*
X84793Y102105D01*
X84958Y102794D01*
X85000Y103500D01*
X84958Y104206D01*
X84793Y104895D01*
X84522Y105549D01*
X84152Y106153D01*
X83692Y106692D01*
X83153Y107152D01*
X82549Y107522D01*
X81895Y107793D01*
X81206Y107958D01*
X80500Y108014D01*
X79794Y107958D01*
X79105Y107793D01*
X78451Y107522D01*
X77847Y107152D01*
X77308Y106692D01*
X76848Y106153D01*
X76478Y105549D01*
X76251Y105000D01*
X71073D01*
Y109000D01*
G37*
G36*
Y77674D02*X71048Y77714D01*
X70664Y78164D01*
X70214Y78548D01*
X69710Y78857D01*
X69164Y79083D01*
X68589Y79221D01*
X68002Y79267D01*
Y81740D01*
X68359Y81757D01*
X68715Y81808D01*
X69064Y81894D01*
X69404Y82012D01*
X69731Y82162D01*
X69798Y82203D01*
X69858Y82255D01*
X69909Y82316D01*
X69950Y82383D01*
X69980Y82457D01*
X69998Y82534D01*
X70003Y82613D01*
X69996Y82692D01*
X69977Y82769D01*
X69947Y82842D01*
X69905Y82909D01*
X69853Y82969D01*
X69792Y83020D01*
X69724Y83061D01*
X69651Y83091D01*
X69574Y83108D01*
X69495Y83114D01*
X69416Y83107D01*
X69339Y83088D01*
X69267Y83056D01*
X69029Y82943D01*
X68780Y82857D01*
X68524Y82794D01*
X68263Y82757D01*
X68002Y82744D01*
Y88256D01*
X68263Y88243D01*
X68524Y88206D01*
X68780Y88143D01*
X69029Y88057D01*
X69268Y87947D01*
X69340Y87915D01*
X69417Y87896D01*
X69495Y87889D01*
X69573Y87895D01*
X69650Y87913D01*
X69723Y87942D01*
X69790Y87983D01*
X69851Y88033D01*
X69902Y88093D01*
X69944Y88160D01*
X69974Y88232D01*
X69993Y88309D01*
X70000Y88387D01*
X69994Y88466D01*
X69977Y88542D01*
X69947Y88615D01*
X69906Y88683D01*
X69856Y88743D01*
X69796Y88794D01*
X69729Y88834D01*
X69404Y88988D01*
X69064Y89106D01*
X68715Y89192D01*
X68359Y89243D01*
X68002Y89260D01*
Y97500D01*
X71073D01*
Y87467D01*
X71043Y87480D01*
X70966Y87498D01*
X70887Y87503D01*
X70808Y87496D01*
X70731Y87477D01*
X70658Y87447D01*
X70591Y87405D01*
X70531Y87353D01*
X70480Y87292D01*
X70439Y87224D01*
X70409Y87151D01*
X70392Y87074D01*
X70386Y86995D01*
X70393Y86916D01*
X70412Y86839D01*
X70444Y86767D01*
X70557Y86529D01*
X70643Y86280D01*
X70706Y86024D01*
X70743Y85763D01*
X70756Y85500D01*
X70743Y85237D01*
X70706Y84976D01*
X70643Y84720D01*
X70557Y84471D01*
X70447Y84232D01*
X70415Y84160D01*
X70396Y84083D01*
X70389Y84005D01*
X70395Y83927D01*
X70413Y83850D01*
X70442Y83777D01*
X70483Y83710D01*
X70533Y83649D01*
X70593Y83598D01*
X70660Y83556D01*
X70732Y83526D01*
X70809Y83507D01*
X70887Y83500D01*
X70966Y83506D01*
X71042Y83523D01*
X71073Y83536D01*
Y77674D01*
G37*
G36*
Y72500D02*X71000Y72506D01*
X70922Y72500D01*
X70271D01*
X70664Y72836D01*
X71048Y73286D01*
X71073Y73326D01*
Y72500D01*
G37*
G36*
X68002Y109000D02*X71073D01*
Y105000D01*
X68002D01*
Y109000D01*
G37*
G36*
X64927Y73326D02*X64952Y73286D01*
X65336Y72836D01*
X65729Y72500D01*
X64927D01*
Y73326D01*
G37*
G36*
X68002Y79267D02*X68000Y79267D01*
X67411Y79221D01*
X66836Y79083D01*
X66290Y78857D01*
X65786Y78548D01*
X65336Y78164D01*
X64952Y77714D01*
X64927Y77674D01*
Y83533D01*
X64957Y83520D01*
X65034Y83502D01*
X65113Y83497D01*
X65192Y83504D01*
X65269Y83523D01*
X65342Y83553D01*
X65409Y83595D01*
X65469Y83647D01*
X65520Y83708D01*
X65561Y83776D01*
X65591Y83849D01*
X65608Y83926D01*
X65614Y84005D01*
X65607Y84084D01*
X65588Y84161D01*
X65556Y84233D01*
X65443Y84471D01*
X65357Y84720D01*
X65294Y84976D01*
X65257Y85237D01*
X65244Y85500D01*
X65257Y85763D01*
X65294Y86024D01*
X65357Y86280D01*
X65443Y86529D01*
X65553Y86768D01*
X65585Y86840D01*
X65604Y86917D01*
X65611Y86995D01*
X65605Y87073D01*
X65587Y87150D01*
X65558Y87223D01*
X65517Y87290D01*
X65467Y87351D01*
X65407Y87402D01*
X65340Y87444D01*
X65268Y87474D01*
X65191Y87493D01*
X65113Y87500D01*
X65034Y87494D01*
X64958Y87477D01*
X64927Y87464D01*
Y97500D01*
X68002D01*
Y89260D01*
X68000Y89260D01*
X67641Y89243D01*
X67285Y89192D01*
X66936Y89106D01*
X66596Y88988D01*
X66269Y88838D01*
X66202Y88797D01*
X66142Y88745D01*
X66091Y88684D01*
X66050Y88617D01*
X66020Y88543D01*
X66002Y88466D01*
X65997Y88387D01*
X66004Y88308D01*
X66023Y88231D01*
X66053Y88158D01*
X66095Y88091D01*
X66147Y88031D01*
X66208Y87980D01*
X66276Y87939D01*
X66349Y87909D01*
X66426Y87892D01*
X66505Y87886D01*
X66584Y87893D01*
X66661Y87912D01*
X66733Y87944D01*
X66971Y88057D01*
X67220Y88143D01*
X67476Y88206D01*
X67737Y88243D01*
X68000Y88256D01*
X68002Y88256D01*
Y82744D01*
X68000Y82744D01*
X67737Y82757D01*
X67476Y82794D01*
X67220Y82857D01*
X66971Y82943D01*
X66732Y83053D01*
X66660Y83085D01*
X66583Y83104D01*
X66505Y83111D01*
X66427Y83105D01*
X66350Y83087D01*
X66277Y83058D01*
X66210Y83017D01*
X66149Y82967D01*
X66098Y82907D01*
X66056Y82840D01*
X66026Y82768D01*
X66007Y82691D01*
X66000Y82613D01*
X66006Y82534D01*
X66023Y82458D01*
X66053Y82385D01*
X66094Y82317D01*
X66144Y82257D01*
X66204Y82206D01*
X66271Y82166D01*
X66596Y82012D01*
X66936Y81894D01*
X67285Y81808D01*
X67641Y81757D01*
X68000Y81740D01*
X68002Y81740D01*
Y79267D01*
G37*
G36*
X64927Y77674D02*X64643Y77210D01*
X64417Y76664D01*
X64279Y76089D01*
X64233Y75500D01*
X64279Y74911D01*
X64417Y74336D01*
X64643Y73790D01*
X64927Y73326D01*
Y72500D01*
X61179D01*
X61048Y72714D01*
X60664Y73164D01*
X60214Y73548D01*
X59710Y73857D01*
X59164Y74083D01*
X58589Y74221D01*
X58000Y74267D01*
X57411Y74221D01*
X56836Y74083D01*
X56290Y73857D01*
X55875Y73603D01*
Y77046D01*
X56092Y77264D01*
X56290Y77143D01*
X56836Y76917D01*
X57411Y76779D01*
X58000Y76733D01*
X58589Y76779D01*
X59164Y76917D01*
X59710Y77143D01*
X60214Y77452D01*
X60664Y77836D01*
X61048Y78286D01*
X61357Y78790D01*
X61583Y79336D01*
X61721Y79911D01*
X61756Y80500D01*
X61721Y81089D01*
X61583Y81664D01*
X61357Y82210D01*
X61048Y82714D01*
X60664Y83164D01*
X60214Y83548D01*
X59710Y83857D01*
X59164Y84083D01*
X58589Y84221D01*
X58000Y84267D01*
X57411Y84221D01*
X56836Y84083D01*
X56290Y83857D01*
X55875Y83603D01*
Y87397D01*
X56290Y87143D01*
X56836Y86917D01*
X57411Y86779D01*
X58000Y86733D01*
X58589Y86779D01*
X59164Y86917D01*
X59710Y87143D01*
X60214Y87452D01*
X60664Y87836D01*
X61048Y88286D01*
X61357Y88790D01*
X61583Y89336D01*
X61721Y89911D01*
X61756Y90500D01*
X61721Y91089D01*
X61583Y91664D01*
X61357Y92210D01*
X61048Y92714D01*
X60664Y93164D01*
X60214Y93548D01*
X59710Y93857D01*
X59164Y94083D01*
X58589Y94221D01*
X58000Y94267D01*
X57411Y94221D01*
X56836Y94083D01*
X56290Y93857D01*
X55875Y93603D01*
Y97500D01*
X64927D01*
Y87464D01*
X64885Y87447D01*
X64817Y87406D01*
X64757Y87356D01*
X64706Y87296D01*
X64666Y87229D01*
X64512Y86904D01*
X64394Y86564D01*
X64308Y86215D01*
X64257Y85859D01*
X64240Y85500D01*
X64257Y85141D01*
X64308Y84785D01*
X64394Y84436D01*
X64512Y84096D01*
X64662Y83769D01*
X64703Y83702D01*
X64755Y83642D01*
X64816Y83591D01*
X64883Y83550D01*
X64927Y83533D01*
Y77674D01*
G37*
G36*
X55875Y109000D02*X68002D01*
Y105000D01*
X55875D01*
Y109000D01*
G37*
G36*
X69500Y26986D02*X70206Y27042D01*
X70895Y27207D01*
X71549Y27478D01*
X72153Y27848D01*
X72692Y28308D01*
X73152Y28847D01*
X73522Y29451D01*
X73793Y30105D01*
X73958Y30794D01*
X74000Y31500D01*
X73958Y32206D01*
X73793Y32895D01*
X73522Y33549D01*
X73152Y34153D01*
X72692Y34692D01*
X72153Y35152D01*
X71549Y35522D01*
X71500Y35542D01*
Y44672D01*
X74359Y47530D01*
X74419Y47581D01*
X74623Y47820D01*
X74623Y47821D01*
X74788Y48089D01*
X74908Y48380D01*
X74981Y48686D01*
X75000Y48922D01*
Y16500D01*
X73500Y15000D01*
X69500D01*
Y17007D01*
X72735Y17014D01*
X72965Y17069D01*
X73183Y17159D01*
X73384Y17283D01*
X73564Y17436D01*
X73717Y17616D01*
X73841Y17817D01*
X73931Y18035D01*
X73986Y18265D01*
X74000Y18500D01*
X73986Y24735D01*
X73931Y24965D01*
X73841Y25183D01*
X73717Y25384D01*
X73564Y25564D01*
X73384Y25717D01*
X73183Y25841D01*
X72965Y25931D01*
X72735Y25986D01*
X72500Y26000D01*
X69500Y25993D01*
Y26986D01*
G37*
G36*
Y52056D02*X69710Y52143D01*
X70214Y52452D01*
X70664Y52836D01*
X71000Y53229D01*
Y49828D01*
X69500Y48328D01*
Y52056D01*
G37*
G36*
X66000Y62321D02*Y58679D01*
X65786Y58548D01*
X65336Y58164D01*
X64952Y57714D01*
X64643Y57210D01*
X64417Y56664D01*
X64279Y56089D01*
X64233Y55500D01*
X64279Y54911D01*
X64417Y54336D01*
X64643Y53790D01*
X64952Y53286D01*
X65336Y52836D01*
X65786Y52452D01*
X66219Y52186D01*
X66076Y52175D01*
X65663Y52076D01*
X65270Y51913D01*
X64908Y51691D01*
X64585Y51415D01*
X64309Y51092D01*
X64087Y50730D01*
X63924Y50337D01*
X63825Y49924D01*
X63792Y49500D01*
X63825Y49076D01*
X63924Y48663D01*
X64087Y48270D01*
X64309Y47908D01*
X64585Y47585D01*
X64908Y47309D01*
X65270Y47087D01*
X65663Y46924D01*
X66076Y46825D01*
X66500Y46792D01*
X66924Y46825D01*
X67337Y46924D01*
X67730Y47087D01*
X68092Y47309D01*
X68415Y47585D01*
X68691Y47908D01*
X68913Y48270D01*
X69076Y48663D01*
X69175Y49076D01*
X69200Y49500D01*
X69175Y49924D01*
X69076Y50337D01*
X68913Y50730D01*
X68691Y51092D01*
X68415Y51415D01*
X68092Y51691D01*
X68022Y51734D01*
X68589Y51779D01*
X69164Y51917D01*
X69500Y52056D01*
Y48328D01*
X68141Y46970D01*
X68081Y46919D01*
X67877Y46679D01*
X67712Y46411D01*
X67592Y46120D01*
X67519Y45814D01*
X67519Y45814D01*
X67494Y45500D01*
X67500Y45422D01*
Y35542D01*
X67451Y35522D01*
X66847Y35152D01*
X66308Y34692D01*
X65848Y34153D01*
X65478Y33549D01*
X65207Y32895D01*
X65042Y32206D01*
X64986Y31500D01*
X65042Y30794D01*
X65207Y30105D01*
X65478Y29451D01*
X65848Y28847D01*
X66308Y28308D01*
X66847Y27848D01*
X67451Y27478D01*
X68105Y27207D01*
X68794Y27042D01*
X69500Y26986D01*
Y25993D01*
X66265Y25986D01*
X66035Y25931D01*
X65817Y25841D01*
X65616Y25717D01*
X65436Y25564D01*
X65283Y25384D01*
X65159Y25183D01*
X65069Y24965D01*
X65014Y24735D01*
X65000Y24500D01*
X65014Y18265D01*
X65069Y18035D01*
X65159Y17817D01*
X65283Y17616D01*
X65436Y17436D01*
X65616Y17283D01*
X65817Y17159D01*
X66035Y17069D01*
X66265Y17014D01*
X66500Y17000D01*
X69500Y17007D01*
Y15000D01*
X65500D01*
X64500Y14000D01*
Y4000D01*
X63000Y2500D01*
X61284D01*
Y39869D01*
X61287Y39870D01*
X61355Y39909D01*
X61416Y39958D01*
X61469Y40017D01*
X61511Y40083D01*
X61674Y40408D01*
X61803Y40748D01*
X61901Y41098D01*
X61967Y41456D01*
X62000Y41818D01*
Y42182D01*
X61967Y42544D01*
X61901Y42902D01*
X61803Y43252D01*
X61674Y43592D01*
X61515Y43919D01*
X61472Y43985D01*
X61419Y44044D01*
X61357Y44094D01*
X61288Y44133D01*
X61284Y44135D01*
Y58670D01*
X61357Y58790D01*
X61583Y59336D01*
X61721Y59911D01*
X61756Y60500D01*
X61721Y61089D01*
X61583Y61664D01*
X61357Y62210D01*
X61284Y62330D01*
Y68500D01*
X65729D01*
X65336Y68164D01*
X64952Y67714D01*
X64643Y67210D01*
X64417Y66664D01*
X64279Y66089D01*
X64233Y65500D01*
X64279Y64911D01*
X64417Y64336D01*
X64643Y63790D01*
X64952Y63286D01*
X65336Y62836D01*
X65786Y62452D01*
X66000Y62321D01*
G37*
G36*
X61284Y62330D02*X61048Y62714D01*
X60664Y63164D01*
X60214Y63548D01*
X59710Y63857D01*
X59164Y64083D01*
X58589Y64221D01*
X58000Y64267D01*
X57411Y64221D01*
X57166Y64162D01*
X55875Y65454D01*
Y67397D01*
X56290Y67143D01*
X56836Y66917D01*
X57411Y66779D01*
X58000Y66733D01*
X58589Y66779D01*
X59164Y66917D01*
X59710Y67143D01*
X60214Y67452D01*
X60664Y67836D01*
X61048Y68286D01*
X61179Y68500D01*
X61284D01*
Y62330D01*
G37*
G36*
Y2500D02*X55875D01*
Y11364D01*
X55933Y11413D01*
X57243Y12947D01*
X58296Y14666D01*
X59068Y16529D01*
X59539Y18490D01*
X59657Y20500D01*
X59539Y22510D01*
X59068Y24471D01*
X58296Y26334D01*
X57243Y28053D01*
X55933Y29587D01*
X55875Y29636D01*
Y38704D01*
X55909Y38645D01*
X55958Y38584D01*
X56017Y38531D01*
X56083Y38489D01*
X56408Y38326D01*
X56748Y38197D01*
X57098Y38099D01*
X57456Y38033D01*
X57818Y38000D01*
X58182D01*
X58544Y38033D01*
X58902Y38099D01*
X59252Y38197D01*
X59592Y38326D01*
X59919Y38485D01*
X59985Y38528D01*
X60044Y38581D01*
X60094Y38643D01*
X60133Y38712D01*
X60161Y38786D01*
X60177Y38863D01*
X60181Y38942D01*
X60173Y39021D01*
X60152Y39097D01*
X60120Y39170D01*
X60077Y39236D01*
X60024Y39295D01*
X59962Y39344D01*
X59893Y39384D01*
X59819Y39412D01*
X59742Y39428D01*
X59663Y39432D01*
X59584Y39424D01*
X59507Y39403D01*
X59436Y39370D01*
X59193Y39247D01*
X58938Y39150D01*
X58676Y39077D01*
X58408Y39028D01*
X58136Y39003D01*
X57864D01*
X57592Y39028D01*
X57324Y39077D01*
X57062Y39150D01*
X56807Y39247D01*
X56563Y39367D01*
X56491Y39400D01*
X56415Y39421D01*
X56337Y39429D01*
X56259Y39425D01*
X56182Y39409D01*
X56108Y39381D01*
X56040Y39342D01*
X55979Y39293D01*
X55926Y39234D01*
X55883Y39168D01*
X55875Y39151D01*
Y44842D01*
X55880Y44830D01*
X55923Y44764D01*
X55976Y44705D01*
X56038Y44656D01*
X56107Y44616D01*
X56181Y44588D01*
X56258Y44572D01*
X56337Y44568D01*
X56416Y44576D01*
X56493Y44597D01*
X56564Y44630D01*
X56807Y44753D01*
X57062Y44850D01*
X57324Y44923D01*
X57592Y44972D01*
X57864Y44997D01*
X58136D01*
X58408Y44972D01*
X58676Y44923D01*
X58938Y44850D01*
X59193Y44753D01*
X59437Y44633D01*
X59509Y44600D01*
X59584Y44579D01*
X59663Y44571D01*
X59741Y44575D01*
X59818Y44591D01*
X59892Y44619D01*
X59960Y44658D01*
X60021Y44707D01*
X60074Y44766D01*
X60117Y44832D01*
X60149Y44904D01*
X60170Y44980D01*
X60178Y45058D01*
X60174Y45136D01*
X60158Y45213D01*
X60130Y45287D01*
X60091Y45355D01*
X60042Y45416D01*
X59983Y45469D01*
X59917Y45511D01*
X59592Y45674D01*
X59252Y45803D01*
X58902Y45901D01*
X58544Y45967D01*
X58182Y46000D01*
X57818D01*
X57456Y45967D01*
X57098Y45901D01*
X56748Y45803D01*
X56408Y45674D01*
X56081Y45515D01*
X56015Y45472D01*
X55956Y45419D01*
X55906Y45357D01*
X55875Y45302D01*
Y57397D01*
X56290Y57143D01*
X56836Y56917D01*
X57411Y56779D01*
X58000Y56733D01*
X58589Y56779D01*
X59164Y56917D01*
X59710Y57143D01*
X60214Y57452D01*
X60664Y57836D01*
X61048Y58286D01*
X61284Y58670D01*
Y44135D01*
X61214Y44161D01*
X61137Y44177D01*
X61058Y44181D01*
X60979Y44173D01*
X60903Y44152D01*
X60830Y44120D01*
X60764Y44077D01*
X60705Y44024D01*
X60656Y43962D01*
X60616Y43893D01*
X60588Y43819D01*
X60572Y43742D01*
X60568Y43663D01*
X60576Y43584D01*
X60597Y43507D01*
X60630Y43436D01*
X60753Y43193D01*
X60850Y42938D01*
X60923Y42676D01*
X60972Y42408D01*
X60997Y42136D01*
Y41864D01*
X60972Y41592D01*
X60923Y41324D01*
X60850Y41062D01*
X60753Y40807D01*
X60633Y40563D01*
X60600Y40491D01*
X60579Y40416D01*
X60571Y40337D01*
X60575Y40259D01*
X60591Y40182D01*
X60619Y40108D01*
X60658Y40040D01*
X60707Y39979D01*
X60766Y39926D01*
X60832Y39883D01*
X60904Y39851D01*
X60980Y39830D01*
X61058Y39822D01*
X61136Y39826D01*
X61213Y39842D01*
X61284Y39869D01*
Y2500D01*
G37*
G36*
X54716Y88670D02*X54952Y88286D01*
X55336Y87836D01*
X55786Y87452D01*
X55875Y87397D01*
Y83603D01*
X55786Y83548D01*
X55336Y83164D01*
X54952Y82714D01*
X54716Y82330D01*
Y88670D01*
G37*
G36*
Y97500D02*X55875D01*
Y93603D01*
X55786Y93548D01*
X55336Y93164D01*
X54952Y92714D01*
X54716Y92330D01*
Y97500D01*
G37*
G36*
Y58670D02*X54952Y58286D01*
X55336Y57836D01*
X55786Y57452D01*
X55875Y57397D01*
Y45302D01*
X55867Y45288D01*
X55839Y45214D01*
X55823Y45137D01*
X55819Y45058D01*
X55827Y44979D01*
X55848Y44903D01*
X55875Y44842D01*
Y39151D01*
X55851Y39096D01*
X55830Y39020D01*
X55822Y38942D01*
X55826Y38864D01*
X55842Y38787D01*
X55870Y38713D01*
X55875Y38704D01*
Y29636D01*
X54716Y30626D01*
Y39865D01*
X54786Y39839D01*
X54863Y39823D01*
X54942Y39819D01*
X55021Y39827D01*
X55097Y39848D01*
X55170Y39880D01*
X55236Y39923D01*
X55295Y39976D01*
X55344Y40038D01*
X55384Y40107D01*
X55412Y40181D01*
X55428Y40258D01*
X55432Y40337D01*
X55424Y40416D01*
X55403Y40493D01*
X55370Y40564D01*
X55247Y40807D01*
X55150Y41062D01*
X55077Y41324D01*
X55028Y41592D01*
X55003Y41864D01*
Y42136D01*
X55028Y42408D01*
X55077Y42676D01*
X55150Y42938D01*
X55247Y43193D01*
X55367Y43437D01*
X55400Y43509D01*
X55421Y43585D01*
X55429Y43663D01*
X55425Y43741D01*
X55409Y43818D01*
X55381Y43892D01*
X55342Y43960D01*
X55293Y44021D01*
X55234Y44074D01*
X55168Y44117D01*
X55096Y44149D01*
X55020Y44170D01*
X54942Y44178D01*
X54864Y44174D01*
X54787Y44158D01*
X54716Y44131D01*
Y58670D01*
G37*
G36*
X40054Y52668D02*X40205Y52107D01*
X40318Y51469D01*
X40375Y50824D01*
Y50176D01*
X40318Y49531D01*
X40205Y48893D01*
X40054Y48332D01*
Y52668D01*
G37*
G36*
X54285Y81113D02*X50641Y77470D01*
X50581Y77419D01*
X50377Y77179D01*
X50212Y76911D01*
X50092Y76620D01*
X50019Y76314D01*
X50019Y76314D01*
X49994Y76000D01*
X50000Y75922D01*
Y66578D01*
X49994Y66500D01*
X50019Y66186D01*
X50074Y65954D01*
X50092Y65880D01*
X50127Y65795D01*
X50212Y65589D01*
X50377Y65321D01*
X50377Y65321D01*
X50581Y65081D01*
X50641Y65030D01*
X54338Y61334D01*
X54279Y61089D01*
X54233Y60500D01*
X54279Y59911D01*
X54417Y59336D01*
X54643Y58790D01*
X54716Y58670D01*
Y44131D01*
X54713Y44130D01*
X54645Y44091D01*
X54584Y44042D01*
X54531Y43983D01*
X54489Y43917D01*
X54326Y43592D01*
X54197Y43252D01*
X54099Y42902D01*
X54033Y42544D01*
X54000Y42182D01*
Y41818D01*
X54033Y41456D01*
X54099Y41098D01*
X54197Y40748D01*
X54326Y40408D01*
X54485Y40081D01*
X54528Y40015D01*
X54581Y39956D01*
X54643Y39906D01*
X54712Y39867D01*
X54716Y39865D01*
Y30626D01*
X54400Y30896D01*
X52680Y31950D01*
X50817Y32722D01*
X48857Y33192D01*
X46846Y33351D01*
X44836Y33192D01*
X42875Y32722D01*
X41012Y31950D01*
X40054Y31362D01*
Y45958D01*
X40060Y45967D01*
X40431Y46604D01*
X40744Y47271D01*
X40997Y47962D01*
X41189Y48673D01*
X41317Y49398D01*
X41382Y50132D01*
Y50868D01*
X41317Y51602D01*
X41189Y52327D01*
X40997Y53038D01*
X40744Y53729D01*
X40431Y54396D01*
X40060Y55033D01*
X40054Y55042D01*
Y80418D01*
X40161Y80462D01*
X40429Y80627D01*
X40669Y80831D01*
X40720Y80891D01*
X47859Y88030D01*
X47919Y88081D01*
X48123Y88320D01*
X48123Y88321D01*
X48288Y88589D01*
X48408Y88880D01*
X48481Y89186D01*
X48506Y89500D01*
X48500Y89578D01*
Y97172D01*
X48828Y97500D01*
X54716D01*
Y92330D01*
X54643Y92210D01*
X54417Y91664D01*
X54279Y91089D01*
X54233Y90500D01*
X54279Y89911D01*
X54417Y89336D01*
X54643Y88790D01*
X54716Y88670D01*
Y82330D01*
X54643Y82210D01*
X54417Y81664D01*
X54285Y81113D01*
G37*
G36*
X40054Y31362D02*X39293Y30896D01*
X37760Y29587D01*
X36450Y28053D01*
X35397Y26334D01*
X34625Y24471D01*
X34154Y22510D01*
X33996Y20500D01*
X34154Y18490D01*
X34625Y16529D01*
X35397Y14666D01*
X36450Y12947D01*
X36528Y12856D01*
X33004Y9332D01*
Y42118D01*
X33368D01*
X34102Y42183D01*
X34827Y42311D01*
X35538Y42503D01*
X36229Y42756D01*
X36896Y43069D01*
X37533Y43440D01*
X38134Y43864D01*
X38194Y43918D01*
X38244Y43980D01*
X38283Y44049D01*
X38312Y44124D01*
X38328Y44202D01*
X38332Y44282D01*
X38323Y44361D01*
X38302Y44438D01*
X38269Y44511D01*
X38226Y44578D01*
X38172Y44637D01*
X38110Y44687D01*
X38040Y44726D01*
X37966Y44755D01*
X37888Y44771D01*
X37808Y44775D01*
X37729Y44766D01*
X37652Y44745D01*
X37579Y44712D01*
X37513Y44667D01*
X36988Y44288D01*
X36428Y43962D01*
X35841Y43687D01*
X35233Y43464D01*
X34607Y43295D01*
X33969Y43182D01*
X33324Y43125D01*
X33004D01*
Y57875D01*
X33324D01*
X33969Y57818D01*
X34607Y57705D01*
X35233Y57536D01*
X35841Y57313D01*
X36428Y57038D01*
X36988Y56712D01*
X37517Y56338D01*
X37582Y56294D01*
X37654Y56262D01*
X37730Y56241D01*
X37808Y56232D01*
X37887Y56236D01*
X37964Y56252D01*
X38037Y56280D01*
X38106Y56319D01*
X38167Y56369D01*
X38220Y56427D01*
X38263Y56493D01*
X38295Y56564D01*
X38316Y56640D01*
X38325Y56719D01*
X38321Y56797D01*
X38305Y56874D01*
X38277Y56948D01*
X38238Y57016D01*
X38189Y57078D01*
X38129Y57129D01*
X37533Y57560D01*
X36896Y57931D01*
X36229Y58244D01*
X35538Y58497D01*
X34827Y58689D01*
X34102Y58817D01*
X33368Y58882D01*
X33004D01*
Y80250D01*
X39172D01*
X39250Y80244D01*
X39564Y80269D01*
X39564Y80269D01*
X39870Y80342D01*
X40054Y80418D01*
Y55042D01*
X39636Y55634D01*
X39582Y55694D01*
X39520Y55744D01*
X39451Y55783D01*
X39376Y55812D01*
X39298Y55828D01*
X39218Y55832D01*
X39139Y55823D01*
X39062Y55802D01*
X38989Y55769D01*
X38922Y55726D01*
X38863Y55672D01*
X38813Y55610D01*
X38774Y55540D01*
X38745Y55466D01*
X38729Y55388D01*
X38725Y55308D01*
X38734Y55229D01*
X38755Y55152D01*
X38788Y55079D01*
X38833Y55013D01*
X39212Y54488D01*
X39538Y53928D01*
X39813Y53341D01*
X40036Y52733D01*
X40054Y52668D01*
Y48332D01*
X40036Y48267D01*
X39813Y47659D01*
X39538Y47072D01*
X39212Y46512D01*
X38838Y45983D01*
X38794Y45918D01*
X38762Y45846D01*
X38741Y45770D01*
X38732Y45692D01*
X38736Y45613D01*
X38752Y45536D01*
X38780Y45463D01*
X38819Y45394D01*
X38869Y45333D01*
X38927Y45280D01*
X38993Y45237D01*
X39064Y45205D01*
X39140Y45184D01*
X39219Y45175D01*
X39297Y45179D01*
X39374Y45195D01*
X39448Y45223D01*
X39516Y45262D01*
X39578Y45311D01*
X39629Y45371D01*
X40054Y45958D01*
Y31362D01*
G37*
G36*
X33004Y9332D02*X32172Y8500D01*
X25946D01*
Y10038D01*
X26053Y10104D01*
X27587Y11413D01*
X28896Y12947D01*
X29950Y14666D01*
X30722Y16529D01*
X31192Y18490D01*
X31311Y20500D01*
X31192Y22510D01*
X30722Y24471D01*
X29950Y26334D01*
X28896Y28053D01*
X27587Y29587D01*
X26053Y30896D01*
X25946Y30962D01*
Y40689D01*
X26008Y40919D01*
X26087Y41362D01*
X26126Y41810D01*
Y42261D01*
X26087Y42709D01*
X26008Y43152D01*
X25946Y43381D01*
Y45958D01*
X26364Y45366D01*
X26418Y45306D01*
X26480Y45256D01*
X26549Y45217D01*
X26624Y45188D01*
X26702Y45172D01*
X26782Y45168D01*
X26861Y45177D01*
X26938Y45198D01*
X27011Y45231D01*
X27078Y45274D01*
X27137Y45328D01*
X27187Y45390D01*
X27226Y45460D01*
X27255Y45534D01*
X27271Y45612D01*
X27275Y45692D01*
X27266Y45771D01*
X27245Y45848D01*
X27212Y45921D01*
X27167Y45987D01*
X26788Y46512D01*
X26462Y47072D01*
X26187Y47659D01*
X25964Y48267D01*
X25946Y48332D01*
Y52668D01*
X25964Y52733D01*
X26187Y53341D01*
X26462Y53928D01*
X26788Y54488D01*
X27162Y55017D01*
X27206Y55082D01*
X27238Y55154D01*
X27259Y55230D01*
X27268Y55308D01*
X27264Y55387D01*
X27248Y55464D01*
X27220Y55537D01*
X27181Y55606D01*
X27131Y55667D01*
X27073Y55720D01*
X27007Y55763D01*
X26936Y55795D01*
X26860Y55816D01*
X26781Y55825D01*
X26703Y55821D01*
X26626Y55805D01*
X26552Y55777D01*
X26484Y55738D01*
X26422Y55689D01*
X26371Y55629D01*
X25946Y55042D01*
Y76498D01*
X26000Y76494D01*
X26314Y76519D01*
X26314Y76519D01*
X26620Y76592D01*
X26911Y76712D01*
X27179Y76877D01*
X27419Y77081D01*
X27470Y77141D01*
X30578Y80250D01*
X33004D01*
Y58882D01*
X32632D01*
X31898Y58817D01*
X31173Y58689D01*
X30462Y58497D01*
X29771Y58244D01*
X29104Y57931D01*
X28467Y57560D01*
X27866Y57136D01*
X27806Y57082D01*
X27756Y57020D01*
X27717Y56951D01*
X27688Y56876D01*
X27672Y56798D01*
X27668Y56718D01*
X27677Y56639D01*
X27698Y56562D01*
X27731Y56489D01*
X27774Y56422D01*
X27828Y56363D01*
X27890Y56313D01*
X27960Y56274D01*
X28034Y56245D01*
X28112Y56229D01*
X28192Y56225D01*
X28271Y56234D01*
X28348Y56255D01*
X28421Y56288D01*
X28487Y56333D01*
X29012Y56712D01*
X29572Y57038D01*
X30159Y57313D01*
X30767Y57536D01*
X31393Y57705D01*
X32031Y57818D01*
X32676Y57875D01*
X33004D01*
Y43125D01*
X32676D01*
X32031Y43182D01*
X31393Y43295D01*
X30767Y43464D01*
X30159Y43687D01*
X29572Y43962D01*
X29012Y44288D01*
X28483Y44662D01*
X28418Y44706D01*
X28346Y44738D01*
X28270Y44759D01*
X28192Y44768D01*
X28113Y44764D01*
X28036Y44748D01*
X27963Y44720D01*
X27894Y44681D01*
X27833Y44631D01*
X27780Y44573D01*
X27737Y44507D01*
X27705Y44436D01*
X27684Y44360D01*
X27675Y44281D01*
X27679Y44203D01*
X27695Y44126D01*
X27723Y44052D01*
X27762Y43984D01*
X27811Y43922D01*
X27871Y43871D01*
X28467Y43440D01*
X29104Y43069D01*
X29771Y42756D01*
X30462Y42503D01*
X31173Y42311D01*
X31898Y42183D01*
X32632Y42118D01*
X33004D01*
Y9332D01*
G37*
G36*
X25946Y48332D02*X25795Y48893D01*
X25682Y49531D01*
X25625Y50176D01*
Y50824D01*
X25682Y51469D01*
X25795Y52107D01*
X25946Y52668D01*
Y48332D01*
G37*
G36*
Y30962D02*X24334Y31950D01*
X22471Y32722D01*
X20994Y33076D01*
Y36902D01*
X21217D01*
X21666Y36941D01*
X22109Y37019D01*
X22544Y37136D01*
X22966Y37291D01*
X23374Y37482D01*
X23763Y37708D01*
X23827Y37755D01*
X23882Y37813D01*
X23927Y37878D01*
X23962Y37949D01*
X23985Y38025D01*
X23996Y38104D01*
X23994Y38183D01*
X23980Y38261D01*
X23954Y38336D01*
X23917Y38406D01*
X23869Y38469D01*
X23812Y38524D01*
X23747Y38569D01*
X23675Y38604D01*
X23599Y38627D01*
X23521Y38638D01*
X23441Y38636D01*
X23363Y38622D01*
X23288Y38596D01*
X23219Y38558D01*
X22908Y38372D01*
X22580Y38219D01*
X22240Y38094D01*
X21891Y38000D01*
X21534Y37937D01*
X21173Y37906D01*
X20994D01*
Y46165D01*
X21173D01*
X21534Y46134D01*
X21891Y46070D01*
X22240Y45976D01*
X22580Y45852D01*
X22908Y45698D01*
X23221Y45517D01*
X23290Y45478D01*
X23364Y45452D01*
X23442Y45439D01*
X23521Y45437D01*
X23599Y45448D01*
X23674Y45471D01*
X23745Y45505D01*
X23809Y45550D01*
X23866Y45604D01*
X23913Y45667D01*
X23951Y45737D01*
X23976Y45811D01*
X23990Y45888D01*
X23992Y45967D01*
X23981Y46045D01*
X23958Y46120D01*
X23924Y46191D01*
X23879Y46256D01*
X23824Y46313D01*
X23761Y46359D01*
X23374Y46589D01*
X22966Y46780D01*
X22544Y46934D01*
X22109Y47051D01*
X21666Y47130D01*
X21217Y47169D01*
X20994D01*
Y75666D01*
X21828Y76500D01*
X25922D01*
X25946Y76498D01*
Y55042D01*
X25940Y55033D01*
X25569Y54396D01*
X25256Y53729D01*
X25003Y53038D01*
X24811Y52327D01*
X24683Y51602D01*
X24618Y50868D01*
Y50132D01*
X24683Y49398D01*
X24811Y48673D01*
X25003Y47962D01*
X25256Y47271D01*
X25569Y46604D01*
X25940Y45967D01*
X25946Y45958D01*
Y43381D01*
X25891Y43587D01*
X25737Y44010D01*
X25546Y44417D01*
X25320Y44807D01*
X25272Y44870D01*
X25215Y44925D01*
X25150Y44971D01*
X25079Y45005D01*
X25003Y45028D01*
X24924Y45039D01*
X24845Y45038D01*
X24767Y45024D01*
X24692Y44998D01*
X24622Y44960D01*
X24559Y44912D01*
X24504Y44855D01*
X24458Y44790D01*
X24424Y44719D01*
X24401Y44643D01*
X24390Y44564D01*
X24391Y44485D01*
X24405Y44407D01*
X24431Y44332D01*
X24470Y44263D01*
X24655Y43952D01*
X24809Y43624D01*
X24933Y43284D01*
X25027Y42934D01*
X25090Y42577D01*
X25122Y42217D01*
Y41854D01*
X25090Y41494D01*
X25027Y41137D01*
X24933Y40787D01*
X24809Y40447D01*
X24655Y40119D01*
X24473Y39806D01*
X24435Y39738D01*
X24409Y39663D01*
X24395Y39586D01*
X24394Y39507D01*
X24404Y39429D01*
X24427Y39354D01*
X24462Y39283D01*
X24507Y39218D01*
X24561Y39162D01*
X24624Y39114D01*
X24693Y39077D01*
X24768Y39051D01*
X24845Y39037D01*
X24924Y39036D01*
X25002Y39047D01*
X25077Y39069D01*
X25148Y39104D01*
X25212Y39149D01*
X25269Y39203D01*
X25315Y39267D01*
X25546Y39653D01*
X25737Y40061D01*
X25891Y40484D01*
X25946Y40689D01*
Y30962D01*
G37*
G36*
X20994Y33076D02*X20510Y33192D01*
X18500Y33351D01*
X16726Y33211D01*
Y39187D01*
X16769Y39146D01*
X16834Y39100D01*
X16906Y39066D01*
X16982Y39043D01*
X17060Y39032D01*
X17140Y39033D01*
X17218Y39047D01*
X17293Y39073D01*
X17362Y39111D01*
X17426Y39159D01*
X17481Y39216D01*
X17526Y39281D01*
X17561Y39352D01*
X17584Y39428D01*
X17595Y39507D01*
X17593Y39586D01*
X17579Y39664D01*
X17553Y39739D01*
X17514Y39808D01*
X17329Y40119D01*
X17176Y40447D01*
X17051Y40787D01*
X16957Y41137D01*
X16894Y41494D01*
X16862Y41854D01*
Y42217D01*
X16894Y42577D01*
X16957Y42934D01*
X17051Y43284D01*
X17176Y43624D01*
X17329Y43952D01*
X17511Y44265D01*
X17549Y44333D01*
X17575Y44408D01*
X17589Y44485D01*
X17591Y44564D01*
X17580Y44642D01*
X17557Y44717D01*
X17523Y44788D01*
X17478Y44853D01*
X17423Y44909D01*
X17360Y44957D01*
X17291Y44994D01*
X17217Y45020D01*
X17139Y45034D01*
X17060Y45035D01*
X16982Y45024D01*
X16907Y45002D01*
X16836Y44967D01*
X16772Y44922D01*
X16726Y44879D01*
Y58124D01*
X16915Y58285D01*
X17191Y58608D01*
X17413Y58970D01*
X17576Y59363D01*
X17675Y59776D01*
X17692Y60064D01*
X19859Y62230D01*
X19919Y62281D01*
X20123Y62520D01*
X20123Y62521D01*
X20288Y62789D01*
X20408Y63080D01*
X20481Y63386D01*
X20506Y63700D01*
X20500Y63778D01*
Y75172D01*
X20994Y75666D01*
Y47169D01*
X20767D01*
X20319Y47130D01*
X19875Y47051D01*
X19441Y46934D01*
X19018Y46780D01*
X18610Y46589D01*
X18221Y46363D01*
X18157Y46316D01*
X18102Y46258D01*
X18057Y46193D01*
X18022Y46122D01*
X17999Y46046D01*
X17988Y45967D01*
X17990Y45888D01*
X18004Y45810D01*
X18030Y45735D01*
X18067Y45665D01*
X18115Y45602D01*
X18172Y45547D01*
X18238Y45502D01*
X18309Y45467D01*
X18385Y45444D01*
X18463Y45433D01*
X18543Y45435D01*
X18621Y45449D01*
X18696Y45475D01*
X18765Y45513D01*
X19076Y45698D01*
X19404Y45852D01*
X19744Y45976D01*
X20094Y46070D01*
X20450Y46134D01*
X20811Y46165D01*
X20994D01*
Y37906D01*
X20811D01*
X20450Y37937D01*
X20094Y38000D01*
X19744Y38094D01*
X19404Y38219D01*
X19076Y38372D01*
X18763Y38554D01*
X18694Y38593D01*
X18620Y38618D01*
X18542Y38632D01*
X18464Y38634D01*
X18386Y38623D01*
X18310Y38600D01*
X18240Y38566D01*
X18175Y38521D01*
X18118Y38466D01*
X18071Y38404D01*
X18034Y38334D01*
X18008Y38260D01*
X17994Y38182D01*
X17992Y38104D01*
X18003Y38026D01*
X18026Y37950D01*
X18060Y37880D01*
X18105Y37815D01*
X18160Y37758D01*
X18223Y37712D01*
X18610Y37482D01*
X19018Y37291D01*
X19441Y37136D01*
X19875Y37019D01*
X20319Y36941D01*
X20767Y36902D01*
X20994D01*
Y33076D01*
G37*
G36*
X16726Y33211D02*X16490Y33192D01*
X14529Y32722D01*
X12666Y31950D01*
X10947Y30896D01*
X10939Y30890D01*
X9000Y32828D01*
Y51372D01*
X15130Y57502D01*
X15424Y57525D01*
X15837Y57624D01*
X16230Y57787D01*
X16592Y58009D01*
X16726Y58124D01*
Y44879D01*
X16715Y44868D01*
X16669Y44804D01*
X16439Y44417D01*
X16248Y44010D01*
X16093Y43587D01*
X15976Y43152D01*
X15898Y42709D01*
X15858Y42261D01*
Y41810D01*
X15898Y41362D01*
X15976Y40919D01*
X16093Y40484D01*
X16248Y40061D01*
X16439Y39653D01*
X16665Y39264D01*
X16712Y39201D01*
X16726Y39187D01*
Y33211D01*
G37*
G36*
X25946Y8500D02*X23006D01*
X24334Y9050D01*
X25946Y10038D01*
Y8500D01*
G37*
G36*
X55875Y73603D02*X55786Y73548D01*
X55336Y73164D01*
X54952Y72714D01*
X54643Y72210D01*
X54417Y71664D01*
X54279Y71089D01*
X54233Y70500D01*
X54279Y69911D01*
X54417Y69336D01*
X54643Y68790D01*
X54952Y68286D01*
X55336Y67836D01*
X55786Y67452D01*
X55875Y67397D01*
Y65454D01*
X54000Y67328D01*
Y75172D01*
X55875Y77046D01*
Y73603D01*
G37*
G36*
X32996Y109000D02*X55875D01*
Y105000D01*
X46078D01*
X46000Y105006D01*
X45686Y104981D01*
X45380Y104908D01*
X45089Y104788D01*
X44821Y104623D01*
X44820Y104623D01*
X44581Y104419D01*
X44530Y104359D01*
X41641Y101470D01*
X41581Y101419D01*
X41377Y101179D01*
X41212Y100911D01*
X41092Y100620D01*
X41019Y100314D01*
X41019Y100314D01*
X40994Y100000D01*
X41000Y99922D01*
Y98026D01*
X40997Y98038D01*
X40744Y98729D01*
X40431Y99396D01*
X40060Y100033D01*
X39636Y100634D01*
X39582Y100694D01*
X39520Y100744D01*
X39451Y100783D01*
X39376Y100812D01*
X39298Y100828D01*
X39218Y100832D01*
X39139Y100823D01*
X39062Y100802D01*
X38989Y100769D01*
X38922Y100726D01*
X38863Y100672D01*
X38813Y100610D01*
X38774Y100540D01*
X38745Y100466D01*
X38729Y100388D01*
X38725Y100308D01*
X38734Y100229D01*
X38755Y100152D01*
X38788Y100079D01*
X38833Y100013D01*
X39212Y99488D01*
X39538Y98928D01*
X39813Y98341D01*
X40036Y97733D01*
X40205Y97107D01*
X40318Y96469D01*
X40375Y95824D01*
Y95176D01*
X40318Y94531D01*
X40205Y93893D01*
X40036Y93267D01*
X39813Y92659D01*
X39538Y92072D01*
X39212Y91512D01*
X38838Y90983D01*
X38794Y90918D01*
X38762Y90846D01*
X38741Y90770D01*
X38732Y90692D01*
X38736Y90613D01*
X38752Y90536D01*
X38780Y90463D01*
X38819Y90394D01*
X38869Y90333D01*
X38927Y90280D01*
X38993Y90237D01*
X39064Y90205D01*
X39140Y90184D01*
X39219Y90175D01*
X39297Y90179D01*
X39374Y90195D01*
X39448Y90223D01*
X39516Y90262D01*
X39578Y90311D01*
X39629Y90371D01*
X40060Y90967D01*
X40431Y91604D01*
X40744Y92271D01*
X40997Y92962D01*
X41000Y92974D01*
Y91328D01*
X37172Y87500D01*
X35526D01*
X35538Y87503D01*
X36229Y87756D01*
X36896Y88069D01*
X37533Y88440D01*
X38134Y88864D01*
X38194Y88918D01*
X38244Y88980D01*
X38283Y89049D01*
X38312Y89124D01*
X38328Y89202D01*
X38332Y89282D01*
X38323Y89361D01*
X38302Y89438D01*
X38269Y89511D01*
X38226Y89578D01*
X38172Y89637D01*
X38110Y89687D01*
X38040Y89726D01*
X37966Y89755D01*
X37888Y89771D01*
X37808Y89775D01*
X37729Y89766D01*
X37652Y89745D01*
X37579Y89712D01*
X37513Y89667D01*
X36988Y89288D01*
X36428Y88962D01*
X35841Y88687D01*
X35233Y88464D01*
X34607Y88295D01*
X33969Y88182D01*
X33324Y88125D01*
X32996D01*
Y102875D01*
X33324D01*
X33969Y102818D01*
X34607Y102705D01*
X35233Y102536D01*
X35841Y102313D01*
X36428Y102038D01*
X36988Y101712D01*
X37517Y101338D01*
X37582Y101294D01*
X37654Y101262D01*
X37730Y101241D01*
X37808Y101232D01*
X37887Y101236D01*
X37964Y101252D01*
X38037Y101280D01*
X38106Y101319D01*
X38167Y101369D01*
X38220Y101427D01*
X38263Y101493D01*
X38295Y101564D01*
X38316Y101640D01*
X38325Y101719D01*
X38321Y101797D01*
X38305Y101874D01*
X38277Y101948D01*
X38238Y102016D01*
X38189Y102078D01*
X38129Y102129D01*
X37533Y102560D01*
X36896Y102931D01*
X36229Y103244D01*
X35538Y103497D01*
X34827Y103689D01*
X34102Y103817D01*
X33368Y103882D01*
X32996D01*
Y109000D01*
G37*
G36*
X55875Y2500D02*X32996D01*
Y4494D01*
X33000Y4494D01*
X33314Y4519D01*
X33620Y4592D01*
X33911Y4712D01*
X34179Y4877D01*
X34419Y5081D01*
X34470Y5141D01*
X39379Y10051D01*
X41012Y9050D01*
X42875Y8278D01*
X44836Y7808D01*
X46846Y7649D01*
X48857Y7808D01*
X50817Y8278D01*
X52680Y9050D01*
X54400Y10104D01*
X55875Y11364D01*
Y2500D01*
G37*
G36*
X25946Y109000D02*X32996D01*
Y103882D01*
X32632D01*
X31898Y103817D01*
X31173Y103689D01*
X30462Y103497D01*
X29771Y103244D01*
X29104Y102931D01*
X28467Y102560D01*
X27866Y102136D01*
X27806Y102082D01*
X27756Y102020D01*
X27717Y101951D01*
X27688Y101876D01*
X27672Y101798D01*
X27668Y101718D01*
X27677Y101639D01*
X27698Y101562D01*
X27731Y101489D01*
X27774Y101422D01*
X27828Y101363D01*
X27890Y101313D01*
X27960Y101274D01*
X28034Y101245D01*
X28112Y101229D01*
X28192Y101225D01*
X28271Y101234D01*
X28348Y101255D01*
X28421Y101288D01*
X28487Y101333D01*
X29012Y101712D01*
X29572Y102038D01*
X30159Y102313D01*
X30767Y102536D01*
X31393Y102705D01*
X32031Y102818D01*
X32676Y102875D01*
X32996D01*
Y88125D01*
X32676D01*
X32031Y88182D01*
X31393Y88295D01*
X30767Y88464D01*
X30159Y88687D01*
X29572Y88962D01*
X29012Y89288D01*
X28483Y89662D01*
X28418Y89706D01*
X28346Y89738D01*
X28270Y89759D01*
X28192Y89768D01*
X28113Y89764D01*
X28036Y89748D01*
X27963Y89720D01*
X27894Y89681D01*
X27833Y89631D01*
X27780Y89573D01*
X27737Y89507D01*
X27705Y89436D01*
X27684Y89360D01*
X27675Y89281D01*
X27679Y89203D01*
X27695Y89126D01*
X27723Y89052D01*
X27762Y88984D01*
X27811Y88922D01*
X27871Y88871D01*
X28467Y88440D01*
X29104Y88069D01*
X29771Y87756D01*
X30462Y87503D01*
X30474Y87500D01*
X28078D01*
X28000Y87506D01*
X27686Y87481D01*
X27380Y87408D01*
X27089Y87288D01*
X26821Y87123D01*
X26821Y87123D01*
X26581Y86919D01*
X26530Y86859D01*
X25946Y86275D01*
Y90958D01*
X26364Y90366D01*
X26418Y90306D01*
X26480Y90256D01*
X26549Y90217D01*
X26624Y90188D01*
X26702Y90172D01*
X26782Y90168D01*
X26861Y90177D01*
X26938Y90198D01*
X27011Y90231D01*
X27078Y90274D01*
X27137Y90328D01*
X27187Y90390D01*
X27226Y90460D01*
X27255Y90534D01*
X27271Y90612D01*
X27275Y90692D01*
X27266Y90771D01*
X27245Y90848D01*
X27212Y90921D01*
X27167Y90987D01*
X26788Y91512D01*
X26462Y92072D01*
X26187Y92659D01*
X25964Y93267D01*
X25946Y93332D01*
Y97668D01*
X25964Y97733D01*
X26187Y98341D01*
X26462Y98928D01*
X26788Y99488D01*
X27162Y100017D01*
X27206Y100082D01*
X27238Y100154D01*
X27259Y100230D01*
X27268Y100308D01*
X27264Y100387D01*
X27248Y100464D01*
X27220Y100537D01*
X27181Y100606D01*
X27131Y100667D01*
X27073Y100720D01*
X27007Y100763D01*
X26936Y100795D01*
X26860Y100816D01*
X26781Y100825D01*
X26703Y100821D01*
X26626Y100805D01*
X26552Y100777D01*
X26484Y100738D01*
X26422Y100689D01*
X26371Y100629D01*
X25946Y100042D01*
Y102697D01*
X26008Y102927D01*
X26087Y103370D01*
X26126Y103818D01*
Y104268D01*
X26087Y104717D01*
X26008Y105160D01*
X25946Y105389D01*
Y109000D01*
G37*
G36*
X32996Y2500D02*X25946D01*
Y4500D01*
X32922D01*
X32996Y4494D01*
Y2500D01*
G37*
G36*
X25946Y93332D02*X25795Y93893D01*
X25682Y94531D01*
X25625Y95176D01*
Y95824D01*
X25682Y96469D01*
X25795Y97107D01*
X25946Y97668D01*
Y93332D01*
G37*
G36*
X20994Y108173D02*X21173D01*
X21534Y108142D01*
X21891Y108078D01*
X22240Y107984D01*
X22580Y107860D01*
X22908Y107706D01*
X23221Y107525D01*
X23290Y107486D01*
X23364Y107460D01*
X23442Y107446D01*
X23521Y107445D01*
X23599Y107456D01*
X23674Y107478D01*
X23745Y107513D01*
X23809Y107558D01*
X23866Y107612D01*
X23913Y107675D01*
X23951Y107744D01*
X23976Y107819D01*
X23990Y107896D01*
X23992Y107975D01*
X23981Y108053D01*
X23958Y108128D01*
X23924Y108199D01*
X23879Y108264D01*
X23824Y108320D01*
X23761Y108367D01*
X23374Y108597D01*
X22966Y108788D01*
X22544Y108942D01*
X22329Y109000D01*
X25946D01*
Y105389D01*
X25891Y105595D01*
X25737Y106018D01*
X25546Y106425D01*
X25320Y106815D01*
X25272Y106878D01*
X25215Y106933D01*
X25150Y106978D01*
X25079Y107013D01*
X25003Y107036D01*
X24924Y107047D01*
X24845Y107045D01*
X24767Y107031D01*
X24692Y107005D01*
X24622Y106968D01*
X24559Y106920D01*
X24504Y106863D01*
X24458Y106798D01*
X24424Y106726D01*
X24401Y106651D01*
X24390Y106572D01*
X24391Y106493D01*
X24405Y106415D01*
X24431Y106340D01*
X24470Y106271D01*
X24655Y105959D01*
X24809Y105632D01*
X24933Y105291D01*
X25027Y104942D01*
X25090Y104585D01*
X25122Y104224D01*
Y103862D01*
X25090Y103501D01*
X25027Y103145D01*
X24933Y102795D01*
X24809Y102455D01*
X24655Y102127D01*
X24473Y101814D01*
X24435Y101745D01*
X24409Y101671D01*
X24395Y101594D01*
X24394Y101515D01*
X24404Y101437D01*
X24427Y101362D01*
X24462Y101291D01*
X24507Y101226D01*
X24561Y101169D01*
X24624Y101122D01*
X24693Y101085D01*
X24768Y101059D01*
X24845Y101045D01*
X24924Y101044D01*
X25002Y101054D01*
X25077Y101077D01*
X25148Y101112D01*
X25212Y101157D01*
X25269Y101211D01*
X25315Y101275D01*
X25546Y101661D01*
X25737Y102069D01*
X25891Y102492D01*
X25946Y102697D01*
Y100042D01*
X25940Y100033D01*
X25569Y99396D01*
X25256Y98729D01*
X25003Y98038D01*
X24811Y97327D01*
X24683Y96602D01*
X24618Y95868D01*
Y95132D01*
X24683Y94398D01*
X24811Y93673D01*
X25003Y92962D01*
X25256Y92271D01*
X25569Y91604D01*
X25940Y90967D01*
X25946Y90958D01*
Y86275D01*
X23672Y84000D01*
X20994D01*
Y98909D01*
X21217D01*
X21666Y98949D01*
X22109Y99027D01*
X22544Y99144D01*
X22966Y99299D01*
X23374Y99490D01*
X23763Y99716D01*
X23827Y99763D01*
X23882Y99820D01*
X23927Y99886D01*
X23962Y99957D01*
X23985Y100033D01*
X23996Y100111D01*
X23994Y100191D01*
X23980Y100269D01*
X23954Y100344D01*
X23917Y100414D01*
X23869Y100477D01*
X23812Y100532D01*
X23747Y100577D01*
X23675Y100612D01*
X23599Y100635D01*
X23521Y100646D01*
X23441Y100644D01*
X23363Y100630D01*
X23288Y100604D01*
X23219Y100565D01*
X22908Y100380D01*
X22580Y100227D01*
X22240Y100102D01*
X21891Y100008D01*
X21534Y99945D01*
X21173Y99913D01*
X20994D01*
Y108173D01*
G37*
G36*
X25946Y2500D02*X20994D01*
Y4500D01*
X25946D01*
Y2500D01*
G37*
G36*
X16726Y109000D02*X19655D01*
X19441Y108942D01*
X19018Y108788D01*
X18610Y108597D01*
X18221Y108371D01*
X18157Y108323D01*
X18102Y108266D01*
X18057Y108201D01*
X18022Y108130D01*
X17999Y108054D01*
X17988Y107975D01*
X17990Y107896D01*
X18004Y107818D01*
X18030Y107743D01*
X18067Y107673D01*
X18115Y107610D01*
X18172Y107555D01*
X18238Y107509D01*
X18309Y107475D01*
X18385Y107452D01*
X18463Y107441D01*
X18543Y107442D01*
X18621Y107456D01*
X18696Y107482D01*
X18765Y107521D01*
X19076Y107706D01*
X19404Y107860D01*
X19744Y107984D01*
X20094Y108078D01*
X20450Y108142D01*
X20811Y108173D01*
X20994D01*
Y99913D01*
X20811D01*
X20450Y99945D01*
X20094Y100008D01*
X19744Y100102D01*
X19404Y100227D01*
X19076Y100380D01*
X18763Y100562D01*
X18694Y100601D01*
X18620Y100626D01*
X18542Y100640D01*
X18464Y100642D01*
X18386Y100631D01*
X18310Y100608D01*
X18240Y100574D01*
X18175Y100529D01*
X18118Y100474D01*
X18071Y100412D01*
X18034Y100342D01*
X18008Y100268D01*
X17994Y100190D01*
X17992Y100112D01*
X18003Y100034D01*
X18026Y99958D01*
X18060Y99888D01*
X18105Y99823D01*
X18160Y99766D01*
X18223Y99720D01*
X18610Y99490D01*
X19018Y99299D01*
X19441Y99144D01*
X19875Y99027D01*
X20319Y98949D01*
X20767Y98909D01*
X20994D01*
Y84000D01*
X16816D01*
X16726Y84076D01*
Y101195D01*
X16769Y101153D01*
X16834Y101108D01*
X16906Y101074D01*
X16982Y101051D01*
X17060Y101040D01*
X17140Y101041D01*
X17218Y101055D01*
X17293Y101081D01*
X17362Y101119D01*
X17426Y101166D01*
X17481Y101224D01*
X17526Y101289D01*
X17561Y101360D01*
X17584Y101436D01*
X17595Y101515D01*
X17593Y101594D01*
X17579Y101672D01*
X17553Y101747D01*
X17514Y101816D01*
X17329Y102127D01*
X17176Y102455D01*
X17051Y102795D01*
X16957Y103145D01*
X16894Y103501D01*
X16862Y103862D01*
Y104224D01*
X16894Y104585D01*
X16957Y104942D01*
X17051Y105291D01*
X17176Y105632D01*
X17329Y105959D01*
X17511Y106273D01*
X17549Y106341D01*
X17575Y106416D01*
X17589Y106493D01*
X17591Y106572D01*
X17580Y106650D01*
X17557Y106725D01*
X17523Y106796D01*
X17478Y106860D01*
X17423Y106917D01*
X17360Y106965D01*
X17291Y107002D01*
X17217Y107028D01*
X17139Y107041D01*
X17060Y107043D01*
X16982Y107032D01*
X16907Y107009D01*
X16836Y106975D01*
X16772Y106930D01*
X16726Y106886D01*
Y109000D01*
G37*
G36*
X20994Y2500D02*X16726D01*
Y4500D01*
X20994D01*
Y2500D01*
G37*
G36*
X16726D02*X1000D01*
Y109000D01*
X16726D01*
Y106886D01*
X16715Y106876D01*
X16669Y106812D01*
X16439Y106425D01*
X16248Y106018D01*
X16093Y105595D01*
X15976Y105160D01*
X15898Y104717D01*
X15858Y104268D01*
Y103818D01*
X15898Y103370D01*
X15976Y102927D01*
X16093Y102492D01*
X16248Y102069D01*
X16439Y101661D01*
X16665Y101272D01*
X16712Y101208D01*
X16726Y101195D01*
Y84076D01*
X16592Y84191D01*
X16230Y84413D01*
X15837Y84576D01*
X15424Y84675D01*
X15000Y84708D01*
X14576Y84675D01*
X14163Y84576D01*
X13770Y84413D01*
X13408Y84191D01*
X13085Y83915D01*
X12809Y83592D01*
X12587Y83230D01*
X12424Y82837D01*
X12325Y82424D01*
X12292Y82000D01*
X12325Y81576D01*
X12424Y81163D01*
X12587Y80770D01*
X12809Y80408D01*
X13000Y80184D01*
Y73828D01*
X12172Y73000D01*
X5578D01*
X5500Y73006D01*
X5186Y72981D01*
X4880Y72908D01*
X4589Y72788D01*
X4321Y72623D01*
X4320Y72623D01*
X4081Y72419D01*
X4030Y72359D01*
X2141Y70470D01*
X2081Y70419D01*
X1877Y70179D01*
X1712Y69911D01*
X1592Y69620D01*
X1519Y69314D01*
X1519Y69314D01*
X1494Y69000D01*
X1500Y68922D01*
Y10578D01*
X1494Y10500D01*
X1519Y10186D01*
X1574Y9954D01*
X1592Y9880D01*
X1627Y9795D01*
X1712Y9589D01*
X1877Y9321D01*
X1877Y9321D01*
X2081Y9081D01*
X2141Y9030D01*
X6030Y5141D01*
X6081Y5081D01*
X6321Y4877D01*
X6321Y4877D01*
X6589Y4712D01*
X6880Y4592D01*
X7186Y4519D01*
X7500Y4494D01*
X7578Y4500D01*
X16726D01*
Y2500D01*
G37*
G36*
X75000Y68422D02*Y49078D01*
X75000Y49078D01*
Y68422D01*
X75000Y68422D01*
G37*
G36*
X16500Y64528D02*X14870Y62898D01*
X14576Y62875D01*
X14163Y62776D01*
X13770Y62613D01*
X13408Y62391D01*
X13085Y62115D01*
X12809Y61792D01*
X12587Y61430D01*
X12424Y61037D01*
X12325Y60624D01*
X12302Y60330D01*
X5641Y53670D01*
X5581Y53619D01*
X5500Y53523D01*
Y68172D01*
X6328Y69000D01*
X12922D01*
X13000Y68994D01*
X13314Y69019D01*
X13620Y69092D01*
X13911Y69212D01*
X14179Y69377D01*
X14419Y69581D01*
X14470Y69641D01*
X16359Y71530D01*
X16419Y71581D01*
X16500Y71677D01*
Y64528D01*
G37*
G36*
X17141Y77470D02*X17081Y77419D01*
X17000Y77323D01*
Y80000D01*
X19677D01*
X19581Y79919D01*
X19530Y79859D01*
X17141Y77470D01*
G37*
G36*
X70000Y58679D02*Y62321D01*
X70214Y62452D01*
X70664Y62836D01*
X71000Y63229D01*
Y57771D01*
X70664Y58164D01*
X70214Y58548D01*
X70000Y58679D01*
G37*
G36*
X13994Y8500D02*X8328D01*
X5500Y11328D01*
Y30677D01*
X5581Y30581D01*
X5641Y30530D01*
X8110Y28061D01*
X8104Y28053D01*
X7050Y26334D01*
X6278Y24471D01*
X5808Y22510D01*
X5649Y20500D01*
X5808Y18490D01*
X6278Y16529D01*
X7050Y14666D01*
X8104Y12947D01*
X9413Y11413D01*
X10947Y10104D01*
X12666Y9050D01*
X13994Y8500D01*
G37*
G54D12*X13000Y71000D02*X15000Y73000D01*
X3500Y10500D02*Y69000D01*
X5500Y71000D01*
X13000D01*
X7000Y32000D02*Y52200D01*
Y52000D02*Y52200D01*
X18500Y76000D02*Y63700D01*
X7000Y52200D02*X18500Y63700D01*
X33000Y6500D02*X7500D01*
X3500Y10500D01*
X46846Y20346D02*X33000Y6500D01*
X18500Y20500D02*X7000Y32000D01*
X18500Y20500D02*Y21000D01*
X48500Y22154D02*X46846Y20500D01*
X18500D02*X25500D01*
X68000Y65500D02*Y55500D01*
X67500D02*X68000Y55000D01*
X56500Y80500D02*X52000Y76000D01*
Y66500D01*
X58000Y60500D01*
Y80500D02*X56500D01*
X58000Y70500D02*X71000D01*
X73000Y68500D01*
Y49000D01*
X69500Y31500D02*Y45500D01*
X73000Y49000D02*X69500Y45500D01*
X15000Y73000D02*Y82000D01*
X24500D01*
X26000Y78500D02*X21000D01*
X18500Y76000D01*
X38000Y85500D02*X43000Y90500D01*
Y100000D01*
X46000Y103000D01*
X48000Y99500D02*X46500Y98000D01*
Y89500D01*
X39250Y82250D01*
X24500Y82000D02*X28000Y85500D01*
X38000D01*
X39250Y82250D02*X29750D01*
X26000Y78500D01*
X46000Y103000D02*X80000D01*
X80500Y103500D01*
X48000Y99500D02*X74500D01*
X80500Y93500D01*
G54D11*G36*
X77500Y96500D02*Y90500D01*
X83500D01*
Y96500D01*
X77500D01*
G37*
G54D13*X80500Y103500D03*
G54D14*X68000Y85500D03*
Y75500D03*
Y65500D03*
G54D11*G36*
X66500Y24500D02*Y18500D01*
X72500D01*
Y24500D01*
X66500D01*
G37*
G54D13*X69500Y31500D03*
G54D15*X18500Y20500D03*
X46846D03*
G54D14*X68000Y55500D03*
G54D16*X33000Y50500D03*
G54D17*X20992Y42035D03*
G54D14*X58000Y90500D03*
G54D16*X33000Y95500D03*
G54D17*X20992Y104043D03*
G54D14*X58000Y80500D03*
Y70500D03*
Y60500D03*
G54D18*X15000Y82000D03*
Y60200D03*
X66500Y49500D03*
G54D13*X58000Y42000D03*
G54D12*G54D19*G54D20*G54D21*G54D20*G54D22*G54D21*G54D23*G54D24*G54D21*G54D23*G54D24*G54D21*M02*
