M48
INCH
T48C0.035
T47C0.020
T46C0.063
T45C0.128
T44C0.187
T43C0.035
T42C0.038
%
T47
X001500Y008200
X001500Y006020
X006650Y004950
T48
X005800Y004200
T43
X005800Y009050
X005800Y008050
X005800Y007050
X005800Y006050
X006800Y008550
X006800Y007550
X006800Y006550
X006800Y005550
T42
X006950Y003150
X006950Y002150
X008050Y010350
X008050Y009350
T46
X002099Y010404
X002099Y004204
T45
X003300Y009550
X003300Y005050
T44
X001850Y002050
X004685Y002050
M30
