  0
SECTION
  2
HEADER
  9
$ACADVER
  1
AC1009
  9
$EXTMIN
 10
0.0
 20
0.0
 30
0.0
  9
$EXTMAX
 10
1000.0
 20
1000.0
 30
0.0
  9
$FILLMODE
 70
 0
  9
$SPLFRAME
 70
 1
  0
ENDSEC
  0
SECTION
  2
TABLES
  0
TABLE
  2
LAYER
 70
1
  0
LAYER
  2
0
 70
     0
 62
     7
  6
CONTINUOUS
  0
ENDTAB
  0
ENDSEC
  0
SECTION
  2
ENTITIES
  0
POLYLINE
  8
0
 62
     13
 66
     1
 10
0
 20
0
 30
0.0
 40
0.72
 41
0.72
  0
VERTEX
  8
0
 10
0.00504557
 20
0.00509983
 30
0.0
 40
0.01
 41
0.01
  0
VERTEX
  8
0
 10
0.640082
 20
0.00509983
 30
0.0
 40
0.01
 41
0.01
  0
SEQEND
 8
0
  0
POLYLINE
  8
0
 62
     13
 66
     1
 10
0
 20
0
 30
0.0
 40
0.72
 41
0.72
  0
VERTEX
  8
0
 10
0.640082
 20
0.00509983
 30
0.0
 40
0.01
 41
0.01
  0
VERTEX
  8
0
 10
0.660047
 20
0.0251193
 30
0.0
 40
0.01
 41
0.01
  0
SEQEND
 8
0
  0
POLYLINE
  8
0
 62
     13
 66
     1
 10
0
 20
0
 30
0.0
 40
0.72
 41
0.72
  0
VERTEX
  8
0
 10
0.660047
 20
0.0251193
 30
0.0
 40
0.01
 41
0.01
  0
VERTEX
  8
0
 10
0.660047
 20
0.120117
 30
0.0
 40
0.01
 41
0.01
  0
SEQEND
 8
0
  0
POLYLINE
  8
0
 62
     13
 66
     1
 10
0
 20
0
 30
0.0
 40
0.72
 41
0.72
  0
VERTEX
  8
0
 10
0.660047
 20
0.120117
 30
0.0
 40
0.01
 41
0.01
  0
VERTEX
  8
0
 10
0.670085
 20
0.1301
 30
0.0
 40
0.01
 41
0.01
  0
SEQEND
 8
0
  0
POLYLINE
  8
0
 62
     13
 66
     1
 10
0
 20
0
 30
0.0
 40
0.72
 41
0.72
  0
VERTEX
  8
0
 10
0.670085
 20
0.1301
 30
0.0
 40
0.01
 41
0.01
  0
VERTEX
  8
0
 10
0.745063
 20
0.1301
 30
0.0
 40
0.01
 41
0.01
  0
SEQEND
 8
0
  0
POLYLINE
  8
0
 62
     13
 66
     1
 10
0
 20
0
 30
0.0
 40
0.72
 41
0.72
  0
VERTEX
  8
0
 10
0.745063
 20
0.1301
 30
0.0
 40
0.01
 41
0.01
  0
VERTEX
  8
0
 10
0.765082
 20
0.150119
 30
0.0
 40
0.01
 41
0.01
  0
SEQEND
 8
0
  0
POLYLINE
  8
0
 62
     13
 66
     1
 10
0
 20
0
 30
0.0
 40
0.72
 41
0.72
  0
VERTEX
  8
0
 10
0.00504557
 20
1.09012
 30
0.0
 40
0.01
 41
0.01
  0
VERTEX
  8
0
 10
0.00504557
 20
0.00509983
 30
0.0
 40
0.01
 41
0.01
  0
SEQEND
 8
0
  0
POLYLINE
  8
0
 62
     13
 66
     1
 10
0
 20
0
 30
0.0
 40
0.72
 41
0.72
  0
VERTEX
  8
0
 10
0.765082
 20
0.150119
 30
0.0
 40
0.01
 41
0.01
  0
VERTEX
  8
0
 10
0.765082
 20
0.840115
 30
0.0
 40
0.01
 41
0.01
  0
SEQEND
 8
0
  0
POLYLINE
  8
0
 62
     13
 66
     1
 10
0
 20
0
 30
0.0
 40
0.72
 41
0.72
  0
VERTEX
  8
0
 10
0.765082
 20
0.840115
 30
0.0
 40
0.01
 41
0.01
  0
VERTEX
  8
0
 10
0.775065
 20
0.850097
 30
0.0
 40
0.01
 41
0.01
  0
SEQEND
 8
0
  0
POLYLINE
  8
0
 62
     13
 66
     1
 10
0
 20
0
 30
0.0
 40
0.72
 41
0.72
  0
VERTEX
  8
0
 10
0.775065
 20
0.850097
 30
0.0
 40
0.01
 41
0.01
  0
VERTEX
  8
0
 10
0.860081
 20
0.850097
 30
0.0
 40
0.01
 41
0.01
  0
SEQEND
 8
0
  0
POLYLINE
  8
0
 62
     13
 66
     1
 10
0
 20
0
 30
0.0
 40
0.72
 41
0.72
  0
VERTEX
  8
0
 10
0.860081
 20
0.850097
 30
0.0
 40
0.01
 41
0.01
  0
VERTEX
  8
0
 10
0.880046
 20
0.870117
 30
0.0
 40
0.01
 41
0.01
  0
SEQEND
 8
0
  0
POLYLINE
  8
0
 62
     13
 66
     1
 10
0
 20
0
 30
0.0
 40
0.72
 41
0.72
  0
VERTEX
  8
0
 10
0.880046
 20
0.870117
 30
0.0
 40
0.01
 41
0.01
  0
VERTEX
  8
0
 10
0.880046
 20
1.08512
 30
0.0
 40
0.01
 41
0.01
  0
SEQEND
 8
0
  0
POLYLINE
  8
0
 62
     13
 66
     1
 10
0
 20
0
 30
0.0
 40
0.72
 41
0.72
  0
VERTEX
  8
0
 10
0.00504557
 20
1.09012
 30
0.0
 40
0.01
 41
0.01
  0
VERTEX
  8
0
 10
0.880046
 20
1.09012
 30
0.0
 40
0.01
 41
0.01
  0
SEQEND
 8
0
  0
POLYLINE
  8
0
 62
     13
 66
     1
 10
0
 20
0
 30
0.0
 40
0.72
 41
0.72
  0
VERTEX
  8
0
 10
0.880046
 20
1.09012
 30
0.0
 40
0.01
 41
0.01
  0
VERTEX
  8
0
 10
0.880046
 20
1.08013
 30
0.0
 40
0.01
 41
0.01
  0
SEQEND
 8
0
  0
POLYLINE
  8
0
 62
     173
 66
     1
 10
0
 20
0
 30
0.0
 70
     1
 40
0
 41
0
  0
VERTEX
  8
0
 10
0.165093
 20
0.810112
 30
0.0
 40
0
 41
0
  0
VERTEX
  8
0
 10
0.155057
 20
0.82015
 30
0.0
 40
0
 41
0
  0
VERTEX
  8
0
 10
0.145074
 20
0.810112
 30
0.0
 40
0
 41
0
  0
VERTEX
  8
0
 10
0.155057
 20
0.800131
 30
0.0
 40
0
 41
0
  0
VERTEX
  8
0
 10
0.165093
 20
0.810112
 30
0.0
 40
0
 41
0
  0
SEQEND
 8
0
  0
POLYLINE
  8
0
 62
     173
 66
     1
 10
0
 20
0
 30
0.0
 70
     1
 40
0
 41
0
  0
VERTEX
  8
0
 10
0.165093
 20
0.592122
 30
0.0
 40
0
 41
0
  0
VERTEX
  8
0
 10
0.155057
 20
0.60216
 30
0.0
 40
0
 41
0
  0
VERTEX
  8
0
 10
0.145074
 20
0.592122
 30
0.0
 40
0
 41
0
  0
VERTEX
  8
0
 10
0.155057
 20
0.58214
 30
0.0
 40
0
 41
0
  0
VERTEX
  8
0
 10
0.165093
 20
0.592122
 30
0.0
 40
0
 41
0
  0
SEQEND
 8
0
  0
POLYLINE
  8
0
 62
     173
 66
     1
 10
0
 20
0
 30
0.0
 70
     1
 40
0
 41
0
  0
VERTEX
  8
0
 10
0.680067
 20
0.485135
 30
0.0
 40
0
 41
0
  0
VERTEX
  8
0
 10
0.670031
 20
0.495117
 30
0.0
 40
0
 41
0
  0
VERTEX
  8
0
 10
0.660047
 20
0.485135
 30
0.0
 40
0
 41
0
  0
VERTEX
  8
0
 10
0.670031
 20
0.475151
 30
0.0
 40
0
 41
0
  0
VERTEX
  8
0
 10
0.680067
 20
0.485135
 30
0.0
 40
0
 41
0
  0
SEQEND
 8
0
  0
POLYLINE
  8
0
 62
     173
 66
     1
 10
0
 20
0
 30
0.0
 70
     1
 40
0
 41
0
  0
VERTEX
  8
0
 10
0.587565
 20
0.420085
 30
0.0
 40
0
 41
0
  0
VERTEX
  8
0
 10
0.582086
 20
0.433268
 30
0.0
 40
0
 41
0
  0
VERTEX
  8
0
 10
0.570042
 20
0.437662
 30
0.0
 40
0
 41
0
  0
VERTEX
  8
0
 10
0.557997
 20
0.433268
 30
0.0
 40
0
 41
0
  0
VERTEX
  8
0
 10
0.552572
 20
0.420085
 30
0.0
 40
0
 41
0
  0
VERTEX
  8
0
 10
0.557997
 20
0.40701
 30
0.0
 40
0
 41
0
  0
VERTEX
  8
0
 10
0.570042
 20
0.402615
 30
0.0
 40
0
 41
0
  0
VERTEX
  8
0
 10
0.582086
 20
0.40701
 30
0.0
 40
0
 41
0
  0
VERTEX
  8
0
 10
0.587565
 20
0.420085
 30
0.0
 40
0
 41
0
  0
SEQEND
 8
0
  0
POLYLINE
  8
0
 62
     173
 66
     1
 10
0
 20
0
 30
0.0
 70
     1
 40
0
 41
0
  0
VERTEX
  8
0
 10
0.602593
 20
0.895128
 30
0.0
 40
0
 41
0
  0
VERTEX
  8
0
 10
0.597114
 20
0.908257
 30
0.0
 40
0
 41
0
  0
VERTEX
  8
0
 10
0.585069
 20
0.912651
 30
0.0
 40
0
 41
0
  0
VERTEX
  8
0
 10
0.572971
 20
0.908257
 30
0.0
 40
0
 41
0
  0
VERTEX
  8
0
 10
0.567546
 20
0.895128
 30
0.0
 40
0
 41
0
  0
VERTEX
  8
0
 10
0.572971
 20
0.882053
 30
0.0
 40
0
 41
0
  0
VERTEX
  8
0
 10
0.585069
 20
0.877658
 30
0.0
 40
0
 41
0
  0
VERTEX
  8
0
 10
0.597114
 20
0.882053
 30
0.0
 40
0
 41
0
  0
VERTEX
  8
0
 10
0.602593
 20
0.895128
 30
0.0
 40
0
 41
0
  0
SEQEND
 8
0
  0
POLYLINE
  8
0
 62
     173
 66
     1
 10
0
 20
0
 30
0.0
 70
     1
 40
0
 41
0
  0
VERTEX
  8
0
 10
0.602593
 20
0.795085
 30
0.0
 40
0
 41
0
  0
VERTEX
  8
0
 10
0.597114
 20
0.808268
 30
0.0
 40
0
 41
0
  0
VERTEX
  8
0
 10
0.585069
 20
0.812663
 30
0.0
 40
0
 41
0
  0
VERTEX
  8
0
 10
0.572971
 20
0.808268
 30
0.0
 40
0
 41
0
  0
VERTEX
  8
0
 10
0.567546
 20
0.795085
 30
0.0
 40
0
 41
0
  0
VERTEX
  8
0
 10
0.572971
 20
0.78201
 30
0.0
 40
0
 41
0
  0
VERTEX
  8
0
 10
0.585069
 20
0.777615
 30
0.0
 40
0
 41
0
  0
VERTEX
  8
0
 10
0.597114
 20
0.78201
 30
0.0
 40
0
 41
0
  0
VERTEX
  8
0
 10
0.602593
 20
0.795085
 30
0.0
 40
0
 41
0
  0
SEQEND
 8
0
  0
POLYLINE
  8
0
 62
     173
 66
     1
 10
0
 20
0
 30
0.0
 70
     1
 40
0
 41
0
  0
VERTEX
  8
0
 10
0.602593
 20
0.695096
 30
0.0
 40
0
 41
0
  0
VERTEX
  8
0
 10
0.597114
 20
0.708225
 30
0.0
 40
0
 41
0
  0
VERTEX
  8
0
 10
0.585069
 20
0.712619
 30
0.0
 40
0
 41
0
  0
VERTEX
  8
0
 10
0.572971
 20
0.708225
 30
0.0
 40
0
 41
0
  0
VERTEX
  8
0
 10
0.567546
 20
0.695096
 30
0.0
 40
0
 41
0
  0
VERTEX
  8
0
 10
0.572971
 20
0.682021
 30
0.0
 40
0
 41
0
  0
VERTEX
  8
0
 10
0.585069
 20
0.677626
 30
0.0
 40
0
 41
0
  0
VERTEX
  8
0
 10
0.597114
 20
0.682021
 30
0.0
 40
0
 41
0
  0
VERTEX
  8
0
 10
0.602593
 20
0.695096
 30
0.0
 40
0
 41
0
  0
SEQEND
 8
0
  0
POLYLINE
  8
0
 62
     173
 66
     1
 10
0
 20
0
 30
0.0
 70
     1
 40
0
 41
0
  0
VERTEX
  8
0
 10
0.602593
 20
0.595107
 30
0.0
 40
0
 41
0
  0
VERTEX
  8
0
 10
0.597114
 20
0.608236
 30
0.0
 40
0
 41
0
  0
VERTEX
  8
0
 10
0.585069
 20
0.612631
 30
0.0
 40
0
 41
0
  0
VERTEX
  8
0
 10
0.572971
 20
0.608236
 30
0.0
 40
0
 41
0
  0
VERTEX
  8
0
 10
0.567546
 20
0.595107
 30
0.0
 40
0
 41
0
  0
VERTEX
  8
0
 10
0.572971
 20
0.582032
 30
0.0
 40
0
 41
0
  0
VERTEX
  8
0
 10
0.585069
 20
0.577636
 30
0.0
 40
0
 41
0
  0
VERTEX
  8
0
 10
0.597114
 20
0.582032
 30
0.0
 40
0
 41
0
  0
VERTEX
  8
0
 10
0.602593
 20
0.595107
 30
0.0
 40
0
 41
0
  0
SEQEND
 8
0
  0
POLYLINE
  8
0
 62
     173
 66
     1
 10
0
 20
0
 30
0.0
 70
     1
 40
0
 41
0
  0
VERTEX
  8
0
 10
0.702582
 20
0.845107
 30
0.0
 40
0
 41
0
  0
VERTEX
  8
0
 10
0.697103
 20
0.858236
 30
0.0
 40
0
 41
0
  0
VERTEX
  8
0
 10
0.685058
 20
0.862631
 30
0.0
 40
0
 41
0
  0
VERTEX
  8
0
 10
0.673014
 20
0.858236
 30
0.0
 40
0
 41
0
  0
VERTEX
  8
0
 10
0.667589
 20
0.845107
 30
0.0
 40
0
 41
0
  0
VERTEX
  8
0
 10
0.673014
 20
0.832032
 30
0.0
 40
0
 41
0
  0
VERTEX
  8
0
 10
0.685058
 20
0.827636
 30
0.0
 40
0
 41
0
  0
VERTEX
  8
0
 10
0.697103
 20
0.832032
 30
0.0
 40
0
 41
0
  0
VERTEX
  8
0
 10
0.702582
 20
0.845107
 30
0.0
 40
0
 41
0
  0
SEQEND
 8
0
  0
POLYLINE
  8
0
 62
     173
 66
     1
 10
0
 20
0
 30
0.0
 70
     1
 40
0
 41
0
  0
VERTEX
  8
0
 10
0.702582
 20
0.745117
 30
0.0
 40
0
 41
0
  0
VERTEX
  8
0
 10
0.697103
 20
0.758247
 30
0.0
 40
0
 41
0
  0
VERTEX
  8
0
 10
0.685058
 20
0.762642
 30
0.0
 40
0
 41
0
  0
VERTEX
  8
0
 10
0.673014
 20
0.758247
 30
0.0
 40
0
 41
0
  0
VERTEX
  8
0
 10
0.667589
 20
0.745117
 30
0.0
 40
0
 41
0
  0
VERTEX
  8
0
 10
0.673014
 20
0.732042
 30
0.0
 40
0
 41
0
  0
VERTEX
  8
0
 10
0.685058
 20
0.727647
 30
0.0
 40
0
 41
0
  0
VERTEX
  8
0
 10
0.697103
 20
0.732042
 30
0.0
 40
0
 41
0
  0
VERTEX
  8
0
 10
0.702582
 20
0.745117
 30
0.0
 40
0
 41
0
  0
SEQEND
 8
0
  0
POLYLINE
  8
0
 62
     173
 66
     1
 10
0
 20
0
 30
0.0
 70
     1
 40
0
 41
0
  0
VERTEX
  8
0
 10
0.702582
 20
0.645128
 30
0.0
 40
0
 41
0
  0
VERTEX
  8
0
 10
0.697103
 20
0.658257
 30
0.0
 40
0
 41
0
  0
VERTEX
  8
0
 10
0.685058
 20
0.662651
 30
0.0
 40
0
 41
0
  0
VERTEX
  8
0
 10
0.673014
 20
0.658257
 30
0.0
 40
0
 41
0
  0
VERTEX
  8
0
 10
0.667589
 20
0.645128
 30
0.0
 40
0
 41
0
  0
VERTEX
  8
0
 10
0.673014
 20
0.632053
 30
0.0
 40
0
 41
0
  0
VERTEX
  8
0
 10
0.685058
 20
0.627658
 30
0.0
 40
0
 41
0
  0
VERTEX
  8
0
 10
0.697103
 20
0.632053
 30
0.0
 40
0
 41
0
  0
VERTEX
  8
0
 10
0.702582
 20
0.645128
 30
0.0
 40
0
 41
0
  0
SEQEND
 8
0
  0
POLYLINE
  8
0
 62
     173
 66
     1
 10
0
 20
0
 30
0.0
 70
     1
 40
0
 41
0
  0
VERTEX
  8
0
 10
0.702582
 20
0.545085
 30
0.0
 40
0
 41
0
  0
VERTEX
  8
0
 10
0.697103
 20
0.558268
 30
0.0
 40
0
 41
0
  0
VERTEX
  8
0
 10
0.685058
 20
0.562662
 30
0.0
 40
0
 41
0
  0
VERTEX
  8
0
 10
0.673014
 20
0.558268
 30
0.0
 40
0
 41
0
  0
VERTEX
  8
0
 10
0.667589
 20
0.545085
 30
0.0
 40
0
 41
0
  0
VERTEX
  8
0
 10
0.673014
 20
0.53201
 30
0.0
 40
0
 41
0
  0
VERTEX
  8
0
 10
0.685058
 20
0.527615
 30
0.0
 40
0
 41
0
  0
VERTEX
  8
0
 10
0.697103
 20
0.53201
 30
0.0
 40
0
 41
0
  0
VERTEX
  8
0
 10
0.702582
 20
0.545085
 30
0.0
 40
0
 41
0
  0
SEQEND
 8
0
  0
POLYLINE
  8
0
 62
     173
 66
     1
 10
0
 20
0
 30
0.0
 70
     1
 40
0
 41
0
  0
VERTEX
  8
0
 10
0.719075
 20
0.305122
 30
0.0
 40
0
 41
0
  0
VERTEX
  8
0
 10
0.713108
 20
0.31939
 30
0.0
 40
0
 41
0
  0
VERTEX
  8
0
 10
0.700032
 20
0.324164
 30
0.0
 40
0
 41
0
  0
VERTEX
  8
0
 10
0.686957
 20
0.31939
 30
0.0
 40
0
 41
0
  0
VERTEX
  8
0
 10
0.681044
 20
0.305122
 30
0.0
 40
0
 41
0
  0
VERTEX
  8
0
 10
0.686957
 20
0.290907
 30
0.0
 40
0
 41
0
  0
VERTEX
  8
0
 10
0.700032
 20
0.286133
 30
0.0
 40
0
 41
0
  0
VERTEX
  8
0
 10
0.713108
 20
0.290907
 30
0.0
 40
0
 41
0
  0
VERTEX
  8
0
 10
0.719075
 20
0.305122
 30
0.0
 40
0
 41
0
  0
SEQEND
 8
0
  0
POLYLINE
  8
0
 62
     173
 66
     1
 10
0
 20
0
 30
0.0
 70
     1
 40
0
 41
0
  0
VERTEX
  8
0
 10
0.719075
 20
0.205132
 30
0.0
 40
0
 41
0
  0
VERTEX
  8
0
 10
0.713108
 20
0.219401
 30
0.0
 40
0
 41
0
  0
VERTEX
  8
0
 10
0.700032
 20
0.224175
 30
0.0
 40
0
 41
0
  0
VERTEX
  8
0
 10
0.686957
 20
0.219401
 30
0.0
 40
0
 41
0
  0
VERTEX
  8
0
 10
0.681044
 20
0.205132
 30
0.0
 40
0
 41
0
  0
VERTEX
  8
0
 10
0.686957
 20
0.190918
 30
0.0
 40
0
 41
0
  0
VERTEX
  8
0
 10
0.700032
 20
0.186143
 30
0.0
 40
0
 41
0
  0
VERTEX
  8
0
 10
0.713108
 20
0.190918
 30
0.0
 40
0
 41
0
  0
VERTEX
  8
0
 10
0.719075
 20
0.205132
 30
0.0
 40
0
 41
0
  0
SEQEND
 8
0
  0
POLYLINE
  8
0
 62
     173
 66
     1
 10
0
 20
0
 30
0.0
 70
     1
 40
0
 41
0
  0
VERTEX
  8
0
 10
0.829047
 20
1.02512
 30
0.0
 40
0
 41
0
  0
VERTEX
  8
0
 10
0.823079
 20
1.03939
 30
0.0
 40
0
 41
0
  0
VERTEX
  8
0
 10
0.810058
 20
1.04416
 30
0.0
 40
0
 41
0
  0
VERTEX
  8
0
 10
0.796983
 20
1.03939
 30
0.0
 40
0
 41
0
  0
VERTEX
  8
0
 10
0.791069
 20
1.02512
 30
0.0
 40
0
 41
0
  0
VERTEX
  8
0
 10
0.796983
 20
1.01091
 30
0.0
 40
0
 41
0
  0
VERTEX
  8
0
 10
0.810058
 20
1.00613
 30
0.0
 40
0
 41
0
  0
VERTEX
  8
0
 10
0.823079
 20
1.01091
 30
0.0
 40
0
 41
0
  0
VERTEX
  8
0
 10
0.829047
 20
1.02512
 30
0.0
 40
0
 41
0
  0
SEQEND
 8
0
  0
POLYLINE
  8
0
 62
     173
 66
     1
 10
0
 20
0
 30
0.0
 70
     1
 40
0
 41
0
  0
VERTEX
  8
0
 10
0.829047
 20
0.925131
 30
0.0
 40
0
 41
0
  0
VERTEX
  8
0
 10
0.823079
 20
0.939399
 30
0.0
 40
0
 41
0
  0
VERTEX
  8
0
 10
0.810058
 20
0.944174
 30
0.0
 40
0
 41
0
  0
VERTEX
  8
0
 10
0.796983
 20
0.939399
 30
0.0
 40
0
 41
0
  0
VERTEX
  8
0
 10
0.791069
 20
0.925131
 30
0.0
 40
0
 41
0
  0
VERTEX
  8
0
 10
0.796983
 20
0.910915
 30
0.0
 40
0
 41
0
  0
VERTEX
  8
0
 10
0.810058
 20
0.906142
 30
0.0
 40
0
 41
0
  0
VERTEX
  8
0
 10
0.823079
 20
0.910915
 30
0.0
 40
0
 41
0
  0
VERTEX
  8
0
 10
0.829047
 20
0.925131
 30
0.0
 40
0
 41
0
  0
SEQEND
 8
0
  0
POLYLINE
  8
0
 62
     173
 66
     1
 10
0
 20
0
 30
0.0
 70
     1
 40
0
 41
0
  0
VERTEX
  8
0
 10
0.246474
 20
1.03049
 30
0.0
 40
0
 41
0
  0
VERTEX
  8
0
 10
0.2366
 20
1.05414
 30
0.0
 40
0
 41
0
  0
VERTEX
  8
0
 10
0.214953
 20
1.06207
 30
0.0
 40
0
 41
0
  0
VERTEX
  8
0
 10
0.193306
 20
1.05414
 30
0.0
 40
0
 41
0
  0
VERTEX
  8
0
 10
0.183485
 20
1.03049
 30
0.0
 40
0
 41
0
  0
VERTEX
  8
0
 10
0.193306
 20
1.00689
 30
0.0
 40
0
 41
0
  0
VERTEX
  8
0
 10
0.214953
 20
0.999024
 30
0.0
 40
0
 41
0
  0
VERTEX
  8
0
 10
0.2366
 20
1.00689
 30
0.0
 40
0
 41
0
  0
VERTEX
  8
0
 10
0.246474
 20
1.03049
 30
0.0
 40
0
 41
0
  0
SEQEND
 8
0
  0
POLYLINE
  8
0
 62
     173
 66
     1
 10
0
 20
0
 30
0.0
 70
     1
 40
0
 41
0
  0
VERTEX
  8
0
 10
0.246474
 20
0.410536
 30
0.0
 40
0
 41
0
  0
VERTEX
  8
0
 10
0.2366
 20
0.43419
 30
0.0
 40
0
 41
0
  0
VERTEX
  8
0
 10
0.214953
 20
0.442057
 30
0.0
 40
0
 41
0
  0
VERTEX
  8
0
 10
0.193306
 20
0.43419
 30
0.0
 40
0
 41
0
  0
VERTEX
  8
0
 10
0.183485
 20
0.410536
 30
0.0
 40
0
 41
0
  0
VERTEX
  8
0
 10
0.193306
 20
0.386936
 30
0.0
 40
0
 41
0
  0
VERTEX
  8
0
 10
0.214953
 20
0.379015
 30
0.0
 40
0
 41
0
  0
VERTEX
  8
0
 10
0.2366
 20
0.386936
 30
0.0
 40
0
 41
0
  0
VERTEX
  8
0
 10
0.246474
 20
0.410536
 30
0.0
 40
0
 41
0
  0
SEQEND
 8
0
  0
POLYLINE
  8
0
 62
     173
 66
     1
 10
0
 20
0
 30
0.0
 70
     1
 40
0
 41
0
  0
VERTEX
  8
0
 10
0.399089
 20
0.945096
 30
0.0
 40
0
 41
0
  0
VERTEX
  8
0
 10
0.393554
 20
0.973144
 30
0.0
 40
0
 41
0
  0
VERTEX
  8
0
 10
0.379069
 20
0.99311
 30
0.0
 40
0
 41
0
  0
VERTEX
  8
0
 10
0.358561
 20
1.00515
 30
0.0
 40
0
 41
0
  0
VERTEX
  8
0
 10
0.335069
 20
1.00912
 30
0.0
 40
0
 41
0
  0
VERTEX
  8
0
 10
0.311524
 20
1.00515
 30
0.0
 40
0
 41
0
  0
VERTEX
  8
0
 10
0.291015
 20
0.99311
 30
0.0
 40
0
 41
0
  0
VERTEX
  8
0
 10
0.276531
 20
0.973144
 30
0.0
 40
0
 41
0
  0
VERTEX
  8
0
 10
0.27105
 20
0.945096
 30
0.0
 40
0
 41
0
  0
VERTEX
  8
0
 10
0.276531
 20
0.917101
 30
0.0
 40
0
 41
0
  0
VERTEX
  8
0
 10
0.291015
 20
0.897136
 30
0.0
 40
0
 41
0
  0
VERTEX
  8
0
 10
0.311524
 20
0.885092
 30
0.0
 40
0
 41
0
  0
VERTEX
  8
0
 10
0.335069
 20
0.881131
 30
0.0
 40
0
 41
0
  0
VERTEX
  8
0
 10
0.358561
 20
0.885092
 30
0.0
 40
0
 41
0
  0
VERTEX
  8
0
 10
0.379069
 20
0.897136
 30
0.0
 40
0
 41
0
  0
VERTEX
  8
0
 10
0.393554
 20
0.917101
 30
0.0
 40
0
 41
0
  0
VERTEX
  8
0
 10
0.399089
 20
0.945096
 30
0.0
 40
0
 41
0
  0
SEQEND
 8
0
  0
POLYLINE
  8
0
 62
     173
 66
     1
 10
0
 20
0
 30
0.0
 70
     1
 40
0
 41
0
  0
VERTEX
  8
0
 10
0.399089
 20
0.495117
 30
0.0
 40
0
 41
0
  0
VERTEX
  8
0
 10
0.393554
 20
0.523167
 30
0.0
 40
0
 41
0
  0
VERTEX
  8
0
 10
0.379069
 20
0.543132
 30
0.0
 40
0
 41
0
  0
VERTEX
  8
0
 10
0.358561
 20
0.555176
 30
0.0
 40
0
 41
0
  0
VERTEX
  8
0
 10
0.335069
 20
0.559136
 30
0.0
 40
0
 41
0
  0
VERTEX
  8
0
 10
0.311524
 20
0.555176
 30
0.0
 40
0
 41
0
  0
VERTEX
  8
0
 10
0.291015
 20
0.543132
 30
0.0
 40
0
 41
0
  0
VERTEX
  8
0
 10
0.276531
 20
0.523167
 30
0.0
 40
0
 41
0
  0
VERTEX
  8
0
 10
0.27105
 20
0.495117
 30
0.0
 40
0
 41
0
  0
VERTEX
  8
0
 10
0.276531
 20
0.467122
 30
0.0
 40
0
 41
0
  0
VERTEX
  8
0
 10
0.291015
 20
0.447157
 30
0.0
 40
0
 41
0
  0
VERTEX
  8
0
 10
0.311524
 20
0.435113
 30
0.0
 40
0
 41
0
  0
VERTEX
  8
0
 10
0.335069
 20
0.431153
 30
0.0
 40
0
 41
0
  0
VERTEX
  8
0
 10
0.358561
 20
0.435113
 30
0.0
 40
0
 41
0
  0
VERTEX
  8
0
 10
0.379069
 20
0.447157
 30
0.0
 40
0
 41
0
  0
VERTEX
  8
0
 10
0.393554
 20
0.467122
 30
0.0
 40
0
 41
0
  0
VERTEX
  8
0
 10
0.399089
 20
0.495117
 30
0.0
 40
0
 41
0
  0
SEQEND
 8
0
  0
POLYLINE
  8
0
 62
     173
 66
     1
 10
0
 20
0
 30
0.0
 70
     1
 40
0
 41
0
  0
VERTEX
  8
0
 10
0.283583
 20
0.195096
 30
0.0
 40
0
 41
0
  0
VERTEX
  8
0
 10
0.275499
 20
0.236057
 30
0.0
 40
0
 41
0
  0
VERTEX
  8
0
 10
0.25434
 20
0.265246
 30
0.0
 40
0
 41
0
  0
VERTEX
  8
0
 10
0.224393
 20
0.282769
 30
0.0
 40
0
 41
0
  0
VERTEX
  8
0
 10
0.19005
 20
0.288629
 30
0.0
 40
0
 41
0
  0
VERTEX
  8
0
 10
0.155707
 20
0.282769
 30
0.0
 40
0
 41
0
  0
VERTEX
  8
0
 10
0.12576
 20
0.265246
 30
0.0
 40
0
 41
0
  0
VERTEX
  8
0
 10
0.104601
 20
0.236057
 30
0.0
 40
0
 41
0
  0
VERTEX
  8
0
 10
0.0965712
 20
0.195096
 30
0.0
 40
0
 41
0
  0
VERTEX
  8
0
 10
0.104601
 20
0.154189
 30
0.0
 40
0
 41
0
  0
VERTEX
  8
0
 10
0.12576
 20
0.125
 30
0.0
 40
0
 41
0
  0
VERTEX
  8
0
 10
0.155707
 20
0.107476
 30
0.0
 40
0
 41
0
  0
VERTEX
  8
0
 10
0.19005
 20
0.101617
 30
0.0
 40
0
 41
0
  0
VERTEX
  8
0
 10
0.224393
 20
0.107476
 30
0.0
 40
0
 41
0
  0
VERTEX
  8
0
 10
0.25434
 20
0.125
 30
0.0
 40
0
 41
0
  0
VERTEX
  8
0
 10
0.275499
 20
0.154189
 30
0.0
 40
0
 41
0
  0
VERTEX
  8
0
 10
0.283583
 20
0.195096
 30
0.0
 40
0
 41
0
  0
SEQEND
 8
0
  0
POLYLINE
  8
0
 62
     173
 66
     1
 10
0
 20
0
 30
0.0
 70
     1
 40
0
 41
0
  0
VERTEX
  8
0
 10
0.567057
 20
0.195096
 30
0.0
 40
0
 41
0
  0
VERTEX
  8
0
 10
0.558974
 20
0.236057
 30
0.0
 40
0
 41
0
  0
VERTEX
  8
0
 10
0.537815
 20
0.265246
 30
0.0
 40
0
 41
0
  0
VERTEX
  8
0
 10
0.507867
 20
0.282769
 30
0.0
 40
0
 41
0
  0
VERTEX
  8
0
 10
0.473525
 20
0.288629
 30
0.0
 40
0
 41
0
  0
VERTEX
  8
0
 10
0.439182
 20
0.282769
 30
0.0
 40
0
 41
0
  0
VERTEX
  8
0
 10
0.409233
 20
0.265246
 30
0.0
 40
0
 41
0
  0
VERTEX
  8
0
 10
0.388075
 20
0.236057
 30
0.0
 40
0
 41
0
  0
VERTEX
  8
0
 10
0.380046
 20
0.195096
 30
0.0
 40
0
 41
0
  0
VERTEX
  8
0
 10
0.388075
 20
0.154189
 30
0.0
 40
0
 41
0
  0
VERTEX
  8
0
 10
0.409233
 20
0.125
 30
0.0
 40
0
 41
0
  0
VERTEX
  8
0
 10
0.439182
 20
0.107476
 30
0.0
 40
0
 41
0
  0
VERTEX
  8
0
 10
0.473525
 20
0.101617
 30
0.0
 40
0
 41
0
  0
VERTEX
  8
0
 10
0.507867
 20
0.107476
 30
0.0
 40
0
 41
0
  0
VERTEX
  8
0
 10
0.537815
 20
0.125
 30
0.0
 40
0
 41
0
  0
VERTEX
  8
0
 10
0.558974
 20
0.154189
 30
0.0
 40
0
 41
0
  0
VERTEX
  8
0
 10
0.567057
 20
0.195096
 30
0.0
 40
0
 41
0
  0
SEQEND
 8
0
  0
ENDSEC
  0
EOF
