<?xml version="1.0" encoding="UTF-8"?>
<svg xmlns="http://www.w3.org/2000/svg" xmlns:xlink="http://www.w3.org/1999/xlink" width="66pt" height="82pt" viewBox="0 0 66 82" version="1.1">
<g id="surface1">
<path style="fill:none;stroke-width:0.01;stroke-linecap:round;stroke-linejoin:miter;stroke:rgb(100%,49.803922%,45.098039%);stroke-opacity:1;stroke-miterlimit:10;" d="M -0.0000232653 0.0149893 L 0.635014 0.0149893 " transform="matrix(72,0,0,-72,1.9548,80.7472)"/>
<path style="fill:none;stroke-width:0.01;stroke-linecap:round;stroke-linejoin:miter;stroke:rgb(100%,49.803922%,45.098039%);stroke-opacity:1;stroke-miterlimit:10;" d="M 0.635014 0.0149893 L 0.654979 0.0350089 " transform="matrix(72,0,0,-72,1.9548,80.7472)"/>
<path style="fill:none;stroke-width:0.01;stroke-linecap:round;stroke-linejoin:miter;stroke:rgb(100%,49.803922%,45.098039%);stroke-opacity:1;stroke-miterlimit:10;" d="M 0.654979 0.0350089 L 0.654979 0.130007 " transform="matrix(72,0,0,-72,1.9548,80.7472)"/>
<path style="fill:none;stroke-width:0.01;stroke-linecap:round;stroke-linejoin:miter;stroke:rgb(100%,49.803922%,45.098039%);stroke-opacity:1;stroke-miterlimit:10;" d="M 0.654979 0.130007 L 0.665016 0.139989 " transform="matrix(72,0,0,-72,1.9548,80.7472)"/>
<path style="fill:none;stroke-width:0.01;stroke-linecap:round;stroke-linejoin:miter;stroke:rgb(100%,49.803922%,45.098039%);stroke-opacity:1;stroke-miterlimit:10;" d="M 0.665016 0.139989 L 0.739994 0.139989 " transform="matrix(72,0,0,-72,1.9548,80.7472)"/>
<path style="fill:none;stroke-width:0.01;stroke-linecap:round;stroke-linejoin:miter;stroke:rgb(100%,49.803922%,45.098039%);stroke-opacity:1;stroke-miterlimit:10;" d="M 0.739994 0.139989 L 0.760014 0.160009 " transform="matrix(72,0,0,-72,1.9548,80.7472)"/>
<path style="fill:none;stroke-width:0.01;stroke-linecap:round;stroke-linejoin:miter;stroke:rgb(100%,49.803922%,45.098039%);stroke-opacity:1;stroke-miterlimit:10;" d="M -0.0000232653 1.100005 L -0.0000232653 0.0149893 " transform="matrix(72,0,0,-72,1.9548,80.7472)"/>
<path style="fill:none;stroke-width:0.01;stroke-linecap:round;stroke-linejoin:miter;stroke:rgb(100%,49.803922%,45.098039%);stroke-opacity:1;stroke-miterlimit:10;" d="M 0.760014 0.160009 L 0.760014 0.850005 " transform="matrix(72,0,0,-72,1.9548,80.7472)"/>
<path style="fill:none;stroke-width:0.01;stroke-linecap:round;stroke-linejoin:miter;stroke:rgb(100%,49.803922%,45.098039%);stroke-opacity:1;stroke-miterlimit:10;" d="M 0.760014 0.850005 L 0.769996 0.859987 " transform="matrix(72,0,0,-72,1.9548,80.7472)"/>
<path style="fill:none;stroke-width:0.01;stroke-linecap:round;stroke-linejoin:miter;stroke:rgb(100%,49.803922%,45.098039%);stroke-opacity:1;stroke-miterlimit:10;" d="M 0.769996 0.859987 L 0.855011 0.859987 " transform="matrix(72,0,0,-72,1.9548,80.7472)"/>
<path style="fill:none;stroke-width:0.01;stroke-linecap:round;stroke-linejoin:miter;stroke:rgb(100%,49.803922%,45.098039%);stroke-opacity:1;stroke-miterlimit:10;" d="M 0.855011 0.859987 L 0.874977 0.880007 " transform="matrix(72,0,0,-72,1.9548,80.7472)"/>
<path style="fill:none;stroke-width:0.01;stroke-linecap:round;stroke-linejoin:miter;stroke:rgb(100%,49.803922%,45.098039%);stroke-opacity:1;stroke-miterlimit:10;" d="M 0.874977 0.880007 L 0.874977 1.095013 " transform="matrix(72,0,0,-72,1.9548,80.7472)"/>
<path style="fill:none;stroke-width:0.01;stroke-linecap:round;stroke-linejoin:miter;stroke:rgb(100%,49.803922%,45.098039%);stroke-opacity:1;stroke-miterlimit:10;" d="M -0.0000232653 1.100005 L 0.874977 1.100005 " transform="matrix(72,0,0,-72,1.9548,80.7472)"/>
<path style="fill:none;stroke-width:0.01;stroke-linecap:round;stroke-linejoin:miter;stroke:rgb(100%,49.803922%,45.098039%);stroke-opacity:1;stroke-miterlimit:10;" d="M 0.874977 1.100005 L 0.874977 1.090022 " transform="matrix(72,0,0,-72,1.9548,80.7472)"/>
<path style=" stroke:none;fill-rule:evenodd;fill:rgb(45.098039%,45.098039%,87.058824%);fill-opacity:1;" d="M 13.476562 21.707031 C 13.476562 20.746094 12.035156 20.746094 12.035156 21.707031 C 12.035156 22.667969 13.476562 22.667969 13.476562 21.707031 "/>
<path style=" stroke:none;fill-rule:evenodd;fill:rgb(45.098039%,45.098039%,87.058824%);fill-opacity:1;" d="M 13.476562 37.402344 C 13.476562 36.441406 12.035156 36.441406 12.035156 37.402344 C 12.035156 38.363281 13.476562 38.363281 13.476562 37.402344 "/>
<path style=" stroke:none;fill-rule:evenodd;fill:rgb(45.098039%,45.098039%,87.058824%);fill-opacity:1;" d="M 50.554688 45.105469 C 50.554688 44.148438 49.113281 44.148438 49.113281 45.105469 C 49.113281 46.066406 50.554688 46.066406 50.554688 45.105469 "/>
<path style=" stroke:none;fill-rule:evenodd;fill:rgb(45.098039%,45.098039%,87.058824%);fill-opacity:1;" d="M 43.894531 49.789062 C 43.894531 48.105469 41.375 48.105469 41.375 49.789062 C 41.375 51.46875 43.894531 51.46875 43.894531 49.789062 "/>
<path style=" stroke:none;fill-rule:evenodd;fill:rgb(45.098039%,45.098039%,87.058824%);fill-opacity:1;" d="M 44.976562 15.585938 C 44.976562 13.90625 42.453125 13.90625 42.453125 15.585938 C 42.453125 17.265625 44.976562 17.265625 44.976562 15.585938 "/>
<path style=" stroke:none;fill-rule:evenodd;fill:rgb(45.098039%,45.098039%,87.058824%);fill-opacity:1;" d="M 44.976562 22.789062 C 44.976562 21.105469 42.453125 21.105469 42.453125 22.789062 C 42.453125 24.46875 44.976562 24.46875 44.976562 22.789062 "/>
<path style=" stroke:none;fill-rule:evenodd;fill:rgb(45.098039%,45.098039%,87.058824%);fill-opacity:1;" d="M 44.976562 29.988281 C 44.976562 28.308594 42.453125 28.308594 42.453125 29.988281 C 42.453125 31.667969 44.976562 31.667969 44.976562 29.988281 "/>
<path style=" stroke:none;fill-rule:evenodd;fill:rgb(45.098039%,45.098039%,87.058824%);fill-opacity:1;" d="M 44.976562 37.1875 C 44.976562 35.507812 42.453125 35.507812 42.453125 37.1875 C 42.453125 38.867188 44.976562 38.867188 44.976562 37.1875 "/>
<path style=" stroke:none;fill-rule:evenodd;fill:rgb(45.098039%,45.098039%,87.058824%);fill-opacity:1;" d="M 52.175781 19.1875 C 52.175781 17.507812 49.65625 17.507812 49.65625 19.1875 C 49.65625 20.867188 52.175781 20.867188 52.175781 19.1875 "/>
<path style=" stroke:none;fill-rule:evenodd;fill:rgb(45.098039%,45.098039%,87.058824%);fill-opacity:1;" d="M 52.175781 26.386719 C 52.175781 24.707031 49.65625 24.707031 49.65625 26.386719 C 49.65625 28.066406 52.175781 28.066406 52.175781 26.386719 "/>
<path style=" stroke:none;fill-rule:evenodd;fill:rgb(45.098039%,45.098039%,87.058824%);fill-opacity:1;" d="M 52.175781 33.585938 C 52.175781 31.90625 49.65625 31.90625 49.65625 33.585938 C 49.65625 35.265625 52.175781 35.265625 52.175781 33.585938 "/>
<path style=" stroke:none;fill-rule:evenodd;fill:rgb(45.098039%,45.098039%,87.058824%);fill-opacity:1;" d="M 52.175781 40.789062 C 52.175781 39.105469 49.65625 39.105469 49.65625 40.789062 C 49.65625 42.46875 52.175781 42.46875 52.175781 40.789062 "/>
<path style=" stroke:none;fill-rule:evenodd;fill:rgb(45.098039%,45.098039%,87.058824%);fill-opacity:1;" d="M 53.363281 58.066406 C 53.363281 56.242188 50.625 56.242188 50.625 58.066406 C 50.625 59.890625 53.363281 59.890625 53.363281 58.066406 "/>
<path style=" stroke:none;fill-rule:evenodd;fill:rgb(45.098039%,45.098039%,87.058824%);fill-opacity:1;" d="M 53.363281 65.265625 C 53.363281 63.441406 50.625 63.441406 50.625 65.265625 C 50.625 67.089844 53.363281 67.089844 53.363281 65.265625 "/>
<path style=" stroke:none;fill-rule:evenodd;fill:rgb(45.098039%,45.098039%,87.058824%);fill-opacity:1;" d="M 61.28125 6.226562 C 61.28125 4.402344 58.546875 4.402344 58.546875 6.226562 C 58.546875 8.050781 61.28125 8.050781 61.28125 6.226562 "/>
<path style=" stroke:none;fill-rule:evenodd;fill:rgb(45.098039%,45.098039%,87.058824%);fill-opacity:1;" d="M 61.28125 13.425781 C 61.28125 11.601562 58.546875 11.601562 58.546875 13.425781 C 58.546875 15.25 61.28125 15.25 61.28125 13.425781 "/>
<path style=" stroke:none;fill-rule:evenodd;fill:rgb(45.098039%,45.098039%,87.058824%);fill-opacity:1;" d="M 19.335938 5.839844 C 19.335938 2.8125 14.800781 2.8125 14.800781 5.839844 C 14.800781 8.863281 19.335938 8.863281 19.335938 5.839844 "/>
<path style=" stroke:none;fill-rule:evenodd;fill:rgb(45.098039%,45.098039%,87.058824%);fill-opacity:1;" d="M 19.335938 50.476562 C 19.335938 47.453125 14.800781 47.453125 14.800781 50.476562 C 14.800781 53.503906 19.335938 53.503906 19.335938 50.476562 "/>
<path style=" stroke:none;fill-rule:evenodd;fill:rgb(45.098039%,45.098039%,87.058824%);fill-opacity:1;" d="M 30.324219 11.988281 C 30.324219 5.84375 21.105469 5.84375 21.105469 11.988281 C 21.105469 18.132812 30.324219 18.132812 30.324219 11.988281 "/>
<path style=" stroke:none;fill-rule:evenodd;fill:rgb(45.098039%,45.098039%,87.058824%);fill-opacity:1;" d="M 30.324219 44.386719 C 30.324219 38.242188 21.105469 38.242188 21.105469 44.386719 C 21.105469 50.53125 30.324219 50.53125 30.324219 44.386719 "/>
<path style=" stroke:none;fill-rule:evenodd;fill:rgb(45.098039%,45.098039%,87.058824%);fill-opacity:1;" d="M 22.007812 65.988281 C 22.007812 57.011719 8.542969 57.011719 8.542969 65.988281 C 8.542969 74.964844 22.007812 74.964844 22.007812 65.988281 "/>
<path style=" stroke:none;fill-rule:evenodd;fill:rgb(45.098039%,45.098039%,87.058824%);fill-opacity:1;" d="M 42.417969 65.988281 C 42.417969 57.011719 28.953125 57.011719 28.953125 65.988281 C 28.953125 74.964844 42.417969 74.964844 42.417969 65.988281 "/>
</g>
</svg>
