G04 start of page 8 for group -4079 idx -4079 *
G04 Title: (unknown), topsilk *
G04 Creator: pcb 1.99z *
G04 CreationDate: Wed Dec  9 06:04:29 2015 UTC *
G04 For: commonadmin *
G04 Format: Gerber/RS-274X *
G04 PCB-Dimensions (mil): 1410.00 1650.00 *
G04 PCB-Coordinate-Origin: lower left *
%MOIN*%
%FSLAX25Y25*%
%LNTOPSILK*%
%ADD82C,0.0040*%
%ADD81C,0.0200*%
%ADD80C,0.0250*%
%ADD79C,0.0080*%
%ADD78C,0.0030*%
%ADD77C,0.0060*%
%ADD76C,0.0100*%
G54D76*X73906Y53119D02*Y38198D01*
X44930D02*X73906D01*
Y95914D02*Y50914D01*
X1465Y108670D02*Y38198D01*
Y108670D02*X44969D01*
X1465Y38198D02*X44969D01*
X73906Y108670D02*Y94891D01*
G54D77*X58749Y91702D02*X57174Y90127D01*
Y91702D02*X58749Y90127D01*
G54D76*X44930Y108670D02*X73906D01*
G54D78*X64064Y76374D02*X62564Y74499D01*
X62189Y76374D02*X64064D01*
X62564Y77499D02*Y74499D01*
X61289Y77124D02*X59039Y74874D01*
X56639Y77499D02*X58139D01*
X56639D02*X56264Y77124D01*
Y76224D01*
X56639Y75849D02*X56264Y76224D01*
X56639Y75849D02*X57764D01*
Y77499D02*Y74499D01*
X56639D02*X58139D01*
X56639D02*X56264Y74874D01*
Y75474D02*Y74874D01*
X56639Y75849D02*X56264Y75474D01*
X55364Y77124D02*Y74499D01*
Y77124D02*X54989Y77499D01*
X53828Y79598D02*X53453Y79223D01*
X52703D02*X53453D01*
X52703D02*X52328Y79598D01*
X52703Y82223D02*X52328Y81848D01*
X52703Y82223D02*X53453D01*
X53828Y81848D02*X53453Y82223D01*
X52703Y80573D02*X53453D01*
X52328Y80198D02*Y79598D01*
Y81848D02*Y80948D01*
X52703Y80573D01*
X52328Y80198D02*X52703Y80573D01*
X51428Y81848D02*X49178Y79598D01*
X48278Y80723D02*Y79223D01*
Y80723D02*X47903Y82223D01*
X47153Y80723D01*
X46403Y82223D01*
X46028Y80723D01*
Y79223D01*
X45128Y81848D02*Y79598D01*
X44753Y79223D01*
X44003D02*X44753D01*
X44003D02*X43628Y79598D01*
Y81848D02*Y79598D01*
X44003Y82223D02*X43628Y81848D01*
X44003Y82223D02*X44753D01*
X45128Y81848D02*X44753Y82223D01*
X64064Y84716D02*X63689Y84341D01*
X62564D02*X63689D01*
X62564D02*X62189Y84716D01*
Y85466D02*Y84716D01*
X64064Y87341D02*X62189Y85466D01*
Y87341D02*X64064D01*
X61289Y86966D02*X59039Y84716D01*
X56639Y84341D02*X56264Y84716D01*
X56639Y84341D02*X57764D01*
X58139Y84716D02*X57764Y84341D01*
X58139Y86966D02*Y84716D01*
Y86966D02*X57764Y87341D01*
X56639D02*X57764D01*
X56639D02*X56264Y86966D01*
Y86216D01*
X56639Y85841D02*X56264Y86216D01*
X56639Y85841D02*X57389D01*
X53434Y90059D02*X52834Y89459D01*
Y92459D02*Y89459D01*
X52309Y92459D02*X53434D01*
X51409Y92084D02*X49159Y89834D01*
X48259Y90959D02*Y89459D01*
Y90959D02*X47884Y92459D01*
X47134Y90959D01*
X46384Y92459D01*
X46009Y90959D01*
Y89459D01*
X43609D02*X43234Y89834D01*
X43609Y89459D02*X44734D01*
X45109Y89834D02*X44734Y89459D01*
X45109Y92084D02*Y89834D01*
Y92084D02*X44734Y92459D01*
X43609D02*X44734D01*
X43609D02*X43234Y92084D01*
Y91334D01*
X43609Y90959D02*X43234Y91334D01*
X43609Y90959D02*X44359D01*
X53453Y62538D02*X51953Y59538D01*
X53828D01*
X51053Y62163D02*X48803Y59913D01*
X47903Y61038D02*Y59538D01*
Y61038D02*X47528Y62538D01*
X46778Y61038D01*
X46028Y62538D01*
X45653Y61038D01*
Y59538D01*
X43253Y62538D02*X44753D01*
X43253D02*X42878Y62163D01*
Y61263D01*
X43253Y60888D02*X42878Y61263D01*
X43253Y60888D02*X44378D01*
Y62538D02*Y59538D01*
X43253D02*X44753D01*
X43253D02*X42878Y59913D01*
Y60513D02*Y59913D01*
X43253Y60888D02*X42878Y60513D01*
X41603Y62538D02*Y61413D01*
X41228Y61038D01*
X40478D02*X41228D01*
X41978D02*X41603Y61413D01*
X63670Y57045D02*X63295Y57420D01*
X63670Y57045D02*Y56445D01*
X63145Y55920D01*
X62695D02*X63145D01*
X62695D02*X62170Y56445D01*
Y57045D02*Y56445D01*
X62545Y57420D02*X62170Y57045D01*
X62545Y57420D02*X63295D01*
X63670Y55395D02*X63145Y55920D01*
X63670Y55395D02*Y54795D01*
X63295Y54420D01*
X62545D02*X63295D01*
X62545D02*X62170Y54795D01*
Y55395D02*Y54795D01*
X62695Y55920D02*X62170Y55395D01*
X61270Y57045D02*X59020Y54795D01*
X56620Y57420D02*X58120D01*
X56620D02*X56245Y57045D01*
Y56145D01*
X56620Y55770D02*X56245Y56145D01*
X56620Y55770D02*X57745D01*
Y57420D02*Y54420D01*
X56620D02*X58120D01*
X56620D02*X56245Y54795D01*
Y55395D02*Y54795D01*
X56620Y55770D02*X56245Y55395D01*
X54970Y57420D02*Y56295D01*
X54595Y55920D01*
X53845D02*X54595D01*
X55345D02*X54970Y56295D01*
X52328Y68987D02*X53828D01*
Y70487D02*Y68987D01*
Y70487D02*X53453Y70112D01*
X52703D02*X53453D01*
X52703D02*X52328Y70487D01*
Y71612D02*Y70487D01*
X52703Y71987D02*X52328Y71612D01*
X52703Y71987D02*X53453D01*
X53828Y71612D02*X53453Y71987D01*
X51428Y71612D02*X49178Y69362D01*
X48278Y70487D02*Y68987D01*
Y70487D02*X47903Y71987D01*
X47153Y70487D01*
X46403Y71987D01*
X46028Y70487D01*
Y68987D01*
X43628Y71987D02*X45128D01*
X43628D02*X43253Y71612D01*
Y70712D01*
X43628Y70337D02*X43253Y70712D01*
X43628Y70337D02*X44753D01*
Y71987D02*Y68987D01*
X43628D02*X45128D01*
X43628D02*X43253Y69362D01*
Y69962D02*Y69362D01*
X43628Y70337D02*X43253Y69962D01*
X42353Y71612D02*Y68987D01*
Y71612D02*X41978Y71987D01*
X62545Y64656D02*X62170Y65031D01*
X62545Y64656D02*X63295D01*
X63670Y65031D02*X63295Y64656D01*
X63670Y67281D02*Y65031D01*
Y67281D02*X63295Y67656D01*
X62545Y66006D02*X62170Y66381D01*
X62545Y66006D02*X63670D01*
X62545Y67656D02*X63295D01*
X62545D02*X62170Y67281D01*
Y66381D01*
X61270Y67281D02*X59020Y65031D01*
X58120Y67281D02*Y65031D01*
X57745Y64656D01*
X56995D02*X57745D01*
X56995D02*X56620Y65031D01*
Y67281D02*Y65031D01*
X56995Y67656D02*X56620Y67281D01*
X56995Y67656D02*X57745D01*
X58120Y67281D02*X57745Y67656D01*
X66070Y104851D02*Y103351D01*
X63070Y104101D02*X66070D01*
Y102451D02*Y100951D01*
X64570Y102451D02*X66070D01*
X64570D02*X64945Y102076D01*
Y101326D01*
X64570Y100951D01*
X63445D02*X64570D01*
X63070Y101326D02*X63445Y100951D01*
X63070Y102076D02*Y101326D01*
X63445Y102451D02*X63070Y102076D01*
X66070Y98926D02*X65695Y98551D01*
X66070Y99676D02*Y98926D01*
X65695Y100051D02*X66070Y99676D01*
X63445Y100051D02*X65695D01*
X63445D02*X63070Y99676D01*
X64720Y98926D02*X64345Y98551D01*
X64720Y100051D02*Y98926D01*
X63070Y99676D02*Y98926D01*
X63445Y98551D01*
X64345D01*
X63445Y97651D02*X63070Y97276D01*
X63445Y97651D02*X64045D01*
X64570Y97126D01*
Y96676D01*
X64045Y96151D01*
X63445D02*X64045D01*
X63070Y96526D02*X63445Y96151D01*
X63070Y97276D02*Y96526D01*
X65095Y97651D02*X64570Y97126D01*
X65095Y97651D02*X65695D01*
X66070Y97276D01*
Y96526D01*
X65695Y96151D01*
X65095D02*X65695D01*
X64570Y96676D02*X65095Y96151D01*
X63070Y95251D02*X65320D01*
X66070Y94726D01*
Y93901D01*
X65320Y93376D01*
X63070D02*X65320D01*
X64570Y95251D02*Y93376D01*
G54D76*X123000Y84500D02*Y64500D01*
X133000D01*
Y84500D01*
X123000D01*
Y74500D02*X133000D01*
Y84500D01*
X123000Y62000D02*Y42000D01*
X133000D01*
Y62000D01*
X123000D01*
Y52000D02*X133000D01*
Y62000D01*
X75571Y125248D02*Y93358D01*
X137382D01*
Y125248D01*
X75571D01*
X130689D02*X137382Y118555D01*
X130689Y93358D02*X137382Y100051D01*
X92500Y125248D02*Y93358D01*
X120846Y125248D02*Y93358D01*
X75571Y109500D02*X137382D01*
G54D79*X82150Y132755D02*X82936D01*
X82150Y127245D02*X82936D01*
G54D80*X115500Y3500D02*Y9500D01*
X106000Y3500D02*X115500D01*
X106000Y9500D02*Y3500D01*
X101000Y9500D02*Y84500D01*
X121000Y9500D02*X101000D01*
X121000Y84500D02*Y9500D01*
X101000Y84500D02*X121000D01*
G54D76*X34500Y163500D02*Y133500D01*
X24500Y163500D02*X34500D01*
X24500D02*Y133500D01*
X34500D01*
X24500Y143500D02*X34500D01*
X24500D02*Y133500D01*
X64000Y163500D02*Y143500D01*
X74000D01*
Y163500D01*
X64000D01*
Y153500D02*X74000D01*
Y163500D01*
X23000D02*Y133500D01*
X13000Y163500D02*X23000D01*
X13000D02*Y133500D01*
X23000D01*
X13000Y143500D02*X23000D01*
X13000D02*Y133500D01*
X11500Y163500D02*Y133500D01*
X1500Y163500D02*X11500D01*
X1500D02*Y133500D01*
X11500D01*
X1500Y143500D02*X11500D01*
X1500D02*Y133500D01*
G54D79*X13543Y112260D02*X18267D01*
X13543Y119740D02*X18267D01*
G54D81*X31900Y131200D02*Y112800D01*
G54D76*X39100Y110200D01*
X74300D01*
Y133800D01*
X39100D01*
X31900Y131200D01*
X73945Y96000D02*Y51000D01*
Y108756D02*Y94976D01*
X44969Y38283D02*X73945D01*
Y53205D02*Y38283D01*
X1504D02*X45008D01*
X44969Y108756D02*X73945D01*
X1504D02*X45008D01*
X1504D02*Y38283D01*
X1571Y36748D02*Y4858D01*
X63382D01*
Y36748D01*
X1571D01*
X56689D02*X63382Y30055D01*
X56689Y4858D02*X63382Y11551D01*
X18500Y36748D02*Y4858D01*
X46846Y36748D02*Y4858D01*
X1571Y21000D02*X63382D01*
G54D79*X73240Y30457D02*Y25733D01*
X65760Y30457D02*Y25733D01*
G54D80*X92000Y3500D02*Y9500D01*
X82500Y3500D02*X92000D01*
X82500Y9500D02*Y3500D01*
X77500Y9500D02*Y84500D01*
X97500Y9500D02*X77500D01*
X97500Y84500D02*Y9500D01*
X77500Y84500D02*X97500D01*
G54D82*X69000Y156000D02*Y154000D01*
X68500Y153500D01*
X67500D02*X68500D01*
X67000Y154000D02*X67500Y153500D01*
X67000Y155500D02*Y154000D01*
X65000Y155500D02*X69000D01*
X67000Y154700D02*X65000Y153500D01*
X68500Y152300D02*X69000Y151800D01*
Y150300D01*
X68500Y149800D01*
X67500D02*X68500D01*
X65000Y152300D02*X67500Y149800D01*
X65000Y152300D02*Y149800D01*
X137500Y81500D02*Y79500D01*
X133500Y80500D02*X137500D01*
Y78300D02*X135500Y77300D01*
X137500Y76300D01*
X133500Y77300D02*X135500D01*
X133500Y74600D02*X137500D01*
Y75100D02*Y73100D01*
X137000Y72600D01*
X136000D02*X137000D01*
X135500Y73100D02*X136000Y72600D01*
X135500Y74600D02*Y73100D01*
X135700Y71400D02*Y69900D01*
X133500Y71400D02*Y69400D01*
Y71400D02*X137500D01*
Y69400D01*
X136700Y68200D02*X137500Y67400D01*
X133500D02*X137500D01*
X133500Y68200D02*Y66700D01*
Y58000D02*Y56000D01*
X134000Y55500D01*
X135200D01*
X135700Y56000D02*X135200Y55500D01*
X135700Y57500D02*Y56000D01*
X133500Y57500D02*X137500D01*
Y58000D02*Y56000D01*
X137000Y55500D01*
X136200D02*X137000D01*
X135700Y56000D02*X136200Y55500D01*
X137500Y54300D02*Y53300D01*
X133500Y53800D02*X137500D01*
X133500Y54300D02*Y53300D01*
Y52100D02*X137500D01*
X133500Y49600D01*
X137500D01*
X136700Y48400D02*X137500Y47600D01*
X133500D02*X137500D01*
X133500Y48400D02*Y46900D01*
X130150Y37891D02*Y36591D01*
X130850Y38591D02*X130150Y37891D01*
X130850Y38591D02*X133450D01*
X134150Y37891D01*
Y36591D01*
X133650Y35391D02*X134150Y34891D01*
Y33391D01*
X133650Y32891D01*
X132650D02*X133650D01*
X130150Y35391D02*X132650Y32891D01*
X130150Y35391D02*Y32891D01*
X124650Y37891D02*Y36591D01*
X125350Y38591D02*X124650Y37891D01*
X125350Y38591D02*X127950D01*
X128650Y37891D01*
Y36591D01*
X128150Y35391D02*X128650Y34891D01*
Y33891D01*
X128150Y33391D01*
X124650Y33891D02*X125150Y33391D01*
X124650Y34891D02*Y33891D01*
X125150Y35391D02*X124650Y34891D01*
X126850D02*Y33891D01*
X127350Y33391D02*X128150D01*
X125150D02*X126350D01*
X126850Y33891D01*
X127350Y33391D02*X126850Y33891D01*
X79393Y132150D02*Y128150D01*
X81393D01*
X82593Y131350D02*X83393Y132150D01*
Y128150D01*
X82593D02*X84093D01*
X3500Y11000D02*X4500D01*
X4000D02*Y7000D01*
X3500D02*X4500D01*
X5700Y11000D02*Y7000D01*
Y11000D02*X7700D01*
X5700Y9200D02*X7200D01*
X8900Y10500D02*X9400Y11000D01*
X10900D01*
X11400Y10500D01*
Y9500D01*
X8900Y7000D02*X11400Y9500D01*
X8900Y7000D02*X11400D01*
X17055Y113850D02*X19055D01*
X17055D02*X16555Y114350D01*
Y115350D02*Y114350D01*
X17055Y115850D02*X16555Y115350D01*
X17055Y115850D02*X18555D01*
Y117850D02*Y113850D01*
X17755Y115850D02*X16555Y117850D01*
X15355Y114650D02*X14555Y113850D01*
Y117850D02*Y113850D01*
X13855Y117850D02*X15355D01*
X71650Y31245D02*Y29245D01*
X71150Y28745D01*
X70150D02*X71150D01*
X69650Y29245D02*X70150Y28745D01*
X69650Y30745D02*Y29245D01*
X67650Y30745D02*X71650D01*
X69650Y29945D02*X67650Y28745D01*
X69150Y27545D02*X71650Y25545D01*
X69150Y27545D02*Y25045D01*
X67650Y25545D02*X71650D01*
X22000Y86000D02*Y85000D01*
X18000Y85500D02*X22000D01*
X18000Y86000D02*Y85000D01*
Y83800D02*X22000D01*
Y81800D01*
X20200Y83800D02*Y82300D01*
X21200Y80600D02*X22000Y79800D01*
X18000D02*X22000D01*
X18000Y80600D02*Y79100D01*
X51800Y123500D02*X55800D01*
Y122200D02*X55100Y121500D01*
X52500D02*X55100D01*
X51800Y122200D02*X52500Y121500D01*
X51800Y124000D02*Y122200D01*
X55800Y124000D02*Y122200D01*
X55000Y120300D02*X55800Y119500D01*
X51800D02*X55800D01*
X51800Y120300D02*Y118800D01*
X78000Y98000D02*X78500Y97500D01*
X76500Y98000D02*X78000D01*
X76000Y97500D02*X76500Y98000D01*
X76000Y97500D02*Y96500D01*
X76500Y96000D01*
X78000D01*
X78500Y95500D01*
Y94500D01*
X78000Y94000D02*X78500Y94500D01*
X76500Y94000D02*X78000D01*
X76000Y94500D02*X76500Y94000D01*
X79700Y97000D02*Y94000D01*
Y97000D02*X80400Y98000D01*
X81500D01*
X82200Y97000D01*
Y94000D01*
X79700Y96000D02*X82200D01*
X83400Y98000D02*Y94000D01*
Y98000D02*X85400D01*
X83400Y96200D02*X84900D01*
X86600D02*X88100D01*
X86600Y94000D02*X88600D01*
X86600Y98000D02*Y94000D01*
Y98000D02*X88600D01*
X89800D02*X91800D01*
X90800D02*Y94000D01*
X93000Y98000D02*X94000Y96000D01*
X95000Y98000D01*
X94000Y96000D02*Y94000D01*
X96200Y97200D02*X97000Y98000D01*
Y94000D01*
X96200D02*X97700D01*
X81000Y79500D02*X83000D01*
X83500Y79000D01*
Y78000D01*
X83000Y77500D02*X83500Y78000D01*
X81500Y77500D02*X83000D01*
X81500Y79500D02*Y75500D01*
X82300Y77500D02*X83500Y75500D01*
X84700Y79500D02*X86700D01*
X84700D02*Y77500D01*
X85200Y78000D01*
X86200D01*
X86700Y77500D01*
Y76000D01*
X86200Y75500D02*X86700Y76000D01*
X85200Y75500D02*X86200D01*
X84700Y76000D02*X85200Y75500D01*
X104500Y80000D02*X106500D01*
X107000Y79500D01*
Y78500D01*
X106500Y78000D02*X107000Y78500D01*
X105000Y78000D02*X106500D01*
X105000Y80000D02*Y76000D01*
X105800Y78000D02*X107000Y76000D01*
X109700Y80000D02*X110200Y79500D01*
X108700Y80000D02*X109700D01*
X108200Y79500D02*X108700Y80000D01*
X108200Y79500D02*Y76500D01*
X108700Y76000D01*
X109700Y78200D02*X110200Y77700D01*
X108200Y78200D02*X109700D01*
X108700Y76000D02*X109700D01*
X110200Y76500D01*
Y77700D02*Y76500D01*
X29500Y140000D02*X33500D01*
X29500D02*X31500Y141500D01*
X29500Y143000D01*
X33500D01*
X30000Y144200D02*X29500Y144700D01*
Y145700D02*Y144700D01*
Y145700D02*X30000Y146200D01*
X33500Y145700D02*X33000Y146200D01*
X33500Y145700D02*Y144700D01*
X33000Y144200D02*X33500Y144700D01*
X31300Y145700D02*Y144700D01*
X30000Y146200D02*X30800D01*
X31800D02*X33000D01*
X31800D02*X31300Y145700D01*
X30800Y146200D02*X31300Y145700D01*
X17500Y140000D02*X21500D01*
X17500D02*X19500Y141500D01*
X17500Y143000D01*
X21500D01*
X18000Y144200D02*X17500Y144700D01*
Y146200D02*Y144700D01*
Y146200D02*X18000Y146700D01*
X19000D01*
X21500Y144200D02*X19000Y146700D01*
X21500D02*Y144200D01*
X6000Y140000D02*X10000D01*
X6000D02*X8000Y141500D01*
X6000Y143000D01*
X10000D01*
X6800Y144200D02*X6000Y145000D01*
X10000D01*
Y145700D02*Y144200D01*
X39850Y139291D02*Y137991D01*
X39150Y137291D02*X39850Y137991D01*
X36550Y137291D02*X39150D01*
X36550D02*X35850Y137991D01*
Y139291D02*Y137991D01*
X36650Y140491D02*X35850Y141291D01*
X39850D01*
Y141991D02*Y140491D01*
M02*
