G04 start of page 6 for group -4063 idx -4063 *
G04 Title: (unknown), componentmask *
G04 Creator: pcb 1.99z *
G04 CreationDate: Thu Dec 10 00:32:16 2015 UTC *
G04 For: commonadmin *
G04 Format: Gerber/RS-274X *
G04 PCB-Dimensions (mil): 1410.00 1650.00 *
G04 PCB-Coordinate-Origin: lower left *
%MOIN*%
%FSLAX25Y25*%
%LNTOPMASK*%
%ADD70R,0.0355X0.0355*%
%ADD69R,0.0257X0.0257*%
%ADD68R,0.0572X0.0572*%
%ADD67R,0.1510X0.1510*%
%ADD66C,0.0759*%
%ADD65C,0.0887*%
%ADD64C,0.1536*%
%ADD63C,0.0611*%
%ADD62C,0.2422*%
%ADD61C,0.0660*%
%ADD60C,0.0001*%
G54D60*G36*
X124700Y82800D02*Y76200D01*
X131300D01*
Y82800D01*
X124700D01*
G37*
G54D61*X128000Y69500D03*
G54D60*G36*
X124700Y60300D02*Y53700D01*
X131300D01*
Y60300D01*
X124700D01*
G37*
G54D61*X128000Y47000D03*
G54D60*G36*
X112203Y75797D02*Y68203D01*
X119797D01*
Y75797D01*
X112203D01*
G37*
G54D62*X120846Y109500D03*
X92500D03*
G54D60*G36*
X88703Y75797D02*Y68203D01*
X96297D01*
Y75797D01*
X88703D01*
G37*
G54D63*X68000Y86000D03*
X58000Y91000D03*
Y81000D03*
G54D64*X33000Y96000D03*
G54D65*X20992Y104543D03*
G54D63*X68000Y76000D03*
X58000Y71000D03*
Y61000D03*
X68000Y66000D03*
Y56000D03*
G54D64*X33000Y51000D03*
G54D62*X18500Y21000D03*
X46846D03*
G54D66*X92500Y22000D03*
X116000D03*
X82500Y42000D03*
X106000D03*
G54D65*X20992Y42535D03*
G54D60*G36*
X26200Y141800D02*Y135200D01*
X32800D01*
Y141800D01*
X26200D01*
G37*
G54D61*X29500Y148500D03*
Y158500D03*
G54D60*G36*
X14700Y141800D02*Y135200D01*
X21300D01*
Y141800D01*
X14700D01*
G37*
G54D61*X18000Y148500D03*
Y158500D03*
G54D60*G36*
X3200Y141800D02*Y135200D01*
X9800D01*
Y141800D01*
X3200D01*
G37*
G54D61*X6500Y148500D03*
Y158500D03*
G54D60*G36*
X65700Y161800D02*Y155200D01*
X72300D01*
Y161800D01*
X65700D01*
G37*
G54D61*X69000Y148500D03*
G54D67*X64500Y124000D02*Y120000D01*
G54D68*X68319Y34000D02*X70681D01*
X68319Y22190D02*X70681D01*
G54D69*X80000Y130393D02*Y129607D01*
G54D68*X21810Y117181D02*Y114819D01*
X10000Y117181D02*Y114819D01*
G54D67*X42700Y124000D02*Y120000D01*
G54D69*X83148Y130393D02*Y129607D01*
G54D70*X131508Y38000D02*X132492D01*
X131508Y32882D02*X132492D01*
M02*
