G04 start of page 3 for group 1 idx 1 *
G04 Title: (unknown), bottom *
G04 Creator: pcb 1.99z *
G04 CreationDate: Wed Dec  9 06:05:03 2015 UTC *
G04 For: commonadmin *
G04 Format: Gerber/RS-274X *
G04 PCB-Dimensions (mil): 2380.00 955.00 *
G04 PCB-Coordinate-Origin: lower left *
%MOIN*%
%FSLAX25Y25*%
%LNBOTTOM*%
%ADD37C,0.0380*%
%ADD36C,0.0630*%
%ADD35C,0.1280*%
%ADD34C,0.0354*%
%ADD33C,0.0300*%
%ADD32C,0.0280*%
%ADD31C,0.0827*%
%ADD30C,0.1476*%
%ADD29C,0.0551*%
%ADD28C,0.0600*%
%ADD27C,0.0550*%
%ADD26C,0.0100*%
%ADD25C,0.0001*%
G54D25*G36*
X212046Y63133D02*X212197Y62572D01*
X212310Y61934D01*
X212367Y61289D01*
Y60641D01*
X212310Y59995D01*
X212197Y59357D01*
X212046Y58797D01*
Y63133D01*
G37*
G36*
Y18133D02*X212197Y17572D01*
X212310Y16934D01*
X212367Y16289D01*
Y15641D01*
X212310Y14995D01*
X212197Y14357D01*
X212046Y13797D01*
Y18133D01*
G37*
G36*
X221266Y74465D02*X224992D01*
Y2965D01*
X221266D01*
Y4657D01*
X221277Y4668D01*
X221323Y4731D01*
X221553Y5118D01*
X221744Y5526D01*
X221899Y5949D01*
X222016Y6383D01*
X222094Y6826D01*
X222134Y7275D01*
Y7725D01*
X222094Y8174D01*
X222016Y8617D01*
X221899Y9052D01*
X221744Y9474D01*
X221553Y9882D01*
X221327Y10271D01*
X221280Y10335D01*
X221266Y10349D01*
Y66665D01*
X221277Y66676D01*
X221323Y66739D01*
X221553Y67126D01*
X221744Y67534D01*
X221899Y67956D01*
X222016Y68391D01*
X222094Y68834D01*
X222134Y69283D01*
Y69733D01*
X222094Y70181D01*
X222016Y70625D01*
X221899Y71059D01*
X221744Y71482D01*
X221553Y71890D01*
X221327Y72279D01*
X221280Y72343D01*
X221266Y72357D01*
Y74465D01*
G37*
G36*
X216998Y73638D02*X217181D01*
X217542Y73606D01*
X217898Y73543D01*
X218248Y73449D01*
X218588Y73324D01*
X218916Y73171D01*
X219229Y72989D01*
X219298Y72951D01*
X219372Y72925D01*
X219450Y72911D01*
X219528Y72909D01*
X219606Y72920D01*
X219682Y72943D01*
X219753Y72977D01*
X219817Y73022D01*
X219874Y73077D01*
X219921Y73140D01*
X219958Y73209D01*
X219984Y73283D01*
X219998Y73361D01*
X220000Y73440D01*
X219989Y73518D01*
X219966Y73593D01*
X219932Y73664D01*
X219887Y73728D01*
X219832Y73785D01*
X219769Y73831D01*
X219382Y74061D01*
X218974Y74252D01*
X218551Y74407D01*
X218337Y74465D01*
X221266D01*
Y72357D01*
X221223Y72398D01*
X221158Y72443D01*
X221086Y72478D01*
X221011Y72501D01*
X220932Y72512D01*
X220853Y72510D01*
X220775Y72496D01*
X220700Y72470D01*
X220630Y72433D01*
X220566Y72385D01*
X220511Y72328D01*
X220466Y72262D01*
X220431Y72191D01*
X220408Y72115D01*
X220398Y72037D01*
X220399Y71957D01*
X220413Y71879D01*
X220439Y71804D01*
X220478Y71735D01*
X220663Y71424D01*
X220817Y71096D01*
X220941Y70756D01*
X221035Y70406D01*
X221098Y70050D01*
X221130Y69689D01*
Y69327D01*
X221098Y68966D01*
X221035Y68609D01*
X220941Y68260D01*
X220817Y67920D01*
X220663Y67592D01*
X220481Y67279D01*
X220443Y67210D01*
X220417Y67136D01*
X220403Y67058D01*
X220402Y66979D01*
X220412Y66901D01*
X220435Y66826D01*
X220470Y66755D01*
X220515Y66691D01*
X220569Y66634D01*
X220632Y66587D01*
X220701Y66549D01*
X220776Y66524D01*
X220853Y66510D01*
X220932Y66508D01*
X221010Y66519D01*
X221085Y66542D01*
X221156Y66576D01*
X221220Y66621D01*
X221266Y66665D01*
Y10349D01*
X221223Y10390D01*
X221158Y10435D01*
X221086Y10470D01*
X221011Y10493D01*
X220932Y10504D01*
X220853Y10502D01*
X220775Y10488D01*
X220700Y10462D01*
X220630Y10425D01*
X220566Y10377D01*
X220511Y10320D01*
X220466Y10255D01*
X220431Y10183D01*
X220408Y10107D01*
X220398Y10029D01*
X220399Y9949D01*
X220413Y9871D01*
X220439Y9796D01*
X220478Y9727D01*
X220663Y9416D01*
X220817Y9088D01*
X220941Y8748D01*
X221035Y8398D01*
X221098Y8042D01*
X221130Y7681D01*
Y7319D01*
X221098Y6958D01*
X221035Y6602D01*
X220941Y6252D01*
X220817Y5912D01*
X220663Y5584D01*
X220481Y5271D01*
X220443Y5202D01*
X220417Y5128D01*
X220403Y5050D01*
X220402Y4972D01*
X220412Y4894D01*
X220435Y4818D01*
X220470Y4747D01*
X220515Y4683D01*
X220569Y4626D01*
X220632Y4579D01*
X220701Y4542D01*
X220776Y4516D01*
X220853Y4502D01*
X220932Y4500D01*
X221010Y4511D01*
X221085Y4534D01*
X221156Y4568D01*
X221220Y4613D01*
X221266Y4657D01*
Y2965D01*
X219413D01*
X219771Y3173D01*
X219835Y3220D01*
X219890Y3277D01*
X219935Y3342D01*
X219970Y3414D01*
X219993Y3489D01*
X220004Y3568D01*
X220002Y3647D01*
X219988Y3725D01*
X219962Y3800D01*
X219925Y3870D01*
X219877Y3934D01*
X219820Y3989D01*
X219755Y4034D01*
X219683Y4069D01*
X219607Y4092D01*
X219529Y4102D01*
X219449Y4101D01*
X219371Y4087D01*
X219296Y4061D01*
X219227Y4022D01*
X218916Y3837D01*
X218588Y3683D01*
X218248Y3559D01*
X217898Y3465D01*
X217542Y3402D01*
X217181Y3370D01*
X216998D01*
Y11630D01*
X217181D01*
X217542Y11598D01*
X217898Y11535D01*
X218248Y11441D01*
X218588Y11317D01*
X218916Y11163D01*
X219229Y10981D01*
X219298Y10943D01*
X219372Y10917D01*
X219450Y10903D01*
X219528Y10902D01*
X219606Y10912D01*
X219682Y10935D01*
X219753Y10970D01*
X219817Y11015D01*
X219874Y11069D01*
X219921Y11132D01*
X219958Y11201D01*
X219984Y11276D01*
X219998Y11353D01*
X220000Y11432D01*
X219989Y11510D01*
X219966Y11585D01*
X219932Y11656D01*
X219887Y11720D01*
X219832Y11777D01*
X219769Y11823D01*
X219382Y12053D01*
X218974Y12244D01*
X218551Y12399D01*
X218117Y12516D01*
X217674Y12594D01*
X217225Y12634D01*
X216998D01*
Y64374D01*
X217225D01*
X217674Y64413D01*
X218117Y64492D01*
X218551Y64609D01*
X218974Y64763D01*
X219382Y64954D01*
X219771Y65180D01*
X219835Y65228D01*
X219890Y65285D01*
X219935Y65350D01*
X219970Y65421D01*
X219993Y65497D01*
X220004Y65576D01*
X220002Y65655D01*
X219988Y65733D01*
X219962Y65808D01*
X219925Y65878D01*
X219877Y65941D01*
X219820Y65996D01*
X219755Y66042D01*
X219683Y66076D01*
X219607Y66099D01*
X219529Y66110D01*
X219449Y66109D01*
X219371Y66095D01*
X219296Y66069D01*
X219227Y66030D01*
X218916Y65845D01*
X218588Y65691D01*
X218248Y65567D01*
X217898Y65473D01*
X217542Y65410D01*
X217181Y65378D01*
X216998D01*
Y73638D01*
G37*
G36*
X212046Y74465D02*X215663D01*
X215448Y74407D01*
X215026Y74252D01*
X214618Y74061D01*
X214229Y73835D01*
X214165Y73788D01*
X214110Y73731D01*
X214065Y73666D01*
X214030Y73594D01*
X214007Y73518D01*
X213996Y73440D01*
X213998Y73360D01*
X214012Y73282D01*
X214038Y73207D01*
X214075Y73138D01*
X214123Y73074D01*
X214180Y73019D01*
X214245Y72974D01*
X214317Y72939D01*
X214393Y72916D01*
X214471Y72905D01*
X214551Y72907D01*
X214629Y72921D01*
X214704Y72947D01*
X214773Y72986D01*
X215084Y73171D01*
X215412Y73324D01*
X215752Y73449D01*
X216102Y73543D01*
X216458Y73606D01*
X216819Y73638D01*
X216998D01*
Y65378D01*
X216819D01*
X216458Y65410D01*
X216102Y65473D01*
X215752Y65567D01*
X215412Y65691D01*
X215084Y65845D01*
X214771Y66027D01*
X214702Y66065D01*
X214628Y66091D01*
X214550Y66105D01*
X214472Y66106D01*
X214394Y66096D01*
X214318Y66073D01*
X214247Y66038D01*
X214183Y65993D01*
X214126Y65939D01*
X214079Y65876D01*
X214042Y65807D01*
X214016Y65732D01*
X214002Y65655D01*
X214000Y65576D01*
X214011Y65498D01*
X214034Y65423D01*
X214068Y65352D01*
X214113Y65288D01*
X214168Y65231D01*
X214231Y65185D01*
X214618Y64954D01*
X215026Y64763D01*
X215448Y64609D01*
X215883Y64492D01*
X216326Y64413D01*
X216775Y64374D01*
X216998D01*
Y12634D01*
X216775D01*
X216326Y12594D01*
X215883Y12516D01*
X215448Y12399D01*
X215026Y12244D01*
X214618Y12053D01*
X214229Y11827D01*
X214165Y11780D01*
X214110Y11723D01*
X214065Y11658D01*
X214030Y11586D01*
X214007Y11511D01*
X213996Y11432D01*
X213998Y11353D01*
X214012Y11275D01*
X214038Y11200D01*
X214075Y11130D01*
X214123Y11066D01*
X214180Y11011D01*
X214245Y10966D01*
X214317Y10931D01*
X214393Y10908D01*
X214471Y10898D01*
X214551Y10899D01*
X214629Y10913D01*
X214704Y10939D01*
X214773Y10978D01*
X215084Y11163D01*
X215412Y11317D01*
X215752Y11441D01*
X216102Y11535D01*
X216458Y11598D01*
X216819Y11630D01*
X216998D01*
Y3370D01*
X216819D01*
X216458Y3402D01*
X216102Y3465D01*
X215752Y3559D01*
X215412Y3683D01*
X215084Y3837D01*
X214771Y4019D01*
X214702Y4057D01*
X214628Y4083D01*
X214550Y4097D01*
X214472Y4098D01*
X214394Y4088D01*
X214318Y4065D01*
X214247Y4030D01*
X214183Y3985D01*
X214126Y3931D01*
X214079Y3868D01*
X214042Y3799D01*
X214016Y3724D01*
X214002Y3647D01*
X214000Y3568D01*
X214011Y3490D01*
X214034Y3415D01*
X214068Y3344D01*
X214113Y3280D01*
X214168Y3223D01*
X214231Y3177D01*
X214588Y2965D01*
X212046D01*
Y6154D01*
X212101Y5949D01*
X212256Y5526D01*
X212447Y5118D01*
X212673Y4729D01*
X212720Y4665D01*
X212777Y4610D01*
X212842Y4565D01*
X212914Y4530D01*
X212989Y4507D01*
X213068Y4496D01*
X213147Y4498D01*
X213225Y4512D01*
X213300Y4538D01*
X213370Y4575D01*
X213434Y4623D01*
X213489Y4680D01*
X213534Y4745D01*
X213569Y4817D01*
X213592Y4893D01*
X213602Y4971D01*
X213601Y5051D01*
X213587Y5129D01*
X213561Y5204D01*
X213522Y5273D01*
X213337Y5584D01*
X213183Y5912D01*
X213059Y6252D01*
X212965Y6602D01*
X212902Y6958D01*
X212870Y7319D01*
Y7681D01*
X212902Y8042D01*
X212965Y8398D01*
X213059Y8748D01*
X213183Y9088D01*
X213337Y9416D01*
X213519Y9729D01*
X213557Y9798D01*
X213583Y9872D01*
X213597Y9950D01*
X213598Y10028D01*
X213588Y10106D01*
X213565Y10182D01*
X213530Y10253D01*
X213485Y10317D01*
X213431Y10374D01*
X213368Y10421D01*
X213299Y10458D01*
X213224Y10484D01*
X213147Y10498D01*
X213068Y10500D01*
X212990Y10489D01*
X212915Y10466D01*
X212844Y10432D01*
X212780Y10387D01*
X212723Y10332D01*
X212677Y10269D01*
X212447Y9882D01*
X212256Y9474D01*
X212101Y9052D01*
X212046Y8846D01*
Y11423D01*
X212052Y11432D01*
X212423Y12069D01*
X212736Y12735D01*
X212989Y13427D01*
X213181Y14138D01*
X213309Y14863D01*
X213374Y15596D01*
Y16333D01*
X213309Y17066D01*
X213181Y17791D01*
X212989Y18503D01*
X212736Y19194D01*
X212423Y19861D01*
X212052Y20497D01*
X212046Y20507D01*
Y56423D01*
X212052Y56432D01*
X212423Y57069D01*
X212736Y57735D01*
X212989Y58427D01*
X213181Y59138D01*
X213309Y59863D01*
X213374Y60596D01*
Y61333D01*
X213309Y62066D01*
X213181Y62791D01*
X212989Y63503D01*
X212736Y64194D01*
X212423Y64861D01*
X212052Y65497D01*
X212046Y65507D01*
Y68162D01*
X212101Y67956D01*
X212256Y67534D01*
X212447Y67126D01*
X212673Y66737D01*
X212720Y66673D01*
X212777Y66618D01*
X212842Y66573D01*
X212914Y66538D01*
X212989Y66515D01*
X213068Y66504D01*
X213147Y66506D01*
X213225Y66520D01*
X213300Y66546D01*
X213370Y66583D01*
X213434Y66631D01*
X213489Y66688D01*
X213534Y66753D01*
X213569Y66825D01*
X213592Y66901D01*
X213602Y66979D01*
X213601Y67059D01*
X213587Y67137D01*
X213561Y67212D01*
X213522Y67281D01*
X213337Y67592D01*
X213183Y67920D01*
X213059Y68260D01*
X212965Y68609D01*
X212902Y68966D01*
X212870Y69327D01*
Y69689D01*
X212902Y70050D01*
X212965Y70406D01*
X213059Y70756D01*
X213183Y71096D01*
X213337Y71424D01*
X213519Y71737D01*
X213557Y71806D01*
X213583Y71880D01*
X213597Y71958D01*
X213598Y72036D01*
X213588Y72114D01*
X213565Y72190D01*
X213530Y72260D01*
X213485Y72325D01*
X213431Y72382D01*
X213368Y72429D01*
X213299Y72466D01*
X213224Y72492D01*
X213147Y72506D01*
X213068Y72508D01*
X212990Y72497D01*
X212915Y72474D01*
X212844Y72440D01*
X212780Y72395D01*
X212723Y72340D01*
X212677Y72277D01*
X212447Y71890D01*
X212256Y71482D01*
X212101Y71059D01*
X212046Y70854D01*
Y74465D01*
G37*
G36*
X204996D02*X212046D01*
Y70854D01*
X211984Y70625D01*
X211906Y70181D01*
X211866Y69733D01*
Y69283D01*
X211906Y68834D01*
X211984Y68391D01*
X212046Y68162D01*
Y65507D01*
X211628Y66099D01*
X211575Y66158D01*
X211512Y66208D01*
X211443Y66248D01*
X211368Y66276D01*
X211290Y66292D01*
X211211Y66296D01*
X211131Y66288D01*
X211054Y66267D01*
X210981Y66234D01*
X210915Y66190D01*
X210855Y66137D01*
X210806Y66074D01*
X210766Y66005D01*
X210738Y65930D01*
X210721Y65852D01*
X210717Y65773D01*
X210726Y65693D01*
X210747Y65616D01*
X210780Y65543D01*
X210825Y65478D01*
X211204Y64953D01*
X211530Y64392D01*
X211805Y63806D01*
X212028Y63198D01*
X212046Y63133D01*
Y58797D01*
X212028Y58732D01*
X211805Y58123D01*
X211530Y57537D01*
X211204Y56977D01*
X210830Y56447D01*
X210786Y56382D01*
X210754Y56311D01*
X210733Y56235D01*
X210725Y56156D01*
X210728Y56078D01*
X210744Y56001D01*
X210772Y55927D01*
X210811Y55859D01*
X210861Y55797D01*
X210919Y55745D01*
X210985Y55701D01*
X211057Y55669D01*
X211132Y55648D01*
X211211Y55640D01*
X211289Y55644D01*
X211366Y55660D01*
X211440Y55688D01*
X211508Y55727D01*
X211570Y55776D01*
X211621Y55835D01*
X212046Y56423D01*
Y20507D01*
X211628Y21099D01*
X211575Y21158D01*
X211512Y21208D01*
X211443Y21248D01*
X211368Y21276D01*
X211290Y21292D01*
X211211Y21296D01*
X211131Y21288D01*
X211054Y21267D01*
X210981Y21234D01*
X210915Y21190D01*
X210855Y21137D01*
X210806Y21074D01*
X210766Y21005D01*
X210738Y20930D01*
X210721Y20852D01*
X210717Y20773D01*
X210726Y20693D01*
X210747Y20616D01*
X210780Y20543D01*
X210825Y20478D01*
X211204Y19953D01*
X211530Y19392D01*
X211805Y18806D01*
X212028Y18198D01*
X212046Y18133D01*
Y13797D01*
X212028Y13732D01*
X211805Y13123D01*
X211530Y12537D01*
X211204Y11977D01*
X210830Y11447D01*
X210786Y11382D01*
X210754Y11311D01*
X210733Y11235D01*
X210725Y11156D01*
X210728Y11078D01*
X210744Y11001D01*
X210772Y10927D01*
X210811Y10859D01*
X210861Y10797D01*
X210919Y10745D01*
X210985Y10701D01*
X211057Y10669D01*
X211132Y10648D01*
X211211Y10640D01*
X211289Y10644D01*
X211366Y10660D01*
X211440Y10688D01*
X211508Y10727D01*
X211570Y10776D01*
X211621Y10835D01*
X212046Y11423D01*
Y8846D01*
X211984Y8617D01*
X211906Y8174D01*
X211866Y7725D01*
Y7275D01*
X211906Y6826D01*
X211984Y6383D01*
X212046Y6154D01*
Y2965D01*
X204996D01*
Y7583D01*
X205360D01*
X206094Y7647D01*
X206819Y7776D01*
X207530Y7968D01*
X208222Y8221D01*
X208888Y8534D01*
X209525Y8904D01*
X210126Y9329D01*
X210186Y9382D01*
X210236Y9444D01*
X210275Y9514D01*
X210304Y9588D01*
X210320Y9666D01*
X210324Y9746D01*
X210315Y9826D01*
X210294Y9903D01*
X210262Y9975D01*
X210218Y10042D01*
X210164Y10101D01*
X210102Y10151D01*
X210033Y10191D01*
X209958Y10219D01*
X209880Y10235D01*
X209800Y10239D01*
X209721Y10231D01*
X209644Y10210D01*
X209571Y10177D01*
X209505Y10132D01*
X208980Y9753D01*
X208420Y9427D01*
X207834Y9151D01*
X207225Y8929D01*
X206600Y8760D01*
X205962Y8647D01*
X205316Y8590D01*
X204996D01*
Y23339D01*
X205316D01*
X205962Y23283D01*
X206600Y23169D01*
X207225Y23001D01*
X207834Y22778D01*
X208420Y22502D01*
X208980Y22177D01*
X209509Y21803D01*
X209574Y21759D01*
X209646Y21726D01*
X209722Y21706D01*
X209800Y21697D01*
X209879Y21701D01*
X209956Y21717D01*
X210030Y21745D01*
X210098Y21784D01*
X210159Y21833D01*
X210212Y21891D01*
X210255Y21957D01*
X210288Y22029D01*
X210308Y22105D01*
X210317Y22183D01*
X210313Y22262D01*
X210297Y22339D01*
X210269Y22412D01*
X210230Y22481D01*
X210181Y22542D01*
X210121Y22594D01*
X209525Y23025D01*
X208888Y23395D01*
X208222Y23708D01*
X207530Y23961D01*
X206819Y24153D01*
X206094Y24282D01*
X205360Y24346D01*
X204996D01*
Y52583D01*
X205360D01*
X206094Y52647D01*
X206819Y52776D01*
X207530Y52968D01*
X208222Y53221D01*
X208888Y53534D01*
X209525Y53904D01*
X210126Y54329D01*
X210186Y54382D01*
X210236Y54444D01*
X210275Y54514D01*
X210304Y54588D01*
X210320Y54666D01*
X210324Y54746D01*
X210315Y54826D01*
X210294Y54903D01*
X210262Y54975D01*
X210218Y55042D01*
X210164Y55101D01*
X210102Y55151D01*
X210033Y55191D01*
X209958Y55219D01*
X209880Y55235D01*
X209800Y55239D01*
X209721Y55231D01*
X209644Y55210D01*
X209571Y55177D01*
X209505Y55132D01*
X208980Y54753D01*
X208420Y54427D01*
X207834Y54151D01*
X207225Y53929D01*
X206600Y53760D01*
X205962Y53647D01*
X205316Y53590D01*
X204996D01*
Y68339D01*
X205316D01*
X205962Y68283D01*
X206600Y68169D01*
X207225Y68001D01*
X207834Y67778D01*
X208420Y67502D01*
X208980Y67177D01*
X209509Y66803D01*
X209574Y66759D01*
X209646Y66726D01*
X209722Y66706D01*
X209800Y66697D01*
X209879Y66701D01*
X209956Y66717D01*
X210030Y66745D01*
X210098Y66784D01*
X210159Y66833D01*
X210212Y66891D01*
X210255Y66957D01*
X210288Y67029D01*
X210308Y67105D01*
X210317Y67183D01*
X210313Y67262D01*
X210297Y67339D01*
X210269Y67412D01*
X210230Y67481D01*
X210181Y67542D01*
X210121Y67594D01*
X209525Y68025D01*
X208888Y68395D01*
X208222Y68708D01*
X207530Y68961D01*
X206819Y69153D01*
X206094Y69282D01*
X205360Y69346D01*
X204996D01*
Y74465D01*
G37*
G36*
X197939D02*X204996D01*
Y69346D01*
X204624D01*
X203890Y69282D01*
X203165Y69153D01*
X202454Y68961D01*
X201763Y68708D01*
X201096Y68395D01*
X200460Y68025D01*
X199858Y67600D01*
X199798Y67547D01*
X199748Y67485D01*
X199709Y67415D01*
X199680Y67341D01*
X199664Y67263D01*
X199660Y67183D01*
X199669Y67104D01*
X199690Y67027D01*
X199723Y66954D01*
X199766Y66887D01*
X199820Y66828D01*
X199882Y66778D01*
X199952Y66738D01*
X200026Y66710D01*
X200104Y66694D01*
X200184Y66690D01*
X200264Y66699D01*
X200341Y66720D01*
X200413Y66752D01*
X200479Y66797D01*
X201004Y67177D01*
X201564Y67502D01*
X202151Y67778D01*
X202759Y68001D01*
X203385Y68169D01*
X204023Y68283D01*
X204668Y68339D01*
X204996D01*
Y53590D01*
X204668D01*
X204023Y53647D01*
X203385Y53760D01*
X202759Y53929D01*
X202151Y54151D01*
X201564Y54427D01*
X201004Y54753D01*
X200475Y55126D01*
X200410Y55171D01*
X200338Y55203D01*
X200262Y55224D01*
X200184Y55232D01*
X200105Y55228D01*
X200028Y55212D01*
X199955Y55184D01*
X199886Y55145D01*
X199825Y55096D01*
X199772Y55038D01*
X199729Y54972D01*
X199697Y54900D01*
X199676Y54824D01*
X199667Y54746D01*
X199671Y54667D01*
X199687Y54590D01*
X199715Y54517D01*
X199754Y54448D01*
X199804Y54387D01*
X199863Y54335D01*
X200460Y53904D01*
X201096Y53534D01*
X201763Y53221D01*
X202454Y52968D01*
X203165Y52776D01*
X203890Y52647D01*
X204624Y52583D01*
X204996D01*
Y24346D01*
X204624D01*
X203890Y24282D01*
X203165Y24153D01*
X202454Y23961D01*
X201763Y23708D01*
X201096Y23395D01*
X200460Y23025D01*
X199858Y22600D01*
X199798Y22547D01*
X199748Y22485D01*
X199709Y22415D01*
X199680Y22341D01*
X199664Y22263D01*
X199660Y22183D01*
X199669Y22104D01*
X199690Y22027D01*
X199723Y21954D01*
X199766Y21887D01*
X199820Y21828D01*
X199882Y21778D01*
X199952Y21738D01*
X200026Y21710D01*
X200104Y21694D01*
X200184Y21690D01*
X200264Y21699D01*
X200341Y21720D01*
X200413Y21752D01*
X200479Y21797D01*
X201004Y22177D01*
X201564Y22502D01*
X202151Y22778D01*
X202759Y23001D01*
X203385Y23169D01*
X204023Y23283D01*
X204668Y23339D01*
X204996D01*
Y8590D01*
X204668D01*
X204023Y8647D01*
X203385Y8760D01*
X202759Y8929D01*
X202151Y9151D01*
X201564Y9427D01*
X201004Y9753D01*
X200475Y10126D01*
X200410Y10171D01*
X200338Y10203D01*
X200262Y10224D01*
X200184Y10232D01*
X200105Y10228D01*
X200028Y10212D01*
X199955Y10184D01*
X199886Y10145D01*
X199825Y10096D01*
X199772Y10038D01*
X199729Y9972D01*
X199697Y9900D01*
X199676Y9824D01*
X199667Y9746D01*
X199671Y9667D01*
X199687Y9590D01*
X199715Y9517D01*
X199754Y9448D01*
X199804Y9387D01*
X199863Y9335D01*
X200460Y8904D01*
X201096Y8534D01*
X201763Y8221D01*
X202454Y7968D01*
X203165Y7776D01*
X203890Y7647D01*
X204624Y7583D01*
X204996D01*
Y2965D01*
X197939D01*
Y11423D01*
X198357Y10830D01*
X198410Y10771D01*
X198472Y10721D01*
X198541Y10681D01*
X198616Y10653D01*
X198694Y10637D01*
X198774Y10633D01*
X198853Y10641D01*
X198930Y10662D01*
X199003Y10695D01*
X199070Y10739D01*
X199129Y10793D01*
X199179Y10855D01*
X199218Y10924D01*
X199247Y10999D01*
X199263Y11077D01*
X199267Y11157D01*
X199258Y11236D01*
X199237Y11313D01*
X199204Y11386D01*
X199159Y11452D01*
X198780Y11977D01*
X198454Y12537D01*
X198179Y13123D01*
X197956Y13732D01*
X197939Y13797D01*
Y18133D01*
X197956Y18198D01*
X198179Y18806D01*
X198454Y19392D01*
X198780Y19953D01*
X199154Y20482D01*
X199198Y20547D01*
X199230Y20619D01*
X199251Y20695D01*
X199260Y20773D01*
X199256Y20851D01*
X199240Y20928D01*
X199212Y21002D01*
X199173Y21070D01*
X199124Y21132D01*
X199065Y21185D01*
X198999Y21228D01*
X198928Y21260D01*
X198852Y21281D01*
X198774Y21289D01*
X198695Y21285D01*
X198618Y21269D01*
X198544Y21241D01*
X198476Y21202D01*
X198415Y21153D01*
X198363Y21094D01*
X197939Y20506D01*
Y56423D01*
X198357Y55830D01*
X198410Y55771D01*
X198472Y55721D01*
X198541Y55681D01*
X198616Y55653D01*
X198694Y55637D01*
X198774Y55633D01*
X198853Y55641D01*
X198930Y55662D01*
X199003Y55695D01*
X199070Y55739D01*
X199129Y55793D01*
X199179Y55855D01*
X199218Y55924D01*
X199247Y55999D01*
X199263Y56077D01*
X199267Y56157D01*
X199258Y56236D01*
X199237Y56313D01*
X199204Y56386D01*
X199159Y56452D01*
X198780Y56977D01*
X198454Y57537D01*
X198179Y58123D01*
X197956Y58732D01*
X197939Y58797D01*
Y63133D01*
X197956Y63198D01*
X198179Y63806D01*
X198454Y64392D01*
X198780Y64953D01*
X199154Y65482D01*
X199198Y65547D01*
X199230Y65619D01*
X199251Y65695D01*
X199260Y65773D01*
X199256Y65851D01*
X199240Y65928D01*
X199212Y66002D01*
X199173Y66070D01*
X199124Y66132D01*
X199065Y66185D01*
X198999Y66228D01*
X198928Y66260D01*
X198852Y66281D01*
X198774Y66289D01*
X198695Y66285D01*
X198618Y66269D01*
X198544Y66241D01*
X198476Y66202D01*
X198415Y66153D01*
X198363Y66094D01*
X197939Y65506D01*
Y74465D01*
G37*
G36*
Y58797D02*X197787Y59357D01*
X197674Y59995D01*
X197617Y60641D01*
Y61289D01*
X197674Y61934D01*
X197787Y62572D01*
X197939Y63133D01*
Y58797D01*
G37*
G36*
Y13797D02*X197787Y14357D01*
X197674Y14995D01*
X197617Y15641D01*
Y16289D01*
X197674Y16934D01*
X197787Y17572D01*
X197939Y18133D01*
Y13797D01*
G37*
G36*
X179986Y52198D02*X179992Y52197D01*
X180581Y52243D01*
X181156Y52381D01*
X181703Y52608D01*
X182207Y52917D01*
X182656Y53301D01*
X183040Y53750D01*
X183349Y54254D01*
X183575Y54800D01*
X183713Y55375D01*
X183748Y55965D01*
X183713Y56554D01*
X183575Y57129D01*
X183349Y57675D01*
X183040Y58179D01*
X182656Y58629D01*
X182207Y59013D01*
X181703Y59321D01*
X181156Y59548D01*
X180581Y59686D01*
X179992Y59732D01*
X179986Y59732D01*
Y74465D01*
X197939D01*
Y65506D01*
X197932Y65497D01*
X197562Y64861D01*
X197249Y64194D01*
X196995Y63503D01*
X196803Y62791D01*
X196675Y62066D01*
X196610Y61333D01*
Y60596D01*
X196675Y59863D01*
X196803Y59138D01*
X196995Y58427D01*
X197249Y57735D01*
X197562Y57069D01*
X197932Y56432D01*
X197939Y56423D01*
Y20506D01*
X197932Y20497D01*
X197562Y19861D01*
X197249Y19194D01*
X196995Y18503D01*
X196803Y17791D01*
X196675Y17066D01*
X196610Y16333D01*
Y15596D01*
X196675Y14863D01*
X196803Y14138D01*
X196995Y13427D01*
X197249Y12735D01*
X197562Y12069D01*
X197932Y11432D01*
X197939Y11423D01*
Y2965D01*
X179986D01*
Y22198D01*
X179992Y22197D01*
X180581Y22243D01*
X181156Y22381D01*
X181703Y22608D01*
X182207Y22917D01*
X182656Y23301D01*
X183040Y23750D01*
X183349Y24254D01*
X183575Y24800D01*
X183713Y25375D01*
X183748Y25965D01*
X183713Y26554D01*
X183575Y27129D01*
X183349Y27675D01*
X183040Y28179D01*
X182656Y28629D01*
X182207Y29013D01*
X181703Y29321D01*
X181156Y29548D01*
X180581Y29686D01*
X179992Y29732D01*
X179986Y29732D01*
Y32198D01*
X179992Y32197D01*
X180581Y32243D01*
X181156Y32381D01*
X181703Y32608D01*
X182207Y32917D01*
X182656Y33301D01*
X183040Y33750D01*
X183349Y34254D01*
X183575Y34800D01*
X183713Y35375D01*
X183748Y35965D01*
X183713Y36554D01*
X183575Y37129D01*
X183349Y37675D01*
X183040Y38179D01*
X182656Y38629D01*
X182207Y39013D01*
X181703Y39321D01*
X181156Y39548D01*
X180581Y39686D01*
X179992Y39732D01*
X179986Y39732D01*
Y42198D01*
X179992Y42197D01*
X180581Y42243D01*
X181156Y42381D01*
X181703Y42608D01*
X182207Y42917D01*
X182656Y43301D01*
X183040Y43750D01*
X183349Y44254D01*
X183575Y44800D01*
X183713Y45375D01*
X183748Y45965D01*
X183713Y46554D01*
X183575Y47129D01*
X183349Y47675D01*
X183040Y48179D01*
X182656Y48629D01*
X182207Y49013D01*
X181703Y49321D01*
X181156Y49548D01*
X180581Y49686D01*
X179992Y49732D01*
X179986Y49732D01*
Y52198D01*
G37*
G36*
Y39732D02*X179403Y39686D01*
X178828Y39548D01*
X178282Y39321D01*
X177778Y39013D01*
X177328Y38629D01*
X176944Y38179D01*
X176635Y37675D01*
X176548Y37465D01*
X175051D01*
X174992Y37469D01*
X174986Y37469D01*
Y43964D01*
X176813D01*
X176944Y43750D01*
X177328Y43301D01*
X177778Y42917D01*
X178282Y42608D01*
X178828Y42381D01*
X179403Y42243D01*
X179986Y42198D01*
Y39732D01*
G37*
G36*
Y2965D02*X174986D01*
Y33837D01*
X175613Y34465D01*
X176548D01*
X176635Y34254D01*
X176944Y33750D01*
X177328Y33301D01*
X177778Y32917D01*
X178282Y32608D01*
X178828Y32381D01*
X179403Y32243D01*
X179986Y32198D01*
Y29732D01*
X179403Y29686D01*
X178828Y29548D01*
X178282Y29321D01*
X177778Y29013D01*
X177328Y28629D01*
X176944Y28179D01*
X176635Y27675D01*
X176409Y27129D01*
X176271Y26554D01*
X176225Y25965D01*
X176271Y25375D01*
X176409Y24800D01*
X176635Y24254D01*
X176944Y23750D01*
X177328Y23301D01*
X177778Y22917D01*
X178282Y22608D01*
X178828Y22381D01*
X179403Y22243D01*
X179986Y22198D01*
Y2965D01*
G37*
G36*
Y59732D02*X179403Y59686D01*
X178828Y59548D01*
X178617Y59460D01*
X174986Y63092D01*
Y74465D01*
X179986D01*
Y59732D01*
G37*
G36*
X174986Y58849D02*X176496Y57339D01*
X176409Y57129D01*
X176271Y56554D01*
X176225Y55965D01*
X176271Y55375D01*
X176409Y54800D01*
X176635Y54254D01*
X176944Y53750D01*
X177328Y53301D01*
X177778Y52917D01*
X178282Y52608D01*
X178828Y52381D01*
X179403Y52243D01*
X179986Y52198D01*
Y49732D01*
X179403Y49686D01*
X178828Y49548D01*
X178282Y49321D01*
X177778Y49013D01*
X177328Y48629D01*
X176944Y48179D01*
X176635Y47675D01*
X176409Y47129D01*
X176370Y46964D01*
X174986D01*
Y58849D01*
G37*
G36*
X169986Y37198D02*X169992Y37197D01*
X170581Y37243D01*
X171156Y37381D01*
X171703Y37608D01*
X172207Y37917D01*
X172656Y38301D01*
X173040Y38750D01*
X173349Y39254D01*
X173575Y39800D01*
X173713Y40375D01*
X173748Y40965D01*
X173713Y41554D01*
X173575Y42129D01*
X173349Y42675D01*
X173040Y43179D01*
X172656Y43629D01*
X172263Y43964D01*
X174986D01*
Y37469D01*
X174757Y37451D01*
X174527Y37396D01*
X174309Y37305D01*
X174108Y37182D01*
X174108Y37182D01*
X173928Y37028D01*
X173890Y36984D01*
X171367Y34461D01*
X171156Y34548D01*
X170581Y34686D01*
X169992Y34732D01*
X169986Y34732D01*
Y37198D01*
G37*
G36*
X174986Y2965D02*X169986D01*
Y17198D01*
X169992Y17197D01*
X170581Y17243D01*
X171156Y17381D01*
X171703Y17608D01*
X172207Y17917D01*
X172656Y18301D01*
X173040Y18750D01*
X173349Y19254D01*
X173575Y19800D01*
X173713Y20375D01*
X173748Y20965D01*
X173713Y21554D01*
X173575Y22129D01*
X173349Y22675D01*
X173040Y23179D01*
X172656Y23629D01*
X172207Y24013D01*
X171703Y24321D01*
X171156Y24548D01*
X170581Y24686D01*
X169992Y24732D01*
X169986Y24732D01*
Y27198D01*
X169992Y27197D01*
X170581Y27243D01*
X171156Y27381D01*
X171703Y27608D01*
X172207Y27917D01*
X172656Y28301D01*
X173040Y28750D01*
X173349Y29254D01*
X173575Y29800D01*
X173713Y30375D01*
X173748Y30965D01*
X173713Y31554D01*
X173575Y32129D01*
X173488Y32339D01*
X174986Y33837D01*
Y2965D01*
G37*
G36*
X169986D02*X157485D01*
Y3951D01*
X157492Y3951D01*
X158198Y4006D01*
X158887Y4172D01*
X159541Y4443D01*
X160145Y4813D01*
X160684Y5273D01*
X161144Y5811D01*
X161514Y6415D01*
X161785Y7070D01*
X161950Y7758D01*
X161992Y8465D01*
X161950Y9171D01*
X161785Y9859D01*
X161514Y10514D01*
X161144Y11118D01*
X160684Y11656D01*
X160145Y12116D01*
X159541Y12486D01*
X158887Y12758D01*
X158198Y12923D01*
X157492Y12978D01*
X157485Y12978D01*
Y13951D01*
X157492Y13951D01*
X158198Y14006D01*
X158887Y14172D01*
X159541Y14443D01*
X160145Y14813D01*
X160684Y15273D01*
X161144Y15811D01*
X161514Y16415D01*
X161785Y17070D01*
X161950Y17758D01*
X161992Y18465D01*
X161950Y19171D01*
X161785Y19859D01*
X161514Y20514D01*
X161144Y21118D01*
X160684Y21656D01*
X160145Y22116D01*
X159541Y22486D01*
X158992Y22714D01*
Y24215D01*
X159541Y24443D01*
X160145Y24813D01*
X160684Y25273D01*
X161144Y25811D01*
X161514Y26415D01*
X161785Y27070D01*
X161950Y27758D01*
X161992Y28465D01*
X161950Y29171D01*
X161785Y29859D01*
X161514Y30514D01*
X161144Y31118D01*
X160684Y31656D01*
X160145Y32116D01*
X159541Y32486D01*
X158887Y32758D01*
X158198Y32923D01*
X157492Y32978D01*
X157485Y32978D01*
Y33951D01*
X157492Y33951D01*
X158198Y34006D01*
X158887Y34172D01*
X159541Y34443D01*
X160145Y34813D01*
X160684Y35273D01*
X161144Y35811D01*
X161514Y36415D01*
X161785Y37070D01*
X161950Y37758D01*
X161992Y38465D01*
X161950Y39171D01*
X161785Y39859D01*
X161514Y40514D01*
X161144Y41118D01*
X160847Y41465D01*
X166264D01*
X166225Y40965D01*
X166271Y40375D01*
X166409Y39800D01*
X166635Y39254D01*
X166944Y38750D01*
X167328Y38301D01*
X167778Y37917D01*
X168282Y37608D01*
X168828Y37381D01*
X169403Y37243D01*
X169986Y37198D01*
Y34732D01*
X169403Y34686D01*
X168828Y34548D01*
X168282Y34321D01*
X167778Y34013D01*
X167328Y33629D01*
X166944Y33179D01*
X166635Y32675D01*
X166409Y32129D01*
X166271Y31554D01*
X166225Y30965D01*
X166271Y30375D01*
X166409Y29800D01*
X166635Y29254D01*
X166944Y28750D01*
X167328Y28301D01*
X167778Y27917D01*
X168282Y27608D01*
X168828Y27381D01*
X169403Y27243D01*
X169986Y27198D01*
Y24732D01*
X169403Y24686D01*
X168828Y24548D01*
X168282Y24321D01*
X167778Y24013D01*
X167328Y23629D01*
X166944Y23179D01*
X166635Y22675D01*
X166409Y22129D01*
X166271Y21554D01*
X166225Y20965D01*
X166271Y20375D01*
X166409Y19800D01*
X166635Y19254D01*
X166944Y18750D01*
X167328Y18301D01*
X167778Y17917D01*
X168282Y17608D01*
X168828Y17381D01*
X169403Y17243D01*
X169986Y17198D01*
Y2965D01*
G37*
G36*
X157485Y32978D02*X156786Y32923D01*
X156097Y32758D01*
X155443Y32486D01*
X154839Y32116D01*
X154300Y31656D01*
X153840Y31118D01*
X153470Y30514D01*
X153199Y29859D01*
X153034Y29171D01*
X152978Y28465D01*
X153034Y27758D01*
X153199Y27070D01*
X153470Y26415D01*
X153840Y25811D01*
X154300Y25273D01*
X154839Y24813D01*
X155443Y24443D01*
X155992Y24215D01*
Y22714D01*
X155443Y22486D01*
X154839Y22116D01*
X154300Y21656D01*
X153840Y21118D01*
X153470Y20514D01*
X153199Y19859D01*
X153034Y19171D01*
X152978Y18465D01*
X153034Y17758D01*
X153199Y17070D01*
X153427Y16520D01*
X152183Y15277D01*
X130688D01*
X131144Y15811D01*
X131514Y16415D01*
X131785Y17070D01*
X131950Y17758D01*
X131992Y18465D01*
X131950Y19171D01*
X131785Y19859D01*
X131514Y20514D01*
X131144Y21118D01*
X130684Y21656D01*
X130145Y22116D01*
X129541Y22486D01*
X128887Y22758D01*
X128198Y22923D01*
X127492Y22978D01*
X127485Y22978D01*
Y23951D01*
X127492Y23951D01*
X128198Y24006D01*
X128887Y24172D01*
X129541Y24443D01*
X130145Y24813D01*
X130684Y25273D01*
X131144Y25811D01*
X131514Y26415D01*
X131785Y27070D01*
X131950Y27758D01*
X131992Y28465D01*
X131950Y29171D01*
X131785Y29859D01*
X131514Y30514D01*
X131144Y31118D01*
X130684Y31656D01*
X130145Y32116D01*
X129541Y32486D01*
X128887Y32758D01*
X128198Y32923D01*
X127492Y32978D01*
X127485Y32978D01*
Y33971D01*
X130728Y33978D01*
X130957Y34034D01*
X131175Y34124D01*
X131377Y34247D01*
X131556Y34401D01*
X131709Y34580D01*
X131833Y34781D01*
X131923Y35000D01*
X131978Y35229D01*
X131992Y35465D01*
X131979Y41465D01*
X154137D01*
X153840Y41118D01*
X153470Y40514D01*
X153199Y39859D01*
X153034Y39171D01*
X152978Y38465D01*
X153034Y37758D01*
X153199Y37070D01*
X153470Y36415D01*
X153840Y35811D01*
X154300Y35273D01*
X154839Y34813D01*
X155443Y34443D01*
X156097Y34172D01*
X156786Y34006D01*
X157485Y33951D01*
Y32978D01*
G37*
G36*
Y2965D02*X127485D01*
Y3951D01*
X127492Y3951D01*
X128198Y4006D01*
X128887Y4172D01*
X129541Y4443D01*
X130145Y4813D01*
X130684Y5273D01*
X131144Y5811D01*
X131514Y6415D01*
X131785Y7070D01*
X131950Y7758D01*
X131992Y8465D01*
X131950Y9171D01*
X131785Y9859D01*
X131514Y10514D01*
X131144Y11118D01*
X130684Y11656D01*
X130145Y12116D01*
X129883Y12277D01*
X152746D01*
X152805Y12273D01*
X153040Y12291D01*
X153040Y12291D01*
X153270Y12346D01*
X153488Y12437D01*
X153689Y12560D01*
X153869Y12713D01*
X153907Y12758D01*
X155548Y14399D01*
X156097Y14172D01*
X156786Y14006D01*
X157485Y13951D01*
Y12978D01*
X156786Y12923D01*
X156097Y12758D01*
X155443Y12486D01*
X154839Y12116D01*
X154300Y11656D01*
X153840Y11118D01*
X153470Y10514D01*
X153199Y9859D01*
X153034Y9171D01*
X152978Y8465D01*
X153034Y7758D01*
X153199Y7070D01*
X153470Y6415D01*
X153840Y5811D01*
X154300Y5273D01*
X154839Y4813D01*
X155443Y4443D01*
X156097Y4172D01*
X156786Y4006D01*
X157485Y3951D01*
Y2965D01*
G37*
G36*
X127485Y22978D02*X126786Y22923D01*
X126097Y22758D01*
X125548Y22530D01*
X118486Y29592D01*
Y41465D01*
X122992D01*
X122992Y41465D01*
X123006Y35229D01*
X123061Y35000D01*
X123151Y34781D01*
X123275Y34580D01*
X123428Y34401D01*
X123608Y34247D01*
X123809Y34124D01*
X124027Y34034D01*
X124257Y33978D01*
X124492Y33965D01*
X127485Y33971D01*
Y32978D01*
X126786Y32923D01*
X126097Y32758D01*
X125443Y32486D01*
X124839Y32116D01*
X124300Y31656D01*
X123840Y31118D01*
X123470Y30514D01*
X123199Y29859D01*
X123034Y29171D01*
X122978Y28465D01*
X123034Y27758D01*
X123199Y27070D01*
X123470Y26415D01*
X123840Y25811D01*
X124300Y25273D01*
X124839Y24813D01*
X125443Y24443D01*
X126097Y24172D01*
X126786Y24006D01*
X127485Y23951D01*
Y22978D01*
G37*
G36*
Y2965D02*X118486D01*
Y12277D01*
X125101D01*
X124839Y12116D01*
X124300Y11656D01*
X123840Y11118D01*
X123470Y10514D01*
X123199Y9859D01*
X123034Y9171D01*
X122978Y8465D01*
X123034Y7758D01*
X123199Y7070D01*
X123470Y6415D01*
X123840Y5811D01*
X124300Y5273D01*
X124839Y4813D01*
X125443Y4443D01*
X126097Y4172D01*
X126786Y4006D01*
X127485Y3951D01*
Y2965D01*
G37*
G36*
X174986Y63092D02*X161812Y76266D01*
X161774Y76310D01*
X161594Y76464D01*
X161594Y76464D01*
X161393Y76587D01*
X161175Y76677D01*
X160945Y76733D01*
X160710Y76751D01*
X160653Y76747D01*
X160684Y76773D01*
X161144Y77311D01*
X161514Y77915D01*
X161785Y78570D01*
X161950Y79258D01*
X161992Y79965D01*
X161950Y80671D01*
X161785Y81359D01*
X161514Y82014D01*
X161144Y82618D01*
X160684Y83156D01*
X160145Y83616D01*
X159541Y83986D01*
X158887Y84258D01*
X158198Y84423D01*
X157492Y84478D01*
X156786Y84423D01*
X156097Y84258D01*
X155443Y83986D01*
X154839Y83616D01*
X154300Y83156D01*
X153840Y82618D01*
X153470Y82014D01*
X153199Y81359D01*
X153034Y80671D01*
X152978Y79965D01*
X153034Y79258D01*
X153199Y78570D01*
X153470Y77915D01*
X153649Y77624D01*
X145805Y85467D01*
X150728Y85478D01*
X150957Y85534D01*
X151175Y85624D01*
X151377Y85747D01*
X151556Y85901D01*
X151709Y86080D01*
X151833Y86281D01*
X151923Y86500D01*
X151978Y86729D01*
X151992Y86965D01*
X151978Y93200D01*
X151923Y93430D01*
X151833Y93648D01*
X151709Y93849D01*
X151611Y93965D01*
X162992D01*
Y76965D01*
X165492Y74465D01*
X174986D01*
Y63092D01*
G37*
G36*
X127492Y93015D02*X134180D01*
X133840Y92618D01*
X133470Y92014D01*
X133199Y91359D01*
X133034Y90671D01*
X132978Y89965D01*
X133034Y89258D01*
X133199Y88570D01*
X133470Y87915D01*
X133840Y87311D01*
X134300Y86773D01*
X134839Y86313D01*
X135443Y85943D01*
X135992Y85715D01*
Y70586D01*
X129436Y64030D01*
X128887Y64258D01*
X128198Y64423D01*
X127492Y64478D01*
Y65451D01*
X128198Y65506D01*
X128887Y65672D01*
X129541Y65943D01*
X130145Y66313D01*
X130684Y66773D01*
X131144Y67311D01*
X131514Y67915D01*
X131785Y68570D01*
X131950Y69258D01*
X131992Y69965D01*
X131950Y70671D01*
X131785Y71359D01*
X131514Y72014D01*
X131144Y72618D01*
X130684Y73156D01*
X130145Y73616D01*
X129541Y73986D01*
X128887Y74258D01*
X128198Y74423D01*
X127492Y74478D01*
Y75471D01*
X130728Y75478D01*
X130957Y75534D01*
X131175Y75624D01*
X131377Y75747D01*
X131556Y75901D01*
X131709Y76080D01*
X131833Y76281D01*
X131923Y76500D01*
X131978Y76729D01*
X131992Y76965D01*
X131978Y83200D01*
X131923Y83430D01*
X131833Y83648D01*
X131709Y83849D01*
X131556Y84028D01*
X131377Y84182D01*
X131175Y84305D01*
X130957Y84396D01*
X130728Y84451D01*
X130492Y84465D01*
X127492Y84458D01*
Y93015D01*
G37*
G36*
X173065Y60770D02*X174986Y58849D01*
Y46964D01*
X173065D01*
Y49001D01*
X173107Y49018D01*
X173175Y49058D01*
X173235Y49109D01*
X173286Y49168D01*
X173327Y49236D01*
X173480Y49561D01*
X173599Y49900D01*
X173684Y50250D01*
X173735Y50605D01*
X173752Y50965D01*
X173735Y51324D01*
X173684Y51680D01*
X173599Y52029D01*
X173480Y52368D01*
X173330Y52695D01*
X173289Y52763D01*
X173237Y52822D01*
X173176Y52873D01*
X173109Y52914D01*
X173065Y52932D01*
Y60770D01*
G37*
G36*
X169994Y63842D02*X173065Y60770D01*
Y52932D01*
X173035Y52944D01*
X172958Y52962D01*
X172879Y52968D01*
X172800Y52961D01*
X172723Y52942D01*
X172650Y52911D01*
X172583Y52869D01*
X172523Y52817D01*
X172472Y52757D01*
X172431Y52689D01*
X172402Y52616D01*
X172384Y52539D01*
X172378Y52460D01*
X172385Y52381D01*
X172404Y52304D01*
X172436Y52231D01*
X172549Y51993D01*
X172635Y51745D01*
X172698Y51489D01*
X172735Y51228D01*
X172748Y50965D01*
X172735Y50701D01*
X172698Y50441D01*
X172635Y50185D01*
X172549Y49936D01*
X172439Y49696D01*
X172407Y49624D01*
X172388Y49548D01*
X172381Y49470D01*
X172387Y49391D01*
X172405Y49314D01*
X172434Y49242D01*
X172475Y49174D01*
X172526Y49114D01*
X172585Y49062D01*
X172652Y49021D01*
X172724Y48990D01*
X172801Y48971D01*
X172879Y48965D01*
X172958Y48970D01*
X173034Y48988D01*
X173065Y49001D01*
Y46964D01*
X169994D01*
Y47204D01*
X170351Y47222D01*
X170707Y47273D01*
X171056Y47358D01*
X171396Y47476D01*
X171723Y47626D01*
X171790Y47668D01*
X171850Y47720D01*
X171901Y47780D01*
X171942Y47848D01*
X171972Y47921D01*
X171990Y47999D01*
X171995Y48078D01*
X171989Y48156D01*
X171970Y48233D01*
X171939Y48306D01*
X171897Y48374D01*
X171845Y48433D01*
X171784Y48484D01*
X171717Y48525D01*
X171643Y48555D01*
X171566Y48573D01*
X171487Y48579D01*
X171408Y48572D01*
X171331Y48553D01*
X171259Y48521D01*
X171021Y48408D01*
X170772Y48321D01*
X170516Y48259D01*
X170255Y48221D01*
X169994Y48209D01*
Y53720D01*
X170255Y53708D01*
X170516Y53670D01*
X170772Y53608D01*
X171021Y53521D01*
X171260Y53411D01*
X171332Y53379D01*
X171409Y53360D01*
X171487Y53354D01*
X171566Y53359D01*
X171642Y53377D01*
X171715Y53407D01*
X171783Y53447D01*
X171843Y53498D01*
X171894Y53558D01*
X171936Y53624D01*
X171967Y53697D01*
X171985Y53773D01*
X171992Y53852D01*
X171987Y53930D01*
X171969Y54007D01*
X171939Y54080D01*
X171898Y54147D01*
X171848Y54207D01*
X171788Y54259D01*
X171721Y54299D01*
X171396Y54453D01*
X171056Y54571D01*
X170707Y54656D01*
X170351Y54708D01*
X169994Y54725D01*
Y63842D01*
G37*
G36*
X166919Y66916D02*X169994Y63842D01*
Y54725D01*
X169992Y54725D01*
X169633Y54708D01*
X169277Y54656D01*
X168928Y54571D01*
X168588Y54453D01*
X168262Y54303D01*
X168194Y54261D01*
X168134Y54210D01*
X168083Y54149D01*
X168042Y54081D01*
X168013Y54008D01*
X167995Y53931D01*
X167989Y53852D01*
X167996Y53773D01*
X168015Y53696D01*
X168046Y53623D01*
X168087Y53556D01*
X168139Y53496D01*
X168200Y53445D01*
X168268Y53404D01*
X168341Y53374D01*
X168418Y53356D01*
X168497Y53350D01*
X168576Y53357D01*
X168653Y53376D01*
X168725Y53408D01*
X168963Y53521D01*
X169212Y53608D01*
X169468Y53670D01*
X169729Y53708D01*
X169992Y53720D01*
X169994Y53720D01*
Y48209D01*
X169992Y48209D01*
X169729Y48221D01*
X169468Y48259D01*
X169212Y48321D01*
X168963Y48408D01*
X168724Y48518D01*
X168652Y48550D01*
X168576Y48569D01*
X168497Y48576D01*
X168419Y48570D01*
X168342Y48552D01*
X168269Y48522D01*
X168202Y48482D01*
X168141Y48431D01*
X168090Y48372D01*
X168048Y48305D01*
X168018Y48232D01*
X167999Y48156D01*
X167992Y48078D01*
X167998Y47999D01*
X168016Y47922D01*
X168045Y47849D01*
X168086Y47782D01*
X168137Y47722D01*
X168196Y47670D01*
X168264Y47630D01*
X168588Y47476D01*
X168928Y47358D01*
X169277Y47273D01*
X169633Y47222D01*
X169992Y47204D01*
X169994Y47204D01*
Y46964D01*
X166919D01*
Y48997D01*
X166949Y48985D01*
X167026Y48967D01*
X167105Y48961D01*
X167184Y48968D01*
X167261Y48987D01*
X167334Y49018D01*
X167401Y49060D01*
X167461Y49112D01*
X167512Y49172D01*
X167553Y49240D01*
X167583Y49313D01*
X167601Y49391D01*
X167606Y49470D01*
X167599Y49549D01*
X167580Y49625D01*
X167548Y49698D01*
X167435Y49936D01*
X167349Y50185D01*
X167286Y50441D01*
X167249Y50701D01*
X167236Y50965D01*
X167249Y51228D01*
X167286Y51489D01*
X167349Y51745D01*
X167435Y51993D01*
X167545Y52233D01*
X167577Y52305D01*
X167596Y52381D01*
X167603Y52460D01*
X167597Y52538D01*
X167580Y52615D01*
X167550Y52688D01*
X167509Y52755D01*
X167459Y52815D01*
X167399Y52867D01*
X167332Y52908D01*
X167260Y52939D01*
X167183Y52958D01*
X167105Y52965D01*
X167027Y52959D01*
X166950Y52941D01*
X166919Y52929D01*
Y66916D01*
G37*
G36*
X157485Y65451D02*X157492Y65451D01*
X158198Y65506D01*
X158887Y65672D01*
X159541Y65943D01*
X160145Y66313D01*
X160684Y66773D01*
X161144Y67311D01*
X161514Y67915D01*
X161785Y68570D01*
X161950Y69258D01*
X161992Y69965D01*
X161950Y70671D01*
X161785Y71359D01*
X161514Y72014D01*
X161144Y72618D01*
X160714Y73121D01*
X166919Y66916D01*
Y52929D01*
X166877Y52912D01*
X166810Y52871D01*
X166749Y52820D01*
X166698Y52761D01*
X166658Y52693D01*
X166504Y52368D01*
X166386Y52029D01*
X166301Y51680D01*
X166249Y51324D01*
X166232Y50965D01*
X166249Y50605D01*
X166301Y50250D01*
X166386Y49900D01*
X166504Y49561D01*
X166654Y49234D01*
X166695Y49167D01*
X166747Y49107D01*
X166808Y49056D01*
X166876Y49015D01*
X166919Y48997D01*
Y46964D01*
X160847D01*
X161144Y47311D01*
X161514Y47915D01*
X161785Y48570D01*
X161950Y49258D01*
X161992Y49965D01*
X161950Y50671D01*
X161785Y51359D01*
X161514Y52014D01*
X161144Y52618D01*
X160684Y53156D01*
X160145Y53616D01*
X159541Y53986D01*
X158887Y54258D01*
X158198Y54423D01*
X157492Y54478D01*
X157485Y54478D01*
Y55451D01*
X157492Y55451D01*
X158198Y55506D01*
X158887Y55672D01*
X159541Y55943D01*
X160145Y56313D01*
X160684Y56773D01*
X161144Y57311D01*
X161514Y57915D01*
X161785Y58570D01*
X161950Y59258D01*
X161992Y59965D01*
X161950Y60671D01*
X161785Y61359D01*
X161514Y62014D01*
X161144Y62618D01*
X160684Y63156D01*
X160145Y63616D01*
X159541Y63986D01*
X158887Y64258D01*
X158198Y64423D01*
X157492Y64478D01*
X157485Y64478D01*
Y65451D01*
G37*
G36*
X131558Y61909D02*X138511Y68862D01*
X138556Y68901D01*
X138709Y69080D01*
X138709Y69080D01*
X138833Y69281D01*
X138923Y69500D01*
X138978Y69729D01*
X138997Y69965D01*
X138992Y70023D01*
Y85715D01*
X139541Y85943D01*
X140145Y86313D01*
X140684Y86773D01*
X141144Y87311D01*
X141491Y87878D01*
Y86219D01*
X141487Y86160D01*
X141505Y85925D01*
X141560Y85695D01*
X141651Y85477D01*
X141774Y85276D01*
X141927Y85096D01*
X141972Y85058D01*
X152803Y74227D01*
X152841Y74183D01*
X153021Y74029D01*
X153021Y74029D01*
X153222Y73906D01*
X153440Y73815D01*
X153670Y73760D01*
X153905Y73742D01*
X153964Y73746D01*
X155051D01*
X154839Y73616D01*
X154300Y73156D01*
X153840Y72618D01*
X153470Y72014D01*
X153199Y71359D01*
X153034Y70671D01*
X152978Y69965D01*
X153034Y69258D01*
X153199Y68570D01*
X153470Y67915D01*
X153840Y67311D01*
X154300Y66773D01*
X154839Y66313D01*
X155443Y65943D01*
X156097Y65672D01*
X156786Y65506D01*
X157485Y65451D01*
Y64478D01*
X156786Y64423D01*
X156097Y64258D01*
X155443Y63986D01*
X154839Y63616D01*
X154300Y63156D01*
X153840Y62618D01*
X153470Y62014D01*
X153199Y61359D01*
X153034Y60671D01*
X152978Y59965D01*
X153034Y59258D01*
X153199Y58570D01*
X153470Y57915D01*
X153840Y57311D01*
X154300Y56773D01*
X154839Y56313D01*
X155443Y55943D01*
X156097Y55672D01*
X156786Y55506D01*
X157485Y55451D01*
Y54478D01*
X156786Y54423D01*
X156097Y54258D01*
X155443Y53986D01*
X154839Y53616D01*
X154300Y53156D01*
X153840Y52618D01*
X153470Y52014D01*
X153199Y51359D01*
X153034Y50671D01*
X152978Y49965D01*
X153034Y49258D01*
X153199Y48570D01*
X153470Y47915D01*
X153840Y47311D01*
X154137Y46964D01*
X153050D01*
X152992Y46969D01*
X152756Y46950D01*
X152527Y46895D01*
X152309Y46805D01*
X152107Y46681D01*
X152107Y46681D01*
X151928Y46528D01*
X151890Y46483D01*
X151875Y46469D01*
X130328D01*
X130684Y46773D01*
X131144Y47311D01*
X131514Y47915D01*
X131785Y48570D01*
X131950Y49258D01*
X131992Y49965D01*
X131950Y50671D01*
X131785Y51359D01*
X131514Y52014D01*
X131144Y52618D01*
X130684Y53156D01*
X130145Y53616D01*
X129541Y53986D01*
X128887Y54258D01*
X128198Y54423D01*
X127492Y54478D01*
Y55451D01*
X128198Y55506D01*
X128887Y55672D01*
X129541Y55943D01*
X130145Y56313D01*
X130684Y56773D01*
X131144Y57311D01*
X131514Y57915D01*
X131785Y58570D01*
X131950Y59258D01*
X131992Y59965D01*
X131950Y60671D01*
X131785Y61359D01*
X131558Y61909D01*
G37*
G36*
X127492Y54478D02*X126786Y54423D01*
X126097Y54258D01*
X125443Y53986D01*
X124839Y53616D01*
X124300Y53156D01*
X123840Y52618D01*
X123470Y52014D01*
X123199Y51359D01*
X123034Y50671D01*
X122978Y49965D01*
X123034Y49258D01*
X123199Y48570D01*
X123470Y47915D01*
X123840Y47311D01*
X124300Y46773D01*
X124656Y46469D01*
X121023D01*
X121441Y46959D01*
X121791Y47529D01*
X122047Y48147D01*
X122203Y48798D01*
X122242Y49465D01*
X122203Y50131D01*
X122047Y50782D01*
X121791Y51400D01*
X121441Y51970D01*
X121007Y52479D01*
X120498Y52913D01*
X119928Y53263D01*
X119310Y53519D01*
X118659Y53675D01*
X118486Y53689D01*
Y54240D01*
X118659Y54254D01*
X119310Y54410D01*
X119928Y54666D01*
X120498Y55016D01*
X121007Y55450D01*
X121441Y55959D01*
X121791Y56529D01*
X122047Y57147D01*
X122203Y57798D01*
X122242Y58465D01*
X122203Y59131D01*
X122047Y59782D01*
X121791Y60400D01*
X121441Y60970D01*
X121007Y61479D01*
X120498Y61913D01*
X119928Y62263D01*
X119310Y62519D01*
X118659Y62675D01*
X118486Y62689D01*
Y75724D01*
X120478Y75728D01*
X120707Y75784D01*
X120925Y75874D01*
X121127Y75997D01*
X121306Y76151D01*
X121459Y76330D01*
X121583Y76531D01*
X121673Y76750D01*
X121728Y76979D01*
X121742Y77215D01*
X121728Y82950D01*
X121673Y83180D01*
X121583Y83398D01*
X121459Y83599D01*
X121306Y83778D01*
X121127Y83932D01*
X120925Y84055D01*
X120707Y84146D01*
X120478Y84201D01*
X120242Y84215D01*
X118486Y84210D01*
Y85724D01*
X120478Y85728D01*
X120707Y85784D01*
X120925Y85874D01*
X121127Y85997D01*
X121306Y86151D01*
X121459Y86330D01*
X121583Y86531D01*
X121673Y86750D01*
X121728Y86979D01*
X121742Y87215D01*
X121728Y92950D01*
X121713Y93015D01*
X127492D01*
Y84458D01*
X124257Y84451D01*
X124027Y84396D01*
X123809Y84305D01*
X123608Y84182D01*
X123428Y84028D01*
X123275Y83849D01*
X123151Y83648D01*
X123061Y83430D01*
X123006Y83200D01*
X122992Y82965D01*
X123006Y76729D01*
X123061Y76500D01*
X123151Y76281D01*
X123275Y76080D01*
X123428Y75901D01*
X123608Y75747D01*
X123809Y75624D01*
X124027Y75534D01*
X124257Y75478D01*
X124492Y75465D01*
X127492Y75471D01*
Y74478D01*
X126786Y74423D01*
X126097Y74258D01*
X125443Y73986D01*
X124839Y73616D01*
X124300Y73156D01*
X123840Y72618D01*
X123470Y72014D01*
X123199Y71359D01*
X123034Y70671D01*
X122978Y69965D01*
X123034Y69258D01*
X123199Y68570D01*
X123470Y67915D01*
X123840Y67311D01*
X124300Y66773D01*
X124839Y66313D01*
X125443Y65943D01*
X126097Y65672D01*
X126786Y65506D01*
X127492Y65451D01*
Y64478D01*
X126786Y64423D01*
X126097Y64258D01*
X125443Y63986D01*
X124839Y63616D01*
X124300Y63156D01*
X123840Y62618D01*
X123470Y62014D01*
X123199Y61359D01*
X123034Y60671D01*
X122978Y59965D01*
X123034Y59258D01*
X123199Y58570D01*
X123470Y57915D01*
X123840Y57311D01*
X124300Y56773D01*
X124839Y56313D01*
X125443Y55943D01*
X126097Y55672D01*
X126786Y55506D01*
X127492Y55451D01*
Y54478D01*
G37*
G36*
X118486Y29592D02*X112740Y35338D01*
X113144Y35811D01*
X113514Y36415D01*
X113785Y37070D01*
X113950Y37758D01*
X113992Y38465D01*
X113950Y39171D01*
X113785Y39859D01*
X113514Y40514D01*
X113144Y41118D01*
X112847Y41465D01*
X118486D01*
Y29592D01*
G37*
G36*
X82239Y47960D02*X82243Y47960D01*
X82477Y47978D01*
X82478Y47978D01*
X82707Y48034D01*
X82926Y48124D01*
X83127Y48247D01*
X83306Y48401D01*
X83345Y48446D01*
X91864Y56965D01*
X114013D01*
X114194Y56529D01*
X114543Y55959D01*
X114978Y55450D01*
X115486Y55016D01*
X116057Y54666D01*
X116675Y54410D01*
X117325Y54254D01*
X117992Y54201D01*
X118486Y54240D01*
Y53689D01*
X117992Y53728D01*
X117325Y53675D01*
X116675Y53519D01*
X116057Y53263D01*
X115486Y52913D01*
X114978Y52479D01*
X114543Y51970D01*
X114194Y51400D01*
X113938Y50782D01*
X113782Y50131D01*
X113729Y49465D01*
X113782Y48798D01*
X113938Y48147D01*
X114194Y47529D01*
X114543Y46959D01*
X114962Y46469D01*
X82226D01*
X82228Y46479D01*
X82242Y46715D01*
X82239Y47960D01*
G37*
G36*
X79485Y33971D02*X82728Y33978D01*
X82957Y34034D01*
X83175Y34124D01*
X83377Y34247D01*
X83556Y34401D01*
X83709Y34580D01*
X83833Y34781D01*
X83923Y35000D01*
X83978Y35229D01*
X83992Y35465D01*
X83979Y41465D01*
X106137D01*
X105840Y41118D01*
X105470Y40514D01*
X105199Y39859D01*
X105034Y39171D01*
X104978Y38465D01*
X105034Y37758D01*
X105110Y37440D01*
X97026D01*
X96967Y37444D01*
X96732Y37426D01*
X96502Y37371D01*
X96284Y37280D01*
X96083Y37157D01*
X96083Y37157D01*
X95903Y37004D01*
X95865Y36959D01*
X81436Y22530D01*
X80887Y22758D01*
X80198Y22923D01*
X79492Y22978D01*
X79485Y22978D01*
Y23951D01*
X79492Y23951D01*
X80198Y24006D01*
X80887Y24172D01*
X81541Y24443D01*
X82145Y24813D01*
X82684Y25273D01*
X83144Y25811D01*
X83514Y26415D01*
X83785Y27070D01*
X83950Y27758D01*
X83992Y28465D01*
X83950Y29171D01*
X83785Y29859D01*
X83514Y30514D01*
X83144Y31118D01*
X82684Y31656D01*
X82145Y32116D01*
X81541Y32486D01*
X80887Y32758D01*
X80198Y32923D01*
X79492Y32978D01*
X79485Y32978D01*
Y33971D01*
G37*
G36*
Y54225D02*X80978Y54228D01*
X81207Y54284D01*
X81425Y54374D01*
X81627Y54497D01*
X81806Y54651D01*
X81959Y54830D01*
X82083Y55031D01*
X82173Y55250D01*
X82228Y55479D01*
X82242Y55715D01*
X82228Y61450D01*
X82173Y61680D01*
X82083Y61898D01*
X81959Y62099D01*
X81806Y62278D01*
X81627Y62432D01*
X81425Y62555D01*
X81207Y62646D01*
X80978Y62701D01*
X80742Y62715D01*
X79485Y62712D01*
Y65752D01*
X106748Y93015D01*
X113272D01*
X113256Y92950D01*
X113242Y92715D01*
X113256Y86979D01*
X113311Y86750D01*
X113401Y86531D01*
X113525Y86330D01*
X113678Y86151D01*
X113858Y85997D01*
X114059Y85874D01*
X114277Y85784D01*
X114507Y85728D01*
X114742Y85715D01*
X118486Y85724D01*
Y84210D01*
X114507Y84201D01*
X114277Y84146D01*
X114059Y84055D01*
X113858Y83932D01*
X113678Y83778D01*
X113525Y83599D01*
X113401Y83398D01*
X113311Y83180D01*
X113256Y82950D01*
X113242Y82715D01*
X113256Y76979D01*
X113311Y76750D01*
X113401Y76531D01*
X113525Y76330D01*
X113678Y76151D01*
X113858Y75997D01*
X114059Y75874D01*
X114277Y75784D01*
X114507Y75728D01*
X114742Y75715D01*
X118486Y75724D01*
Y62689D01*
X117992Y62728D01*
X117325Y62675D01*
X116675Y62519D01*
X116057Y62263D01*
X115486Y61913D01*
X114978Y61479D01*
X114543Y60970D01*
X114194Y60400D01*
X114013Y59965D01*
X91301D01*
X91243Y59969D01*
X91007Y59951D01*
X90778Y59896D01*
X90559Y59805D01*
X90358Y59682D01*
X90358Y59682D01*
X90179Y59528D01*
X90140Y59484D01*
X82230Y51574D01*
X82228Y52450D01*
X82173Y52680D01*
X82083Y52898D01*
X81959Y53099D01*
X81806Y53278D01*
X81627Y53432D01*
X81425Y53555D01*
X81207Y53646D01*
X80978Y53701D01*
X80742Y53715D01*
X79485Y53712D01*
Y54225D01*
G37*
G36*
Y76201D02*X79998Y76516D01*
X80507Y76950D01*
X80941Y77459D01*
X81291Y78029D01*
X81547Y78647D01*
X81703Y79298D01*
X81742Y79965D01*
X81703Y80631D01*
X81547Y81282D01*
X81291Y81900D01*
X80941Y82470D01*
X80507Y82979D01*
X79998Y83413D01*
X79485Y83728D01*
Y86201D01*
X79998Y86516D01*
X80507Y86950D01*
X80941Y87459D01*
X81291Y88029D01*
X81547Y88647D01*
X81703Y89298D01*
X81742Y89965D01*
X81703Y90631D01*
X81547Y91282D01*
X81291Y91900D01*
X80941Y92470D01*
X80507Y92979D01*
X79998Y93413D01*
X79485Y93728D01*
Y93965D01*
X103455D01*
X79485Y69994D01*
Y76201D01*
G37*
G36*
X118486Y2965D02*X79485D01*
Y3951D01*
X79492Y3951D01*
X80198Y4006D01*
X80887Y4172D01*
X81541Y4443D01*
X82145Y4813D01*
X82684Y5273D01*
X83144Y5811D01*
X83514Y6415D01*
X83785Y7070D01*
X83950Y7758D01*
X83992Y8465D01*
X83950Y9171D01*
X83785Y9859D01*
X83514Y10514D01*
X83144Y11118D01*
X82684Y11656D01*
X82145Y12116D01*
X81883Y12277D01*
X107101D01*
X106839Y12116D01*
X106300Y11656D01*
X105840Y11118D01*
X105470Y10514D01*
X105199Y9859D01*
X105034Y9171D01*
X104978Y8465D01*
X105034Y7758D01*
X105199Y7070D01*
X105470Y6415D01*
X105840Y5811D01*
X106300Y5273D01*
X106839Y4813D01*
X107443Y4443D01*
X108097Y4172D01*
X108786Y4006D01*
X109492Y3951D01*
X110198Y4006D01*
X110887Y4172D01*
X111541Y4443D01*
X112145Y4813D01*
X112684Y5273D01*
X113144Y5811D01*
X113514Y6415D01*
X113785Y7070D01*
X113950Y7758D01*
X113992Y8465D01*
X113950Y9171D01*
X113785Y9859D01*
X113514Y10514D01*
X113144Y11118D01*
X112684Y11656D01*
X112145Y12116D01*
X111883Y12277D01*
X118486D01*
Y2965D01*
G37*
G36*
X79485Y62712D02*X76438Y62704D01*
X79485Y65752D01*
Y62712D01*
G37*
G36*
Y93728D02*X79428Y93763D01*
X78941Y93965D01*
X79485D01*
Y93728D01*
G37*
G36*
Y83728D02*X79428Y83763D01*
X78810Y84019D01*
X78159Y84175D01*
X77492Y84228D01*
X76825Y84175D01*
X76175Y84019D01*
X75557Y83763D01*
X74986Y83413D01*
X74478Y82979D01*
X74043Y82470D01*
X73992Y82387D01*
Y87542D01*
X74043Y87459D01*
X74478Y86950D01*
X74986Y86516D01*
X75557Y86166D01*
X76175Y85910D01*
X76825Y85754D01*
X77492Y85701D01*
X78159Y85754D01*
X78810Y85910D01*
X79428Y86166D01*
X79485Y86201D01*
Y83728D01*
G37*
G36*
X70065Y38791D02*X70349Y39254D01*
X70575Y39800D01*
X70713Y40375D01*
X70748Y40965D01*
X70718Y41465D01*
X74992D01*
X74992Y41465D01*
X75006Y35229D01*
X75061Y35000D01*
X75151Y34781D01*
X75275Y34580D01*
X75428Y34401D01*
X75608Y34247D01*
X75809Y34124D01*
X76027Y34034D01*
X76257Y33978D01*
X76492Y33965D01*
X79485Y33971D01*
Y32978D01*
X78786Y32923D01*
X78097Y32758D01*
X77443Y32486D01*
X76839Y32116D01*
X76300Y31656D01*
X75840Y31118D01*
X75470Y30514D01*
X75199Y29859D01*
X75034Y29171D01*
X74978Y28465D01*
X75034Y27758D01*
X75199Y27070D01*
X75470Y26415D01*
X75840Y25811D01*
X76300Y25273D01*
X76839Y24813D01*
X77443Y24443D01*
X78097Y24172D01*
X78786Y24006D01*
X79485Y23951D01*
Y22978D01*
X78786Y22923D01*
X78097Y22758D01*
X77443Y22486D01*
X76839Y22116D01*
X76300Y21656D01*
X75840Y21118D01*
X75470Y20514D01*
X75199Y19859D01*
X75034Y19171D01*
X74978Y18465D01*
X75034Y17758D01*
X75199Y17070D01*
X75470Y16415D01*
X75840Y15811D01*
X76297Y15277D01*
X74801D01*
X70488Y19590D01*
X70575Y19800D01*
X70713Y20375D01*
X70748Y20965D01*
X70713Y21554D01*
X70575Y22129D01*
X70349Y22675D01*
X70065Y23138D01*
Y28791D01*
X70349Y29254D01*
X70575Y29800D01*
X70713Y30375D01*
X70748Y30965D01*
X70713Y31554D01*
X70575Y32129D01*
X70349Y32675D01*
X70065Y33138D01*
Y38791D01*
G37*
G36*
Y56332D02*X73745Y60012D01*
X73756Y55479D01*
X73811Y55250D01*
X73901Y55031D01*
X74025Y54830D01*
X74178Y54651D01*
X74358Y54497D01*
X74559Y54374D01*
X74777Y54284D01*
X75007Y54228D01*
X75242Y54215D01*
X79485Y54225D01*
Y53712D01*
X75007Y53701D01*
X74777Y53646D01*
X74559Y53555D01*
X74358Y53432D01*
X74178Y53278D01*
X74025Y53099D01*
X73901Y52898D01*
X73811Y52680D01*
X73756Y52450D01*
X73742Y52215D01*
X73756Y46479D01*
X73758Y46469D01*
X70780D01*
X70265Y46984D01*
X70227Y47028D01*
X70065Y47167D01*
Y49001D01*
X70107Y49018D01*
X70175Y49058D01*
X70235Y49109D01*
X70286Y49168D01*
X70327Y49236D01*
X70480Y49561D01*
X70599Y49900D01*
X70684Y50250D01*
X70735Y50605D01*
X70752Y50965D01*
X70735Y51324D01*
X70684Y51680D01*
X70599Y52029D01*
X70480Y52368D01*
X70330Y52695D01*
X70289Y52763D01*
X70237Y52822D01*
X70176Y52873D01*
X70109Y52914D01*
X70065Y52932D01*
Y56332D01*
G37*
G36*
Y74465D02*X70992D01*
X73992Y77465D01*
Y77542D01*
X74043Y77459D01*
X74478Y76950D01*
X74986Y76516D01*
X75557Y76166D01*
X76175Y75910D01*
X76825Y75754D01*
X77492Y75701D01*
X78159Y75754D01*
X78810Y75910D01*
X79428Y76166D01*
X79485Y76201D01*
Y69994D01*
X70065Y60574D01*
Y74465D01*
G37*
G36*
X79485Y2965D02*X70065D01*
Y15770D01*
X73077Y12758D01*
X73116Y12713D01*
X73295Y12560D01*
X73496Y12437D01*
X73715Y12346D01*
X73944Y12291D01*
X74180Y12273D01*
X74238Y12277D01*
X77101D01*
X76839Y12116D01*
X76300Y11656D01*
X75840Y11118D01*
X75470Y10514D01*
X75199Y9859D01*
X75034Y9171D01*
X74978Y8465D01*
X75034Y7758D01*
X75199Y7070D01*
X75470Y6415D01*
X75840Y5811D01*
X76300Y5273D01*
X76839Y4813D01*
X77443Y4443D01*
X78097Y4172D01*
X78786Y4006D01*
X79485Y3951D01*
Y2965D01*
G37*
G36*
X63919Y28791D02*X63944Y28750D01*
X64328Y28301D01*
X64778Y27917D01*
X65282Y27608D01*
X65828Y27381D01*
X66403Y27243D01*
X66992Y27197D01*
X67581Y27243D01*
X68156Y27381D01*
X68703Y27608D01*
X69207Y27917D01*
X69656Y28301D01*
X70040Y28750D01*
X70065Y28791D01*
Y23138D01*
X70040Y23179D01*
X69656Y23629D01*
X69207Y24013D01*
X68703Y24321D01*
X68156Y24548D01*
X67581Y24686D01*
X66992Y24732D01*
X66403Y24686D01*
X65828Y24548D01*
X65282Y24321D01*
X64778Y24013D01*
X64328Y23629D01*
X63944Y23179D01*
X63919Y23138D01*
Y28791D01*
G37*
G36*
Y38791D02*X63944Y38750D01*
X64328Y38301D01*
X64778Y37917D01*
X65282Y37608D01*
X65828Y37381D01*
X66403Y37243D01*
X66992Y37197D01*
X67581Y37243D01*
X68156Y37381D01*
X68703Y37608D01*
X69207Y37917D01*
X69656Y38301D01*
X70040Y38750D01*
X70065Y38791D01*
Y33138D01*
X70040Y33179D01*
X69656Y33629D01*
X69207Y34013D01*
X68703Y34321D01*
X68156Y34548D01*
X67581Y34686D01*
X66992Y34732D01*
X66403Y34686D01*
X65828Y34548D01*
X65282Y34321D01*
X64778Y34013D01*
X64328Y33629D01*
X63944Y33179D01*
X63919Y33138D01*
Y38791D01*
G37*
G36*
Y44465D02*X65627D01*
X65282Y44321D01*
X64778Y44013D01*
X64328Y43629D01*
X63944Y43179D01*
X63919Y43138D01*
Y44465D01*
G37*
G36*
Y54465D02*X65622D01*
X65588Y54453D01*
X65262Y54303D01*
X65194Y54261D01*
X65134Y54210D01*
X65083Y54149D01*
X65042Y54081D01*
X65013Y54008D01*
X64995Y53931D01*
X64989Y53852D01*
X64996Y53773D01*
X65015Y53696D01*
X65046Y53623D01*
X65087Y53556D01*
X65139Y53496D01*
X65200Y53445D01*
X65268Y53404D01*
X65341Y53374D01*
X65418Y53356D01*
X65497Y53350D01*
X65576Y53357D01*
X65653Y53376D01*
X65725Y53408D01*
X65963Y53521D01*
X66212Y53608D01*
X66468Y53670D01*
X66729Y53708D01*
X66992Y53720D01*
X67255Y53708D01*
X67516Y53670D01*
X67772Y53608D01*
X68021Y53521D01*
X68260Y53411D01*
X68332Y53379D01*
X68409Y53360D01*
X68487Y53354D01*
X68566Y53359D01*
X68642Y53377D01*
X68715Y53407D01*
X68783Y53447D01*
X68843Y53498D01*
X68894Y53558D01*
X68936Y53624D01*
X68967Y53697D01*
X68985Y53773D01*
X68992Y53852D01*
X68987Y53930D01*
X68969Y54007D01*
X68939Y54080D01*
X68898Y54147D01*
X68848Y54207D01*
X68788Y54259D01*
X68721Y54299D01*
X68396Y54453D01*
X68098Y54557D01*
X68260Y54624D01*
X68461Y54747D01*
X68641Y54901D01*
X68679Y54946D01*
X70065Y56332D01*
Y52932D01*
X70035Y52944D01*
X69958Y52962D01*
X69879Y52968D01*
X69800Y52961D01*
X69723Y52942D01*
X69650Y52911D01*
X69583Y52869D01*
X69523Y52817D01*
X69472Y52757D01*
X69431Y52689D01*
X69402Y52616D01*
X69384Y52539D01*
X69378Y52460D01*
X69385Y52381D01*
X69404Y52304D01*
X69436Y52231D01*
X69549Y51993D01*
X69635Y51745D01*
X69698Y51489D01*
X69735Y51228D01*
X69748Y50965D01*
X69735Y50701D01*
X69698Y50441D01*
X69635Y50185D01*
X69549Y49936D01*
X69439Y49696D01*
X69407Y49624D01*
X69388Y49548D01*
X69381Y49470D01*
X69387Y49391D01*
X69405Y49314D01*
X69434Y49242D01*
X69475Y49174D01*
X69526Y49114D01*
X69585Y49062D01*
X69652Y49021D01*
X69724Y48990D01*
X69801Y48971D01*
X69879Y48965D01*
X69958Y48970D01*
X70034Y48988D01*
X70065Y49001D01*
Y47167D01*
X70047Y47182D01*
X69846Y47305D01*
X69628Y47396D01*
X69398Y47451D01*
X69398Y47451D01*
X69163Y47469D01*
X69104Y47465D01*
X68362D01*
X68396Y47476D01*
X68723Y47626D01*
X68790Y47668D01*
X68850Y47720D01*
X68901Y47780D01*
X68942Y47848D01*
X68972Y47921D01*
X68990Y47999D01*
X68995Y48078D01*
X68989Y48156D01*
X68970Y48233D01*
X68939Y48306D01*
X68897Y48374D01*
X68845Y48433D01*
X68784Y48484D01*
X68717Y48525D01*
X68643Y48555D01*
X68566Y48573D01*
X68487Y48579D01*
X68408Y48572D01*
X68331Y48553D01*
X68259Y48521D01*
X68021Y48408D01*
X67772Y48321D01*
X67516Y48259D01*
X67255Y48221D01*
X66992Y48209D01*
X66729Y48221D01*
X66468Y48259D01*
X66212Y48321D01*
X65963Y48408D01*
X65724Y48518D01*
X65652Y48550D01*
X65576Y48569D01*
X65497Y48576D01*
X65419Y48570D01*
X65342Y48552D01*
X65269Y48522D01*
X65202Y48482D01*
X65141Y48431D01*
X65090Y48372D01*
X65048Y48305D01*
X65018Y48232D01*
X64999Y48156D01*
X64992Y48078D01*
X64998Y47999D01*
X65016Y47922D01*
X65045Y47849D01*
X65086Y47782D01*
X65137Y47722D01*
X65196Y47670D01*
X65264Y47630D01*
X65588Y47476D01*
X65622Y47465D01*
X63919D01*
Y48997D01*
X63949Y48985D01*
X64026Y48967D01*
X64105Y48961D01*
X64184Y48968D01*
X64261Y48987D01*
X64334Y49018D01*
X64401Y49060D01*
X64461Y49112D01*
X64512Y49172D01*
X64553Y49240D01*
X64583Y49313D01*
X64601Y49391D01*
X64606Y49470D01*
X64599Y49549D01*
X64580Y49625D01*
X64548Y49698D01*
X64435Y49936D01*
X64349Y50185D01*
X64286Y50441D01*
X64249Y50701D01*
X64236Y50965D01*
X64249Y51228D01*
X64286Y51489D01*
X64349Y51745D01*
X64435Y51993D01*
X64545Y52233D01*
X64577Y52305D01*
X64596Y52381D01*
X64603Y52460D01*
X64597Y52538D01*
X64580Y52615D01*
X64550Y52688D01*
X64509Y52755D01*
X64459Y52815D01*
X64399Y52867D01*
X64332Y52908D01*
X64260Y52939D01*
X64183Y52958D01*
X64105Y52965D01*
X64027Y52959D01*
X63950Y52941D01*
X63919Y52929D01*
Y54465D01*
G37*
G36*
Y74465D02*X70065D01*
Y60574D01*
X66955Y57465D01*
X63919D01*
Y74465D01*
G37*
G36*
X70065Y2965D02*X63919D01*
Y18791D01*
X63944Y18750D01*
X64328Y18301D01*
X64778Y17917D01*
X65282Y17608D01*
X65828Y17381D01*
X66403Y17243D01*
X66992Y17197D01*
X67581Y17243D01*
X68156Y17381D01*
X68367Y17469D01*
X70065Y15770D01*
Y2965D01*
G37*
G36*
X56986Y52198D02*X56992Y52197D01*
X57581Y52243D01*
X58156Y52381D01*
X58703Y52608D01*
X59207Y52917D01*
X59656Y53301D01*
X60040Y53750D01*
X60349Y54254D01*
X60436Y54465D01*
X63919D01*
Y52929D01*
X63877Y52912D01*
X63810Y52871D01*
X63749Y52820D01*
X63698Y52761D01*
X63658Y52693D01*
X63504Y52368D01*
X63386Y52029D01*
X63301Y51680D01*
X63249Y51324D01*
X63232Y50965D01*
X63249Y50605D01*
X63301Y50250D01*
X63386Y49900D01*
X63504Y49561D01*
X63654Y49234D01*
X63695Y49167D01*
X63747Y49107D01*
X63808Y49056D01*
X63876Y49015D01*
X63919Y48997D01*
Y47465D01*
X60436D01*
X60349Y47675D01*
X60040Y48179D01*
X59656Y48629D01*
X59207Y49013D01*
X58703Y49321D01*
X58156Y49548D01*
X57581Y49686D01*
X56992Y49732D01*
X56986Y49732D01*
Y52198D01*
G37*
G36*
Y74465D02*X63919D01*
Y57465D01*
X60436D01*
X60349Y57675D01*
X60040Y58179D01*
X59656Y58629D01*
X59207Y59013D01*
X58703Y59321D01*
X58156Y59548D01*
X57581Y59686D01*
X56992Y59732D01*
X56986Y59732D01*
Y74465D01*
G37*
G36*
X63919Y2965D02*X56986D01*
Y22198D01*
X56992Y22197D01*
X57581Y22243D01*
X58156Y22381D01*
X58703Y22608D01*
X59207Y22917D01*
X59656Y23301D01*
X60040Y23750D01*
X60349Y24254D01*
X60575Y24800D01*
X60713Y25375D01*
X60748Y25965D01*
X60713Y26554D01*
X60575Y27129D01*
X60349Y27675D01*
X60040Y28179D01*
X59656Y28629D01*
X59207Y29013D01*
X58703Y29321D01*
X58156Y29548D01*
X57581Y29686D01*
X56992Y29732D01*
X56986Y29732D01*
Y32198D01*
X56992Y32197D01*
X57581Y32243D01*
X58156Y32381D01*
X58703Y32608D01*
X59207Y32917D01*
X59656Y33301D01*
X60040Y33750D01*
X60349Y34254D01*
X60575Y34800D01*
X60713Y35375D01*
X60748Y35965D01*
X60713Y36554D01*
X60575Y37129D01*
X60349Y37675D01*
X60040Y38179D01*
X59656Y38629D01*
X59207Y39013D01*
X58703Y39321D01*
X58156Y39548D01*
X57581Y39686D01*
X56992Y39732D01*
X56986Y39732D01*
Y42198D01*
X56992Y42197D01*
X57581Y42243D01*
X58156Y42381D01*
X58703Y42608D01*
X59207Y42917D01*
X59656Y43301D01*
X60040Y43750D01*
X60349Y44254D01*
X60436Y44465D01*
X63919D01*
Y43138D01*
X63635Y42675D01*
X63409Y42129D01*
X63271Y41554D01*
X63225Y40965D01*
X63271Y40375D01*
X63409Y39800D01*
X63635Y39254D01*
X63919Y38791D01*
Y33138D01*
X63635Y32675D01*
X63409Y32129D01*
X63271Y31554D01*
X63225Y30965D01*
X63271Y30375D01*
X63409Y29800D01*
X63635Y29254D01*
X63919Y28791D01*
Y23138D01*
X63635Y22675D01*
X63409Y22129D01*
X63271Y21554D01*
X63225Y20965D01*
X63271Y20375D01*
X63409Y19800D01*
X63635Y19254D01*
X63919Y18791D01*
Y2965D01*
G37*
G36*
X39046Y18133D02*X39197Y17572D01*
X39310Y16934D01*
X39367Y16289D01*
Y15641D01*
X39310Y14995D01*
X39197Y14357D01*
X39046Y13797D01*
Y18133D01*
G37*
G36*
Y63133D02*X39197Y62572D01*
X39310Y61934D01*
X39367Y61289D01*
Y60641D01*
X39310Y59995D01*
X39197Y59357D01*
X39046Y58797D01*
Y63133D01*
G37*
G36*
X56986Y2965D02*X39046D01*
Y11423D01*
X39052Y11432D01*
X39423Y12069D01*
X39736Y12735D01*
X39989Y13427D01*
X40181Y14138D01*
X40309Y14863D01*
X40374Y15596D01*
Y16333D01*
X40309Y17066D01*
X40181Y17791D01*
X39989Y18503D01*
X39736Y19194D01*
X39423Y19861D01*
X39052Y20497D01*
X39046Y20507D01*
Y56423D01*
X39052Y56432D01*
X39423Y57069D01*
X39736Y57735D01*
X39989Y58427D01*
X40181Y59138D01*
X40309Y59863D01*
X40374Y60596D01*
Y61333D01*
X40309Y62066D01*
X40181Y62791D01*
X39989Y63503D01*
X39736Y64194D01*
X39423Y64861D01*
X39052Y65497D01*
X39046Y65507D01*
Y74465D01*
X56986D01*
Y59732D01*
X56403Y59686D01*
X55828Y59548D01*
X55282Y59321D01*
X54778Y59013D01*
X54328Y58629D01*
X53944Y58179D01*
X53635Y57675D01*
X53409Y57129D01*
X53271Y56554D01*
X53225Y55965D01*
X53271Y55375D01*
X53409Y54800D01*
X53635Y54254D01*
X53944Y53750D01*
X54328Y53301D01*
X54778Y52917D01*
X55282Y52608D01*
X55828Y52381D01*
X56403Y52243D01*
X56986Y52198D01*
Y49732D01*
X56403Y49686D01*
X55828Y49548D01*
X55282Y49321D01*
X54778Y49013D01*
X54328Y48629D01*
X53944Y48179D01*
X53635Y47675D01*
X53409Y47129D01*
X53271Y46554D01*
X53225Y45965D01*
X53271Y45375D01*
X53409Y44800D01*
X53635Y44254D01*
X53944Y43750D01*
X54328Y43301D01*
X54778Y42917D01*
X55282Y42608D01*
X55828Y42381D01*
X56403Y42243D01*
X56986Y42198D01*
Y39732D01*
X56403Y39686D01*
X55828Y39548D01*
X55282Y39321D01*
X54778Y39013D01*
X54328Y38629D01*
X53944Y38179D01*
X53635Y37675D01*
X53409Y37129D01*
X53271Y36554D01*
X53225Y35965D01*
X53271Y35375D01*
X53409Y34800D01*
X53635Y34254D01*
X53944Y33750D01*
X54328Y33301D01*
X54778Y32917D01*
X55282Y32608D01*
X55828Y32381D01*
X56403Y32243D01*
X56986Y32198D01*
Y29732D01*
X56403Y29686D01*
X55828Y29548D01*
X55282Y29321D01*
X54778Y29013D01*
X54328Y28629D01*
X53944Y28179D01*
X53635Y27675D01*
X53409Y27129D01*
X53271Y26554D01*
X53225Y25965D01*
X53271Y25375D01*
X53409Y24800D01*
X53635Y24254D01*
X53944Y23750D01*
X54328Y23301D01*
X54778Y22917D01*
X55282Y22608D01*
X55828Y22381D01*
X56403Y22243D01*
X56986Y22198D01*
Y2965D01*
G37*
G36*
X39046D02*X31996D01*
Y7583D01*
X32360D01*
X33094Y7647D01*
X33819Y7776D01*
X34530Y7968D01*
X35222Y8221D01*
X35888Y8534D01*
X36525Y8904D01*
X37126Y9329D01*
X37186Y9382D01*
X37236Y9444D01*
X37275Y9514D01*
X37304Y9588D01*
X37320Y9666D01*
X37324Y9746D01*
X37315Y9826D01*
X37294Y9903D01*
X37262Y9975D01*
X37218Y10042D01*
X37164Y10101D01*
X37102Y10151D01*
X37033Y10191D01*
X36958Y10219D01*
X36880Y10235D01*
X36800Y10239D01*
X36721Y10231D01*
X36644Y10210D01*
X36571Y10177D01*
X36505Y10132D01*
X35980Y9753D01*
X35420Y9427D01*
X34834Y9151D01*
X34225Y8929D01*
X33600Y8760D01*
X32962Y8647D01*
X32316Y8590D01*
X31996D01*
Y23339D01*
X32316D01*
X32962Y23283D01*
X33600Y23169D01*
X34225Y23001D01*
X34834Y22778D01*
X35420Y22502D01*
X35980Y22177D01*
X36509Y21803D01*
X36574Y21759D01*
X36646Y21726D01*
X36722Y21706D01*
X36800Y21697D01*
X36879Y21701D01*
X36956Y21717D01*
X37030Y21745D01*
X37098Y21784D01*
X37159Y21833D01*
X37212Y21891D01*
X37255Y21957D01*
X37288Y22029D01*
X37308Y22105D01*
X37317Y22183D01*
X37313Y22262D01*
X37297Y22339D01*
X37269Y22412D01*
X37230Y22481D01*
X37181Y22542D01*
X37121Y22594D01*
X36525Y23025D01*
X35888Y23395D01*
X35222Y23708D01*
X34530Y23961D01*
X33819Y24153D01*
X33094Y24282D01*
X32360Y24346D01*
X31996D01*
Y52583D01*
X32360D01*
X33094Y52647D01*
X33819Y52776D01*
X34530Y52968D01*
X35222Y53221D01*
X35888Y53534D01*
X36525Y53904D01*
X37126Y54329D01*
X37186Y54382D01*
X37236Y54444D01*
X37275Y54514D01*
X37304Y54588D01*
X37320Y54666D01*
X37324Y54746D01*
X37315Y54826D01*
X37294Y54903D01*
X37262Y54975D01*
X37218Y55042D01*
X37164Y55101D01*
X37102Y55151D01*
X37033Y55191D01*
X36958Y55219D01*
X36880Y55235D01*
X36800Y55239D01*
X36721Y55231D01*
X36644Y55210D01*
X36571Y55177D01*
X36505Y55132D01*
X35980Y54753D01*
X35420Y54427D01*
X34834Y54151D01*
X34225Y53929D01*
X33600Y53760D01*
X32962Y53647D01*
X32316Y53590D01*
X31996D01*
Y68339D01*
X32316D01*
X32962Y68283D01*
X33600Y68169D01*
X34225Y68001D01*
X34834Y67778D01*
X35420Y67502D01*
X35980Y67177D01*
X36509Y66803D01*
X36574Y66759D01*
X36646Y66726D01*
X36722Y66706D01*
X36800Y66697D01*
X36879Y66701D01*
X36956Y66717D01*
X37030Y66745D01*
X37098Y66784D01*
X37159Y66833D01*
X37212Y66891D01*
X37255Y66957D01*
X37288Y67029D01*
X37308Y67105D01*
X37317Y67183D01*
X37313Y67262D01*
X37297Y67339D01*
X37269Y67412D01*
X37230Y67481D01*
X37181Y67542D01*
X37121Y67594D01*
X36525Y68025D01*
X35888Y68395D01*
X35222Y68708D01*
X34530Y68961D01*
X33819Y69153D01*
X33094Y69282D01*
X32360Y69346D01*
X31996D01*
Y74465D01*
X39046D01*
Y65507D01*
X38628Y66099D01*
X38575Y66158D01*
X38512Y66208D01*
X38443Y66248D01*
X38368Y66276D01*
X38290Y66292D01*
X38211Y66296D01*
X38131Y66288D01*
X38054Y66267D01*
X37981Y66234D01*
X37915Y66190D01*
X37855Y66137D01*
X37806Y66074D01*
X37766Y66005D01*
X37738Y65930D01*
X37721Y65852D01*
X37717Y65773D01*
X37726Y65693D01*
X37747Y65616D01*
X37780Y65543D01*
X37825Y65478D01*
X38204Y64953D01*
X38530Y64392D01*
X38805Y63806D01*
X39028Y63198D01*
X39046Y63133D01*
Y58797D01*
X39028Y58732D01*
X38805Y58123D01*
X38530Y57537D01*
X38204Y56977D01*
X37830Y56447D01*
X37786Y56382D01*
X37754Y56311D01*
X37733Y56235D01*
X37725Y56156D01*
X37728Y56078D01*
X37744Y56001D01*
X37772Y55927D01*
X37811Y55859D01*
X37861Y55797D01*
X37919Y55745D01*
X37985Y55701D01*
X38057Y55669D01*
X38132Y55648D01*
X38211Y55640D01*
X38289Y55644D01*
X38366Y55660D01*
X38440Y55688D01*
X38508Y55727D01*
X38570Y55776D01*
X38621Y55835D01*
X39046Y56423D01*
Y20507D01*
X38628Y21099D01*
X38575Y21158D01*
X38512Y21208D01*
X38443Y21248D01*
X38368Y21276D01*
X38290Y21292D01*
X38211Y21296D01*
X38131Y21288D01*
X38054Y21267D01*
X37981Y21234D01*
X37915Y21190D01*
X37855Y21137D01*
X37806Y21074D01*
X37766Y21005D01*
X37738Y20930D01*
X37721Y20852D01*
X37717Y20773D01*
X37726Y20693D01*
X37747Y20616D01*
X37780Y20543D01*
X37825Y20478D01*
X38204Y19953D01*
X38530Y19392D01*
X38805Y18806D01*
X39028Y18198D01*
X39046Y18133D01*
Y13797D01*
X39028Y13732D01*
X38805Y13123D01*
X38530Y12537D01*
X38204Y11977D01*
X37830Y11447D01*
X37786Y11382D01*
X37754Y11311D01*
X37733Y11235D01*
X37725Y11156D01*
X37728Y11078D01*
X37744Y11001D01*
X37772Y10927D01*
X37811Y10859D01*
X37861Y10797D01*
X37919Y10745D01*
X37985Y10701D01*
X38057Y10669D01*
X38132Y10648D01*
X38211Y10640D01*
X38289Y10644D01*
X38366Y10660D01*
X38440Y10688D01*
X38508Y10727D01*
X38570Y10776D01*
X38621Y10835D01*
X39046Y11423D01*
Y2965D01*
G37*
G36*
X31996D02*X24939D01*
Y6154D01*
X25000Y6383D01*
X25079Y6826D01*
X25118Y7275D01*
Y7725D01*
X25079Y8174D01*
X25000Y8617D01*
X24939Y8846D01*
Y11423D01*
X25357Y10830D01*
X25410Y10771D01*
X25472Y10721D01*
X25541Y10681D01*
X25616Y10653D01*
X25694Y10637D01*
X25774Y10633D01*
X25853Y10641D01*
X25930Y10662D01*
X26003Y10695D01*
X26070Y10739D01*
X26129Y10793D01*
X26179Y10855D01*
X26218Y10924D01*
X26247Y10999D01*
X26263Y11077D01*
X26267Y11157D01*
X26258Y11236D01*
X26237Y11313D01*
X26204Y11386D01*
X26159Y11452D01*
X25780Y11977D01*
X25454Y12537D01*
X25179Y13123D01*
X24956Y13732D01*
X24939Y13797D01*
Y18133D01*
X24956Y18198D01*
X25179Y18806D01*
X25454Y19392D01*
X25780Y19953D01*
X26154Y20482D01*
X26198Y20547D01*
X26230Y20619D01*
X26251Y20695D01*
X26260Y20773D01*
X26256Y20851D01*
X26240Y20928D01*
X26212Y21002D01*
X26173Y21070D01*
X26124Y21132D01*
X26065Y21185D01*
X25999Y21228D01*
X25928Y21260D01*
X25852Y21281D01*
X25774Y21289D01*
X25695Y21285D01*
X25618Y21269D01*
X25544Y21241D01*
X25476Y21202D01*
X25415Y21153D01*
X25363Y21094D01*
X24939Y20506D01*
Y56423D01*
X25357Y55830D01*
X25410Y55771D01*
X25472Y55721D01*
X25541Y55681D01*
X25616Y55653D01*
X25694Y55637D01*
X25774Y55633D01*
X25853Y55641D01*
X25930Y55662D01*
X26003Y55695D01*
X26070Y55739D01*
X26129Y55793D01*
X26179Y55855D01*
X26218Y55924D01*
X26247Y55999D01*
X26263Y56077D01*
X26267Y56157D01*
X26258Y56236D01*
X26237Y56313D01*
X26204Y56386D01*
X26159Y56452D01*
X25780Y56977D01*
X25454Y57537D01*
X25179Y58123D01*
X24956Y58732D01*
X24939Y58797D01*
Y63133D01*
X24956Y63198D01*
X25179Y63806D01*
X25454Y64392D01*
X25780Y64953D01*
X26154Y65482D01*
X26198Y65547D01*
X26230Y65619D01*
X26251Y65695D01*
X26260Y65773D01*
X26256Y65851D01*
X26240Y65928D01*
X26212Y66002D01*
X26173Y66070D01*
X26124Y66132D01*
X26065Y66185D01*
X25999Y66228D01*
X25928Y66260D01*
X25852Y66281D01*
X25774Y66289D01*
X25695Y66285D01*
X25618Y66269D01*
X25544Y66241D01*
X25476Y66202D01*
X25415Y66153D01*
X25363Y66094D01*
X24939Y65506D01*
Y68162D01*
X25000Y68391D01*
X25079Y68834D01*
X25118Y69283D01*
Y69733D01*
X25079Y70181D01*
X25000Y70625D01*
X24939Y70854D01*
Y74465D01*
X31996D01*
Y69346D01*
X31624D01*
X30890Y69282D01*
X30165Y69153D01*
X29454Y68961D01*
X28763Y68708D01*
X28096Y68395D01*
X27460Y68025D01*
X26858Y67600D01*
X26798Y67547D01*
X26748Y67485D01*
X26709Y67415D01*
X26680Y67341D01*
X26664Y67263D01*
X26660Y67183D01*
X26669Y67104D01*
X26690Y67027D01*
X26723Y66954D01*
X26766Y66887D01*
X26820Y66828D01*
X26882Y66778D01*
X26952Y66738D01*
X27026Y66710D01*
X27104Y66694D01*
X27184Y66690D01*
X27264Y66699D01*
X27341Y66720D01*
X27413Y66752D01*
X27479Y66797D01*
X28004Y67177D01*
X28564Y67502D01*
X29151Y67778D01*
X29759Y68001D01*
X30385Y68169D01*
X31023Y68283D01*
X31668Y68339D01*
X31996D01*
Y53590D01*
X31668D01*
X31023Y53647D01*
X30385Y53760D01*
X29759Y53929D01*
X29151Y54151D01*
X28564Y54427D01*
X28004Y54753D01*
X27475Y55126D01*
X27410Y55171D01*
X27338Y55203D01*
X27262Y55224D01*
X27184Y55232D01*
X27105Y55228D01*
X27028Y55212D01*
X26955Y55184D01*
X26886Y55145D01*
X26825Y55096D01*
X26772Y55038D01*
X26729Y54972D01*
X26697Y54900D01*
X26676Y54824D01*
X26667Y54746D01*
X26671Y54667D01*
X26687Y54590D01*
X26715Y54517D01*
X26754Y54448D01*
X26804Y54387D01*
X26863Y54335D01*
X27460Y53904D01*
X28096Y53534D01*
X28763Y53221D01*
X29454Y52968D01*
X30165Y52776D01*
X30890Y52647D01*
X31624Y52583D01*
X31996D01*
Y24346D01*
X31624D01*
X30890Y24282D01*
X30165Y24153D01*
X29454Y23961D01*
X28763Y23708D01*
X28096Y23395D01*
X27460Y23025D01*
X26858Y22600D01*
X26798Y22547D01*
X26748Y22485D01*
X26709Y22415D01*
X26680Y22341D01*
X26664Y22263D01*
X26660Y22183D01*
X26669Y22104D01*
X26690Y22027D01*
X26723Y21954D01*
X26766Y21887D01*
X26820Y21828D01*
X26882Y21778D01*
X26952Y21738D01*
X27026Y21710D01*
X27104Y21694D01*
X27184Y21690D01*
X27264Y21699D01*
X27341Y21720D01*
X27413Y21752D01*
X27479Y21797D01*
X28004Y22177D01*
X28564Y22502D01*
X29151Y22778D01*
X29759Y23001D01*
X30385Y23169D01*
X31023Y23283D01*
X31668Y23339D01*
X31996D01*
Y8590D01*
X31668D01*
X31023Y8647D01*
X30385Y8760D01*
X29759Y8929D01*
X29151Y9151D01*
X28564Y9427D01*
X28004Y9753D01*
X27475Y10126D01*
X27410Y10171D01*
X27338Y10203D01*
X27262Y10224D01*
X27184Y10232D01*
X27105Y10228D01*
X27028Y10212D01*
X26955Y10184D01*
X26886Y10145D01*
X26825Y10096D01*
X26772Y10038D01*
X26729Y9972D01*
X26697Y9900D01*
X26676Y9824D01*
X26667Y9746D01*
X26671Y9667D01*
X26687Y9590D01*
X26715Y9517D01*
X26754Y9448D01*
X26804Y9387D01*
X26863Y9335D01*
X27460Y8904D01*
X28096Y8534D01*
X28763Y8221D01*
X29454Y7968D01*
X30165Y7776D01*
X30890Y7647D01*
X31624Y7583D01*
X31996D01*
Y2965D01*
G37*
G36*
X24939Y13797D02*X24787Y14357D01*
X24674Y14995D01*
X24617Y15641D01*
Y16289D01*
X24674Y16934D01*
X24787Y17572D01*
X24939Y18133D01*
Y13797D01*
G37*
G36*
Y58797D02*X24787Y59357D01*
X24674Y59995D01*
X24617Y60641D01*
Y61289D01*
X24674Y61934D01*
X24787Y62572D01*
X24939Y63133D01*
Y58797D01*
G37*
G36*
Y2965D02*X22397D01*
X22756Y3173D01*
X22819Y3220D01*
X22874Y3277D01*
X22919Y3342D01*
X22954Y3414D01*
X22977Y3489D01*
X22988Y3568D01*
X22986Y3647D01*
X22972Y3725D01*
X22946Y3800D01*
X22909Y3870D01*
X22861Y3934D01*
X22804Y3989D01*
X22739Y4034D01*
X22667Y4069D01*
X22592Y4092D01*
X22513Y4102D01*
X22434Y4101D01*
X22356Y4087D01*
X22281Y4061D01*
X22211Y4022D01*
X21900Y3837D01*
X21572Y3683D01*
X21232Y3559D01*
X20883Y3465D01*
X20526Y3402D01*
X20165Y3370D01*
X19986D01*
Y11630D01*
X20165D01*
X20526Y11598D01*
X20883Y11535D01*
X21232Y11441D01*
X21572Y11317D01*
X21900Y11163D01*
X22214Y10981D01*
X22282Y10943D01*
X22357Y10917D01*
X22434Y10903D01*
X22513Y10902D01*
X22591Y10912D01*
X22666Y10935D01*
X22737Y10970D01*
X22801Y11015D01*
X22858Y11069D01*
X22906Y11132D01*
X22943Y11201D01*
X22969Y11276D01*
X22982Y11353D01*
X22984Y11432D01*
X22973Y11510D01*
X22950Y11585D01*
X22916Y11656D01*
X22871Y11720D01*
X22816Y11777D01*
X22753Y11823D01*
X22366Y12053D01*
X21959Y12244D01*
X21536Y12399D01*
X21101Y12516D01*
X20658Y12594D01*
X20209Y12634D01*
X19986D01*
Y64374D01*
X20209D01*
X20658Y64413D01*
X21101Y64492D01*
X21536Y64609D01*
X21959Y64763D01*
X22366Y64954D01*
X22756Y65180D01*
X22819Y65228D01*
X22874Y65285D01*
X22919Y65350D01*
X22954Y65421D01*
X22977Y65497D01*
X22988Y65576D01*
X22986Y65655D01*
X22972Y65733D01*
X22946Y65808D01*
X22909Y65878D01*
X22861Y65941D01*
X22804Y65996D01*
X22739Y66042D01*
X22667Y66076D01*
X22592Y66099D01*
X22513Y66110D01*
X22434Y66109D01*
X22356Y66095D01*
X22281Y66069D01*
X22211Y66030D01*
X21900Y65845D01*
X21572Y65691D01*
X21232Y65567D01*
X20883Y65473D01*
X20526Y65410D01*
X20165Y65378D01*
X19986D01*
Y73638D01*
X20165D01*
X20526Y73606D01*
X20883Y73543D01*
X21232Y73449D01*
X21572Y73324D01*
X21900Y73171D01*
X22214Y72989D01*
X22282Y72951D01*
X22357Y72925D01*
X22434Y72911D01*
X22513Y72909D01*
X22591Y72920D01*
X22666Y72943D01*
X22737Y72977D01*
X22801Y73022D01*
X22858Y73077D01*
X22906Y73140D01*
X22943Y73209D01*
X22969Y73283D01*
X22982Y73361D01*
X22984Y73440D01*
X22973Y73518D01*
X22950Y73593D01*
X22916Y73664D01*
X22871Y73728D01*
X22816Y73785D01*
X22753Y73831D01*
X22366Y74061D01*
X21959Y74252D01*
X21536Y74407D01*
X21321Y74465D01*
X24939D01*
Y70854D01*
X24883Y71059D01*
X24729Y71482D01*
X24538Y71890D01*
X24312Y72279D01*
X24264Y72343D01*
X24207Y72398D01*
X24142Y72443D01*
X24071Y72478D01*
X23995Y72501D01*
X23916Y72512D01*
X23837Y72510D01*
X23759Y72496D01*
X23684Y72470D01*
X23614Y72433D01*
X23551Y72385D01*
X23496Y72328D01*
X23450Y72262D01*
X23416Y72191D01*
X23393Y72115D01*
X23382Y72037D01*
X23383Y71957D01*
X23397Y71879D01*
X23423Y71804D01*
X23462Y71735D01*
X23647Y71424D01*
X23801Y71096D01*
X23925Y70756D01*
X24019Y70406D01*
X24082Y70050D01*
X24114Y69689D01*
Y69327D01*
X24082Y68966D01*
X24019Y68609D01*
X23925Y68260D01*
X23801Y67920D01*
X23647Y67592D01*
X23465Y67279D01*
X23427Y67210D01*
X23401Y67136D01*
X23387Y67058D01*
X23386Y66979D01*
X23397Y66901D01*
X23419Y66826D01*
X23454Y66755D01*
X23499Y66691D01*
X23553Y66634D01*
X23616Y66587D01*
X23685Y66549D01*
X23760Y66524D01*
X23837Y66510D01*
X23916Y66508D01*
X23994Y66519D01*
X24069Y66542D01*
X24140Y66576D01*
X24205Y66621D01*
X24261Y66676D01*
X24308Y66739D01*
X24538Y67126D01*
X24729Y67534D01*
X24883Y67956D01*
X24939Y68162D01*
Y65506D01*
X24932Y65497D01*
X24562Y64861D01*
X24249Y64194D01*
X23995Y63503D01*
X23803Y62791D01*
X23675Y62066D01*
X23610Y61333D01*
Y60596D01*
X23675Y59863D01*
X23803Y59138D01*
X23995Y58427D01*
X24249Y57735D01*
X24562Y57069D01*
X24932Y56432D01*
X24939Y56423D01*
Y20506D01*
X24932Y20497D01*
X24562Y19861D01*
X24249Y19194D01*
X23995Y18503D01*
X23803Y17791D01*
X23675Y17066D01*
X23610Y16333D01*
Y15596D01*
X23675Y14863D01*
X23803Y14138D01*
X23995Y13427D01*
X24249Y12735D01*
X24562Y12069D01*
X24932Y11432D01*
X24939Y11423D01*
Y8846D01*
X24883Y9052D01*
X24729Y9474D01*
X24538Y9882D01*
X24312Y10271D01*
X24264Y10335D01*
X24207Y10390D01*
X24142Y10435D01*
X24071Y10470D01*
X23995Y10493D01*
X23916Y10504D01*
X23837Y10502D01*
X23759Y10488D01*
X23684Y10462D01*
X23614Y10425D01*
X23551Y10377D01*
X23496Y10320D01*
X23450Y10255D01*
X23416Y10183D01*
X23393Y10107D01*
X23382Y10029D01*
X23383Y9949D01*
X23397Y9871D01*
X23423Y9796D01*
X23462Y9727D01*
X23647Y9416D01*
X23801Y9088D01*
X23925Y8748D01*
X24019Y8398D01*
X24082Y8042D01*
X24114Y7681D01*
Y7319D01*
X24082Y6958D01*
X24019Y6602D01*
X23925Y6252D01*
X23801Y5912D01*
X23647Y5584D01*
X23465Y5271D01*
X23427Y5202D01*
X23401Y5128D01*
X23387Y5050D01*
X23386Y4972D01*
X23397Y4894D01*
X23419Y4818D01*
X23454Y4747D01*
X23499Y4683D01*
X23553Y4626D01*
X23616Y4579D01*
X23685Y4542D01*
X23760Y4516D01*
X23837Y4502D01*
X23916Y4500D01*
X23994Y4511D01*
X24069Y4534D01*
X24140Y4568D01*
X24205Y4613D01*
X24261Y4668D01*
X24308Y4731D01*
X24538Y5118D01*
X24729Y5526D01*
X24883Y5949D01*
X24939Y6154D01*
Y2965D01*
G37*
G36*
X19986Y3370D02*X19803D01*
X19442Y3402D01*
X19086Y3465D01*
X18736Y3559D01*
X18396Y3683D01*
X18068Y3837D01*
X17755Y4019D01*
X17686Y4057D01*
X17612Y4083D01*
X17535Y4097D01*
X17456Y4098D01*
X17378Y4088D01*
X17303Y4065D01*
X17232Y4030D01*
X17167Y3985D01*
X17110Y3931D01*
X17063Y3868D01*
X17026Y3799D01*
X17000Y3724D01*
X16986Y3647D01*
X16985Y3568D01*
X16995Y3490D01*
X17018Y3415D01*
X17053Y3344D01*
X17098Y3280D01*
X17152Y3223D01*
X17216Y3177D01*
X17572Y2965D01*
X15719D01*
Y4651D01*
X15761Y4610D01*
X15826Y4565D01*
X15898Y4530D01*
X15974Y4507D01*
X16052Y4496D01*
X16132Y4498D01*
X16210Y4512D01*
X16285Y4538D01*
X16355Y4575D01*
X16418Y4623D01*
X16473Y4680D01*
X16518Y4745D01*
X16553Y4817D01*
X16576Y4893D01*
X16587Y4971D01*
X16585Y5051D01*
X16571Y5129D01*
X16545Y5204D01*
X16506Y5273D01*
X16321Y5584D01*
X16168Y5912D01*
X16043Y6252D01*
X15949Y6602D01*
X15886Y6958D01*
X15854Y7319D01*
Y7681D01*
X15886Y8042D01*
X15949Y8398D01*
X16043Y8748D01*
X16168Y9088D01*
X16321Y9416D01*
X16503Y9729D01*
X16541Y9798D01*
X16567Y9872D01*
X16581Y9950D01*
X16583Y10028D01*
X16572Y10106D01*
X16549Y10182D01*
X16515Y10253D01*
X16470Y10317D01*
X16415Y10374D01*
X16352Y10421D01*
X16283Y10458D01*
X16209Y10484D01*
X16131Y10498D01*
X16053Y10500D01*
X15975Y10489D01*
X15899Y10466D01*
X15828Y10432D01*
X15764Y10387D01*
X15719Y10343D01*
Y66659D01*
X15761Y66618D01*
X15826Y66573D01*
X15898Y66538D01*
X15974Y66515D01*
X16052Y66504D01*
X16132Y66506D01*
X16210Y66520D01*
X16285Y66546D01*
X16355Y66583D01*
X16418Y66631D01*
X16473Y66688D01*
X16518Y66753D01*
X16553Y66825D01*
X16576Y66901D01*
X16587Y66979D01*
X16585Y67059D01*
X16571Y67137D01*
X16545Y67212D01*
X16506Y67281D01*
X16321Y67592D01*
X16168Y67920D01*
X16043Y68260D01*
X15949Y68609D01*
X15886Y68966D01*
X15854Y69327D01*
Y69689D01*
X15886Y70050D01*
X15949Y70406D01*
X16043Y70756D01*
X16168Y71096D01*
X16321Y71424D01*
X16503Y71737D01*
X16541Y71806D01*
X16567Y71880D01*
X16581Y71958D01*
X16583Y72036D01*
X16572Y72114D01*
X16549Y72190D01*
X16515Y72260D01*
X16470Y72325D01*
X16415Y72382D01*
X16352Y72429D01*
X16283Y72466D01*
X16209Y72492D01*
X16131Y72506D01*
X16053Y72508D01*
X15975Y72497D01*
X15899Y72474D01*
X15828Y72440D01*
X15764Y72395D01*
X15719Y72351D01*
Y74465D01*
X18647D01*
X18433Y74407D01*
X18010Y74252D01*
X17602Y74061D01*
X17213Y73835D01*
X17149Y73788D01*
X17094Y73731D01*
X17049Y73666D01*
X17014Y73594D01*
X16991Y73518D01*
X16981Y73440D01*
X16982Y73360D01*
X16996Y73282D01*
X17022Y73207D01*
X17060Y73138D01*
X17107Y73074D01*
X17165Y73019D01*
X17230Y72974D01*
X17301Y72939D01*
X17377Y72916D01*
X17456Y72905D01*
X17535Y72907D01*
X17613Y72921D01*
X17688Y72947D01*
X17757Y72986D01*
X18068Y73171D01*
X18396Y73324D01*
X18736Y73449D01*
X19086Y73543D01*
X19442Y73606D01*
X19803Y73638D01*
X19986D01*
Y65378D01*
X19803D01*
X19442Y65410D01*
X19086Y65473D01*
X18736Y65567D01*
X18396Y65691D01*
X18068Y65845D01*
X17755Y66027D01*
X17686Y66065D01*
X17612Y66091D01*
X17535Y66105D01*
X17456Y66106D01*
X17378Y66096D01*
X17303Y66073D01*
X17232Y66038D01*
X17167Y65993D01*
X17110Y65939D01*
X17063Y65876D01*
X17026Y65807D01*
X17000Y65732D01*
X16986Y65655D01*
X16985Y65576D01*
X16995Y65498D01*
X17018Y65423D01*
X17053Y65352D01*
X17098Y65288D01*
X17152Y65231D01*
X17216Y65185D01*
X17602Y64954D01*
X18010Y64763D01*
X18433Y64609D01*
X18867Y64492D01*
X19311Y64413D01*
X19759Y64374D01*
X19986D01*
Y12634D01*
X19759D01*
X19311Y12594D01*
X18867Y12516D01*
X18433Y12399D01*
X18010Y12244D01*
X17602Y12053D01*
X17213Y11827D01*
X17149Y11780D01*
X17094Y11723D01*
X17049Y11658D01*
X17014Y11586D01*
X16991Y11511D01*
X16981Y11432D01*
X16982Y11353D01*
X16996Y11275D01*
X17022Y11200D01*
X17060Y11130D01*
X17107Y11066D01*
X17165Y11011D01*
X17230Y10966D01*
X17301Y10931D01*
X17377Y10908D01*
X17456Y10898D01*
X17535Y10899D01*
X17613Y10913D01*
X17688Y10939D01*
X17757Y10978D01*
X18068Y11163D01*
X18396Y11317D01*
X18736Y11441D01*
X19086Y11535D01*
X19442Y11598D01*
X19803Y11630D01*
X19986D01*
Y3370D01*
G37*
G36*
X15719Y2965D02*X13492D01*
Y74465D01*
X15719D01*
Y72351D01*
X15707Y72340D01*
X15661Y72277D01*
X15431Y71890D01*
X15240Y71482D01*
X15085Y71059D01*
X14968Y70625D01*
X14890Y70181D01*
X14850Y69733D01*
Y69283D01*
X14890Y68834D01*
X14968Y68391D01*
X15085Y67956D01*
X15240Y67534D01*
X15431Y67126D01*
X15657Y66737D01*
X15704Y66673D01*
X15719Y66659D01*
Y10343D01*
X15707Y10332D01*
X15661Y10269D01*
X15431Y9882D01*
X15240Y9474D01*
X15085Y9052D01*
X14968Y8617D01*
X14890Y8174D01*
X14850Y7725D01*
Y7275D01*
X14890Y6826D01*
X14968Y6383D01*
X15085Y5949D01*
X15240Y5526D01*
X15431Y5118D01*
X15657Y4729D01*
X15704Y4665D01*
X15719Y4651D01*
Y2965D01*
G37*
G36*
X68357Y44465D02*X68542D01*
X68594Y44412D01*
X68528Y44396D01*
X68525Y44395D01*
X68357Y44465D01*
G37*
G36*
X124297Y15277D02*X112688D01*
X113144Y15811D01*
X113514Y16415D01*
X113785Y17070D01*
X113950Y17758D01*
X113992Y18465D01*
X113950Y19171D01*
X113785Y19859D01*
X113514Y20514D01*
X113144Y21118D01*
X112684Y21656D01*
X112145Y22116D01*
X111541Y22486D01*
X110887Y22758D01*
X110198Y22923D01*
X109492Y22978D01*
X108786Y22923D01*
X108097Y22758D01*
X107443Y22486D01*
X106839Y22116D01*
X106300Y21656D01*
X105840Y21118D01*
X105470Y20514D01*
X105199Y19859D01*
X105034Y19171D01*
X104978Y18465D01*
X105034Y17758D01*
X105199Y17070D01*
X105470Y16415D01*
X105840Y15811D01*
X106297Y15277D01*
X82688D01*
X83144Y15811D01*
X83514Y16415D01*
X83785Y17070D01*
X83950Y17758D01*
X83992Y18465D01*
X83950Y19171D01*
X83785Y19859D01*
X83558Y20409D01*
X97589Y34440D01*
X107450D01*
X108097Y34172D01*
X108786Y34006D01*
X109492Y33951D01*
X109856Y33979D01*
X111213Y32623D01*
X110887Y32758D01*
X110198Y32923D01*
X109492Y32978D01*
X108786Y32923D01*
X108097Y32758D01*
X107443Y32486D01*
X106839Y32116D01*
X106300Y31656D01*
X105840Y31118D01*
X105470Y30514D01*
X105199Y29859D01*
X105034Y29171D01*
X104978Y28465D01*
X105034Y27758D01*
X105199Y27070D01*
X105470Y26415D01*
X105840Y25811D01*
X106300Y25273D01*
X106839Y24813D01*
X107443Y24443D01*
X108097Y24172D01*
X108786Y24006D01*
X109492Y23951D01*
X110198Y24006D01*
X110887Y24172D01*
X111541Y24443D01*
X112145Y24813D01*
X112684Y25273D01*
X113144Y25811D01*
X113514Y26415D01*
X113785Y27070D01*
X113950Y27758D01*
X113992Y28465D01*
X113950Y29171D01*
X113785Y29859D01*
X113650Y30185D01*
X123427Y20409D01*
X123199Y19859D01*
X123034Y19171D01*
X122978Y18465D01*
X123034Y17758D01*
X123199Y17070D01*
X123470Y16415D01*
X123840Y15811D01*
X124297Y15277D01*
G37*
G36*
X73992Y92387D02*Y93965D01*
X76043D01*
X75557Y93763D01*
X74986Y93413D01*
X74478Y92979D01*
X74043Y92470D01*
X73992Y92387D01*
G37*
G36*
X159933Y73746D02*X160089D01*
X160649Y73186D01*
X160145Y73616D01*
X159933Y73746D01*
G37*
G36*
X142992Y92967D02*X141995Y93965D01*
X143374D01*
X143275Y93849D01*
X143151Y93648D01*
X143061Y93430D01*
X143006Y93200D01*
X142992Y92967D01*
G37*
G54D26*X179992Y55965D02*X160710Y75246D01*
X157492Y28465D02*Y18465D01*
X179992Y45965D02*X179492Y45464D01*
X165493Y55464D02*X169992Y50965D01*
X179992Y35965D02*X174992D01*
X169992Y30965D01*
X160710Y75246D02*X153905D01*
X142991Y86160D01*
Y90847D01*
X139323Y94515D01*
X179492Y45464D02*X152992D01*
X152496Y44969D01*
X194992Y50965D02*X169992D01*
X194992D02*X204992Y60965D01*
Y15965D02*Y40965D01*
X194992Y50965D01*
X139323Y94515D02*X106127D01*
X119807Y62872D02*X122617Y60062D01*
Y57990D01*
X125143Y55464D01*
X127492Y59965D02*X137492Y69965D01*
Y89965D01*
X74180Y13777D02*X152805D01*
X157492Y18465D01*
X152496Y44969D02*X70159D01*
X127492Y18465D02*X110017Y35940D01*
X96967D02*X110017D01*
X109492D02*Y38465D01*
X169992Y40965D02*X167991Y42965D01*
X68993D01*
X66992Y40965D01*
X125143Y55464D02*X165493D01*
X77992Y49465D02*X82243D01*
X66992Y20965D02*X74180Y13777D01*
X70159Y44969D02*X69163Y45965D01*
X96967Y35940D02*X79492Y18465D01*
X67577Y55965D02*X56992D01*
X66992Y50965D02*X69743Y53715D01*
X80872D01*
X91243Y58465D02*X82243Y49465D01*
X80872Y53715D02*X90029Y62872D01*
X69163Y45965D02*X56992D01*
X106127Y94515D02*X67577Y55965D01*
X117992Y58465D02*X91243D01*
X90029Y62872D02*X119807D01*
X41992Y50965D02*X66992D01*
X41992D02*X31992Y40965D01*
Y15965D01*
X19984Y69508D02*X23449D01*
X41992Y50965D02*X23449Y69508D01*
X19984Y7500D02*X23528D01*
X31992Y15965D01*
G54D25*G36*
X124492Y82965D02*Y76965D01*
X130492D01*
Y82965D01*
X124492D01*
G37*
G36*
X114742Y82715D02*Y77215D01*
X120242D01*
Y82715D01*
X114742D01*
G37*
G54D27*X117992Y58465D03*
G54D28*X109492Y8465D03*
Y18465D03*
Y28465D03*
Y38465D03*
G54D25*G36*
X124492Y41465D02*Y35465D01*
X130492D01*
Y41465D01*
X124492D01*
G37*
G54D28*X127492Y28465D03*
Y18465D03*
Y8465D03*
X157492D03*
Y18465D03*
Y28465D03*
X127492Y69965D03*
Y59965D03*
Y49965D03*
G54D27*X117992Y49465D03*
G54D25*G36*
X75242Y52215D02*Y46715D01*
X80742D01*
Y52215D01*
X75242D01*
G37*
G36*
X76492Y41465D02*Y35465D01*
X82492D01*
Y41465D01*
X76492D01*
G37*
G54D28*X79492Y28465D03*
G54D29*X66992Y50965D03*
Y40965D03*
Y30965D03*
G54D28*X79492Y18465D03*
Y8465D03*
G54D27*X77492Y79965D03*
Y89965D03*
G54D25*G36*
X75242Y61215D02*Y55715D01*
X80742D01*
Y61215D01*
X75242D01*
G37*
G54D29*X66992Y20965D03*
X56992Y55965D03*
Y45965D03*
Y35965D03*
Y25965D03*
G54D30*X31992Y60965D03*
Y15965D03*
G54D31*X19984Y69508D03*
Y7500D03*
G54D25*G36*
X144492Y92965D02*Y86965D01*
X150492D01*
Y92965D01*
X144492D01*
G37*
G54D28*X137492Y89965D03*
G54D25*G36*
X114742Y92715D02*Y87215D01*
X120242D01*
Y92715D01*
X114742D01*
G37*
G54D28*X157492Y59965D03*
Y69965D03*
Y79965D03*
Y38465D03*
Y49965D03*
G54D29*X169992Y30965D03*
Y20965D03*
G54D30*X204992Y15965D03*
G54D31*X217000Y7500D03*
G54D29*X169992Y50965D03*
Y40965D03*
X179992Y55965D03*
Y45965D03*
Y35965D03*
Y25965D03*
G54D30*X204992Y60965D03*
G54D31*X217000Y69508D03*
G54D32*G54D33*G54D32*G54D33*G54D32*G54D34*G54D32*G54D33*G54D34*G54D35*G54D36*G54D37*G54D33*G54D32*G54D34*G54D35*G54D36*G54D34*G54D35*G54D36*M02*
