M48
INCH
T45C0.038
T44C0.063
T43C0.128
T42C0.035
T41C0.030
T40C0.028
%
T40
X007949Y003846
X007949Y002846
X007949Y001846
X007949Y000846
X010949Y003846
X010949Y002846
X010949Y001846
X010949Y000846
X012749Y007996
X012749Y006996
X012749Y005996
X012749Y004996
X012749Y003846
X012749Y002846
X012749Y001846
X012749Y000846
X015749Y007996
X015749Y006996
X015749Y005996
X015749Y004996
X015749Y003846
X015749Y002846
X015749Y001846
X015749Y000846
T41
X007749Y008996
X007749Y007996
X007799Y005846
X007799Y004946
X011749Y008996
X011749Y007996
X011799Y005846
X011799Y004946
T42
X005699Y005596
X005699Y004596
X005699Y003596
X005699Y002596
X006699Y005096
X006699Y004096
X006699Y003096
X006699Y002096
X016999Y005096
X016999Y004096
X016999Y003096
X016999Y002096
X017999Y005596
X017999Y004596
X017999Y003596
X017999Y002596
T45
X013749Y008996
X014749Y008996
T44
X001998Y006951
X001998Y000750
X021700Y006951
X021700Y000750
T43
X003199Y006096
X003199Y001596
X020499Y006096
X020499Y001596
M30
