G04 start of page 8 for group -4079 idx -4079 *
G04 Title: (unknown), topsilk *
G04 Creator: pcb 20140316 *
G04 CreationDate: Fri 25 Mar 2016 01:42:22 PM GMT UTC *
G04 For: commonadmin *
G04 Format: Gerber/RS-274X *
G04 PCB-Dimensions (mil): 2380.00 955.00 *
G04 PCB-Coordinate-Origin: lower left *
%MOIN*%
%FSLAX25Y25*%
%LNTOPSILK*%
%ADD64C,0.0040*%
%ADD63C,0.0080*%
%ADD62C,0.0030*%
%ADD61C,0.0060*%
%ADD60C,0.0100*%
G54D60*X43922Y3262D02*X72898D01*
Y18183D02*Y3262D01*
X457D02*X43961D01*
G54D61*X56166Y56766D02*X57741Y55191D01*
Y56766D02*X56166Y55191D01*
G54D60*X72898Y60979D02*Y15979D01*
X43922Y73735D02*X72898D01*
Y59955D01*
X457Y73735D02*X43961D01*
X457D02*Y3262D01*
G54D62*X63056Y41438D02*X61556Y39563D01*
X61181Y41438D02*X63056D01*
X61556Y42563D02*Y39563D01*
X60281Y42188D02*X58031Y39938D01*
X55631Y42563D02*X57131D01*
X55631D02*X55256Y42188D01*
Y41288D01*
X55631Y40913D02*X55256Y41288D01*
X55631Y40913D02*X56756D01*
Y42563D02*Y39563D01*
X55631D02*X57131D01*
X55631D02*X55256Y39938D01*
Y40538D02*Y39938D01*
X55631Y40913D02*X55256Y40538D01*
X54356Y42188D02*Y39563D01*
Y42188D02*X53981Y42563D01*
X51320Y34052D02*X52820D01*
Y35552D02*Y34052D01*
Y35552D02*X52445Y35177D01*
X51695D02*X52445D01*
X51695D02*X51320Y35552D01*
Y36677D02*Y35552D01*
X51695Y37052D02*X51320Y36677D01*
X51695Y37052D02*X52445D01*
X52820Y36677D02*X52445Y37052D01*
X50420Y36677D02*X48170Y34427D01*
X47270Y35552D02*Y34052D01*
Y35552D02*X46895Y37052D01*
X46145Y35552D01*
X45395Y37052D01*
X45020Y35552D01*
Y34052D01*
X42620Y37052D02*X44120D01*
X42620D02*X42245Y36677D01*
Y35777D01*
X42620Y35402D02*X42245Y35777D01*
X42620Y35402D02*X43745D01*
Y37052D02*Y34052D01*
X42620D02*X44120D01*
X42620D02*X42245Y34427D01*
Y35027D02*Y34427D01*
X42620Y35402D02*X42245Y35027D01*
X41345Y36677D02*Y34052D01*
Y36677D02*X40970Y37052D01*
X61537Y29721D02*X61162Y30096D01*
X61537Y29721D02*X62287D01*
X62662Y30096D02*X62287Y29721D01*
X62662Y32346D02*Y30096D01*
Y32346D02*X62287Y32721D01*
X61537Y31071D02*X61162Y31446D01*
X61537Y31071D02*X62662D01*
X61537Y32721D02*X62287D01*
X61537D02*X61162Y32346D01*
Y31446D01*
X60262Y32346D02*X58012Y30096D01*
X57112Y32346D02*Y30096D01*
X56737Y29721D01*
X55987D02*X56737D01*
X55987D02*X55612Y30096D01*
Y32346D02*Y30096D01*
X55987Y32721D02*X55612Y32346D01*
X55987Y32721D02*X56737D01*
X57112Y32346D02*X56737Y32721D01*
X62662Y22110D02*X62287Y22485D01*
X62662Y22110D02*Y21510D01*
X62137Y20985D01*
X61687D02*X62137D01*
X61687D02*X61162Y21510D01*
Y22110D02*Y21510D01*
X61537Y22485D02*X61162Y22110D01*
X61537Y22485D02*X62287D01*
X62662Y20460D02*X62137Y20985D01*
X62662Y20460D02*Y19860D01*
X62287Y19485D01*
X61537D02*X62287D01*
X61537D02*X61162Y19860D01*
Y20460D02*Y19860D01*
X61687Y20985D02*X61162Y20460D01*
X60262Y22110D02*X58012Y19860D01*
X55612Y22485D02*X57112D01*
X55612D02*X55237Y22110D01*
Y21210D01*
X55612Y20835D02*X55237Y21210D01*
X55612Y20835D02*X56737D01*
Y22485D02*Y19485D01*
X55612D02*X57112D01*
X55612D02*X55237Y19860D01*
Y20460D02*Y19860D01*
X55612Y20835D02*X55237Y20460D01*
X53962Y22485D02*Y21360D01*
X53587Y20985D01*
X52837D02*X53587D01*
X54337D02*X53962Y21360D01*
X52426Y55124D02*X51826Y54524D01*
Y57524D02*Y54524D01*
X51301Y57524D02*X52426D01*
X50401Y57149D02*X48151Y54899D01*
X47251Y56024D02*Y54524D01*
Y56024D02*X46876Y57524D01*
X46126Y56024D01*
X45376Y57524D01*
X45001Y56024D01*
Y54524D01*
X42601D02*X42226Y54899D01*
X42601Y54524D02*X43726D01*
X44101Y54899D02*X43726Y54524D01*
X44101Y57149D02*Y54899D01*
Y57149D02*X43726Y57524D01*
X42601D02*X43726D01*
X42601D02*X42226Y57149D01*
Y56399D01*
X42601Y56024D02*X42226Y56399D01*
X42601Y56024D02*X43351D01*
X63056Y49781D02*X62681Y49406D01*
X61556D02*X62681D01*
X61556D02*X61181Y49781D01*
Y50531D02*Y49781D01*
X63056Y52406D02*X61181Y50531D01*
Y52406D02*X63056D01*
X60281Y52031D02*X58031Y49781D01*
X55631Y49406D02*X55256Y49781D01*
X55631Y49406D02*X56756D01*
X57131Y49781D02*X56756Y49406D01*
X57131Y52031D02*Y49781D01*
Y52031D02*X56756Y52406D01*
X55631D02*X56756D01*
X55631D02*X55256Y52031D01*
Y51281D01*
X55631Y50906D02*X55256Y51281D01*
X55631Y50906D02*X56381D01*
X52820Y44663D02*X52445Y44288D01*
X51695D02*X52445D01*
X51695D02*X51320Y44663D01*
X51695Y47288D02*X51320Y46913D01*
X51695Y47288D02*X52445D01*
X52820Y46913D02*X52445Y47288D01*
X51695Y45638D02*X52445D01*
X51320Y45263D02*Y44663D01*
Y46913D02*Y46013D01*
X51695Y45638D01*
X51320Y45263D02*X51695Y45638D01*
X50420Y46913D02*X48170Y44663D01*
X47270Y45788D02*Y44288D01*
Y45788D02*X46895Y47288D01*
X46145Y45788D01*
X45395Y47288D01*
X45020Y45788D01*
Y44288D01*
X44120Y46913D02*Y44663D01*
X43745Y44288D01*
X42995D02*X43745D01*
X42995D02*X42620Y44663D01*
Y46913D02*Y44663D01*
X42995Y47288D02*X42620Y46913D01*
X42995Y47288D02*X43745D01*
X44120Y46913D02*X43745Y47288D01*
X52445Y27603D02*X50945Y24603D01*
X52820D01*
X50045Y27228D02*X47795Y24978D01*
X46895Y26103D02*Y24603D01*
Y26103D02*X46520Y27603D01*
X45770Y26103D01*
X45020Y27603D01*
X44645Y26103D01*
Y24603D01*
X42245Y27603D02*X43745D01*
X42245D02*X41870Y27228D01*
Y26328D01*
X42245Y25953D02*X41870Y26328D01*
X42245Y25953D02*X43370D01*
Y27603D02*Y24603D01*
X42245D02*X43745D01*
X42245D02*X41870Y24978D01*
Y25578D02*Y24978D01*
X42245Y25953D02*X41870Y25578D01*
X40595Y27603D02*Y26478D01*
X40220Y26103D01*
X39470D02*X40220D01*
X40970D02*X40595Y26478D01*
X65062Y69916D02*Y68416D01*
X62062Y69166D02*X65062D01*
Y67516D02*Y66016D01*
X63562Y67516D02*X65062D01*
X63562D02*X63937Y67141D01*
Y66391D01*
X63562Y66016D01*
X62437D02*X63562D01*
X62062Y66391D02*X62437Y66016D01*
X62062Y67141D02*Y66391D01*
X62437Y67516D02*X62062Y67141D01*
X65062Y63991D02*X64687Y63616D01*
X65062Y64741D02*Y63991D01*
X64687Y65116D02*X65062Y64741D01*
X62437Y65116D02*X64687D01*
X62437D02*X62062Y64741D01*
X63712Y63991D02*X63337Y63616D01*
X63712Y65116D02*Y63991D01*
X62062Y64741D02*Y63991D01*
X62437Y63616D01*
X63337D01*
X62437Y62716D02*X62062Y62341D01*
X62437Y62716D02*X63037D01*
X63562Y62191D01*
Y61741D01*
X63037Y61216D01*
X62437D02*X63037D01*
X62062Y61591D02*X62437Y61216D01*
X62062Y62341D02*Y61591D01*
X64087Y62716D02*X63562Y62191D01*
X64087Y62716D02*X64687D01*
X65062Y62341D01*
Y61591D01*
X64687Y61216D01*
X64087D02*X64687D01*
X63562Y61741D02*X64087Y61216D01*
X62062Y60316D02*X64312D01*
X65062Y59791D01*
Y58966D01*
X64312Y58441D01*
X62062D02*X64312D01*
X63562Y60316D02*Y58441D01*
G54D60*X77992Y49465D02*X87992D01*
X107992D02*X117992D01*
X87992Y52765D02*X107992D01*
Y46165D01*
X87992D01*
Y52765D01*
X74492Y43465D02*Y3465D01*
X114492D01*
Y43465D01*
X74492D02*X89492D01*
X99492D02*X114492D01*
X89492D02*G75*G03X99492Y43465I5000J0D01*G01*
X132492Y94965D02*X152492D01*
X132492D02*Y84965D01*
X152492D01*
Y94965D02*Y84965D01*
X142492Y94965D02*Y84965D01*
X152492D01*
X122492Y43465D02*Y3465D01*
X162492D01*
Y43465D01*
X122492D02*X137492D01*
X147492D02*X162492D01*
X137492D02*G75*G03X147492Y43465I5000J0D01*G01*
X122492Y84965D02*Y44965D01*
X162492D01*
Y84965D01*
X122492D02*X137492D01*
X147492D02*X162492D01*
X137492D02*G75*G03X147492Y84965I5000J0D01*G01*
X72937Y60965D02*Y15965D01*
Y73720D02*Y59941D01*
X43961Y3248D02*X72937D01*
Y18169D02*Y3248D01*
X496D02*X44000D01*
X43961Y73720D02*X72937D01*
X496D02*X44000D01*
X496D02*Y3248D01*
X107492Y79965D02*X117492D01*
X77492D02*X87492D01*
Y76665D02*X107492D01*
X87492Y83265D02*Y76665D01*
Y83265D02*X107492D01*
Y76665D01*
Y89965D02*X117492D01*
X77492D02*X87492D01*
Y86665D02*X107492D01*
X87492Y93265D02*Y86665D01*
Y93265D02*X107492D01*
Y86665D01*
G54D63*X100119Y73779D02*X104055D01*
X100119Y63151D02*X104055D01*
G54D60*X77992Y58465D02*X87992D01*
X107992D02*X117992D01*
X87992Y61765D02*X107992D01*
Y55165D01*
X87992D01*
Y61765D01*
G54D64*X91492Y51265D02*X93492D01*
X93992Y50765D01*
Y49765D01*
X93492Y49265D02*X93992Y49765D01*
X91992Y49265D02*X93492D01*
X91992Y51265D02*Y47265D01*
X92792Y49265D02*X93992Y47265D01*
X95192Y50765D02*X95692Y51265D01*
X97192D01*
X97692Y50765D01*
Y49765D01*
X95192Y47265D02*X97692Y49765D01*
X95192Y47265D02*X97692D01*
X91992Y29465D02*X95492D01*
X91992D02*X91492Y28965D01*
Y27965D01*
X91992Y27465D01*
X95492D01*
X94692Y26265D02*X95492Y25465D01*
X91492D02*X95492D01*
X91492Y26265D02*Y24765D01*
X101992Y78165D02*X103992D01*
X101992D02*X101492Y78665D01*
Y79665D02*Y78665D01*
X101992Y80165D02*X101492Y79665D01*
X101992Y80165D02*X103492D01*
Y82165D02*Y78165D01*
X102692Y80165D02*X101492Y82165D01*
X100292Y78665D02*X99792Y78165D01*
X98792D02*X99792D01*
X98792D02*X98292Y78665D01*
X98792Y82165D02*X98292Y81665D01*
X98792Y82165D02*X99792D01*
X100292Y81665D02*X99792Y82165D01*
X98792Y79965D02*X99792D01*
X98292Y79465D02*Y78665D01*
Y81665D02*Y80465D01*
X98792Y79965D01*
X98292Y79465D02*X98792Y79965D01*
X102492Y88165D02*X104492D01*
X102492D02*X101992Y88665D01*
Y89665D02*Y88665D01*
X102492Y90165D02*X101992Y89665D01*
X102492Y90165D02*X103992D01*
Y92165D02*Y88165D01*
X103192Y90165D02*X101992Y92165D01*
X100792Y90665D02*X98792Y88165D01*
X98292Y90665D02*X100792D01*
X98792Y92165D02*Y88165D01*
X99637Y66615D02*X100937D01*
X98937Y67315D02*X99637Y66615D01*
X98937Y69915D02*Y67315D01*
Y69915D02*X99637Y70615D01*
X100937D01*
X102137Y69815D02*X102937Y70615D01*
Y66615D01*
X102137D02*X103637D01*
X158992Y89965D02*Y85965D01*
X156992D02*X158992D01*
X157492Y87765D02*X158992D01*
X155792Y86765D02*X154992Y85965D01*
Y89965D02*Y85965D01*
X154292Y89965D02*X155792D01*
X140992Y29465D02*X144492D01*
X140992D02*X140492Y28965D01*
Y27965D01*
X140992Y27465D01*
X144492D01*
X143992Y26265D02*X144492Y25765D01*
Y24765D01*
X143992Y24265D01*
X140492Y24765D02*X140992Y24265D01*
X140492Y25765D02*Y24765D01*
X140992Y26265D02*X140492Y25765D01*
X142692D02*Y24765D01*
X143192Y24265D02*X143992D01*
X140992D02*X142192D01*
X142692Y24765D01*
X143192Y24265D02*X142692Y24765D01*
X140992Y74465D02*X144492D01*
X140992D02*X140492Y73965D01*
Y72965D01*
X140992Y72465D01*
X144492D01*
X143992Y71265D02*X144492Y70765D01*
Y69265D01*
X143992Y68765D01*
X142992D02*X143992D01*
X140492Y71265D02*X142992Y68765D01*
X140492Y71265D02*Y68765D01*
X90992Y60265D02*X92992D01*
X93492Y59765D01*
Y58765D01*
X92992Y58265D02*X93492Y58765D01*
X91492Y58265D02*X92992D01*
X91492Y60265D02*Y56265D01*
X92292Y58265D02*X93492Y56265D01*
X94692Y59465D02*X95492Y60265D01*
Y56265D01*
X94692D02*X96192D01*
X20992Y40965D02*Y39965D01*
X16992Y40465D02*X20992D01*
X16992Y40965D02*Y39965D01*
Y38765D02*X20992D01*
Y36765D01*
X19192Y38765D02*Y37265D01*
X20192Y35565D02*X20992Y34765D01*
X16992D02*X20992D01*
X16992Y35565D02*Y34065D01*
X80924Y70650D02*X82924D01*
X83424Y70150D01*
Y69150D01*
X82924Y68650D02*X83424Y69150D01*
X81424Y68650D02*X82924D01*
X81424Y70650D02*Y66650D01*
X82224Y68650D02*X83424Y66650D01*
X84624Y70650D02*X86624D01*
X84624D02*Y68650D01*
X85124Y69150D01*
X86124D01*
X86624Y68650D01*
Y67150D01*
X86124Y66650D02*X86624Y67150D01*
X85124Y66650D02*X86124D01*
X84624Y67150D02*X85124Y66650D01*
M02*
