G04 start of page 12 for group -3984 idx -3984 *
G04 Title: (unknown), fab *
G04 Creator: pcb 20140316 *
G04 CreationDate: Fri 25 Mar 2016 01:42:07 PM GMT UTC *
G04 For: commonadmin *
G04 Format: Gerber/RS-274X *
G04 PCB-Dimensions (mil): 1410.00 1650.00 *
G04 PCB-Coordinate-Origin: lower left *
%MOIN*%
%FSLAX25Y25*%
%LNFAB*%
%ADD95C,0.0100*%
%ADD94C,0.0075*%
%ADD93C,0.0060*%
%ADD92R,0.0080X0.0080*%
G54D92*X18500Y24200D02*Y17800D01*
X15300Y21000D02*X21700D01*
X16900Y22600D02*X20100D01*
X16900D02*Y19400D01*
X20100D01*
Y22600D02*Y19400D01*
X46846Y24200D02*Y17800D01*
X43646Y21000D02*X50046D01*
X45246Y22600D02*X48446D01*
X45246D02*Y19400D01*
X48446D01*
Y22600D02*Y19400D01*
X92500Y112700D02*Y106300D01*
X89300Y109500D02*X95700D01*
X90900Y111100D02*X94100D01*
X90900D02*Y107900D01*
X94100D01*
Y111100D02*Y107900D01*
X120846Y112700D02*Y106300D01*
X117646Y109500D02*X124046D01*
X119246Y111100D02*X122446D01*
X119246D02*Y107900D01*
X122446D01*
Y111100D02*Y107900D01*
X15000Y179450D02*Y173050D01*
X11800Y176250D02*X18200D01*
X13400Y177850D02*X16600D01*
X13400D02*Y174650D01*
X16600D01*
Y177850D02*Y174650D01*
G54D93*X135000Y178500D02*X136500Y175500D01*
X138000Y178500D01*
X136500Y175500D02*Y172500D01*
X139800Y175800D02*X142050D01*
X139800Y172500D02*X142800D01*
X139800Y178500D02*Y172500D01*
Y178500D02*X142800D01*
X147600D02*X148350Y177750D01*
X145350Y178500D02*X147600D01*
X144600Y177750D02*X145350Y178500D01*
X144600Y177750D02*Y176250D01*
X145350Y175500D01*
X147600D01*
X148350Y174750D01*
Y173250D01*
X147600Y172500D02*X148350Y173250D01*
X145350Y172500D02*X147600D01*
X144600Y173250D02*X145350Y172500D01*
X98000Y174750D02*X101000Y178500D01*
X98000Y174750D02*X101750D01*
X101000Y178500D02*Y172500D01*
X45000Y173250D02*X45750Y172500D01*
X45000Y177750D02*Y173250D01*
Y177750D02*X45750Y178500D01*
X47250D01*
X48000Y177750D01*
Y173250D01*
X47250Y172500D02*X48000Y173250D01*
X45750Y172500D02*X47250D01*
X45000Y174000D02*X48000Y177000D01*
X49800Y172500D02*X50550D01*
X52350Y177300D02*X53550Y178500D01*
Y172500D01*
X52350D02*X54600D01*
X56400Y173250D02*X57150Y172500D01*
X56400Y174450D02*Y173250D01*
Y174450D02*X57450Y175500D01*
X58350D01*
X59400Y174450D01*
Y173250D01*
X58650Y172500D02*X59400Y173250D01*
X57150Y172500D02*X58650D01*
X56400Y176550D02*X57450Y175500D01*
X56400Y177750D02*Y176550D01*
Y177750D02*X57150Y178500D01*
X58650D01*
X59400Y177750D01*
Y176550D01*
X58350Y175500D02*X59400Y176550D01*
X61950Y172500D02*X64950Y178500D01*
X61200D02*X64950D01*
X33000Y96000D02*Y92800D01*
Y96000D02*X35773Y97600D01*
X33000Y96000D02*X30227Y97600D01*
X31400Y96000D02*G75*G03X34600Y96000I1600J0D01*G01*
G75*G03X31400Y96000I-1600J0D01*G01*
X33000Y51000D02*Y47800D01*
Y51000D02*X35773Y52600D01*
X33000Y51000D02*X30227Y52600D01*
X31400Y51000D02*G75*G03X34600Y51000I1600J0D01*G01*
G75*G03X31400Y51000I-1600J0D01*G01*
X15000Y191250D02*Y188050D01*
Y191250D02*X17773Y192850D01*
X15000Y191250D02*X12227Y192850D01*
X13400Y191250D02*G75*G03X16600Y191250I1600J0D01*G01*
G75*G03X13400Y191250I-1600J0D01*G01*
X135000Y193500D02*X136500Y190500D01*
X138000Y193500D01*
X136500Y190500D02*Y187500D01*
X139800Y190800D02*X142050D01*
X139800Y187500D02*X142800D01*
X139800Y193500D02*Y187500D01*
Y193500D02*X142800D01*
X147600D02*X148350Y192750D01*
X145350Y193500D02*X147600D01*
X144600Y192750D02*X145350Y193500D01*
X144600Y192750D02*Y191250D01*
X145350Y190500D01*
X147600D01*
X148350Y189750D01*
Y188250D01*
X147600Y187500D02*X148350Y188250D01*
X145350Y187500D02*X147600D01*
X144600Y188250D02*X145350Y187500D01*
X98000Y192750D02*X98750Y193500D01*
X101000D01*
X101750Y192750D01*
Y191250D01*
X98000Y187500D02*X101750Y191250D01*
X98000Y187500D02*X101750D01*
X45000Y188250D02*X45750Y187500D01*
X45000Y192750D02*Y188250D01*
Y192750D02*X45750Y193500D01*
X47250D01*
X48000Y192750D01*
Y188250D01*
X47250Y187500D02*X48000Y188250D01*
X45750Y187500D02*X47250D01*
X45000Y189000D02*X48000Y192000D01*
X49800Y187500D02*X50550D01*
X52350Y192300D02*X53550Y193500D01*
Y187500D01*
X52350D02*X54600D01*
X56400Y192750D02*X57150Y193500D01*
X59400D01*
X60150Y192750D01*
Y191250D01*
X56400Y187500D02*X60150Y191250D01*
X56400Y187500D02*X60150D01*
X61950Y188250D02*X62700Y187500D01*
X61950Y189450D02*Y188250D01*
Y189450D02*X63000Y190500D01*
X63900D01*
X64950Y189450D01*
Y188250D01*
X64200Y187500D02*X64950Y188250D01*
X62700Y187500D02*X64200D01*
X61950Y191550D02*X63000Y190500D01*
X61950Y192750D02*Y191550D01*
Y192750D02*X62700Y193500D01*
X64200D01*
X64950Y192750D01*
Y191550D01*
X63900Y190500D02*X64950Y191550D01*
X19392Y106143D02*X22592D01*
X19392D02*Y102943D01*
X22592D01*
Y106143D02*Y102943D01*
X19392Y44135D02*X22592D01*
X19392D02*Y40935D01*
X22592D01*
Y44135D02*Y40935D01*
X13400Y207850D02*X16600D01*
X13400D02*Y204650D01*
X16600D01*
Y207850D02*Y204650D01*
X135000Y208500D02*X136500Y205500D01*
X138000Y208500D01*
X136500Y205500D02*Y202500D01*
X139800Y205800D02*X142050D01*
X139800Y202500D02*X142800D01*
X139800Y208500D02*Y202500D01*
Y208500D02*X142800D01*
X147600D02*X148350Y207750D01*
X145350Y208500D02*X147600D01*
X144600Y207750D02*X145350Y208500D01*
X144600Y207750D02*Y206250D01*
X145350Y205500D01*
X147600D01*
X148350Y204750D01*
Y203250D01*
X147600Y202500D02*X148350Y203250D01*
X145350Y202500D02*X147600D01*
X144600Y203250D02*X145350Y202500D01*
X98000Y207750D02*X98750Y208500D01*
X101000D01*
X101750Y207750D01*
Y206250D01*
X98000Y202500D02*X101750Y206250D01*
X98000Y202500D02*X101750D01*
X45000Y203250D02*X45750Y202500D01*
X45000Y207750D02*Y203250D01*
Y207750D02*X45750Y208500D01*
X47250D01*
X48000Y207750D01*
Y203250D01*
X47250Y202500D02*X48000Y203250D01*
X45750Y202500D02*X47250D01*
X45000Y204000D02*X48000Y207000D01*
X49800Y202500D02*X50550D01*
X52350Y203250D02*X53100Y202500D01*
X52350Y207750D02*Y203250D01*
Y207750D02*X53100Y208500D01*
X54600D01*
X55350Y207750D01*
Y203250D01*
X54600Y202500D02*X55350Y203250D01*
X53100Y202500D02*X54600D01*
X52350Y204000D02*X55350Y207000D01*
X59400Y208500D02*X60150Y207750D01*
X57900Y208500D02*X59400D01*
X57150Y207750D02*X57900Y208500D01*
X57150Y207750D02*Y203250D01*
X57900Y202500D01*
X59400Y205800D02*X60150Y205050D01*
X57150Y205800D02*X59400D01*
X57900Y202500D02*X59400D01*
X60150Y203250D01*
Y205050D02*Y203250D01*
X61950Y207750D02*X62700Y208500D01*
X64200D01*
X64950Y207750D01*
X64200Y202500D02*X64950Y203250D01*
X62700Y202500D02*X64200D01*
X61950Y203250D02*X62700Y202500D01*
Y205800D02*X64200D01*
X64950Y207750D02*Y206550D01*
Y205050D02*Y203250D01*
Y205050D02*X64200Y205800D01*
X64950Y206550D02*X64200Y205800D01*
X127200Y79500D02*G75*G03X128800Y79500I800J0D01*G01*
G75*G03X127200Y79500I-800J0D01*G01*
Y69500D02*G75*G03X128800Y69500I800J0D01*G01*
G75*G03X127200Y69500I-800J0D01*G01*
Y57000D02*G75*G03X128800Y57000I800J0D01*G01*
G75*G03X127200Y57000I-800J0D01*G01*
Y47000D02*G75*G03X128800Y47000I800J0D01*G01*
G75*G03X127200Y47000I-800J0D01*G01*
X28700Y138500D02*G75*G03X30300Y138500I800J0D01*G01*
G75*G03X28700Y138500I-800J0D01*G01*
Y148500D02*G75*G03X30300Y148500I800J0D01*G01*
G75*G03X28700Y148500I-800J0D01*G01*
Y158500D02*G75*G03X30300Y158500I800J0D01*G01*
G75*G03X28700Y158500I-800J0D01*G01*
X17200Y138500D02*G75*G03X18800Y138500I800J0D01*G01*
G75*G03X17200Y138500I-800J0D01*G01*
Y148500D02*G75*G03X18800Y148500I800J0D01*G01*
G75*G03X17200Y148500I-800J0D01*G01*
Y158500D02*G75*G03X18800Y158500I800J0D01*G01*
G75*G03X17200Y158500I-800J0D01*G01*
X5700Y138500D02*G75*G03X7300Y138500I800J0D01*G01*
G75*G03X5700Y138500I-800J0D01*G01*
Y148500D02*G75*G03X7300Y148500I800J0D01*G01*
G75*G03X5700Y148500I-800J0D01*G01*
Y158500D02*G75*G03X7300Y158500I800J0D01*G01*
G75*G03X5700Y158500I-800J0D01*G01*
X68200D02*G75*G03X69800Y158500I800J0D01*G01*
G75*G03X68200Y158500I-800J0D01*G01*
Y148500D02*G75*G03X69800Y148500I800J0D01*G01*
G75*G03X68200Y148500I-800J0D01*G01*
X14200Y221250D02*G75*G03X15800Y221250I800J0D01*G01*
G75*G03X14200Y221250I-800J0D01*G01*
X135000Y223500D02*X136500Y220500D01*
X138000Y223500D01*
X136500Y220500D02*Y217500D01*
X139800Y220800D02*X142050D01*
X139800Y217500D02*X142800D01*
X139800Y223500D02*Y217500D01*
Y223500D02*X142800D01*
X147600D02*X148350Y222750D01*
X145350Y223500D02*X147600D01*
X144600Y222750D02*X145350Y223500D01*
X144600Y222750D02*Y221250D01*
X145350Y220500D01*
X147600D01*
X148350Y219750D01*
Y218250D01*
X147600Y217500D02*X148350Y218250D01*
X145350Y217500D02*X147600D01*
X144600Y218250D02*X145350Y217500D01*
X98000Y222300D02*X99200Y223500D01*
Y217500D01*
X98000D02*X100250D01*
X102050Y223500D02*X105050D01*
X102050D02*Y220500D01*
X102800Y221250D01*
X104300D01*
X105050Y220500D01*
Y218250D01*
X104300Y217500D02*X105050Y218250D01*
X102800Y217500D02*X104300D01*
X102050Y218250D02*X102800Y217500D01*
X45000Y218250D02*X45750Y217500D01*
X45000Y222750D02*Y218250D01*
Y222750D02*X45750Y223500D01*
X47250D01*
X48000Y222750D01*
Y218250D01*
X47250Y217500D02*X48000Y218250D01*
X45750Y217500D02*X47250D01*
X45000Y219000D02*X48000Y222000D01*
X49800Y217500D02*X50550D01*
X52350Y218250D02*X53100Y217500D01*
X52350Y222750D02*Y218250D01*
Y222750D02*X53100Y223500D01*
X54600D01*
X55350Y222750D01*
Y218250D01*
X54600Y217500D02*X55350Y218250D01*
X53100Y217500D02*X54600D01*
X52350Y219000D02*X55350Y222000D01*
X57150Y222750D02*X57900Y223500D01*
X59400D01*
X60150Y222750D01*
X59400Y217500D02*X60150Y218250D01*
X57900Y217500D02*X59400D01*
X57150Y218250D02*X57900Y217500D01*
Y220800D02*X59400D01*
X60150Y222750D02*Y221550D01*
Y220050D02*Y218250D01*
Y220050D02*X59400Y220800D01*
X60150Y221550D02*X59400Y220800D01*
X61950Y218250D02*X62700Y217500D01*
X61950Y219450D02*Y218250D01*
Y219450D02*X63000Y220500D01*
X63900D01*
X64950Y219450D01*
Y218250D01*
X64200Y217500D02*X64950Y218250D01*
X62700Y217500D02*X64200D01*
X61950Y221550D02*X63000Y220500D01*
X61950Y222750D02*Y221550D01*
Y222750D02*X62700Y223500D01*
X64200D01*
X64950Y222750D01*
Y221550D01*
X63900Y220500D02*X64950Y221550D01*
X10800Y128200D02*X13200Y125800D01*
X10800D02*X13200Y128200D01*
X5800Y107200D02*X8200Y104800D01*
X5800D02*X8200Y107200D01*
X66800Y87200D02*X69200Y84800D01*
X66800D02*X69200Y87200D01*
X66800Y77200D02*X69200Y74800D01*
X66800D02*X69200Y77200D01*
X66800Y67200D02*X69200Y64800D01*
X66800D02*X69200Y67200D01*
X66800Y57200D02*X69200Y54800D01*
X66800D02*X69200Y57200D01*
X56800Y92200D02*X59200Y89800D01*
X56800D02*X59200Y92200D01*
X56800Y82200D02*X59200Y79800D01*
X56800D02*X59200Y82200D01*
X56800Y72200D02*X59200Y69800D01*
X56800D02*X59200Y72200D01*
X56800Y62200D02*X59200Y59800D01*
X56800D02*X59200Y62200D01*
X13800Y237450D02*X16200Y235050D01*
X13800D02*X16200Y237450D01*
X135000Y238500D02*X136500Y235500D01*
X138000Y238500D01*
X136500Y235500D02*Y232500D01*
X139800Y235800D02*X142050D01*
X139800Y232500D02*X142800D01*
X139800Y238500D02*Y232500D01*
Y238500D02*X142800D01*
X147600D02*X148350Y237750D01*
X145350Y238500D02*X147600D01*
X144600Y237750D02*X145350Y238500D01*
X144600Y237750D02*Y236250D01*
X145350Y235500D01*
X147600D01*
X148350Y234750D01*
Y233250D01*
X147600Y232500D02*X148350Y233250D01*
X145350Y232500D02*X147600D01*
X144600Y233250D02*X145350Y232500D01*
X98000Y237300D02*X99200Y238500D01*
Y232500D01*
X98000D02*X100250D01*
X102050Y233250D02*X102800Y232500D01*
X102050Y237750D02*Y233250D01*
Y237750D02*X102800Y238500D01*
X104300D01*
X105050Y237750D01*
Y233250D01*
X104300Y232500D02*X105050Y233250D01*
X102800Y232500D02*X104300D01*
X102050Y234000D02*X105050Y237000D01*
X45000Y233250D02*X45750Y232500D01*
X45000Y237750D02*Y233250D01*
Y237750D02*X45750Y238500D01*
X47250D01*
X48000Y237750D01*
Y233250D01*
X47250Y232500D02*X48000Y233250D01*
X45750Y232500D02*X47250D01*
X45000Y234000D02*X48000Y237000D01*
X49800Y232500D02*X50550D01*
X52350Y233250D02*X53100Y232500D01*
X52350Y237750D02*Y233250D01*
Y237750D02*X53100Y238500D01*
X54600D01*
X55350Y237750D01*
Y233250D01*
X54600Y232500D02*X55350Y233250D01*
X53100Y232500D02*X54600D01*
X52350Y234000D02*X55350Y237000D01*
X57150Y237750D02*X57900Y238500D01*
X59400D01*
X60150Y237750D01*
X59400Y232500D02*X60150Y233250D01*
X57900Y232500D02*X59400D01*
X57150Y233250D02*X57900Y232500D01*
Y235800D02*X59400D01*
X60150Y237750D02*Y236550D01*
Y235050D02*Y233250D01*
Y235050D02*X59400Y235800D01*
X60150Y236550D02*X59400Y235800D01*
X61950Y238500D02*X64950D01*
X61950D02*Y235500D01*
X62700Y236250D01*
X64200D01*
X64950Y235500D01*
Y233250D01*
X64200Y232500D02*X64950Y233250D01*
X62700Y232500D02*X64200D01*
X61950Y233250D02*X62700Y232500D01*
X92500Y73600D02*Y70400D01*
X90900Y72000D02*X94100D01*
X92500Y23600D02*Y20400D01*
X90900Y22000D02*X94100D01*
X82500Y43600D02*Y40400D01*
X80900Y42000D02*X84100D01*
X116000Y73600D02*Y70400D01*
X114400Y72000D02*X117600D01*
X116000Y23600D02*Y20400D01*
X114400Y22000D02*X117600D01*
X106000Y43600D02*Y40400D01*
X104400Y42000D02*X107600D01*
X15000Y252850D02*Y249650D01*
X13400Y251250D02*X16600D01*
X135000Y253500D02*X136500Y250500D01*
X138000Y253500D01*
X136500Y250500D02*Y247500D01*
X139800Y250800D02*X142050D01*
X139800Y247500D02*X142800D01*
X139800Y253500D02*Y247500D01*
Y253500D02*X142800D01*
X147600D02*X148350Y252750D01*
X145350Y253500D02*X147600D01*
X144600Y252750D02*X145350Y253500D01*
X144600Y252750D02*Y251250D01*
X145350Y250500D01*
X147600D01*
X148350Y249750D01*
Y248250D01*
X147600Y247500D02*X148350Y248250D01*
X145350Y247500D02*X147600D01*
X144600Y248250D02*X145350Y247500D01*
X100250Y253500D02*X101000Y252750D01*
X98750Y253500D02*X100250D01*
X98000Y252750D02*X98750Y253500D01*
X98000Y252750D02*Y248250D01*
X98750Y247500D01*
X100250Y250800D02*X101000Y250050D01*
X98000Y250800D02*X100250D01*
X98750Y247500D02*X100250D01*
X101000Y248250D01*
Y250050D02*Y248250D01*
X45000D02*X45750Y247500D01*
X45000Y252750D02*Y248250D01*
Y252750D02*X45750Y253500D01*
X47250D01*
X48000Y252750D01*
Y248250D01*
X47250Y247500D02*X48000Y248250D01*
X45750Y247500D02*X47250D01*
X45000Y249000D02*X48000Y252000D01*
X49800Y247500D02*X50550D01*
X52350Y248250D02*X53100Y247500D01*
X52350Y252750D02*Y248250D01*
Y252750D02*X53100Y253500D01*
X54600D01*
X55350Y252750D01*
Y248250D01*
X54600Y247500D02*X55350Y248250D01*
X53100Y247500D02*X54600D01*
X52350Y249000D02*X55350Y252000D01*
X57150Y252750D02*X57900Y253500D01*
X59400D01*
X60150Y252750D01*
X59400Y247500D02*X60150Y248250D01*
X57900Y247500D02*X59400D01*
X57150Y248250D02*X57900Y247500D01*
Y250800D02*X59400D01*
X60150Y252750D02*Y251550D01*
Y250050D02*Y248250D01*
Y250050D02*X59400Y250800D01*
X60150Y251550D02*X59400Y250800D01*
X61950Y248250D02*X62700Y247500D01*
X61950Y252750D02*Y248250D01*
Y252750D02*X62700Y253500D01*
X64200D01*
X64950Y252750D01*
Y248250D01*
X64200Y247500D02*X64950Y248250D01*
X62700Y247500D02*X64200D01*
X61950Y249000D02*X64950Y252000D01*
X64500Y122000D02*Y120400D01*
Y122000D02*X65887Y122800D01*
X64500Y122000D02*X63113Y122800D01*
X42700Y122000D02*Y120400D01*
Y122000D02*X44087Y122800D01*
X42700Y122000D02*X41313Y122800D01*
X80000Y34000D02*Y32400D01*
Y34000D02*X81387Y34800D01*
X80000Y34000D02*X78613Y34800D01*
X29500Y120500D02*Y118900D01*
Y120500D02*X30887Y121300D01*
X29500Y120500D02*X28113Y121300D01*
X46500Y103000D02*Y101400D01*
Y103000D02*X47887Y103800D01*
X46500Y103000D02*X45113Y103800D01*
X63000Y103000D02*Y101400D01*
Y103000D02*X64387Y103800D01*
X63000Y103000D02*X61613Y103800D01*
X56500Y46000D02*Y44400D01*
Y46000D02*X57887Y46800D01*
X56500Y46000D02*X55113Y46800D01*
X88500Y57500D02*Y55900D01*
Y57500D02*X89887Y58300D01*
X88500Y57500D02*X87113Y58300D01*
X108500Y55000D02*Y53400D01*
Y55000D02*X109887Y55800D01*
X108500Y55000D02*X107113Y55800D01*
X82000Y71000D02*Y69400D01*
Y71000D02*X83387Y71800D01*
X82000Y71000D02*X80613Y71800D01*
X114500Y80500D02*Y78900D01*
Y80500D02*X115887Y81300D01*
X114500Y80500D02*X113113Y81300D01*
X42000Y155000D02*Y153400D01*
Y155000D02*X43387Y155800D01*
X42000Y155000D02*X40613Y155800D01*
X82000Y137000D02*Y135400D01*
Y137000D02*X83387Y137800D01*
X82000Y137000D02*X80613Y137800D01*
X130000Y130000D02*Y128400D01*
Y130000D02*X131387Y130800D01*
X130000Y130000D02*X128613Y130800D01*
X107000Y96500D02*Y94900D01*
Y96500D02*X108387Y97300D01*
X107000Y96500D02*X105613Y97300D01*
X20500Y129500D02*Y127900D01*
Y129500D02*X21887Y130300D01*
X20500Y129500D02*X19113Y130300D01*
X130000Y27000D02*Y25400D01*
Y27000D02*X131387Y27800D01*
X130000Y27000D02*X128613Y27800D01*
X135000Y7000D02*Y5400D01*
Y7000D02*X136387Y7800D01*
X135000Y7000D02*X133613Y7800D01*
X118000Y10000D02*Y8400D01*
Y10000D02*X119387Y10800D01*
X118000Y10000D02*X116613Y10800D01*
X117000Y43000D02*Y41400D01*
Y43000D02*X118387Y43800D01*
X117000Y43000D02*X115613Y43800D01*
X80000Y50000D02*Y48400D01*
Y50000D02*X81387Y50800D01*
X80000Y50000D02*X78613Y50800D01*
X131000Y39000D02*Y37400D01*
Y39000D02*X132387Y39800D01*
X131000Y39000D02*X129613Y39800D01*
X15000Y266250D02*Y264650D01*
Y266250D02*X16387Y267050D01*
X15000Y266250D02*X13613Y267050D01*
X135000Y268500D02*X136500Y265500D01*
X138000Y268500D01*
X136500Y265500D02*Y262500D01*
X139800Y265800D02*X142050D01*
X139800Y262500D02*X142800D01*
X139800Y268500D02*Y262500D01*
Y268500D02*X142800D01*
X147600D02*X148350Y267750D01*
X145350Y268500D02*X147600D01*
X144600Y267750D02*X145350Y268500D01*
X144600Y267750D02*Y266250D01*
X145350Y265500D01*
X147600D01*
X148350Y264750D01*
Y263250D01*
X147600Y262500D02*X148350Y263250D01*
X145350Y262500D02*X147600D01*
X144600Y263250D02*X145350Y262500D01*
X98000Y267750D02*X98750Y268500D01*
X101000D01*
X101750Y267750D01*
Y266250D01*
X98000Y262500D02*X101750Y266250D01*
X98000Y262500D02*X101750D01*
X103550Y267750D02*X104300Y268500D01*
X106550D01*
X107300Y267750D01*
Y266250D01*
X103550Y262500D02*X107300Y266250D01*
X103550Y262500D02*X107300D01*
X45000Y263250D02*X45750Y262500D01*
X45000Y267750D02*Y263250D01*
Y267750D02*X45750Y268500D01*
X47250D01*
X48000Y267750D01*
Y263250D01*
X47250Y262500D02*X48000Y263250D01*
X45750Y262500D02*X47250D01*
X45000Y264000D02*X48000Y267000D01*
X49800Y262500D02*X50550D01*
X52350Y263250D02*X53100Y262500D01*
X52350Y267750D02*Y263250D01*
Y267750D02*X53100Y268500D01*
X54600D01*
X55350Y267750D01*
Y263250D01*
X54600Y262500D02*X55350Y263250D01*
X53100Y262500D02*X54600D01*
X52350Y264000D02*X55350Y267000D01*
X57150Y267750D02*X57900Y268500D01*
X60150D01*
X60900Y267750D01*
Y266250D01*
X57150Y262500D02*X60900Y266250D01*
X57150Y262500D02*X60900D01*
X62700Y263250D02*X63450Y262500D01*
X62700Y267750D02*Y263250D01*
Y267750D02*X63450Y268500D01*
X64950D01*
X65700Y267750D01*
Y263250D01*
X64950Y262500D02*X65700Y263250D01*
X63450Y262500D02*X64950D01*
X62700Y264000D02*X65700Y267000D01*
X3000Y283500D02*X3750Y282750D01*
X750Y283500D02*X3000D01*
X0Y282750D02*X750Y283500D01*
X0Y282750D02*Y281250D01*
X750Y280500D01*
X3000D01*
X3750Y279750D01*
Y278250D01*
X3000Y277500D02*X3750Y278250D01*
X750Y277500D02*X3000D01*
X0Y278250D02*X750Y277500D01*
X5550Y280500D02*Y278250D01*
X6300Y277500D01*
X8550Y280500D02*Y276000D01*
X7800Y275250D02*X8550Y276000D01*
X6300Y275250D02*X7800D01*
X5550Y276000D02*X6300Y275250D01*
Y277500D02*X7800D01*
X8550Y278250D01*
X11100Y279750D02*Y277500D01*
Y279750D02*X11850Y280500D01*
X12600D01*
X13350Y279750D01*
Y277500D01*
Y279750D02*X14100Y280500D01*
X14850D01*
X15600Y279750D01*
Y277500D01*
X10350Y280500D02*X11100Y279750D01*
X17400Y283500D02*Y277500D01*
Y278250D02*X18150Y277500D01*
X19650D01*
X20400Y278250D01*
Y279750D02*Y278250D01*
X19650Y280500D02*X20400Y279750D01*
X18150Y280500D02*X19650D01*
X17400Y279750D02*X18150Y280500D01*
X22200Y279750D02*Y278250D01*
Y279750D02*X22950Y280500D01*
X24450D01*
X25200Y279750D01*
Y278250D01*
X24450Y277500D02*X25200Y278250D01*
X22950Y277500D02*X24450D01*
X22200Y278250D02*X22950Y277500D01*
X27000Y283500D02*Y278250D01*
X27750Y277500D01*
X0Y274250D02*X29250D01*
X41750Y283500D02*Y277500D01*
X43700Y283500D02*X44750Y282450D01*
Y278550D01*
X43700Y277500D02*X44750Y278550D01*
X41000Y277500D02*X43700D01*
X41000Y283500D02*X43700D01*
G54D94*X46550Y282000D02*Y281850D01*
G54D93*Y279750D02*Y277500D01*
X50300Y280500D02*X51050Y279750D01*
X48800Y280500D02*X50300D01*
X48050Y279750D02*X48800Y280500D01*
X48050Y279750D02*Y278250D01*
X48800Y277500D01*
X51050Y280500D02*Y278250D01*
X51800Y277500D01*
X48800D02*X50300D01*
X51050Y278250D01*
X54350Y279750D02*Y277500D01*
Y279750D02*X55100Y280500D01*
X55850D01*
X56600Y279750D01*
Y277500D01*
Y279750D02*X57350Y280500D01*
X58100D01*
X58850Y279750D01*
Y277500D01*
X53600Y280500D02*X54350Y279750D01*
X60650Y277500D02*X61400D01*
X65900Y278250D02*X66650Y277500D01*
X65900Y282750D02*X66650Y283500D01*
X65900Y282750D02*Y278250D01*
X68450Y283500D02*X69950D01*
X69200D02*Y277500D01*
X68450D02*X69950D01*
X72500Y279750D02*Y277500D01*
Y279750D02*X73250Y280500D01*
X74000D01*
X74750Y279750D01*
Y277500D01*
X71750Y280500D02*X72500Y279750D01*
X77300Y280500D02*X79550D01*
X76550Y279750D02*X77300Y280500D01*
X76550Y279750D02*Y278250D01*
X77300Y277500D01*
X79550D01*
X81350Y283500D02*Y277500D01*
Y279750D02*X82100Y280500D01*
X83600D01*
X84350Y279750D01*
Y277500D01*
X86150Y283500D02*X86900Y282750D01*
Y278250D01*
X86150Y277500D02*X86900Y278250D01*
X41000Y274250D02*X88700D01*
X96050Y277500D02*X98000D01*
X95000Y278550D02*X96050Y277500D01*
X95000Y282450D02*Y278550D01*
Y282450D02*X96050Y283500D01*
X98000D01*
X99800Y279750D02*Y278250D01*
Y279750D02*X100550Y280500D01*
X102050D01*
X102800Y279750D01*
Y278250D01*
X102050Y277500D02*X102800Y278250D01*
X100550Y277500D02*X102050D01*
X99800Y278250D02*X100550Y277500D01*
X104600Y280500D02*Y278250D01*
X105350Y277500D01*
X106850D01*
X107600Y278250D01*
Y280500D02*Y278250D01*
X110150Y279750D02*Y277500D01*
Y279750D02*X110900Y280500D01*
X111650D01*
X112400Y279750D01*
Y277500D01*
X109400Y280500D02*X110150Y279750D01*
X114950Y283500D02*Y278250D01*
X115700Y277500D01*
X114200Y281250D02*X115700D01*
X95000Y274250D02*X117200D01*
X130750Y283500D02*Y277500D01*
X130000Y283500D02*X133000D01*
X133750Y282750D01*
Y281250D01*
X133000Y280500D02*X133750Y281250D01*
X130750Y280500D02*X133000D01*
X135550Y283500D02*Y278250D01*
X136300Y277500D01*
X140050Y280500D02*X140800Y279750D01*
X138550Y280500D02*X140050D01*
X137800Y279750D02*X138550Y280500D01*
X137800Y279750D02*Y278250D01*
X138550Y277500D01*
X140800Y280500D02*Y278250D01*
X141550Y277500D01*
X138550D02*X140050D01*
X140800Y278250D01*
X144100Y283500D02*Y278250D01*
X144850Y277500D01*
X143350Y281250D02*X144850D01*
X147100Y277500D02*X149350D01*
X146350Y278250D02*X147100Y277500D01*
X146350Y279750D02*Y278250D01*
Y279750D02*X147100Y280500D01*
X148600D01*
X149350Y279750D01*
X146350Y279000D02*X149350D01*
Y279750D02*Y279000D01*
X154150Y283500D02*Y277500D01*
X153400D02*X154150Y278250D01*
X151900Y277500D02*X153400D01*
X151150Y278250D02*X151900Y277500D01*
X151150Y279750D02*Y278250D01*
Y279750D02*X151900Y280500D01*
X153400D01*
X154150Y279750D01*
X157450Y280500D02*Y279750D01*
Y278250D02*Y277500D01*
X155950Y282750D02*Y282000D01*
Y282750D02*X156700Y283500D01*
X158200D01*
X158950Y282750D01*
Y282000D01*
X157450Y280500D02*X158950Y282000D01*
X130000Y274250D02*X160750D01*
X0Y298500D02*X3000D01*
X1500D02*Y292500D01*
X4800Y298500D02*Y292500D01*
Y294750D02*X5550Y295500D01*
X7050D01*
X7800Y294750D01*
Y292500D01*
X10350D02*X12600D01*
X9600Y293250D02*X10350Y292500D01*
X9600Y294750D02*Y293250D01*
Y294750D02*X10350Y295500D01*
X11850D01*
X12600Y294750D01*
X9600Y294000D02*X12600D01*
Y294750D02*Y294000D01*
X15150Y294750D02*Y292500D01*
Y294750D02*X15900Y295500D01*
X17400D01*
X14400D02*X15150Y294750D01*
X19950Y292500D02*X22200D01*
X19200Y293250D02*X19950Y292500D01*
X19200Y294750D02*Y293250D01*
Y294750D02*X19950Y295500D01*
X21450D01*
X22200Y294750D01*
X19200Y294000D02*X22200D01*
Y294750D02*Y294000D01*
X28950Y295500D02*X29700Y294750D01*
X27450Y295500D02*X28950D01*
X26700Y294750D02*X27450Y295500D01*
X26700Y294750D02*Y293250D01*
X27450Y292500D01*
X29700Y295500D02*Y293250D01*
X30450Y292500D01*
X27450D02*X28950D01*
X29700Y293250D01*
X33000Y294750D02*Y292500D01*
Y294750D02*X33750Y295500D01*
X35250D01*
X32250D02*X33000Y294750D01*
X37800Y292500D02*X40050D01*
X37050Y293250D02*X37800Y292500D01*
X37050Y294750D02*Y293250D01*
Y294750D02*X37800Y295500D01*
X39300D01*
X40050Y294750D01*
X37050Y294000D02*X40050D01*
Y294750D02*Y294000D01*
X45300Y292500D02*X48300Y298500D01*
X44550D02*X48300D01*
X55800D02*Y292500D01*
X55050D02*X55800Y293250D01*
X53550Y292500D02*X55050D01*
X52800Y293250D02*X53550Y292500D01*
X52800Y294750D02*Y293250D01*
Y294750D02*X53550Y295500D01*
X55050D01*
X55800Y294750D01*
G54D94*X57600Y297000D02*Y296850D01*
G54D93*Y294750D02*Y292500D01*
X59850Y297750D02*Y292500D01*
Y297750D02*X60600Y298500D01*
X61350D01*
X59100Y295500D02*X60600D01*
X63600Y297750D02*Y292500D01*
Y297750D02*X64350Y298500D01*
X65100D01*
X62850Y295500D02*X64350D01*
X67350Y292500D02*X69600D01*
X66600Y293250D02*X67350Y292500D01*
X66600Y294750D02*Y293250D01*
Y294750D02*X67350Y295500D01*
X68850D01*
X69600Y294750D01*
X66600Y294000D02*X69600D01*
Y294750D02*Y294000D01*
X72150Y294750D02*Y292500D01*
Y294750D02*X72900Y295500D01*
X74400D01*
X71400D02*X72150Y294750D01*
X76950Y292500D02*X79200D01*
X76200Y293250D02*X76950Y292500D01*
X76200Y294750D02*Y293250D01*
Y294750D02*X76950Y295500D01*
X78450D01*
X79200Y294750D01*
X76200Y294000D02*X79200D01*
Y294750D02*Y294000D01*
X81750Y294750D02*Y292500D01*
Y294750D02*X82500Y295500D01*
X83250D01*
X84000Y294750D01*
Y292500D01*
X81000Y295500D02*X81750Y294750D01*
X86550Y298500D02*Y293250D01*
X87300Y292500D01*
X85800Y296250D02*X87300D01*
X94500Y298500D02*Y292500D01*
X93750D02*X94500Y293250D01*
X92250Y292500D02*X93750D01*
X91500Y293250D02*X92250Y292500D01*
X91500Y294750D02*Y293250D01*
Y294750D02*X92250Y295500D01*
X93750D01*
X94500Y294750D01*
X97050D02*Y292500D01*
Y294750D02*X97800Y295500D01*
X99300D01*
X96300D02*X97050Y294750D01*
G54D94*X101100Y297000D02*Y296850D01*
G54D93*Y294750D02*Y292500D01*
X102600Y298500D02*Y293250D01*
X103350Y292500D01*
X104850Y298500D02*Y293250D01*
X105600Y292500D01*
X110550D02*X112800D01*
X113550Y293250D01*
X112800Y294000D02*X113550Y293250D01*
X110550Y294000D02*X112800D01*
X109800Y294750D02*X110550Y294000D01*
X109800Y294750D02*X110550Y295500D01*
X112800D01*
X113550Y294750D01*
X109800Y293250D02*X110550Y292500D01*
G54D94*X115350Y297000D02*Y296850D01*
G54D93*Y294750D02*Y292500D01*
X116850Y295500D02*X119850D01*
X116850Y292500D02*X119850Y295500D01*
X116850Y292500D02*X119850D01*
X122400D02*X124650D01*
X121650Y293250D02*X122400Y292500D01*
X121650Y294750D02*Y293250D01*
Y294750D02*X122400Y295500D01*
X123900D01*
X124650Y294750D01*
X121650Y294000D02*X124650D01*
Y294750D02*Y294000D01*
X127200Y292500D02*X129450D01*
X130200Y293250D01*
X129450Y294000D02*X130200Y293250D01*
X127200Y294000D02*X129450D01*
X126450Y294750D02*X127200Y294000D01*
X126450Y294750D02*X127200Y295500D01*
X129450D01*
X130200Y294750D01*
X126450Y293250D02*X127200Y292500D01*
X134700Y295500D02*Y293250D01*
X135450Y292500D01*
X136950D01*
X137700Y293250D01*
Y295500D02*Y293250D01*
X140250Y292500D02*X142500D01*
X143250Y293250D01*
X142500Y294000D02*X143250Y293250D01*
X140250Y294000D02*X142500D01*
X139500Y294750D02*X140250Y294000D01*
X139500Y294750D02*X140250Y295500D01*
X142500D01*
X143250Y294750D01*
X139500Y293250D02*X140250Y292500D01*
X145800D02*X148050D01*
X145050Y293250D02*X145800Y292500D01*
X145050Y294750D02*Y293250D01*
Y294750D02*X145800Y295500D01*
X147300D01*
X148050Y294750D01*
X145050Y294000D02*X148050D01*
Y294750D02*Y294000D01*
X152850Y298500D02*Y292500D01*
X152100D02*X152850Y293250D01*
X150600Y292500D02*X152100D01*
X149850Y293250D02*X150600Y292500D01*
X149850Y294750D02*Y293250D01*
Y294750D02*X150600Y295500D01*
X152100D01*
X152850Y294750D01*
G54D94*X157350Y297000D02*Y296850D01*
G54D93*Y294750D02*Y292500D01*
X159600Y294750D02*Y292500D01*
Y294750D02*X160350Y295500D01*
X161100D01*
X161850Y294750D01*
Y292500D01*
X158850Y295500D02*X159600Y294750D01*
X167100Y298500D02*Y293250D01*
X167850Y292500D01*
X166350Y296250D02*X167850D01*
X169350Y298500D02*Y292500D01*
Y294750D02*X170100Y295500D01*
X171600D01*
X172350Y294750D01*
Y292500D01*
G54D94*X174150Y297000D02*Y296850D01*
G54D93*Y294750D02*Y292500D01*
X176400D02*X178650D01*
X179400Y293250D01*
X178650Y294000D02*X179400Y293250D01*
X176400Y294000D02*X178650D01*
X175650Y294750D02*X176400Y294000D01*
X175650Y294750D02*X176400Y295500D01*
X178650D01*
X179400Y294750D01*
X175650Y293250D02*X176400Y292500D01*
X183900Y298500D02*Y293250D01*
X184650Y292500D01*
X188400Y295500D02*X189150Y294750D01*
X186900Y295500D02*X188400D01*
X186150Y294750D02*X186900Y295500D01*
X186150Y294750D02*Y293250D01*
X186900Y292500D01*
X189150Y295500D02*Y293250D01*
X189900Y292500D01*
X186900D02*X188400D01*
X189150Y293250D01*
X191700Y295500D02*Y293250D01*
X192450Y292500D01*
X194700Y295500D02*Y291000D01*
X193950Y290250D02*X194700Y291000D01*
X192450Y290250D02*X193950D01*
X191700Y291000D02*X192450Y290250D01*
Y292500D02*X193950D01*
X194700Y293250D01*
X196500Y294750D02*Y293250D01*
Y294750D02*X197250Y295500D01*
X198750D01*
X199500Y294750D01*
Y293250D01*
X198750Y292500D02*X199500Y293250D01*
X197250Y292500D02*X198750D01*
X196500Y293250D02*X197250Y292500D01*
X201300Y295500D02*Y293250D01*
X202050Y292500D01*
X203550D01*
X204300Y293250D01*
Y295500D02*Y293250D01*
X206850Y298500D02*Y293250D01*
X207600Y292500D01*
X206100Y296250D02*X207600D01*
X209100Y291000D02*X210600Y292500D01*
X217350Y298500D02*X218100Y297750D01*
X215850Y298500D02*X217350D01*
X215100Y297750D02*X215850Y298500D01*
X215100Y297750D02*Y293250D01*
X215850Y292500D01*
X217350Y295800D02*X218100Y295050D01*
X215100Y295800D02*X217350D01*
X215850Y292500D02*X217350D01*
X218100Y293250D01*
Y295050D02*Y293250D01*
X219900Y297300D02*X221100Y298500D01*
Y292500D01*
X219900D02*X222150D01*
X226650Y298500D02*Y292500D01*
Y294750D02*X227400Y295500D01*
X228900D01*
X229650Y294750D01*
Y292500D01*
X231450Y294750D02*Y293250D01*
Y294750D02*X232200Y295500D01*
X233700D01*
X234450Y294750D01*
Y293250D01*
X233700Y292500D02*X234450Y293250D01*
X232200Y292500D02*X233700D01*
X231450Y293250D02*X232200Y292500D01*
X236250Y298500D02*Y293250D01*
X237000Y292500D01*
X239250D02*X241500D01*
X238500Y293250D02*X239250Y292500D01*
X238500Y294750D02*Y293250D01*
Y294750D02*X239250Y295500D01*
X240750D01*
X241500Y294750D01*
X238500Y294000D02*X241500D01*
Y294750D02*Y294000D01*
X244050Y292500D02*X246300D01*
X247050Y293250D01*
X246300Y294000D02*X247050Y293250D01*
X244050Y294000D02*X246300D01*
X243300Y294750D02*X244050Y294000D01*
X243300Y294750D02*X244050Y295500D01*
X246300D01*
X247050Y294750D01*
X243300Y293250D02*X244050Y292500D01*
X252300Y298500D02*Y293250D01*
X253050Y292500D01*
X251550Y296250D02*X253050D01*
X254550Y294750D02*Y293250D01*
Y294750D02*X255300Y295500D01*
X256800D01*
X257550Y294750D01*
Y293250D01*
X256800Y292500D02*X257550Y293250D01*
X255300Y292500D02*X256800D01*
X254550Y293250D02*X255300Y292500D01*
X260100Y298500D02*Y293250D01*
X260850Y292500D01*
X259350Y296250D02*X260850D01*
X264600Y295500D02*X265350Y294750D01*
X263100Y295500D02*X264600D01*
X262350Y294750D02*X263100Y295500D01*
X262350Y294750D02*Y293250D01*
X263100Y292500D01*
X265350Y295500D02*Y293250D01*
X266100Y292500D01*
X263100D02*X264600D01*
X265350Y293250D01*
X267900Y298500D02*Y293250D01*
X268650Y292500D01*
G54D95*X0Y165000D02*Y2000D01*
X139000D01*
Y165000D01*
X0D01*
G54D93*Y-9500D02*X3000D01*
X3750Y-8750D01*
Y-6950D02*Y-8750D01*
X3000Y-6200D02*X3750Y-6950D01*
X750Y-6200D02*X3000D01*
X750Y-3500D02*Y-9500D01*
X0Y-3500D02*X3000D01*
X3750Y-4250D01*
Y-5450D01*
X3000Y-6200D02*X3750Y-5450D01*
X5550Y-7250D02*Y-8750D01*
Y-7250D02*X6300Y-6500D01*
X7800D01*
X8550Y-7250D01*
Y-8750D01*
X7800Y-9500D02*X8550Y-8750D01*
X6300Y-9500D02*X7800D01*
X5550Y-8750D02*X6300Y-9500D01*
X12600Y-6500D02*X13350Y-7250D01*
X11100Y-6500D02*X12600D01*
X10350Y-7250D02*X11100Y-6500D01*
X10350Y-7250D02*Y-8750D01*
X11100Y-9500D01*
X13350Y-6500D02*Y-8750D01*
X14100Y-9500D01*
X11100D02*X12600D01*
X13350Y-8750D01*
X16650Y-7250D02*Y-9500D01*
Y-7250D02*X17400Y-6500D01*
X18900D01*
X15900D02*X16650Y-7250D01*
X23700Y-3500D02*Y-9500D01*
X22950D02*X23700Y-8750D01*
X21450Y-9500D02*X22950D01*
X20700Y-8750D02*X21450Y-9500D01*
X20700Y-7250D02*Y-8750D01*
Y-7250D02*X21450Y-6500D01*
X22950D01*
X23700Y-7250D01*
X28200D02*Y-8750D01*
Y-7250D02*X28950Y-6500D01*
X30450D01*
X31200Y-7250D01*
Y-8750D01*
X30450Y-9500D02*X31200Y-8750D01*
X28950Y-9500D02*X30450D01*
X28200Y-8750D02*X28950Y-9500D01*
X33000Y-6500D02*Y-8750D01*
X33750Y-9500D01*
X35250D01*
X36000Y-8750D01*
Y-6500D02*Y-8750D01*
X38550Y-3500D02*Y-8750D01*
X39300Y-9500D01*
X37800Y-5750D02*X39300D01*
X40800Y-3500D02*Y-8750D01*
X41550Y-9500D01*
G54D94*X43050Y-5000D02*Y-5150D01*
G54D93*Y-7250D02*Y-9500D01*
X45300Y-7250D02*Y-9500D01*
Y-7250D02*X46050Y-6500D01*
X46800D01*
X47550Y-7250D01*
Y-9500D01*
X44550Y-6500D02*X45300Y-7250D01*
X50100Y-9500D02*X52350D01*
X49350Y-8750D02*X50100Y-9500D01*
X49350Y-7250D02*Y-8750D01*
Y-7250D02*X50100Y-6500D01*
X51600D01*
X52350Y-7250D01*
X49350Y-8000D02*X52350D01*
Y-7250D02*Y-8000D01*
G54D94*X56850Y-5000D02*Y-5150D01*
G54D93*Y-7250D02*Y-9500D01*
X59100D02*X61350D01*
X62100Y-8750D01*
X61350Y-8000D02*X62100Y-8750D01*
X59100Y-8000D02*X61350D01*
X58350Y-7250D02*X59100Y-8000D01*
X58350Y-7250D02*X59100Y-6500D01*
X61350D01*
X62100Y-7250D01*
X58350Y-8750D02*X59100Y-9500D01*
X67350Y-3500D02*Y-8750D01*
X68100Y-9500D01*
X66600Y-5750D02*X68100D01*
X69600Y-3500D02*Y-9500D01*
Y-7250D02*X70350Y-6500D01*
X71850D01*
X72600Y-7250D01*
Y-9500D01*
X75150D02*X77400D01*
X74400Y-8750D02*X75150Y-9500D01*
X74400Y-7250D02*Y-8750D01*
Y-7250D02*X75150Y-6500D01*
X76650D01*
X77400Y-7250D01*
X74400Y-8000D02*X77400D01*
Y-7250D02*Y-8000D01*
X82650Y-6500D02*X84900D01*
X81900Y-7250D02*X82650Y-6500D01*
X81900Y-7250D02*Y-8750D01*
X82650Y-9500D01*
X84900D01*
X87450D02*X89700D01*
X86700Y-8750D02*X87450Y-9500D01*
X86700Y-7250D02*Y-8750D01*
Y-7250D02*X87450Y-6500D01*
X88950D01*
X89700Y-7250D01*
X86700Y-8000D02*X89700D01*
Y-7250D02*Y-8000D01*
X92250Y-7250D02*Y-9500D01*
Y-7250D02*X93000Y-6500D01*
X93750D01*
X94500Y-7250D01*
Y-9500D01*
X91500Y-6500D02*X92250Y-7250D01*
X97050Y-3500D02*Y-8750D01*
X97800Y-9500D01*
X96300Y-5750D02*X97800D01*
X100050Y-9500D02*X102300D01*
X99300Y-8750D02*X100050Y-9500D01*
X99300Y-7250D02*Y-8750D01*
Y-7250D02*X100050Y-6500D01*
X101550D01*
X102300Y-7250D01*
X99300Y-8000D02*X102300D01*
Y-7250D02*Y-8000D01*
X104850Y-7250D02*Y-9500D01*
Y-7250D02*X105600Y-6500D01*
X107100D01*
X104100D02*X104850Y-7250D01*
X108900Y-3500D02*Y-8750D01*
X109650Y-9500D01*
G54D94*X111150Y-5000D02*Y-5150D01*
G54D93*Y-7250D02*Y-9500D01*
X113400Y-7250D02*Y-9500D01*
Y-7250D02*X114150Y-6500D01*
X114900D01*
X115650Y-7250D01*
Y-9500D01*
X112650Y-6500D02*X113400Y-7250D01*
X118200Y-9500D02*X120450D01*
X117450Y-8750D02*X118200Y-9500D01*
X117450Y-7250D02*Y-8750D01*
Y-7250D02*X118200Y-6500D01*
X119700D01*
X120450Y-7250D01*
X117450Y-8000D02*X120450D01*
Y-7250D02*Y-8000D01*
X124950Y-7250D02*Y-8750D01*
Y-7250D02*X125700Y-6500D01*
X127200D01*
X127950Y-7250D01*
Y-8750D01*
X127200Y-9500D02*X127950Y-8750D01*
X125700Y-9500D02*X127200D01*
X124950Y-8750D02*X125700Y-9500D01*
X130500Y-4250D02*Y-9500D01*
Y-4250D02*X131250Y-3500D01*
X132000D01*
X129750Y-6500D02*X131250D01*
X136950Y-3500D02*Y-8750D01*
X137700Y-9500D01*
X136200Y-5750D02*X137700D01*
X139200Y-3500D02*Y-9500D01*
Y-7250D02*X139950Y-6500D01*
X141450D01*
X142200Y-7250D01*
Y-9500D01*
G54D94*X144000Y-5000D02*Y-5150D01*
G54D93*Y-7250D02*Y-9500D01*
X146250D02*X148500D01*
X149250Y-8750D01*
X148500Y-8000D02*X149250Y-8750D01*
X146250Y-8000D02*X148500D01*
X145500Y-7250D02*X146250Y-8000D01*
X145500Y-7250D02*X146250Y-6500D01*
X148500D01*
X149250Y-7250D01*
X145500Y-8750D02*X146250Y-9500D01*
X154500Y-7250D02*Y-11750D01*
X153750Y-6500D02*X154500Y-7250D01*
X155250Y-6500D01*
X156750D01*
X157500Y-7250D01*
Y-8750D01*
X156750Y-9500D02*X157500Y-8750D01*
X155250Y-9500D02*X156750D01*
X154500Y-8750D02*X155250Y-9500D01*
X161550Y-6500D02*X162300Y-7250D01*
X160050Y-6500D02*X161550D01*
X159300Y-7250D02*X160050Y-6500D01*
X159300Y-7250D02*Y-8750D01*
X160050Y-9500D01*
X162300Y-6500D02*Y-8750D01*
X163050Y-9500D01*
X160050D02*X161550D01*
X162300Y-8750D01*
X165600Y-3500D02*Y-8750D01*
X166350Y-9500D01*
X164850Y-5750D02*X166350D01*
X167850Y-3500D02*Y-9500D01*
Y-7250D02*X168600Y-6500D01*
X170100D01*
X170850Y-7250D01*
Y-9500D01*
X200750Y193500D02*Y187500D01*
X202700Y193500D02*X203750Y192450D01*
Y188550D01*
X202700Y187500D02*X203750Y188550D01*
X200000Y187500D02*X202700D01*
X200000Y193500D02*X202700D01*
X207800Y190500D02*X208550Y189750D01*
X206300Y190500D02*X207800D01*
X205550Y189750D02*X206300Y190500D01*
X205550Y189750D02*Y188250D01*
X206300Y187500D01*
X208550Y190500D02*Y188250D01*
X209300Y187500D01*
X206300D02*X207800D01*
X208550Y188250D01*
X211850Y193500D02*Y188250D01*
X212600Y187500D01*
X211100Y191250D02*X212600D01*
X214850Y187500D02*X217100D01*
X214100Y188250D02*X214850Y187500D01*
X214100Y189750D02*Y188250D01*
Y189750D02*X214850Y190500D01*
X216350D01*
X217100Y189750D01*
X214100Y189000D02*X217100D01*
Y189750D02*Y189000D01*
X218900Y191250D02*X219650D01*
X218900Y189750D02*X219650D01*
X224150Y193500D02*Y187500D01*
Y193500D02*X227150D01*
X224150Y190800D02*X226400D01*
X229700Y189750D02*Y187500D01*
Y189750D02*X230450Y190500D01*
X231950D01*
X228950D02*X229700Y189750D01*
G54D94*X233750Y192000D02*Y191850D01*
G54D93*Y189750D02*Y187500D01*
X237950Y192750D02*X238700Y193500D01*
X240950D01*
X241700Y192750D01*
Y191250D01*
X237950Y187500D02*X241700Y191250D01*
X237950Y187500D02*X241700D01*
X243500Y193500D02*X246500D01*
X243500D02*Y190500D01*
X244250Y191250D01*
X245750D01*
X246500Y190500D01*
Y188250D01*
X245750Y187500D02*X246500Y188250D01*
X244250Y187500D02*X245750D01*
X243500Y188250D02*X244250Y187500D01*
X251000Y193500D02*Y187500D01*
Y193500D02*X253250Y190500D01*
X255500Y193500D01*
Y187500D01*
X259550Y190500D02*X260300Y189750D01*
X258050Y190500D02*X259550D01*
X257300Y189750D02*X258050Y190500D01*
X257300Y189750D02*Y188250D01*
X258050Y187500D01*
X260300Y190500D02*Y188250D01*
X261050Y187500D01*
X258050D02*X259550D01*
X260300Y188250D01*
X263600Y189750D02*Y187500D01*
Y189750D02*X264350Y190500D01*
X265850D01*
X262850D02*X263600Y189750D01*
X270350Y192750D02*X271100Y193500D01*
X273350D01*
X274100Y192750D01*
Y191250D01*
X270350Y187500D02*X274100Y191250D01*
X270350Y187500D02*X274100D01*
X275900Y188250D02*X276650Y187500D01*
X275900Y192750D02*Y188250D01*
Y192750D02*X276650Y193500D01*
X278150D01*
X278900Y192750D01*
Y188250D01*
X278150Y187500D02*X278900Y188250D01*
X276650Y187500D02*X278150D01*
X275900Y189000D02*X278900Y192000D01*
X280700Y192300D02*X281900Y193500D01*
Y187500D01*
X280700D02*X282950D01*
X287000Y193500D02*X287750Y192750D01*
X285500Y193500D02*X287000D01*
X284750Y192750D02*X285500Y193500D01*
X284750Y192750D02*Y188250D01*
X285500Y187500D01*
X287000Y190800D02*X287750Y190050D01*
X284750Y190800D02*X287000D01*
X285500Y187500D02*X287000D01*
X287750Y188250D01*
Y190050D02*Y188250D01*
X292250D02*X293000Y187500D01*
X292250Y192750D02*Y188250D01*
Y192750D02*X293000Y193500D01*
X294500D01*
X295250Y192750D01*
Y188250D01*
X294500Y187500D02*X295250Y188250D01*
X293000Y187500D02*X294500D01*
X292250Y189000D02*X295250Y192000D01*
X297050Y192300D02*X298250Y193500D01*
Y187500D01*
X297050D02*X299300D01*
X301100Y191250D02*X301850D01*
X301100Y189750D02*X301850D01*
X303650D02*X306650Y193500D01*
X303650Y189750D02*X307400D01*
X306650Y193500D02*Y187500D01*
X309200Y192750D02*X309950Y193500D01*
X312200D01*
X312950Y192750D01*
Y191250D01*
X309200Y187500D02*X312950Y191250D01*
X309200Y187500D02*X312950D01*
X314750Y191250D02*X315500D01*
X314750Y189750D02*X315500D01*
X317300Y188250D02*X318050Y187500D01*
X317300Y192750D02*Y188250D01*
Y192750D02*X318050Y193500D01*
X319550D01*
X320300Y192750D01*
Y188250D01*
X319550Y187500D02*X320300Y188250D01*
X318050Y187500D02*X319550D01*
X317300Y189000D02*X320300Y192000D01*
X322850Y187500D02*X325850Y193500D01*
X322100D02*X325850D01*
X331100D02*Y187500D01*
X330350Y193500D02*X333350D01*
X334100Y192750D01*
Y191250D01*
X333350Y190500D02*X334100Y191250D01*
X331100Y190500D02*X333350D01*
X335900Y193500D02*Y187500D01*
Y193500D02*X338150Y190500D01*
X340400Y193500D01*
Y187500D01*
X347900Y193500D02*X348650Y192750D01*
X345650Y193500D02*X347900D01*
X344900Y192750D02*X345650Y193500D01*
X344900Y192750D02*Y188250D01*
X345650Y187500D01*
X347900D01*
X348650Y188250D01*
Y189750D02*Y188250D01*
X347900Y190500D02*X348650Y189750D01*
X346400Y190500D02*X347900D01*
X350450Y193500D02*Y187500D01*
Y193500D02*X352700Y190500D01*
X354950Y193500D01*
Y187500D01*
X356750Y193500D02*X359750D01*
X358250D02*Y187500D01*
X364250Y193500D02*Y188250D01*
X365000Y187500D01*
X366500D01*
X367250Y188250D01*
Y193500D02*Y188250D01*
X369050Y193500D02*X372050D01*
X370550D02*Y187500D01*
X374900D02*X376850D01*
X373850Y188550D02*X374900Y187500D01*
X373850Y192450D02*Y188550D01*
Y192450D02*X374900Y193500D01*
X376850D01*
X200000Y207000D02*Y202500D01*
Y207000D02*X201050Y208500D01*
X202700D01*
X203750Y207000D01*
Y202500D01*
X200000Y205500D02*X203750D01*
X205550D02*Y203250D01*
X206300Y202500D01*
X207800D01*
X208550Y203250D01*
Y205500D02*Y203250D01*
X211100Y208500D02*Y203250D01*
X211850Y202500D01*
X210350Y206250D02*X211850D01*
X213350Y208500D02*Y202500D01*
Y204750D02*X214100Y205500D01*
X215600D01*
X216350Y204750D01*
Y202500D01*
X218150Y204750D02*Y203250D01*
Y204750D02*X218900Y205500D01*
X220400D01*
X221150Y204750D01*
Y203250D01*
X220400Y202500D02*X221150Y203250D01*
X218900Y202500D02*X220400D01*
X218150Y203250D02*X218900Y202500D01*
X223700Y204750D02*Y202500D01*
Y204750D02*X224450Y205500D01*
X225950D01*
X222950D02*X223700Y204750D01*
X227750Y206250D02*X228500D01*
X227750Y204750D02*X228500D01*
X200000Y223500D02*X203000D01*
X201500D02*Y217500D01*
G54D94*X204800Y222000D02*Y221850D01*
G54D93*Y219750D02*Y217500D01*
X207050Y223500D02*Y218250D01*
X207800Y217500D01*
X206300Y221250D02*X207800D01*
X209300Y223500D02*Y218250D01*
X210050Y217500D01*
X212300D02*X214550D01*
X211550Y218250D02*X212300Y217500D01*
X211550Y219750D02*Y218250D01*
Y219750D02*X212300Y220500D01*
X213800D01*
X214550Y219750D01*
X211550Y219000D02*X214550D01*
Y219750D02*Y219000D01*
X216350Y221250D02*X217100D01*
X216350Y219750D02*X217100D01*
X221600Y218250D02*X222350Y217500D01*
X221600Y222750D02*X222350Y223500D01*
X221600Y222750D02*Y218250D01*
X224150Y220500D02*Y218250D01*
X224900Y217500D01*
X226400D01*
X227150Y218250D01*
Y220500D02*Y218250D01*
X229700Y219750D02*Y217500D01*
Y219750D02*X230450Y220500D01*
X231200D01*
X231950Y219750D01*
Y217500D01*
X228950Y220500D02*X229700Y219750D01*
X233750Y223500D02*Y217500D01*
Y219750D02*X236000Y217500D01*
X233750Y219750D02*X235250Y221250D01*
X238550Y219750D02*Y217500D01*
Y219750D02*X239300Y220500D01*
X240050D01*
X240800Y219750D01*
Y217500D01*
X237800Y220500D02*X238550Y219750D01*
X242600D02*Y218250D01*
Y219750D02*X243350Y220500D01*
X244850D01*
X245600Y219750D01*
Y218250D01*
X244850Y217500D02*X245600Y218250D01*
X243350Y217500D02*X244850D01*
X242600Y218250D02*X243350Y217500D01*
X247400Y220500D02*Y218250D01*
X248150Y217500D01*
X248900D01*
X249650Y218250D01*
Y220500D02*Y218250D01*
X250400Y217500D01*
X251150D01*
X251900Y218250D01*
Y220500D02*Y218250D01*
X254450Y219750D02*Y217500D01*
Y219750D02*X255200Y220500D01*
X255950D01*
X256700Y219750D01*
Y217500D01*
X253700Y220500D02*X254450Y219750D01*
X258500Y223500D02*X259250Y222750D01*
Y218250D01*
X258500Y217500D02*X259250Y218250D01*
X263750Y220500D02*X266750D01*
X271250Y223500D02*Y217500D01*
Y223500D02*X274250D01*
X271250Y220800D02*X273500D01*
X278300Y220500D02*X279050Y219750D01*
X276800Y220500D02*X278300D01*
X276050Y219750D02*X276800Y220500D01*
X276050Y219750D02*Y218250D01*
X276800Y217500D01*
X279050Y220500D02*Y218250D01*
X279800Y217500D01*
X276800D02*X278300D01*
X279050Y218250D01*
X281600Y223500D02*Y217500D01*
Y218250D02*X282350Y217500D01*
X283850D01*
X284600Y218250D01*
Y219750D02*Y218250D01*
X283850Y220500D02*X284600Y219750D01*
X282350Y220500D02*X283850D01*
X281600Y219750D02*X282350Y220500D01*
X287150Y219750D02*Y217500D01*
Y219750D02*X287900Y220500D01*
X289400D01*
X286400D02*X287150Y219750D01*
G54D94*X291200Y222000D02*Y221850D01*
G54D93*Y219750D02*Y217500D01*
X293450Y220500D02*X295700D01*
X292700Y219750D02*X293450Y220500D01*
X292700Y219750D02*Y218250D01*
X293450Y217500D01*
X295700D01*
X299750Y220500D02*X300500Y219750D01*
X298250Y220500D02*X299750D01*
X297500Y219750D02*X298250Y220500D01*
X297500Y219750D02*Y218250D01*
X298250Y217500D01*
X300500Y220500D02*Y218250D01*
X301250Y217500D01*
X298250D02*X299750D01*
X300500Y218250D01*
X303800Y223500D02*Y218250D01*
X304550Y217500D01*
X303050Y221250D02*X304550D01*
G54D94*X306050Y222000D02*Y221850D01*
G54D93*Y219750D02*Y217500D01*
X307550Y219750D02*Y218250D01*
Y219750D02*X308300Y220500D01*
X309800D01*
X310550Y219750D01*
Y218250D01*
X309800Y217500D02*X310550Y218250D01*
X308300Y217500D02*X309800D01*
X307550Y218250D02*X308300Y217500D01*
X313100Y219750D02*Y217500D01*
Y219750D02*X313850Y220500D01*
X314600D01*
X315350Y219750D01*
Y217500D01*
X312350Y220500D02*X313100Y219750D01*
X320600Y223500D02*Y217500D01*
X322550Y223500D02*X323600Y222450D01*
Y218550D01*
X322550Y217500D02*X323600Y218550D01*
X319850Y217500D02*X322550D01*
X319850Y223500D02*X322550D01*
X326150Y219750D02*Y217500D01*
Y219750D02*X326900Y220500D01*
X328400D01*
X325400D02*X326150Y219750D01*
X332450Y220500D02*X333200Y219750D01*
X330950Y220500D02*X332450D01*
X330200Y219750D02*X330950Y220500D01*
X330200Y219750D02*Y218250D01*
X330950Y217500D01*
X333200Y220500D02*Y218250D01*
X333950Y217500D01*
X330950D02*X332450D01*
X333200Y218250D01*
X335750Y220500D02*Y218250D01*
X336500Y217500D01*
X337250D01*
X338000Y218250D01*
Y220500D02*Y218250D01*
X338750Y217500D01*
X339500D01*
X340250Y218250D01*
Y220500D02*Y218250D01*
G54D94*X342050Y222000D02*Y221850D01*
G54D93*Y219750D02*Y217500D01*
X344300Y219750D02*Y217500D01*
Y219750D02*X345050Y220500D01*
X345800D01*
X346550Y219750D01*
Y217500D01*
X343550Y220500D02*X344300Y219750D01*
X350600Y220500D02*X351350Y219750D01*
X349100Y220500D02*X350600D01*
X348350Y219750D02*X349100Y220500D01*
X348350Y219750D02*Y218250D01*
X349100Y217500D01*
X350600D01*
X351350Y218250D01*
X348350Y216000D02*X349100Y215250D01*
X350600D01*
X351350Y216000D01*
Y220500D02*Y216000D01*
M02*
