G04 start of page 6 for group -4063 idx -4063 *
G04 Title: (unknown), componentmask *
G04 Creator: pcb 20140316 *
G04 CreationDate: Tue 15 Mar 2016 09:44:57 PM GMT UTC *
G04 For: commonadmin *
G04 Format: Gerber/RS-274X *
G04 PCB-Dimensions (mil): 1410.00 1650.00 *
G04 PCB-Coordinate-Origin: lower left *
%MOIN*%
%FSLAX25Y25*%
%LNTOPMASK*%
%ADD72R,0.0260X0.0260*%
%ADD71R,0.0355X0.0355*%
%ADD70R,0.0257X0.0257*%
%ADD69R,0.0572X0.0572*%
%ADD68R,0.1510X0.1510*%
%ADD67C,0.0887*%
%ADD66C,0.1536*%
%ADD65C,0.0611*%
%ADD64C,0.0759*%
%ADD63C,0.2422*%
%ADD62C,0.0660*%
%ADD61C,0.0001*%
G54D61*G36*
X124700Y82800D02*Y76200D01*
X131300D01*
Y82800D01*
X124700D01*
G37*
G54D62*X128000Y69500D03*
G54D61*G36*
X124700Y60300D02*Y53700D01*
X131300D01*
Y60300D01*
X124700D01*
G37*
G54D62*X128000Y47000D03*
G54D63*X120846Y109500D03*
X92500D03*
G54D61*G36*
X112203Y75797D02*Y68203D01*
X119797D01*
Y75797D01*
X112203D01*
G37*
G54D64*X106000Y42000D03*
G54D63*X18500Y21000D03*
X46846D03*
G54D64*X92500Y22000D03*
X116000D03*
G54D61*G36*
X26200Y141800D02*Y135200D01*
X32800D01*
Y141800D01*
X26200D01*
G37*
G36*
X14700D02*Y135200D01*
X21300D01*
Y141800D01*
X14700D01*
G37*
G36*
X3200D02*Y135200D01*
X9800D01*
Y141800D01*
X3200D01*
G37*
G54D62*X29500Y148500D03*
X18000D03*
X6500D03*
X69000D03*
X29500Y158500D03*
X18000D03*
X6500D03*
G54D61*G36*
X65700Y161800D02*Y155200D01*
X72300D01*
Y161800D01*
X65700D01*
G37*
G54D65*X68000Y86000D03*
X58000Y91000D03*
Y81000D03*
X68000Y76000D03*
Y66000D03*
X58000Y71000D03*
Y61000D03*
G54D66*X33000Y96000D03*
Y51000D03*
G54D67*X20992Y104543D03*
Y42535D03*
G54D65*X68000Y56000D03*
G54D61*G36*
X88703Y75797D02*Y68203D01*
X96297D01*
Y75797D01*
X88703D01*
G37*
G54D64*X82500Y42000D03*
G54D68*X64500Y124000D02*Y120000D01*
G54D69*X68319Y34000D02*X70681D01*
X68319Y22190D02*X70681D01*
G54D70*X80000Y130393D02*Y129607D01*
G54D69*X21810Y117181D02*Y114819D01*
X10000Y117181D02*Y114819D01*
G54D68*X42700Y124000D02*Y120000D01*
G54D70*X83148Y130393D02*Y129607D01*
G54D71*X124508Y39000D02*X125492D01*
X130508D02*X131492D01*
X124508Y33882D02*X125492D01*
X130508D02*X131492D01*
G54D72*X134000Y21500D02*Y17700D01*
X130260Y21500D02*Y17700D01*
X126520Y21500D02*Y17700D01*
Y11900D02*Y8100D01*
X134000Y11900D02*Y8100D01*
M02*
