G04 start of page 7 for group -4062 idx -4062 *
G04 Title: (unknown), soldermask *
G04 Creator: pcb 20140316 *
G04 CreationDate: Tue 15 Mar 2016 09:44:57 PM GMT UTC *
G04 For: commonadmin *
G04 Format: Gerber/RS-274X *
G04 PCB-Dimensions (mil): 1410.00 1650.00 *
G04 PCB-Coordinate-Origin: lower left *
%MOIN*%
%FSLAX25Y25*%
%LNBOTTOMMASK*%
%ADD79C,0.0887*%
%ADD78C,0.1536*%
%ADD77C,0.0611*%
%ADD76C,0.0759*%
%ADD75C,0.2422*%
%ADD74C,0.0660*%
%ADD73C,0.0001*%
G54D73*G36*
X124700Y82800D02*Y76200D01*
X131300D01*
Y82800D01*
X124700D01*
G37*
G54D74*X128000Y69500D03*
G54D73*G36*
X124700Y60300D02*Y53700D01*
X131300D01*
Y60300D01*
X124700D01*
G37*
G54D74*X128000Y47000D03*
G54D75*X120846Y109500D03*
X92500D03*
G54D73*G36*
X112203Y75797D02*Y68203D01*
X119797D01*
Y75797D01*
X112203D01*
G37*
G54D76*X106000Y42000D03*
G54D75*X18500Y21000D03*
X46846D03*
G54D76*X92500Y22000D03*
X116000D03*
G54D73*G36*
X26200Y141800D02*Y135200D01*
X32800D01*
Y141800D01*
X26200D01*
G37*
G36*
X14700D02*Y135200D01*
X21300D01*
Y141800D01*
X14700D01*
G37*
G36*
X3200D02*Y135200D01*
X9800D01*
Y141800D01*
X3200D01*
G37*
G54D74*X29500Y148500D03*
X18000D03*
X6500D03*
X69000D03*
X29500Y158500D03*
X18000D03*
X6500D03*
G54D73*G36*
X65700Y161800D02*Y155200D01*
X72300D01*
Y161800D01*
X65700D01*
G37*
G54D77*X68000Y86000D03*
X58000Y91000D03*
Y81000D03*
X68000Y76000D03*
Y66000D03*
X58000Y71000D03*
Y61000D03*
G54D78*X33000Y96000D03*
Y51000D03*
G54D79*X20992Y104543D03*
Y42535D03*
G54D77*X68000Y56000D03*
G54D73*G36*
X88703Y75797D02*Y68203D01*
X96297D01*
Y75797D01*
X88703D01*
G37*
G54D76*X82500Y42000D03*
M02*
