  0
SECTION
  2
HEADER
  9
$ACADVER
  1
AC1009
  9
$EXTMIN
 10
0.0
 20
0.0
 30
0.0
  9
$EXTMAX
 10
1000.0
 20
1000.0
 30
0.0
  9
$FILLMODE
 70
 0
  9
$SPLFRAME
 70
 1
  0
ENDSEC
  0
SECTION
  2
TABLES
  0
TABLE
  2
LAYER
 70
1
  0
LAYER
  2
0
 70
     0
 62
     7
  6
CONTINUOUS
  0
ENDTAB
  0
ENDSEC
  0
SECTION
  2
ENTITIES
  0
POLYLINE
  8
0
 62
     13
 66
     1
 10
0
 20
0
 30
0.0
 40
0.72
 41
0.72
  0
VERTEX
  8
0
 10
3.19504
 20
0.00504557
 30
0.0
 40
0.01
 41
0.01
  0
VERTEX
  8
0
 10
3.19504
 20
0.0600586
 30
0.0
 40
0.01
 41
0.01
  0
SEQEND
 8
0
  0
POLYLINE
  8
0
 62
     13
 66
     1
 10
0
 20
0
 30
0.0
 40
0.72
 41
0.72
  0
VERTEX
  8
0
 10
0.00504557
 20
0.00504557
 30
0.0
 40
0.01
 41
0.01
  0
VERTEX
  8
0
 10
3.19504
 20
0.00504557
 30
0.0
 40
0.01
 41
0.01
  0
SEQEND
 8
0
  0
POLYLINE
  8
0
 62
     13
 66
     1
 10
0
 20
0
 30
0.0
 40
0.72
 41
0.72
  0
VERTEX
  8
0
 10
3.19504
 20
1.54004
 30
0.0
 40
0.01
 41
0.01
  0
VERTEX
  8
0
 10
3.19504
 20
0.0500217
 30
0.0
 40
0.01
 41
0.01
  0
SEQEND
 8
0
  0
POLYLINE
  8
0
 62
     13
 66
     1
 10
0
 20
0
 30
0.0
 40
0.72
 41
0.72
  0
VERTEX
  8
0
 10
0.00504557
 20
1.54004
 30
0.0
 40
0.01
 41
0.01
  0
VERTEX
  8
0
 10
3.19504
 20
1.54004
 30
0.0
 40
0.01
 41
0.01
  0
SEQEND
 8
0
  0
POLYLINE
  8
0
 62
     13
 66
     1
 10
0
 20
0
 30
0.0
 40
0.72
 41
0.72
  0
VERTEX
  8
0
 10
0.00504557
 20
0.00504557
 30
0.0
 40
0.01
 41
0.01
  0
VERTEX
  8
0
 10
0.00504557
 20
1.54004
 30
0.0
 40
0.01
 41
0.01
  0
SEQEND
 8
0
  0
POLYLINE
  8
0
 62
     173
 66
     1
 10
0
 20
0
 30
0.0
 70
     1
 40
0
 41
0
  0
VERTEX
  8
0
 10
0.0600586
 20
0.870063
 30
0.0
 40
0
 41
0
  0
VERTEX
  8
0
 10
0.0500217
 20
0.8801
 30
0.0
 40
0
 41
0
  0
VERTEX
  8
0
 10
0.040039
 20
0.870063
 30
0.0
 40
0
 41
0
  0
VERTEX
  8
0
 10
0.0500217
 20
0.860135
 30
0.0
 40
0
 41
0
  0
VERTEX
  8
0
 10
0.0600586
 20
0.870063
 30
0.0
 40
0
 41
0
  0
SEQEND
 8
0
  0
POLYLINE
  8
0
 62
     173
 66
     1
 10
0
 20
0
 30
0.0
 70
     1
 40
0
 41
0
  0
VERTEX
  8
0
 10
0.240072
 20
0.860081
 30
0.0
 40
0
 41
0
  0
VERTEX
  8
0
 10
0.230035
 20
0.870117
 30
0.0
 40
0
 41
0
  0
VERTEX
  8
0
 10
0.220053
 20
0.860081
 30
0.0
 40
0
 41
0
  0
VERTEX
  8
0
 10
0.230035
 20
0.850151
 30
0.0
 40
0
 41
0
  0
VERTEX
  8
0
 10
0.240072
 20
0.860081
 30
0.0
 40
0
 41
0
  0
SEQEND
 8
0
  0
POLYLINE
  8
0
 62
     173
 66
     1
 10
0
 20
0
 30
0.0
 70
     1
 40
0
 41
0
  0
VERTEX
  8
0
 10
0.270074
 20
1.00005
 30
0.0
 40
0
 41
0
  0
VERTEX
  8
0
 10
0.260038
 20
1.01015
 30
0.0
 40
0
 41
0
  0
VERTEX
  8
0
 10
0.250054
 20
1.00005
 30
0.0
 40
0
 41
0
  0
VERTEX
  8
0
 10
0.260038
 20
0.990126
 30
0.0
 40
0
 41
0
  0
VERTEX
  8
0
 10
0.270074
 20
1.00005
 30
0.0
 40
0
 41
0
  0
SEQEND
 8
0
  0
POLYLINE
  8
0
 62
     173
 66
     1
 10
0
 20
0
 30
0.0
 70
     1
 40
0
 41
0
  0
VERTEX
  8
0
 10
0.480035
 20
1.15511
 30
0.0
 40
0
 41
0
  0
VERTEX
  8
0
 10
0.470053
 20
1.16515
 30
0.0
 40
0
 41
0
  0
VERTEX
  8
0
 10
0.460069
 20
1.15511
 30
0.0
 40
0
 41
0
  0
VERTEX
  8
0
 10
0.470053
 20
1.14513
 30
0.0
 40
0
 41
0
  0
VERTEX
  8
0
 10
0.480035
 20
1.15511
 30
0.0
 40
0
 41
0
  0
SEQEND
 8
0
  0
POLYLINE
  8
0
 62
     173
 66
     1
 10
0
 20
0
 30
0.0
 70
     1
 40
0
 41
0
  0
VERTEX
  8
0
 10
0.595053
 20
1.03505
 30
0.0
 40
0
 41
0
  0
VERTEX
  8
0
 10
0.585015
 20
1.04514
 30
0.0
 40
0
 41
0
  0
VERTEX
  8
0
 10
0.575032
 20
1.03505
 30
0.0
 40
0
 41
0
  0
VERTEX
  8
0
 10
0.585015
 20
1.02512
 30
0.0
 40
0
 41
0
  0
VERTEX
  8
0
 10
0.595053
 20
1.03505
 30
0.0
 40
0
 41
0
  0
SEQEND
 8
0
  0
POLYLINE
  8
0
 62
     173
 66
     1
 10
0
 20
0
 30
0.0
 70
     1
 40
0
 41
0
  0
VERTEX
  8
0
 10
0.665039
 20
0.705078
 30
0.0
 40
0
 41
0
  0
VERTEX
  8
0
 10
0.655057
 20
0.715061
 30
0.0
 40
0
 41
0
  0
VERTEX
  8
0
 10
0.645074
 20
0.705078
 30
0.0
 40
0
 41
0
  0
VERTEX
  8
0
 10
0.655057
 20
0.695096
 30
0.0
 40
0
 41
0
  0
VERTEX
  8
0
 10
0.665039
 20
0.705078
 30
0.0
 40
0
 41
0
  0
SEQEND
 8
0
  0
POLYLINE
  8
0
 62
     173
 66
     1
 10
0
 20
0
 30
0.0
 70
     1
 40
0
 41
0
  0
VERTEX
  8
0
 10
0.795031
 20
0.960124
 30
0.0
 40
0
 41
0
  0
VERTEX
  8
0
 10
0.785047
 20
0.970053
 30
0.0
 40
0
 41
0
  0
VERTEX
  8
0
 10
0.775065
 20
0.960124
 30
0.0
 40
0
 41
0
  0
VERTEX
  8
0
 10
0.785047
 20
0.950142
 30
0.0
 40
0
 41
0
  0
VERTEX
  8
0
 10
0.795031
 20
0.960124
 30
0.0
 40
0
 41
0
  0
SEQEND
 8
0
  0
POLYLINE
  8
0
 62
     173
 66
     1
 10
0
 20
0
 30
0.0
 70
     1
 40
0
 41
0
  0
VERTEX
  8
0
 10
0.805067
 20
0.585124
 30
0.0
 40
0
 41
0
  0
VERTEX
  8
0
 10
0.795031
 20
0.595053
 30
0.0
 40
0
 41
0
  0
VERTEX
  8
0
 10
0.785047
 20
0.585124
 30
0.0
 40
0
 41
0
  0
VERTEX
  8
0
 10
0.795031
 20
0.575142
 30
0.0
 40
0
 41
0
  0
VERTEX
  8
0
 10
0.805067
 20
0.585124
 30
0.0
 40
0
 41
0
  0
SEQEND
 8
0
  0
POLYLINE
  8
0
 62
     173
 66
     1
 10
0
 20
0
 30
0.0
 70
     1
 40
0
 41
0
  0
VERTEX
  8
0
 10
0.990072
 20
1.42003
 30
0.0
 40
0
 41
0
  0
VERTEX
  8
0
 10
0.980035
 20
1.43013
 30
0.0
 40
0
 41
0
  0
VERTEX
  8
0
 10
0.970053
 20
1.42003
 30
0.0
 40
0
 41
0
  0
VERTEX
  8
0
 10
0.980035
 20
1.4101
 30
0.0
 40
0
 41
0
  0
VERTEX
  8
0
 10
0.990072
 20
1.42003
 30
0.0
 40
0
 41
0
  0
SEQEND
 8
0
  0
POLYLINE
  8
0
 62
     173
 66
     1
 10
0
 20
0
 30
0.0
 70
     1
 40
0
 41
0
  0
VERTEX
  8
0
 10
1.10004
 20
0.795031
 30
0.0
 40
0
 41
0
  0
VERTEX
  8
0
 10
1.09006
 20
0.805122
 30
0.0
 40
0
 41
0
  0
VERTEX
  8
0
 10
1.08008
 20
0.795031
 30
0.0
 40
0
 41
0
  0
VERTEX
  8
0
 10
1.09006
 20
0.785101
 30
0.0
 40
0
 41
0
  0
VERTEX
  8
0
 10
1.10004
 20
0.795031
 30
0.0
 40
0
 41
0
  0
SEQEND
 8
0
  0
POLYLINE
  8
0
 62
     173
 66
     1
 10
0
 20
0
 30
0.0
 70
     1
 40
0
 41
0
  0
VERTEX
  8
0
 10
1.28505
 20
1.15007
 30
0.0
 40
0
 41
0
  0
VERTEX
  8
0
 10
1.27507
 20
1.1601
 30
0.0
 40
0
 41
0
  0
VERTEX
  8
0
 10
1.26508
 20
1.15007
 30
0.0
 40
0
 41
0
  0
VERTEX
  8
0
 10
1.27507
 20
1.14014
 30
0.0
 40
0
 41
0
  0
VERTEX
  8
0
 10
1.28505
 20
1.15007
 30
0.0
 40
0
 41
0
  0
SEQEND
 8
0
  0
POLYLINE
  8
0
 62
     173
 66
     1
 10
0
 20
0
 30
0.0
 70
     1
 40
0
 41
0
  0
VERTEX
  8
0
 10
1.50504
 20
0.925076
 30
0.0
 40
0
 41
0
  0
VERTEX
  8
0
 10
1.49507
 20
0.935113
 30
0.0
 40
0
 41
0
  0
VERTEX
  8
0
 10
1.48508
 20
0.925076
 30
0.0
 40
0
 41
0
  0
VERTEX
  8
0
 10
1.49507
 20
0.915093
 30
0.0
 40
0
 41
0
  0
VERTEX
  8
0
 10
1.50504
 20
0.925076
 30
0.0
 40
0
 41
0
  0
SEQEND
 8
0
  0
POLYLINE
  8
0
 62
     173
 66
     1
 10
0
 20
0
 30
0.0
 70
     1
 40
0
 41
0
  0
VERTEX
  8
0
 10
1.70508
 20
1.05512
 30
0.0
 40
0
 41
0
  0
VERTEX
  8
0
 10
1.69504
 20
1.0651
 30
0.0
 40
0
 41
0
  0
VERTEX
  8
0
 10
1.68506
 20
1.05512
 30
0.0
 40
0
 41
0
  0
VERTEX
  8
0
 10
1.69504
 20
1.04508
 30
0.0
 40
0
 41
0
  0
VERTEX
  8
0
 10
1.70508
 20
1.05512
 30
0.0
 40
0
 41
0
  0
SEQEND
 8
0
  0
POLYLINE
  8
0
 62
     173
 66
     1
 10
0
 20
0
 30
0.0
 70
     1
 40
0
 41
0
  0
VERTEX
  8
0
 10
1.78006
 20
0.850097
 30
0.0
 40
0
 41
0
  0
VERTEX
  8
0
 10
1.77001
 20
0.860135
 30
0.0
 40
0
 41
0
  0
VERTEX
  8
0
 10
1.76004
 20
0.850097
 30
0.0
 40
0
 41
0
  0
VERTEX
  8
0
 10
1.77001
 20
0.840061
 30
0.0
 40
0
 41
0
  0
VERTEX
  8
0
 10
1.78006
 20
0.850097
 30
0.0
 40
0
 41
0
  0
SEQEND
 8
0
  0
POLYLINE
  8
0
 62
     173
 66
     1
 10
0
 20
0
 30
0.0
 70
     1
 40
0
 41
0
  0
VERTEX
  8
0
 10
1.84506
 20
0.385038
 30
0.0
 40
0
 41
0
  0
VERTEX
  8
0
 10
1.83501
 20
0.395128
 30
0.0
 40
0
 41
0
  0
VERTEX
  8
0
 10
1.82503
 20
0.385038
 30
0.0
 40
0
 41
0
  0
VERTEX
  8
0
 10
1.83501
 20
0.375108
 30
0.0
 40
0
 41
0
  0
VERTEX
  8
0
 10
1.84506
 20
0.385038
 30
0.0
 40
0
 41
0
  0
SEQEND
 8
0
  0
POLYLINE
  8
0
 62
     173
 66
     1
 10
0
 20
0
 30
0.0
 70
     1
 40
0
 41
0
  0
VERTEX
  8
0
 10
1.90506
 20
1.30008
 30
0.0
 40
0
 41
0
  0
VERTEX
  8
0
 10
1.89501
 20
1.31011
 30
0.0
 40
0
 41
0
  0
VERTEX
  8
0
 10
1.88504
 20
1.30008
 30
0.0
 40
0
 41
0
  0
VERTEX
  8
0
 10
1.89501
 20
1.29009
 30
0.0
 40
0
 41
0
  0
VERTEX
  8
0
 10
1.90506
 20
1.30008
 30
0.0
 40
0
 41
0
  0
SEQEND
 8
0
  0
POLYLINE
  8
0
 62
     173
 66
     1
 10
0
 20
0
 30
0.0
 70
     1
 40
0
 41
0
  0
VERTEX
  8
0
 10
1.91504
 20
0.940375
 30
0.0
 40
0
 41
0
  0
VERTEX
  8
0
 10
1.90506
 20
0.950413
 30
0.0
 40
0
 41
0
  0
VERTEX
  8
0
 10
1.89507
 20
0.940375
 30
0.0
 40
0
 41
0
  0
VERTEX
  8
0
 10
1.90506
 20
0.930447
 30
0.0
 40
0
 41
0
  0
VERTEX
  8
0
 10
1.91504
 20
0.940375
 30
0.0
 40
0
 41
0
  0
SEQEND
 8
0
  0
POLYLINE
  8
0
 62
     173
 66
     1
 10
0
 20
0
 30
0.0
 70
     1
 40
0
 41
0
  0
VERTEX
  8
0
 10
2.15506
 20
1.39512
 30
0.0
 40
0
 41
0
  0
VERTEX
  8
0
 10
2.14501
 20
1.40511
 30
0.0
 40
0
 41
0
  0
VERTEX
  8
0
 10
2.13504
 20
1.39512
 30
0.0
 40
0
 41
0
  0
VERTEX
  8
0
 10
2.14501
 20
1.38515
 30
0.0
 40
0
 41
0
  0
VERTEX
  8
0
 10
2.15506
 20
1.39512
 30
0.0
 40
0
 41
0
  0
SEQEND
 8
0
  0
POLYLINE
  8
0
 62
     173
 66
     1
 10
0
 20
0
 30
0.0
 70
     1
 40
0
 41
0
  0
VERTEX
  8
0
 10
2.48004
 20
0.985081
 30
0.0
 40
0
 41
0
  0
VERTEX
  8
0
 10
2.47006
 20
0.995117
 30
0.0
 40
0
 41
0
  0
VERTEX
  8
0
 10
2.46007
 20
0.985081
 30
0.0
 40
0
 41
0
  0
VERTEX
  8
0
 10
2.47006
 20
0.975151
 30
0.0
 40
0
 41
0
  0
VERTEX
  8
0
 10
2.48004
 20
0.985081
 30
0.0
 40
0
 41
0
  0
SEQEND
 8
0
  0
POLYLINE
  8
0
 62
     173
 66
     1
 10
0
 20
0
 30
0.0
 70
     1
 40
0
 41
0
  0
VERTEX
  8
0
 10
2.56506
 20
0.240072
 30
0.0
 40
0
 41
0
  0
VERTEX
  8
0
 10
2.55501
 20
0.250054
 30
0.0
 40
0
 41
0
  0
VERTEX
  8
0
 10
2.54503
 20
0.240072
 30
0.0
 40
0
 41
0
  0
VERTEX
  8
0
 10
2.55501
 20
0.230143
 30
0.0
 40
0
 41
0
  0
VERTEX
  8
0
 10
2.56506
 20
0.240072
 30
0.0
 40
0
 41
0
  0
SEQEND
 8
0
  0
POLYLINE
  8
0
 62
     173
 66
     1
 10
0
 20
0
 30
0.0
 70
     1
 40
0
 41
0
  0
VERTEX
  8
0
 10
2.57503
 20
0.475097
 30
0.0
 40
0
 41
0
  0
VERTEX
  8
0
 10
2.56506
 20
0.485135
 30
0.0
 40
0
 41
0
  0
VERTEX
  8
0
 10
2.55507
 20
0.475097
 30
0.0
 40
0
 41
0
  0
VERTEX
  8
0
 10
2.56506
 20
0.465061
 30
0.0
 40
0
 41
0
  0
VERTEX
  8
0
 10
2.57503
 20
0.475097
 30
0.0
 40
0
 41
0
  0
SEQEND
 8
0
  0
POLYLINE
  8
0
 62
     173
 66
     1
 10
0
 20
0
 30
0.0
 70
     1
 40
0
 41
0
  0
VERTEX
  8
0
 10
2.61507
 20
1.18511
 30
0.0
 40
0
 41
0
  0
VERTEX
  8
0
 10
2.60504
 20
1.1951
 30
0.0
 40
0
 41
0
  0
VERTEX
  8
0
 10
2.59506
 20
1.18511
 30
0.0
 40
0
 41
0
  0
VERTEX
  8
0
 10
2.60504
 20
1.17508
 30
0.0
 40
0
 41
0
  0
VERTEX
  8
0
 10
2.61507
 20
1.18511
 30
0.0
 40
0
 41
0
  0
SEQEND
 8
0
  0
POLYLINE
  8
0
 62
     173
 66
     1
 10
0
 20
0
 30
0.0
 70
     1
 40
0
 41
0
  0
VERTEX
  8
0
 10
2.81006
 20
0.860081
 30
0.0
 40
0
 41
0
  0
VERTEX
  8
0
 10
2.80003
 20
0.870117
 30
0.0
 40
0
 41
0
  0
VERTEX
  8
0
 10
2.79004
 20
0.860081
 30
0.0
 40
0
 41
0
  0
VERTEX
  8
0
 10
2.80003
 20
0.850151
 30
0.0
 40
0
 41
0
  0
VERTEX
  8
0
 10
2.81006
 20
0.860081
 30
0.0
 40
0
 41
0
  0
SEQEND
 8
0
  0
POLYLINE
  8
0
 62
     173
 66
     1
 10
0
 20
0
 30
0.0
 70
     1
 40
0
 41
0
  0
VERTEX
  8
0
 10
2.85004
 20
0.700087
 30
0.0
 40
0
 41
0
  0
VERTEX
  8
0
 10
2.84006
 20
0.710069
 30
0.0
 40
0
 41
0
  0
VERTEX
  8
0
 10
2.83008
 20
0.700087
 30
0.0
 40
0
 41
0
  0
VERTEX
  8
0
 10
2.84006
 20
0.690158
 30
0.0
 40
0
 41
0
  0
VERTEX
  8
0
 10
2.85004
 20
0.700087
 30
0.0
 40
0
 41
0
  0
SEQEND
 8
0
  0
POLYLINE
  8
0
 62
     173
 66
     1
 10
0
 20
0
 30
0.0
 70
     1
 40
0
 41
0
  0
VERTEX
  8
0
 10
2.92507
 20
1.00005
 30
0.0
 40
0
 41
0
  0
VERTEX
  8
0
 10
2.91504
 20
1.01015
 30
0.0
 40
0
 41
0
  0
VERTEX
  8
0
 10
2.90506
 20
1.00005
 30
0.0
 40
0
 41
0
  0
VERTEX
  8
0
 10
2.91504
 20
0.990126
 30
0.0
 40
0
 41
0
  0
VERTEX
  8
0
 10
2.92507
 20
1.00005
 30
0.0
 40
0
 41
0
  0
SEQEND
 8
0
  0
POLYLINE
  8
0
 62
     173
 66
     1
 10
0
 20
0
 30
0.0
 70
     1
 40
0
 41
0
  0
VERTEX
  8
0
 10
3.13504
 20
0.900065
 30
0.0
 40
0
 41
0
  0
VERTEX
  8
0
 10
3.12506
 20
0.910101
 30
0.0
 40
0
 41
0
  0
VERTEX
  8
0
 10
3.11507
 20
0.900065
 30
0.0
 40
0
 41
0
  0
VERTEX
  8
0
 10
3.12506
 20
0.890136
 30
0.0
 40
0
 41
0
  0
VERTEX
  8
0
 10
3.13504
 20
0.900065
 30
0.0
 40
0
 41
0
  0
SEQEND
 8
0
  0
POLYLINE
  8
0
 62
     173
 66
     1
 10
0
 20
0
 30
0.0
 70
     1
 40
0
 41
0
  0
VERTEX
  8
0
 10
0.885037
 20
1.29503
 30
0.0
 40
0
 41
0
  0
VERTEX
  8
0
 10
0.880317
 20
1.30637
 30
0.0
 40
0
 41
0
  0
VERTEX
  8
0
 10
0.870008
 20
1.31011
 30
0.0
 40
0
 41
0
  0
VERTEX
  8
0
 10
0.8597
 20
1.30637
 30
0.0
 40
0
 41
0
  0
VERTEX
  8
0
 10
0.855035
 20
1.29503
 30
0.0
 40
0
 41
0
  0
VERTEX
  8
0
 10
0.8597
 20
1.2838
 30
0.0
 40
0
 41
0
  0
VERTEX
  8
0
 10
0.870008
 20
1.28006
 30
0.0
 40
0
 41
0
  0
VERTEX
  8
0
 10
0.880317
 20
1.2838
 30
0.0
 40
0
 41
0
  0
VERTEX
  8
0
 10
0.885037
 20
1.29503
 30
0.0
 40
0
 41
0
  0
SEQEND
 8
0
  0
POLYLINE
  8
0
 62
     173
 66
     1
 10
0
 20
0
 30
0.0
 70
     1
 40
0
 41
0
  0
VERTEX
  8
0
 10
1.08507
 20
1.29503
 30
0.0
 40
0
 41
0
  0
VERTEX
  8
0
 10
1.08035
 20
1.30637
 30
0.0
 40
0
 41
0
  0
VERTEX
  8
0
 10
1.07004
 20
1.31011
 30
0.0
 40
0
 41
0
  0
VERTEX
  8
0
 10
1.05973
 20
1.30637
 30
0.0
 40
0
 41
0
  0
VERTEX
  8
0
 10
1.05507
 20
1.29503
 30
0.0
 40
0
 41
0
  0
VERTEX
  8
0
 10
1.05973
 20
1.2838
 30
0.0
 40
0
 41
0
  0
VERTEX
  8
0
 10
1.07004
 20
1.28006
 30
0.0
 40
0
 41
0
  0
VERTEX
  8
0
 10
1.08035
 20
1.2838
 30
0.0
 40
0
 41
0
  0
VERTEX
  8
0
 10
1.08507
 20
1.29503
 30
0.0
 40
0
 41
0
  0
SEQEND
 8
0
  0
POLYLINE
  8
0
 62
     173
 66
     1
 10
0
 20
0
 30
0.0
 70
     1
 40
0
 41
0
  0
VERTEX
  8
0
 10
2.49007
 20
0.835124
 30
0.0
 40
0
 41
0
  0
VERTEX
  8
0
 10
2.48535
 20
0.846354
 30
0.0
 40
0
 41
0
  0
VERTEX
  8
0
 10
2.47504
 20
0.850097
 30
0.0
 40
0
 41
0
  0
VERTEX
  8
0
 10
2.46474
 20
0.846354
 30
0.0
 40
0
 41
0
  0
VERTEX
  8
0
 10
2.46007
 20
0.835124
 30
0.0
 40
0
 41
0
  0
VERTEX
  8
0
 10
2.46474
 20
0.823893
 30
0.0
 40
0
 41
0
  0
VERTEX
  8
0
 10
2.47504
 20
0.82015
 30
0.0
 40
0
 41
0
  0
VERTEX
  8
0
 10
2.48535
 20
0.823893
 30
0.0
 40
0
 41
0
  0
VERTEX
  8
0
 10
2.49007
 20
0.835124
 30
0.0
 40
0
 41
0
  0
SEQEND
 8
0
  0
POLYLINE
  8
0
 62
     173
 66
     1
 10
0
 20
0
 30
0.0
 70
     1
 40
0
 41
0
  0
VERTEX
  8
0
 10
2.69006
 20
0.835124
 30
0.0
 40
0
 41
0
  0
VERTEX
  8
0
 10
2.68533
 20
0.846354
 30
0.0
 40
0
 41
0
  0
VERTEX
  8
0
 10
2.67503
 20
0.850097
 30
0.0
 40
0
 41
0
  0
VERTEX
  8
0
 10
2.66471
 20
0.846354
 30
0.0
 40
0
 41
0
  0
VERTEX
  8
0
 10
2.66004
 20
0.835124
 30
0.0
 40
0
 41
0
  0
VERTEX
  8
0
 10
2.66471
 20
0.823893
 30
0.0
 40
0
 41
0
  0
VERTEX
  8
0
 10
2.67503
 20
0.82015
 30
0.0
 40
0
 41
0
  0
VERTEX
  8
0
 10
2.68533
 20
0.823893
 30
0.0
 40
0
 41
0
  0
VERTEX
  8
0
 10
2.69006
 20
0.835124
 30
0.0
 40
0
 41
0
  0
SEQEND
 8
0
  0
POLYLINE
  8
0
 62
     173
 66
     1
 10
0
 20
0
 30
0.0
 70
     1
 40
0
 41
0
  0
VERTEX
  8
0
 10
3.03006
 20
0.365072
 30
0.0
 40
0
 41
0
  0
VERTEX
  8
0
 10
3.02533
 20
0.376303
 30
0.0
 40
0
 41
0
  0
VERTEX
  8
0
 10
3.01503
 20
0.380046
 30
0.0
 40
0
 41
0
  0
VERTEX
  8
0
 10
3.00472
 20
0.376303
 30
0.0
 40
0
 41
0
  0
VERTEX
  8
0
 10
3.00006
 20
0.365072
 30
0.0
 40
0
 41
0
  0
VERTEX
  8
0
 10
3.00472
 20
0.353842
 30
0.0
 40
0
 41
0
  0
VERTEX
  8
0
 10
3.01503
 20
0.350097
 30
0.0
 40
0
 41
0
  0
VERTEX
  8
0
 10
3.02533
 20
0.353842
 30
0.0
 40
0
 41
0
  0
VERTEX
  8
0
 10
3.03006
 20
0.365072
 30
0.0
 40
0
 41
0
  0
SEQEND
 8
0
  0
POLYLINE
  8
0
 62
     173
 66
     1
 10
0
 20
0
 30
0.0
 70
     1
 40
0
 41
0
  0
VERTEX
  8
0
 10
3.13004
 20
0.665093
 30
0.0
 40
0
 41
0
  0
VERTEX
  8
0
 10
3.12532
 20
0.676378
 30
0.0
 40
0
 41
0
  0
VERTEX
  8
0
 10
3.11501
 20
0.680122
 30
0.0
 40
0
 41
0
  0
VERTEX
  8
0
 10
3.10471
 20
0.676378
 30
0.0
 40
0
 41
0
  0
VERTEX
  8
0
 10
3.10004
 20
0.665093
 30
0.0
 40
0
 41
0
  0
VERTEX
  8
0
 10
3.10471
 20
0.653862
 30
0.0
 40
0
 41
0
  0
VERTEX
  8
0
 10
3.11501
 20
0.650119
 30
0.0
 40
0
 41
0
  0
VERTEX
  8
0
 10
3.12532
 20
0.653862
 30
0.0
 40
0
 41
0
  0
VERTEX
  8
0
 10
3.13004
 20
0.665093
 30
0.0
 40
0
 41
0
  0
SEQEND
 8
0
  0
POLYLINE
  8
0
 62
     173
 66
     1
 10
0
 20
0
 30
0.0
 70
     1
 40
0
 41
0
  0
VERTEX
  8
0
 10
3.13004
 20
0.165093
 30
0.0
 40
0
 41
0
  0
VERTEX
  8
0
 10
3.12532
 20
0.176378
 30
0.0
 40
0
 41
0
  0
VERTEX
  8
0
 10
3.11501
 20
0.180122
 30
0.0
 40
0
 41
0
  0
VERTEX
  8
0
 10
3.10471
 20
0.176378
 30
0.0
 40
0
 41
0
  0
VERTEX
  8
0
 10
3.10004
 20
0.165093
 30
0.0
 40
0
 41
0
  0
VERTEX
  8
0
 10
3.10471
 20
0.153863
 30
0.0
 40
0
 41
0
  0
VERTEX
  8
0
 10
3.11501
 20
0.150119
 30
0.0
 40
0
 41
0
  0
VERTEX
  8
0
 10
3.12532
 20
0.153863
 30
0.0
 40
0
 41
0
  0
VERTEX
  8
0
 10
3.13004
 20
0.165093
 30
0.0
 40
0
 41
0
  0
SEQEND
 8
0
  0
POLYLINE
  8
0
 62
     173
 66
     1
 10
0
 20
0
 30
0.0
 70
     1
 40
0
 41
0
  0
VERTEX
  8
0
 10
0.902561
 20
0.760037
 30
0.0
 40
0
 41
0
  0
VERTEX
  8
0
 10
0.897081
 20
0.773221
 30
0.0
 40
0
 41
0
  0
VERTEX
  8
0
 10
0.885037
 20
0.777615
 30
0.0
 40
0
 41
0
  0
VERTEX
  8
0
 10
0.872993
 20
0.773221
 30
0.0
 40
0
 41
0
  0
VERTEX
  8
0
 10
0.867567
 20
0.760037
 30
0.0
 40
0
 41
0
  0
VERTEX
  8
0
 10
0.872993
 20
0.746962
 30
0.0
 40
0
 41
0
  0
VERTEX
  8
0
 10
0.885037
 20
0.742622
 30
0.0
 40
0
 41
0
  0
VERTEX
  8
0
 10
0.897081
 20
0.746962
 30
0.0
 40
0
 41
0
  0
VERTEX
  8
0
 10
0.902561
 20
0.760037
 30
0.0
 40
0
 41
0
  0
SEQEND
 8
0
  0
POLYLINE
  8
0
 62
     173
 66
     1
 10
0
 20
0
 30
0.0
 70
     1
 40
0
 41
0
  0
VERTEX
  8
0
 10
1.20258
 20
0.540093
 30
0.0
 40
0
 41
0
  0
VERTEX
  8
0
 10
1.1971
 20
0.553222
 30
0.0
 40
0
 41
0
  0
VERTEX
  8
0
 10
1.18506
 20
0.557617
 30
0.0
 40
0
 41
0
  0
VERTEX
  8
0
 10
1.17296
 20
0.553222
 30
0.0
 40
0
 41
0
  0
VERTEX
  8
0
 10
1.16753
 20
0.540093
 30
0.0
 40
0
 41
0
  0
VERTEX
  8
0
 10
1.17296
 20
0.527018
 30
0.0
 40
0
 41
0
  0
VERTEX
  8
0
 10
1.18506
 20
0.522624
 30
0.0
 40
0
 41
0
  0
VERTEX
  8
0
 10
1.1971
 20
0.527018
 30
0.0
 40
0
 41
0
  0
VERTEX
  8
0
 10
1.20258
 20
0.540093
 30
0.0
 40
0
 41
0
  0
SEQEND
 8
0
  0
POLYLINE
  8
0
 62
     173
 66
     1
 10
0
 20
0
 30
0.0
 70
     1
 40
0
 41
0
  0
VERTEX
  8
0
 10
1.36258
 20
0.760037
 30
0.0
 40
0
 41
0
  0
VERTEX
  8
0
 10
1.3571
 20
0.773221
 30
0.0
 40
0
 41
0
  0
VERTEX
  8
0
 10
1.34505
 20
0.777615
 30
0.0
 40
0
 41
0
  0
VERTEX
  8
0
 10
1.33301
 20
0.773221
 30
0.0
 40
0
 41
0
  0
VERTEX
  8
0
 10
1.32758
 20
0.760037
 30
0.0
 40
0
 41
0
  0
VERTEX
  8
0
 10
1.33301
 20
0.746962
 30
0.0
 40
0
 41
0
  0
VERTEX
  8
0
 10
1.34505
 20
0.742622
 30
0.0
 40
0
 41
0
  0
VERTEX
  8
0
 10
1.3571
 20
0.746962
 30
0.0
 40
0
 41
0
  0
VERTEX
  8
0
 10
1.36258
 20
0.760037
 30
0.0
 40
0
 41
0
  0
SEQEND
 8
0
  0
POLYLINE
  8
0
 62
     173
 66
     1
 10
0
 20
0
 30
0.0
 70
     1
 40
0
 41
0
  0
VERTEX
  8
0
 10
1.63753
 20
0.865072
 30
0.0
 40
0
 41
0
  0
VERTEX
  8
0
 10
1.63206
 20
0.878256
 30
0.0
 40
0
 41
0
  0
VERTEX
  8
0
 10
1.62001
 20
0.88265
 30
0.0
 40
0
 41
0
  0
VERTEX
  8
0
 10
1.60796
 20
0.878256
 30
0.0
 40
0
 41
0
  0
VERTEX
  8
0
 10
1.60254
 20
0.865072
 30
0.0
 40
0
 41
0
  0
VERTEX
  8
0
 10
1.60796
 20
0.851997
 30
0.0
 40
0
 41
0
  0
VERTEX
  8
0
 10
1.62001
 20
0.847601
 30
0.0
 40
0
 41
0
  0
VERTEX
  8
0
 10
1.63206
 20
0.851997
 30
0.0
 40
0
 41
0
  0
VERTEX
  8
0
 10
1.63753
 20
0.865072
 30
0.0
 40
0
 41
0
  0
SEQEND
 8
0
  0
POLYLINE
  8
0
 62
     173
 66
     1
 10
0
 20
0
 30
0.0
 70
     1
 40
0
 41
0
  0
VERTEX
  8
0
 10
1.85753
 20
0.625054
 30
0.0
 40
0
 41
0
  0
VERTEX
  8
0
 10
1.85206
 20
0.638237
 30
0.0
 40
0
 41
0
  0
VERTEX
  8
0
 10
1.84
 20
0.642632
 30
0.0
 40
0
 41
0
  0
VERTEX
  8
0
 10
1.82796
 20
0.638237
 30
0.0
 40
0
 41
0
  0
VERTEX
  8
0
 10
1.82254
 20
0.625054
 30
0.0
 40
0
 41
0
  0
VERTEX
  8
0
 10
1.82796
 20
0.611979
 30
0.0
 40
0
 41
0
  0
VERTEX
  8
0
 10
1.84
 20
0.607639
 30
0.0
 40
0
 41
0
  0
VERTEX
  8
0
 10
1.85206
 20
0.611979
 30
0.0
 40
0
 41
0
  0
VERTEX
  8
0
 10
1.85753
 20
0.625054
 30
0.0
 40
0
 41
0
  0
SEQEND
 8
0
  0
POLYLINE
  8
0
 62
     173
 66
     1
 10
0
 20
0
 30
0.0
 70
     1
 40
0
 41
0
  0
VERTEX
  8
0
 10
1.91754
 20
0.760037
 30
0.0
 40
0
 41
0
  0
VERTEX
  8
0
 10
1.91206
 20
0.773221
 30
0.0
 40
0
 41
0
  0
VERTEX
  8
0
 10
1.90001
 20
0.777615
 30
0.0
 40
0
 41
0
  0
VERTEX
  8
0
 10
1.88797
 20
0.773221
 30
0.0
 40
0
 41
0
  0
VERTEX
  8
0
 10
1.88254
 20
0.760037
 30
0.0
 40
0
 41
0
  0
VERTEX
  8
0
 10
1.88797
 20
0.746962
 30
0.0
 40
0
 41
0
  0
VERTEX
  8
0
 10
1.90001
 20
0.742622
 30
0.0
 40
0
 41
0
  0
VERTEX
  8
0
 10
1.91206
 20
0.746962
 30
0.0
 40
0
 41
0
  0
VERTEX
  8
0
 10
1.91754
 20
0.760037
 30
0.0
 40
0
 41
0
  0
SEQEND
 8
0
  0
POLYLINE
  8
0
 62
     173
 66
     1
 10
0
 20
0
 30
0.0
 70
     1
 40
0
 41
0
  0
VERTEX
  8
0
 10
2.01253
 20
0.770128
 30
0.0
 40
0
 41
0
  0
VERTEX
  8
0
 10
2.00706
 20
0.783257
 30
0.0
 40
0
 41
0
  0
VERTEX
  8
0
 10
1.99501
 20
0.787651
 30
0.0
 40
0
 41
0
  0
VERTEX
  8
0
 10
1.98296
 20
0.783257
 30
0.0
 40
0
 41
0
  0
VERTEX
  8
0
 10
1.97754
 20
0.770128
 30
0.0
 40
0
 41
0
  0
VERTEX
  8
0
 10
1.98296
 20
0.756999
 30
0.0
 40
0
 41
0
  0
VERTEX
  8
0
 10
1.99501
 20
0.752604
 30
0.0
 40
0
 41
0
  0
VERTEX
  8
0
 10
2.00706
 20
0.756999
 30
0.0
 40
0
 41
0
  0
VERTEX
  8
0
 10
2.01253
 20
0.770128
 30
0.0
 40
0
 41
0
  0
SEQEND
 8
0
  0
POLYLINE
  8
0
 62
     173
 66
     1
 10
0
 20
0
 30
0.0
 70
     1
 40
0
 41
0
  0
VERTEX
  8
0
 10
2.26758
 20
0.740072
 30
0.0
 40
0
 41
0
  0
VERTEX
  8
0
 10
2.2621
 20
0.753256
 30
0.0
 40
0
 41
0
  0
VERTEX
  8
0
 10
2.25006
 20
0.75765
 30
0.0
 40
0
 41
0
  0
VERTEX
  8
0
 10
2.23796
 20
0.753256
 30
0.0
 40
0
 41
0
  0
VERTEX
  8
0
 10
2.23253
 20
0.740072
 30
0.0
 40
0
 41
0
  0
VERTEX
  8
0
 10
2.23796
 20
0.726997
 30
0.0
 40
0
 41
0
  0
VERTEX
  8
0
 10
2.25006
 20
0.722601
 30
0.0
 40
0
 41
0
  0
VERTEX
  8
0
 10
2.2621
 20
0.726997
 30
0.0
 40
0
 41
0
  0
VERTEX
  8
0
 10
2.26758
 20
0.740072
 30
0.0
 40
0
 41
0
  0
SEQEND
 8
0
  0
POLYLINE
  8
0
 62
     173
 66
     1
 10
0
 20
0
 30
0.0
 70
     1
 40
0
 41
0
  0
VERTEX
  8
0
 10
2.68257
 20
1.40511
 30
0.0
 40
0
 41
0
  0
VERTEX
  8
0
 10
2.67708
 20
1.41824
 30
0.0
 40
0
 41
0
  0
VERTEX
  8
0
 10
2.66504
 20
1.42264
 30
0.0
 40
0
 41
0
  0
VERTEX
  8
0
 10
2.653
 20
1.41824
 30
0.0
 40
0
 41
0
  0
VERTEX
  8
0
 10
2.64757
 20
1.40511
 30
0.0
 40
0
 41
0
  0
VERTEX
  8
0
 10
2.653
 20
1.39204
 30
0.0
 40
0
 41
0
  0
VERTEX
  8
0
 10
2.66504
 20
1.38764
 30
0.0
 40
0
 41
0
  0
VERTEX
  8
0
 10
2.67708
 20
1.39204
 30
0.0
 40
0
 41
0
  0
VERTEX
  8
0
 10
2.68257
 20
1.40511
 30
0.0
 40
0
 41
0
  0
SEQEND
 8
0
  0
POLYLINE
  8
0
 62
     173
 66
     1
 10
0
 20
0
 30
0.0
 70
     1
 40
0
 41
0
  0
VERTEX
  8
0
 10
0.222547
 20
0.595107
 30
0.0
 40
0
 41
0
  0
VERTEX
  8
0
 10
0.217068
 20
0.608236
 30
0.0
 40
0
 41
0
  0
VERTEX
  8
0
 10
0.205024
 20
0.612576
 30
0.0
 40
0
 41
0
  0
VERTEX
  8
0
 10
0.192979
 20
0.608236
 30
0.0
 40
0
 41
0
  0
VERTEX
  8
0
 10
0.187554
 20
0.595107
 30
0.0
 40
0
 41
0
  0
VERTEX
  8
0
 10
0.192979
 20
0.582032
 30
0.0
 40
0
 41
0
  0
VERTEX
  8
0
 10
0.205024
 20
0.577636
 30
0.0
 40
0
 41
0
  0
VERTEX
  8
0
 10
0.217068
 20
0.582032
 30
0.0
 40
0
 41
0
  0
VERTEX
  8
0
 10
0.222547
 20
0.595107
 30
0.0
 40
0
 41
0
  0
SEQEND
 8
0
  0
POLYLINE
  8
0
 62
     173
 66
     1
 10
0
 20
0
 30
0.0
 70
     1
 40
0
 41
0
  0
VERTEX
  8
0
 10
0.272569
 20
0.695096
 30
0.0
 40
0
 41
0
  0
VERTEX
  8
0
 10
0.26709
 20
0.708225
 30
0.0
 40
0
 41
0
  0
VERTEX
  8
0
 10
0.255046
 20
0.712565
 30
0.0
 40
0
 41
0
  0
VERTEX
  8
0
 10
0.243001
 20
0.708225
 30
0.0
 40
0
 41
0
  0
VERTEX
  8
0
 10
0.237576
 20
0.695096
 30
0.0
 40
0
 41
0
  0
VERTEX
  8
0
 10
0.243001
 20
0.681967
 30
0.0
 40
0
 41
0
  0
VERTEX
  8
0
 10
0.255046
 20
0.677572
 30
0.0
 40
0
 41
0
  0
VERTEX
  8
0
 10
0.26709
 20
0.681967
 30
0.0
 40
0
 41
0
  0
VERTEX
  8
0
 10
0.272569
 20
0.695096
 30
0.0
 40
0
 41
0
  0
SEQEND
 8
0
  0
POLYLINE
  8
0
 62
     173
 66
     1
 10
0
 20
0
 30
0.0
 70
     1
 40
0
 41
0
  0
VERTEX
  8
0
 10
0.322538
 20
0.595107
 30
0.0
 40
0
 41
0
  0
VERTEX
  8
0
 10
0.317057
 20
0.608236
 30
0.0
 40
0
 41
0
  0
VERTEX
  8
0
 10
0.305012
 20
0.612576
 30
0.0
 40
0
 41
0
  0
VERTEX
  8
0
 10
0.292969
 20
0.608236
 30
0.0
 40
0
 41
0
  0
VERTEX
  8
0
 10
0.287543
 20
0.595107
 30
0.0
 40
0
 41
0
  0
VERTEX
  8
0
 10
0.292969
 20
0.582032
 30
0.0
 40
0
 41
0
  0
VERTEX
  8
0
 10
0.305012
 20
0.577636
 30
0.0
 40
0
 41
0
  0
VERTEX
  8
0
 10
0.317057
 20
0.582032
 30
0.0
 40
0
 41
0
  0
VERTEX
  8
0
 10
0.322538
 20
0.595107
 30
0.0
 40
0
 41
0
  0
SEQEND
 8
0
  0
POLYLINE
  8
0
 62
     173
 66
     1
 10
0
 20
0
 30
0.0
 70
     1
 40
0
 41
0
  0
VERTEX
  8
0
 10
0.372558
 20
0.695096
 30
0.0
 40
0
 41
0
  0
VERTEX
  8
0
 10
0.367079
 20
0.708225
 30
0.0
 40
0
 41
0
  0
VERTEX
  8
0
 10
0.355035
 20
0.712565
 30
0.0
 40
0
 41
0
  0
VERTEX
  8
0
 10
0.34299
 20
0.708225
 30
0.0
 40
0
 41
0
  0
VERTEX
  8
0
 10
0.337565
 20
0.695096
 30
0.0
 40
0
 41
0
  0
VERTEX
  8
0
 10
0.34299
 20
0.681967
 30
0.0
 40
0
 41
0
  0
VERTEX
  8
0
 10
0.355035
 20
0.677572
 30
0.0
 40
0
 41
0
  0
VERTEX
  8
0
 10
0.367079
 20
0.681967
 30
0.0
 40
0
 41
0
  0
VERTEX
  8
0
 10
0.372558
 20
0.695096
 30
0.0
 40
0
 41
0
  0
SEQEND
 8
0
  0
POLYLINE
  8
0
 62
     173
 66
     1
 10
0
 20
0
 30
0.0
 70
     1
 40
0
 41
0
  0
VERTEX
  8
0
 10
0.422581
 20
0.595107
 30
0.0
 40
0
 41
0
  0
VERTEX
  8
0
 10
0.417101
 20
0.608236
 30
0.0
 40
0
 41
0
  0
VERTEX
  8
0
 10
0.405057
 20
0.612576
 30
0.0
 40
0
 41
0
  0
VERTEX
  8
0
 10
0.392958
 20
0.608236
 30
0.0
 40
0
 41
0
  0
VERTEX
  8
0
 10
0.387532
 20
0.595107
 30
0.0
 40
0
 41
0
  0
VERTEX
  8
0
 10
0.392958
 20
0.582032
 30
0.0
 40
0
 41
0
  0
VERTEX
  8
0
 10
0.405057
 20
0.577636
 30
0.0
 40
0
 41
0
  0
VERTEX
  8
0
 10
0.417101
 20
0.582032
 30
0.0
 40
0
 41
0
  0
VERTEX
  8
0
 10
0.422581
 20
0.595107
 30
0.0
 40
0
 41
0
  0
SEQEND
 8
0
  0
POLYLINE
  8
0
 62
     173
 66
     1
 10
0
 20
0
 30
0.0
 70
     1
 40
0
 41
0
  0
VERTEX
  8
0
 10
0.472547
 20
0.695096
 30
0.0
 40
0
 41
0
  0
VERTEX
  8
0
 10
0.467068
 20
0.708225
 30
0.0
 40
0
 41
0
  0
VERTEX
  8
0
 10
0.455024
 20
0.712565
 30
0.0
 40
0
 41
0
  0
VERTEX
  8
0
 10
0.442979
 20
0.708225
 30
0.0
 40
0
 41
0
  0
VERTEX
  8
0
 10
0.437554
 20
0.695096
 30
0.0
 40
0
 41
0
  0
VERTEX
  8
0
 10
0.442979
 20
0.681967
 30
0.0
 40
0
 41
0
  0
VERTEX
  8
0
 10
0.455024
 20
0.677572
 30
0.0
 40
0
 41
0
  0
VERTEX
  8
0
 10
0.467068
 20
0.681967
 30
0.0
 40
0
 41
0
  0
VERTEX
  8
0
 10
0.472547
 20
0.695096
 30
0.0
 40
0
 41
0
  0
SEQEND
 8
0
  0
POLYLINE
  8
0
 62
     173
 66
     1
 10
0
 20
0
 30
0.0
 70
     1
 40
0
 41
0
  0
VERTEX
  8
0
 10
0.522569
 20
0.595107
 30
0.0
 40
0
 41
0
  0
VERTEX
  8
0
 10
0.51709
 20
0.608236
 30
0.0
 40
0
 41
0
  0
VERTEX
  8
0
 10
0.505046
 20
0.612576
 30
0.0
 40
0
 41
0
  0
VERTEX
  8
0
 10
0.493001
 20
0.608236
 30
0.0
 40
0
 41
0
  0
VERTEX
  8
0
 10
0.487576
 20
0.595107
 30
0.0
 40
0
 41
0
  0
VERTEX
  8
0
 10
0.493001
 20
0.582032
 30
0.0
 40
0
 41
0
  0
VERTEX
  8
0
 10
0.505046
 20
0.577636
 30
0.0
 40
0
 41
0
  0
VERTEX
  8
0
 10
0.51709
 20
0.582032
 30
0.0
 40
0
 41
0
  0
VERTEX
  8
0
 10
0.522569
 20
0.595107
 30
0.0
 40
0
 41
0
  0
SEQEND
 8
0
  0
POLYLINE
  8
0
 62
     173
 66
     1
 10
0
 20
0
 30
0.0
 70
     1
 40
0
 41
0
  0
VERTEX
  8
0
 10
0.572537
 20
0.695096
 30
0.0
 40
0
 41
0
  0
VERTEX
  8
0
 10
0.567057
 20
0.708225
 30
0.0
 40
0
 41
0
  0
VERTEX
  8
0
 10
0.555012
 20
0.712565
 30
0.0
 40
0
 41
0
  0
VERTEX
  8
0
 10
0.542969
 20
0.708225
 30
0.0
 40
0
 41
0
  0
VERTEX
  8
0
 10
0.537543
 20
0.695096
 30
0.0
 40
0
 41
0
  0
VERTEX
  8
0
 10
0.542969
 20
0.681967
 30
0.0
 40
0
 41
0
  0
VERTEX
  8
0
 10
0.555012
 20
0.677572
 30
0.0
 40
0
 41
0
  0
VERTEX
  8
0
 10
0.567057
 20
0.681967
 30
0.0
 40
0
 41
0
  0
VERTEX
  8
0
 10
0.572537
 20
0.695096
 30
0.0
 40
0
 41
0
  0
SEQEND
 8
0
  0
POLYLINE
  8
0
 62
     173
 66
     1
 10
0
 20
0
 30
0.0
 70
     1
 40
0
 41
0
  0
VERTEX
  8
0
 10
0.942546
 20
0.595107
 30
0.0
 40
0
 41
0
  0
VERTEX
  8
0
 10
0.937067
 20
0.608236
 30
0.0
 40
0
 41
0
  0
VERTEX
  8
0
 10
0.925022
 20
0.612576
 30
0.0
 40
0
 41
0
  0
VERTEX
  8
0
 10
0.912978
 20
0.608236
 30
0.0
 40
0
 41
0
  0
VERTEX
  8
0
 10
0.907553
 20
0.595107
 30
0.0
 40
0
 41
0
  0
VERTEX
  8
0
 10
0.912978
 20
0.582032
 30
0.0
 40
0
 41
0
  0
VERTEX
  8
0
 10
0.925022
 20
0.577636
 30
0.0
 40
0
 41
0
  0
VERTEX
  8
0
 10
0.937067
 20
0.582032
 30
0.0
 40
0
 41
0
  0
VERTEX
  8
0
 10
0.942546
 20
0.595107
 30
0.0
 40
0
 41
0
  0
SEQEND
 8
0
  0
POLYLINE
  8
0
 62
     173
 66
     1
 10
0
 20
0
 30
0.0
 70
     1
 40
0
 41
0
  0
VERTEX
  8
0
 10
0.992567
 20
0.695096
 30
0.0
 40
0
 41
0
  0
VERTEX
  8
0
 10
0.987087
 20
0.708225
 30
0.0
 40
0
 41
0
  0
VERTEX
  8
0
 10
0.975043
 20
0.712565
 30
0.0
 40
0
 41
0
  0
VERTEX
  8
0
 10
0.962999
 20
0.708225
 30
0.0
 40
0
 41
0
  0
VERTEX
  8
0
 10
0.957574
 20
0.695096
 30
0.0
 40
0
 41
0
  0
VERTEX
  8
0
 10
0.962999
 20
0.681967
 30
0.0
 40
0
 41
0
  0
VERTEX
  8
0
 10
0.975043
 20
0.677572
 30
0.0
 40
0
 41
0
  0
VERTEX
  8
0
 10
0.987087
 20
0.681967
 30
0.0
 40
0
 41
0
  0
VERTEX
  8
0
 10
0.992567
 20
0.695096
 30
0.0
 40
0
 41
0
  0
SEQEND
 8
0
  0
POLYLINE
  8
0
 62
     173
 66
     1
 10
0
 20
0
 30
0.0
 70
     1
 40
0
 41
0
  0
VERTEX
  8
0
 10
1.04253
 20
0.595107
 30
0.0
 40
0
 41
0
  0
VERTEX
  8
0
 10
1.03706
 20
0.608236
 30
0.0
 40
0
 41
0
  0
VERTEX
  8
0
 10
1.02501
 20
0.612576
 30
0.0
 40
0
 41
0
  0
VERTEX
  8
0
 10
1.01297
 20
0.608236
 30
0.0
 40
0
 41
0
  0
VERTEX
  8
0
 10
1.00754
 20
0.595107
 30
0.0
 40
0
 41
0
  0
VERTEX
  8
0
 10
1.01297
 20
0.582032
 30
0.0
 40
0
 41
0
  0
VERTEX
  8
0
 10
1.02501
 20
0.577636
 30
0.0
 40
0
 41
0
  0
VERTEX
  8
0
 10
1.03706
 20
0.582032
 30
0.0
 40
0
 41
0
  0
VERTEX
  8
0
 10
1.04253
 20
0.595107
 30
0.0
 40
0
 41
0
  0
SEQEND
 8
0
  0
POLYLINE
  8
0
 62
     173
 66
     1
 10
0
 20
0
 30
0.0
 70
     1
 40
0
 41
0
  0
VERTEX
  8
0
 10
1.09256
 20
0.695096
 30
0.0
 40
0
 41
0
  0
VERTEX
  8
0
 10
1.08708
 20
0.708225
 30
0.0
 40
0
 41
0
  0
VERTEX
  8
0
 10
1.07503
 20
0.712565
 30
0.0
 40
0
 41
0
  0
VERTEX
  8
0
 10
1.06299
 20
0.708225
 30
0.0
 40
0
 41
0
  0
VERTEX
  8
0
 10
1.05756
 20
0.695096
 30
0.0
 40
0
 41
0
  0
VERTEX
  8
0
 10
1.06299
 20
0.681967
 30
0.0
 40
0
 41
0
  0
VERTEX
  8
0
 10
1.07503
 20
0.677572
 30
0.0
 40
0
 41
0
  0
VERTEX
  8
0
 10
1.08708
 20
0.681967
 30
0.0
 40
0
 41
0
  0
VERTEX
  8
0
 10
1.09256
 20
0.695096
 30
0.0
 40
0
 41
0
  0
SEQEND
 8
0
  0
POLYLINE
  8
0
 62
     173
 66
     1
 10
0
 20
0
 30
0.0
 70
     1
 40
0
 41
0
  0
VERTEX
  8
0
 10
1.14258
 20
0.595107
 30
0.0
 40
0
 41
0
  0
VERTEX
  8
0
 10
1.1371
 20
0.608236
 30
0.0
 40
0
 41
0
  0
VERTEX
  8
0
 10
1.12505
 20
0.612576
 30
0.0
 40
0
 41
0
  0
VERTEX
  8
0
 10
1.11296
 20
0.608236
 30
0.0
 40
0
 41
0
  0
VERTEX
  8
0
 10
1.10753
 20
0.595107
 30
0.0
 40
0
 41
0
  0
VERTEX
  8
0
 10
1.11296
 20
0.582032
 30
0.0
 40
0
 41
0
  0
VERTEX
  8
0
 10
1.12505
 20
0.577636
 30
0.0
 40
0
 41
0
  0
VERTEX
  8
0
 10
1.1371
 20
0.582032
 30
0.0
 40
0
 41
0
  0
VERTEX
  8
0
 10
1.14258
 20
0.595107
 30
0.0
 40
0
 41
0
  0
SEQEND
 8
0
  0
POLYLINE
  8
0
 62
     173
 66
     1
 10
0
 20
0
 30
0.0
 70
     1
 40
0
 41
0
  0
VERTEX
  8
0
 10
1.19255
 20
0.695096
 30
0.0
 40
0
 41
0
  0
VERTEX
  8
0
 10
1.18707
 20
0.708225
 30
0.0
 40
0
 41
0
  0
VERTEX
  8
0
 10
1.17502
 20
0.712565
 30
0.0
 40
0
 41
0
  0
VERTEX
  8
0
 10
1.16298
 20
0.708225
 30
0.0
 40
0
 41
0
  0
VERTEX
  8
0
 10
1.15755
 20
0.695096
 30
0.0
 40
0
 41
0
  0
VERTEX
  8
0
 10
1.16298
 20
0.681967
 30
0.0
 40
0
 41
0
  0
VERTEX
  8
0
 10
1.17502
 20
0.677572
 30
0.0
 40
0
 41
0
  0
VERTEX
  8
0
 10
1.18707
 20
0.681967
 30
0.0
 40
0
 41
0
  0
VERTEX
  8
0
 10
1.19255
 20
0.695096
 30
0.0
 40
0
 41
0
  0
SEQEND
 8
0
  0
POLYLINE
  8
0
 62
     173
 66
     1
 10
0
 20
0
 30
0.0
 70
     1
 40
0
 41
0
  0
VERTEX
  8
0
 10
1.24257
 20
0.595107
 30
0.0
 40
0
 41
0
  0
VERTEX
  8
0
 10
1.23709
 20
0.608236
 30
0.0
 40
0
 41
0
  0
VERTEX
  8
0
 10
1.22504
 20
0.612576
 30
0.0
 40
0
 41
0
  0
VERTEX
  8
0
 10
1.213
 20
0.608236
 30
0.0
 40
0
 41
0
  0
VERTEX
  8
0
 10
1.20757
 20
0.595107
 30
0.0
 40
0
 41
0
  0
VERTEX
  8
0
 10
1.213
 20
0.582032
 30
0.0
 40
0
 41
0
  0
VERTEX
  8
0
 10
1.22504
 20
0.577636
 30
0.0
 40
0
 41
0
  0
VERTEX
  8
0
 10
1.23709
 20
0.582032
 30
0.0
 40
0
 41
0
  0
VERTEX
  8
0
 10
1.24257
 20
0.595107
 30
0.0
 40
0
 41
0
  0
SEQEND
 8
0
  0
POLYLINE
  8
0
 62
     173
 66
     1
 10
0
 20
0
 30
0.0
 70
     1
 40
0
 41
0
  0
VERTEX
  8
0
 10
1.29253
 20
0.695096
 30
0.0
 40
0
 41
0
  0
VERTEX
  8
0
 10
1.28706
 20
0.708225
 30
0.0
 40
0
 41
0
  0
VERTEX
  8
0
 10
1.27501
 20
0.712565
 30
0.0
 40
0
 41
0
  0
VERTEX
  8
0
 10
1.26297
 20
0.708225
 30
0.0
 40
0
 41
0
  0
VERTEX
  8
0
 10
1.25754
 20
0.695096
 30
0.0
 40
0
 41
0
  0
VERTEX
  8
0
 10
1.26297
 20
0.681967
 30
0.0
 40
0
 41
0
  0
VERTEX
  8
0
 10
1.27501
 20
0.677572
 30
0.0
 40
0
 41
0
  0
VERTEX
  8
0
 10
1.28706
 20
0.681967
 30
0.0
 40
0
 41
0
  0
VERTEX
  8
0
 10
1.29253
 20
0.695096
 30
0.0
 40
0
 41
0
  0
SEQEND
 8
0
  0
POLYLINE
  8
0
 62
     173
 66
     1
 10
0
 20
0
 30
0.0
 70
     1
 40
0
 41
0
  0
VERTEX
  8
0
 10
2.42796
 20
0.595215
 30
0.0
 40
0
 41
0
  0
VERTEX
  8
0
 10
2.42247
 20
0.608344
 30
0.0
 40
0
 41
0
  0
VERTEX
  8
0
 10
2.41043
 20
0.612739
 30
0.0
 40
0
 41
0
  0
VERTEX
  8
0
 10
2.39839
 20
0.608344
 30
0.0
 40
0
 41
0
  0
VERTEX
  8
0
 10
2.39296
 20
0.595215
 30
0.0
 40
0
 41
0
  0
VERTEX
  8
0
 10
2.39839
 20
0.58214
 30
0.0
 40
0
 41
0
  0
VERTEX
  8
0
 10
2.41043
 20
0.577746
 30
0.0
 40
0
 41
0
  0
VERTEX
  8
0
 10
2.42247
 20
0.58214
 30
0.0
 40
0
 41
0
  0
VERTEX
  8
0
 10
2.42796
 20
0.595215
 30
0.0
 40
0
 41
0
  0
SEQEND
 8
0
  0
POLYLINE
  8
0
 62
     173
 66
     1
 10
0
 20
0
 30
0.0
 70
     1
 40
0
 41
0
  0
VERTEX
  8
0
 10
2.47797
 20
0.69515
 30
0.0
 40
0
 41
0
  0
VERTEX
  8
0
 10
2.4725
 20
0.708333
 30
0.0
 40
0
 41
0
  0
VERTEX
  8
0
 10
2.46044
 20
0.712728
 30
0.0
 40
0
 41
0
  0
VERTEX
  8
0
 10
2.4484
 20
0.708333
 30
0.0
 40
0
 41
0
  0
VERTEX
  8
0
 10
2.44299
 20
0.69515
 30
0.0
 40
0
 41
0
  0
VERTEX
  8
0
 10
2.4484
 20
0.682075
 30
0.0
 40
0
 41
0
  0
VERTEX
  8
0
 10
2.46044
 20
0.677735
 30
0.0
 40
0
 41
0
  0
VERTEX
  8
0
 10
2.4725
 20
0.682075
 30
0.0
 40
0
 41
0
  0
VERTEX
  8
0
 10
2.47797
 20
0.69515
 30
0.0
 40
0
 41
0
  0
SEQEND
 8
0
  0
POLYLINE
  8
0
 62
     173
 66
     1
 10
0
 20
0
 30
0.0
 70
     1
 40
0
 41
0
  0
VERTEX
  8
0
 10
2.52794
 20
0.595215
 30
0.0
 40
0
 41
0
  0
VERTEX
  8
0
 10
2.52246
 20
0.608344
 30
0.0
 40
0
 41
0
  0
VERTEX
  8
0
 10
2.51042
 20
0.612739
 30
0.0
 40
0
 41
0
  0
VERTEX
  8
0
 10
2.49837
 20
0.608344
 30
0.0
 40
0
 41
0
  0
VERTEX
  8
0
 10
2.49294
 20
0.595215
 30
0.0
 40
0
 41
0
  0
VERTEX
  8
0
 10
2.49837
 20
0.58214
 30
0.0
 40
0
 41
0
  0
VERTEX
  8
0
 10
2.51042
 20
0.577746
 30
0.0
 40
0
 41
0
  0
VERTEX
  8
0
 10
2.52246
 20
0.58214
 30
0.0
 40
0
 41
0
  0
VERTEX
  8
0
 10
2.52794
 20
0.595215
 30
0.0
 40
0
 41
0
  0
SEQEND
 8
0
  0
POLYLINE
  8
0
 62
     173
 66
     1
 10
0
 20
0
 30
0.0
 70
     1
 40
0
 41
0
  0
VERTEX
  8
0
 10
2.57796
 20
0.69515
 30
0.0
 40
0
 41
0
  0
VERTEX
  8
0
 10
2.57249
 20
0.708333
 30
0.0
 40
0
 41
0
  0
VERTEX
  8
0
 10
2.56044
 20
0.712728
 30
0.0
 40
0
 41
0
  0
VERTEX
  8
0
 10
2.54839
 20
0.708333
 30
0.0
 40
0
 41
0
  0
VERTEX
  8
0
 10
2.54297
 20
0.69515
 30
0.0
 40
0
 41
0
  0
VERTEX
  8
0
 10
2.54839
 20
0.682075
 30
0.0
 40
0
 41
0
  0
VERTEX
  8
0
 10
2.56044
 20
0.677735
 30
0.0
 40
0
 41
0
  0
VERTEX
  8
0
 10
2.57249
 20
0.682075
 30
0.0
 40
0
 41
0
  0
VERTEX
  8
0
 10
2.57796
 20
0.69515
 30
0.0
 40
0
 41
0
  0
SEQEND
 8
0
  0
POLYLINE
  8
0
 62
     173
 66
     1
 10
0
 20
0
 30
0.0
 70
     1
 40
0
 41
0
  0
VERTEX
  8
0
 10
2.62793
 20
0.595215
 30
0.0
 40
0
 41
0
  0
VERTEX
  8
0
 10
2.62244
 20
0.608344
 30
0.0
 40
0
 41
0
  0
VERTEX
  8
0
 10
2.6104
 20
0.612739
 30
0.0
 40
0
 41
0
  0
VERTEX
  8
0
 10
2.59836
 20
0.608344
 30
0.0
 40
0
 41
0
  0
VERTEX
  8
0
 10
2.59293
 20
0.595215
 30
0.0
 40
0
 41
0
  0
VERTEX
  8
0
 10
2.59836
 20
0.58214
 30
0.0
 40
0
 41
0
  0
VERTEX
  8
0
 10
2.6104
 20
0.577746
 30
0.0
 40
0
 41
0
  0
VERTEX
  8
0
 10
2.62244
 20
0.58214
 30
0.0
 40
0
 41
0
  0
VERTEX
  8
0
 10
2.62793
 20
0.595215
 30
0.0
 40
0
 41
0
  0
SEQEND
 8
0
  0
POLYLINE
  8
0
 62
     173
 66
     1
 10
0
 20
0
 30
0.0
 70
     1
 40
0
 41
0
  0
VERTEX
  8
0
 10
2.67796
 20
0.69515
 30
0.0
 40
0
 41
0
  0
VERTEX
  8
0
 10
2.67247
 20
0.708333
 30
0.0
 40
0
 41
0
  0
VERTEX
  8
0
 10
2.66043
 20
0.712728
 30
0.0
 40
0
 41
0
  0
VERTEX
  8
0
 10
2.64839
 20
0.708333
 30
0.0
 40
0
 41
0
  0
VERTEX
  8
0
 10
2.64296
 20
0.69515
 30
0.0
 40
0
 41
0
  0
VERTEX
  8
0
 10
2.64839
 20
0.682075
 30
0.0
 40
0
 41
0
  0
VERTEX
  8
0
 10
2.66043
 20
0.677735
 30
0.0
 40
0
 41
0
  0
VERTEX
  8
0
 10
2.67247
 20
0.682075
 30
0.0
 40
0
 41
0
  0
VERTEX
  8
0
 10
2.67796
 20
0.69515
 30
0.0
 40
0
 41
0
  0
SEQEND
 8
0
  0
POLYLINE
  8
0
 62
     173
 66
     1
 10
0
 20
0
 30
0.0
 70
     1
 40
0
 41
0
  0
VERTEX
  8
0
 10
2.72797
 20
0.595215
 30
0.0
 40
0
 41
0
  0
VERTEX
  8
0
 10
2.7225
 20
0.608344
 30
0.0
 40
0
 41
0
  0
VERTEX
  8
0
 10
2.71044
 20
0.612739
 30
0.0
 40
0
 41
0
  0
VERTEX
  8
0
 10
2.6984
 20
0.608344
 30
0.0
 40
0
 41
0
  0
VERTEX
  8
0
 10
2.69299
 20
0.595215
 30
0.0
 40
0
 41
0
  0
VERTEX
  8
0
 10
2.6984
 20
0.58214
 30
0.0
 40
0
 41
0
  0
VERTEX
  8
0
 10
2.71044
 20
0.577746
 30
0.0
 40
0
 41
0
  0
VERTEX
  8
0
 10
2.7225
 20
0.58214
 30
0.0
 40
0
 41
0
  0
VERTEX
  8
0
 10
2.72797
 20
0.595215
 30
0.0
 40
0
 41
0
  0
SEQEND
 8
0
  0
POLYLINE
  8
0
 62
     173
 66
     1
 10
0
 20
0
 30
0.0
 70
     1
 40
0
 41
0
  0
VERTEX
  8
0
 10
2.77794
 20
0.69515
 30
0.0
 40
0
 41
0
  0
VERTEX
  8
0
 10
2.77246
 20
0.708333
 30
0.0
 40
0
 41
0
  0
VERTEX
  8
0
 10
2.76042
 20
0.712728
 30
0.0
 40
0
 41
0
  0
VERTEX
  8
0
 10
2.74837
 20
0.708333
 30
0.0
 40
0
 41
0
  0
VERTEX
  8
0
 10
2.74294
 20
0.69515
 30
0.0
 40
0
 41
0
  0
VERTEX
  8
0
 10
2.74837
 20
0.682075
 30
0.0
 40
0
 41
0
  0
VERTEX
  8
0
 10
2.76042
 20
0.677735
 30
0.0
 40
0
 41
0
  0
VERTEX
  8
0
 10
2.77246
 20
0.682075
 30
0.0
 40
0
 41
0
  0
VERTEX
  8
0
 10
2.77794
 20
0.69515
 30
0.0
 40
0
 41
0
  0
SEQEND
 8
0
  0
POLYLINE
  8
0
 62
     173
 66
     1
 10
0
 20
0
 30
0.0
 70
     1
 40
0
 41
0
  0
VERTEX
  8
0
 10
0.0990668
 20
0.945096
 30
0.0
 40
0
 41
0
  0
VERTEX
  8
0
 10
0.093099
 20
0.959364
 30
0.0
 40
0
 41
0
  0
VERTEX
  8
0
 10
0.0800239
 20
0.964085
 30
0.0
 40
0
 41
0
  0
VERTEX
  8
0
 10
0.0669488
 20
0.959364
 30
0.0
 40
0
 41
0
  0
VERTEX
  8
0
 10
0.0610351
 20
0.945096
 30
0.0
 40
0
 41
0
  0
VERTEX
  8
0
 10
0.0669488
 20
0.930881
 30
0.0
 40
0
 41
0
  0
VERTEX
  8
0
 10
0.0800239
 20
0.926107
 30
0.0
 40
0
 41
0
  0
VERTEX
  8
0
 10
0.093099
 20
0.930881
 30
0.0
 40
0
 41
0
  0
VERTEX
  8
0
 10
0.0990668
 20
0.945096
 30
0.0
 40
0
 41
0
  0
SEQEND
 8
0
  0
POLYLINE
  8
0
 62
     173
 66
     1
 10
0
 20
0
 30
0.0
 70
     1
 40
0
 41
0
  0
VERTEX
  8
0
 10
0.199056
 20
0.945096
 30
0.0
 40
0
 41
0
  0
VERTEX
  8
0
 10
0.193087
 20
0.959364
 30
0.0
 40
0
 41
0
  0
VERTEX
  8
0
 10
0.180067
 20
0.964085
 30
0.0
 40
0
 41
0
  0
VERTEX
  8
0
 10
0.166992
 20
0.959364
 30
0.0
 40
0
 41
0
  0
VERTEX
  8
0
 10
0.161079
 20
0.945096
 30
0.0
 40
0
 41
0
  0
VERTEX
  8
0
 10
0.166992
 20
0.930881
 30
0.0
 40
0
 41
0
  0
VERTEX
  8
0
 10
0.180067
 20
0.926107
 30
0.0
 40
0
 41
0
  0
VERTEX
  8
0
 10
0.193087
 20
0.930881
 30
0.0
 40
0
 41
0
  0
VERTEX
  8
0
 10
0.199056
 20
0.945096
 30
0.0
 40
0
 41
0
  0
SEQEND
 8
0
  0
POLYLINE
  8
0
 62
     173
 66
     1
 10
0
 20
0
 30
0.0
 70
     1
 40
0
 41
0
  0
VERTEX
  8
0
 10
1.50504
 20
1.34511
 30
0.0
 40
0
 41
0
  0
VERTEX
  8
0
 10
1.49724
 20
1.36382
 30
0.0
 40
0
 41
0
  0
VERTEX
  8
0
 10
1.48004
 20
1.37006
 30
0.0
 40
0
 41
0
  0
VERTEX
  8
0
 10
1.46283
 20
1.36382
 30
0.0
 40
0
 41
0
  0
VERTEX
  8
0
 10
1.45508
 20
1.34511
 30
0.0
 40
0
 41
0
  0
VERTEX
  8
0
 10
1.46283
 20
1.32639
 30
0.0
 40
0
 41
0
  0
VERTEX
  8
0
 10
1.48004
 20
1.32015
 30
0.0
 40
0
 41
0
  0
VERTEX
  8
0
 10
1.49724
 20
1.32639
 30
0.0
 40
0
 41
0
  0
VERTEX
  8
0
 10
1.50504
 20
1.34511
 30
0.0
 40
0
 41
0
  0
SEQEND
 8
0
  0
POLYLINE
  8
0
 62
     173
 66
     1
 10
0
 20
0
 30
0.0
 70
     1
 40
0
 41
0
  0
VERTEX
  8
0
 10
1.50504
 20
1.04503
 30
0.0
 40
0
 41
0
  0
VERTEX
  8
0
 10
1.49724
 20
1.0638
 30
0.0
 40
0
 41
0
  0
VERTEX
  8
0
 10
1.48004
 20
1.0701
 30
0.0
 40
0
 41
0
  0
VERTEX
  8
0
 10
1.46283
 20
1.0638
 30
0.0
 40
0
 41
0
  0
VERTEX
  8
0
 10
1.45508
 20
1.04503
 30
0.0
 40
0
 41
0
  0
VERTEX
  8
0
 10
1.46283
 20
1.02637
 30
0.0
 40
0
 41
0
  0
VERTEX
  8
0
 10
1.48004
 20
1.02013
 30
0.0
 40
0
 41
0
  0
VERTEX
  8
0
 10
1.49724
 20
1.02637
 30
0.0
 40
0
 41
0
  0
VERTEX
  8
0
 10
1.50504
 20
1.04503
 30
0.0
 40
0
 41
0
  0
SEQEND
 8
0
  0
POLYLINE
  8
0
 62
     173
 66
     1
 10
0
 20
0
 30
0.0
 70
     1
 40
0
 41
0
  0
VERTEX
  8
0
 10
0.564561
 20
0.945096
 30
0.0
 40
0
 41
0
  0
VERTEX
  8
0
 10
0.555339
 20
0.967231
 30
0.0
 40
0
 41
0
  0
VERTEX
  8
0
 10
0.535047
 20
0.97461
 30
0.0
 40
0
 41
0
  0
VERTEX
  8
0
 10
0.514757
 20
0.967231
 30
0.0
 40
0
 41
0
  0
VERTEX
  8
0
 10
0.505533
 20
0.945096
 30
0.0
 40
0
 41
0
  0
VERTEX
  8
0
 10
0.514757
 20
0.92296
 30
0.0
 40
0
 41
0
  0
VERTEX
  8
0
 10
0.535047
 20
0.915582
 30
0.0
 40
0
 41
0
  0
VERTEX
  8
0
 10
0.555339
 20
0.92296
 30
0.0
 40
0
 41
0
  0
VERTEX
  8
0
 10
0.564561
 20
0.945096
 30
0.0
 40
0
 41
0
  0
SEQEND
 8
0
  0
POLYLINE
  8
0
 62
     173
 66
     1
 10
0
 20
0
 30
0.0
 70
     1
 40
0
 41
0
  0
VERTEX
  8
0
 10
1.16455
 20
0.945096
 30
0.0
 40
0
 41
0
  0
VERTEX
  8
0
 10
1.15533
 20
0.967231
 30
0.0
 40
0
 41
0
  0
VERTEX
  8
0
 10
1.13504
 20
0.97461
 30
0.0
 40
0
 41
0
  0
VERTEX
  8
0
 10
1.11475
 20
0.967231
 30
0.0
 40
0
 41
0
  0
VERTEX
  8
0
 10
1.10558
 20
0.945096
 30
0.0
 40
0
 41
0
  0
VERTEX
  8
0
 10
1.11475
 20
0.92296
 30
0.0
 40
0
 41
0
  0
VERTEX
  8
0
 10
1.13504
 20
0.915582
 30
0.0
 40
0
 41
0
  0
VERTEX
  8
0
 10
1.15533
 20
0.92296
 30
0.0
 40
0
 41
0
  0
VERTEX
  8
0
 10
1.16455
 20
0.945096
 30
0.0
 40
0
 41
0
  0
SEQEND
 8
0
  0
POLYLINE
  8
0
 62
     173
 66
     1
 10
0
 20
0
 30
0.0
 70
     1
 40
0
 41
0
  0
VERTEX
  8
0
 10
2.93007
 20
1.41004
 30
0.0
 40
0
 41
0
  0
VERTEX
  8
0
 10
2.92068
 20
1.43261
 30
0.0
 40
0
 41
0
  0
VERTEX
  8
0
 10
2.90007
 20
1.44011
 30
0.0
 40
0
 41
0
  0
VERTEX
  8
0
 10
2.87939
 20
1.43261
 30
0.0
 40
0
 41
0
  0
VERTEX
  8
0
 10
2.87007
 20
1.41004
 30
0.0
 40
0
 41
0
  0
VERTEX
  8
0
 10
2.87939
 20
1.38759
 30
0.0
 40
0
 41
0
  0
VERTEX
  8
0
 10
2.90007
 20
1.3801
 30
0.0
 40
0
 41
0
  0
VERTEX
  8
0
 10
2.92068
 20
1.38759
 30
0.0
 40
0
 41
0
  0
VERTEX
  8
0
 10
2.93007
 20
1.41004
 30
0.0
 40
0
 41
0
  0
SEQEND
 8
0
  0
POLYLINE
  8
0
 62
     173
 66
     1
 10
0
 20
0
 30
0.0
 70
     1
 40
0
 41
0
  0
VERTEX
  8
0
 10
3.03006
 20
1.41004
 30
0.0
 40
0
 41
0
  0
VERTEX
  8
0
 10
3.02067
 20
1.43261
 30
0.0
 40
0
 41
0
  0
VERTEX
  8
0
 10
3.00006
 20
1.44011
 30
0.0
 40
0
 41
0
  0
VERTEX
  8
0
 10
2.97939
 20
1.43261
 30
0.0
 40
0
 41
0
  0
VERTEX
  8
0
 10
2.97006
 20
1.41004
 30
0.0
 40
0
 41
0
  0
VERTEX
  8
0
 10
2.97939
 20
1.38759
 30
0.0
 40
0
 41
0
  0
VERTEX
  8
0
 10
3.00006
 20
1.3801
 30
0.0
 40
0
 41
0
  0
VERTEX
  8
0
 10
3.02067
 20
1.38759
 30
0.0
 40
0
 41
0
  0
VERTEX
  8
0
 10
3.03006
 20
1.41004
 30
0.0
 40
0
 41
0
  0
SEQEND
 8
0
  0
POLYLINE
  8
0
 62
     173
 66
     1
 10
0
 20
0
 30
0.0
 70
     1
 40
0
 41
0
  0
VERTEX
  8
0
 10
3.13004
 20
1.41004
 30
0.0
 40
0
 41
0
  0
VERTEX
  8
0
 10
3.12067
 20
1.43261
 30
0.0
 40
0
 41
0
  0
VERTEX
  8
0
 10
3.10004
 20
1.44011
 30
0.0
 40
0
 41
0
  0
VERTEX
  8
0
 10
3.07937
 20
1.43261
 30
0.0
 40
0
 41
0
  0
VERTEX
  8
0
 10
3.07004
 20
1.41004
 30
0.0
 40
0
 41
0
  0
VERTEX
  8
0
 10
3.07937
 20
1.38759
 30
0.0
 40
0
 41
0
  0
VERTEX
  8
0
 10
3.10004
 20
1.3801
 30
0.0
 40
0
 41
0
  0
VERTEX
  8
0
 10
3.12067
 20
1.38759
 30
0.0
 40
0
 41
0
  0
VERTEX
  8
0
 10
3.13004
 20
1.41004
 30
0.0
 40
0
 41
0
  0
SEQEND
 8
0
  0
POLYLINE
  8
0
 62
     173
 66
     1
 10
0
 20
0
 30
0.0
 70
     1
 40
0
 41
0
  0
VERTEX
  8
0
 10
0.101128
 20
0.224989
 30
0.0
 40
0
 41
0
  0
VERTEX
  8
0
 10
0.0912543
 20
0.248643
 30
0.0
 40
0
 41
0
  0
VERTEX
  8
0
 10
0.0696072
 20
0.256511
 30
0.0
 40
0
 41
0
  0
VERTEX
  8
0
 10
0.0479601
 20
0.248643
 30
0.0
 40
0
 41
0
  0
VERTEX
  8
0
 10
0.0381401
 20
0.224989
 30
0.0
 40
0
 41
0
  0
VERTEX
  8
0
 10
0.0479601
 20
0.201389
 30
0.0
 40
0
 41
0
  0
VERTEX
  8
0
 10
0.0696072
 20
0.193522
 30
0.0
 40
0
 41
0
  0
VERTEX
  8
0
 10
0.0912543
 20
0.201389
 30
0.0
 40
0
 41
0
  0
VERTEX
  8
0
 10
0.101128
 20
0.224989
 30
0.0
 40
0
 41
0
  0
SEQEND
 8
0
  0
POLYLINE
  8
0
 62
     173
 66
     1
 10
0
 20
0
 30
0.0
 70
     1
 40
0
 41
0
  0
VERTEX
  8
0
 10
0.721138
 20
0.224989
 30
0.0
 40
0
 41
0
  0
VERTEX
  8
0
 10
0.711262
 20
0.248643
 30
0.0
 40
0
 41
0
  0
VERTEX
  8
0
 10
0.689615
 20
0.256511
 30
0.0
 40
0
 41
0
  0
VERTEX
  8
0
 10
0.667969
 20
0.248643
 30
0.0
 40
0
 41
0
  0
VERTEX
  8
0
 10
0.658149
 20
0.224989
 30
0.0
 40
0
 41
0
  0
VERTEX
  8
0
 10
0.667969
 20
0.201389
 30
0.0
 40
0
 41
0
  0
VERTEX
  8
0
 10
0.689615
 20
0.193522
 30
0.0
 40
0
 41
0
  0
VERTEX
  8
0
 10
0.711262
 20
0.201389
 30
0.0
 40
0
 41
0
  0
VERTEX
  8
0
 10
0.721138
 20
0.224989
 30
0.0
 40
0
 41
0
  0
SEQEND
 8
0
  0
POLYLINE
  8
0
 62
     173
 66
     1
 10
0
 20
0
 30
0.0
 70
     1
 40
0
 41
0
  0
VERTEX
  8
0
 10
0.821181
 20
0.224989
 30
0.0
 40
0
 41
0
  0
VERTEX
  8
0
 10
0.811307
 20
0.248643
 30
0.0
 40
0
 41
0
  0
VERTEX
  8
0
 10
0.78966
 20
0.256511
 30
0.0
 40
0
 41
0
  0
VERTEX
  8
0
 10
0.767958
 20
0.248643
 30
0.0
 40
0
 41
0
  0
VERTEX
  8
0
 10
0.758137
 20
0.224989
 30
0.0
 40
0
 41
0
  0
VERTEX
  8
0
 10
0.767958
 20
0.201389
 30
0.0
 40
0
 41
0
  0
VERTEX
  8
0
 10
0.78966
 20
0.193522
 30
0.0
 40
0
 41
0
  0
VERTEX
  8
0
 10
0.811307
 20
0.201389
 30
0.0
 40
0
 41
0
  0
VERTEX
  8
0
 10
0.821181
 20
0.224989
 30
0.0
 40
0
 41
0
  0
SEQEND
 8
0
  0
POLYLINE
  8
0
 62
     173
 66
     1
 10
0
 20
0
 30
0.0
 70
     1
 40
0
 41
0
  0
VERTEX
  8
0
 10
1.44114
 20
0.224989
 30
0.0
 40
0
 41
0
  0
VERTEX
  8
0
 10
1.43126
 20
0.248643
 30
0.0
 40
0
 41
0
  0
VERTEX
  8
0
 10
1.40961
 20
0.256511
 30
0.0
 40
0
 41
0
  0
VERTEX
  8
0
 10
1.38797
 20
0.248643
 30
0.0
 40
0
 41
0
  0
VERTEX
  8
0
 10
1.37815
 20
0.224989
 30
0.0
 40
0
 41
0
  0
VERTEX
  8
0
 10
1.38797
 20
0.201389
 30
0.0
 40
0
 41
0
  0
VERTEX
  8
0
 10
1.40961
 20
0.193522
 30
0.0
 40
0
 41
0
  0
VERTEX
  8
0
 10
1.43126
 20
0.201389
 30
0.0
 40
0
 41
0
  0
VERTEX
  8
0
 10
1.44114
 20
0.224989
 30
0.0
 40
0
 41
0
  0
SEQEND
 8
0
  0
POLYLINE
  8
0
 62
     173
 66
     1
 10
0
 20
0
 30
0.0
 70
     1
 40
0
 41
0
  0
VERTEX
  8
0
 10
2.30653
 20
0.225097
 30
0.0
 40
0
 41
0
  0
VERTEX
  8
0
 10
2.29665
 20
0.248753
 30
0.0
 40
0
 41
0
  0
VERTEX
  8
0
 10
2.27501
 20
0.256619
 30
0.0
 40
0
 41
0
  0
VERTEX
  8
0
 10
2.25336
 20
0.248753
 30
0.0
 40
0
 41
0
  0
VERTEX
  8
0
 10
2.24354
 20
0.225097
 30
0.0
 40
0
 41
0
  0
VERTEX
  8
0
 10
2.25336
 20
0.201497
 30
0.0
 40
0
 41
0
  0
VERTEX
  8
0
 10
2.27501
 20
0.193576
 30
0.0
 40
0
 41
0
  0
VERTEX
  8
0
 10
2.29665
 20
0.201497
 30
0.0
 40
0
 41
0
  0
VERTEX
  8
0
 10
2.30653
 20
0.225097
 30
0.0
 40
0
 41
0
  0
SEQEND
 8
0
  0
POLYLINE
  8
0
 62
     173
 66
     1
 10
0
 20
0
 30
0.0
 70
     1
 40
0
 41
0
  0
VERTEX
  8
0
 10
2.92665
 20
0.225097
 30
0.0
 40
0
 41
0
  0
VERTEX
  8
0
 10
2.91678
 20
0.248753
 30
0.0
 40
0
 41
0
  0
VERTEX
  8
0
 10
2.89513
 20
0.256619
 30
0.0
 40
0
 41
0
  0
VERTEX
  8
0
 10
2.87349
 20
0.248753
 30
0.0
 40
0
 41
0
  0
VERTEX
  8
0
 10
2.86367
 20
0.225097
 30
0.0
 40
0
 41
0
  0
VERTEX
  8
0
 10
2.87349
 20
0.201497
 30
0.0
 40
0
 41
0
  0
VERTEX
  8
0
 10
2.89513
 20
0.193576
 30
0.0
 40
0
 41
0
  0
VERTEX
  8
0
 10
2.91678
 20
0.201497
 30
0.0
 40
0
 41
0
  0
VERTEX
  8
0
 10
2.92665
 20
0.225097
 30
0.0
 40
0
 41
0
  0
SEQEND
 8
0
  0
POLYLINE
  8
0
 62
     173
 66
     1
 10
0
 20
0
 30
0.0
 70
     1
 40
0
 41
0
  0
VERTEX
  8
0
 10
0.219075
 20
0.345107
 30
0.0
 40
0
 41
0
  0
VERTEX
  8
0
 10
0.213542
 20
0.373101
 30
0.0
 40
0
 41
0
  0
VERTEX
  8
0
 10
0.199056
 20
0.393121
 30
0.0
 40
0
 41
0
  0
VERTEX
  8
0
 10
0.178549
 20
0.405111
 30
0.0
 40
0
 41
0
  0
VERTEX
  8
0
 10
0.155057
 20
0.409071
 30
0.0
 40
0
 41
0
  0
VERTEX
  8
0
 10
0.13151
 20
0.405111
 30
0.0
 40
0
 41
0
  0
VERTEX
  8
0
 10
0.111003
 20
0.393121
 30
0.0
 40
0
 41
0
  0
VERTEX
  8
0
 10
0.0965169
 20
0.373101
 30
0.0
 40
0
 41
0
  0
VERTEX
  8
0
 10
0.0910374
 20
0.345107
 30
0.0
 40
0
 41
0
  0
VERTEX
  8
0
 10
0.0965169
 20
0.317111
 30
0.0
 40
0
 41
0
  0
VERTEX
  8
0
 10
0.111003
 20
0.297146
 30
0.0
 40
0
 41
0
  0
VERTEX
  8
0
 10
0.13151
 20
0.285101
 30
0.0
 40
0
 41
0
  0
VERTEX
  8
0
 10
0.155057
 20
0.281142
 30
0.0
 40
0
 41
0
  0
VERTEX
  8
0
 10
0.178549
 20
0.285101
 30
0.0
 40
0
 41
0
  0
VERTEX
  8
0
 10
0.199056
 20
0.297146
 30
0.0
 40
0
 41
0
  0
VERTEX
  8
0
 10
0.213542
 20
0.317111
 30
0.0
 40
0
 41
0
  0
VERTEX
  8
0
 10
0.219075
 20
0.345107
 30
0.0
 40
0
 41
0
  0
SEQEND
 8
0
  0
POLYLINE
  8
0
 62
     173
 66
     1
 10
0
 20
0
 30
0.0
 70
     1
 40
0
 41
0
  0
VERTEX
  8
0
 10
0.669054
 20
0.345107
 30
0.0
 40
0
 41
0
  0
VERTEX
  8
0
 10
0.663519
 20
0.373101
 30
0.0
 40
0
 41
0
  0
VERTEX
  8
0
 10
0.649035
 20
0.393121
 30
0.0
 40
0
 41
0
  0
VERTEX
  8
0
 10
0.628526
 20
0.405111
 30
0.0
 40
0
 41
0
  0
VERTEX
  8
0
 10
0.605035
 20
0.409071
 30
0.0
 40
0
 41
0
  0
VERTEX
  8
0
 10
0.581543
 20
0.405111
 30
0.0
 40
0
 41
0
  0
VERTEX
  8
0
 10
0.561035
 20
0.393121
 30
0.0
 40
0
 41
0
  0
VERTEX
  8
0
 10
0.54655
 20
0.373101
 30
0.0
 40
0
 41
0
  0
VERTEX
  8
0
 10
0.541069
 20
0.345107
 30
0.0
 40
0
 41
0
  0
VERTEX
  8
0
 10
0.54655
 20
0.317111
 30
0.0
 40
0
 41
0
  0
VERTEX
  8
0
 10
0.561035
 20
0.297146
 30
0.0
 40
0
 41
0
  0
VERTEX
  8
0
 10
0.581543
 20
0.285101
 30
0.0
 40
0
 41
0
  0
VERTEX
  8
0
 10
0.605035
 20
0.281142
 30
0.0
 40
0
 41
0
  0
VERTEX
  8
0
 10
0.628526
 20
0.285101
 30
0.0
 40
0
 41
0
  0
VERTEX
  8
0
 10
0.649035
 20
0.297146
 30
0.0
 40
0
 41
0
  0
VERTEX
  8
0
 10
0.663519
 20
0.317111
 30
0.0
 40
0
 41
0
  0
VERTEX
  8
0
 10
0.669054
 20
0.345107
 30
0.0
 40
0
 41
0
  0
SEQEND
 8
0
  0
POLYLINE
  8
0
 62
     173
 66
     1
 10
0
 20
0
 30
0.0
 70
     1
 40
0
 41
0
  0
VERTEX
  8
0
 10
0.939074
 20
0.345107
 30
0.0
 40
0
 41
0
  0
VERTEX
  8
0
 10
0.933539
 20
0.373101
 30
0.0
 40
0
 41
0
  0
VERTEX
  8
0
 10
0.919054
 20
0.393121
 30
0.0
 40
0
 41
0
  0
VERTEX
  8
0
 10
0.898546
 20
0.405111
 30
0.0
 40
0
 41
0
  0
VERTEX
  8
0
 10
0.875054
 20
0.409071
 30
0.0
 40
0
 41
0
  0
VERTEX
  8
0
 10
0.851508
 20
0.405111
 30
0.0
 40
0
 41
0
  0
VERTEX
  8
0
 10
0.831
 20
0.393121
 30
0.0
 40
0
 41
0
  0
VERTEX
  8
0
 10
0.816515
 20
0.373101
 30
0.0
 40
0
 41
0
  0
VERTEX
  8
0
 10
0.811035
 20
0.345107
 30
0.0
 40
0
 41
0
  0
VERTEX
  8
0
 10
0.816515
 20
0.317111
 30
0.0
 40
0
 41
0
  0
VERTEX
  8
0
 10
0.831
 20
0.297146
 30
0.0
 40
0
 41
0
  0
VERTEX
  8
0
 10
0.851508
 20
0.285101
 30
0.0
 40
0
 41
0
  0
VERTEX
  8
0
 10
0.875054
 20
0.281142
 30
0.0
 40
0
 41
0
  0
VERTEX
  8
0
 10
0.898546
 20
0.285101
 30
0.0
 40
0
 41
0
  0
VERTEX
  8
0
 10
0.919054
 20
0.297146
 30
0.0
 40
0
 41
0
  0
VERTEX
  8
0
 10
0.933539
 20
0.317111
 30
0.0
 40
0
 41
0
  0
VERTEX
  8
0
 10
0.939074
 20
0.345107
 30
0.0
 40
0
 41
0
  0
SEQEND
 8
0
  0
POLYLINE
  8
0
 62
     173
 66
     1
 10
0
 20
0
 30
0.0
 70
     1
 40
0
 41
0
  0
VERTEX
  8
0
 10
1.38906
 20
0.345107
 30
0.0
 40
0
 41
0
  0
VERTEX
  8
0
 10
1.38352
 20
0.373101
 30
0.0
 40
0
 41
0
  0
VERTEX
  8
0
 10
1.36903
 20
0.393121
 30
0.0
 40
0
 41
0
  0
VERTEX
  8
0
 10
1.34853
 20
0.405111
 30
0.0
 40
0
 41
0
  0
VERTEX
  8
0
 10
1.32503
 20
0.409071
 30
0.0
 40
0
 41
0
  0
VERTEX
  8
0
 10
1.30154
 20
0.405111
 30
0.0
 40
0
 41
0
  0
VERTEX
  8
0
 10
1.28103
 20
0.393121
 30
0.0
 40
0
 41
0
  0
VERTEX
  8
0
 10
1.26655
 20
0.373101
 30
0.0
 40
0
 41
0
  0
VERTEX
  8
0
 10
1.26107
 20
0.345107
 30
0.0
 40
0
 41
0
  0
VERTEX
  8
0
 10
1.26655
 20
0.317111
 30
0.0
 40
0
 41
0
  0
VERTEX
  8
0
 10
1.28103
 20
0.297146
 30
0.0
 40
0
 41
0
  0
VERTEX
  8
0
 10
1.30154
 20
0.285101
 30
0.0
 40
0
 41
0
  0
VERTEX
  8
0
 10
1.32503
 20
0.281142
 30
0.0
 40
0
 41
0
  0
VERTEX
  8
0
 10
1.34853
 20
0.285101
 30
0.0
 40
0
 41
0
  0
VERTEX
  8
0
 10
1.36903
 20
0.297146
 30
0.0
 40
0
 41
0
  0
VERTEX
  8
0
 10
1.38352
 20
0.317111
 30
0.0
 40
0
 41
0
  0
VERTEX
  8
0
 10
1.38906
 20
0.345107
 30
0.0
 40
0
 41
0
  0
SEQEND
 8
0
  0
POLYLINE
  8
0
 62
     173
 66
     1
 10
0
 20
0
 30
0.0
 70
     1
 40
0
 41
0
  0
VERTEX
  8
0
 10
2.42449
 20
0.345215
 30
0.0
 40
0
 41
0
  0
VERTEX
  8
0
 10
2.41894
 20
0.373264
 30
0.0
 40
0
 41
0
  0
VERTEX
  8
0
 10
2.40446
 20
0.393229
 30
0.0
 40
0
 41
0
  0
VERTEX
  8
0
 10
2.38396
 20
0.405274
 30
0.0
 40
0
 41
0
  0
VERTEX
  8
0
 10
2.36046
 20
0.409233
 30
0.0
 40
0
 41
0
  0
VERTEX
  8
0
 10
2.33692
 20
0.405274
 30
0.0
 40
0
 41
0
  0
VERTEX
  8
0
 10
2.3164
 20
0.393229
 30
0.0
 40
0
 41
0
  0
VERTEX
  8
0
 10
2.30192
 20
0.373264
 30
0.0
 40
0
 41
0
  0
VERTEX
  8
0
 10
2.29644
 20
0.345215
 30
0.0
 40
0
 41
0
  0
VERTEX
  8
0
 10
2.30192
 20
0.317219
 30
0.0
 40
0
 41
0
  0
VERTEX
  8
0
 10
2.3164
 20
0.2972
 30
0.0
 40
0
 41
0
  0
VERTEX
  8
0
 10
2.33692
 20
0.285211
 30
0.0
 40
0
 41
0
  0
VERTEX
  8
0
 10
2.36046
 20
0.281196
 30
0.0
 40
0
 41
0
  0
VERTEX
  8
0
 10
2.38396
 20
0.285211
 30
0.0
 40
0
 41
0
  0
VERTEX
  8
0
 10
2.40446
 20
0.2972
 30
0.0
 40
0
 41
0
  0
VERTEX
  8
0
 10
2.41894
 20
0.317219
 30
0.0
 40
0
 41
0
  0
VERTEX
  8
0
 10
2.42449
 20
0.345215
 30
0.0
 40
0
 41
0
  0
SEQEND
 8
0
  0
POLYLINE
  8
0
 62
     173
 66
     1
 10
0
 20
0
 30
0.0
 70
     1
 40
0
 41
0
  0
VERTEX
  8
0
 10
2.87446
 20
0.345215
 30
0.0
 40
0
 41
0
  0
VERTEX
  8
0
 10
2.86893
 20
0.373264
 30
0.0
 40
0
 41
0
  0
VERTEX
  8
0
 10
2.85444
 20
0.393229
 30
0.0
 40
0
 41
0
  0
VERTEX
  8
0
 10
2.83393
 20
0.405274
 30
0.0
 40
0
 41
0
  0
VERTEX
  8
0
 10
2.81044
 20
0.409233
 30
0.0
 40
0
 41
0
  0
VERTEX
  8
0
 10
2.78694
 20
0.405274
 30
0.0
 40
0
 41
0
  0
VERTEX
  8
0
 10
2.76644
 20
0.393229
 30
0.0
 40
0
 41
0
  0
VERTEX
  8
0
 10
2.75196
 20
0.373264
 30
0.0
 40
0
 41
0
  0
VERTEX
  8
0
 10
2.74647
 20
0.345215
 30
0.0
 40
0
 41
0
  0
VERTEX
  8
0
 10
2.75196
 20
0.317219
 30
0.0
 40
0
 41
0
  0
VERTEX
  8
0
 10
2.76644
 20
0.2972
 30
0.0
 40
0
 41
0
  0
VERTEX
  8
0
 10
2.78694
 20
0.285211
 30
0.0
 40
0
 41
0
  0
VERTEX
  8
0
 10
2.81044
 20
0.281196
 30
0.0
 40
0
 41
0
  0
VERTEX
  8
0
 10
2.83393
 20
0.285211
 30
0.0
 40
0
 41
0
  0
VERTEX
  8
0
 10
2.85444
 20
0.2972
 30
0.0
 40
0
 41
0
  0
VERTEX
  8
0
 10
2.86893
 20
0.317219
 30
0.0
 40
0
 41
0
  0
VERTEX
  8
0
 10
2.87446
 20
0.345215
 30
0.0
 40
0
 41
0
  0
SEQEND
 8
0
  0
POLYLINE
  8
0
 62
     173
 66
     1
 10
0
 20
0
 30
0.0
 70
     1
 40
0
 41
0
  0
VERTEX
  8
0
 10
3.06506
 20
2.08008
 30
0.0
 40
0
 41
0
  0
VERTEX
  8
0
 10
3.05946
 20
2.10856
 30
0.0
 40
0
 41
0
  0
VERTEX
  8
0
 10
3.04471
 20
2.12885
 30
0.0
 40
0
 41
0
  0
VERTEX
  8
0
 10
3.02387
 20
2.141
 30
0.0
 40
0
 41
0
  0
VERTEX
  8
0
 10
3.00006
 20
2.14507
 30
0.0
 40
0
 41
0
  0
VERTEX
  8
0
 10
2.97618
 20
2.141
 30
0.0
 40
0
 41
0
  0
VERTEX
  8
0
 10
2.95535
 20
2.12885
 30
0.0
 40
0
 41
0
  0
VERTEX
  8
0
 10
2.9406
 20
2.10856
 30
0.0
 40
0
 41
0
  0
VERTEX
  8
0
 10
2.93506
 20
2.08008
 30
0.0
 40
0
 41
0
  0
VERTEX
  8
0
 10
2.9406
 20
2.05165
 30
0.0
 40
0
 41
0
  0
VERTEX
  8
0
 10
2.95535
 20
2.03136
 30
0.0
 40
0
 41
0
  0
VERTEX
  8
0
 10
2.97618
 20
2.01915
 30
0.0
 40
0
 41
0
  0
VERTEX
  8
0
 10
3.00006
 20
2.01508
 30
0.0
 40
0
 41
0
  0
VERTEX
  8
0
 10
3.02387
 20
2.01915
 30
0.0
 40
0
 41
0
  0
VERTEX
  8
0
 10
3.04471
 20
2.03136
 30
0.0
 40
0
 41
0
  0
VERTEX
  8
0
 10
3.05946
 20
2.05165
 30
0.0
 40
0
 41
0
  0
VERTEX
  8
0
 10
3.06506
 20
2.08008
 30
0.0
 40
0
 41
0
  0
SEQEND
 8
0
  0
POLYLINE
  8
0
 62
     173
 66
     1
 10
0
 20
0
 30
0.0
 70
     1
 40
0
 41
0
  0
VERTEX
  8
0
 10
1.71853
 20
0.483561
 30
0.0
 40
0
 41
0
  0
VERTEX
  8
0
 10
1.71044
 20
0.524522
 30
0.0
 40
0
 41
0
  0
VERTEX
  8
0
 10
1.68929
 20
0.553765
 30
0.0
 40
0
 41
0
  0
VERTEX
  8
0
 10
1.65935
 20
0.571289
 30
0.0
 40
0
 41
0
  0
VERTEX
  8
0
 10
1.62506
 20
0.577149
 30
0.0
 40
0
 41
0
  0
VERTEX
  8
0
 10
1.59071
 20
0.571289
 30
0.0
 40
0
 41
0
  0
VERTEX
  8
0
 10
1.56076
 20
0.553765
 30
0.0
 40
0
 41
0
  0
VERTEX
  8
0
 10
1.53961
 20
0.524522
 30
0.0
 40
0
 41
0
  0
VERTEX
  8
0
 10
1.53157
 20
0.483561
 30
0.0
 40
0
 41
0
  0
VERTEX
  8
0
 10
1.53961
 20
0.442708
 30
0.0
 40
0
 41
0
  0
VERTEX
  8
0
 10
1.56076
 20
0.413465
 30
0.0
 40
0
 41
0
  0
VERTEX
  8
0
 10
1.59071
 20
0.395942
 30
0.0
 40
0
 41
0
  0
VERTEX
  8
0
 10
1.62506
 20
0.390136
 30
0.0
 40
0
 41
0
  0
VERTEX
  8
0
 10
1.65935
 20
0.395942
 30
0.0
 40
0
 41
0
  0
VERTEX
  8
0
 10
1.68929
 20
0.413465
 30
0.0
 40
0
 41
0
  0
VERTEX
  8
0
 10
1.71044
 20
0.442708
 30
0.0
 40
0
 41
0
  0
VERTEX
  8
0
 10
1.71853
 20
0.483561
 30
0.0
 40
0
 41
0
  0
SEQEND
 8
0
  0
POLYLINE
  8
0
 62
     173
 66
     1
 10
0
 20
0
 30
0.0
 70
     1
 40
0
 41
0
  0
VERTEX
  8
0
 10
1.71853
 20
0.200087
 30
0.0
 40
0
 41
0
  0
VERTEX
  8
0
 10
1.71044
 20
0.240994
 30
0.0
 40
0
 41
0
  0
VERTEX
  8
0
 10
1.68929
 20
0.270236
 30
0.0
 40
0
 41
0
  0
VERTEX
  8
0
 10
1.65935
 20
0.287761
 30
0.0
 40
0
 41
0
  0
VERTEX
  8
0
 10
1.62506
 20
0.293565
 30
0.0
 40
0
 41
0
  0
VERTEX
  8
0
 10
1.59071
 20
0.287761
 30
0.0
 40
0
 41
0
  0
VERTEX
  8
0
 10
1.56076
 20
0.270236
 30
0.0
 40
0
 41
0
  0
VERTEX
  8
0
 10
1.53961
 20
0.240994
 30
0.0
 40
0
 41
0
  0
VERTEX
  8
0
 10
1.53157
 20
0.200087
 30
0.0
 40
0
 41
0
  0
VERTEX
  8
0
 10
1.53961
 20
0.159179
 30
0.0
 40
0
 41
0
  0
VERTEX
  8
0
 10
1.56076
 20
0.129937
 30
0.0
 40
0
 41
0
  0
VERTEX
  8
0
 10
1.59071
 20
0.112413
 30
0.0
 40
0
 41
0
  0
VERTEX
  8
0
 10
1.62506
 20
0.106554
 30
0.0
 40
0
 41
0
  0
VERTEX
  8
0
 10
1.65935
 20
0.112413
 30
0.0
 40
0
 41
0
  0
VERTEX
  8
0
 10
1.68929
 20
0.129937
 30
0.0
 40
0
 41
0
  0
VERTEX
  8
0
 10
1.71044
 20
0.159179
 30
0.0
 40
0
 41
0
  0
VERTEX
  8
0
 10
1.71853
 20
0.200087
 30
0.0
 40
0
 41
0
  0
SEQEND
 8
0
  0
POLYLINE
  8
0
 62
     173
 66
     1
 10
0
 20
0
 30
0.0
 70
     1
 40
0
 41
0
  0
VERTEX
  8
0
 10
2.14854
 20
0.483561
 30
0.0
 40
0
 41
0
  0
VERTEX
  8
0
 10
2.14046
 20
0.524522
 30
0.0
 40
0
 41
0
  0
VERTEX
  8
0
 10
2.11931
 20
0.553765
 30
0.0
 40
0
 41
0
  0
VERTEX
  8
0
 10
2.08936
 20
0.571289
 30
0.0
 40
0
 41
0
  0
VERTEX
  8
0
 10
2.05501
 20
0.577149
 30
0.0
 40
0
 41
0
  0
VERTEX
  8
0
 10
2.02067
 20
0.571289
 30
0.0
 40
0
 41
0
  0
VERTEX
  8
0
 10
1.99072
 20
0.553765
 30
0.0
 40
0
 41
0
  0
VERTEX
  8
0
 10
1.96957
 20
0.524522
 30
0.0
 40
0
 41
0
  0
VERTEX
  8
0
 10
1.96153
 20
0.483561
 30
0.0
 40
0
 41
0
  0
VERTEX
  8
0
 10
1.96957
 20
0.442708
 30
0.0
 40
0
 41
0
  0
VERTEX
  8
0
 10
1.99072
 20
0.413465
 30
0.0
 40
0
 41
0
  0
VERTEX
  8
0
 10
2.02067
 20
0.395942
 30
0.0
 40
0
 41
0
  0
VERTEX
  8
0
 10
2.05501
 20
0.390136
 30
0.0
 40
0
 41
0
  0
VERTEX
  8
0
 10
2.08936
 20
0.395942
 30
0.0
 40
0
 41
0
  0
VERTEX
  8
0
 10
2.11931
 20
0.413465
 30
0.0
 40
0
 41
0
  0
VERTEX
  8
0
 10
2.14046
 20
0.442708
 30
0.0
 40
0
 41
0
  0
VERTEX
  8
0
 10
2.14854
 20
0.483561
 30
0.0
 40
0
 41
0
  0
SEQEND
 8
0
  0
POLYLINE
  8
0
 62
     173
 66
     1
 10
0
 20
0
 30
0.0
 70
     1
 40
0
 41
0
  0
VERTEX
  8
0
 10
2.14854
 20
0.200087
 30
0.0
 40
0
 41
0
  0
VERTEX
  8
0
 10
2.14046
 20
0.240994
 30
0.0
 40
0
 41
0
  0
VERTEX
  8
0
 10
2.11931
 20
0.270236
 30
0.0
 40
0
 41
0
  0
VERTEX
  8
0
 10
2.08936
 20
0.287761
 30
0.0
 40
0
 41
0
  0
VERTEX
  8
0
 10
2.05501
 20
0.293565
 30
0.0
 40
0
 41
0
  0
VERTEX
  8
0
 10
2.02067
 20
0.287761
 30
0.0
 40
0
 41
0
  0
VERTEX
  8
0
 10
1.99072
 20
0.270236
 30
0.0
 40
0
 41
0
  0
VERTEX
  8
0
 10
1.96957
 20
0.240994
 30
0.0
 40
0
 41
0
  0
VERTEX
  8
0
 10
1.96153
 20
0.200087
 30
0.0
 40
0
 41
0
  0
VERTEX
  8
0
 10
1.96957
 20
0.159179
 30
0.0
 40
0
 41
0
  0
VERTEX
  8
0
 10
1.99072
 20
0.129937
 30
0.0
 40
0
 41
0
  0
VERTEX
  8
0
 10
2.02067
 20
0.112413
 30
0.0
 40
0
 41
0
  0
VERTEX
  8
0
 10
2.05501
 20
0.106554
 30
0.0
 40
0
 41
0
  0
VERTEX
  8
0
 10
2.08936
 20
0.112413
 30
0.0
 40
0
 41
0
  0
VERTEX
  8
0
 10
2.11931
 20
0.129937
 30
0.0
 40
0
 41
0
  0
VERTEX
  8
0
 10
2.14046
 20
0.159179
 30
0.0
 40
0
 41
0
  0
VERTEX
  8
0
 10
2.14854
 20
0.200087
 30
0.0
 40
0
 41
0
  0
SEQEND
 8
0
  0
ENDSEC
  0
EOF
