<?xml version="1.0" encoding="UTF-8"?>
<svg xmlns="http://www.w3.org/2000/svg" xmlns:xlink="http://www.w3.org/1999/xlink" width="241pt" height="162pt" viewBox="0 0 241 162" version="1.1">
<g id="surface1">
<path style="fill:none;stroke-width:0.01;stroke-linecap:round;stroke-linejoin:miter;stroke:rgb(100%,49.803922%,45.098039%);stroke-opacity:1;stroke-miterlimit:10;" d="M 3.194986 0.054998 L 3.194986 0.110011 " transform="matrix(72,0,0,-72,5.7618,161.7372)"/>
<path style="fill:none;stroke-width:0.01;stroke-linecap:round;stroke-linejoin:miter;stroke:rgb(100%,49.803922%,45.098039%);stroke-opacity:1;stroke-miterlimit:10;" d="M 0.00499019 0.054998 L 3.194986 0.054998 " transform="matrix(72,0,0,-72,5.7618,161.7372)"/>
<path style="fill:none;stroke-width:0.01;stroke-linecap:round;stroke-linejoin:miter;stroke:rgb(100%,49.803922%,45.098039%);stroke-opacity:1;stroke-miterlimit:10;" d="M 3.194986 1.589991 L 3.194986 0.0999741 " transform="matrix(72,0,0,-72,5.7618,161.7372)"/>
<path style="fill:none;stroke-width:0.01;stroke-linecap:round;stroke-linejoin:miter;stroke:rgb(100%,49.803922%,45.098039%);stroke-opacity:1;stroke-miterlimit:10;" d="M 0.00499019 1.589991 L 3.194986 1.589991 " transform="matrix(72,0,0,-72,5.7618,161.7372)"/>
<path style="fill:none;stroke-width:0.01;stroke-linecap:round;stroke-linejoin:miter;stroke:rgb(100%,49.803922%,45.098039%);stroke-opacity:1;stroke-miterlimit:10;" d="M 0.00499019 0.054998 L 0.00499019 1.589991 " transform="matrix(72,0,0,-72,5.7618,161.7372)"/>
<path style=" stroke:none;fill-rule:evenodd;fill:rgb(45.098039%,45.098039%,87.058824%);fill-opacity:1;" d="M 10.082031 95.496094 C 10.082031 94.539062 8.640625 94.539062 8.640625 95.496094 C 8.640625 96.457031 10.082031 96.457031 10.082031 95.496094 "/>
<path style=" stroke:none;fill-rule:evenodd;fill:rgb(45.098039%,45.098039%,87.058824%);fill-opacity:1;" d="M 23.042969 96.21875 C 23.042969 95.257812 21.601562 95.257812 21.601562 96.21875 C 21.601562 97.175781 23.042969 97.175781 23.042969 96.21875 "/>
<path style=" stroke:none;fill-rule:evenodd;fill:rgb(45.098039%,45.098039%,87.058824%);fill-opacity:1;" d="M 25.203125 86.136719 C 25.203125 85.175781 23.761719 85.175781 23.761719 86.136719 C 23.761719 87.097656 25.203125 87.097656 25.203125 86.136719 "/>
<path style=" stroke:none;fill-rule:evenodd;fill:rgb(45.098039%,45.098039%,87.058824%);fill-opacity:1;" d="M 40.320312 74.976562 C 40.320312 74.015625 38.882812 74.015625 38.882812 74.976562 C 38.882812 75.9375 40.320312 75.9375 40.320312 74.976562 "/>
<path style=" stroke:none;fill-rule:evenodd;fill:rgb(45.098039%,45.098039%,87.058824%);fill-opacity:1;" d="M 48.601562 83.617188 C 48.601562 82.65625 47.160156 82.65625 47.160156 83.617188 C 47.160156 84.578125 48.601562 84.578125 48.601562 83.617188 "/>
<path style=" stroke:none;fill-rule:evenodd;fill:rgb(45.098039%,45.098039%,87.058824%);fill-opacity:1;" d="M 53.640625 107.378906 C 53.640625 106.417969 52.203125 106.417969 52.203125 107.378906 C 52.203125 108.335938 53.640625 108.335938 53.640625 107.378906 "/>
<path style=" stroke:none;fill-rule:evenodd;fill:rgb(45.098039%,45.098039%,87.058824%);fill-opacity:1;" d="M 63 89.015625 C 63 88.058594 61.5625 88.058594 61.5625 89.015625 C 61.5625 89.976562 63 89.976562 63 89.015625 "/>
<path style=" stroke:none;fill-rule:evenodd;fill:rgb(45.098039%,45.098039%,87.058824%);fill-opacity:1;" d="M 63.722656 116.015625 C 63.722656 115.058594 62.28125 115.058594 62.28125 116.015625 C 62.28125 116.976562 63.722656 116.976562 63.722656 116.015625 "/>
<path style=" stroke:none;fill-rule:evenodd;fill:rgb(45.098039%,45.098039%,87.058824%);fill-opacity:1;" d="M 98.28125 75.335938 C 98.28125 74.378906 96.84375 74.378906 96.84375 75.335938 C 96.84375 76.296875 98.28125 76.296875 98.28125 75.335938 "/>
<path style=" stroke:none;fill-rule:evenodd;fill:rgb(45.098039%,45.098039%,87.058824%);fill-opacity:1;" d="M 138.601562 130.417969 C 138.601562 129.457031 137.160156 129.457031 137.160156 130.417969 C 137.160156 131.378906 138.601562 131.378906 138.601562 130.417969 "/>
<path style=" stroke:none;fill-rule:evenodd;fill:rgb(45.098039%,45.098039%,87.058824%);fill-opacity:1;" d="M 143.640625 90.4375 C 143.640625 89.476562 142.203125 89.476562 142.203125 90.4375 C 142.203125 91.394531 143.640625 91.394531 143.640625 90.4375 "/>
<path style=" stroke:none;fill-rule:evenodd;fill:rgb(45.098039%,45.098039%,87.058824%);fill-opacity:1;" d="M 190.441406 140.855469 C 190.441406 139.898438 189 139.898438 189 140.855469 C 189 141.816406 190.441406 141.816406 190.441406 140.855469 "/>
<path style=" stroke:none;fill-rule:evenodd;fill:rgb(45.098039%,45.098039%,87.058824%);fill-opacity:1;" d="M 191.160156 123.9375 C 191.160156 122.976562 189.722656 122.976562 189.722656 123.9375 C 189.722656 124.898438 191.160156 124.898438 191.160156 123.9375 "/>
<path style=" stroke:none;fill-rule:evenodd;fill:rgb(45.098039%,45.098039%,87.058824%);fill-opacity:1;" d="M 194.042969 72.816406 C 194.042969 71.855469 192.601562 71.855469 192.601562 72.816406 C 192.601562 73.777344 194.042969 73.777344 194.042969 72.816406 "/>
<path style=" stroke:none;fill-rule:evenodd;fill:rgb(45.098039%,45.098039%,87.058824%);fill-opacity:1;" d="M 208.082031 96.21875 C 208.082031 95.257812 206.640625 95.257812 206.640625 96.21875 C 206.640625 97.175781 208.082031 97.175781 208.082031 96.21875 "/>
<path style=" stroke:none;fill-rule:evenodd;fill:rgb(45.098039%,45.098039%,87.058824%);fill-opacity:1;" d="M 210.960938 107.738281 C 210.960938 106.777344 209.523438 106.777344 209.523438 107.738281 C 209.523438 108.695312 210.960938 108.695312 210.960938 107.738281 "/>
<path style=" stroke:none;fill-rule:evenodd;fill:rgb(45.098039%,45.098039%,87.058824%);fill-opacity:1;" d="M 216.363281 86.136719 C 216.363281 85.175781 214.921875 85.175781 214.921875 86.136719 C 214.921875 87.097656 216.363281 87.097656 216.363281 86.136719 "/>
<path style=" stroke:none;fill-rule:evenodd;fill:rgb(45.098039%,45.098039%,87.058824%);fill-opacity:1;" d="M 231.480469 93.335938 C 231.480469 92.378906 230.042969 92.378906 230.042969 93.335938 C 230.042969 94.296875 231.480469 94.296875 231.480469 93.335938 "/>
<path style=" stroke:none;fill-rule:evenodd;fill:rgb(45.098039%,45.098039%,87.058824%);fill-opacity:1;" d="M 69.480469 64.898438 C 69.480469 63.457031 67.320312 63.457031 67.320312 64.898438 C 67.320312 66.335938 69.480469 66.335938 69.480469 64.898438 "/>
<path style=" stroke:none;fill-rule:evenodd;fill:rgb(45.098039%,45.098039%,87.058824%);fill-opacity:1;" d="M 83.882812 64.898438 C 83.882812 63.457031 81.722656 63.457031 81.722656 64.898438 C 81.722656 66.335938 83.882812 66.335938 83.882812 64.898438 "/>
<path style=" stroke:none;fill-rule:evenodd;fill:rgb(45.098039%,45.098039%,87.058824%);fill-opacity:1;" d="M 185.042969 98.015625 C 185.042969 96.578125 182.882812 96.578125 182.882812 98.015625 C 182.882812 99.457031 185.042969 99.457031 185.042969 98.015625 "/>
<path style=" stroke:none;fill-rule:evenodd;fill:rgb(45.098039%,45.098039%,87.058824%);fill-opacity:1;" d="M 199.441406 98.015625 C 199.441406 96.578125 197.28125 96.578125 197.28125 98.015625 C 197.28125 99.457031 199.441406 99.457031 199.441406 98.015625 "/>
<path style=" stroke:none;fill-rule:evenodd;fill:rgb(45.098039%,45.098039%,87.058824%);fill-opacity:1;" d="M 223.921875 131.855469 C 223.921875 130.417969 221.761719 130.417969 221.761719 131.855469 C 221.761719 133.296875 223.921875 133.296875 223.921875 131.855469 "/>
<path style=" stroke:none;fill-rule:evenodd;fill:rgb(45.098039%,45.098039%,87.058824%);fill-opacity:1;" d="M 231.121094 110.257812 C 231.121094 108.816406 228.960938 108.816406 228.960938 110.257812 C 228.960938 111.695312 231.121094 111.695312 231.121094 110.257812 "/>
<path style=" stroke:none;fill-rule:evenodd;fill:rgb(45.098039%,45.098039%,87.058824%);fill-opacity:1;" d="M 231.121094 146.257812 C 231.121094 144.816406 228.960938 144.816406 228.960938 146.257812 C 228.960938 147.695312 231.121094 147.695312 231.121094 146.257812 "/>
<path style=" stroke:none;fill-rule:evenodd;fill:rgb(45.098039%,45.098039%,87.058824%);fill-opacity:1;" d="M 92.34375 119.257812 C 92.34375 117.578125 89.820312 117.578125 89.820312 119.257812 C 89.820312 120.9375 92.34375 120.9375 92.34375 119.257812 "/>
<path style=" stroke:none;fill-rule:evenodd;fill:rgb(45.098039%,45.098039%,87.058824%);fill-opacity:1;" d="M 139.5 113.136719 C 139.5 111.457031 136.980469 111.457031 136.980469 113.136719 C 136.980469 114.816406 139.5 114.816406 139.5 113.136719 "/>
<path style=" stroke:none;fill-rule:evenodd;fill:rgb(45.098039%,45.098039%,87.058824%);fill-opacity:1;" d="M 143.820312 103.417969 C 143.820312 101.738281 141.300781 101.738281 141.300781 103.417969 C 141.300781 105.097656 143.820312 105.097656 143.820312 103.417969 "/>
<path style=" stroke:none;fill-rule:evenodd;fill:rgb(45.098039%,45.098039%,87.058824%);fill-opacity:1;" d="M 150.660156 102.695312 C 150.660156 101.015625 148.140625 101.015625 148.140625 102.695312 C 148.140625 104.378906 150.660156 104.378906 150.660156 102.695312 "/>
<path style=" stroke:none;fill-rule:evenodd;fill:rgb(45.098039%,45.098039%,87.058824%);fill-opacity:1;" d="M 169.023438 104.855469 C 169.023438 103.175781 166.5 103.175781 166.5 104.855469 C 166.5 106.539062 169.023438 106.539062 169.023438 104.855469 "/>
<path style=" stroke:none;fill-rule:evenodd;fill:rgb(45.098039%,45.098039%,87.058824%);fill-opacity:1;" d="M 21.78125 115.296875 C 21.78125 113.617188 19.261719 113.617188 19.261719 115.296875 C 19.261719 116.976562 21.78125 116.976562 21.78125 115.296875 "/>
<path style=" stroke:none;fill-rule:evenodd;fill:rgb(45.098039%,45.098039%,87.058824%);fill-opacity:1;" d="M 25.382812 108.097656 C 25.382812 106.417969 22.863281 106.417969 22.863281 108.097656 C 22.863281 109.777344 25.382812 109.777344 25.382812 108.097656 "/>
<path style=" stroke:none;fill-rule:evenodd;fill:rgb(45.098039%,45.098039%,87.058824%);fill-opacity:1;" d="M 28.980469 115.296875 C 28.980469 113.617188 26.460938 113.617188 26.460938 115.296875 C 26.460938 116.976562 28.980469 116.976562 28.980469 115.296875 "/>
<path style=" stroke:none;fill-rule:evenodd;fill:rgb(45.098039%,45.098039%,87.058824%);fill-opacity:1;" d="M 32.582031 108.097656 C 32.582031 106.417969 30.0625 106.417969 30.0625 108.097656 C 30.0625 109.777344 32.582031 109.777344 32.582031 108.097656 "/>
<path style=" stroke:none;fill-rule:evenodd;fill:rgb(45.098039%,45.098039%,87.058824%);fill-opacity:1;" d="M 36.183594 115.296875 C 36.183594 113.617188 33.660156 113.617188 33.660156 115.296875 C 33.660156 116.976562 36.183594 116.976562 36.183594 115.296875 "/>
<path style=" stroke:none;fill-rule:evenodd;fill:rgb(45.098039%,45.098039%,87.058824%);fill-opacity:1;" d="M 39.78125 108.097656 C 39.78125 106.417969 37.261719 106.417969 37.261719 108.097656 C 37.261719 109.777344 39.78125 109.777344 39.78125 108.097656 "/>
<path style=" stroke:none;fill-rule:evenodd;fill:rgb(45.098039%,45.098039%,87.058824%);fill-opacity:1;" d="M 43.382812 115.296875 C 43.382812 113.617188 40.863281 113.617188 40.863281 115.296875 C 40.863281 116.976562 43.382812 116.976562 43.382812 115.296875 "/>
<path style=" stroke:none;fill-rule:evenodd;fill:rgb(45.098039%,45.098039%,87.058824%);fill-opacity:1;" d="M 46.980469 108.097656 C 46.980469 106.417969 44.460938 106.417969 44.460938 108.097656 C 44.460938 109.777344 46.980469 109.777344 46.980469 108.097656 "/>
<path style=" stroke:none;fill-rule:evenodd;fill:rgb(45.098039%,45.098039%,87.058824%);fill-opacity:1;" d="M 73.621094 115.296875 C 73.621094 113.617188 71.101562 113.617188 71.101562 115.296875 C 71.101562 116.976562 73.621094 116.976562 73.621094 115.296875 "/>
<path style=" stroke:none;fill-rule:evenodd;fill:rgb(45.098039%,45.098039%,87.058824%);fill-opacity:1;" d="M 77.222656 108.097656 C 77.222656 106.417969 74.703125 106.417969 74.703125 108.097656 C 74.703125 109.777344 77.222656 109.777344 77.222656 108.097656 "/>
<path style=" stroke:none;fill-rule:evenodd;fill:rgb(45.098039%,45.098039%,87.058824%);fill-opacity:1;" d="M 80.820312 115.296875 C 80.820312 113.617188 78.300781 113.617188 78.300781 115.296875 C 78.300781 116.976562 80.820312 116.976562 80.820312 115.296875 "/>
<path style=" stroke:none;fill-rule:evenodd;fill:rgb(45.098039%,45.098039%,87.058824%);fill-opacity:1;" d="M 84.421875 108.097656 C 84.421875 106.417969 81.902344 106.417969 81.902344 108.097656 C 81.902344 109.777344 84.421875 109.777344 84.421875 108.097656 "/>
<path style=" stroke:none;fill-rule:evenodd;fill:rgb(45.098039%,45.098039%,87.058824%);fill-opacity:1;" d="M 88.023438 115.296875 C 88.023438 113.617188 85.5 113.617188 85.5 115.296875 C 85.5 116.976562 88.023438 116.976562 88.023438 115.296875 "/>
<path style=" stroke:none;fill-rule:evenodd;fill:rgb(45.098039%,45.098039%,87.058824%);fill-opacity:1;" d="M 91.621094 108.097656 C 91.621094 106.417969 89.101562 106.417969 89.101562 108.097656 C 89.101562 109.777344 91.621094 109.777344 91.621094 108.097656 "/>
<path style=" stroke:none;fill-rule:evenodd;fill:rgb(45.098039%,45.098039%,87.058824%);fill-opacity:1;" d="M 95.222656 115.296875 C 95.222656 113.617188 92.703125 113.617188 92.703125 115.296875 C 92.703125 116.976562 95.222656 116.976562 95.222656 115.296875 "/>
<path style=" stroke:none;fill-rule:evenodd;fill:rgb(45.098039%,45.098039%,87.058824%);fill-opacity:1;" d="M 98.820312 108.097656 C 98.820312 106.417969 96.300781 106.417969 96.300781 108.097656 C 96.300781 109.777344 98.820312 109.777344 98.820312 108.097656 "/>
<path style=" stroke:none;fill-rule:evenodd;fill:rgb(45.098039%,45.098039%,87.058824%);fill-opacity:1;" d="M 180.570312 115.289062 C 180.570312 113.609375 178.050781 113.609375 178.050781 115.289062 C 178.050781 116.96875 180.570312 116.96875 180.570312 115.289062 "/>
<path style=" stroke:none;fill-rule:evenodd;fill:rgb(45.098039%,45.098039%,87.058824%);fill-opacity:1;" d="M 184.171875 108.089844 C 184.171875 106.410156 181.652344 106.410156 181.652344 108.089844 C 181.652344 109.769531 184.171875 109.769531 184.171875 108.089844 "/>
<path style=" stroke:none;fill-rule:evenodd;fill:rgb(45.098039%,45.098039%,87.058824%);fill-opacity:1;" d="M 187.769531 115.289062 C 187.769531 113.609375 185.25 113.609375 185.25 115.289062 C 185.25 116.96875 187.769531 116.96875 187.769531 115.289062 "/>
<path style=" stroke:none;fill-rule:evenodd;fill:rgb(45.098039%,45.098039%,87.058824%);fill-opacity:1;" d="M 191.371094 108.089844 C 191.371094 106.410156 188.851562 106.410156 188.851562 108.089844 C 188.851562 109.769531 191.371094 109.769531 191.371094 108.089844 "/>
<path style=" stroke:none;fill-rule:evenodd;fill:rgb(45.098039%,45.098039%,87.058824%);fill-opacity:1;" d="M 194.96875 115.289062 C 194.96875 113.609375 192.449219 113.609375 192.449219 115.289062 C 192.449219 116.96875 194.96875 116.96875 194.96875 115.289062 "/>
<path style=" stroke:none;fill-rule:evenodd;fill:rgb(45.098039%,45.098039%,87.058824%);fill-opacity:1;" d="M 198.570312 108.089844 C 198.570312 106.410156 196.050781 106.410156 196.050781 108.089844 C 196.050781 109.769531 198.570312 109.769531 198.570312 108.089844 "/>
<path style=" stroke:none;fill-rule:evenodd;fill:rgb(45.098039%,45.098039%,87.058824%);fill-opacity:1;" d="M 202.171875 115.289062 C 202.171875 113.609375 199.652344 113.609375 199.652344 115.289062 C 199.652344 116.96875 202.171875 116.96875 202.171875 115.289062 "/>
<path style=" stroke:none;fill-rule:evenodd;fill:rgb(45.098039%,45.098039%,87.058824%);fill-opacity:1;" d="M 205.769531 108.089844 C 205.769531 106.410156 203.25 106.410156 203.25 108.089844 C 203.25 109.769531 205.769531 109.769531 205.769531 108.089844 "/>
<path style=" stroke:none;fill-rule:evenodd;fill:rgb(45.098039%,45.098039%,87.058824%);fill-opacity:1;" d="M 12.890625 90.097656 C 12.890625 88.273438 10.152344 88.273438 10.152344 90.097656 C 10.152344 91.921875 12.890625 91.921875 12.890625 90.097656 "/>
<path style=" stroke:none;fill-rule:evenodd;fill:rgb(45.098039%,45.098039%,87.058824%);fill-opacity:1;" d="M 20.089844 90.097656 C 20.089844 88.273438 17.355469 88.273438 17.355469 90.097656 C 17.355469 91.921875 20.089844 91.921875 20.089844 90.097656 "/>
<path style=" stroke:none;fill-rule:evenodd;fill:rgb(45.098039%,45.098039%,87.058824%);fill-opacity:1;" d="M 114.121094 61.296875 C 114.121094 58.898438 110.523438 58.898438 110.523438 61.296875 C 110.523438 63.695312 114.121094 63.695312 114.121094 61.296875 "/>
<path style=" stroke:none;fill-rule:evenodd;fill:rgb(45.098039%,45.098039%,87.058824%);fill-opacity:1;" d="M 114.121094 82.898438 C 114.121094 80.496094 110.523438 80.496094 110.523438 82.898438 C 110.523438 85.296875 114.121094 85.296875 114.121094 82.898438 "/>
<path style=" stroke:none;fill-rule:evenodd;fill:rgb(45.098039%,45.098039%,87.058824%);fill-opacity:1;" d="M 46.40625 90.097656 C 46.40625 87.265625 42.15625 87.265625 42.15625 90.097656 C 42.15625 92.929688 46.40625 92.929688 46.40625 90.097656 "/>
<path style=" stroke:none;fill-rule:evenodd;fill:rgb(45.098039%,45.098039%,87.058824%);fill-opacity:1;" d="M 89.605469 90.097656 C 89.605469 87.265625 85.359375 87.265625 85.359375 90.097656 C 85.359375 92.929688 89.605469 92.929688 89.605469 90.097656 "/>
<path style=" stroke:none;fill-rule:evenodd;fill:rgb(45.098039%,45.098039%,87.058824%);fill-opacity:1;" d="M 216.722656 56.617188 C 216.722656 53.738281 212.402344 53.738281 212.402344 56.617188 C 212.402344 59.496094 216.722656 59.496094 216.722656 56.617188 "/>
<path style=" stroke:none;fill-rule:evenodd;fill:rgb(45.098039%,45.098039%,87.058824%);fill-opacity:1;" d="M 223.921875 56.617188 C 223.921875 53.738281 219.601562 53.738281 219.601562 56.617188 C 219.601562 59.496094 223.921875 59.496094 223.921875 56.617188 "/>
<path style=" stroke:none;fill-rule:evenodd;fill:rgb(45.098039%,45.098039%,87.058824%);fill-opacity:1;" d="M 231.121094 56.617188 C 231.121094 53.738281 226.800781 53.738281 226.800781 56.617188 C 226.800781 59.496094 231.121094 59.496094 231.121094 56.617188 "/>
<path style=" stroke:none;fill-rule:evenodd;fill:rgb(45.098039%,45.098039%,87.058824%);fill-opacity:1;" d="M 13.039062 141.945312 C 13.039062 138.921875 8.503906 138.921875 8.503906 141.945312 C 8.503906 144.96875 13.039062 144.96875 13.039062 141.945312 "/>
<path style=" stroke:none;fill-rule:evenodd;fill:rgb(45.098039%,45.098039%,87.058824%);fill-opacity:1;" d="M 57.679688 141.945312 C 57.679688 138.921875 53.144531 138.921875 53.144531 141.945312 C 53.144531 144.96875 57.679688 144.96875 57.679688 141.945312 "/>
<path style=" stroke:none;fill-rule:evenodd;fill:rgb(45.098039%,45.098039%,87.058824%);fill-opacity:1;" d="M 64.882812 141.945312 C 64.882812 138.921875 60.34375 138.921875 60.34375 141.945312 C 60.34375 144.96875 64.882812 144.96875 64.882812 141.945312 "/>
<path style=" stroke:none;fill-rule:evenodd;fill:rgb(45.098039%,45.098039%,87.058824%);fill-opacity:1;" d="M 109.519531 141.945312 C 109.519531 138.921875 104.984375 138.921875 104.984375 141.945312 C 104.984375 144.96875 109.519531 144.96875 109.519531 141.945312 "/>
<path style=" stroke:none;fill-rule:evenodd;fill:rgb(45.098039%,45.098039%,87.058824%);fill-opacity:1;" d="M 171.828125 141.9375 C 171.828125 138.914062 167.292969 138.914062 167.292969 141.9375 C 167.292969 144.960938 171.828125 144.960938 171.828125 141.9375 "/>
<path style=" stroke:none;fill-rule:evenodd;fill:rgb(45.098039%,45.098039%,87.058824%);fill-opacity:1;" d="M 216.476562 141.9375 C 216.476562 138.914062 211.941406 138.914062 211.941406 141.9375 C 211.941406 144.960938 216.476562 144.960938 216.476562 141.9375 "/>
<path style=" stroke:none;fill-rule:evenodd;fill:rgb(45.098039%,45.098039%,87.058824%);fill-opacity:1;" d="M 21.53125 133.296875 C 21.53125 127.152344 12.3125 127.152344 12.3125 133.296875 C 12.3125 139.441406 21.53125 139.441406 21.53125 133.296875 "/>
<path style=" stroke:none;fill-rule:evenodd;fill:rgb(45.098039%,45.098039%,87.058824%);fill-opacity:1;" d="M 53.929688 133.296875 C 53.929688 127.152344 44.714844 127.152344 44.714844 133.296875 C 44.714844 139.441406 53.929688 139.441406 53.929688 133.296875 "/>
<path style=" stroke:none;fill-rule:evenodd;fill:rgb(45.098039%,45.098039%,87.058824%);fill-opacity:1;" d="M 73.371094 133.296875 C 73.371094 127.152344 64.152344 127.152344 64.152344 133.296875 C 64.152344 139.441406 73.371094 139.441406 73.371094 133.296875 "/>
<path style=" stroke:none;fill-rule:evenodd;fill:rgb(45.098039%,45.098039%,87.058824%);fill-opacity:1;" d="M 105.769531 133.296875 C 105.769531 127.152344 96.554688 127.152344 96.554688 133.296875 C 96.554688 139.441406 105.769531 139.441406 105.769531 133.296875 "/>
<path style=" stroke:none;fill-rule:evenodd;fill:rgb(45.098039%,45.098039%,87.058824%);fill-opacity:1;" d="M 180.320312 133.289062 C 180.320312 127.144531 171.101562 127.144531 171.101562 133.289062 C 171.101562 139.433594 180.320312 139.433594 180.320312 133.289062 "/>
<path style=" stroke:none;fill-rule:evenodd;fill:rgb(45.098039%,45.098039%,87.058824%);fill-opacity:1;" d="M 212.71875 133.289062 C 212.71875 127.144531 203.503906 127.144531 203.503906 133.289062 C 203.503906 139.433594 212.71875 139.433594 212.71875 133.289062 "/>
<path style=" stroke:none;fill-rule:evenodd;fill:rgb(45.098039%,45.098039%,87.058824%);fill-opacity:1;" d="M 226.441406 8.378906 C 226.441406 2.136719 217.082031 2.136719 217.082031 8.378906 C 217.082031 14.617188 226.441406 14.617188 226.441406 8.378906 "/>
<path style=" stroke:none;fill-rule:evenodd;fill:rgb(45.098039%,45.098039%,87.058824%);fill-opacity:1;" d="M 129.492188 123.324219 C 129.492188 114.347656 116.03125 114.347656 116.03125 123.324219 C 116.03125 132.300781 129.492188 132.300781 129.492188 123.324219 "/>
<path style=" stroke:none;fill-rule:evenodd;fill:rgb(45.098039%,45.098039%,87.058824%);fill-opacity:1;" d="M 129.492188 143.738281 C 129.492188 134.761719 116.03125 134.761719 116.03125 143.738281 C 116.03125 152.714844 129.492188 152.714844 129.492188 143.738281 "/>
<path style=" stroke:none;fill-rule:evenodd;fill:rgb(45.098039%,45.098039%,87.058824%);fill-opacity:1;" d="M 160.453125 123.324219 C 160.453125 114.347656 146.988281 114.347656 146.988281 123.324219 C 146.988281 132.300781 160.453125 132.300781 160.453125 123.324219 "/>
<path style=" stroke:none;fill-rule:evenodd;fill:rgb(45.098039%,45.098039%,87.058824%);fill-opacity:1;" d="M 160.453125 143.738281 C 160.453125 134.761719 146.988281 134.761719 146.988281 143.738281 C 146.988281 152.714844 160.453125 152.714844 160.453125 143.738281 "/>
</g>
</svg>
